<?xml version="1.0" encoding="UTF-8"?>
<svg xmlns="http://www.w3.org/2000/svg" xmlns:xlink="http://www.w3.org/1999/xlink" width="16px" height="16px" viewBox="0 0 16 16" version="1.1">
<g id="surface1">
<path style="fill:none;stroke-width:1.5;stroke-linecap:round;stroke-linejoin:round;stroke:rgb(0%,0%,0%);stroke-opacity:1;stroke-miterlimit:10;" d="M 12 15 C 13.658203 15 15 13.658203 15 12 C 15 10.341797 13.658203 9 12 9 C 10.341797 9 9 10.341797 9 12 C 9 13.658203 10.341797 15 12 15 Z M 12 15 " transform="matrix(0.666667,0,0,0.666667,0,0)"/>
<path style="fill:none;stroke-width:1.5;stroke-linecap:round;stroke-linejoin:round;stroke:rgb(0%,0%,0%);stroke-opacity:1;stroke-miterlimit:10;" d="M 1.998047 12.878906 L 1.998047 11.121094 C 1.998047 10.078125 2.847656 9.222656 3.902344 9.222656 C 5.712891 9.222656 6.451172 7.939453 5.537109 6.369141 C 5.021484 5.472656 5.332031 4.300781 6.240234 3.779297 L 7.96875 2.789062 C 8.759766 2.320312 9.779297 2.601562 10.248047 3.392578 L 10.359375 3.580078 C 11.261719 5.150391 12.738281 5.150391 13.652344 3.580078 L 13.757812 3.392578 C 14.232422 2.601562 15.251953 2.320312 16.037109 2.789062 L 17.771484 3.779297 C 18.679687 4.300781 18.990234 5.472656 18.46875 6.369141 C 17.560547 7.939453 18.298828 9.222656 20.109375 9.222656 C 21.152344 9.222656 22.007812 10.072266 22.007812 11.121094 L 22.007812 12.878906 C 22.007812 13.921875 21.158203 14.777344 20.109375 14.777344 C 18.298828 14.777344 17.560547 16.060547 18.46875 17.630859 C 18.990234 18.539062 18.679687 19.699219 17.771484 20.220703 L 16.037109 21.210937 C 15.251953 21.679687 14.232422 21.398437 13.757812 20.607422 L 13.652344 20.419922 C 12.75 18.849609 11.267578 18.849609 10.359375 20.419922 L 10.248047 20.607422 C 9.779297 21.398437 8.759766 21.679687 7.96875 21.210937 L 6.240234 20.220703 C 5.332031 19.699219 5.021484 18.527344 5.537109 17.630859 C 6.451172 16.060547 5.712891 14.777344 3.902344 14.777344 C 2.847656 14.777344 1.998047 13.921875 1.998047 12.878906 Z M 1.998047 12.878906 " transform="matrix(0.666667,0,0,0.666667,0,0)"/>
</g>
</svg>
