<?xml version="1.0" encoding="UTF-8"?>
<!-- Generated by Pixelmator Pro 3.7 -->
<svg width="953" height="1100" viewBox="0 0 953 1100" xmlns="http://www.w3.org/2000/svg">
    <g id="Agrupar-copia">
        <g id="Agrupar">
            <path id="Trazado" fill="#14a0de" stroke="none" d="M 594.294922 260.210083 L 621.234375 260.210083 C 631.294922 260.210083 640.916016 264.499756 647.644531 271.969482 C 654.512695 279.562256 657.704102 289.36145 656.705078 299.600098 C 654.868164 317.458496 638.202148 331.452393 618.78125 331.452393 L 582.179688 331.452393 C 571.379883 331.452393 561.888672 323.817383 559.654297 313.34729 C 558.386719 307.247314 552.788086 302.807007 546.360352 302.807007 L 504.550781 302.807007 C 500.617188 302.807007 496.813477 304.493164 494.141602 307.425293 C 491.605469 310.22229 490.337891 313.936279 490.6875 317.66394 C 495.058594 360.60376 528.515625 394.210205 571.113281 399.376831 L 571.113281 435.642944 C 571.113281 443.235107 577.279297 449.430176 584.893555 449.430176 L 626.223633 449.430176 C 633.830078 449.430176 639.99707 443.235107 639.99707 435.642944 L 639.99707 397.814819 C 686.089844 388.111328 720.860352 351.064941 725.232422 306.302246 C 728.166992 276.40979 718.674805 247.765015 698.603516 225.643799 C 678.785156 203.824219 650.579102 191.311035 621.234375 191.311035 L 589.922852 191.311035 C 579.863281 191.311035 570.194336 187.02124 563.416992 179.52417 C 556.597656 171.958862 553.404297 162.145874 554.453125 151.907227 C 556.249023 133.993896 572.908203 119.986816 592.370117 119.986816 L 628.929688 119.986816 C 639.736328 119.986816 649.179688 127.662598 651.455078 138.215576 C 652.764648 144.341919 658.232422 148.632202 664.75 148.632202 L 706.55957 148.632202 C 710.541016 148.632202 714.34375 146.945557 717.009766 143.972168 C 719.544922 141.175781 720.771484 137.475464 720.381836 133.802246 C 716.049805 90.834961 682.635742 57.242188 639.99707 52.157471 L 639.99707 15.878174 C 639.99707 8.244263 633.830078 2.035889 626.223633 2.035889 L 584.893555 2.035889 C 577.279297 2.035889 571.113281 8.244263 571.113281 15.878174 L 571.113281 52.979492 C 517.674805 62.559937 480.544922 111.297485 485.876953 166.07959 C 491.043945 218.859741 538.665039 260.210083 594.294922 260.210083 Z"/>
            <path id="path1" fill="#203a72" stroke="none" d="M 151.166016 778.668579 L 26.070313 778.668579 C 12.648438 778.668579 1.762695 789.554688 1.762695 802.983521 L 1.762695 1069.651611 C 1.762695 1083.079956 12.648438 1093.966064 26.070313 1093.966064 L 151.166016 1093.966064 C 164.585938 1093.966064 175.472656 1083.079956 175.472656 1069.651611 L 175.472656 802.983521 C 175.472656 789.554688 164.585938 778.668579 151.166016 778.668579 Z"/>
            <path id="path2" fill="#203a72" stroke="none" d="M 409.641602 638.322388 L 284.545898 638.322388 C 271.124023 638.322388 260.238281 649.208496 260.238281 662.637695 L 260.238281 1069.651611 C 260.238281 1083.079956 271.124023 1093.966064 284.545898 1093.966064 L 409.641602 1093.966064 C 423.0625 1093.966064 433.947266 1083.079956 433.947266 1069.651611 L 433.947266 662.637695 C 433.947266 649.208496 423.0625 638.322388 409.641602 638.322388 Z"/>
            <path id="path3" fill="#203a72" stroke="none" d="M 668.110352 778.668579 L 543.013672 778.668579 C 529.592773 778.668579 518.707031 789.554688 518.707031 802.983521 L 518.707031 1069.651611 C 518.707031 1083.079956 529.592773 1093.966064 543.013672 1093.966064 L 668.110352 1093.966064 C 681.530273 1093.966064 692.416016 1083.079956 692.416016 1069.651611 L 692.416016 802.983521 C 692.416016 789.554688 681.530273 778.668579 668.110352 778.668579 Z"/>
            <path id="path4" fill="#203a72" stroke="none" d="M 926.579102 638.322388 L 801.482422 638.322388 C 788.061523 638.322388 777.175781 649.208496 777.175781 662.637695 L 777.175781 1069.651611 C 777.175781 1083.079956 788.061523 1093.966064 801.482422 1093.966064 L 926.579102 1093.966064 C 939.999023 1093.966064 950.885742 1083.079956 950.885742 1069.651611 L 950.885742 662.637695 C 950.885742 649.208496 939.999023 638.322388 926.579102 638.322388 Z"/>
            <path id="path5" fill="#14a0de" stroke="none" d="M 812.708984 512.819824 C 826.956055 523.852417 844.616211 530.691895 864.03125 530.691895 C 910.541016 530.691895 948.238281 492.986938 948.238281 446.483765 C 948.238281 399.980591 910.541016 362.276123 864.03125 362.276123 C 817.527344 362.276123 779.822266 399.980591 779.822266 446.483765 C 779.822266 453.11731 780.782227 459.50415 782.228516 465.699219 L 656.882813 546.233521 C 642.635742 535.187134 624.982422 528.347656 605.5625 528.347656 C 586.140625 528.347656 568.487305 535.187134 554.241211 546.233521 L 428.894531 465.699219 C 430.341797 459.50415 431.300781 453.11731 431.300781 446.483765 C 431.300781 399.980591 393.59668 362.276123 347.092773 362.276123 C 300.583008 362.276123 262.885742 399.980591 262.885742 446.483765 C 262.885742 453.11731 263.837891 459.50415 265.291016 465.699219 L 139.945313 546.233521 C 125.699219 535.187134 108.039063 528.347656 88.618164 528.347656 C 42.114258 528.347656 4.410156 566.052612 4.410156 612.555908 C 4.410156 659.072266 42.114258 696.762939 88.618164 696.762939 C 135.12793 696.762939 172.825195 659.072266 172.825195 612.555908 C 172.825195 605.921875 171.873047 599.548706 170.419922 593.353638 L 295.772461 512.819824 C 310.011719 523.852417 327.671875 530.691895 347.092773 530.691895 C 366.506836 530.691895 384.160156 523.852417 398.407227 512.819824 L 523.758789 593.353638 C 522.306641 599.548706 521.354492 605.921875 521.354492 612.555908 C 521.354492 659.072266 559.058594 696.762939 605.5625 696.762939 C 652.066406 696.762939 689.769531 659.072266 689.769531 612.555908 C 689.769531 605.921875 688.817383 599.548706 687.364258 593.353638 L 812.708984 512.819824 Z"/>
        </g>
    </g>
</svg>
