<svg width="2059" height="386" viewBox="0 0 2059 386" fill="none" xmlns="http://www.w3.org/2000/svg">
<path d="M232.781 345.01C232.436 345.138 230.254 345.869 230.254 345.869C229.963 346.037 229.64 346.138 229.309 346.163C224.924 346.502 220.328 346.909 220.328 341.522C220.313 329.412 220.298 301.758 220.283 258.558C220.283 255.982 220.205 253.465 220.051 251.009C219.521 242.531 215.555 236.326 208.153 232.393C203.724 230.042 198.994 228.885 193.961 228.92C162.663 229.131 136.588 229.146 115.736 228.965C100.471 228.829 85.8146 224.585 71.765 216.233C68.3013 214.173 64.6902 211.376 60.9316 207.84C55.9685 203.169 52.6798 199.879 51.0654 197.97C43.5033 189.025 38.6402 178.538 36.476 166.509C35.8263 162.887 35.4664 159.407 35.3964 156.067C35.2915 151.418 34.7892 147.086 34.7742 142.038C34.7492 133.244 34.7567 124.936 34.7967 117.116C34.8117 114.354 34.9066 112.214 35.0816 110.697C35.4414 107.623 35.4489 104.881 35.8838 102.161C37.6631 91.0313 41.5841 81.0739 47.6467 72.2894C60.2344 54.0497 80.8215 42.8091 102.975 39.9839C105.41 39.6725 107.766 39.5821 110.045 39.7127C113.074 39.8935 113.404 42.4851 113.419 45.1145C113.606 71.2949 113.561 97.1438 113.404 128.847C113.374 134.457 113.809 138.636 114.708 141.383C117.67 150.492 126.696 156.684 136.465 157.023C139.097 157.114 142.08 157.43 145.192 157.438C174.575 157.453 197.087 157.496 212.726 157.566C215.975 157.581 219.976 157.9 224.729 158.523C234.28 159.788 242.812 162.583 251.276 167.059C251.746 167.31 254.295 168.653 258.923 171.089C264.286 173.912 269.282 177.558 273.91 182.029C284.128 191.875 291.656 203.063 294.744 216.617C296.176 222.908 296.859 229.304 296.769 236.175C296.634 246.1 296.606 257.955 296.686 271.743C296.706 275.093 296.219 279.744 295.224 285.695C291.258 309.487 273.895 328.194 252.753 339.058C245.836 342.614 235.452 346.228 229.309 346.163C229.309 346.163 233.126 344.882 232.781 345.01Z" fill="#93BCFF"/>
<rect x="125.572" y="39.5088" width="83.218" height="83.6266" rx="8.92421" fill="#93BCFF"/>
<rect x="125.572" y="262.513" width="83.218" height="83.6266" rx="8.92421" fill="#93BCFF"/>
<rect x="221.535" y="39.5088" width="76.4706" height="83.6266" rx="8.92421" fill="#669DF6"/>
<rect x="37.1055" y="262.513" width="76.4706" height="83.6266" rx="8.92421" fill="#669DF6"/>
<path d="M397.216 203.9C388.149 203.9 383.616 208.433 383.616 217.5V236.2H441.416V217.5C441.416 208.433 436.882 203.9 427.816 203.9H397.216ZM494.116 341.6C450.369 346.133 410.702 348.4 375.116 348.4C359.702 348.4 347.349 343.753 338.056 334.46C328.762 325.167 324.116 312.813 324.116 297.4V215.8C324.116 198.8 328.876 185.54 338.396 176.02C348.142 166.273 361.516 161.4 378.516 161.4H446.516C463.516 161.4 476.776 166.273 486.296 176.02C496.042 185.54 500.916 198.8 500.916 215.8V278.7H383.616V292.3C383.616 295.7 384.749 298.533 387.016 300.8C389.282 303.067 392.116 304.2 395.516 304.2C417.956 304.2 450.822 302.5 494.116 299.1V341.6ZM628.283 210.7C616.269 210.7 602.669 212.967 587.483 217.5V345H527.983V164.8H580.683L584.083 181.8C594.736 174.773 605.616 169.673 616.723 166.5C628.056 163.1 637.576 161.4 645.283 161.4H660.583C675.996 161.4 688.349 166.047 697.643 175.34C706.936 184.633 711.583 196.987 711.583 212.4V345H652.083V222.6C652.083 219.2 650.949 216.367 648.683 214.1C646.416 211.833 643.583 210.7 640.183 210.7H628.283ZM731.943 297.4C777.956 300.8 814.223 302.5 840.743 302.5C844.143 302.5 846.976 301.367 849.243 299.1C851.51 296.833 852.643 294 852.643 290.6V278.7H779.543C764.13 278.7 751.776 274.053 742.483 264.76C733.19 255.467 728.543 243.113 728.543 227.7V215.8C728.543 200.387 733.19 188.033 742.483 178.74C751.776 169.447 764.13 164.8 779.543 164.8H895.143V209H799.943C796.543 209 793.71 210.133 791.443 212.4C789.176 214.667 788.043 217.5 788.043 220.9C788.043 224.3 789.176 227.133 791.443 229.4C793.71 231.667 796.543 232.8 799.943 232.8H861.143C876.556 232.8 888.91 237.447 898.203 246.74C907.496 256.033 912.143 268.387 912.143 283.8V297.4C912.143 312.813 907.496 325.167 898.203 334.46C888.91 343.753 876.556 348.4 861.143 348.4C821.023 348.4 777.956 346.133 731.943 341.6V297.4ZM1002.27 203.9C993.203 203.9 988.67 208.433 988.67 217.5V236.2H1046.47V217.5C1046.47 208.433 1041.94 203.9 1032.87 203.9H1002.27ZM1099.17 341.6C1055.42 346.133 1015.76 348.4 980.17 348.4C964.756 348.4 952.403 343.753 943.11 334.46C933.816 325.167 929.17 312.813 929.17 297.4V215.8C929.17 198.8 933.93 185.54 943.45 176.02C953.196 166.273 966.57 161.4 983.57 161.4H1051.57C1068.57 161.4 1081.83 166.273 1091.35 176.02C1101.1 185.54 1105.97 198.8 1105.97 215.8V278.7H988.67V292.3C988.67 295.7 989.803 298.533 992.07 300.8C994.336 303.067 997.17 304.2 1000.57 304.2C1023.01 304.2 1055.88 302.5 1099.17 299.1V341.6Z" fill="#93BCFF"/>
<path d="M1252.04 345H1190.84V154.6H1119.44V107H1323.44V154.6H1252.04V345ZM1394.94 300.8C1406.96 300.8 1420.56 298.533 1435.74 294V273.6H1386.44C1383.04 273.6 1380.21 274.733 1377.94 277C1375.68 279.267 1374.54 282.1 1374.54 285.5V288.9C1374.54 292.3 1375.68 295.133 1377.94 297.4C1380.21 299.667 1383.04 300.8 1386.44 300.8H1394.94ZM1332.04 168.2C1373.52 163.667 1410.92 161.4 1444.24 161.4C1459.66 161.4 1472.01 166.047 1481.3 175.34C1490.6 184.633 1495.24 196.987 1495.24 212.4V345H1442.54L1439.14 328C1428.49 335.027 1417.5 340.24 1406.16 343.64C1395.06 346.813 1385.65 348.4 1377.94 348.4H1366.04C1350.63 348.4 1338.28 343.753 1328.98 334.46C1319.69 325.167 1315.04 312.813 1315.04 297.4V282.1C1315.04 266.687 1319.69 254.333 1328.98 245.04C1338.28 235.747 1350.63 231.1 1366.04 231.1H1435.74V217.5C1435.74 214.1 1434.61 211.267 1432.34 209C1430.08 206.733 1427.24 205.6 1423.84 205.6C1409.11 205.6 1392.79 206.28 1374.88 207.64C1357.2 209 1342.92 210.02 1332.04 210.7V168.2ZM1643.05 219.2C1643.05 215.8 1641.92 212.967 1639.65 210.7C1637.38 208.433 1634.55 207.3 1631.15 207.3H1622.65C1613.13 207.3 1604.86 207.753 1597.83 208.66C1591.03 209.567 1585.7 210.247 1581.85 210.7V299.1H1629.45C1638.52 299.1 1643.05 294.567 1643.05 285.5V219.2ZM1581.85 168.2C1603.84 163.667 1623.1 161.4 1639.65 161.4H1651.55C1666.96 161.4 1679.32 166.047 1688.61 175.34C1697.9 184.633 1702.55 196.987 1702.55 212.4V290.6C1702.55 307.6 1697.68 320.973 1687.93 330.72C1678.41 340.24 1665.15 345 1648.15 345H1522.35V107H1581.85V168.2ZM1821.59 345C1806.4 347.267 1791.9 348.4 1778.07 348.4C1764.47 348.4 1753.02 343.753 1743.73 334.46C1734.44 325.167 1729.79 312.813 1729.79 297.4V107H1789.29V288.9C1789.29 292.3 1790.42 295.133 1792.69 297.4C1794.96 299.667 1797.79 300.8 1801.19 300.8H1821.59V345ZM1911.64 203.9C1902.57 203.9 1898.04 208.433 1898.04 217.5V236.2H1955.84V217.5C1955.84 208.433 1951.3 203.9 1942.24 203.9H1911.64ZM2008.54 341.6C1964.79 346.133 1925.12 348.4 1889.54 348.4C1874.12 348.4 1861.77 343.753 1852.48 334.46C1843.18 325.167 1838.54 312.813 1838.54 297.4V215.8C1838.54 198.8 1843.3 185.54 1852.82 176.02C1862.56 166.273 1875.94 161.4 1892.94 161.4H1960.94C1977.94 161.4 1991.2 166.273 2000.72 176.02C2010.46 185.54 2015.34 198.8 2015.34 215.8V278.7H1898.04V292.3C1898.04 295.7 1899.17 298.533 1901.44 300.8C1903.7 303.067 1906.54 304.2 1909.94 304.2C1932.38 304.2 1965.24 302.5 2008.54 299.1V341.6Z" fill="#669DF6"/>
</svg>
