<svg xmlns="http://www.w3.org/2000/svg" viewBox="0 -512 512 512">
	<path fill="#000000" d="M256 -363Q225 -363 203 -341Q181 -319 181 -288.5Q181 -258 203 -237Q178 -220 163.5 -194Q149 -168 149 -137.5Q149 -107 165 -80Q181 -53 208 -37Q235 -21 267 -21Q325 -21 373 -50L352 -87Q312 -64 267 -64Q236 -64 214 -86Q192 -108 192 -139Q192 -164 207.5 -184Q223 -204 247 -211L358 -241L347 -282L252 -256Q240 -258 232 -267Q224 -276 224 -288.5Q224 -301 233.5 -310.5Q243 -320 256 -320Q264 -320 272 -316L293 -353Q276 -363 256 -363Z"/>
</svg>