<svg xmlns="http://www.w3.org/2000/svg" viewBox="0 -512 512 512">
	<path fill="#000000" d="M192 -21Q192 -63 220 -137Q248 -211 296 -293Q303 -306 315 -313Q327 -320 341 -320Q359 -320 371.5 -307.5Q384 -295 384 -277V-21H427V-277Q427 -313 402 -338Q377 -363 341 -363Q315 -363 293 -349.5Q271 -336 259 -315Q214 -237 192 -170V-309Q192 -331 176.5 -347Q161 -363 139 -363Q117 -363 101 -347Q85 -331 85 -309Q85 -287 101 -271.5Q117 -256 139 -256Q146 -256 149 -257V-21ZM139 -320Q143 -320 146 -317Q149 -314 149 -309.5Q149 -305 146 -302Q143 -299 138.5 -299Q134 -299 131 -302Q128 -305 128 -309.5Q128 -314 131 -317Q134 -320 139 -320Z"/>
</svg>