<svg xmlns="http://www.w3.org/2000/svg" viewBox="0 -512 512 512">
	<path fill="#000000" d="M105 -364Q76 -335 59.5 -296Q43 -257 43 -213.5Q43 -170 59.5 -131Q76 -92 105 -63L135 -93Q112 -116 98.5 -147Q85 -178 85 -213Q85 -248 98.5 -279.5Q112 -311 135 -334ZM407 -364L377 -334Q400 -311 413.5 -279.5Q427 -248 427 -213Q427 -178 413.5 -147Q400 -116 377 -93L407 -63Q436 -92 452.5 -131Q469 -170 469 -213.5Q469 -257 452.5 -296Q436 -335 407 -364ZM166 -304Q148 -286 138 -262.5Q128 -239 128 -213Q128 -187 138 -164Q148 -141 166 -123L196 -153Q171 -178 171 -213.5Q171 -249 196 -274ZM346 -304L316 -274Q341 -249 341 -213.5Q341 -178 316 -153L346 -123Q364 -141 374 -164Q384 -187 384 -213Q384 -239 374 -262.5Q364 -286 346 -304ZM256 -256Q238 -256 225.5 -243.5Q213 -231 213 -213.5Q213 -196 225.5 -183.5Q238 -171 256 -171Q274 -171 286.5 -183.5Q299 -196 299 -213.5Q299 -231 286.5 -243.5Q274 -256 256 -256ZM235 -128V-43H213Q204 -43 198 -36.5Q192 -30 192 -21H43V21H192Q192 30 198 36.5Q204 43 213 43H299Q308 43 314 36.5Q320 30 320 21H469V-21H320Q320 -30 314 -36.5Q308 -43 299 -43H277V-128Z"/>
</svg>