<svg xmlns="http://www.w3.org/2000/svg" viewBox="0 -512 512 512">
	<path fill="#000000" d="M316 -153Q341 -178 341 -213.5Q341 -249 316 -274L346 -304Q364 -286 374 -262.5Q384 -239 384 -213Q384 -187 374 -164Q364 -141 346 -123ZM299 -213Q299 -231 286.5 -243.5Q274 -256 255.5 -256Q237 -256 224 -241L284 -181Q299 -194 299 -213ZM377 -93L407 -63Q436 -92 452.5 -131Q469 -170 469 -213.5Q469 -257 452.5 -296Q436 -335 407 -364L377 -334Q400 -311 413.5 -279.5Q427 -248 427 -213Q427 -178 413.5 -147Q400 -116 377 -93ZM469 4V-21H444ZM432 21L448 37L421 64L378 21H320Q320 30 314 36.5Q308 43 299 43H213Q204 43 198 36.5Q192 30 192 21H43V-21H192Q192 -30 198 -36.5Q204 -43 213 -43H235V-122L178 -179Q185 -163 196 -153L166 -123Q148 -141 138 -164Q128 -187 128 -213Q128 -223 129 -228L93 -264Q85 -238 85 -213Q85 -178 98.5 -147Q112 -116 135 -93L105 -63Q76 -92 59.5 -131Q43 -170 43 -213.5Q43 -257 60 -297L21 -336L49 -363L433 21ZM336 -21L277 -80V-43H299Q308 -43 314 -36.5Q320 -30 320 -21Z"/>
</svg>