<svg xmlns="http://www.w3.org/2000/svg" viewBox="0 -512 512 512">
	<path fill="#000000" d="M445 37L258 -149H256Q238 -149 225.5 -161.5Q213 -174 213 -192V-194L179 -228Q171 -211 171 -192Q171 -157 196 -132L166 -102Q148 -119 138 -142.5Q128 -166 128 -192Q128 -229 148 -260L117 -291Q85 -247 85 -192Q85 -157 98.5 -126Q112 -95 135 -71L105 -41Q76 -71 59.5 -110Q43 -149 43 -192Q43 -264 87 -321L24 -384L51 -411L472 10ZM340 -176L374 -142Q384 -166 384 -192Q384 -218 374 -241.5Q364 -265 346 -282L316 -252Q341 -227 341 -192Q341 -185 340 -176ZM406 -110L437 -79Q469 -131 469 -192Q469 -235 452.5 -274Q436 -313 407 -343L377 -313Q400 -289 413.5 -258Q427 -227 427 -192Q427 -148 406 -110Z"/>
</svg>