<svg xmlns="http://www.w3.org/2000/svg" viewBox="0 -512 512 512">
	<path fill="#000000" d="M341 -192Q341 -227 316 -252L346 -282Q364 -265 374 -241.5Q384 -218 384 -192Q362 -192 340 -184ZM427 -185Q449 -176 467 -161Q469 -179 469 -192Q469 -235 452.5 -274Q436 -313 407 -343L377 -313Q400 -289 413.5 -258Q427 -227 427 -192ZM256 -235Q238 -235 225.5 -222.5Q213 -210 213 -192Q213 -174 225.5 -161.5Q238 -149 256 -149Q274 -149 286.5 -161.5Q299 -174 299 -192Q299 -210 286.5 -222.5Q274 -235 256 -235ZM166 -282Q148 -265 138 -241.5Q128 -218 128 -192Q128 -166 138 -142.5Q148 -119 166 -102L196 -132Q171 -157 171 -192Q171 -227 196 -252ZM135 -313L105 -343Q76 -313 59.5 -274Q43 -235 43 -192Q43 -149 59.5 -110Q76 -71 105 -41L135 -71Q112 -95 98.5 -126Q85 -157 85 -192Q85 -227 98.5 -258Q112 -289 135 -313ZM299 -43H469V-85H299Z"/>
</svg>