<svg xmlns="http://www.w3.org/2000/svg" viewBox="0 -512 512 512">
	<path fill="#000000" d="M85 -320H43V-21Q43 -4 55.5 8.5Q68 21 85 21H384V-21H85ZM395 -144Q395 -159 377 -171Q362 -181 338 -187Q316 -192 298.5 -192Q281 -192 260 -187Q235 -181 220 -171Q203 -159 203 -144V-128H395ZM299 -229Q319 -229 333 -243Q347 -257 347 -277Q347 -297 333 -311Q319 -325 299 -325Q279 -325 265 -311Q251 -297 251 -277Q251 -257 265 -243Q279 -229 299 -229ZM427 -405H171Q153 -405 140.5 -392.5Q128 -380 128 -363V-107Q128 -89 140.5 -76.5Q153 -64 171 -64H427Q444 -64 456.5 -76.5Q469 -89 469 -107V-363Q469 -380 456.5 -392.5Q444 -405 427 -405ZM427 -107H171V-363H427Z"/>
</svg>