<svg xmlns="http://www.w3.org/2000/svg" viewBox="0 -512 512 512">
	<path fill="#000000" d="M405 -111L336 -180Q368 -170 386.5 -153.5Q405 -137 405 -117ZM278 -238L185 -331Q192 -354 211.5 -369Q231 -384 256 -384Q287 -384 309 -362Q331 -340 331 -309Q331 -285 316 -265Q301 -245 278 -238ZM256 -277Q269 -277 278.5 -286.5Q288 -296 288 -309.5Q288 -323 278.5 -332Q269 -341 256 -341Q243 -341 233.5 -332Q224 -323 224 -309.5Q224 -296 233.5 -286.5Q243 -277 256 -277ZM469 21H460L445 37L429 21H320Q320 30 313.5 36.5Q307 43 299 43H213Q205 43 198.5 36.5Q192 30 192 21H43V-21H192Q192 -30 198.5 -36.5Q205 -43 213 -43H235V-85H107V-117Q107 -143 138.5 -163Q170 -183 218 -189L24 -384L51 -411L472 10L469 12ZM280 -128L258 -149H256Q225 -149 199 -142Q177 -137 162 -128ZM386 -21L322 -85H277V-43H299Q307 -43 313.5 -36.5Q320 -30 320 -21Z"/>
</svg>