<svg xmlns="http://www.w3.org/2000/svg" viewBox="0 -512 512 512">
	<path fill="#000000" d="M192 -341Q227 -341 252 -316Q277 -291 277 -256Q277 -221 252 -196Q227 -171 192 -171Q157 -171 132 -196Q107 -221 107 -256Q107 -291 132 -316Q157 -341 192 -341ZM192 -128Q224 -128 262 -118Q305 -108 331 -90Q363 -69 363 -43V0H21V-43Q21 -69 53 -90Q79 -108 122 -118Q160 -128 192 -128ZM358 -334Q390 -298 390 -254.5Q390 -211 358 -179L322 -215Q335 -233 335 -256Q335 -279 322 -298ZM428 -405Q469 -363 483.5 -309Q498 -255 483.5 -201.5Q469 -148 428 -107L393 -141Q423 -175 433 -216Q443 -257 433 -298Q423 -339 393 -371Z"/>
</svg>