<svg xmlns="http://www.w3.org/2000/svg" viewBox="0 -512 512 512">
	<path fill="#000000" d="M256 -85Q238 -85 225.5 -97.5Q213 -110 213 -128Q213 -146 225.5 -158.5Q238 -171 256 -171Q274 -171 286.5 -158.5Q299 -146 299 -128Q299 -110 286.5 -97.5Q274 -85 256 -85ZM256 -235Q284 -235 317 -226Q355 -217 378 -202Q405 -183 405 -160V-51Q405 -25 370 -4V-163Q370 -169 352.5 -178.5Q335 -188 310 -194Q282 -202 256 -202Q230 -202 202 -194Q177 -188 159.5 -178.5Q142 -169 142 -163V-48Q142 -44 151.5 -37.5Q161 -31 177 -25Q187 -37 214 -45Q236 -52 256 -52Q283 -52 309 -41Q341 -29 341 -9V8Q320 16 297 20Q274 24 256 24Q238 24 215 20Q192 16 171 8Q142 -2 126 -16Q107 -32 107 -51V-160Q107 -183 134 -202Q157 -217 195 -226Q228 -235 256 -235ZM256 -368Q240 -368 229.5 -357Q219 -346 219 -330.5Q219 -315 229.5 -304Q240 -293 256 -293Q272 -293 282.5 -304Q293 -315 293 -330.5Q293 -346 282.5 -357Q272 -368 256 -368ZM256 -256Q225 -256 203 -278Q181 -300 181 -331Q181 -362 203 -383.5Q225 -405 256 -405Q287 -405 309 -383.5Q331 -362 331 -331Q331 -300 309 -278Q287 -256 256 -256Z"/>
</svg>