<svg xmlns="http://www.w3.org/2000/svg" viewBox="0 -512 512 512">
	<path fill="#000000" d="M213 -192Q249 -192 274 -217Q299 -242 299 -277.5Q299 -313 274 -338Q249 -363 213.5 -363Q178 -363 153 -338Q128 -313 128 -277.5Q128 -242 153 -217Q178 -192 213 -192ZM213 -320Q231 -320 243.5 -307.5Q256 -295 256 -277.5Q256 -260 243.5 -247.5Q231 -235 213.5 -235Q196 -235 183.5 -247.5Q171 -260 171 -277.5Q171 -295 183.5 -307.5Q196 -320 213 -320ZM198 -21H43V-85Q43 -112 74 -133Q101 -150 144 -161Q182 -171 213 -171Q251 -171 296 -158Q268 -147 245 -128Q228 -130 213 -130Q184 -130 151 -122Q123 -114 103 -103Q83 -92 83 -85V-62H197L195 -59L189 -43ZM363 -64Q372 -64 378 -58Q384 -52 384 -43Q384 -34 378 -27.5Q372 -21 363 -21Q354 -21 347.5 -27.5Q341 -34 341 -43Q341 -52 347.5 -58Q354 -64 363 -64ZM363 -128Q320 -128 285 -104.5Q250 -81 235 -43Q250 -5 285 19Q320 43 363 43Q406 43 440.5 19Q475 -5 491 -43Q475 -81 440.5 -104.5Q406 -128 363 -128ZM363 11Q341 11 325 -5Q309 -21 309 -43Q309 -65 325 -80.5Q341 -96 363 -96Q385 -96 400.5 -80.5Q416 -65 416 -43Q416 -21 400.5 -5Q385 11 363 11Z"/>
</svg>