<svg xmlns="http://www.w3.org/2000/svg" viewBox="0 -512 512 512">
	<path fill="#000000" d="M437 -139V-107H405V-139ZM395 -245H363V-256Q363 -283 381.5 -301.5Q400 -320 426.5 -320Q453 -320 472 -301.5Q491 -283 491 -256Q491 -241 483.5 -227Q476 -213 463 -205L457 -201Q437 -187 437 -164V-160H405V-164Q405 -183 414 -200Q423 -217 439 -227L445 -231Q459 -240 459 -256Q459 -269 449.5 -278.5Q440 -288 426.5 -288Q413 -288 404 -278.5Q395 -269 395 -256ZM192 -171Q224 -171 262 -161Q305 -150 331 -133Q363 -112 363 -85V-21H21V-85Q21 -112 53 -133Q79 -150 122 -161Q160 -171 192 -171ZM192 -363Q227 -363 252 -338Q277 -313 277 -277.5Q277 -242 252 -217Q227 -192 192 -192Q157 -192 132 -217Q107 -242 107 -277.5Q107 -313 132 -338Q157 -363 192 -363ZM192 -130Q162 -130 130 -122Q102 -114 82 -103Q62 -92 62 -85V-62H322V-85Q322 -92 302 -103Q282 -114 254 -122Q222 -130 192 -130ZM192 -322Q173 -322 160 -309Q147 -296 147 -277.5Q147 -259 160 -246Q173 -233 192 -233Q211 -233 224 -246Q237 -259 237 -277.5Q237 -296 224 -309Q211 -322 192 -322Z"/>
</svg>