<svg xmlns="http://www.w3.org/2000/svg" viewBox="0 -512 512 512">
	<path fill="#000000" d="M277 -85V-43H299Q308 -43 314 -36.5Q320 -30 320 -21H469V21H320Q320 30 314 36.5Q308 43 299 43H213Q204 43 198 36.5Q192 30 192 21H43V-21H192Q192 -30 198 -36.5Q204 -43 213 -43H235V-85H107V-117Q107 -138 127 -155Q147 -172 181 -182Q215 -192 256 -192Q297 -192 331 -182Q365 -172 385 -155Q405 -138 405 -117V-85ZM256 -384Q287 -384 309 -362Q331 -340 331 -309Q331 -278 309 -256.5Q287 -235 256 -235Q225 -235 203 -256.5Q181 -278 181 -309Q181 -340 203 -362Q225 -384 256 -384Z"/>
</svg>