<svg xmlns="http://www.w3.org/2000/svg" viewBox="0 -512 512 512">
	<path fill="#000000" d="M213 -192Q249 -192 274 -217Q299 -242 299 -277.5Q299 -313 274 -338Q249 -363 213.5 -363Q178 -363 153 -338Q128 -313 128 -277.5Q128 -242 153 -217Q178 -192 213 -192ZM213 -320Q231 -320 243.5 -307.5Q256 -295 256 -277.5Q256 -260 243.5 -247.5Q231 -235 213.5 -235Q196 -235 183.5 -247.5Q171 -260 171 -277.5Q171 -295 183.5 -307.5Q196 -320 213 -320ZM256 -21H43V-85Q43 -112 74 -133Q101 -150 144 -161Q182 -171 213 -171Q250 -171 292 -159Q282 -140 282 -120Q246 -130 213 -130Q184 -130 151 -122Q123 -114 103 -103Q83 -92 83 -85V-62H256ZM444 -85V-117Q444 -139 425.5 -155Q407 -171 384 -171Q361 -171 342.5 -155Q324 -139 324 -117V-85Q315 -85 307 -77Q299 -69 299 -60V15Q299 26 306.5 34.5Q314 43 324 43H442Q453 43 461 35Q469 27 469 17V-58Q469 -69 461.5 -77Q454 -85 444 -85ZM416 -85H352V-117Q352 -130 361.5 -137.5Q371 -145 384 -145Q397 -145 406.5 -137.5Q416 -130 416 -117Z"/>
</svg>