<svg xmlns="http://www.w3.org/2000/svg" viewBox="0 -512 512 512">
	<path fill="#000000" d="M463 -158L436 -186Q432 -189 427.5 -189Q423 -189 419 -186L398 -164L442 -121L463 -142Q466 -145 466 -150Q466 -155 463 -158ZM256 21H300L429 -108L385 -152L256 -23ZM213 0H107Q89 0 76.5 -12.5Q64 -25 64 -43V-341Q64 -359 76.5 -371.5Q89 -384 107 -384H405Q423 -384 435.5 -371.5Q448 -359 448 -341V-228Q426 -236 405 -227V-341H107V-43H216L213 -40ZM312 -139L258 -85H160V-101Q160 -116 178 -128Q193 -138 217 -144Q238 -149 256 -149Q284 -149 312 -139ZM290 -201Q275 -187 256 -187Q237 -187 222.5 -201Q208 -215 208 -234.5Q208 -254 222.5 -268.5Q237 -283 256 -283Q275 -283 289.5 -268.5Q304 -254 304 -234.5Q304 -215 290 -201Z"/>
</svg>