<svg xmlns="http://www.w3.org/2000/svg" viewBox="0 -512 512 512">
	<path fill="#000000" d="M256 -448L242 -447L323 -366L352 -395Q405 -369 439 -321Q473 -273 479 -213H511Q506 -278 470.5 -332Q435 -386 378.5 -417Q322 -448 256 -448ZM256 -363Q225 -363 203 -341Q181 -319 181 -288Q181 -257 203 -235Q225 -213 256 -213Q287 -213 309 -235Q331 -257 331 -288Q331 -319 309 -341Q287 -363 256 -363ZM1 -171Q6 -106 41.5 -52Q77 2 133.5 33Q190 64 256 64L270 63L189 -18L160 11Q107 -15 73 -63Q39 -111 33 -171ZM256 -171Q215 -171 181 -161Q147 -151 127 -133.5Q107 -116 107 -96V-64H405V-96Q405 -116 385 -133.5Q365 -151 331 -161Q297 -171 256 -171Z"/>
</svg>