<svg xmlns="http://www.w3.org/2000/svg" viewBox="0 -512 512 512">
	<path fill="#000000" d="M279 -226Q299 -254 299 -288Q299 -322 279 -350Q297 -363 320 -363Q351 -363 373 -341Q395 -319 395 -288Q395 -257 373 -235Q351 -213 320 -213Q297 -213 279 -226ZM117 -288Q117 -311 130 -329.5Q143 -348 163.5 -357Q184 -366 206.5 -361.5Q229 -357 245 -341Q261 -325 265.5 -302.5Q270 -280 261 -259.5Q252 -239 233.5 -226Q215 -213 192 -213Q161 -213 139 -235Q117 -257 117 -288ZM160 -288Q160 -275 169.5 -265.5Q179 -256 192 -256Q205 -256 214.5 -265.5Q224 -275 224 -288Q224 -301 214.5 -310.5Q205 -320 192 -320Q179 -320 169.5 -310.5Q160 -301 160 -288ZM341 -85V-43H43V-85L44 -94Q46 -105 52 -115Q61 -130 75 -141Q93 -154 119 -162Q150 -171 192 -171Q258 -171 297 -149Q325 -133 336 -107Q341 -95 341 -85ZM299 -85Q296 -101 274 -113Q245 -128 192 -128Q156 -128 130 -120Q108 -114 96 -103Q86 -94 85 -85ZM340 -171Q360 -155 371.5 -132.5Q383 -110 384 -85V-43H469V-85L468 -93Q466 -103 461 -113Q454 -127 441 -137Q426 -151 403 -159Q376 -168 340 -171Z"/>
</svg>