<svg xmlns="http://www.w3.org/2000/svg" viewBox="0 -512 512 512">
	<path fill="#000000" d="M357 -355Q390 -320 390 -276Q390 -232 357 -200L321 -236Q335 -255 335 -277.5Q335 -300 321 -319ZM428 -427Q469 -384 483.5 -330Q498 -276 483.5 -222.5Q469 -169 428 -128L393 -163Q422 -196 432.5 -237.5Q443 -279 432.5 -319.5Q422 -360 393 -392ZM285 -154Q319 -143 339 -127Q363 -108 363 -85V21H21V-85Q21 -108 45 -127Q65 -143 99 -154L117 -117Q94 -110 78 -101Q62 -92 62 -85V-19H152L171 -127L151 -167Q173 -170 192 -170Q211 -170 233 -167L213 -127L232 -19H322V-85Q322 -92 306 -101Q290 -110 267 -117L272 -128ZM192 -320Q174 -320 161.5 -307.5Q149 -295 149 -277.5Q149 -260 161.5 -247.5Q174 -235 192 -235Q210 -235 222.5 -247.5Q235 -260 235 -277.5Q235 -295 222.5 -307.5Q210 -320 192 -320ZM192 -192Q157 -192 132 -217Q107 -242 107 -277.5Q107 -313 132 -338Q157 -363 192 -363Q227 -363 252 -338Q277 -313 277 -277.5Q277 -242 252 -217Q227 -192 192 -192Z"/>
</svg>