<svg xmlns="http://www.w3.org/2000/svg" viewBox="0 -512 512 512">
	<path fill="#000000" d="M256 -235Q287 -235 309 -256.5Q331 -278 331 -309Q331 -340 309 -362Q287 -384 256 -384Q225 -384 203 -362Q181 -340 181 -309Q181 -278 203 -256.5Q225 -235 256 -235ZM256 -341Q269 -341 278.5 -332Q288 -323 288 -309.5Q288 -296 278.5 -286.5Q269 -277 256 -277Q243 -277 233.5 -286.5Q224 -296 224 -309.5Q224 -323 233.5 -332Q243 -341 256 -341ZM320 -21Q320 -30 314 -36.5Q308 -43 299 -43H277V-85H405V-117Q405 -138 385 -155Q365 -172 331 -182Q297 -192 256 -192Q215 -192 181 -182Q147 -172 127 -155Q107 -138 107 -117V-85H235V-43H213Q204 -43 198 -36.5Q192 -30 192 -21H43V21H192Q192 30 198 36.5Q204 43 213 43H299Q308 43 314 36.5Q320 30 320 21H469V-21ZM162 -128Q177 -137 199 -142Q225 -149 256 -149Q287 -149 313 -142Q335 -137 350 -128Z"/>
</svg>