<svg xmlns="http://www.w3.org/2000/svg" viewBox="0 -512 512 512">
	<path fill="#000000" d="M405 -85V-43H149V-85L150 -94Q152 -105 158 -115Q165 -130 177 -141Q192 -154 215 -162Q241 -171 277 -171Q334 -171 367 -149Q391 -133 401 -107Q405 -95 405 -85ZM341 -277Q341 -304 322.5 -322.5Q304 -341 277.5 -341Q251 -341 232 -322.5Q213 -304 213 -277.5Q213 -251 232 -232Q251 -213 277.5 -213Q304 -213 322.5 -232Q341 -251 341 -277ZM410 -169Q427 -153 437 -131Q447 -109 448 -85V-43H512V-85L510 -97Q507 -111 499 -123Q488 -141 469 -152Q445 -166 410 -169ZM384 -341Q374 -341 365 -338Q384 -311 384 -277.5Q384 -244 365 -216Q374 -213 384 -213Q411 -213 429.5 -232Q448 -251 448 -277.5Q448 -304 429.5 -322.5Q411 -341 384 -341ZM171 -235H107V-299H64V-235H0V-192H64V-128H107V-192H171Z"/>
</svg>