<svg xmlns="http://www.w3.org/2000/svg" viewBox="0 -512 512 512">
	<path fill="#000000" d="M341 -256Q341 -216 315 -192Q291 -171 256 -171Q221 -171 197 -192Q171 -216 171 -256H213Q213 -236 226 -224.5Q239 -213 256 -213Q273 -213 286 -224.5Q299 -236 299 -256ZM427 -64V0H85V-64Q85 -90 117 -111Q143 -129 186 -140Q224 -149 256 -149Q288 -149 326 -140Q369 -129 395 -111Q427 -90 427 -64ZM386 -64Q386 -71 366 -82Q346 -93 318 -100Q286 -109 256 -109Q226 -109 194 -100Q166 -93 146 -82Q126 -71 126 -64V-41H386ZM267 -405Q271 -405 274 -402Q277 -399 277 -395V-331H299V-384Q322 -373 335 -351Q348 -329 347 -304L351 -302Q355 -300 358 -295Q362 -288 363 -277H149Q149 -288 153 -295Q156 -300 161 -302L165 -304Q164 -329 177 -351Q190 -373 213 -384V-331H235V-395Q235 -399 238 -402Q241 -405 245 -405Z"/>
</svg>