<svg xmlns="http://www.w3.org/2000/svg" viewBox="0 -512 512 512">
	<path fill="#000000" d="M213 -171Q201 -150 196 -129Q169 -127 141 -119Q117 -111 100 -101.5Q83 -92 83 -85V-62H196Q201 -41 213 -21H43V-85Q43 -112 74 -133Q101 -150 144 -161Q182 -171 213 -171ZM213 -363Q249 -363 274 -338Q299 -313 299 -277Q299 -249 281 -225Q254 -215 233 -194L213 -192Q178 -192 153 -217Q128 -242 128 -277.5Q128 -313 153 -338Q178 -363 213 -363ZM213 -322Q195 -322 182 -309Q169 -296 169 -277.5Q169 -259 182 -246Q195 -233 213.5 -233Q232 -233 245 -246Q258 -259 258 -277.5Q258 -296 245 -309Q232 -322 213 -322ZM331 -192Q371 -192 399 -164Q427 -136 427 -96Q427 -68 412 -45L478 21L448 51L381 -15Q358 0 331 0Q291 0 263 -28Q235 -56 235 -96Q235 -136 263 -164Q291 -192 331 -192ZM331 -149Q309 -149 293 -133.5Q277 -118 277 -96Q277 -74 293 -58.5Q309 -43 331 -43Q353 -43 368.5 -58.5Q384 -74 384 -96Q384 -118 368.5 -133.5Q353 -149 331 -149Z"/>
</svg>