<svg xmlns="http://www.w3.org/2000/svg" viewBox="0 -512 512 512">
	<path fill="#000000" d="M459 -256H352L392 -296Q368 -327 332.5 -345Q297 -363 256 -363Q210 -363 170.5 -340Q131 -317 108 -277.5Q85 -238 85 -192Q85 -134 120 -89Q140 -112 175.5 -125.5Q211 -139 256 -139Q301 -139 336.5 -125.5Q372 -112 392 -89Q427 -134 427 -192H469Q469 -134 440.5 -85Q412 -36 363 -7.5Q314 21 256 21Q198 21 149 -7.5Q100 -36 71.5 -85Q43 -134 43 -192Q43 -250 71.5 -299Q100 -348 149 -376.5Q198 -405 256 -405Q305 -405 348.5 -384Q392 -363 422 -326L459 -363ZM256 -21Q316 -21 363 -59Q352 -75 323 -85.5Q294 -96 256 -96Q218 -96 189 -85.5Q160 -75 149 -59Q196 -21 256 -21ZM256 -320Q287 -320 309 -298Q331 -276 331 -245Q331 -214 309 -192.5Q287 -171 256 -171Q225 -171 203 -192.5Q181 -214 181 -245Q181 -276 203 -298Q225 -320 256 -320ZM256 -277Q243 -277 233.5 -268Q224 -259 224 -245.5Q224 -232 233.5 -222.5Q243 -213 256 -213Q269 -213 278.5 -222.5Q288 -232 288 -245.5Q288 -259 278.5 -268Q269 -277 256 -277Z"/>
</svg>