<svg xmlns="http://www.w3.org/2000/svg" viewBox="0 -512 512 512">
	<path fill="#000000" d="M357 -355Q390 -320 390 -276Q390 -232 357 -200L321 -236Q335 -255 335 -277.5Q335 -300 321 -319ZM428 -427Q469 -384 483.5 -330Q498 -276 483.5 -222.5Q469 -169 428 -128L393 -163Q422 -196 432.5 -237.5Q443 -279 432.5 -319.5Q422 -360 393 -392ZM192 -363Q227 -363 252 -338Q277 -313 277 -277.5Q277 -242 252 -217Q227 -192 192 -192Q157 -192 132 -217Q107 -242 107 -277.5Q107 -313 132 -338Q157 -363 192 -363ZM277 -138Q277 -113 269 -84Q257 -42 230 -4L213 -107L233 -147Q210 -149 191.5 -149Q173 -149 150 -147L171 -107L153 -4Q126 -42 115 -84Q107 -113 107 -138Q67 -126 44 -107Q21 -88 21 -64V21H363V-64Q363 -87 339.5 -106.5Q316 -126 277 -138Z"/>
</svg>