<svg xmlns="http://www.w3.org/2000/svg" viewBox="0 -512 512 512">
	<path fill="#000000" d="M160 -341Q191 -341 213 -319.5Q235 -298 235 -267Q235 -236 213 -214Q191 -192 160 -192Q129 -192 107 -214Q85 -236 85 -267Q85 -298 107 -319.5Q129 -341 160 -341ZM21 -43V-96Q21 -116 42 -133Q63 -150 95.5 -160.5Q128 -171 160 -171Q198 -171 235 -157V-43ZM469 -43H299Q290 -43 283.5 -49Q277 -55 277 -64V-320Q277 -329 283.5 -335Q290 -341 299 -341H405L491 -256V-64Q491 -55 484.5 -49Q478 -43 469 -43ZM384 -235H448V-238L388 -299H384Z"/>
</svg>