<svg xmlns="http://www.w3.org/2000/svg" viewBox="0 -512 512 512">
	<path fill="#000000" d="M213 -363Q249 -363 274 -338Q299 -313 299 -277.5Q299 -242 274 -217Q249 -192 213.5 -192Q178 -192 153 -217Q128 -242 128 -277.5Q128 -313 153 -338Q178 -363 213 -363ZM363 0L401 38Q409 45 418 41Q427 37 427 27V-64L486 -137Q494 -148 488 -159.5Q482 -171 469 -171H320Q307 -171 301 -158.5Q295 -146 303 -137L363 -64ZM320 -49L271 -109Q258 -125 258 -145Q243 -149 213 -149Q167 -149 128 -137.5Q89 -126 66 -106.5Q43 -87 43 -64V-21H320Z"/>
</svg>