<svg xmlns="http://www.w3.org/2000/svg" viewBox="0 -512 512 512">
	<path fill="#000000" d="M512 -85V-43H448V-85Q448 -110 437.5 -131.5Q427 -153 409 -169Q445 -166 469 -152Q488 -141 499 -123Q507 -111 510 -97ZM384 -341Q411 -341 429.5 -322.5Q448 -304 448 -277.5Q448 -251 429.5 -232Q411 -213 384 -213Q374 -213 365 -216Q384 -244 384 -277.5Q384 -311 365 -338Q374 -341 384 -341ZM277 -341Q304 -341 322.5 -322.5Q341 -304 341 -277.5Q341 -251 322.5 -232Q304 -213 277.5 -213Q251 -213 232 -232Q213 -251 213 -277.5Q213 -304 232 -322.5Q251 -341 277 -341ZM405 -85V-43H149V-85Q149 -109 166.5 -128.5Q184 -148 213.5 -159.5Q243 -171 277.5 -171Q312 -171 341.5 -159.5Q371 -148 388 -128.5Q405 -109 405 -85ZM277 -299Q269 -299 262.5 -292.5Q256 -286 256 -277.5Q256 -269 262.5 -262.5Q269 -256 277.5 -256Q286 -256 292.5 -262.5Q299 -269 299 -277.5Q299 -286 292.5 -292.5Q286 -299 277 -299ZM277 -128Q242 -128 217 -115.5Q192 -103 192 -85H363Q363 -103 338 -115.5Q313 -128 277 -128ZM10 -168L55 -213L10 -259L40 -289L85 -243L131 -289L161 -259L115 -213L161 -168L131 -138L85 -183L40 -138Z"/>
</svg>