<svg xmlns="http://www.w3.org/2000/svg" viewBox="0 -512 512 512">
	<path fill="#000000" d="M256 -341Q225 -341 203 -319.5Q181 -298 181 -267Q181 -236 203 -214Q225 -192 256 -192Q287 -192 309 -214Q331 -236 331 -267Q331 -298 309 -319.5Q287 -341 256 -341ZM256 -299Q269 -299 278.5 -289.5Q288 -280 288 -266.5Q288 -253 278.5 -244Q269 -235 256 -235Q243 -235 233.5 -244Q224 -253 224 -266.5Q224 -280 233.5 -289.5Q243 -299 256 -299ZM117 -277Q95 -277 79.5 -261.5Q64 -246 64 -224Q64 -209 71.5 -197Q79 -185 91.5 -178Q104 -171 117.5 -171Q131 -171 143 -177.5Q155 -184 163 -196Q139 -227 139 -267V-273Q129 -277 117 -277ZM395 -277Q383 -277 373 -273V-267Q373 -227 349 -196Q353 -191 358.5 -185.5Q364 -180 369 -177Q381 -171 394.5 -171Q408 -171 420.5 -178Q433 -185 440.5 -197Q448 -209 448 -224Q448 -246 432.5 -261.5Q417 -277 395 -277ZM256 -149Q228 -149 195 -141Q158 -132 134 -116Q107 -98 107 -75V-43H405V-75Q405 -98 378 -116Q354 -132 317 -141Q284 -149 256 -149ZM100 -138Q63 -133 35 -118Q0 -100 0 -75V-43H64V-84Q64 -114 100 -138ZM412 -138Q448 -114 448 -84V-43H512V-75Q512 -100 477 -118Q449 -133 412 -138ZM256 -107Q279 -107 305 -100Q329 -94 346 -85H166Q183 -94 207 -100Q233 -107 256 -107Z"/>
</svg>