<svg xmlns="http://www.w3.org/2000/svg" viewBox="0 -512 512 512">
	<path fill="#000000" d="M213 -363Q178 -363 153 -338Q128 -313 128 -277.5Q128 -242 153 -217Q178 -192 213.5 -192Q249 -192 274 -217Q299 -242 299 -277.5Q299 -313 274 -338Q249 -363 213 -363ZM363 -192Q358 -192 357 -188L353 -159Q343 -155 335 -149L308 -160Q303 -160 302 -157L281 -120Q278 -116 282 -113L304 -96Q304 -91 304 -85.5Q304 -80 304 -75L282 -57Q278 -54 281 -50L302 -13Q303 -11 308 -11L335 -21Q345 -15 353 -11L357 17Q358 21 363 21H405Q410 21 410 17L415 -11Q423 -15 432 -21L459 -11Q464 -11 466 -13L487 -50Q489 -54 486 -57L463 -75L464 -85Q464 -91 463 -96L486 -113Q489 -116 487 -120L465 -157Q464 -160 459 -160L432 -149Q422 -157 414 -159L410 -188Q410 -192 405 -192ZM213 -149Q167 -149 128 -137.5Q89 -126 66 -106.5Q43 -87 43 -64V-21H249Q235 -52 235 -85Q235 -118 248 -147Q231 -149 213 -149ZM384 -117Q397 -117 406.5 -108Q416 -99 416 -85.5Q416 -72 406.5 -62.5Q397 -53 384 -53Q371 -53 361.5 -62.5Q352 -72 352 -85.5Q352 -99 361.5 -108Q371 -117 384 -117Z"/>
</svg>