<svg xmlns="http://www.w3.org/2000/svg" viewBox="0 -512 512 512">
	<path fill="#000000" d="M320 -149Q288 -149 250 -140Q207 -129 181 -112Q149 -91 149 -64V-21H491V-64Q491 -91 459 -112Q433 -129 390 -140Q352 -149 320 -149ZM320 -192Q355 -192 380 -217Q405 -242 405 -277.5Q405 -313 380 -338Q355 -363 320 -363Q285 -363 260 -338Q235 -313 235 -277.5Q235 -242 260 -217Q285 -192 320 -192ZM107 -128L94 -139L84 -148Q50 -180 39 -194Q21 -217 21 -236.5Q21 -256 35 -270Q49 -284 68 -284Q80 -284 90 -279.5Q100 -275 107 -267Q113 -275 123.5 -279.5Q134 -284 145 -284Q165 -284 178.5 -270.5Q192 -257 192 -237Q192 -217 175 -194Q163 -180 129 -148L119 -139Z"/>
</svg>