<svg xmlns="http://www.w3.org/2000/svg" viewBox="0 -512 512 512">
	<path fill="#000000" d="M277 -277Q277 -242 252 -217Q227 -192 192 -192Q157 -192 132 -217Q107 -242 107 -277.5Q107 -313 132 -338Q157 -363 192 -363Q227 -363 252 -338Q277 -313 277 -277ZM363 -64V-21H21V-64Q21 -87 44 -106.5Q67 -126 106.5 -137.5Q146 -149 192 -149Q238 -149 277.5 -137.5Q317 -126 340 -106.5Q363 -87 363 -64ZM437 -139V-107H405V-139ZM395 -245H363V-256Q363 -283 381.5 -301.5Q400 -320 426.5 -320Q453 -320 472 -301.5Q491 -283 491 -256Q491 -241 483.5 -227Q476 -213 463 -205L457 -201Q437 -187 437 -164V-160H405V-164Q405 -183 414 -200Q423 -217 439 -227L445 -231Q459 -240 459 -256Q459 -269 449.5 -278.5Q440 -288 426.5 -288Q413 -288 404 -278.5Q395 -269 395 -256Z"/>
</svg>