<svg xmlns="http://www.w3.org/2000/svg" viewBox="0 -512 512 512">
	<path fill="#000000" d="M427 -192V-299H469V-171H427ZM427 -85H469V-128H427ZM213 -171Q245 -171 283 -161Q326 -150 352 -133Q384 -112 384 -85V-21H43V-85Q43 -112 74 -133Q101 -150 144 -161Q182 -171 213 -171ZM213 -363Q249 -363 274 -338Q299 -313 299 -277.5Q299 -242 274 -217Q249 -192 213.5 -192Q178 -192 153 -217Q128 -242 128 -277.5Q128 -313 153 -338Q178 -363 213 -363ZM213 -130Q184 -130 151 -122Q123 -114 103 -103Q83 -92 83 -85V-62H343V-85Q343 -92 323 -103Q303 -114 275 -122Q243 -130 213 -130ZM213 -322Q195 -322 182 -309Q169 -296 169 -277.5Q169 -259 182 -246Q195 -233 213.5 -233Q232 -233 245 -246Q258 -259 258 -277.5Q258 -296 245 -309Q232 -322 213 -322Z"/>
</svg>