<svg xmlns="http://www.w3.org/2000/svg" viewBox="0 -512 512 512">
	<path fill="#000000" d="M405 -64V-149H363V-64H320L384 0L448 -64ZM235 -363Q199 -363 174 -338Q149 -313 149 -277.5Q149 -242 174 -217Q199 -192 234.5 -192Q270 -192 295 -217Q320 -242 320 -277.5Q320 -313 295 -338Q270 -363 235 -363ZM235 -320Q252 -320 264.5 -307.5Q277 -295 277 -277.5Q277 -260 264.5 -247.5Q252 -235 234.5 -235Q217 -235 204.5 -247.5Q192 -260 192 -277.5Q192 -295 204.5 -307.5Q217 -320 235 -320ZM235 -171Q203 -171 165 -161Q122 -151 95 -133Q64 -112 64 -85V-21H267Q260 -35 256 -62H105V-85Q105 -92 125 -103Q145 -114 172 -121Q205 -130 235 -130Q240 -130 250.5 -129Q261 -128 267 -128Q279 -154 290 -164Q258 -171 235 -171Z"/>
</svg>