<svg xmlns="http://www.w3.org/2000/svg" viewBox="0 -512 512 512">
	<path fill="#000000" d="M227 -147Q244 -184 276.5 -207Q309 -230 348.5 -234Q388 -238 424.5 -221Q461 -204 484 -171.5Q507 -139 511 -99.5Q515 -60 499 -23Q480 17 443.5 40.5Q407 64 363 64Q319 64 282.5 41Q246 18 228 -21H21V-64Q23 -100 71 -124Q119 -148 192 -149Q205 -149 227 -147ZM192 -363Q228 -362 252 -338Q276 -314 276 -277.5Q276 -241 252 -217Q228 -193 192 -193Q156 -193 132 -217Q108 -241 108 -277.5Q108 -314 132 -338Q156 -362 192 -363ZM363 21Q392 21 416.5 7Q441 -7 455 -31.5Q469 -56 469 -85Q469 -114 455 -138.5Q441 -163 416.5 -177.5Q392 -192 363 -192Q334 -192 309.5 -177.5Q285 -163 270.5 -138.5Q256 -114 256 -85Q256 -56 270.5 -31.5Q285 -7 309.5 7Q334 21 363 21ZM341 -149H373V-89L425 -59L409 -31L341 -71Z"/>
</svg>