<svg xmlns="http://www.w3.org/2000/svg" viewBox="0 -512 512 512">
	<path fill="#000000" d="M128 -352Q128 -367 145 -379Q162 -391 191.5 -398Q221 -405 256 -405Q291 -405 320.5 -398Q350 -391 367 -379Q384 -367 384 -352Q384 -341 373 -331Q359 -345 327.5 -354Q296 -363 256 -363Q216 -363 184.5 -354Q153 -345 139 -331Q128 -341 128 -352ZM256 -341Q222 -341 196 -334.5Q170 -328 158 -318Q200 -299 256 -299Q312 -299 354 -318Q342 -328 316 -334.5Q290 -341 256 -341ZM299 -277Q299 -260 286.5 -247.5Q274 -235 256 -235Q238 -235 225.5 -247.5Q213 -260 213 -277V-279Q183 -284 171 -288V-277Q171 -242 196 -217Q221 -192 256 -192Q291 -192 316 -217Q341 -242 341 -277Q341 -286 339 -290Q326 -286 297 -282Q299 -279 299 -277ZM350 -154L335 -128L331 -117Q355 -109 370.5 -100.5Q386 -92 386 -85V-19H297L277 -128L297 -169Q290 -169 277 -170Q264 -171 256 -171Q228 -171 215 -169L235 -128L215 -19H126V-85Q126 -92 141.5 -100.5Q157 -109 181 -117L177 -128L164 -154Q130 -143 109 -127Q85 -108 85 -85V21H427V-85Q427 -108 403 -127Q383 -143 350 -154Z"/>
</svg>