<svg xmlns="http://www.w3.org/2000/svg" viewBox="0 -512 512 512">
	<path fill="#000000" d="M124 -235Q117 -254 101 -265.5Q85 -277 64 -277Q37 -277 18.5 -259Q0 -241 0 -213.5Q0 -186 18.5 -167.5Q37 -149 64 -149Q85 -149 101 -161Q117 -173 124 -192H149V-149H192V-192H235V-235ZM64 -192Q54 -192 48.5 -198Q43 -204 43 -213.5Q43 -223 48.5 -229Q54 -235 64 -235Q74 -235 79.5 -229Q85 -223 85 -213.5Q85 -204 79.5 -198Q74 -192 64 -192ZM341 -363Q306 -363 281 -338Q256 -313 256 -277.5Q256 -242 281 -217Q306 -192 341.5 -192Q377 -192 402 -217Q427 -242 427 -277.5Q427 -313 402 -338Q377 -363 341 -363ZM341 -233Q322 -233 309.5 -245.5Q297 -258 297 -277.5Q297 -297 309.5 -309.5Q322 -322 341.5 -322Q361 -322 373.5 -309.5Q386 -297 386 -277.5Q386 -258 373.5 -245.5Q361 -233 341 -233ZM341 -171Q309 -171 271 -161Q229 -151 202 -133Q171 -112 171 -85V-21H512V-85Q512 -112 481 -133Q454 -151 411 -161Q373 -171 341 -171ZM471 -62H211V-85Q211 -92 231 -103Q251 -114 279 -121Q312 -130 341.5 -130Q371 -130 404 -121Q431 -114 451 -103Q471 -92 471 -85Z"/>
</svg>