<svg xmlns="http://www.w3.org/2000/svg" viewBox="0 -512 512 512">
	<path fill="#000000" d="M128 -277Q128 -313 153 -338Q178 -363 213.5 -363Q249 -363 274 -338Q299 -313 299 -277.5Q299 -242 274 -217Q249 -192 213.5 -192Q178 -192 153 -217Q128 -242 128 -277ZM256 -60Q256 -75 263 -88.5Q270 -102 282 -112V-142Q249 -149 213 -149Q167 -149 128 -137.5Q89 -126 66 -106.5Q43 -87 43 -64V-21H256ZM469 -58V17Q469 27 461 35Q453 43 442 43H324Q314 43 306.5 34.5Q299 26 299 15V-60Q299 -69 307 -77Q315 -85 324 -85V-139Q324 -161 342.5 -176.5Q361 -192 384 -192Q407 -192 425.5 -176.5Q444 -161 444 -139V-128H416V-139Q416 -151 406.5 -158.5Q397 -166 384 -166Q371 -166 361.5 -158.5Q352 -151 352 -139V-85H444Q454 -85 461.5 -77Q469 -69 469 -58Z"/>
</svg>