<svg xmlns="http://www.w3.org/2000/svg" viewBox="0 -512 512 512">
	<path fill="#000000" d="M149 -363Q114 -363 89 -338Q64 -313 64 -277.5Q64 -242 89 -217Q114 -192 149.5 -192Q185 -192 210 -217Q235 -242 235 -277.5Q235 -313 210 -338Q185 -363 149 -363ZM149 -235Q132 -235 119.5 -247.5Q107 -260 107 -277.5Q107 -295 119.5 -307.5Q132 -320 149.5 -320Q167 -320 179.5 -307.5Q192 -295 192 -277.5Q192 -260 179.5 -247.5Q167 -235 149 -235ZM0 -64Q0 -87 20 -106.5Q40 -126 74 -137.5Q108 -149 149 -149Q194 -149 235 -134V-85Q220 -94 200 -100Q176 -107 149 -107Q118 -107 91 -98Q69 -92 56 -81.5Q43 -71 43 -64H235V-21H0ZM469 -363H320Q302 -363 289.5 -350.5Q277 -338 277 -320V-64Q277 -46 289.5 -33.5Q302 -21 320 -21H469Q487 -21 499.5 -33.5Q512 -46 512 -64V-320Q512 -338 499.5 -350.5Q487 -363 469 -363ZM469 -64H320V-320H469Z"/>
</svg>