<svg xmlns="http://www.w3.org/2000/svg" viewBox="0 -512 512 512">
	<path fill="#000000" d="M463 -163L442 -142L398 -186L419 -207Q423 -210 427.5 -210Q432 -210 436 -207L463 -180Q466 -176 466 -171.5Q466 -167 463 -163ZM256 -44L385 -173L429 -129L300 0H256ZM256 -149Q210 -149 170.5 -137.5Q131 -126 108 -106.5Q85 -87 85 -64V-21H213V-62L299 -147Q279 -149 256 -149ZM256 -363Q221 -363 196 -338Q171 -313 171 -277.5Q171 -242 196 -217Q221 -192 256 -192Q291 -192 316 -217Q341 -242 341 -277.5Q341 -313 316 -338Q291 -363 256 -363Z"/>
</svg>