<svg xmlns="http://www.w3.org/2000/svg" viewBox="0 -512 512 512">
	<path fill="#000000" d="M256 -192Q269 -192 278.5 -182.5Q288 -173 288 -160Q288 -147 278.5 -137.5Q269 -128 256 -128Q243 -128 233.5 -137.5Q224 -147 224 -160Q224 -173 233.5 -182.5Q243 -192 256 -192ZM256 -405Q298 -405 337.5 -389Q377 -373 407 -343Q437 -313 453 -273.5Q469 -234 469 -192Q469 -150 453 -110.5Q437 -71 407 -41Q377 -11 337.5 5Q298 21 256 21Q214 21 174.5 5Q135 -11 105 -41Q75 -71 59 -110.5Q43 -150 43 -192Q43 -234 59 -273.5Q75 -313 105 -343Q135 -373 174.5 -389Q214 -405 256 -405ZM256 -107Q280 -107 300 -96.5Q320 -86 320 -71V-34Q363 -53 363 -81V-175Q363 -200 329.5 -217.5Q296 -235 256 -235Q216 -235 182.5 -217.5Q149 -200 149 -175V-81Q149 -55 183.5 -38Q218 -21 256 -21L277 -23V-66L256 -64Q223 -64 193 -77Q197 -89 216 -98Q235 -107 256 -107ZM256 -363Q234 -363 218.5 -347Q203 -331 203 -309Q203 -287 218.5 -271.5Q234 -256 256 -256Q278 -256 293.5 -271.5Q309 -287 309 -309Q309 -331 293.5 -347Q278 -363 256 -363Z"/>
</svg>