<svg xmlns="http://www.w3.org/2000/svg" viewBox="0 -512 512 512">
	<path fill="#000000" d="M128 -277Q128 -313 153 -338Q178 -363 213.5 -363Q249 -363 274 -338Q299 -313 299 -277.5Q299 -242 274 -217Q249 -192 213.5 -192Q178 -192 153 -217Q128 -242 128 -277ZM256 -60Q256 -75 263 -88.5Q270 -102 282 -112V-117Q282 -129 285 -141Q251 -149 213 -149Q167 -149 128 -137.5Q89 -126 66 -106.5Q43 -87 43 -64V-21H256ZM469 -58V17Q469 27 461 35Q453 43 442 43H324Q314 43 306.5 34.5Q299 26 299 15V-60Q299 -69 307 -77Q315 -85 324 -85V-117Q324 -139 342.5 -155Q361 -171 384 -171Q407 -171 425.5 -155Q444 -139 444 -117V-85Q454 -85 461.5 -77Q469 -69 469 -58ZM416 -117Q416 -130 406.5 -137.5Q397 -145 384 -145Q371 -145 361.5 -137.5Q352 -130 352 -117V-85H416Z"/>
</svg>