<svg xmlns="http://www.w3.org/2000/svg" viewBox="0 -512 512 512">
	<path fill="#000000" d="M256 -235Q291 -235 316 -260Q341 -285 341 -320Q341 -355 316 -380Q291 -405 256 -405Q221 -405 196 -380Q171 -355 171 -320Q171 -285 196 -260Q221 -235 256 -235ZM256 -363Q274 -363 286.5 -350.5Q299 -338 299 -320Q299 -302 286.5 -289.5Q274 -277 256 -277Q238 -277 225.5 -289.5Q213 -302 213 -320Q213 -338 225.5 -350.5Q238 -363 256 -363ZM392 -180Q327 -213 256 -213Q185 -213 120 -180Q104 -172 94.5 -156.5Q85 -141 85 -123V21H128V-123Q128 -136 139 -142Q195 -171 256 -171Q280 -171 301 -166L268 -96H208Q184 -96 166.5 -79Q149 -62 149 -37.5Q149 -13 166.5 4Q184 21 208 21H384Q402 21 414.5 8.5Q427 -4 427 -21V-123Q427 -141 417.5 -156.5Q408 -172 392 -180ZM233 -21H208Q201 -21 196.5 -26Q192 -31 192 -37.5Q192 -44 196.5 -48.5Q201 -53 208 -53H248ZM384 -21H281L343 -155Q359 -149 373 -142Q384 -136 384 -123Z"/>
</svg>