<svg xmlns="http://www.w3.org/2000/svg" viewBox="0 -512 512 512">
	<path fill="#000000" d="M43 -378L70 -405L469 -6L442 21L357 -64Q363 -53 363 -43V0H21V-43Q21 -69 53 -90Q79 -108 122 -118Q160 -128 191.5 -128Q223 -128 261 -119Q304 -108 331 -90L237 -184Q217 -171 192 -171Q157 -171 132 -196Q107 -221 107 -256Q107 -281 120 -301ZM192 -341Q227 -341 252 -316Q277 -291 277 -256V-252L188 -341ZM358 -334Q390 -298 390 -254.5Q390 -211 358 -179L322 -215Q335 -233 335 -256Q335 -279 322 -298ZM428 -405Q469 -363 483.5 -309Q498 -255 483.5 -201.5Q469 -148 428 -107L393 -141Q423 -175 433 -216Q443 -257 433 -298Q423 -339 393 -371Z"/>
</svg>