<svg xmlns="http://www.w3.org/2000/svg" viewBox="0 -512 512 512">
	<path fill="#000000" d="M278 -238L185 -331Q192 -354 211.5 -369Q231 -384 256 -384Q287 -384 309 -362Q331 -340 331 -309Q331 -285 316 -265Q301 -245 278 -238ZM405 -117Q405 -137 386.5 -153.5Q368 -170 336 -180L405 -111ZM469 21H460L445 37L429 21H320Q320 30 313.5 36.5Q307 43 299 43H213Q205 43 198.5 36.5Q192 30 192 21H43V-21H192Q192 -30 198.5 -36.5Q205 -43 213 -43H235V-85H107V-117Q107 -143 138.5 -163Q170 -183 218 -189L24 -384L51 -411L472 10L469 12ZM386 -21L322 -85H277V-43H299Q307 -43 313.5 -36.5Q320 -30 320 -21Z"/>
</svg>