<svg xmlns="http://www.w3.org/2000/svg" viewBox="0 -512 512 512">
	<path fill="#000000" d="M459 -256H352L392 -296Q368 -327 332.5 -345Q297 -363 256 -363Q210 -363 170.5 -340Q131 -317 108 -277.5Q85 -238 85 -192Q85 -134 120 -89Q140 -112 175.5 -125.5Q211 -139 256 -139Q301 -139 336.5 -125.5Q372 -112 392 -89Q427 -134 427 -192H469Q469 -134 440.5 -85Q412 -36 363 -7.5Q314 21 256 21Q198 21 149 -7.5Q100 -36 71.5 -85Q43 -134 43 -192Q43 -250 71.5 -299Q100 -348 149 -376.5Q198 -405 256 -405Q305 -405 348.5 -384Q392 -363 422 -326L459 -363ZM256 -299Q283 -299 301.5 -280Q320 -261 320 -234.5Q320 -208 301.5 -189.5Q283 -171 256 -171Q229 -171 210.5 -189.5Q192 -208 192 -234.5Q192 -261 210.5 -280Q229 -299 256 -299Z"/>
</svg>