<svg xmlns="http://www.w3.org/2000/svg" viewBox="0 -512 512 512">
	<path fill="#000000" d="M271 -245L160 -356Q175 -363 192 -363Q227 -363 252 -338Q277 -313 277 -277Q277 -261 271 -245ZM357 -200Q390 -232 390 -276Q390 -320 357 -355L321 -319Q335 -300 335 -277.5Q335 -255 321 -236ZM428 -128Q469 -169 483.5 -222.5Q498 -276 483.5 -330Q469 -384 428 -427L393 -392Q422 -360 432.5 -319.5Q443 -279 432.5 -237.5Q422 -196 393 -163ZM51 -411L24 -384L109 -299Q107 -287 107 -277Q107 -242 132 -217Q157 -192 192 -192Q201 -192 213 -195L277 -131Q276 -105 267 -78Q255 -39 230 -4L213 -107L233 -147Q210 -149 191.5 -149Q173 -149 150 -147L171 -107L153 -4Q126 -42 115 -84Q107 -113 107 -138Q67 -126 44 -107Q21 -88 21 -64V21H363V-45L445 37L472 10Z"/>
</svg>