<svg xmlns="http://www.w3.org/2000/svg" viewBox="0 -512 512 512">
	<path fill="#000000" d="M427 21H85V-21Q85 -44 108 -64Q131 -84 170.5 -95.5Q210 -107 256 -107Q302 -107 341.5 -95.5Q381 -84 404 -64Q427 -44 427 -21ZM171 -256H341V-235Q341 -199 316 -174Q291 -149 256 -149Q221 -149 196 -174Q171 -199 171 -235ZM405 -363Q396 -363 390 -357Q384 -351 384 -341V-320H352L322 -384Q318 -393 314 -395Q306 -403 294 -404.5Q282 -406 271 -401L256 -397L241 -403Q230 -408 218 -406.5Q206 -405 198 -397Q194 -393 190 -384L160 -320H128V-341Q128 -351 122 -357Q116 -363 106.5 -363Q97 -363 91 -357Q85 -351 85 -341V-320Q85 -302 97.5 -289.5Q110 -277 128 -277H384Q402 -277 414.5 -289.5Q427 -302 427 -320V-341Q427 -350 421 -356.5Q415 -363 405 -363Z"/>
</svg>