<svg xmlns="http://www.w3.org/2000/svg" viewBox="0 -512 512 512">
	<path fill="#000000" d="M235 -363Q199 -363 174 -338Q149 -313 149 -277.5Q149 -242 174 -217Q199 -192 234.5 -192Q270 -192 295 -217Q320 -242 320 -277.5Q320 -313 295 -338Q270 -363 235 -363ZM235 -320Q252 -320 264.5 -307.5Q277 -295 277 -277.5Q277 -260 264.5 -247.5Q252 -235 234.5 -235Q217 -235 204.5 -247.5Q192 -260 192 -277.5Q192 -295 204.5 -307.5Q217 -320 235 -320ZM235 -171Q203 -171 165 -161Q122 -151 95 -133Q64 -112 64 -85V-21H267Q260 -35 256 -62H105V-85Q105 -92 125 -103Q145 -114 172 -121Q205 -130 235 -130Q240 -130 250.5 -129Q261 -128 267 -128Q279 -154 290 -164Q258 -171 235 -171ZM384 -21Q362 -21 346.5 -36.5Q331 -52 331 -75Q331 -89 337 -98L314 -122Q299 -99 299 -75Q299 -39 324 -14Q349 11 384 11V43L431 -4L384 -53ZM384 -160V-192L337 -145L384 -98V-128Q406 -128 421.5 -112.5Q437 -97 437 -75Q437 -61 431 -51L454 -28Q469 -50 469 -75Q469 -110 444 -135Q419 -160 384 -160Z"/>
</svg>