<svg xmlns="http://www.w3.org/2000/svg" viewBox="0 -512 512 512">
	<path fill="#000000" d="M160 -341Q191 -341 213 -319.5Q235 -298 235 -267Q235 -236 213 -214Q191 -192 160 -192Q129 -192 107 -214Q85 -236 85 -267Q85 -298 107 -319.5Q129 -341 160 -341ZM21 -43V-96Q21 -116 42 -133Q63 -150 95.5 -160.5Q128 -171 160 -171Q198 -171 235 -157V-116Q206 -128 160 -128Q120 -128 92 -118.5Q64 -109 64 -96V-85H235V-43ZM469 -43H299Q290 -43 283.5 -49Q277 -55 277 -64V-320Q277 -329 283.5 -335Q290 -341 299 -341H405L491 -256V-64Q491 -55 484.5 -49Q478 -43 469 -43ZM320 -299V-85H448V-235H384V-299ZM160 -299Q147 -299 137.5 -289.5Q128 -280 128 -266.5Q128 -253 137.5 -244Q147 -235 160 -235Q173 -235 182.5 -244Q192 -253 192 -266.5Q192 -280 182.5 -289.5Q173 -299 160 -299ZM341 -171H427V-128H341Z"/>
</svg>