<svg xmlns="http://www.w3.org/2000/svg" viewBox="0 -512 512 512">
	<path fill="#000000" d="M213 -363Q178 -363 153 -338Q128 -313 128 -277.5Q128 -242 153 -217Q178 -192 213.5 -192Q249 -192 274 -217Q299 -242 299 -277.5Q299 -313 274 -338Q249 -363 213 -363ZM213 -320Q231 -320 243.5 -307.5Q256 -295 256 -277.5Q256 -260 243.5 -247.5Q231 -235 213.5 -235Q196 -235 183.5 -247.5Q171 -260 171 -277.5Q171 -295 183.5 -307.5Q196 -320 213 -320ZM213 -171Q182 -171 144 -161Q101 -150 74 -133Q43 -112 43 -85V-21H245Q237 -41 235 -62H83V-85Q83 -92 103 -103Q123 -114 151 -122Q184 -130 213 -130Q228 -130 245 -127Q254 -148 268 -164Q237 -171 213 -171ZM373 -171Q333 -171 305 -143Q277 -115 277 -75Q277 -35 305 -7Q333 21 373 21Q413 21 441 -7Q469 -35 469 -75Q469 -115 441 -143Q413 -171 373 -171ZM373 -139Q400 -139 418.5 -120Q437 -101 437 -75Q437 -57 428 -43L341 -130Q355 -139 373 -139ZM318 -107L405 -20Q391 -11 373 -11Q347 -11 328 -29.5Q309 -48 309 -75Q309 -93 318 -107Z"/>
</svg>