<svg xmlns="http://www.w3.org/2000/svg" viewBox="0 -512 512 512">
	<path fill="#000000" d="M256 -128Q210 -128 170.5 -116.5Q131 -105 108 -85.5Q85 -66 85 -43V0H427V-43Q427 -66 404 -85.5Q381 -105 341.5 -116.5Q302 -128 256 -128ZM171 -256Q171 -221 196 -196Q221 -171 256 -171Q291 -171 316 -196Q341 -221 341 -256ZM245 -405Q241 -405 238 -402Q235 -399 235 -395V-331H213V-384L206 -380Q197 -375 189 -367Q179 -356 173 -343Q165 -325 165 -304L161 -302Q156 -300 153 -295Q149 -288 149 -277H363Q362 -292 354 -300Q350 -303 347 -304Q347 -343 323 -367Q311 -379 299 -384V-331H277V-395Q277 -399 274.5 -402Q272 -405 267 -405Z"/>
</svg>