<svg xmlns="http://www.w3.org/2000/svg" viewBox="0 -512 512 512">
	<path fill="#000000" d="M450 -181L480 -151L341 -11L267 -85L297 -115L341 -71ZM235 -363Q270 -363 295 -338Q320 -313 320 -277.5Q320 -242 295 -217Q270 -192 234.5 -192Q199 -192 174 -217Q149 -242 149 -277.5Q149 -313 174 -338Q199 -363 235 -363ZM235 -320Q217 -320 204.5 -307.5Q192 -295 192 -277.5Q192 -260 204.5 -247.5Q217 -235 234.5 -235Q252 -235 264.5 -247.5Q277 -260 277 -277.5Q277 -295 264.5 -307.5Q252 -320 235 -320ZM235 -171Q256 -171 286 -165L250 -129L235 -130Q205 -130 173 -122Q145 -114 125 -103Q105 -92 105 -85V-62H237L277 -21H64V-85Q64 -112 96 -133Q122 -150 165 -161Q203 -171 235 -171Z"/>
</svg>