<svg xmlns="http://www.w3.org/2000/svg" viewBox="0 -512 512 512">
	<path fill="#000000" d="M331 -192Q371 -192 399 -164Q427 -136 427 -96Q427 -68 412 -45L478 21L448 51L381 -15Q358 0 331 0Q291 0 263 -28Q235 -56 235 -96Q235 -136 263 -164Q291 -192 331 -192ZM331 -149Q309 -149 293 -133.5Q277 -118 277 -96Q277 -74 293 -58.5Q309 -43 331 -43Q353 -43 368.5 -58.5Q384 -74 384 -96Q384 -118 368.5 -133.5Q353 -149 331 -149ZM213 -363Q249 -363 274 -338Q299 -313 299 -277Q299 -249 281 -225Q254 -215 233 -194L213 -192Q178 -192 153 -217Q128 -242 128 -277.5Q128 -313 153 -338Q178 -363 213 -363ZM43 -21V-64Q43 -86 64 -105Q85 -124 122 -136Q159 -148 203 -149Q192 -123 192 -96Q192 -56 213 -21Z"/>
</svg>