<svg xmlns="http://www.w3.org/2000/svg" viewBox="0 -512 512 512">
	<path fill="#000000" d="M286 -146Q263 -119 258 -85H160V-101Q160 -116 178 -128Q193 -138 217 -144Q238 -149 256 -149Q269 -149 286 -146ZM405 -341V-190Q428 -187 448 -175V-341Q448 -359 435.5 -371.5Q423 -384 405 -384H107Q89 -384 76.5 -371.5Q64 -359 64 -341V-43Q64 -25 76.5 -12.5Q89 0 107 0H273Q261 -20 258 -43H107V-341ZM256 -187Q275 -187 289.5 -201Q304 -215 304 -234.5Q304 -254 289.5 -268.5Q275 -283 256 -283Q237 -283 222.5 -268.5Q208 -254 208 -234.5Q208 -215 222.5 -201Q237 -187 256 -187ZM469 -85V-43H299V-85Z"/>
</svg>