<svg xmlns="http://www.w3.org/2000/svg" viewBox="0 -512 512 512">
	<path fill="#000000" d="M341 -203Q341 -225 357 -240.5Q373 -256 395 -256Q417 -256 432.5 -240.5Q448 -225 448 -203Q448 -181 432.5 -165Q417 -149 395 -149Q373 -149 357 -165Q341 -181 341 -203ZM277 -384V-21H512V-384ZM469 -107Q452 -107 439.5 -94.5Q427 -82 427 -64H363Q363 -82 350.5 -94.5Q338 -107 320 -107V-299Q338 -299 350.5 -311.5Q363 -324 363 -341H427Q427 -324 439.5 -311.5Q452 -299 469 -299ZM149 -320Q167 -320 179.5 -307.5Q192 -295 192 -277.5Q192 -260 179.5 -247.5Q167 -235 149.5 -235Q132 -235 119.5 -247.5Q107 -260 107 -277.5Q107 -295 119.5 -307.5Q132 -320 149 -320ZM149 -363Q114 -363 89 -338Q64 -313 64 -277.5Q64 -242 89 -217Q114 -192 149.5 -192Q185 -192 210 -217Q235 -242 235 -277.5Q235 -313 210 -338Q185 -363 149 -363ZM149 -149Q109 -149 74.5 -137.5Q40 -126 20 -106.5Q0 -87 0 -64V-21H235V-64H43Q43 -71 55 -81Q69 -91 91 -98Q117 -107 149 -107Q201 -107 235 -86V-134Q196 -149 149 -149Z"/>
</svg>