<svg xmlns="http://www.w3.org/2000/svg" viewBox="0 -512 512 512">
	<path fill="#000000" d="M267 -235Q267 -261 248 -280Q229 -299 202.5 -299Q176 -299 157.5 -280Q139 -261 139 -234.5Q139 -208 157.5 -189.5Q176 -171 202.5 -171Q229 -171 248 -189.5Q267 -208 267 -235ZM203 -213Q194 -213 187.5 -219.5Q181 -226 181 -235Q181 -244 187.5 -250Q194 -256 203 -256Q212 -256 218 -250Q224 -244 224 -235Q224 -226 218 -219.5Q212 -213 203 -213ZM341 -171Q359 -171 371.5 -183.5Q384 -196 384 -213.5Q384 -231 371.5 -243.5Q359 -256 341.5 -256Q324 -256 311.5 -243.5Q299 -231 299 -213.5Q299 -196 311.5 -183.5Q324 -171 341 -171ZM256 -405Q198 -405 149 -376.5Q100 -348 71.5 -299Q43 -250 43 -192Q43 -134 71.5 -85Q100 -36 149 -7.5Q198 21 256 21Q314 21 363 -7.5Q412 -36 440.5 -85Q469 -134 469 -192Q469 -250 440.5 -299Q412 -348 363 -376.5Q314 -405 256 -405ZM125 -83Q136 -92 159 -99.5Q182 -107 203 -107H208Q217 -130 236 -146Q218 -149 203 -149Q179 -149 153 -142Q122 -134 102 -119Q85 -154 85 -192Q85 -238 108 -277.5Q131 -317 170.5 -340Q210 -363 256 -363Q302 -363 341.5 -340Q381 -317 404 -277.5Q427 -238 427 -192Q427 -155 411 -120Q396 -129 375 -134Q357 -139 341 -139Q323 -139 302 -133Q278 -126 263 -114Q245 -100 245 -81V-22Q210 -24 178.5 -40Q147 -56 125 -83Z"/>
</svg>