<svg xmlns="http://www.w3.org/2000/svg" viewBox="0 -512 512 512">
	<path fill="#000000" d="M213 -363Q178 -363 153 -338Q128 -313 128 -277.5Q128 -242 153 -217Q178 -192 213.5 -192Q249 -192 274 -217Q299 -242 299 -277.5Q299 -313 274 -338Q249 -363 213 -363ZM213 -320Q231 -320 243.5 -307.5Q256 -295 256 -277.5Q256 -260 243.5 -247.5Q231 -235 213.5 -235Q196 -235 183.5 -247.5Q171 -260 171 -277.5Q171 -295 183.5 -307.5Q196 -320 213 -320ZM363 -192Q358 -192 358 -187L352 -160Q349 -158 342 -153L335 -149L308 -160Q303 -160 301 -158L281 -120Q279 -119 279.5 -117Q280 -115 282 -113L305 -96V-75L282 -57Q281 -56 280.5 -54Q280 -52 281 -50L301 -13Q303 -11 308 -11L335 -21L342 -17Q349 -13 352 -11L358 16Q358 21 363 21H405Q407 21 408.5 20Q410 19 410 16L414 -11L433 -21L459 -11Q465 -11 465 -13L487 -50Q488 -52 487.5 -54Q487 -56 486 -57L463 -75V-96L486 -113Q487 -115 487.5 -117Q488 -119 487 -120L465 -158Q465 -160 459 -160L433 -149L414 -160L410 -187Q410 -189 408.5 -190.5Q407 -192 405 -192ZM213 -171Q182 -171 144 -161Q101 -150 74 -133Q43 -112 43 -85V-21H249Q240 -41 237 -62H83V-85Q83 -92 103 -103Q123 -114 151 -122Q184 -130 213 -130Q226 -130 241 -128Q248 -149 259 -166Q232 -171 213 -171ZM385 -117Q398 -117 407 -107.5Q416 -98 416 -85Q416 -72 407 -62.5Q398 -53 384.5 -53Q371 -53 361.5 -62.5Q352 -72 352 -85.5Q352 -99 361.5 -108Q371 -117 385 -117Z"/>
</svg>