<svg xmlns="http://www.w3.org/2000/svg" viewBox="0 -512 512 512">
	<path fill="#000000" d="M256 -405Q198 -405 149 -376.5Q100 -348 71.5 -299Q43 -250 43 -192Q43 -150 59 -110.5Q75 -71 105 -41Q135 -11 174.5 5Q214 21 256 21Q298 21 337.5 5Q377 -11 407 -41Q437 -71 453 -110.5Q469 -150 469 -192Q469 -234 453 -273.5Q437 -313 407 -343Q377 -373 337.5 -389Q298 -405 256 -405ZM333 -270Q350 -270 362 -258Q374 -246 374 -229Q374 -212 362 -200Q350 -188 333 -188Q316 -188 304 -200Q292 -212 291.5 -229Q291 -246 303.5 -258Q316 -270 333 -270ZM205 -304Q226 -304 240.5 -289Q255 -274 255 -253.5Q255 -233 240.5 -218Q226 -203 205 -203Q184 -203 169 -218Q154 -233 154 -253.5Q154 -274 169 -289Q184 -304 205 -304ZM205 -109V-29Q166 -41 137.5 -69Q109 -97 95 -135Q110 -151 147 -162Q178 -171 205 -171Q223 -171 245 -166Q222 -154 212 -136Q205 -123 205 -109ZM256 -21Q244 -21 239 -22V-109Q239 -129 274 -143Q304 -154 333 -154Q352 -154 375 -148Q401 -141 415 -130Q396 -82 352.5 -51.5Q309 -21 256 -21Z"/>
</svg>