<svg xmlns="http://www.w3.org/2000/svg" viewBox="0 -512 512 512">
	<path fill="#000000" d="M256 -363Q291 -363 316 -338Q341 -313 341 -277.5Q341 -242 316 -217Q291 -192 256 -192Q221 -192 196 -217Q171 -242 171 -277.5Q171 -313 196 -338Q221 -363 256 -363ZM256 -320Q238 -320 225.5 -307.5Q213 -295 213 -277.5Q213 -260 225.5 -247.5Q238 -235 256 -235Q274 -235 286.5 -247.5Q299 -260 299 -277.5Q299 -295 286.5 -307.5Q274 -320 256 -320ZM256 -171Q288 -171 326 -161Q369 -150 395 -133Q427 -112 427 -85V-21H85V-85Q85 -112 117 -133Q143 -150 186 -161Q224 -171 256 -171ZM256 -130Q226 -130 194 -122Q166 -114 146 -103Q126 -92 126 -85V-62H386V-85Q386 -92 366 -103Q346 -114 318 -122Q286 -130 256 -130ZM277 21H235V64H277ZM363 21H320V64H363ZM192 21H149V64H192Z"/>
</svg>