<svg xmlns="http://www.w3.org/2000/svg" viewBox="0 -512 512 512">
	<path fill="#000000" d="M352 -117Q378 -117 405.5 -107.5Q433 -98 437 -90V-75H267V-90Q271 -98 298.5 -107.5Q326 -117 352 -117ZM352 -149Q330 -149 304 -143Q275 -135 256 -123Q235 -109 235 -91V-43H469V-91Q469 -109 448 -123Q429 -135 400 -143Q374 -149 352 -149ZM192 -171Q164 -171 131 -162Q94 -153 70 -137Q43 -119 43 -96V-43H192V-75H75V-96Q75 -103 94 -114Q113 -125 141 -132Q175 -140 209 -139Q223 -155 243 -165Q218 -170 192 -171ZM192 -309Q205 -309 214.5 -300Q224 -291 224 -277.5Q224 -264 214.5 -254.5Q205 -245 192 -245Q179 -245 169.5 -254.5Q160 -264 160 -277.5Q160 -291 169.5 -300Q179 -309 192 -309ZM192 -341Q165 -341 146.5 -322.5Q128 -304 128 -277.5Q128 -251 146.5 -232Q165 -213 192 -213Q219 -213 237.5 -232Q256 -251 256 -277.5Q256 -304 237.5 -322.5Q219 -341 192 -341ZM352 -267Q361 -267 367 -260.5Q373 -254 373 -245Q373 -236 367 -230Q361 -224 352 -224Q343 -224 337 -230Q331 -236 331 -245Q331 -254 337 -260.5Q343 -267 352 -267ZM352 -299Q330 -299 314.5 -283Q299 -267 299 -245Q299 -223 314.5 -207.5Q330 -192 352 -192Q374 -192 389.5 -207.5Q405 -223 405 -245Q405 -267 389.5 -283Q374 -299 352 -299Z"/>
</svg>