<svg xmlns="http://www.w3.org/2000/svg" viewBox="0 -512 512 512">
	<path fill="#000000" d="M235 -149Q264 -149 303 -140Q277 -112 277 -75Q277 -46 294 -21H64V-64Q64 -102 123 -125.5Q182 -149 235 -149ZM235 -192Q201 -192 175 -217Q149 -242 149 -277Q149 -312 174.5 -337.5Q200 -363 235 -363Q270 -363 295 -337Q320 -311 320 -276.5Q320 -242 295 -217Q270 -192 235 -192ZM395 -235H427H469V-192H427V-75Q427 -53 411 -37Q395 -21 373 -21Q351 -21 335.5 -37Q320 -53 320 -75Q320 -97 335.5 -112.5Q351 -128 373 -128Q385 -128 395 -124Z"/>
</svg>