<svg xmlns="http://www.w3.org/2000/svg" viewBox="0 -512 512 512">
	<path fill="#000000" d="M352 -192Q374 -192 389.5 -207.5Q405 -223 405 -245Q405 -267 389.5 -283Q374 -299 352 -299Q330 -299 314.5 -283Q299 -267 299 -245Q299 -223 314.5 -207.5Q330 -192 352 -192ZM192 -213Q219 -213 237.5 -232Q256 -251 256 -277.5Q256 -304 237.5 -322.5Q219 -341 192 -341Q165 -341 146.5 -322.5Q128 -304 128 -277.5Q128 -251 146.5 -232Q165 -213 192 -213ZM352 -149Q330 -149 304 -143Q275 -135 256 -123Q235 -109 235 -91V-43H469V-91Q469 -109 448 -123Q429 -135 400 -143Q374 -149 352 -149ZM192 -171Q164 -171 131 -162Q94 -153 70 -137Q43 -119 43 -96V-43H192V-91Q192 -109 201 -125Q214 -149 243 -165Q214 -171 192 -171Z"/>
</svg>