<svg xmlns="http://www.w3.org/2000/svg" viewBox="0 -512 512 512">
	<path fill="#000000" d="M384 -224V-320L339 -297Q341 -287 341 -277Q341 -242 316 -217Q291 -192 256 -192Q221 -192 196 -217Q171 -242 171 -277Q171 -287 173 -297L107 -331L256 -405L405 -331V-224ZM256 -256L213 -277Q213 -260 225.5 -247.5Q238 -235 256 -235Q274 -235 286.5 -247.5Q299 -260 299 -277ZM315 -332L259 -361L202 -331L257 -303ZM256 -171Q288 -171 326 -161Q369 -150 395 -133Q427 -112 427 -85V-21H85V-85Q85 -112 117 -133Q143 -150 186 -161Q224 -171 256 -171ZM256 -130Q226 -130 194 -122Q166 -114 146 -103Q126 -92 126 -85V-62H386V-85Q386 -92 366 -103Q346 -114 318 -122Q286 -130 256 -130Z"/>
</svg>