<svg xmlns="http://www.w3.org/2000/svg" viewBox="0 -512 512 512">
	<path fill="#000000" d="M149 -192Q185 -192 210 -217Q235 -242 235 -277.5Q235 -313 210 -338Q185 -363 149.5 -363Q114 -363 89 -338Q64 -313 64 -277.5Q64 -242 89 -217Q114 -192 149 -192ZM235 -21V-134Q194 -149 149 -149Q108 -149 74 -137.5Q40 -126 20 -106.5Q0 -87 0 -64V-21ZM469 -363H320Q302 -363 289.5 -350.5Q277 -338 277 -320V-64Q277 -46 289.5 -33.5Q302 -21 320 -21H469Q487 -21 499.5 -33.5Q512 -46 512 -64V-320Q512 -338 499.5 -350.5Q487 -363 469 -363ZM384 -64H341V-320H384Z"/>
</svg>