<svg xmlns="http://www.w3.org/2000/svg" viewBox="0 -512 512 512">
	<path fill="#000000" d="M405 -363Q396 -363 390 -357Q384 -351 384 -341V-320H352L322 -384Q318 -393 314 -395Q306 -403 294 -404.5Q282 -406 271 -401L256 -397L241 -403Q230 -408 218 -406.5Q206 -405 198 -397Q194 -393 190 -384L160 -320H128V-341Q128 -351 122 -357Q116 -363 106.5 -363Q97 -363 91 -357Q85 -351 85 -341V-320Q85 -302 97.5 -289.5Q110 -277 128 -277H384Q402 -277 414.5 -289.5Q427 -302 427 -320V-341Q427 -350 421 -356.5Q415 -363 405 -363ZM85 21V-43Q85 -69 117 -90Q143 -108 186 -119Q224 -128 256 -128Q288 -128 326 -119Q369 -108 395 -90Q427 -69 427 -43V21ZM386 -19V-43Q386 -50 366 -60.5Q346 -71 318 -79Q286 -87 256 -87Q226 -87 194 -79Q166 -71 146 -60.5Q126 -50 126 -43V-19ZM341 -256V-235Q341 -199 316 -174Q291 -149 256 -149Q221 -149 196 -174Q171 -199 171 -235V-256H213V-235Q213 -217 225.5 -204.5Q238 -192 256 -192Q274 -192 286.5 -204.5Q299 -217 299 -235V-256Z"/>
</svg>