<svg xmlns="http://www.w3.org/2000/svg" viewBox="0 -512 512 512">
	<path fill="#000000" d="M465 -68L388 -145Q380 -149 375 -149H316Q309 -149 304 -144Q299 -139 299 -132V-73Q299 -68 303 -60L380 17Q384 21 393 21Q397 21 405 17L465 -43Q469 -47 469 -55Q469 -60 465 -68ZM329 -107Q324 -107 320 -111Q316 -115 316 -119.5Q316 -124 320 -128Q324 -132 328.5 -132Q333 -132 337 -128Q341 -124 341 -119.5Q341 -115 337 -111Q333 -107 329 -107ZM213 -363Q178 -363 153 -338Q128 -313 128 -277.5Q128 -242 153 -217Q178 -192 213.5 -192Q249 -192 274 -217Q299 -242 299 -277.5Q299 -313 274 -338Q249 -363 213 -363ZM213 -149Q167 -149 128 -137.5Q89 -126 66 -106.5Q43 -87 43 -64V-21H282L273 -30Q256 -47 256 -73V-132Q256 -141 258 -147Q243 -149 213 -149Z"/>
</svg>