<svg xmlns="http://www.w3.org/2000/svg" viewBox="0 -512 512 512">
	<path fill="#000000" d="M405 -43H107V-341H405ZM405 -384H107Q89 -384 76.5 -371.5Q64 -359 64 -341V-43Q64 -25 76.5 -12.5Q89 0 107 0H405Q423 0 435.5 -12.5Q448 -25 448 -43V-341Q448 -359 435.5 -371.5Q423 -384 405 -384ZM352 -101Q352 -116 334 -128Q319 -138 295 -144Q274 -149 256 -149Q238 -149 217 -144Q193 -138 178 -128Q160 -116 160 -101V-85H352ZM256 -187Q276 -187 290 -201Q304 -215 304 -235Q304 -255 290 -269Q276 -283 256 -283Q236 -283 222 -269Q208 -255 208 -235Q208 -215 222 -201Q236 -187 256 -187Z"/>
</svg>