<svg xmlns="http://www.w3.org/2000/svg" viewBox="0 -512 512 512">
	<path fill="#000000" d="M235 -235V-192H192V-149H149V-192H124Q117 -173 101 -161Q85 -149 64 -149Q37 -149 18.5 -167.5Q0 -186 0 -213.5Q0 -241 18.5 -259Q37 -277 64 -277Q85 -277 101 -265.5Q117 -254 124 -235ZM64 -235Q54 -235 48.5 -229Q43 -223 43 -213.5Q43 -204 48.5 -198Q54 -192 64 -192Q74 -192 79.5 -198Q85 -204 85 -213.5Q85 -223 79.5 -229Q74 -235 64 -235ZM341 -149Q373 -149 411 -140Q454 -129 481 -112Q512 -91 512 -64V-21H171V-64Q171 -91 202 -112Q229 -129 271 -140Q309 -149 341 -149ZM341 -192Q306 -192 281 -217Q256 -242 256 -277.5Q256 -313 281 -338Q306 -363 341.5 -363Q377 -363 402 -338Q427 -313 427 -277.5Q427 -242 402 -217Q377 -192 341 -192Z"/>
</svg>