<svg xmlns="http://www.w3.org/2000/svg" viewBox="0 -512 512 512">
	<path fill="#000000" d="M85 -320H43V-21Q43 -4 55.5 8.5Q68 21 85 21H384V-21H85ZM427 -405Q444 -405 456.5 -392.5Q469 -380 469 -363V-107Q469 -89 456.5 -76.5Q444 -64 427 -64H171Q153 -64 140.5 -76.5Q128 -89 128 -107V-363Q128 -380 140.5 -392.5Q153 -405 171 -405ZM363 -299Q363 -325 344 -344Q325 -363 298.5 -363Q272 -363 253.5 -344Q235 -325 235 -298.5Q235 -272 253.5 -253.5Q272 -235 298.5 -235Q325 -235 344 -253.5Q363 -272 363 -299ZM171 -128V-107H427V-128Q427 -148 403 -164Q383 -178 351 -186Q322 -194 298.5 -194Q275 -194 247 -186Q214 -178 194 -164Q171 -148 171 -128Z"/>
</svg>