<svg xmlns="http://www.w3.org/2000/svg" viewBox="0 -512 512 512">
	<path fill="#000000" d="M329 -107Q324 -107 320 -111Q316 -115 316 -119.5Q316 -124 320 -128Q324 -132 328.5 -132Q333 -132 337 -128Q341 -124 341 -119.5Q341 -115 337 -111Q333 -107 329 -107ZM465 -68L388 -145Q380 -149 375 -149H316Q309 -149 304 -144Q299 -139 299 -132V-73Q299 -68 303 -60L380 17Q384 21 393 21Q398 21 403 18L405 17L465 -43Q469 -47 469 -55Q469 -60 465 -68ZM213 -363Q178 -363 153 -338Q128 -313 128 -277.5Q128 -242 153 -217Q178 -192 213.5 -192Q249 -192 274 -217Q299 -242 299 -277.5Q299 -313 274 -338Q249 -363 213 -363ZM213 -320Q231 -320 243.5 -307.5Q256 -295 256 -277.5Q256 -260 243.5 -247.5Q231 -235 213.5 -235Q196 -235 183.5 -247.5Q171 -260 171 -277.5Q171 -295 183.5 -307.5Q196 -320 213 -320ZM213 -171Q181 -171 143 -161Q101 -151 74 -133Q43 -112 43 -85V-21H282L273 -30Q259 -44 256 -62H83V-85Q83 -92 103 -103Q123 -114 151 -121Q184 -130 213 -130Q230 -130 256 -126V-132Q256 -150 267 -164Q238 -171 213 -171Z"/>
</svg>