<svg xmlns="http://www.w3.org/2000/svg" viewBox="0 -512 512 512">
	<path fill="#000000" d="M128 -277Q128 -313 153 -338Q178 -363 213.5 -363Q249 -363 274 -338Q299 -313 299 -277.5Q299 -242 274 -217Q249 -192 213.5 -192Q178 -192 153 -217Q128 -242 128 -277ZM195 -27L189 -43L195 -59Q217 -113 269 -145Q242 -149 213 -149Q167 -149 128 -137.5Q89 -126 66 -106.5Q43 -87 43 -64V-21H198ZM363 -64Q354 -64 347.5 -58Q341 -52 341 -43Q341 -34 347.5 -27.5Q354 -21 363 -21Q372 -21 378 -27.5Q384 -34 384 -43Q384 -52 378 -58Q372 -64 363 -64ZM491 -43Q475 -5 440.5 19Q406 43 363 43Q320 43 285 19Q250 -5 235 -43Q250 -81 285 -104.5Q320 -128 363 -128Q406 -128 440.5 -104.5Q475 -81 491 -43ZM416 -43Q416 -65 400.5 -80.5Q385 -96 363 -96Q341 -96 325 -80.5Q309 -65 309 -43Q309 -21 325 -5Q341 11 363 11Q385 11 400.5 -5Q416 -21 416 -43Z"/>
</svg>