<svg xmlns="http://www.w3.org/2000/svg" viewBox="0 -512 512 512">
	<path fill="#000000" d="M349 -176Q383 -164 403 -148Q427 -129 427 -107V0H85V-107Q85 -129 109 -148Q129 -164 163 -176L181 -139Q158 -131 142 -122Q126 -113 126 -107V-41H216L235 -149L215 -189Q237 -191 256 -191Q275 -191 297 -189L277 -149L296 -41H386V-107Q386 -113 370 -122Q354 -131 331 -139L336 -149ZM256 -341Q238 -341 225.5 -328.5Q213 -316 213 -298.5Q213 -281 225.5 -268.5Q238 -256 256 -256Q274 -256 286.5 -268.5Q299 -281 299 -298.5Q299 -316 286.5 -328.5Q274 -341 256 -341ZM256 -213Q221 -213 196 -238Q171 -263 171 -298.5Q171 -334 196 -359Q221 -384 256 -384Q291 -384 316 -359Q341 -334 341 -298.5Q341 -263 316 -238Q291 -213 256 -213Z"/>
</svg>