<svg xmlns="http://www.w3.org/2000/svg" viewBox="0 -512 512 512">
	<path fill="#000000" d="M128 -85Q128 -105 152 -121Q172 -135 204 -144Q233 -151 256 -151Q279 -151 308 -144Q340 -135 360 -121Q384 -105 384 -85V-64H128ZM320 -256Q320 -229 301.5 -210.5Q283 -192 256 -192Q229 -192 210.5 -210.5Q192 -229 192 -256Q192 -283 210.5 -301.5Q229 -320 256 -320Q283 -320 301.5 -301.5Q320 -283 320 -256ZM64 -341V-43Q64 -25 76.5 -12.5Q89 0 107 0H405Q423 0 435.5 -12.5Q448 -25 448 -43V-341Q448 -359 435.5 -371.5Q423 -384 405 -384H107Q89 -384 76.5 -371.5Q64 -359 64 -341Z"/>
</svg>