<svg xmlns="http://www.w3.org/2000/svg" viewBox="0 -512 512 512">
	<path fill="#000000" d="M213 -363Q178 -363 153 -338Q128 -313 128 -277.5Q128 -242 153 -217Q178 -192 213.5 -192Q249 -192 274 -217Q299 -242 299 -277.5Q299 -313 274 -338Q249 -363 213 -363ZM373 -171Q333 -171 305 -143Q277 -115 277 -75Q277 -35 305 -7Q333 21 373 21Q413 21 441 -7Q469 -35 469 -75Q469 -115 441 -143Q413 -171 373 -171ZM213 -149Q167 -149 128 -137.5Q89 -126 66 -106.5Q43 -87 43 -64V-21H245Q235 -47 235 -75Q235 -113 255 -146Q231 -149 213 -149ZM373 -139Q400 -139 418.5 -120Q437 -101 437 -75Q437 -57 428 -43L341 -130Q355 -139 373 -139ZM318 -107L405 -20Q391 -11 373 -11Q347 -11 328 -29.5Q309 -48 309 -75Q309 -93 318 -107Z"/>
</svg>