<svg xmlns="http://www.w3.org/2000/svg" viewBox="0 -512 512 512">
	<path fill="#000000" d="M341 -139Q341 -114 333 -85Q321 -44 294 -4L277 -107L297 -147Q290 -147 277 -148Q264 -149 256 -149Q248 -149 235 -148Q222 -147 215 -147L235 -107L218 -4Q191 -42 179 -84Q171 -113 171 -139Q132 -127 108.5 -107.5Q85 -88 85 -64V21H427V-64Q427 -88 403.5 -107.5Q380 -127 341 -139ZM128 -352Q128 -367 145 -379Q162 -391 191.5 -398Q221 -405 256 -405Q291 -405 320.5 -398Q350 -391 367 -379Q384 -367 384 -352Q384 -341 373 -331Q359 -345 327.5 -354Q296 -363 256 -363Q216 -363 184.5 -354Q153 -345 139 -331Q128 -341 128 -352ZM339 -290Q341 -286 341 -277Q341 -242 316 -217Q291 -192 256 -192Q221 -192 196 -217Q171 -242 171 -277Q171 -286 173 -290Q205 -277 256 -277Q307 -277 339 -290ZM354 -318Q312 -299 256 -299Q200 -299 158 -318Q170 -328 196 -334.5Q222 -341 256 -341Q290 -341 316 -334.5Q342 -328 354 -318Z"/>
</svg>