<svg xmlns="http://www.w3.org/2000/svg" viewBox="0 -512 512 512">
	<path fill="#000000" d="M341 -149H373V-89L425 -59L409 -31L341 -71ZM363 -192Q334 -192 309.5 -177.5Q285 -163 270.5 -138.5Q256 -114 256 -85Q256 -56 270.5 -31.5Q285 -7 309.5 7Q334 21 363 21Q392 21 416.5 7Q441 -7 455 -31.5Q469 -56 469 -85Q469 -114 455 -138.5Q441 -163 416.5 -177.5Q392 -192 363 -192ZM363 -235Q403 -235 437.5 -214.5Q472 -194 492 -160Q512 -126 512 -85.5Q512 -45 492 -10.5Q472 24 437.5 44Q403 64 363 64Q319 64 282.5 40.5Q246 17 228 -21H21V-85Q21 -112 53 -133Q79 -150 122 -161Q160 -171 192 -171Q212 -171 237 -166Q257 -198 290.5 -216.5Q324 -235 363 -235ZM213 -85Q213 -108 220 -128Q207 -130 192 -130Q162 -130 130 -122Q102 -114 82 -103Q62 -92 62 -85V-62H215Q213 -73 213 -85ZM192 -363Q227 -363 252 -338Q277 -313 277 -277.5Q277 -242 252 -217Q227 -192 192 -192Q157 -192 132 -217Q107 -242 107 -277.5Q107 -313 132 -338Q157 -363 192 -363ZM192 -322Q173 -322 160 -309Q147 -296 147 -277.5Q147 -259 160 -246Q173 -233 192 -233Q211 -233 224 -246Q237 -259 237 -277.5Q237 -296 224 -309Q211 -322 192 -322Z"/>
</svg>