<svg xmlns="http://www.w3.org/2000/svg" viewBox="0 -512 512 512">
	<path fill="#000000" d="M107 -128L94 -139L84 -148Q50 -180 39 -194Q21 -217 21 -236.5Q21 -256 35 -270Q49 -284 68 -284Q80 -284 90 -279.5Q100 -275 107 -267Q113 -275 123.5 -279.5Q134 -284 145 -284Q165 -284 178.5 -270.5Q192 -257 192 -237Q192 -217 175 -194Q163 -180 129 -148L119 -139ZM320 -363Q285 -363 260 -338Q235 -313 235 -277.5Q235 -242 260 -217Q285 -192 320 -192Q355 -192 380 -217Q405 -242 405 -277.5Q405 -313 380 -338Q355 -363 320 -363ZM320 -233Q301 -233 288 -246Q275 -259 275 -277.5Q275 -296 288 -309Q301 -322 320 -322Q339 -322 352 -309Q365 -296 365 -277.5Q365 -259 352 -246Q339 -233 320 -233ZM320 -171Q288 -171 250 -161Q207 -150 181 -133Q149 -112 149 -85V-21H491V-85Q491 -112 459 -133Q433 -150 390 -161Q352 -171 320 -171ZM450 -62H190V-85Q190 -92 210 -103Q230 -114 258 -122Q290 -130 320 -130Q350 -130 382 -122Q410 -114 430 -103Q450 -92 450 -85Z"/>
</svg>