<svg xmlns="http://www.w3.org/2000/svg" viewBox="0 -512 512 512">
	<path fill="#000000" d="M31 -259L61 -289L107 -243L152 -289L182 -259L137 -213L182 -168L152 -138L107 -183L61 -138L31 -168L77 -213ZM320 -363Q355 -363 380 -338Q405 -313 405 -277.5Q405 -242 380 -217Q355 -192 320 -192Q285 -192 260 -217Q235 -242 235 -277.5Q235 -313 260 -338Q285 -363 320 -363ZM320 -322Q301 -322 288 -309Q275 -296 275 -277.5Q275 -259 288 -246Q301 -233 320 -233Q339 -233 352 -246Q365 -259 365 -277.5Q365 -296 352 -309Q339 -322 320 -322ZM320 -171Q352 -171 390 -161Q433 -150 459 -133Q491 -112 491 -85V-21H149V-85Q149 -112 181 -133Q207 -150 250 -161Q288 -171 320 -171ZM320 -130Q290 -130 258 -122Q230 -114 210 -103Q190 -92 190 -85V-62H450V-85Q450 -92 430 -103Q410 -114 382 -122Q350 -130 320 -130Z"/>
</svg>