<svg xmlns="http://www.w3.org/2000/svg" viewBox="0 -512 512 512">
	<path fill="#000000" d="M256 -38Q217 -38 183 -56.5Q149 -75 128 -107Q128 -126 152 -143Q172 -157 204 -165Q233 -173 256 -173Q279 -173 308 -165Q340 -157 360 -143Q384 -126 384 -107Q363 -75 329 -56.5Q295 -38 256 -38ZM256 -341Q283 -341 301.5 -322.5Q320 -304 320 -277.5Q320 -251 301.5 -232Q283 -213 256 -213Q229 -213 210.5 -232Q192 -251 192 -277.5Q192 -304 210.5 -322.5Q229 -341 256 -341ZM256 -405Q214 -405 174.5 -389Q135 -373 105 -343Q75 -313 59 -273.5Q43 -234 43 -192Q43 -150 59 -110.5Q75 -71 105 -41Q135 -11 174.5 5Q214 21 256 21Q298 21 337.5 5Q377 -11 407 -41Q437 -71 453 -110.5Q469 -150 469 -192Q469 -250 440.5 -299Q412 -348 363 -376.5Q314 -405 256 -405Z"/>
</svg>