<svg xmlns="http://www.w3.org/2000/svg" viewBox="0 -512 512 512">
	<path fill="#000000" d="M43 -85V-21H213V-62H83V-85Q83 -92 103 -103Q123 -114 151 -122Q184 -130 214 -130Q244 -130 274 -122L306 -154Q261 -170 213 -171Q182 -171 144 -161Q101 -150 74 -133Q43 -112 43 -85ZM213 -363Q178 -363 153 -338Q128 -313 128 -277.5Q128 -242 153 -217Q178 -192 213.5 -192Q249 -192 274 -217Q299 -242 299 -277.5Q299 -313 274 -338Q249 -363 213 -363ZM213 -235Q196 -235 183.5 -247.5Q171 -260 171 -277.5Q171 -295 183.5 -307.5Q196 -320 213.5 -320Q231 -320 243.5 -307.5Q256 -295 256 -277.5Q256 -260 243.5 -247.5Q231 -235 213 -235ZM463 -163L442 -142L398 -185L419 -206Q423 -209 427.5 -209Q432 -209 436 -206L463 -179Q466 -175 466 -170Q466 -165 463 -162ZM256 -44L385 -173L429 -131L301 -1H256Z"/>
</svg>