<svg xmlns="http://www.w3.org/2000/svg" viewBox="0 -512 512 512">
	<path fill="#000000" d="M260 -256L218 -299H277Q295 -299 307.5 -286.5Q320 -274 320 -256V-196L277 -239V-256ZM491 -256V-299H405Q388 -299 375.5 -286.5Q363 -274 363 -256V-213Q363 -196 375.5 -183.5Q388 -171 405 -171H448V-128H388L431 -85H448Q466 -85 478.5 -97.5Q491 -110 491 -128V-171Q491 -188 478.5 -200.5Q466 -213 448 -213H405V-256ZM471 11L444 38L307 -98Q294 -85 277 -85H192V-215L149 -258V-85H107V-171H64V-85H21V-256Q21 -274 33.5 -286.5Q46 -299 64 -299H109L23 -384L51 -412ZM107 -256H64V-213H107ZM277 -130L235 -173V-128H277Z"/>
</svg>