<svg xmlns="http://www.w3.org/2000/svg" viewBox="0 -512 512 512">
	<path fill="#000000" d="M405 -299Q388 -299 375.5 -286.5Q363 -274 363 -256V-213Q363 -196 375.5 -183.5Q388 -171 405 -171H448V-128H363V-85H448Q466 -85 478.5 -97.5Q491 -110 491 -128V-171Q491 -188 478.5 -200.5Q466 -213 448 -213H405V-256H491V-299ZM192 -299V-85H277Q295 -85 307.5 -97.5Q320 -110 320 -128V-256Q320 -274 307.5 -286.5Q295 -299 277 -299ZM235 -256H277V-128H235ZM64 -299Q46 -299 33.5 -286.5Q21 -274 21 -256V-85H64V-171H107V-85H149V-256Q149 -274 136.5 -286.5Q124 -299 107 -299ZM64 -256H107V-213H64Z"/>
</svg>