<svg xmlns="http://www.w3.org/2000/svg" viewBox="0 -512 512 512">
	<path fill="#000000" d="M235 -256Q270 -256 295 -231Q320 -206 320 -170.5Q320 -135 295 -110Q270 -85 234.5 -85Q199 -85 174 -110Q149 -135 149 -170.5Q149 -206 174 -231Q199 -256 235 -256ZM235 -213Q217 -213 204.5 -200.5Q192 -188 192 -170.5Q192 -153 204.5 -140.5Q217 -128 234.5 -128Q252 -128 264.5 -140.5Q277 -153 277 -170.5Q277 -188 264.5 -200.5Q252 -213 235 -213ZM149 -363H299Q334 -363 359 -338Q384 -313 384 -277V-256H341V-277Q341 -295 328.5 -307.5Q316 -320 299 -320H149Q132 -320 119.5 -307.5Q107 -295 107 -277V-21H341V-64H384V21H64V-277Q64 -313 89 -338Q114 -363 149 -363ZM341 -213Q359 -213 373 -220Q381 -224 394.5 -234.5Q408 -245 416 -249Q430 -256 448 -256V-213Q430 -213 416 -207Q408 -203 394.5 -192Q381 -181 373 -177Q359 -171 341 -171ZM341 -128Q359 -128 373 -135Q381 -139 394.5 -149.5Q408 -160 416 -164Q430 -171 448 -171V-128Q430 -128 416 -121Q408 -117 394.5 -106.5Q381 -96 373 -92Q359 -85 341 -85Z"/>
</svg>