<svg xmlns="http://www.w3.org/2000/svg" viewBox="0 -512 512 512">
	<path fill="#000000" d="M471 11L51 -412L23 -384L81 -326Q64 -306 64 -277V21H384V-23L444 36ZM205 -203L265 -143Q253 -128 235 -128Q217 -128 204.5 -140.5Q192 -153 192 -171Q192 -186 205 -203ZM341 -66V-21H107V-277Q107 -284 111 -297L175 -233Q163 -221 156 -204.5Q149 -188 149 -171Q149 -135 174 -110Q199 -85 235 -85Q252 -85 268.5 -92Q285 -99 297 -111ZM363 -154Q364 -166 375 -184Q383 -197 395 -212L405 -224L416 -211Q429 -195 437 -181Q448 -162 448 -149Q448 -133 437 -120.5Q426 -108 410 -107ZM196 -320L154 -363H299Q334 -363 359 -338Q384 -313 384 -277V-256H341V-277Q341 -295 328.5 -307.5Q316 -320 299 -320Z"/>
</svg>