<svg xmlns="http://www.w3.org/2000/svg" viewBox="0 -512 512 512">
	<path fill="#000000" d="M235 -256Q199 -256 174 -231Q149 -206 149 -170.5Q149 -135 174 -110Q199 -85 234.5 -85Q270 -85 295 -110Q320 -135 320 -170.5Q320 -206 295 -231Q270 -256 235 -256ZM235 -128Q217 -128 204.5 -140.5Q192 -153 192 -170.5Q192 -188 204.5 -200.5Q217 -213 234.5 -213Q252 -213 264.5 -200.5Q277 -188 277 -170.5Q277 -153 264.5 -140.5Q252 -128 235 -128ZM149 -363H299Q334 -363 359 -338Q384 -313 384 -277V-256H341V-277Q341 -295 328.5 -307.5Q316 -320 299 -320H149Q132 -320 119.5 -307.5Q107 -295 107 -277V-21H341V-64H384V21H64V-277Q64 -313 89 -338Q114 -363 149 -363ZM405 -224Q411 -217 416 -211Q429 -195 437 -181Q448 -162 448 -149Q448 -132 435.5 -119.5Q423 -107 405.5 -107Q388 -107 375.5 -119.5Q363 -132 363 -149.5Q363 -167 384 -197Q395 -212 405 -224Z"/>
</svg>