<svg xmlns="http://www.w3.org/2000/svg" viewBox="0 -512 512 512">
	<path fill="#000000" d="M405 -388V-320V-252Q405 -247 401 -243.5Q397 -240 393 -241L378 -250Q359 -260 339 -269Q310 -281 282 -288Q246 -297 213 -297V-245H218Q226 -245 233 -242Q240 -239 243 -233L271 -194Q277 -188 277 -179V-9Q277 3 267.5 12Q258 21 245 21H139Q126 21 116.5 12.5Q107 4 107 -9V-179Q107 -188 113 -194L141 -233Q150 -245 166 -245H171V-277Q157 -260 136.5 -260Q116 -260 100.5 -278Q85 -296 85 -320Q85 -344 100.5 -362Q116 -380 137 -380Q157 -376 171 -363V-393H213V-341Q246 -341 282 -350Q310 -357 339 -369Q359 -378 378 -388L393 -397Q397 -398 401 -395.5Q405 -393 405 -388Z"/>
</svg>