<svg xmlns="http://www.w3.org/2000/svg" viewBox="0 -512 512 512">
	<path fill="#000000" d="M341 -256Q313 -256 287 -245L272 -310L355 -393Q364 -402 364 -415.5Q364 -429 354.5 -438.5Q345 -448 332 -448Q319 -448 309 -439L226 -356L30 -401L0 -371L159 -288L76 -205L23 -212L0 -190L68 -152L106 -84L128 -107L121 -160L204 -243L225 -201Q192 -160 192 -107Q192 -66 212 -31.5Q232 3 266.5 23Q301 43 341.5 43Q382 43 416.5 23Q451 3 471 -31.5Q491 -66 491 -106.5Q491 -147 471 -181.5Q451 -216 416.5 -236Q382 -256 341 -256ZM341 0Q312 0 287.5 -14.5Q263 -29 249 -53.5Q235 -78 235 -107Q235 -136 249 -160.5Q263 -185 287.5 -199Q312 -213 341 -213Q370 -213 394.5 -199Q419 -185 433.5 -160.5Q448 -136 448 -107Q448 -78 433.5 -53.5Q419 -29 394.5 -14.5Q370 0 341 0ZM352 -101V-192H320V-85L397 -39L413 -65Z"/>
</svg>