<svg xmlns="http://www.w3.org/2000/svg" viewBox="0 -512 512 512">
	<path fill="#000000" d="M327 -212Q308 -199 295.5 -179.5Q283 -160 279 -137L246 -200L163 -117L171 -64L148 -41L111 -109L43 -147L65 -170L118 -162L201 -245L43 -328L73 -358L269 -313L352 -396Q361 -405 374.5 -405Q388 -405 397.5 -396Q407 -387 407 -373.5Q407 -360 397 -351L314 -268ZM469 -117Q469 -83 432 -27Q413 1 395 21L375 -2Q353 -31 339 -57Q320 -93 320 -117Q320 -148 342 -170Q364 -192 394.5 -192Q425 -192 447 -170Q469 -148 469 -117ZM420 -115Q420 -125 412 -133Q404 -141 394.5 -141Q385 -141 377 -133.5Q369 -126 369 -115.5Q369 -105 376.5 -97.5Q384 -90 395 -90Q406 -90 414 -98Q422 -106 420 -115Z"/>
</svg>