<svg xmlns="http://www.w3.org/2000/svg" viewBox="0 -512 512 512">
	<path fill="#000000" d="M320 -50V21H107V-50Q156 -21 213.5 -21Q271 -21 320 -50ZM469 -363Q469 -380 456.5 -392.5Q444 -405 427 -405Q417 -405 407.5 -400.5Q398 -396 392 -387Q381 -373 384.5 -355.5Q388 -338 402 -328Q413 -320 427 -320H432Q459 -249 440 -175.5Q421 -102 363 -53Q350 -43 341 -38V0H363V-27Q413 -63 441 -118Q469 -173 469 -235Q469 -284 452 -328Q469 -341 469 -363ZM384 -235Q384 -188 361 -149Q338 -110 299 -87Q260 -64 213.5 -64Q167 -64 128 -87Q89 -110 66 -149Q43 -188 43 -234.5Q43 -281 66 -320Q89 -359 128 -382Q167 -405 213.5 -405Q260 -405 299 -382Q338 -359 361 -320Q384 -281 384 -235Z"/>
</svg>