<svg xmlns="http://www.w3.org/2000/svg" viewBox="0 -512 512 512">
	<path fill="#000000" d="M128 -301L83 -346L113 -376L158 -331ZM277 -427V-363H235V-427ZM429 -346L384 -301L354 -331L399 -376ZM96 -224V-181H32V-224ZM416 -224H480V-181H416ZM128 -21H384Q402 -21 414.5 -8.5Q427 4 427 21H85Q85 4 97.5 -8.5Q110 -21 128 -21ZM256 -341Q281 -341 305 -331.5Q329 -322 347 -304Q365 -286 374.5 -262.5Q384 -239 384 -213V-43H128V-213Q128 -239 137.5 -262.5Q147 -286 165 -304Q183 -322 207 -331.5Q231 -341 256 -341ZM256 -299Q221 -299 196 -274Q171 -249 171 -213V-85H341V-213Q341 -249 316 -274Q291 -299 256 -299Z"/>
</svg>