<svg xmlns="http://www.w3.org/2000/svg" viewBox="0 -512 512 512">
	<path fill="#000000" d="M171 -378L141 -408L122 -393L153 -363ZM351 -56Q310 -21 256 -21Q215 -21 181 -41.5Q147 -62 127 -96Q107 -130 107 -171Q107 -224 141 -266ZM62 -399L35 -372L64 -343L40 -324L70 -293L94 -313L111 -296Q89 -271 76.5 -238.5Q64 -206 64 -171Q64 -119 90 -74.5Q116 -30 160 -4.5Q204 21 256 21Q291 21 323.5 9Q356 -3 382 -26L429 21L456 -6ZM469 -326L371 -408L344 -376L442 -293ZM256 -320Q297 -320 331 -300Q365 -280 385 -245.5Q405 -211 405 -171Q405 -145 396 -119L429 -87Q448 -127 448 -171Q448 -223 422 -267Q396 -311 352 -337Q308 -363 256 -363Q212 -363 172 -343L205 -311Q230 -320 256 -320Z"/>
</svg>