<svg xmlns="http://www.w3.org/2000/svg" viewBox="0 -512 512 512">
	<path fill="#000000" d="M225 -138L179 -183L157 -161L225 -93L353 -221L330 -244ZM256 -21Q215 -21 181 -41.5Q147 -62 127 -96Q107 -130 107 -170.5Q107 -211 127 -245.5Q147 -280 181 -300Q215 -320 256 -320Q297 -320 331 -300Q365 -280 385 -245.5Q405 -211 405 -170.5Q405 -130 385 -96Q365 -62 331 -41.5Q297 -21 256 -21ZM256 -363Q204 -363 160 -337Q116 -311 90 -267Q64 -223 64 -171Q64 -119 90 -74.5Q116 -30 160 -4.5Q204 21 256 21Q308 21 352 -4.5Q396 -30 422 -74.5Q448 -119 448 -171Q448 -223 422 -267Q396 -311 352 -337Q308 -363 256 -363ZM168 -376L141 -408L43 -326L70 -294ZM469 -326L371 -408L344 -376L442 -293Z"/>
</svg>