<svg xmlns="http://www.w3.org/2000/svg" viewBox="0 -512 512 512">
	<path fill="#000000" d="M405 -171V-111L427 -90V-128H491V-171ZM51 -411L24 -384L64 -344L43 -326L70 -294L94 -314L111 -297Q77 -257 67.5 -207Q58 -157 74.5 -108.5Q91 -60 130 -26Q156 -3 188.5 9Q221 21 256 21Q270 21 277 20V-23Q270 -21 256 -21Q215 -21 181 -41.5Q147 -62 127 -96Q107 -130 107 -171Q107 -225 141 -267L243 -164L160 -115L176 -89L265 -142L349 -58Q330 -48 323 -27.5Q316 -7 325.5 13Q335 33 356 40Q377 47 397 37Q414 29 421 13L445 37L472 10ZM256 -320Q306 -320 345.5 -290.5Q385 -261 399 -213H443Q434 -257 406.5 -291Q379 -325 339.5 -344Q300 -363 256 -363Q212 -363 173 -343L205 -311Q230 -320 256 -320ZM245 -271L277 -239V-277H245ZM168 -376L141 -408L123 -393L153 -363ZM371 -408L344 -376L442 -293L469 -326Z"/>
</svg>