<svg xmlns="http://www.w3.org/2000/svg" viewBox="0 -512 512 512">
	<path fill="#000000" d="M198 -379L110 -305L85 -334L174 -408ZM469 -334L445 -304L356 -379L381 -408ZM277 -363Q324 -363 363 -340Q402 -317 425 -277.5Q448 -238 448 -192Q448 -146 425 -106.5Q402 -67 363 -44Q324 -21 277.5 -21Q231 -21 192 -44Q153 -67 130 -106.5Q107 -146 107 -192Q107 -238 130 -277.5Q153 -317 192 -340Q231 -363 277 -363ZM277 -320Q252 -320 228.5 -310.5Q205 -301 187 -283Q169 -265 159 -241Q149 -217 149 -192Q149 -167 159 -143Q169 -119 187 -101Q205 -83 228.5 -73.5Q252 -64 277 -64Q312 -64 341.5 -81Q371 -98 388 -127.5Q405 -157 405 -192Q405 -227 388 -256.5Q371 -286 341.5 -303Q312 -320 277 -320ZM256 -288H288V-191L357 -160L343 -131L256 -171ZM21 -149Q21 -189 37.5 -223Q54 -257 83 -281Q64 -238 64 -192L65 -168L64 -149Q64 -113 82.5 -83Q101 -53 131 -37Q175 4 232 17Q212 21 192 21Q146 21 106.5 -2Q67 -25 44 -64Q21 -103 21 -149Z"/>
</svg>