<svg xmlns="http://www.w3.org/2000/svg" viewBox="0 -512 512 512">
	<path fill="#000000" d="M371 -408L344 -376L442 -293L469 -326ZM141 -408L43 -326L70 -294L168 -376ZM256 -363Q204 -363 160 -337Q116 -311 90 -267Q64 -223 64 -171Q64 -119 90 -74.5Q116 -30 160 -4.5Q204 21 256 21Q270 21 277 20V-23Q270 -21 256 -21Q215 -21 181 -41.5Q147 -62 127 -96Q107 -130 107 -170.5Q107 -211 127 -245.5Q147 -280 181 -300Q215 -320 256 -320Q306 -320 345.5 -290.5Q385 -261 399 -213H443Q434 -257 406.5 -291Q379 -325 339.5 -344Q300 -363 256 -363ZM491 -128H427V-11Q427 11 411 27Q395 43 373 43Q351 43 335.5 27Q320 11 320 -11Q320 -33 335.5 -48.5Q351 -64 373 -64Q391 -64 405 -53V-171H491ZM245 -277V-165L160 -115L176 -89L277 -149V-277Z"/>
</svg>