<svg xmlns="http://www.w3.org/2000/svg" viewBox="0 -512 512 512">
	<path fill="#000000" d="M192 -192H128V-235H192ZM288 -235H224V-192H288ZM384 -235H320V-192H384ZM384 -320H128V-256H384ZM427 -341H85V-43H427ZM427 -384Q444 -384 456.5 -371.5Q469 -359 469 -341V-43Q469 -25 456.5 -12.5Q444 0 427 0H85Q68 0 55.5 -12.5Q43 -25 43 -43V-341Q43 -359 55.5 -371.5Q68 -384 85 -384ZM192 -171H128V-128H192ZM288 -171H224V-128H288ZM384 -171H320V-128H384ZM192 -107H128V-64H192ZM288 -107H224V-64H288ZM384 -107H320V-64H384Z"/>
</svg>