<svg xmlns="http://www.w3.org/2000/svg" viewBox="0 -512 512 512">
	<path fill="#000000" d="M224 -292L192 -324Q223 -341 257 -341Q291 -341 320 -324Q349 -307 366.5 -277.5Q384 -248 384 -213V-132L341 -175V-213Q341 -249 316 -274Q291 -299 256 -299Q240 -299 224 -292ZM429 -346L399 -375L354 -331L384 -301ZM416 -224V-181H480V-224ZM96 -224H32V-181H96ZM51 -412L471 9L444 36L429 21H85Q85 4 97.5 -8.5Q110 -21 128 -21H386L365 -43H128V-213Q128 -244 141 -267L23 -384ZM171 -85H322L173 -235Q173 -231 172 -224Q171 -217 171 -213ZM277 -427H235V-363H277Z"/>
</svg>