<svg xmlns="http://www.w3.org/2000/svg" viewBox="0 -512 512 512">
	<path fill="#000000" d="M256 -213Q247 -213 241 -207Q235 -201 235 -192Q235 -183 241 -177Q247 -171 256 -171Q265 -171 271 -177Q277 -183 277 -192Q277 -201 271 -207Q265 -213 256 -213ZM256 -96Q216 -96 188 -124Q160 -152 160 -192Q160 -232 188 -260Q216 -288 256 -288Q296 -288 324 -260Q352 -232 352 -192Q352 -152 324 -124Q296 -96 256 -96ZM256 -405Q214 -405 174.5 -389Q135 -373 105 -343Q75 -313 59 -273.5Q43 -234 43 -192Q43 -150 59 -110.5Q75 -71 105 -41Q135 -11 174.5 5Q214 21 256 21Q298 21 337.5 5Q377 -11 407 -41Q437 -71 453 -110.5Q469 -150 469 -192Q469 -234 453 -273.5Q437 -313 407 -343Q377 -373 337.5 -389Q298 -405 256 -405Z"/>
</svg>