<svg xmlns="http://www.w3.org/2000/svg" viewBox="0 -512 512 512">
	<path fill="#000000" d="M400 25L341 -39L366 -64L400 -30L477 -107L501 -77ZM235 -128H277V-85H235ZM235 -299H277V-171H235ZM256 -405Q314 -405 363 -376.5Q412 -348 440.5 -299Q469 -250 469 -192L468 -164Q447 -171 425 -171L427 -192Q427 -238 404 -277.5Q381 -317 341.5 -340Q302 -363 256 -363Q210 -363 170.5 -340Q131 -317 108 -277.5Q85 -238 85 -192Q85 -146 108 -106.5Q131 -67 170.5 -44Q210 -21 256 -21Q278 -21 300 -27Q302 -6 312 14Q285 21 256 21Q198 21 149 -7.5Q100 -36 71.5 -85Q43 -134 43 -192Q43 -250 71.5 -299Q100 -348 149 -376.5Q198 -405 256 -405Z"/>
</svg>