<svg xmlns="http://www.w3.org/2000/svg" viewBox="0 -512 512 512">
	<path fill="#000000" d="M220 -215Q236 -189 234 -161.5Q232 -134 212.5 -122Q193 -110 167.5 -120Q142 -130 125.5 -156Q109 -182 111.5 -209.5Q114 -237 133.5 -249Q153 -261 178.5 -251Q204 -241 220 -215ZM256 -69Q275 -69 289 -73Q299 -76 305 -81L309 -85L305 -74Q299 -62 289 -54Q275 -43 256 -43Q237 -43 223 -54Q213 -61 207 -74Q203 -83 203 -85L207 -81Q213 -76 223 -73Q237 -69 256 -69ZM379 -249Q398 -237 400.5 -209.5Q403 -182 386.5 -156Q370 -130 344.5 -120Q319 -110 299.5 -122Q280 -134 278 -161.5Q276 -189 292 -215Q308 -241 333.5 -251Q359 -261 379 -249ZM256 -21Q283 -21 324 -52.5Q365 -84 394 -127Q427 -175 427 -214.5Q427 -254 404 -288Q381 -322 341.5 -342.5Q302 -363 256 -363Q210 -363 170.5 -342.5Q131 -322 108 -288Q85 -254 85 -214.5Q85 -175 118 -127Q147 -84 188 -52.5Q229 -21 256 -21ZM256 -405Q314 -405 363 -379.5Q412 -354 440.5 -309.5Q469 -265 469 -213Q469 -170 434.5 -114Q400 -58 352 -20Q300 21 256 21Q212 21 160 -20Q112 -58 77.5 -114Q43 -170 43 -213Q43 -265 71.5 -309.5Q100 -354 149 -379.5Q198 -405 256 -405Z"/>
</svg>