<svg xmlns="http://www.w3.org/2000/svg" viewBox="0 -512 512 512">
	<path fill="#000000" d="M256 -384Q308 -384 352 -361Q396 -338 422 -299Q448 -260 448 -214.5Q448 -169 412 -116Q380 -69 334 -34.5Q288 0 256 0Q224 0 178 -34.5Q132 -69 100 -116Q64 -169 64 -214.5Q64 -260 90 -299Q116 -338 160 -361Q204 -384 256 -384ZM220 -215Q204 -241 178.5 -251Q153 -261 133.5 -249Q114 -237 111.5 -209.5Q109 -182 125.5 -156Q142 -130 167.5 -120Q193 -110 212.5 -122Q232 -134 234 -161.5Q236 -189 220 -215ZM292 -215Q276 -189 278 -161.5Q280 -134 299.5 -122Q319 -110 344.5 -120Q370 -130 386.5 -156Q403 -182 400.5 -209.5Q398 -237 378.5 -249Q359 -261 333.5 -251Q308 -241 292 -215ZM256 -69Q229 -69 213 -77Q205 -81 203 -85Q203 -83 207 -74Q213 -61 223 -54Q237 -43 256 -43Q275 -43 289 -54Q299 -62 305 -74L309 -85L305 -81Q299 -76 289 -73Q275 -69 256 -69Z"/>
</svg>