<svg xmlns="http://www.w3.org/2000/svg" viewBox="0 -512 512 512">
	<path fill="#000000" d="M405 -384H107Q89 -384 76.5 -371.5Q64 -359 64 -341V-43Q64 -25 76.5 -12.5Q89 0 107 0H405Q423 0 435.5 -12.5Q448 -25 448 -43V-341Q448 -359 435.5 -371.5Q423 -384 405 -384ZM343 -109Q309 -109 285 -133L271 -147L301 -177L315 -163Q327 -151 343.5 -151Q360 -151 372 -163Q384 -175 384 -192Q384 -209 372 -221Q360 -233 343.5 -233Q327 -233 315 -221L227 -133Q203 -109 168.5 -109Q134 -109 109.5 -133.5Q85 -158 85 -192Q85 -226 109.5 -250.5Q134 -275 168.5 -275Q203 -275 227 -251L241 -237L211 -207L197 -221Q185 -233 168.5 -233Q152 -233 140 -221Q128 -209 128 -192Q128 -175 140 -163Q152 -151 168.5 -151Q185 -151 197 -163L285 -251Q309 -275 343.5 -275Q378 -275 402.5 -250.5Q427 -226 427 -192Q427 -158 402.5 -133.5Q378 -109 343 -109Z"/>
</svg>