<svg xmlns="http://www.w3.org/2000/svg" viewBox="0 -512 512 512">
	<path fill="#000000" d="M405 -192Q405 -163 384.5 -142Q364 -121 334.5 -121Q305 -121 284 -142L271 -154L294 -177L307 -164Q318 -153 334 -153Q350 -153 361.5 -164.5Q373 -176 373 -192Q373 -208 361.5 -219.5Q350 -231 334 -231Q318 -231 307 -220L228 -142Q208 -121 178 -121Q148 -121 127.5 -142Q107 -163 107 -192Q107 -221 127.5 -242Q148 -263 178 -263Q208 -263 228 -242L241 -230L218 -207L206 -220Q194 -231 178 -231Q162 -231 150.5 -219.5Q139 -208 139 -192Q139 -176 150.5 -164.5Q162 -153 178 -153Q194 -153 206 -164L284 -242Q305 -263 334.5 -263Q364 -263 384.5 -242Q405 -221 405 -192ZM448 -341V-43Q448 -25 435.5 -12.5Q423 0 405 0H107Q89 0 76.5 -12.5Q64 -25 64 -43V-341Q64 -359 76.5 -371.5Q89 -384 107 -384H405Q423 -384 435.5 -371.5Q448 -359 448 -341ZM405 -341H107V-43H405Z"/>
</svg>