<svg xmlns="http://www.w3.org/2000/svg" viewBox="0 -512 512 512">
	<path fill="#000000" d="M421 -334Q410 -334 402.5 -326.5Q395 -319 395 -308V-210H377V-361Q377 -372 369 -380Q361 -388 350 -388Q339 -388 331.5 -380Q324 -372 324 -361V-210H306V-379Q306 -394 292.5 -401.5Q279 -409 265.5 -401.5Q252 -394 252 -379V-210H235V-334Q235 -345 227 -353Q219 -361 208 -361Q197 -361 189 -353Q181 -345 181 -334V-122L105 -165Q100 -168 94 -168Q86 -168 80 -163L57 -141L196 0Q217 21 247 21H377Q406 21 427 0.5Q448 -20 448 -50V-308Q448 -319 440 -326.5Q432 -334 421 -334ZM235 -128Q226 -128 219.5 -134Q213 -140 213 -149Q213 -158 219.5 -164.5Q226 -171 235 -171Q244 -171 250 -164.5Q256 -158 256 -149Q256 -140 250 -134Q244 -128 235 -128ZM277 -64Q268 -64 262 -70Q256 -76 256 -85Q256 -94 262 -100.5Q268 -107 277 -107Q286 -107 292.5 -100.5Q299 -94 299 -85Q299 -76 292.5 -70Q286 -64 277 -64ZM384 -107Q375 -107 369 -113Q363 -119 363 -128Q363 -137 369 -143Q375 -149 384 -149Q393 -149 399 -143Q405 -137 405 -128Q405 -119 399 -113Q393 -107 384 -107ZM363 -43Q354 -43 347.5 -49Q341 -55 341 -64Q341 -73 347.5 -79Q354 -85 363 -85Q372 -85 378 -79Q384 -73 384 -64Q384 -55 378 -49Q372 -43 363 -43ZM320 -128Q311 -128 305 -134Q299 -140 299 -149Q299 -158 305 -164.5Q311 -171 320 -171Q329 -171 335 -164.5Q341 -158 341 -149Q341 -140 335 -134Q329 -128 320 -128Z"/>
</svg>