<svg xmlns="http://www.w3.org/2000/svg" viewBox="0 -512 512 512">
	<path fill="#000000" d="M277 -320V-64H320V-79Q333 -64 352 -64H363Q389 -64 408 -83Q427 -102 427 -128V-192Q427 -218 408 -237Q389 -256 363 -256H352Q333 -256 320 -241V-320ZM107 -256V-213H171Q180 -213 186 -207Q192 -201 192 -192H149Q123 -192 104 -173Q85 -154 85 -128Q85 -102 104 -83Q123 -64 149 -64H235V-192Q235 -218 216 -237Q197 -256 171 -256ZM341 -213H363Q372 -213 378 -207Q384 -201 384 -192V-128Q384 -119 378 -113Q372 -107 363 -107H341Q332 -107 326 -113Q320 -119 320 -128V-192Q320 -201 326 -207Q332 -213 341 -213ZM149 -149H192V-107H149Q140 -107 134 -113Q128 -119 128 -128Q128 -137 134 -143Q140 -149 149 -149Z"/>
</svg>