<svg xmlns="http://www.w3.org/2000/svg" viewBox="0 -512 512 512">
	<path fill="#000000" d="M472 10L341 -121L299 -164L291 -171L51 -411L24 -384L213 -194V-128Q213 -110 225.5 -97.5Q238 -85 256 -85H299Q309 -85 318 -90L445 37ZM256 -128V-152L280 -128ZM341 -175L303 -213Q318 -212 329 -201Q340 -190 341 -175ZM431 -85L384 -132V-171Q384 -188 396.5 -200.5Q409 -213 427 -213H469V-171H427V-128H469V-85ZM128 -213H85Q68 -213 55.5 -200.5Q43 -188 43 -171V-128Q43 -110 55.5 -97.5Q68 -85 85 -85H171V-171Q171 -188 158.5 -200.5Q146 -213 128 -213ZM128 -128H85V-171H128ZM256 -260L218 -299H256Z"/>
</svg>