<svg xmlns="http://www.w3.org/2000/svg" viewBox="0 -512 512 512">
	<path fill="#000000" d="M386 -68Q371 -64 359 -64Q321 -64 308 -121H307Q275 -60 219 -60Q177 -60 151.5 -91.5Q126 -123 126 -171Q126 -226 154.5 -261Q183 -296 232 -296Q259 -296 279.5 -281.5Q300 -267 311 -240L327 -292H381L336 -178Q343 -138 351.5 -123.5Q360 -109 373 -109Q380 -109 386 -112ZM295 -180Q288 -216 273.5 -235.5Q259 -255 239 -255Q212 -255 196.5 -232Q181 -209 181 -174Q181 -142 194.5 -121Q208 -100 231 -100Q250 -100 266 -118Q282 -136 292 -172Z"/>
</svg>