<svg xmlns="http://www.w3.org/2000/svg" viewBox="0 -512 512 512">
	<path fill="#000000" d="M128 -213Q146 -213 158.5 -200.5Q171 -188 171 -171V-85H85Q68 -85 55.5 -97.5Q43 -110 43 -128V-171Q43 -188 55.5 -200.5Q68 -213 85 -213ZM85 -171V-128H128V-171ZM427 -171V-128H469V-85H427Q409 -85 396.5 -97.5Q384 -110 384 -128V-171Q384 -188 396.5 -200.5Q409 -213 427 -213H469V-171ZM256 -299V-213H299Q316 -213 328.5 -200.5Q341 -188 341 -171V-128Q341 -110 328.5 -97.5Q316 -85 299 -85H256Q238 -85 225.5 -97.5Q213 -110 213 -128V-299ZM256 -128H299V-171H256Z"/>
</svg>