<svg xmlns="http://www.w3.org/2000/svg" viewBox="0 -512 512 512">
	<path fill="#000000" d="M341 -320Q315 -320 296 -301Q277 -282 277 -256V0H320V-256Q320 -265 326 -271Q332 -277 341 -277H363Q372 -277 378 -271Q384 -265 384 -256V-235Q384 -226 378 -219.5Q372 -213 363 -213H341V-171H363Q372 -171 378 -164.5Q384 -158 384 -149V-128Q384 -119 378 -113Q372 -107 363 -107H341V-64H363Q389 -64 408 -83Q427 -102 427 -128V-149Q427 -162 421 -173Q415 -184 405 -192Q415 -200 421 -211Q427 -222 427 -235V-256Q427 -282 408 -301Q389 -320 363 -320ZM149 -256Q123 -256 104 -237Q85 -218 85 -192V-128Q85 -102 104 -83Q123 -64 149 -64H164Q180 -64 192 -75V-64H235V-256H192V-245Q180 -256 164 -256ZM149 -213H171Q180 -213 186 -207Q192 -201 192 -192V-128Q192 -119 186 -113Q180 -107 171 -107H149Q140 -107 134 -113Q128 -119 128 -128V-192Q128 -201 134 -207Q140 -213 149 -213Z"/>
</svg>