<svg xmlns="http://www.w3.org/2000/svg" viewBox="0 -512 512 512">
	<path fill="#000000" d="M64 -299Q46 -299 33.5 -286.5Q21 -274 21 -256V-85H64V-171H107V-85H149V-256Q149 -274 136.5 -286.5Q124 -299 107 -299ZM64 -256H107V-213H64ZM320 -224V-256Q320 -274 307.5 -286.5Q295 -299 277 -299H192V-85H277Q295 -85 307.5 -97.5Q320 -110 320 -128V-160Q320 -173 310.5 -182.5Q301 -192 288 -192Q301 -192 310.5 -201.5Q320 -211 320 -224ZM277 -128H235V-171H277ZM277 -213H235V-256H277ZM405 -299Q388 -299 375.5 -286.5Q363 -274 363 -256V-128Q363 -110 375.5 -97.5Q388 -85 405 -85H448Q466 -85 478.5 -97.5Q491 -110 491 -128V-149H448V-128H405V-256H448V-235H491V-256Q491 -274 478.5 -286.5Q466 -299 448 -299Z"/>
</svg>