<svg xmlns="http://www.w3.org/2000/svg" viewBox="0 -512 512 512">
	<path fill="#000000" d="M107 -363H405Q423 -363 435.5 -350.5Q448 -338 448 -320V-21Q448 -4 435.5 8.5Q423 21 405 21H107Q89 21 76.5 8.5Q64 -4 64 -21V-320Q64 -338 76.5 -350.5Q89 -363 107 -363ZM107 -320V-21H405V-320ZM235 -299H277Q295 -299 307.5 -286.5Q320 -274 320 -256V-128Q320 -110 307.5 -97.5Q295 -85 277 -85V-43H235V-85Q217 -85 204.5 -97.5Q192 -110 192 -128V-256Q192 -274 204.5 -286.5Q217 -299 235 -299ZM235 -256V-128H277V-256Z"/>
</svg>