<svg xmlns="http://www.w3.org/2000/svg" viewBox="0 -512 512 512">
	<path fill="#000000" d="M299 21H213V0H299ZM277 -235V-299H235V-235L213 -203V-21H299V-203ZM256 -405Q253 -402 250 -398Q244 -389 240 -377Q235 -360 235 -341V-320H277V-341V-353Q275 -367 271 -379Q265 -396 256 -405ZM171 21H85V0H171ZM149 -235V-299H107V-235L85 -203V-21H171V-203ZM128 -405Q125 -402 122 -398Q116 -389 112 -377Q107 -360 107 -341V-320H149V-341V-353Q147 -367 143 -379Q137 -396 128 -405ZM427 21H341V0H427ZM405 -235V-299H363V-235L341 -203V-21H427V-203ZM384 -405Q381 -402 378 -398Q372 -389 368 -377Q363 -360 363 -341V-320H405V-341V-353Q403 -367 399 -379Q393 -396 384 -405Z"/>
</svg>