<svg xmlns="http://www.w3.org/2000/svg" viewBox="0 -512 512 512">
	<path fill="#000000" d="M471 11L51 -412L23 -384L64 -343V0H107Q107 10 112.5 15.5Q118 21 128 21Q138 21 143.5 15.5Q149 10 149 0H363Q363 10 368.5 15.5Q374 21 384 21Q394 21 399.5 15.5Q405 10 405 0H407L444 36ZM107 -256V-301L151 -256ZM256 -43Q221 -43 196 -68Q171 -93 171 -128Q171 -150 181 -168.5Q191 -187 209 -198L326 -81Q315 -63 296.5 -53Q278 -43 256 -43ZM299 -320V-299H256V-320ZM213 -320Q223 -320 229 -314Q235 -308 235 -299Q235 -294 230 -286L201 -316Q209 -320 213 -320ZM175 -341L132 -384H192Q192 -394 198 -399.5Q204 -405 213 -405H299Q308 -405 314 -399.5Q320 -394 320 -384H448V-68L260 -256H405V-341ZM341 -320V-277H320V-320ZM384 -320V-277H363V-320Z"/>
</svg>