<svg xmlns="http://www.w3.org/2000/svg" viewBox="0 -512 512 512">
	<path fill="#000000" d="M213 -405H299Q308 -405 314 -399Q320 -393 320 -384H448V0H405Q405 9 399 15Q393 21 384 21Q375 21 369 15Q363 9 363 0H149Q149 9 143 15Q137 21 128 21Q119 21 113 15Q107 9 107 0H64V-384H192Q192 -393 198 -399Q204 -405 213 -405ZM107 -341V-256H405V-341ZM149 -320Q158 -320 164.5 -314Q171 -308 171 -299Q171 -290 164.5 -283.5Q158 -277 149 -277Q140 -277 134 -283.5Q128 -290 128 -299Q128 -308 134 -314Q140 -320 149 -320ZM256 -320H299V-299H256ZM320 -320H341V-277H320ZM363 -320H384V-277H363ZM256 -213Q221 -213 196 -188Q171 -163 171 -128Q171 -93 196 -68Q221 -43 256 -43Q291 -43 316 -68Q341 -93 341 -128Q341 -163 316 -188Q291 -213 256 -213ZM213 -320Q222 -320 228.5 -314Q235 -308 235 -299Q235 -290 228.5 -283.5Q222 -277 213 -277Q204 -277 198 -283.5Q192 -290 192 -299Q192 -308 198 -314Q204 -320 213 -320Z"/>
</svg>