<svg xmlns="http://www.w3.org/2000/svg" viewBox="0 -512 512 512">
	<path fill="#000000" d="M256 -405Q229 -405 210.5 -386.5Q192 -368 192 -341Q192 -321 203.5 -304.5Q215 -288 235 -281V-256H171V-213H235V-23Q209 -28 188 -37Q164 -47 145.5 -62Q127 -77 116 -95L149 -128L64 -192V-128Q64 -97 82 -69.5Q100 -42 128 -22Q156 -2 190 9.5Q224 21 256 21Q288 21 322 9.5Q356 -2 384.5 -22Q413 -42 430.5 -69.5Q448 -97 448 -128V-192L363 -128L396 -95Q385 -77 366.5 -62Q348 -47 324 -37Q303 -28 277 -23V-213H341V-256H277V-281Q296 -288 308 -304.5Q320 -321 320 -341Q320 -368 301.5 -386.5Q283 -405 256 -405ZM256 -363Q265 -363 271 -356.5Q277 -350 277 -341Q277 -332 271 -326Q265 -320 256 -320Q247 -320 241 -326Q235 -332 235 -341Q235 -350 241 -356.5Q247 -363 256 -363Z"/>
</svg>