<svg xmlns="http://www.w3.org/2000/svg" viewBox="0 -512 512 512">
	<path fill="#000000" d="M235 -405H277V-363H288Q301 -363 310.5 -353.5Q320 -344 320 -331V-256L311 -247L346 -186Q364 -204 374 -227.5Q384 -251 384 -277H427Q427 -239 411 -205.5Q395 -172 368 -148L435 -32L437 15L397 -11L332 -124Q297 -107 256 -107Q215 -107 180 -124L115 -11L75 15L77 -32L201 -247L192 -256V-331Q192 -344 201.5 -353.5Q211 -363 224 -363H235ZM201 -161Q227 -149 256 -149Q285 -149 311 -161L279 -215Q269 -206 256 -206Q243 -206 233 -215ZM256 -320Q247 -320 241 -314Q235 -308 235 -299Q235 -290 241 -283.5Q247 -277 256 -277Q265 -277 271 -283.5Q277 -290 277 -299Q277 -308 271 -314Q265 -320 256 -320Z"/>
</svg>