<svg xmlns="http://www.w3.org/2000/svg" viewBox="0 -512 512 512">
	<path fill="#000000" d="M354 -125Q347 -125 341.5 -130Q336 -135 336 -142.5Q336 -150 341.5 -155Q347 -160 354 -160Q362 -160 367 -155Q372 -150 372 -142.5Q372 -135 367 -130Q362 -125 354 -125ZM158 -125Q151 -125 145.5 -130Q140 -135 140 -142.5Q140 -150 145.5 -155Q151 -160 158 -160Q165 -160 170.5 -155Q176 -150 176 -142.5Q176 -135 170.5 -130Q165 -125 158 -125ZM361 -232L396 -293Q398 -296 397 -299Q396 -302 393.5 -303.5Q391 -305 388 -304Q385 -303 384 -300L348 -238Q304 -258 255.5 -258Q207 -258 165 -239L129 -301Q127 -303 124.5 -304Q122 -305 119 -303.5Q116 -302 115.5 -299Q115 -296 116 -293L151 -232Q105 -207 76 -162.5Q47 -118 43 -64H469Q465 -118 436 -162Q407 -206 361 -232Z"/>
</svg>