<svg xmlns="http://www.w3.org/2000/svg" viewBox="0 -512 512 512">
	<path fill="#000000" d="M256 -405Q198 -405 149 -376.5Q100 -348 71.5 -299Q43 -250 43 -192Q43 -134 71.5 -85Q100 -36 149 -7.5Q198 21 256 21Q314 21 363 -7.5Q412 -36 440.5 -85Q469 -134 469 -192Q469 -250 440.5 -299Q412 -348 363 -376.5Q314 -405 256 -405ZM343 -85Q339 -85 332 -91L222 -180L185 -87H153L246 -312Q250 -321 259.5 -321Q269 -321 273 -312L358 -107Q359 -103 359 -101Q359 -94 354.5 -89.5Q350 -85 343 -85ZM260 -275L315 -139L231 -204Z"/>
</svg>