<svg xmlns="http://www.w3.org/2000/svg" viewBox="0 -512 512 512">
	<path fill="#000000" d="M332 -171Q310 -171 294 -157L266 -173Q269 -182 269 -192Q269 -202 267 -212L293 -228Q309 -213 332 -213Q355 -213 372 -230Q389 -247 389 -270.5Q389 -294 372 -311Q355 -328 331.5 -328Q308 -328 291 -311Q274 -294 274 -270Q274 -265 275 -259L248 -243Q234 -258 213 -263V-293Q231 -299 242 -314Q253 -329 253 -348Q253 -372 236.5 -388.5Q220 -405 196 -405Q172 -405 155.5 -388.5Q139 -372 139 -348Q139 -329 149.5 -314Q160 -299 178 -293V-263Q154 -257 138.5 -237.5Q123 -218 123 -192.5Q123 -167 138.5 -147.5Q154 -128 178 -122V-91Q160 -85 149.5 -70Q139 -55 139 -36Q139 -12 155.5 4.5Q172 21 196 21Q220 21 236.5 4.5Q253 -12 253 -36Q253 -55 242 -70Q231 -85 213 -91V-122Q234 -127 248 -142L275 -126Q274 -120 274 -114Q274 -90 291 -73Q308 -56 331.5 -56Q355 -56 372 -73Q389 -90 389 -114Q389 -138 372 -154.5Q355 -171 332 -171ZM332 -299Q343 -299 351.5 -290.5Q360 -282 360 -270.5Q360 -259 351.5 -250.5Q343 -242 331.5 -242Q320 -242 311.5 -250.5Q303 -259 303 -270.5Q303 -282 311.5 -290.5Q320 -299 332 -299ZM167 -348Q167 -360 175.5 -368.5Q184 -377 196 -377Q208 -377 216 -368.5Q224 -360 224 -348Q224 -336 216 -327.5Q208 -319 196 -319Q184 -319 175.5 -327.5Q167 -336 167 -348ZM224 -36Q224 -24 216 -16Q208 -8 196 -8Q184 -8 175.5 -16Q167 -24 167 -36Q167 -48 175.5 -56.5Q184 -65 196 -65Q208 -65 216 -56.5Q224 -48 224 -36ZM196 -152Q179 -152 167 -164Q155 -176 155 -193Q155 -210 167 -222Q179 -234 196 -234Q213 -234 225 -222Q237 -210 237 -193Q237 -176 225 -164Q213 -152 196 -152ZM332 -85Q320 -85 311.5 -93.5Q303 -102 303 -114Q303 -126 311.5 -134Q320 -142 331.5 -142Q343 -142 351.5 -134Q360 -126 360 -114Q360 -102 351.5 -93.5Q343 -85 332 -85Z"/>
</svg>