<svg xmlns="http://www.w3.org/2000/svg" viewBox="0 -512 512 512">
	<path fill="#000000" d="M171 -213Q162 -213 155.5 -219.5Q149 -226 149 -235V-277Q149 -286 155.5 -292.5Q162 -299 170.5 -299Q179 -299 185.5 -292.5Q192 -286 192 -277V-235Q192 -226 185.5 -219.5Q179 -213 171 -213ZM363 -235V-277Q363 -286 356.5 -292.5Q350 -299 341.5 -299Q333 -299 326.5 -292.5Q320 -286 320 -277V-235Q320 -226 326.5 -219.5Q333 -213 341.5 -213Q350 -213 356.5 -219.5Q363 -226 363 -235ZM469 -341V-21Q469 -4 456.5 8.5Q444 21 427 21H85Q68 21 55.5 8.5Q43 -4 43 -21V-341Q43 -359 55.5 -371.5Q68 -384 85 -384H427Q444 -384 456.5 -371.5Q469 -359 469 -341ZM85 -21H279Q276 -38 274 -65L256 -64Q206 -64 165 -88Q143 -102 133 -115Q127 -121 128 -130Q129 -139 135.5 -144.5Q142 -150 151 -149.5Q160 -149 166 -141Q172 -133 189 -124Q219 -107 256 -107L272 -108Q271 -134 272 -165H233Q223 -165 215.5 -173Q208 -181 208 -192Q210 -219 214 -248Q222 -304 235 -341H85ZM427 -21V-341H269Q250 -293 240 -197H279Q289 -197 296.5 -189.5Q304 -182 304 -171V-170Q303 -143 304 -115Q331 -125 346 -142Q352 -149 360.5 -150Q369 -151 376 -145Q383 -139 384 -130.5Q385 -122 379 -115Q372 -106 359 -97Q335 -79 305 -71Q308 -41 311 -21Z"/>
</svg>