<svg xmlns="http://www.w3.org/2000/svg" viewBox="0 -512 512 512">
	<path fill="#000000" d="M128 -405Q163 -405 188 -380Q213 -355 213 -320V-277H299V-320Q299 -355 324 -380Q349 -405 384 -405Q419 -405 444 -380Q469 -355 469 -320Q469 -285 444 -260Q419 -235 384 -235H341V-149H384Q419 -149 444 -124Q469 -99 469 -64Q469 -29 444 -4Q419 21 384 21Q349 21 324 -4Q299 -29 299 -64V-107H213V-64Q213 -29 188 -4Q163 21 128 21Q93 21 68 -4Q43 -29 43 -64Q43 -99 68 -124Q93 -149 128 -149H171V-235H128Q93 -235 68 -260Q43 -285 43 -320Q43 -355 68 -380Q93 -405 128 -405ZM341 -64Q341 -46 353.5 -33.5Q366 -21 384 -21Q402 -21 414.5 -33.5Q427 -46 427 -64Q427 -82 414.5 -94.5Q402 -107 384 -107H341ZM299 -235H213V-149H299ZM128 -107Q110 -107 97.5 -94.5Q85 -82 85 -64Q85 -46 97.5 -33.5Q110 -21 128 -21Q146 -21 158.5 -33.5Q171 -46 171 -64V-107ZM171 -320Q171 -338 158.5 -350.5Q146 -363 128 -363Q110 -363 97.5 -350.5Q85 -338 85 -320Q85 -302 97.5 -289.5Q110 -277 128 -277H171ZM384 -277Q402 -277 414.5 -289.5Q427 -302 427 -320Q427 -338 414.5 -350.5Q402 -363 384 -363Q366 -363 353.5 -350.5Q341 -338 341 -320V-277Z"/>
</svg>