<svg xmlns="http://www.w3.org/2000/svg" viewBox="0 -512 512 512">
	<path fill="#000000" d="M448 -405H64Q46 -405 33.5 -392.5Q21 -380 21 -363V-21Q21 -4 33.5 8.5Q46 21 64 21H448Q466 21 478.5 8.5Q491 -4 491 -21V-363Q491 -380 478.5 -392.5Q466 -405 448 -405ZM235 -213H192V-181Q192 -164 179.5 -151.5Q167 -139 149 -139Q167 -139 179.5 -126.5Q192 -114 192 -96V-64H235V-21H192Q174 -21 161.5 -33.5Q149 -46 149 -64V-75Q149 -92 136.5 -104.5Q124 -117 107 -117V-160Q124 -160 136.5 -172.5Q149 -185 149 -203V-213Q149 -231 161.5 -243.5Q174 -256 192 -256H235ZM405 -117Q388 -117 375.5 -104.5Q363 -92 363 -75V-64Q363 -46 350.5 -33.5Q338 -21 320 -21H277V-64H320V-96Q320 -114 332.5 -126.5Q345 -139 363 -139Q345 -139 332.5 -151.5Q320 -164 320 -181V-213H277V-256H320Q338 -256 350.5 -243.5Q363 -231 363 -213V-203Q363 -185 375.5 -172.5Q388 -160 405 -160ZM448 -299H64V-363H448Z"/>
</svg>