<svg xmlns="http://www.w3.org/2000/svg" viewBox="0 -512 512 512">
	<path fill="#000000" d="M448 -405H64Q46 -405 33.5 -392.5Q21 -380 21 -363V-21Q21 -4 33.5 8.5Q46 21 64 21H448Q466 21 478.5 8.5Q491 -4 491 -21V-363Q491 -380 478.5 -392.5Q466 -405 448 -405ZM448 -21H64V-320H448ZM354 -277Q378 -256 391.5 -228.5Q405 -201 405 -171Q405 -141 391.5 -113Q378 -85 354 -64L320 -77Q340 -92 351.5 -117.5Q363 -143 363 -170.5Q363 -198 351.5 -223.5Q340 -249 320 -265ZM158 -277L192 -265Q172 -249 160.5 -223.5Q149 -198 149 -170.5Q149 -143 160.5 -117.5Q172 -92 192 -77L158 -64Q134 -85 120.5 -113Q107 -141 107 -171Q107 -201 120.5 -228.5Q134 -256 158 -277ZM258 -192L288 -235H320L273 -171L301 -107H273L256 -149L226 -107H192L241 -173L213 -235H241Z"/>
</svg>