<svg xmlns="http://www.w3.org/2000/svg" viewBox="0 -512 512 512">
	<path fill="#000000" d="M45 -90H80V-240H45ZM62 -259Q71 -259 76.5 -265Q82 -271 82 -279Q82 -287 76.5 -292.5Q71 -298 62.5 -298Q54 -298 48.5 -292.5Q43 -287 43 -279Q43 -271 48.5 -265Q54 -259 62 -259ZM197 -297Q153 -297 126.5 -269Q100 -241 100 -192Q100 -143 126.5 -114.5Q153 -86 197.5 -86Q242 -86 268 -114.5Q294 -143 294 -192Q294 -241 268 -269Q242 -297 197 -297ZM197 -267Q225 -267 241 -246.5Q257 -226 257 -192Q257 -158 241 -137.5Q225 -117 197.5 -117Q170 -117 154 -137.5Q138 -158 138 -192Q138 -226 154 -246.5Q170 -267 197 -267ZM309 -147Q310 -119 331.5 -102.5Q353 -86 389.5 -86Q426 -86 447.5 -103Q469 -120 469 -149Q469 -172 455 -185.5Q441 -199 410 -207L387 -212Q368 -216 359.5 -222.5Q351 -229 351 -239Q351 -252 362 -260Q373 -268 390.5 -268Q408 -268 419 -259.5Q430 -251 431 -237H466Q465 -264 444.5 -280.5Q424 -297 390.5 -297Q357 -297 335.5 -280.5Q314 -264 314 -237Q314 -193 370 -181L396 -175Q416 -170 424 -163Q432 -156 432 -144Q432 -132 420.5 -124Q409 -116 390.5 -116Q372 -116 359 -124.5Q346 -133 345 -147Z"/>
</svg>