<svg xmlns="http://www.w3.org/2000/svg" viewBox="0 -512 512 512">
	<path fill="#000000" d="M256 -405Q298 -405 337.5 -389Q377 -373 407 -343Q437 -313 453 -273.5Q469 -234 469 -192Q469 -150 453 -110.5Q437 -71 407 -41Q377 -11 337.5 5Q298 21 256 21Q214 21 174.5 5Q135 -11 105 -41Q75 -71 59 -110.5Q43 -150 43 -192Q43 -234 59 -273.5Q75 -313 105 -343Q135 -373 174.5 -389Q214 -405 256 -405ZM256 -363Q210 -363 170.5 -340Q131 -317 108 -277.5Q85 -238 85 -192Q85 -159 97 -129.5Q109 -100 130 -77L211 -237L371 -318Q348 -339 318.5 -351Q289 -363 256 -363ZM256 -21Q302 -21 341.5 -44Q381 -67 404 -106.5Q427 -146 427 -192Q427 -225 415 -254.5Q403 -284 382 -307L301 -147L141 -66Q164 -45 193.5 -33Q223 -21 256 -21ZM256 -192L240 -208L207 -143L272 -176ZM256 -75H277V-43H256ZM339 -109L354 -124L377 -102L361 -86ZM373 -192V-213H405V-192ZM256 -309H235V-341H256ZM173 -275L158 -260L135 -282L151 -298ZM139 -192V-171H107V-192Z"/>
</svg>