<svg xmlns="http://www.w3.org/2000/svg" viewBox="0 -512 512 512">
	<path fill="#000000" d="M309 -213Q314 -213 317 -210Q320 -207 320 -203V-171H192V-203Q192 -207 195 -210Q198 -213 203 -213ZM427 -159V-235H384V-169Q405 -167 427 -159ZM448 -256H64V-384H448ZM405 -341H107V-299H405ZM189 -43H128V-235H85V0H209Q200 -13 195 -27ZM363 -64Q354 -64 347.5 -58Q341 -52 341 -43Q341 -34 347.5 -27.5Q354 -21 363 -21Q372 -21 378 -27.5Q384 -34 384 -43Q384 -52 378 -58Q372 -64 363 -64ZM491 -43Q475 -5 440.5 19Q406 43 363 43Q320 43 285 19Q250 -5 235 -43Q250 -81 285 -104.5Q320 -128 363 -128Q406 -128 440.5 -104.5Q475 -81 491 -43ZM416 -43Q416 -65 400.5 -80.5Q385 -96 363 -96Q341 -96 325 -80.5Q309 -65 309 -43Q309 -21 325 -5Q341 11 363 11Q385 11 400.5 -5Q416 -21 416 -43Z"/>
</svg>