<svg xmlns="http://www.w3.org/2000/svg" viewBox="0 -512 512 512">
	<path fill="#000000" d="M448 -299H64V-384H448ZM291 -171H192V-203Q192 -207 195 -210Q198 -213 203 -213H309Q317 -213 319 -206Q352 -235 395 -235Q410 -235 427 -230V-277H85V0H324Q277 -69 277 -117Q277 -145 291 -171ZM469 -117Q469 -83 432 -27Q413 1 395 21L375 -2Q353 -31 339 -57Q320 -93 320 -117Q320 -148 342 -170Q364 -192 394.5 -192Q425 -192 447 -170Q469 -148 469 -117ZM420 -115Q420 -125 412 -133Q404 -141 394.5 -141Q385 -141 377 -133.5Q369 -126 369 -115.5Q369 -105 376.5 -97.5Q384 -90 395 -90Q406 -90 414 -98Q422 -106 420 -115Z"/>
</svg>