<svg xmlns="http://www.w3.org/2000/svg" viewBox="0 -512 512 512">
	<path fill="#000000" d="M384 -191V-235H427V-188Q409 -192 395 -192Q388 -192 384 -191ZM203 -213Q198 -213 195 -210Q192 -207 192 -203V-171H320V-203Q320 -207 317 -210Q314 -213 309 -213ZM128 -43V-235H85V0H267Q259 -19 257 -43ZM448 -256H64V-384H448ZM405 -341H107V-299H405ZM469 -53V-139L444 -114Q419 -139 384 -139Q349 -139 324 -114Q299 -89 299 -53.5Q299 -18 324 7Q349 32 384 32Q411 32 432.5 17.5Q454 3 463 -21H427Q419 -11 408 -5.5Q397 0 384 0Q362 0 346.5 -15.5Q331 -31 331 -53Q331 -75 346.5 -91Q362 -107 384 -107Q406 -107 422 -91L384 -53Z"/>
</svg>