<svg xmlns="http://www.w3.org/2000/svg" viewBox="0 -512 512 512">
	<path fill="#000000" d="M427 -405H43V-277H427ZM384 -320H85V-363H384ZM341 -256Q300 -256 265 -235H181Q177 -235 174 -231.5Q171 -228 171 -224V-192H219Q192 -154 192 -107Q192 -86 198 -64H107V-256H64V-21H219Q240 8 272 25.5Q304 43 341 43Q382 43 416.5 23Q451 3 471 -31.5Q491 -66 491 -106.5Q491 -147 471 -181.5Q451 -216 416.5 -236Q382 -256 341 -256ZM341 0Q312 0 287.5 -14.5Q263 -29 249 -53.5Q235 -78 235 -107Q235 -136 249 -160.5Q263 -185 287.5 -199Q312 -213 341 -213Q370 -213 394.5 -199Q419 -185 433.5 -160.5Q448 -136 448 -107Q448 -78 433.5 -53.5Q419 -29 394.5 -14.5Q370 0 341 0ZM352 -101L413 -65L397 -39L320 -85V-192H352Z"/>
</svg>