<svg xmlns="http://www.w3.org/2000/svg" viewBox="0 -512 512 512">
	<path fill="#000000" d="M309 -213Q314 -213 317 -210Q320 -207 320 -203V-171H192V-203Q192 -207 195 -210Q198 -213 203 -213ZM395 -192Q409 -192 427 -188V-235H384V-191Q388 -192 395 -192ZM128 -43V-235H85V0H267Q259 -19 257 -43ZM448 -256H64V-384H448ZM405 -341H107V-299H405ZM491 -53Q491 -13 463 15Q435 43 395 43Q355 43 327 15Q299 -13 299 -53Q299 -93 327 -121Q355 -149 395 -149Q435 -149 463 -121Q491 -93 491 -53ZM427 2L340 -85Q331 -71 331 -53Q331 -27 349.5 -8Q368 11 395 11Q413 11 427 2ZM459 -53Q459 -80 440 -98.5Q421 -117 395 -117Q377 -117 363 -108L450 -21Q459 -35 459 -53Z"/>
</svg>