<svg xmlns="http://www.w3.org/2000/svg" viewBox="0 -512 512 512">
	<path fill="#000000" d="M395 -192Q409 -192 427 -188V-277H85V0H267Q256 -26 256 -53Q256 -91 274.5 -123Q293 -155 325 -173.5Q357 -192 395 -192ZM192 -171V-203Q192 -207 195 -210Q198 -213 203 -213H309Q314 -213 317 -210Q320 -207 320 -203V-171ZM448 -299H64V-384H448ZM395 -149Q355 -149 327 -121Q299 -93 299 -53Q299 -13 327 15Q355 43 395 43Q435 43 463 15Q491 -13 491 -53Q491 -93 463 -121Q435 -149 395 -149ZM395 11Q368 11 349.5 -8Q331 -27 331 -53Q331 -71 340 -85L427 2Q413 11 395 11ZM450 -21L363 -108Q377 -117 395 -117Q421 -117 440 -98.5Q459 -80 459 -53Q459 -35 450 -21Z"/>
</svg>