<svg xmlns="http://www.w3.org/2000/svg" viewBox="0 -512 512 512">
	<path fill="#000000" d="M309 -213Q315 -213 318 -209Q307 -191 304 -171H192V-203Q192 -207 195 -210Q198 -213 203 -213ZM277 -43H128V-235H85V0H278Q277 -2 277 -6ZM448 -256H64V-384H448ZM405 -341H107V-299H405ZM465 -107H373V-160Q373 -172 382.5 -180Q392 -188 405.5 -188Q419 -188 428 -180Q437 -172 437 -160V-149H465V-160Q465 -182 446.5 -197.5Q428 -213 405 -213Q382 -213 364 -197.5Q346 -182 346 -160V-107Q336 -107 328 -99Q320 -91 320 -81V-6Q320 5 328 13Q336 21 346 21H463Q474 21 482.5 13.5Q491 6 491 -4V-79Q491 -90 483 -98.5Q475 -107 465 -107Z"/>
</svg>