<svg xmlns="http://www.w3.org/2000/svg" viewBox="0 -512 512 512">
	<path fill="#000000" d="M427 -320H43V-405H427ZM235 -192H171V-224Q171 -228 174 -231.5Q177 -235 181 -235H278Q307 -253 340.5 -255.5Q374 -258 405 -245V-299H64V-21H252Q219 -56 214.5 -104Q210 -152 235 -192ZM499 0L469 30L403 -36Q379 -21 352 -21Q312 -21 284 -49Q256 -77 256 -117Q256 -157 284 -185Q312 -213 352 -213Q392 -213 420 -185Q448 -157 448 -117Q448 -89 433 -66ZM405 -117Q405 -139 389.5 -155Q374 -171 352 -171Q330 -171 314.5 -155Q299 -139 299 -117Q299 -95 314.5 -79.5Q330 -64 352 -64Q374 -64 389.5 -79.5Q405 -95 405 -117Z"/>
</svg>