<svg xmlns="http://www.w3.org/2000/svg" viewBox="0 -512 512 512">
	<path fill="#000000" d="M448 -299H64V-384H448ZM203 -213H309Q314 -213 317 -210Q320 -207 320 -203V-191Q334 -211 356.5 -223Q379 -235 405 -235Q416 -235 427 -232V-277H85V0H278Q277 -2 277 -6V-81Q277 -96 284 -110Q291 -124 303 -134V-139Q303 -154 309 -171H192V-203Q192 -207 195 -210Q198 -213 203 -213ZM491 -79V-4Q491 6 482.5 13.5Q474 21 463 21H346Q336 21 328 13Q320 5 320 -6V-81Q320 -91 328 -99Q336 -107 346 -107V-139Q346 -161 364 -176.5Q382 -192 405 -192Q428 -192 446.5 -176.5Q465 -161 465 -139V-107Q475 -107 483 -98.5Q491 -90 491 -79ZM437 -139Q437 -151 428 -158.5Q419 -166 405.5 -166Q392 -166 382.5 -158.5Q373 -151 373 -139V-107H437Z"/>
</svg>