<svg xmlns="http://www.w3.org/2000/svg" viewBox="0 -512 512 512">
	<path fill="#000000" d="M384 -209V-235H427V-213Q423 -213 416 -213Q401 -213 384 -209ZM320 -203Q320 -207 317 -210Q314 -213 309 -213H203Q198 -213 195 -210Q192 -207 192 -203V-171H316L320 -175ZM128 -43V-235H85V0H299Q287 -20 281 -43ZM448 -256H64V-384H448ZM405 -341H107V-299H405ZM405 -160V-192L357 -144L405 -96V-128Q427 -128 443 -112.5Q459 -97 459 -75Q459 -62 453 -51L476 -28Q491 -49 491 -75Q491 -110 466 -135Q441 -160 405 -160ZM405 -21Q383 -21 367.5 -37Q352 -53 352 -75Q352 -87 358 -99L334 -122Q320 -100 320 -75Q320 -39 345 -14Q370 11 405 11V43L453 -5L405 -53Z"/>
</svg>