<svg xmlns="http://www.w3.org/2000/svg" viewBox="0 -512 512 512">
	<path fill="#000000" d="M278 -235Q265 -227 254 -215.5Q243 -204 235 -192H171V-224Q171 -228 174 -231.5Q177 -235 181 -235ZM427 -277H43V-405H427ZM384 -363H85V-320H384ZM107 -64V-256H64V-21H252Q234 -40 224 -64ZM499 0L469 30L403 -36Q379 -21 352 -21Q312 -21 284 -49Q256 -77 256 -117Q256 -157 284 -185Q312 -213 352 -213Q392 -213 420 -185Q448 -157 448 -117Q448 -89 433 -66ZM405 -117Q405 -139 389.5 -155Q374 -171 352 -171Q330 -171 314.5 -155Q299 -139 299 -117Q299 -95 314.5 -79.5Q330 -64 352 -64Q374 -64 389.5 -79.5Q405 -95 405 -117Z"/>
</svg>