<svg xmlns="http://www.w3.org/2000/svg" viewBox="0 -512 512 512">
	<path fill="#000000" d="M395 -192Q409 -192 427 -188V-277H85V0H267Q256 -26 256 -53Q256 -91 274.5 -123Q293 -155 325 -173.5Q357 -192 395 -192ZM192 -171V-203Q192 -207 195 -210Q198 -213 203 -213H309Q314 -213 317 -210Q320 -207 320 -203V-171ZM448 -299H64V-384H448ZM384 -53L422 -91Q406 -107 384 -107Q362 -107 346.5 -91Q331 -75 331 -53Q331 -31 346.5 -15.5Q362 0 384 0Q397 0 408 -5.5Q419 -11 427 -21H463Q454 3 432.5 17.5Q411 32 384 32Q349 32 324 7Q299 -18 299 -53.5Q299 -89 324 -114Q349 -139 384 -139Q419 -139 444 -114L469 -139V-53Z"/>
</svg>