<svg xmlns="http://www.w3.org/2000/svg" viewBox="0 -512 512 512">
	<path fill="#000000" d="M309 -213Q317 -213 319 -206Q301 -191 291 -171H192V-203Q192 -207 195 -210Q198 -213 203 -213ZM448 -256H64V-384H448ZM405 -341H107V-299H405ZM128 -43V-235H85V0H324Q309 -22 299 -43ZM469 -117Q469 -83 432 -27Q413 1 395 21L375 -2Q353 -31 339 -57Q320 -93 320 -117Q320 -148 342 -170Q364 -192 394.5 -192Q425 -192 447 -170Q469 -148 469 -117ZM420 -115Q420 -125 412 -133Q404 -141 394.5 -141Q385 -141 377 -133.5Q369 -126 369 -115.5Q369 -105 376.5 -97.5Q384 -90 395 -90Q406 -90 414 -98Q422 -106 420 -115Z"/>
</svg>