<svg xmlns="http://www.w3.org/2000/svg" viewBox="0 -512 512 512">
	<path fill="#000000" d="M427 -320H43V-405H427ZM352 -192H320V-85L397 -39L413 -65L352 -101ZM491 -107Q491 -66 471 -31.5Q451 3 416.5 23Q382 43 341 43Q304 43 272 25.5Q240 8 219 -21H64V-299H405V-241Q444 -223 467.5 -187Q491 -151 491 -107ZM171 -192H219Q238 -219 265 -235H181Q177 -235 174 -231.5Q171 -228 171 -224ZM448 -107Q448 -136 433.5 -160.5Q419 -185 394.5 -199Q370 -213 341 -213Q312 -213 287.5 -199Q263 -185 249 -160.5Q235 -136 235 -107Q235 -78 249 -53.5Q263 -29 287.5 -14.5Q312 0 341 0Q370 0 394.5 -14.5Q419 -29 433.5 -53.5Q448 -78 448 -107Z"/>
</svg>