<svg xmlns="http://www.w3.org/2000/svg" viewBox="0 -512 512 512">
	<path fill="#000000" d="M448 -299H64V-384H448ZM203 -213H309Q314 -213 317 -210Q320 -207 320 -203V-175Q339 -193 363.5 -203Q388 -213 416 -213Q423 -213 427 -213V-277H85V0H299Q277 -34 277 -75Q277 -102 287.5 -127Q298 -152 316 -171H192V-203Q192 -207 195 -210Q198 -213 203 -213ZM405 -160V-192L357 -144L405 -96V-128Q427 -128 443 -112.5Q459 -97 459 -75Q459 -62 453 -51L476 -28Q491 -49 491 -75Q491 -110 466 -135Q441 -160 405 -160ZM405 -21Q383 -21 367.5 -37Q352 -53 352 -75Q352 -87 358 -99L334 -122Q320 -100 320 -75Q320 -39 345 -14Q370 11 405 11V43L453 -5L405 -53Z"/>
</svg>