<svg xmlns="http://www.w3.org/2000/svg" viewBox="0 -512 512 512">
	<path fill="#000000" d="M316 -299V-331Q316 -353 297.5 -368.5Q279 -384 256 -384Q233 -384 214.5 -368.5Q196 -353 196 -331V-299Q187 -299 179 -291Q171 -283 171 -273V-198Q171 -187 178.5 -179Q186 -171 196 -171H314Q325 -171 333 -178.5Q341 -186 341 -196V-271Q341 -282 333.5 -290.5Q326 -299 316 -299ZM288 -299H224V-331Q224 -343 233.5 -350.5Q243 -358 256 -358Q269 -358 278.5 -350.5Q288 -343 288 -331ZM128 -85V-21L43 -107L128 -192V-128H384V-192L469 -107L384 -21V-85Z"/>
</svg>