<svg xmlns="http://www.w3.org/2000/svg" viewBox="0 -512 512 512">
	<path fill="#000000" d="M256 -341H192L277 -427L363 -341H299V-247Q275 -232 256 -211ZM222 -128H181L166 -171H98L83 -128H43L111 -320H154ZM157 -199L132 -277L108 -199ZM491 -213L405 -299V-235Q367 -236 334 -219Q301 -202 280 -171.5Q259 -141 256 -103Q231 -94 219.5 -70Q208 -46 217 -21Q226 4 250 15.5Q274 27 299 18Q324 9 335.5 -15Q347 -39 338 -64Q333 -78 322.5 -88Q312 -98 299 -103Q303 -141 328 -164Q347 -181 375 -188Q391 -193 404 -193V-129Z"/>
</svg>