<svg xmlns="http://www.w3.org/2000/svg" viewBox="0 -512 512 512">
	<path fill="#000000" d="M206 -162Q173 -191 128 -192V-128L43 -213L128 -299V-235Q183 -235 227 -201Q214 -183 206 -162ZM384 -128V-192Q356 -192 331 -180Q284 -157 278 -102Q303 -94 314.5 -70Q326 -46 317.5 -21Q309 4 285 15.5Q261 27 236 18Q211 9 199.5 -14.5Q188 -38 197 -63Q201 -77 211.5 -87.5Q222 -98 236 -102Q239 -140 259.5 -171Q280 -202 313 -219Q346 -236 384 -235V-299L469 -213ZM277 -43Q277 -52 271 -58Q265 -64 256 -64Q247 -64 241 -58Q235 -52 235 -43Q235 -34 241 -27.5Q247 -21 256 -21Q265 -21 271 -27.5Q277 -34 277 -43ZM235 -211Q254 -232 277 -247V-341H341L256 -427L171 -341H235Z"/>
</svg>