<svg xmlns="http://www.w3.org/2000/svg" viewBox="0 -512 512 512">
	<path fill="#000000" d="M401 -213V-245Q401 -267 382.5 -283Q364 -299 341 -299Q318 -299 300 -283Q282 -267 282 -245V-213Q272 -213 264 -205Q256 -197 256 -188V-113Q256 -102 264 -93.5Q272 -85 282 -85H399Q410 -85 418.5 -93Q427 -101 427 -111V-186Q427 -197 419 -205Q411 -213 401 -213ZM373 -213H309V-245Q309 -258 318.5 -265.5Q328 -273 341.5 -273Q355 -273 364 -265.5Q373 -258 373 -245ZM192 -320H256L171 -405L85 -320H149V-64H85L171 21L256 -64H192Z"/>
</svg>