<svg xmlns="http://www.w3.org/2000/svg" viewBox="0 -512 512 512">
	<path fill="#000000" d="M405 -128V-192Q378 -192 352 -180Q306 -157 300 -102Q325 -94 336.5 -70Q348 -46 339 -21Q330 4 306 15.5Q282 27 257 18Q232 9 220.5 -14.5Q209 -38 218 -63Q222 -77 232.5 -87.5Q243 -98 257 -102Q260 -140 281 -171Q302 -202 335 -219Q368 -236 405 -235V-299L491 -213ZM299 -43Q299 -52 292.5 -58Q286 -64 277 -64Q268 -64 262 -58Q256 -52 256 -43Q256 -34 262 -27.5Q268 -21 277 -21Q286 -21 292.5 -27.5Q299 -34 299 -43ZM256 -211Q275 -232 299 -247V-341H363L277 -427L192 -341H256ZM154 -320H111L43 -128H83L98 -171H166L181 -128H222ZM108 -199L132 -277L157 -199Z"/>
</svg>