<svg xmlns="http://www.w3.org/2000/svg" viewBox="0 -512 512 512">
	<path fill="#000000" d="M235 -341H171L256 -427L341 -341H277V-247Q254 -232 235 -211ZM469 -213L384 -299V-235Q346 -236 313 -219Q280 -202 259 -171.5Q238 -141 235 -103Q210 -94 198.5 -70Q187 -46 195.5 -21Q204 4 228 15.5Q252 27 277 18Q302 9 313.5 -15Q325 -39 316 -64Q312 -78 301.5 -88Q291 -98 277 -103Q282 -141 307 -164Q325 -181 353 -188Q370 -193 383 -193V-129ZM227 -201Q183 -235 128 -235V-299L43 -213L128 -128V-192Q173 -191 206 -162Q214 -183 227 -201Z"/>
</svg>