<svg xmlns="http://www.w3.org/2000/svg" viewBox="0 -512 512 512">
	<path fill="#000000" d="M256 -128Q281 -128 300.5 -147.5Q320 -167 320 -192Q320 -217 300.5 -236.5Q281 -256 256 -256Q231 -256 211.5 -236.5Q192 -217 192 -192Q192 -167 211.5 -147.5Q231 -128 256 -128ZM256 -405Q343 -405 406 -342Q469 -279 469 -192V-161Q469 -130 447.5 -107.5Q426 -85 395 -85Q356 -85 332 -117Q300 -85 256.5 -85Q213 -85 181 -117Q149 -149 149 -192Q149 -235 181 -267Q213 -299 256 -299Q299 -299 331 -267Q363 -235 363 -192V-161Q363 -148 372.5 -138Q382 -128 395 -128Q408 -128 417.5 -138Q427 -148 427 -161V-192Q427 -262 376.5 -312.5Q326 -363 256 -363Q186 -363 135.5 -312.5Q85 -262 85 -192Q85 -122 135.5 -71.5Q186 -21 256 -21H363V21H256Q169 21 106 -42Q43 -105 43 -192Q43 -279 106 -342Q169 -405 256 -405Z"/>
</svg>