<svg xmlns="http://www.w3.org/2000/svg" viewBox="0 -512 512 512">
	<path fill="#000000" d="M392 -392Q418 -392 437 -373Q456 -354 456 -327.5Q456 -301 437 -282.5Q418 -264 391.5 -264Q365 -264 346.5 -282.5Q328 -301 328 -328Q328 -337 331 -346Q295 -363 256 -363Q210 -363 170.5 -340Q131 -317 108 -277.5Q85 -238 85 -192L86 -174L44 -170L43 -192Q43 -234 59 -273.5Q75 -313 105 -343Q135 -373 174.5 -389Q214 -405 256 -405Q309 -405 356 -381Q372 -392 392 -392ZM392 -349Q383 -349 376.5 -343Q370 -337 370 -328Q370 -319 376.5 -312.5Q383 -306 392 -306Q401 -306 407 -312.5Q413 -319 413 -328Q413 -337 407 -343Q401 -349 392 -349ZM120 -120Q147 -120 165.5 -101.5Q184 -83 184 -56Q184 -47 181 -38Q217 -21 256 -21Q302 -21 341.5 -44Q381 -67 404 -106.5Q427 -146 427 -192L426 -210L468 -214L469 -192Q469 -150 453 -110.5Q437 -71 407 -41Q377 -11 337.5 5Q298 21 256 21Q203 21 156 -3Q140 8 120 8Q94 8 75 -11Q56 -30 56 -56.5Q56 -83 75 -101.5Q94 -120 120 -120ZM120 -78Q111 -78 105 -71.5Q99 -65 99 -56Q99 -47 105 -41Q111 -35 120 -35Q129 -35 135.5 -41Q142 -47 142 -56Q142 -65 135.5 -71.5Q129 -78 120 -78ZM256 -277Q291 -277 316 -252Q341 -227 341 -192Q341 -157 316 -132Q291 -107 256 -107Q221 -107 196 -132Q171 -157 171 -192Q171 -227 196 -252Q221 -277 256 -277Z"/>
</svg>