<svg xmlns="http://www.w3.org/2000/svg" viewBox="0 -512 512 512">
	<path fill="#000000" d="M256 -213Q265 -213 271 -207Q277 -201 277 -192Q277 -183 271 -177Q265 -171 256 -171Q247 -171 241 -177Q235 -183 235 -192Q235 -201 241 -207Q247 -213 256 -213ZM90 -358Q113 -381 158 -372.5Q203 -364 256 -329Q309 -364 354 -372.5Q399 -381 422 -358Q445 -335 436.5 -290Q428 -245 393 -192Q428 -139 436.5 -94Q445 -49 422 -26Q399 -3 354 -11.5Q309 -20 256 -55Q203 -20 158 -11.5Q113 -3 90 -26Q67 -49 75.5 -94Q84 -139 119 -192Q84 -245 75.5 -290Q67 -335 90 -358ZM332 -268Q350 -249 368 -227Q390 -262 396.5 -289Q403 -316 391.5 -327.5Q380 -339 353 -332.5Q326 -326 291 -304Q313 -286 332 -268ZM180 -116Q162 -135 144 -157Q122 -122 115.5 -95Q109 -68 120.5 -56.5Q132 -45 159 -51.5Q186 -58 221 -80Q199 -98 180 -116ZM120 -328Q109 -316 115.5 -289Q122 -262 144 -227Q162 -249 180.5 -267.5Q199 -286 221 -304Q186 -326 159 -332.5Q132 -339 120 -328ZM211 -147Q232 -126 256 -106Q280 -126 301 -147Q322 -168 342 -192Q322 -216 301 -237Q280 -258 256 -278Q232 -258 211 -237Q190 -216 170 -192Q190 -168 211 -147ZM392 -56Q403 -68 396.5 -95Q390 -122 368 -157Q350 -135 331.5 -116.5Q313 -98 291 -80Q326 -58 353 -51.5Q380 -45 392 -56Z"/>
</svg>