<svg xmlns="http://www.w3.org/2000/svg" viewBox="0 -512 512 512">
	<path fill="#000000" d="M384 -171Q361 -171 342.5 -155Q324 -139 324 -117V-85Q315 -85 307 -77Q299 -69 299 -60V15Q299 26 306.5 34.5Q314 43 324 43H442Q453 43 461 35Q469 27 469 17V-58Q469 -69 461.5 -77Q454 -85 444 -85V-117Q444 -139 425.5 -155Q407 -171 384 -171ZM384 -145Q397 -145 406.5 -137.5Q416 -130 416 -117V-85H352V-117Q352 -130 361.5 -137.5Q371 -145 384 -145ZM160 -341Q129 -341 102 -325Q75 -309 59 -282Q43 -255 43 -224Q43 -193 59 -166Q75 -139 102 -123Q129 -107 160 -107H282V-117Q282 -132 284 -139H160Q125 -139 100 -164Q75 -189 75 -224Q75 -259 100 -284Q125 -309 160 -309H384Q406 -309 421.5 -293.5Q437 -278 437 -256Q437 -242 430 -229.5Q423 -217 410 -209Q422 -207 444 -194Q469 -220 469 -255.5Q469 -291 444 -316Q419 -341 384 -341ZM203 -277Q180 -277 164.5 -261.5Q149 -246 149 -224Q149 -202 164.5 -186.5Q180 -171 203 -171H299Q315 -193 337 -203H203Q193 -203 187 -208.5Q181 -214 181 -224Q181 -234 187 -239.5Q193 -245 203 -245H363V-277Z"/>
</svg>