<svg xmlns="http://www.w3.org/2000/svg" viewBox="0 -512 512 512">
	<path fill="#000000" d="M160 -64Q137 -64 115.5 -73Q94 -82 77.5 -98.5Q61 -115 52 -136.5Q43 -158 43 -181Q43 -213 58.5 -240Q74 -267 101 -283Q128 -299 160 -299H384Q419 -299 444 -274Q469 -249 469 -213.5Q469 -178 444 -153Q419 -128 384 -128H203Q181 -128 165 -143.5Q149 -159 149 -181Q149 -203 165 -219Q181 -235 203 -235H363V-203H203Q194 -203 187.5 -196.5Q181 -190 181 -181Q181 -172 187.5 -166Q194 -160 203 -160H384Q406 -160 421.5 -175.5Q437 -191 437 -213Q437 -235 421.5 -251Q406 -267 384 -267H160Q125 -267 100 -242Q75 -217 75 -181.5Q75 -146 100 -121Q125 -96 160 -96H363V-64Z"/>
</svg>