<svg xmlns="http://www.w3.org/2000/svg" viewBox="0 -512 512 512">
	<path fill="#000000" d="M354 -160Q329 -149 310 -128H203Q181 -128 165 -143.5Q149 -159 149 -181Q149 -203 165 -219Q181 -235 203 -235H363V-203H203Q194 -203 187.5 -196.5Q181 -190 181 -181.5Q181 -173 187.5 -166.5Q194 -160 203 -160ZM75 -181Q75 -217 100 -242Q125 -267 160 -267H384Q406 -267 421.5 -251Q437 -235 437 -213Q437 -200 431 -188.5Q425 -177 415 -170Q434 -169 452 -162Q469 -185 469 -213Q469 -249 444 -274Q419 -299 384 -299H160Q128 -299 101 -283Q74 -267 58.5 -240Q43 -213 43 -181Q43 -149 58.5 -122.5Q74 -96 101 -80Q128 -64 160 -64H279Q282 -80 289 -96H160Q125 -96 100 -121Q75 -146 75 -181ZM455 -110L379 -33L345 -67L320 -43L379 21L480 -80Z"/>
</svg>