<svg xmlns="http://www.w3.org/2000/svg" viewBox="0 -512 512 512">
	<path fill="#000000" d="M363 -235V-203H314L282 -235ZM384 -267Q406 -267 421.5 -251Q437 -235 437 -213Q437 -191 421.5 -175.5Q406 -160 384 -160H356L388 -128Q422 -130 445.5 -154.5Q469 -179 469 -214Q469 -249 444 -274Q419 -299 384 -299H218L250 -267ZM472 10L445 37L344 -64H160Q128 -64 101 -80Q74 -96 58.5 -122.5Q43 -149 43 -181Q43 -218 63.5 -247.5Q84 -277 117 -291L24 -384L51 -411ZM181 -181Q181 -173 187.5 -166.5Q194 -160 203 -160H248L205 -203H203Q194 -203 187.5 -196.5Q181 -190 181 -181ZM312 -96L280 -128H203Q181 -128 165 -143.5Q149 -159 149 -181Q149 -197 157 -209.5Q165 -222 179 -229L143 -265Q113 -259 94 -235.5Q75 -212 75 -181Q75 -146 100 -121Q125 -96 160 -96Z"/>
</svg>