<svg xmlns="http://www.w3.org/2000/svg" viewBox="0 -512 512 512">
	<path fill="#000000" d="M160 -96H289Q282 -80 279 -64H160Q128 -64 101 -80Q74 -96 58.5 -122.5Q43 -149 43 -181Q43 -213 58.5 -240Q74 -267 101 -283Q128 -299 160 -299H384Q419 -299 444 -274Q469 -249 469 -213Q469 -185 452 -162Q434 -169 415 -170Q425 -177 431 -188.5Q437 -200 437 -213Q437 -235 421.5 -251Q406 -267 384 -267H160Q125 -267 100 -242Q75 -217 75 -181.5Q75 -146 100 -121Q125 -96 160 -96ZM203 -160Q194 -160 187.5 -166.5Q181 -173 181 -181.5Q181 -190 187.5 -196.5Q194 -203 203 -203H363V-235H203Q181 -235 165 -219Q149 -203 149 -181Q149 -159 165 -143.5Q181 -128 203 -128H310Q329 -149 354 -160ZM427 -64V-128H384V-64H320V-21H384V43H427V-21H491V-64Z"/>
</svg>