<svg xmlns="http://www.w3.org/2000/svg" viewBox="0 -512 512 512">
	<path fill="#000000" d="M427 -213Q418 -213 416 -211L371 -256H427V-320L348 -279L286 -341H192V-299H269L311 -256H235L149 -213L107 -256H0V-213H85Q50 -213 25 -188Q0 -163 0 -128Q0 -93 25 -68Q50 -43 85.5 -43Q121 -43 146 -68Q171 -93 171 -128L213 -85H277L352 -215L373 -194Q359 -183 350 -165Q341 -147 341 -128Q341 -93 366 -68Q391 -43 426.5 -43Q462 -43 487 -68Q512 -93 512 -128Q512 -163 487 -188Q462 -213 427 -213ZM85 -85Q68 -85 55.5 -97.5Q43 -110 43 -128Q43 -146 55.5 -158.5Q68 -171 85.5 -171Q103 -171 115.5 -158.5Q128 -146 128 -128Q128 -110 115.5 -97.5Q103 -85 85 -85ZM427 -85Q409 -85 396.5 -97.5Q384 -110 384 -128Q384 -146 396.5 -158.5Q409 -171 426.5 -171Q444 -171 456.5 -158.5Q469 -146 469 -128Q469 -110 456.5 -97.5Q444 -85 427 -85Z"/>
</svg>