<svg xmlns="http://www.w3.org/2000/svg" viewBox="0 -512 512 512">
	<path fill="#000000" d="M427 -299H85Q68 -299 55.5 -286.5Q43 -274 43 -256V-128Q43 -110 55.5 -97.5Q68 -85 85 -85H107V-64Q107 -54 112.5 -48.5Q118 -43 128 -43H171Q180 -43 186 -48.5Q192 -54 192 -64V-85H320V-64Q320 -54 326 -48.5Q332 -43 341 -43H384Q394 -43 399.5 -48.5Q405 -54 405 -64V-85H427Q444 -85 456.5 -97.5Q469 -110 469 -128V-256Q469 -274 456.5 -286.5Q444 -299 427 -299ZM299 -192H85V-235H299ZM384 -171Q366 -171 353.5 -183.5Q341 -196 341 -213.5Q341 -231 353.5 -243.5Q366 -256 384 -256Q402 -256 414.5 -243.5Q427 -231 427 -213.5Q427 -196 414.5 -183.5Q402 -171 384 -171ZM128 -128H85V-149H128ZM213 -128H171V-149H213ZM299 -128H256V-149H299Z"/>
</svg>