<svg xmlns="http://www.w3.org/2000/svg" viewBox="0 -512 512 512">
	<path fill="#000000" d="M256 -363Q302 -363 341.5 -340Q381 -317 404 -277.5Q427 -238 427 -192Q427 -146 404 -106.5Q381 -67 341.5 -44Q302 -21 256 -21Q210 -21 170.5 -44Q131 -67 108 -106.5Q85 -146 85 -192Q85 -238 108 -277.5Q131 -317 170.5 -340Q210 -363 256 -363ZM256 -405Q198 -405 149 -376.5Q100 -348 71.5 -299Q43 -250 43 -192Q43 -134 71.5 -85Q100 -36 149 -7.5Q198 21 256 21Q314 21 363 -7.5Q412 -36 440.5 -85Q469 -134 469 -192Q469 -250 440.5 -299Q412 -348 363 -376.5Q314 -405 256 -405ZM288 -96Q288 -109 278.5 -118.5Q269 -128 256 -128Q243 -128 233.5 -118.5Q224 -109 224 -96Q224 -83 233.5 -73.5Q243 -64 256 -64Q269 -64 278.5 -73.5Q288 -83 288 -96ZM192 -192Q192 -205 182.5 -214.5Q173 -224 160 -224Q147 -224 137.5 -214.5Q128 -205 128 -192Q128 -179 137.5 -169.5Q147 -160 160 -160Q173 -160 182.5 -169.5Q192 -179 192 -192ZM384 -192Q384 -205 374.5 -214.5Q365 -224 352 -224Q339 -224 329.5 -214.5Q320 -205 320 -192Q320 -179 329.5 -169.5Q339 -160 352 -160Q365 -160 374.5 -169.5Q384 -179 384 -192Z"/>
</svg>