<svg xmlns="http://www.w3.org/2000/svg" viewBox="0 -512 512 512">
	<path fill="#000000" d="M235 -320V-192H107V-320H149V-405Q149 -414 155.5 -420.5Q162 -427 170.5 -427Q179 -427 185.5 -420.5Q192 -414 192 -405V-320ZM107 -149V-107Q107 -86 118.5 -69.5Q130 -53 149 -47V43H192V-47Q211 -53 223 -69.5Q235 -86 235 -107V-149ZM363 -320V-405Q363 -414 356.5 -420.5Q350 -427 341.5 -427Q333 -427 326.5 -420.5Q320 -414 320 -405V-320H277V-192H405V-320ZM277 -149V-107Q277 -86 289 -69.5Q301 -53 320 -47V43H363V-47Q382 -53 393.5 -69.5Q405 -86 405 -107V-149Z"/>
</svg>