<svg xmlns="http://www.w3.org/2000/svg" viewBox="0 -512 512 512">
	<path fill="#000000" d="M107 -384Q89 -384 76.5 -371.5Q64 -359 64 -341V-43Q64 -25 76.5 -12.5Q89 0 107 0H405Q423 0 435.5 -12.5Q448 -25 448 -43V-341Q448 -359 435.5 -371.5Q423 -384 405 -384ZM149 -256H213Q223 -256 229 -249.5Q235 -243 235 -235V-128H203V-160H160V-128H128V-235Q128 -243 134 -249.5Q140 -256 149 -256ZM277 -256H352Q366 -256 375 -247Q384 -238 384 -224V-203Q384 -193 378.5 -185Q373 -177 365 -173L384 -128H352L334 -171H309V-128H277ZM160 -224V-192H203V-224ZM309 -224V-203H352V-224Z"/>
</svg>