<svg xmlns="http://www.w3.org/2000/svg" viewBox="0 -512 512 512">
	<path fill="#000000" d="M43 -384Q51 -384 57.5 -377.5Q64 -371 64 -363V-171H107V-341Q107 -350 113 -356.5Q119 -363 128 -363Q137 -363 143 -356.5Q149 -350 149 -341V-171H192V-320Q192 -329 198.5 -335Q205 -341 213.5 -341Q222 -341 228.5 -335Q235 -329 235 -320V-171H267Q274 -171 277 -170V-299Q277 -307 283.5 -313.5Q290 -320 298.5 -320Q307 -320 313.5 -313.5Q320 -307 320 -299V-117Q320 -95 304.5 -79.5Q289 -64 267 -64H245Q241 -64 238 -61Q235 -58 235 -53.5Q235 -49 238 -46Q241 -43 245 -43H363V-277Q363 -286 369 -292.5Q375 -299 384 -299Q393 -299 399 -292.5Q405 -286 405 -277V-43H448V-256Q448 -265 454.5 -271Q461 -277 469.5 -277Q478 -277 484.5 -271Q491 -265 491 -256V-21Q491 -13 484.5 -6.5Q478 0 469 0H245Q223 0 207.5 -15.5Q192 -31 192 -53Q192 -75 207.5 -91Q223 -107 245 -107H267Q271 -107 274 -110Q277 -113 277 -117.5Q277 -122 274 -125Q271 -128 267 -128H43Q34 -128 27.5 -134.5Q21 -141 21 -149V-363Q21 -371 27.5 -377.5Q34 -384 43 -384Z"/>
</svg>