<svg xmlns="http://www.w3.org/2000/svg" viewBox="0 -512 512 512">
	<path fill="#000000" d="M422 -327Q463 -277 469 -213H425Q419 -260 390 -297ZM277 -404Q342 -398 391 -357L361 -327Q324 -355 277 -362ZM235 -404Q171 -398 121 -357L151 -327Q189 -356 235 -361ZM91 -327L120 -297Q91 -259 85 -213H43Q50 -277 91 -327ZM43 -149V-43L77 -77Q106 -32 153 -5.5Q200 21 256 21Q306 21 350.5 -1Q395 -23 425 -62Q455 -101 465 -149H421Q407 -94 361 -57.5Q315 -21 256 -21Q209 -21 169 -44.5Q129 -68 107 -107L149 -149ZM256 -85L289 -158L363 -192L289 -225L256 -299L223 -225L149 -192L223 -158Z"/>
</svg>