<svg xmlns="http://www.w3.org/2000/svg" viewBox="0 -512 512 512">
	<path fill="#000000" d="M235 -85Q235 -76 241 -70Q247 -64 256 -64Q265 -64 271 -70Q277 -76 277 -85Q277 -94 271 -100.5Q265 -107 256 -107Q247 -107 241 -100.5Q235 -94 235 -85ZM235 -384V-299H277V-340Q313 -334 342.5 -313.5Q372 -293 388.5 -261Q405 -229 405 -192Q405 -151 385 -117Q365 -83 331 -63Q297 -43 256 -43Q215 -43 181 -63Q147 -83 127 -117Q107 -151 107 -192Q107 -245 140 -286L256 -171L286 -201L141 -346V-345Q105 -319 84.5 -278.5Q64 -238 64 -192Q64 -140 90 -96Q116 -52 160 -26Q204 0 256 0Q308 0 352 -26Q396 -52 422 -96Q448 -140 448 -192Q448 -244 422 -288Q396 -332 352 -358Q308 -384 256 -384ZM384 -192Q384 -201 378 -207Q372 -213 363 -213Q354 -213 347.5 -207Q341 -201 341 -192Q341 -183 347.5 -177Q354 -171 363 -171Q372 -171 378 -177Q384 -183 384 -192ZM128 -192Q128 -183 134 -177Q140 -171 149 -171Q158 -171 164.5 -177Q171 -183 171 -192Q171 -201 164.5 -207Q158 -213 149 -213Q140 -213 134 -207Q128 -201 128 -192Z"/>
</svg>