<svg xmlns="http://www.w3.org/2000/svg" viewBox="0 -512 512 512">
	<path fill="#000000" d="M108 -299Q94 -299 82 -290Q70 -281 67 -267L45 -173Q37 -138 57 -112L65 -105Q85 -85 111.5 -85Q138 -85 159 -106Q180 -85 208 -85Q236 -85 256 -105Q277 -85 304.5 -85Q332 -85 353 -106Q373 -85 401 -85Q429 -85 448 -105L454 -112Q475 -138 467 -173L445 -267Q441 -281 429.5 -290Q418 -299 404 -299ZM403 -257L426 -163Q429 -149 420.5 -138.5Q412 -128 401 -128Q390 -128 383 -135.5Q376 -143 375 -153L362 -256ZM108 -256H150L137 -153Q133 -128 112 -128Q99 -128 92 -138Q83 -149 86 -163ZM193 -256H235V-156Q235 -144 227 -136Q219 -128 207.5 -128Q196 -128 188.5 -137Q181 -146 181 -157V-160ZM277 -256H319L331 -160Q333 -146 325 -137Q317 -128 303 -128Q293 -128 285 -136Q277 -144 277 -156Z"/>
</svg>