<svg xmlns="http://www.w3.org/2000/svg" viewBox="0 -512 512 512">
	<path fill="#000000" d="M213 -192L299 -107L213 -21V-87Q165 -92 126 -107Q87 -122 65 -144.5Q43 -167 43 -192Q43 -217 65 -239.5Q87 -262 126 -277Q165 -292 213 -297V-254Q157 -249 121 -231.5Q85 -214 85 -192Q85 -170 121 -152.5Q157 -135 213 -130ZM427 -192Q427 -214 391 -231.5Q355 -249 299 -254V-297Q347 -292 386 -277Q425 -262 447 -239.5Q469 -217 469 -192Q469 -158 430 -130.5Q391 -103 329 -92L344 -107L318 -132Q366 -139 396.5 -155.5Q427 -172 427 -192ZM235 -405H277V-171L235 -213ZM235 21V0L277 -43V21Z"/>
</svg>