<svg xmlns="http://www.w3.org/2000/svg" viewBox="0 -512 512 512">
	<path fill="#000000" d="M465 -341Q475 -341 483 -333Q491 -325 491 -314V-239Q491 -229 482.5 -221Q474 -213 463 -213H346Q336 -213 328 -221.5Q320 -230 320 -241V-316Q320 -325 328 -333Q336 -341 346 -341V-373Q346 -395 364 -411Q382 -427 405 -427Q428 -427 446.5 -411Q465 -395 465 -373ZM437 -341V-373Q437 -386 428 -393.5Q419 -401 406.5 -401Q394 -401 385.5 -395Q377 -389 374 -380Q373 -378 373 -373V-341ZM37 -37L68 -154L100 -100L192 -153V-384H235V-153L435 -37L414 0L213 -116L121 -63L154 -6Z"/>
</svg>