<svg xmlns="http://www.w3.org/2000/svg" viewBox="0 -512 512 512">
	<path fill="#000000" d="M256 -149H318Q313 -93 295.5 -57Q278 -21 256 -21Q239 -21 225 -42Q211 -63 202 -99.5Q193 -136 192 -180L149 -204V-192Q149 -134 163.5 -85Q178 -36 202.5 -7.5Q227 21 256 21Q281 21 303.5 -1Q326 -23 341 -62Q356 -101 361 -149H427L341 -235ZM256 -405Q226 -405 201 -375Q176 -345 163 -295L200 -274Q208 -314 223 -338.5Q238 -363 257 -363Q276 -363 292.5 -332.5Q309 -302 316 -254L341 -280L356 -265Q345 -327 317.5 -366Q290 -405 256 -405ZM45 -339L24 -301L23 -300L237 -176L271 -210L46 -340ZM467 -45L488 -83L410 -128H379L373 -99Z"/>
</svg>