<svg xmlns="http://www.w3.org/2000/svg" viewBox="0 -512 512 512">
	<path fill="#000000" d="M299 -192L213 -107L299 -21V-87Q347 -92 386 -107Q425 -122 447 -144.5Q469 -167 469 -192Q469 -217 447 -239.5Q425 -262 386 -277Q347 -292 299 -297V-254Q355 -249 391 -231.5Q427 -214 427 -192Q427 -170 391 -152.5Q355 -135 299 -130ZM85 -192Q85 -214 121 -231.5Q157 -249 213 -254V-297Q165 -292 126 -277Q87 -262 65 -239.5Q43 -217 43 -192Q43 -158 82 -130.5Q121 -103 183 -92L168 -107L194 -132Q146 -139 115.5 -155.5Q85 -172 85 -192ZM277 -405H235V-171L277 -213ZM277 21V0L235 -43V21Z"/>
</svg>