<svg xmlns="http://www.w3.org/2000/svg" viewBox="0 -512 512 512">
	<path fill="#000000" d="M256 -235L341 -149L427 -235H361Q356 -283 341 -322Q326 -361 303.5 -383Q281 -405 256 -405Q226 -405 201 -375Q176 -345 163 -295L200 -274Q208 -314 223 -338.5Q238 -363 256 -363Q278 -363 295.5 -327Q313 -291 318 -235ZM24 -301L296 -144L298 -161L224 -235H225L45 -339ZM467 -45L488 -83L381 -144Q378 -119 373 -99ZM256 21Q292 21 320.5 -22.5Q349 -66 359 -135L341 -117L317 -141Q311 -89 294 -55Q277 -21 256 -21Q239 -21 225 -42Q211 -63 202 -99.5Q193 -136 192 -180L149 -204V-192Q149 -134 163.5 -85Q178 -36 202.5 -7.5Q227 21 256 21Z"/>
</svg>