<svg xmlns="http://www.w3.org/2000/svg" viewBox="0 -512 512 512">
	<path fill="#000000" d="M256 -235H318Q313 -291 295.5 -327Q278 -363 256 -363Q239 -363 225 -342Q211 -321 202 -284.5Q193 -248 192 -204L149 -180V-192Q149 -250 163.5 -299Q178 -348 202.5 -376.5Q227 -405 256 -405Q281 -405 303.5 -383Q326 -361 341 -322Q356 -283 361 -235H427L341 -149ZM256 21Q226 21 201 -9Q176 -39 163 -89L200 -110Q208 -70 223 -45.5Q238 -21 257 -21Q276 -21 292.5 -51.5Q309 -82 316 -130L341 -104L356 -119Q345 -57 317.5 -18Q290 21 256 21ZM45 -45L24 -83L23 -84L237 -208L271 -174L46 -44ZM467 -339L488 -301L410 -256H379L373 -285Z"/>
</svg>