<svg xmlns="http://www.w3.org/2000/svg" viewBox="0 -512 512 512">
	<path fill="#000000" d="M256 -149L341 -235L427 -149H361Q356 -101 341 -62Q326 -23 303.5 -1Q281 21 256 21Q226 21 201 -9Q176 -39 163 -89L200 -110Q208 -70 223 -45.5Q238 -21 256 -21Q278 -21 295.5 -57Q313 -93 318 -149ZM24 -83L296 -240L298 -223L224 -149H225L45 -45ZM467 -339L488 -301L381 -240Q378 -265 373 -285ZM256 -405Q292 -405 320.5 -361.5Q349 -318 359 -249L341 -267L317 -243Q311 -295 294 -329Q277 -363 256 -363Q239 -363 225 -342Q211 -321 202 -284.5Q193 -248 192 -204L149 -180V-192Q149 -250 163.5 -299Q178 -348 202.5 -376.5Q227 -405 256 -405Z"/>
</svg>