<svg xmlns="http://www.w3.org/2000/svg" viewBox="0 -512 512 512">
	<path fill="#000000" d="M395 -363Q417 -363 432.5 -347Q448 -331 448 -309Q448 -287 432.5 -271.5Q417 -256 395 -256Q373 -256 357 -271.5Q341 -287 341 -309Q341 -331 357 -347Q373 -363 395 -363ZM96 -21Q83 -21 73.5 -30.5Q64 -40 64 -53.5Q64 -67 73.5 -76Q83 -85 96 -85H245Q259 -85 268 -76Q277 -67 277 -53.5Q277 -40 268 -30.5Q259 -21 245 -21ZM343 -43L313 -128H235L144 -219L153 -227Q164 -237 177 -245Q196 -257 216 -264Q241 -272 267 -272Q309 -272 327 -260Q337 -253 343 -237L404 -64Q408 -52 402.5 -40Q397 -28 384.5 -23.5Q372 -19 360 -24.5Q348 -30 343 -43Z"/>
</svg>