<svg xmlns="http://www.w3.org/2000/svg" viewBox="0 -512 512 512">
	<path fill="#000000" d="M469 -235Q469 -281 446 -320Q423 -359 384 -382Q345 -405 299 -405V-235ZM303 -213H469Q469 -155 433 -109Q455 -90 459 -58ZM444 36L471 9L51 -412L23 -384L194 -213H158L139 -256H64V-213H111L132 -169Q153 -123 156 -119Q140 -111 129.5 -96.5Q119 -82 117 -64Q113 -34 132 -8.5Q151 17 181.5 21.5Q212 26 237 7Q262 -12 267 -43H311Q316 -26 320 -17Q334 10 364 18.5Q394 27 420 13ZM224 -53Q224 -41 214.5 -31Q205 -21 192 -21Q179 -21 169.5 -31Q160 -41 160 -53.5Q160 -66 169.5 -75.5Q179 -85 192 -85Q205 -85 214.5 -75.5Q224 -66 224 -53ZM386 -21Q372 -21 362 -30.5Q352 -40 352 -53V-55Z"/>
</svg>