<svg xmlns="http://www.w3.org/2000/svg" viewBox="0 -512 512 512">
	<path fill="#000000" d="M309 -251Q320 -251 328 -243Q336 -235 336 -224Q336 -213 328 -205Q320 -197 309 -197Q298 -197 290.5 -205Q283 -213 283 -224Q283 -235 290.5 -243Q298 -251 309 -251ZM203 -251Q214 -251 221.5 -243Q229 -235 229 -224Q229 -213 221.5 -205Q214 -197 203 -197Q192 -197 184 -205Q176 -213 176 -224Q176 -235 184 -243Q192 -251 203 -251ZM160 -149H352Q340 -121 314 -103Q288 -85 256 -85Q224 -85 198 -103Q172 -121 160 -149ZM21 -192Q21 -221 38.5 -243.5Q56 -266 82 -274Q106 -323 152.5 -353.5Q199 -384 256 -384Q313 -384 359.5 -353.5Q406 -323 430 -274Q457 -266 474 -243.5Q491 -221 491 -192Q491 -163 474 -140.5Q457 -118 430 -110Q406 -61 359.5 -30.5Q313 0 256 0Q199 0 152.5 -30.5Q106 -61 82 -110Q56 -118 38.5 -140.5Q21 -163 21 -192ZM256 -341Q206 -341 166.5 -311Q127 -281 113 -235H107Q89 -235 76.5 -222.5Q64 -210 64 -192Q64 -174 76.5 -161.5Q89 -149 107 -149H113Q127 -103 166.5 -73Q206 -43 256 -43Q306 -43 345.5 -73Q385 -103 399 -149H405Q423 -149 435.5 -161.5Q448 -174 448 -192Q448 -210 435.5 -222.5Q423 -235 405 -235H399Q385 -281 345.5 -311Q306 -341 256 -341Z"/>
</svg>