<svg xmlns="http://www.w3.org/2000/svg" viewBox="0 -512 512 512">
	<path fill="#000000" d="M241 -388L230 -378Q209 -390 184.5 -392Q160 -394 137 -387L135 -388Q119 -402 98 -401.5Q77 -401 62 -386Q47 -371 46.5 -350Q46 -329 60 -313L61 -311Q54 -288 56 -263.5Q58 -239 70 -218L60 -207Q50 -198 50 -185Q50 -172 60 -162L90 -132Q99 -122 112.5 -122Q126 -122 135 -132L143 -140L294 11Q303 21 316 21Q329 21 339 11L459 -109Q469 -119 469 -132Q469 -145 459 -154L308 -305L316 -313Q326 -322 326 -335.5Q326 -349 316 -358L286 -388Q276 -398 263 -398Q250 -398 241 -388ZM294 -336L112 -154L82 -185L263 -366ZM316 -200L248 -132L225 -154L294 -223ZM361 -154L294 -87L271 -109L339 -177Z"/>
</svg>