<svg xmlns="http://www.w3.org/2000/svg" viewBox="0 -512 512 512">
	<path fill="#000000" d="M277 -405V-235H448Q448 -281 425 -320Q402 -359 363 -382Q324 -405 277 -405ZM412 -109Q448 -155 448 -213H137L117 -256H43V-213H90L111 -169Q132 -124 135 -119Q117 -110 106.5 -92Q96 -74 96 -53Q96 -22 118 -0.5Q140 21 171 21Q199 21 220 3Q241 -15 244 -43H289Q293 -15 314 3Q335 21 363 21Q394 21 415.5 -0.5Q437 -22 437 -53Q437 -70 430.5 -84.5Q424 -99 412 -109ZM171 -21Q157 -21 148 -30.5Q139 -40 139 -53.5Q139 -67 148 -76Q157 -85 170.5 -85Q184 -85 193.5 -76Q203 -67 203 -53.5Q203 -40 193.5 -30.5Q184 -21 171 -21ZM363 -21Q349 -21 340 -30.5Q331 -40 331 -53.5Q331 -67 340 -76Q349 -85 362.5 -85Q376 -85 385.5 -76Q395 -67 395 -53.5Q395 -40 385.5 -30.5Q376 -21 363 -21Z"/>
</svg>