<svg xmlns="http://www.w3.org/2000/svg" viewBox="0 -512 512 512">
	<path fill="#000000" d="M21 -192Q21 -221 38.5 -243.5Q56 -266 82 -274Q106 -323 152.5 -353.5Q199 -384 256 -384Q313 -384 359.5 -353.5Q406 -323 430 -274Q457 -266 474 -243.5Q491 -221 491 -192Q491 -163 474 -140.5Q457 -118 430 -110Q406 -61 359.5 -30.5Q313 0 256 0Q199 0 152.5 -30.5Q106 -61 82 -110Q56 -118 38.5 -140.5Q21 -163 21 -192ZM309 -251Q298 -251 290.5 -243Q283 -235 283 -224Q283 -213 290.5 -205Q298 -197 309 -197Q320 -197 328 -205Q336 -213 336 -224Q336 -235 328 -243Q320 -251 309 -251ZM203 -251Q192 -251 184 -243Q176 -235 176 -224Q176 -213 184 -205Q192 -197 203 -197Q214 -197 221.5 -205Q229 -213 229 -224Q229 -235 221.5 -243Q214 -251 203 -251ZM160 -149Q172 -121 198 -103Q224 -85 256 -85Q288 -85 314 -103Q340 -121 352 -149ZM64 -192Q64 -179 71 -168.5Q78 -158 90 -153Q85 -172 85 -192Q85 -212 90 -231Q78 -226 71 -215.5Q64 -205 64 -192ZM448 -192Q448 -205 441 -215.5Q434 -226 422 -231Q427 -212 427 -192Q427 -172 422 -153Q434 -158 441 -168.5Q448 -179 448 -192Z"/>
</svg>