<svg xmlns="http://www.w3.org/2000/svg" viewBox="0 -512 512 512">
	<path fill="#000000" d="M241 -388L230 -378Q209 -390 184.5 -392Q160 -394 137 -387L135 -388Q120 -404 97.5 -404Q75 -404 59.5 -388.5Q44 -373 44 -350.5Q44 -328 60 -313L61 -311Q54 -288 56 -263.5Q58 -239 70 -218L60 -207Q50 -198 50 -185Q50 -172 60 -162L90 -132Q99 -123 112.5 -123Q126 -123 135 -132L143 -140L294 11Q303 21 316 21Q329 21 339 11L459 -109Q469 -119 469 -132Q469 -145 459 -155L308 -305L316 -313Q325 -322 325 -335.5Q325 -349 316 -358L286 -388Q277 -398 263.5 -398Q250 -398 241 -388ZM91 -298Q93 -308 99 -319L82 -336Q79 -339 77 -344Q75 -349 76.5 -355Q78 -361 82.5 -365.5Q87 -370 93 -371.5Q99 -373 104 -371Q109 -369 112 -366L129 -349Q140 -355 150 -357Q179 -366 206 -354L94 -242Q82 -269 91 -298ZM437 -132L316 -11L165 -162L286 -283ZM294 -336L112 -154L82 -185L263 -366ZM316 -200L248 -132L225 -154L294 -223ZM361 -154L294 -87L271 -109L339 -177Z"/>
</svg>