<svg xmlns="http://www.w3.org/2000/svg" viewBox="0 -512 512 512">
	<path fill="#000000" d="M363 -21Q363 -4 350.5 8.5Q338 21 320 21Q302 21 289.5 8.5Q277 -4 277 -21.5Q277 -39 289.5 -51.5Q302 -64 320 -64Q338 -64 350.5 -51.5Q363 -39 363 -21ZM149 -21Q149 -4 136.5 8.5Q124 21 106.5 21Q89 21 76.5 8.5Q64 -4 64 -21.5Q64 -39 76.5 -51.5Q89 -64 106.5 -64Q124 -64 136.5 -51.5Q149 -39 149 -21ZM376 -384Q357 -384 341 -373Q330 -367 315 -347L122 -121Q113 -110 118.5 -97.5Q124 -85 138 -85H299Q316 -85 328.5 -97.5Q341 -110 341 -128V-312L349 -321Q357 -332 361 -335Q368 -341 376 -341Q388 -341 396.5 -332Q405 -323 405 -309V-299H448V-309Q448 -340 427 -362Q406 -384 376 -384ZM189 -382Q128 -380 79 -343L180 -242L266 -343Q277 -356 284 -363Q247 -380 206 -382Q197 -382 189 -382Z"/>
</svg>