<svg xmlns="http://www.w3.org/2000/svg" viewBox="0 -512 512 512">
	<path fill="#000000" d="M256 -384Q204 -384 160 -358Q116 -332 90 -288Q64 -244 64 -192H0L85 -107L171 -192H107Q107 -233 127 -267Q147 -301 181 -321Q215 -341 256 -341Q297 -341 331 -321Q365 -301 385 -267Q405 -233 405 -192Q405 -151 385 -117Q365 -83 331 -63Q297 -43 256 -43Q209 -43 169 -70L139 -40Q191 0 256 0Q308 0 352 -26Q396 -52 422 -96Q448 -140 448 -192Q448 -244 422 -288Q396 -332 352 -358Q308 -384 256 -384ZM299 -192Q299 -210 286.5 -222.5Q274 -235 256 -235Q238 -235 225.5 -222.5Q213 -210 213 -192Q213 -174 225.5 -161.5Q238 -149 256 -149Q274 -149 286.5 -161.5Q299 -174 299 -192Z"/>
</svg>