<svg xmlns="http://www.w3.org/2000/svg" viewBox="0 -512 512 512">
	<path fill="#000000" d="M469 -43H405V21H363V-43H299V-85H363V-149H405V-85H469ZM171 -405Q153 -405 140.5 -392.5Q128 -380 128 -363V-341Q93 -341 68 -316Q43 -291 43 -256V-21Q43 -4 55.5 8.5Q68 21 85 21H288Q256 -14 256 -64Q256 -87 262 -107H149V-64H128V-107H85V-128H273Q289 -157 319 -174.5Q349 -192 384 -192V-256Q384 -291 359 -316Q334 -341 299 -341V-363Q299 -380 286.5 -392.5Q274 -405 256 -405ZM171 -363H256V-341H171ZM213 -256L256 -213L213 -171L171 -213Z"/>
</svg>