<svg xmlns="http://www.w3.org/2000/svg" viewBox="0 -512 512 512">
	<path fill="#000000" d="M43 -346L70 -373L448 5L421 32L384 -5Q375 0 363 0Q363 9 356.5 15Q350 21 341.5 21Q333 21 326.5 15Q320 9 320 0H192Q192 9 185.5 15Q179 21 170.5 21Q162 21 155.5 15Q149 9 149 0Q131 0 119 -12.5Q107 -25 107 -43V-282ZM363 -320Q381 -320 393 -307.5Q405 -295 405 -277V-92L341 -156V-256H309V-188L272 -225V-256H241L177 -320H192V-384Q192 -393 198.5 -399Q205 -405 213 -405H299Q307 -405 313.5 -399Q320 -393 320 -384V-320ZM171 -64H203V-186L171 -218ZM240 -64H272V-117L240 -149ZM309 -64H325L309 -80ZM288 -320V-373H224V-320Z"/>
</svg>