<svg xmlns="http://www.w3.org/2000/svg" viewBox="0 -512 512 512">
	<path fill="#000000" d="M469 -43H405V21H363V-43H299V-85H363V-149H405V-85H469ZM171 -405Q153 -405 140.5 -392.5Q128 -380 128 -363V-341Q93 -341 68 -316Q43 -291 43 -256V-21Q43 -4 55.5 8.5Q68 21 85 21H288Q273 3 262 -21H85V-107H128V-64H149V-107H262Q266 -117 273 -128H85V-256Q85 -274 97.5 -286.5Q110 -299 128 -299H299Q316 -299 328.5 -286.5Q341 -274 341 -256V-186Q361 -192 384 -192V-256Q384 -291 359 -316Q334 -341 299 -341V-363Q299 -380 286.5 -392.5Q274 -405 256 -405ZM171 -363H256V-341H171ZM213 -256L171 -213L213 -171L256 -213Z"/>
</svg>