<svg xmlns="http://www.w3.org/2000/svg" viewBox="0 -512 512 512">
	<path fill="#000000" d="M326 -92L387 -152L402 -137L326 -61L281 -107L296 -122ZM171 0Q153 0 140.5 -12.5Q128 -25 128 -43V-256Q128 -274 140.5 -286.5Q153 -299 171 -299ZM192 -299H299V-363Q281 -363 268.5 -375.5Q256 -388 256 -405H341V-235Q376 -235 405.5 -217.5Q435 -200 452 -170.5Q469 -141 469 -106.5Q469 -72 452 -42.5Q435 -13 405.5 4Q376 21 341 21Q303 21 271 0H192ZM341 -192Q306 -192 281 -167Q256 -142 256 -106.5Q256 -71 281 -46Q306 -21 341.5 -21Q377 -21 402 -46Q427 -71 427 -106.5Q427 -142 402 -167Q377 -192 341 -192Z"/>
</svg>