<svg xmlns="http://www.w3.org/2000/svg" viewBox="0 -512 512 512">
	<path fill="#000000" d="M299 -341V-363Q299 -380 286.5 -392.5Q274 -405 256 -405H171Q153 -405 140.5 -392.5Q128 -380 128 -363V-341Q93 -341 68 -316Q43 -291 43 -256V-21Q43 -4 55.5 8.5Q68 21 85 21H324L282 -21H85V-107H128V-64H149V-107H256V-128H85V-256Q85 -274 97.5 -286.5Q110 -299 128 -299H299Q316 -299 328.5 -286.5Q341 -274 341 -256V-192H384V-256Q384 -291 359 -316Q334 -341 299 -341ZM256 -341H171V-363H256ZM213 -256L171 -213L213 -171L256 -213ZM465 -68L388 -145Q380 -149 375 -149H316Q309 -149 304 -144Q299 -139 299 -132V-73Q299 -68 303 -60L380 17Q384 21 393 21Q397 21 405 17L465 -43Q469 -47 469 -55Q469 -60 465 -68ZM329 -107Q324 -107 320 -111Q316 -115 316 -119.5Q316 -124 320 -128Q324 -132 328.5 -132Q333 -132 337 -128Q341 -124 341 -119.5Q341 -115 337 -111Q333 -107 329 -107Z"/>
</svg>