<svg xmlns="http://www.w3.org/2000/svg" viewBox="0 -512 512 512">
	<path fill="#000000" d="M43 -346L70 -373L448 5L421 32L384 -5Q375 0 363 0Q363 9 356.5 15Q350 21 341.5 21Q333 21 326.5 15Q320 9 320 0H192Q192 9 185.5 15Q179 21 170.5 21Q162 21 155.5 15Q149 9 149 0Q131 0 119 -12.5Q107 -25 107 -43V-282ZM203 -64H171V-218L149 -240V-43H346L325 -64H309V-80L272 -117V-64H240V-149L203 -186ZM272 -256V-225L241 -256ZM309 -256H341V-156L309 -188ZM363 -320Q381 -320 393 -307.5Q405 -295 405 -277V-92L363 -134V-277H220L177 -320H192V-384Q192 -393 198.5 -399Q205 -405 213 -405H299Q307 -405 313.5 -399Q320 -393 320 -384V-320ZM224 -373V-320H288V-373Z"/>
</svg>