<svg xmlns="http://www.w3.org/2000/svg" viewBox="0 -512 512 512">
	<path fill="#000000" d="M363 -320Q381 -320 393 -307.5Q405 -295 405 -277V-43Q405 -25 393 -12.5Q381 0 363 0Q363 9 356.5 15Q350 21 341.5 21Q333 21 326.5 15Q320 9 320 0H192Q192 9 185.5 15Q179 21 170.5 21Q162 21 155.5 15Q149 9 149 0Q131 0 119 -12.5Q107 -25 107 -43V-277Q107 -295 119 -307.5Q131 -320 149 -320H192V-384Q192 -393 198.5 -399Q205 -405 213 -405H299Q307 -405 313.5 -399Q320 -393 320 -384V-320ZM288 -320V-373H224V-320ZM171 -256V-64H203V-256ZM309 -256V-64H341V-256ZM240 -256V-64H272V-256Z"/>
</svg>