<svg xmlns="http://www.w3.org/2000/svg" viewBox="0 -512 512 512">
	<path fill="#000000" d="M341 -341V-363Q341 -380 328.5 -392.5Q316 -405 299 -405H213Q196 -405 183.5 -392.5Q171 -380 171 -363V-341Q135 -341 110 -316Q85 -291 85 -256V-21Q85 -4 97.5 8.5Q110 21 128 21H384Q402 21 414.5 8.5Q427 -4 427 -21V-256Q427 -291 402 -316Q377 -341 341 -341ZM213 -363H299V-341H213ZM256 -256L299 -213L256 -171L213 -213ZM384 -21H128V-107H171V-64H192V-107H384ZM384 -128H128V-256Q128 -274 140.5 -286.5Q153 -299 171 -299H341Q359 -299 371.5 -286.5Q384 -274 384 -256Z"/>
</svg>