<svg xmlns="http://www.w3.org/2000/svg" viewBox="0 -512 512 512">
	<path fill="#000000" d="M427 -35L51 -411L24 -384L102 -306Q85 -284 85 -256V-21Q85 -4 97.5 8.5Q110 21 128 21H384Q402 21 415 7L445 37L472 10ZM128 -256Q128 -266 133 -275L280 -128H128ZM384 -21H128V-107H171V-64H192V-107H301L384 -24ZM341 -299Q359 -299 371.5 -286.5Q384 -274 384 -256V-132L427 -90V-256Q427 -291 402 -316Q377 -341 341 -341V-363Q341 -380 328.5 -392.5Q316 -405 299 -405H213Q196 -405 183.5 -392.5Q171 -380 171 -363V-346L218 -299ZM213 -363H299V-341H213Z"/>
</svg>