<svg xmlns="http://www.w3.org/2000/svg" viewBox="0 -512 512 512">
	<path fill="#000000" d="M213 -235V-192H171V-235ZM341 -192V-235H299V-192ZM448 -149V21H64V-149H85V-235Q85 -281 108 -320Q131 -359 170.5 -382Q210 -405 256 -405Q302 -405 341.5 -382Q381 -359 404 -320Q427 -281 427 -235V-149ZM149 -107H107V-21H149ZM235 -107H192V-21H235ZM235 -361Q189 -353 158.5 -317.5Q128 -282 128 -235V-149H235ZM277 -149H384V-235Q384 -282 353.5 -317.5Q323 -353 277 -361ZM320 -107H277V-21H320ZM405 -107H363V-21H405Z"/>
</svg>