<svg xmlns="http://www.w3.org/2000/svg" viewBox="0 -512 512 512">
	<path fill="#000000" d="M128 -64V-171H235V-64ZM149 -149V-85H213V-149ZM277 -288H384V-245H277ZM107 0Q89 0 76.5 -12.5Q64 -25 64 -43V-341Q64 -359 76.5 -371.5Q89 -384 107 -384H405Q423 -384 435.5 -371.5Q448 -359 448 -341V-210Q432 -213 416 -213H405V-341H107V-43H281Q286 -21 299 0ZM235 -320V-213H128V-320ZM213 -235V-299H149V-235ZM405 -192V-160Q441 -160 466 -135Q491 -110 491 -75Q491 -49 476 -28L453 -51Q459 -62 459 -75Q459 -97 443 -112.5Q427 -128 405 -128V-96L357 -144ZM405 43V11Q370 11 345 -14Q320 -39 320 -75Q320 -100 334 -122L358 -99Q352 -87 352 -75Q352 -53 367.5 -37Q383 -21 405 -21V-53L453 -5Z"/>
</svg>