<svg xmlns="http://www.w3.org/2000/svg" viewBox="0 -512 512 512">
	<path fill="#000000" d="M378 -192L463 -276Q469 -283 469 -292Q469 -301 463 -307L371 -399Q365 -405 356 -405Q347 -405 340 -399L256 -314L171 -399Q164 -405 155.5 -405Q147 -405 141 -399L48 -307Q42 -301 42 -292Q42 -283 48 -276L133 -192L48 -107Q42 -100 42 -91.5Q42 -83 48 -77L141 16Q147 22 155.5 22Q164 22 171 16L256 -69L340 16Q347 22 355.5 22Q364 22 371 16L463 -77Q470 -83 470 -91.5Q470 -100 463 -107ZM256 -256Q265 -256 271 -250Q277 -244 277 -235Q277 -226 271 -219.5Q265 -213 256 -213Q247 -213 241 -219.5Q235 -226 235 -235Q235 -244 241 -250Q247 -256 256 -256ZM156 -214L78 -291L156 -369L233 -292ZM213 -171Q204 -171 198 -177Q192 -183 192 -192Q192 -201 198 -207Q204 -213 213 -213Q222 -213 228.5 -207Q235 -201 235 -192Q235 -183 228.5 -177Q222 -171 213 -171ZM256 -128Q247 -128 241 -134Q235 -140 235 -149Q235 -158 241 -164.5Q247 -171 256 -171Q265 -171 271 -164.5Q277 -158 277 -149Q277 -140 271 -134Q265 -128 256 -128ZM299 -213Q308 -213 314 -207Q320 -201 320 -192Q320 -183 314 -177Q308 -171 299 -171Q290 -171 283.5 -177Q277 -183 277 -192Q277 -201 283.5 -207Q290 -213 299 -213ZM355 -14L278 -91L355 -169L433 -92Z"/>
</svg>