<svg xmlns="http://www.w3.org/2000/svg" viewBox="0 -512 512 512">
	<path fill="#000000" d="M192 -170Q192 -144 210.5 -125.5Q229 -107 256 -107Q283 -107 301.5 -125.5Q320 -144 320 -170Q320 -187 311 -200Q305 -211 277 -243L256 -267L237 -245Q207 -211 201 -200Q192 -187 192 -170ZM427 -171Q435 -171 441.5 -177Q448 -183 448 -192Q448 -201 441.5 -207Q435 -213 427 -213H405V-341H427Q435 -341 441.5 -347.5Q448 -354 448 -362.5Q448 -371 441.5 -377.5Q435 -384 427 -384H85Q77 -384 70.5 -377.5Q64 -371 64 -362.5Q64 -354 70.5 -347.5Q77 -341 85 -341H107V-213H85Q77 -213 70.5 -207Q64 -201 64 -192Q64 -183 70.5 -177Q77 -171 85 -171H107V-43H85Q77 -43 70.5 -36.5Q64 -30 64 -21.5Q64 -13 70.5 -6.5Q77 0 85 0H427Q435 0 441.5 -6.5Q448 -13 448 -21.5Q448 -30 441.5 -36.5Q435 -43 427 -43H405V-171ZM363 -43H149V-171Q158 -171 164.5 -177Q171 -183 171 -192Q171 -201 164.5 -207Q158 -213 149 -213V-341H363V-213Q354 -213 347.5 -207Q341 -201 341 -192Q341 -183 347.5 -177Q354 -171 363 -171Z"/>
</svg>