<svg xmlns="http://www.w3.org/2000/svg" viewBox="0 -512 512 512">
	<path fill="#000000" d="M256 -405Q214 -405 174 -390Q140 -377 109 -353Q84 -334 61 -309Q45 -291 31 -272L21 -256L198 -79Q213 -97 235 -103L167 -171L256 -260L345 -171L277 -103Q299 -97 314 -79L491 -256L481 -272Q467 -291 451 -309Q428 -334 403 -353Q372 -377 338 -390Q298 -405 256 -405ZM375 -201L256 -320L137 -201L77 -261Q107 -300 144 -326Q198 -363 256 -363Q314 -363 367 -326Q405 -300 435 -261ZM277 -171Q277 -162 271 -155.5Q265 -149 256 -149Q247 -149 241 -155.5Q235 -162 235 -170.5Q235 -179 241 -185.5Q247 -192 256 -192Q265 -192 271 -185.5Q277 -179 277 -171ZM288 -21L256 0L224 -21V-64H288Z"/>
</svg>