<svg xmlns="http://www.w3.org/2000/svg" viewBox="0 -512 512 512">
	<path fill="#000000" d="M174 -389Q214 -405 256 -405Q298 -405 337.5 -389Q377 -373 407 -343Q437 -313 453 -273.5Q469 -234 469 -192Q469 -150 453 -110.5Q437 -71 407 -41Q377 -11 337.5 5Q298 21 256 21Q214 21 174.5 5Q135 -11 105 -41Q75 -71 59 -110.5Q43 -150 43 -192Q43 -234 59 -273.5Q75 -313 105 -343Q135 -373 174 -389ZM168 -46Q209 -21 256 -21Q303 -21 344 -46L322 -83L344 -95Q325 -131 321 -171H299V-213H321Q325 -253 344 -289L322 -301L344 -338Q303 -363 256 -363Q209 -363 168 -338L190 -301L168 -289Q187 -253 191 -213H213V-171H191Q187 -131 168 -95L190 -83ZM107 -109L116 -125L131 -116Q144 -142 148 -171H128V-213H148Q144 -242 131 -268L116 -259L107 -275Q85 -236 85 -192Q85 -148 107 -109ZM405 -275L396 -259L381 -268Q368 -242 364 -213H384V-171H364Q368 -142 381 -116L396 -125L405 -109Q427 -148 427 -192Q427 -236 405 -275Z"/>
</svg>