<svg xmlns="http://www.w3.org/2000/svg" viewBox="0 -512 512 512">
	<path fill="#000000" d="M124 -175L43 -256L58 -276Q78 -300 101 -320Q134 -348 169 -364Q212 -384 256 -384Q300 -384 343 -364Q378 -348 411 -320Q434 -300 454 -276L469 -256L388 -175L256 -307ZM288 -64H224V-21L256 0L288 -21ZM358 -145L303 -90Q282 -107 256 -107Q230 -107 209 -90L154 -145L256 -247ZM277 -149Q277 -158 271 -164.5Q265 -171 256 -171Q247 -171 241 -164.5Q235 -158 235 -149.5Q235 -141 241 -134.5Q247 -128 256 -128Q265 -128 271 -134.5Q277 -141 277 -149Z"/>
</svg>