<svg xmlns="http://www.w3.org/2000/svg" viewBox="0 -512 512 512">
	<path fill="#000000" d="M256 -405Q217 -405 181.5 -392Q146 -379 117 -354Q131 -343 145 -325L168 -339L190 -301L168 -289Q187 -253 191 -213H213V-171H191Q187 -131 168 -95L190 -83L168 -45L145 -59Q131 -41 117 -30Q146 -5 181.5 8Q217 21 256 21Q295 21 330.5 8Q366 -5 395 -30Q382 -40 367 -59L344 -45L322 -83L344 -95Q325 -131 321 -171H299V-213H321Q325 -253 344 -289L322 -301L344 -339L367 -325Q382 -344 395 -354Q366 -379 330.5 -392Q295 -405 256 -405ZM88 -323Q66 -295 54.5 -261.5Q43 -228 43 -192Q43 -156 54.5 -122.5Q66 -89 88 -61Q97 -68 108 -81L95 -88L116 -125L131 -116Q144 -142 148 -171H128V-213H148Q144 -242 131 -268L116 -259L95 -296L108 -303Q97 -316 88 -323ZM424 -323Q415 -316 404 -303L417 -296L396 -259L381 -268Q368 -242 364 -213H384V-171H364Q368 -142 381 -116L396 -125L417 -88L404 -81Q415 -68 424 -61Q446 -89 457.5 -122.5Q469 -156 469 -192Q469 -228 457.5 -261.5Q446 -295 424 -323Z"/>
</svg>