<svg xmlns="http://www.w3.org/2000/svg" viewBox="0 -512 512 512">
	<path fill="#000000" d="M427 -405Q419 -405 412 -399L209 -196L154 -121L85 -51L79 -58Q72 -64 63.5 -64Q55 -64 49 -58Q43 -52 43 -43Q43 -34 49 -28L92 15Q98 22 106.5 22Q115 22 121.5 16Q128 10 128 1Q128 -8 122 -15L115 -21L184 -90L260 -145L463 -348Q469 -354 469 -363Q469 -372 463 -378L442 -399Q435 -405 427 -405ZM395 -171Q373 -171 357 -155Q341 -139 341 -117Q341 -95 357 -79.5Q373 -64 395 -64Q417 -64 432.5 -79.5Q448 -95 448 -117Q448 -139 432.5 -155Q417 -171 395 -171Z"/>
</svg>