<svg xmlns="http://www.w3.org/2000/svg" viewBox="0 -512 512 512">
	<path fill="#000000" d="M117 0Q105 0 95 -6.5Q85 -13 79 -23L23 -225L21 -235Q21 -244 27.5 -250Q34 -256 43 -256H140L239 -396Q245 -405 256 -405Q267 -405 274 -396L372 -256H469Q478 -256 484.5 -250Q491 -244 491 -235L490 -228L433 -23Q427 -13 417 -6.5Q407 0 395 0ZM256 -347L192 -256H320ZM256 -171Q238 -171 225.5 -158.5Q213 -146 213 -128Q213 -110 225.5 -97.5Q238 -85 256 -85Q274 -85 286.5 -97.5Q299 -110 299 -128Q299 -146 286.5 -158.5Q274 -171 256 -171Z"/>
</svg>