<svg xmlns="http://www.w3.org/2000/svg" viewBox="0 -512 512 512">
	<path fill="#000000" d="M51 -411L24 -384L148 -260L145 -256H43Q34 -256 27.5 -249.5Q21 -243 21 -235Q21 -231 22 -229L76 -31Q80 -18 91.5 -9Q103 0 117 0H395Q399 0 406 -2L445 37L472 10ZM117 -43L71 -213H194L240 -167Q228 -163 220.5 -152Q213 -141 213 -128Q213 -110 225.5 -97.5Q238 -85 256 -85Q269 -85 280 -92.5Q291 -100 295 -112L365 -43ZM491 -235L490 -229L447 -70L412 -105L442 -213H303L260 -256H316L256 -346L222 -294L191 -325L238 -396Q245 -405 256 -405Q267 -405 274 -396L367 -256H469Q478 -256 484.5 -249.5Q491 -243 491 -235Z"/>
</svg>