<svg xmlns="http://www.w3.org/2000/svg" viewBox="0 -512 512 512">
	<path fill="#000000" d="M461 -101L379 -18L350 -47L320 -17L379 43L491 -71ZM277 -21Q277 -56 294.5 -85.5Q312 -115 341.5 -132Q371 -149 405 -149Q437 -149 464 -135L490 -228L491 -235Q491 -243 484.5 -249.5Q478 -256 469 -256H372L274 -396Q267 -405 256 -405Q245 -405 239 -396L140 -256H43Q34 -256 27.5 -249.5Q21 -243 21 -235L23 -225L79 -23Q85 -13 95 -6.5Q105 0 117 0H279Q277 -13 277 -21ZM256 -347L320 -256H192ZM213 -128Q213 -146 225.5 -158.5Q238 -171 256 -171Q274 -171 286.5 -158.5Q299 -146 299 -128Q299 -110 286.5 -97.5Q274 -85 256 -85Q238 -85 225.5 -97.5Q213 -110 213 -128Z"/>
</svg>