<svg xmlns="http://www.w3.org/2000/svg" viewBox="0 -512 512 512">
	<path fill="#000000" d="M427 -128V-64H491V-21H427V43H384V-21H320V-64H384V-128ZM491 -235L490 -228L469 -154Q440 -171 405.5 -171Q371 -171 341.5 -153.5Q312 -136 294.5 -106.5Q277 -77 277 -43Q277 -21 285 0H117Q105 0 95 -6.5Q85 -13 79 -23L23 -225L21 -235Q21 -243 27.5 -249.5Q34 -256 43 -256H140L239 -396Q245 -405 256 -405Q267 -405 274 -396L372 -256H469Q478 -256 484.5 -249.5Q491 -243 491 -235ZM299 -128Q299 -146 286.5 -158.5Q274 -171 256 -171Q238 -171 225.5 -158.5Q213 -146 213 -128Q213 -110 225.5 -97.5Q238 -85 256 -85Q274 -85 286.5 -97.5Q299 -110 299 -128ZM320 -256L256 -347L192 -256Z"/>
</svg>