<svg xmlns="http://www.w3.org/2000/svg" viewBox="0 -512 512 512">
	<path fill="#000000" d="M469 -256H367L274 -396Q267 -405 256 -405Q245 -405 238 -396L145 -256H43Q34 -256 27.5 -249.5Q21 -243 21 -235Q21 -231 22 -229L76 -31Q80 -18 91.5 -9Q103 0 117 0H395Q409 0 420.5 -9Q432 -18 436 -31L490 -229L491 -235Q491 -243 484.5 -249.5Q478 -256 469 -256ZM256 -346L316 -256H196ZM395 -43H117L71 -213H442ZM256 -171Q238 -171 225.5 -158.5Q213 -146 213 -128Q213 -110 225.5 -97.5Q238 -85 256 -85Q274 -85 286.5 -97.5Q299 -110 299 -128Q299 -146 286.5 -158.5Q274 -171 256 -171Z"/>
</svg>