<svg xmlns="http://www.w3.org/2000/svg" viewBox="0 -512 512 512">
	<path fill="#000000" d="M481 -88L435 -43L481 3L451 33L405 -13L360 33L330 3L375 -43L330 -88L360 -118L405 -73L451 -118ZM256 -171Q238 -171 225.5 -158.5Q213 -146 213 -128Q213 -110 225.5 -97.5Q238 -85 256 -85Q274 -85 286.5 -97.5Q299 -110 299 -128Q299 -146 286.5 -158.5Q274 -171 256 -171ZM285 0H117Q103 0 91.5 -9Q80 -18 76 -31L22 -229Q21 -231 21 -235Q21 -243 27.5 -249.5Q34 -256 43 -256H145L238 -396Q245 -405 256 -405Q267 -405 274 -396L367 -256H469Q478 -256 484.5 -249.5Q491 -243 491 -235L490 -229L469 -153Q449 -165 429 -168L442 -213H71L117 -43H277Q277 -21 285 0ZM196 -256H316L256 -346Z"/>
</svg>