<svg xmlns="http://www.w3.org/2000/svg" viewBox="0 -512 512 512">
	<path fill="#000000" d="M50 -136Q69 -143 90 -143Q133 -143 165 -116L98 -49Q64 -87 50 -136ZM332 -239Q395 -192 468 -216Q469 -207 469 -192Q469 -160 454 -119Q439 -78 417 -53L282 -188ZM187 -93Q221 -44 201 14Q154 1 121 -27ZM260 -166L395 -31Q325 30 232 20Q239 -1 239 -26Q239 -46 230 -72.5Q221 -99 209 -116ZM188 -139Q159 -165 119.5 -172.5Q80 -180 44 -168Q43 -177 43 -192Q43 -224 58 -265Q73 -306 95 -331L237 -188ZM332 -283Q289 -336 312 -398Q333 -393 357.5 -378.5Q382 -364 399 -350ZM462 -248Q443 -241 422 -241Q387 -241 355 -262L421 -327Q449 -292 462 -248ZM260 -211L117 -353Q187 -414 280 -404Q273 -383 273 -359Q273 -335 284 -305.5Q295 -276 309 -260Z"/>
</svg>