<svg xmlns="http://www.w3.org/2000/svg" viewBox="0 -512 512 512">
	<path fill="#000000" d="M491 -235L490 -228L446 -70L260 -256H320L256 -347L220 -296L190 -327L239 -396Q245 -405 256 -405Q267 -405 274 -396L372 -256H469Q478 -256 484.5 -249.5Q491 -243 491 -235ZM472 10L445 37L406 -2Q400 0 395 0H117Q105 0 95 -6.5Q85 -13 79 -23L23 -225L21 -235Q21 -243 27.5 -249.5Q34 -256 43 -256H140L145 -263L24 -384L51 -411ZM295 -112L240 -167Q228 -163 220.5 -152Q213 -141 213 -128Q213 -110 225.5 -97.5Q238 -85 256 -85Q269 -85 280 -92.5Q291 -100 295 -112Z"/>
</svg>