<svg xmlns="http://www.w3.org/2000/svg" viewBox="0 -512 512 512">
	<path fill="#000000" d="M149 -341Q167 -341 179.5 -328.5Q192 -316 192 -298.5Q192 -281 179.5 -268.5Q167 -256 149.5 -256Q132 -256 119.5 -268.5Q107 -281 107 -298.5Q107 -316 119.5 -328.5Q132 -341 149 -341ZM427 -171V-345Q427 -370 409 -387.5Q391 -405 366 -405Q341 -405 324 -388L297 -361Q291 -363 286 -363Q274 -363 263 -356L322 -297Q329 -308 329 -320Q329 -325 327 -331L354 -358Q359 -363 366.5 -363Q374 -363 379 -357.5Q384 -352 384 -345V-171H238Q229 -177 220 -186L191 -219Q185 -225 175.5 -230Q166 -235 154 -235Q135 -235 121 -221Q107 -207 107 -187V-171H43V-43Q43 -25 55.5 -12.5Q68 0 85 0Q85 9 91.5 15Q98 21 107 21H405Q414 21 420.5 15Q427 9 427 0Q444 0 456.5 -12.5Q469 -25 469 -43V-171ZM427 -43H85V-128H427Z"/>
</svg>