<svg xmlns="http://www.w3.org/2000/svg" viewBox="0 -512 512 512">
	<path fill="#000000" d="M422 -107V-139Q422 -161 404 -176.5Q386 -192 363 -192Q340 -192 321.5 -176.5Q303 -161 303 -139V-107Q293 -107 285 -99Q277 -91 277 -81V-6Q277 5 285 13Q293 21 303 21H420Q431 21 439.5 13.5Q448 6 448 -4V-79Q448 -90 440 -98.5Q432 -107 422 -107ZM395 -107H331V-139Q331 -151 340 -158.5Q349 -166 362.5 -166Q376 -166 385.5 -158.5Q395 -151 395 -139ZM240 21H114Q102 21 93.5 13Q85 5 85 -7V-334Q85 -346 93.5 -354.5Q102 -363 114 -363H149V-405H277V-363H313Q325 -363 333 -354.5Q341 -346 341 -334V-232Q307 -225 283.5 -198.5Q260 -172 260 -139V-134Q249 -124 242 -110Q235 -96 235 -81V-6Q235 8 240 21Z"/>
</svg>