<svg xmlns="http://www.w3.org/2000/svg" viewBox="0 -512 512 512">
	<path fill="#000000" d="M289 21H156Q145 21 136.5 13Q128 5 128 -7V-334Q128 -346 136.5 -354.5Q145 -363 156 -363H192V-405H320V-363H356Q367 -363 375.5 -354.5Q384 -346 384 -334V-192Q349 -192 319.5 -175Q290 -158 273 -128.5Q256 -99 256 -64Q256 -15 289 21ZM384 -171L432 -123L384 -75V-107Q365 -107 350.5 -95Q336 -83 332 -65Q328 -47 336 -29L313 -6Q295 -34 299.5 -65Q304 -96 327.5 -117.5Q351 -139 384 -139ZM384 64L336 16L384 -32V0Q403 0 417.5 -12Q432 -24 436 -42Q440 -60 432 -77L455 -100Q473 -73 468.5 -41.5Q464 -10 440.5 11Q417 32 384 32Z"/>
</svg>