<svg xmlns="http://www.w3.org/2000/svg" viewBox="0 -512 512 512">
	<path fill="#000000" d="M321 -187L302 -167Q292 -157 288 -150Q282 -140 279 -128H236Q239 -157 260 -178L286 -205Q299 -217 299 -234.5Q299 -252 286.5 -264.5Q274 -277 256 -277Q238 -277 225.5 -264.5Q213 -252 213 -235H171Q171 -270 196 -295Q221 -320 256 -320Q291 -320 316 -295Q341 -270 341 -235Q341 -207 321 -187ZM277 -43H235V-85H277ZM356 -363H320V-405H192V-363H156Q145 -363 136.5 -354.5Q128 -346 128 -334V-7Q128 5 136.5 13Q145 21 156 21H356Q367 21 375.5 13Q384 5 384 -7V-334Q384 -346 375.5 -354.5Q367 -363 356 -363Z"/>
</svg>