<svg xmlns="http://www.w3.org/2000/svg" viewBox="0 -512 512 512">
	<path fill="#000000" d="M277 -363H235V-405H107V-363H64Q54 -363 48.5 -357Q43 -351 43 -341V0Q43 10 48.5 15.5Q54 21 64 21H277Q287 21 293 15.5Q299 10 299 0V-341Q299 -351 293 -357Q287 -363 277 -363ZM192 -64H149V-107H192ZM192 -149H149V-277H192ZM429 -343L399 -314Q431 -281 442.5 -237Q454 -193 442.5 -149Q431 -105 399 -73L429 -43Q470 -83 484 -137.5Q498 -192 484 -247.5Q470 -303 429 -343ZM367 -282L337 -252Q363 -226 363 -191Q363 -156 337 -130L367 -100Q392 -125 401 -158.5Q410 -192 401 -224.5Q392 -257 367 -282Z"/>
</svg>