<svg xmlns="http://www.w3.org/2000/svg" viewBox="0 -512 512 512">
	<path fill="#000000" d="M428 -343L398 -313Q431 -280 442.5 -236Q454 -192 442.5 -148Q431 -104 398 -71L428 -41Q469 -82 483.5 -137Q498 -192 483.5 -247Q469 -302 428 -343ZM368 -282L338 -252Q363 -227 363 -192Q363 -157 338 -132L368 -102Q392 -126 401 -159Q410 -192 401 -225Q392 -258 368 -282ZM277 -363H235V-405H107V-363H64Q55 -363 49 -356.5Q43 -350 43 -341V0Q43 9 49 15Q55 21 64 21H277Q286 21 292.5 15Q299 9 299 0V-341Q299 -350 292.5 -356.5Q286 -363 277 -363ZM256 -85H85V-320H256Z"/>
</svg>