<svg xmlns="http://www.w3.org/2000/svg" viewBox="0 -512 512 512">
	<path fill="#000000" d="M422 -107H331V-160Q331 -172 340 -180Q349 -188 362.5 -188Q376 -188 385.5 -180Q395 -172 395 -160V-149H422V-160Q422 -182 404 -197.5Q386 -213 363 -213Q340 -213 321.5 -197.5Q303 -182 303 -160V-107Q293 -107 285 -99Q277 -91 277 -81V-6Q277 5 285 13Q293 21 303 21H420Q431 21 439.5 13.5Q448 6 448 -4V-79Q448 -90 440 -98.5Q432 -107 422 -107ZM240 21H114Q102 21 93.5 13Q85 5 85 -7V-334Q85 -346 93.5 -354.5Q102 -363 114 -363H149V-405H277V-363H313Q325 -363 333 -354.5Q341 -346 341 -334V-254Q307 -247 283.5 -220.5Q260 -194 260 -160V-134Q249 -124 242 -110Q235 -96 235 -81V-6Q235 0 236 8Q237 14 240 21Z"/>
</svg>