<svg xmlns="http://www.w3.org/2000/svg" viewBox="0 -512 512 512">
	<path fill="#000000" d="M107 -405V-363H71Q59 -363 51 -354.5Q43 -346 43 -334V-7Q43 5 51 13Q59 21 71 21H270Q282 21 290.5 13Q299 5 299 -7V-334Q299 -346 290.5 -354.5Q282 -363 270 -363H235V-405ZM171 -320Q206 -320 231 -295Q256 -270 256 -235Q256 -207 236 -187L217 -167Q207 -157 202 -150Q196 -140 194 -128H150Q154 -157 174 -178L201 -205Q213 -217 213 -234.5Q213 -252 200.5 -264.5Q188 -277 170.5 -277Q153 -277 140.5 -264.5Q128 -252 128 -235H85Q85 -270 110 -295Q135 -320 171 -320ZM405 -277V-196L356 -245L341 -230L401 -171L341 -111L356 -96L405 -145V-64H416L477 -125L431 -171L477 -217L416 -277ZM427 -237L447 -217L427 -196ZM427 -145L447 -125L427 -105ZM149 -85H192V-43H149Z"/>
</svg>