<svg xmlns="http://www.w3.org/2000/svg" viewBox="0 -512 512 512">
	<path fill="#000000" d="M384 -250V-334Q384 -346 375.5 -354.5Q367 -363 356 -363H320V-405H192V-363H156Q145 -363 136.5 -354.5Q128 -346 128 -334V-7Q128 5 136.5 13Q145 21 156 21H265Q300 43 341 43Q382 43 416.5 23Q451 3 471 -31.5Q491 -66 491 -107Q491 -157 461 -196.5Q431 -236 384 -250ZM171 -320H341V-256Q301 -256 266.5 -236Q232 -216 212 -181.5Q192 -147 192 -107Q192 -60 219 -21H171ZM341 0Q312 0 287.5 -14.5Q263 -29 249 -53.5Q235 -78 235 -107Q235 -136 249 -160.5Q263 -185 287.5 -199Q312 -213 341 -213Q370 -213 394.5 -199Q419 -185 433.5 -160.5Q448 -136 448 -107Q448 -78 433.5 -53.5Q419 -29 394.5 -14.5Q370 0 341 0ZM352 -101L413 -65L397 -39L320 -85V-192H352Z"/>
</svg>