<svg xmlns="http://www.w3.org/2000/svg" viewBox="0 -512 512 512">
	<path fill="#000000" d="M405 -102L393 -113L390 -115Q352 -152 340 -167Q320 -192 320 -212.5Q320 -233 334 -246.5Q348 -260 368 -260Q388 -260 405 -243Q422 -260 442.5 -260Q463 -260 477 -246.5Q491 -233 491 -213Q491 -193 473 -171Q462 -157 428 -124ZM271 -363H235V-405H107V-363H70Q59 -363 51 -354.5Q43 -346 43 -335V-9Q43 4 51 12.5Q59 21 70 21H269Q280 21 288.5 13Q297 5 297 -6V-335Q298 -346 290 -354.5Q282 -363 271 -363ZM256 -21H85V-320H256Z"/>
</svg>