<svg xmlns="http://www.w3.org/2000/svg" viewBox="0 -512 512 512">
	<path fill="#000000" d="M320 -52Q394 -64 469 -64V21H107Q107 14 129 2Q151 -10 188 -22Q229 -35 277 -45V-183Q250 -175 235 -150Q225 -167 208 -177Q191 -187 171 -187Q151 -187 134 -177Q117 -167 107 -150Q107 -188 129.5 -220Q152 -252 191 -273Q230 -294 277 -298V-299Q277 -308 283.5 -314Q290 -320 299 -320Q308 -320 314 -314Q320 -308 320 -299V-298Q367 -294 406 -273Q445 -252 467.5 -220Q490 -188 491 -150Q481 -167 464 -177Q447 -187 427 -187Q407 -187 390 -177Q373 -167 363 -150Q348 -175 320 -184ZM149 -405Q149 -376 135 -351.5Q121 -327 96.5 -313Q72 -299 43 -299V-405Z"/>
</svg>