<svg xmlns="http://www.w3.org/2000/svg" viewBox="0 -512 512 512">
	<path fill="#000000" d="M0 -384H384V-341Q366 -341 353.5 -328.5Q341 -316 341 -299V-43Q341 -25 328.5 -12.5Q316 0 299 0H85Q68 0 55.5 -12.5Q43 -25 43 -43V-299Q43 -316 30.5 -328.5Q18 -341 0 -341ZM85 -256V-235H149V-256ZM85 -213V-192H149V-213ZM149 -107V-128H85V-107ZM192 -149V-171H85V-149ZM192 -277V-299H85V-277ZM459 -117V-85H427V-117ZM416 -224H384V-235Q384 -261 402.5 -280Q421 -299 448 -299Q475 -299 493.5 -280Q512 -261 512 -235Q512 -219 504.5 -205.5Q497 -192 484 -183L478 -179Q459 -166 459 -143V-139H427V-143Q427 -162 436 -178.5Q445 -195 461 -206L467 -210Q480 -219 480 -235Q480 -248 470.5 -257.5Q461 -267 448 -267Q435 -267 425.5 -257.5Q416 -248 416 -235Z"/>
</svg>