<svg xmlns="http://www.w3.org/2000/svg" viewBox="0 -512 512 512">
	<path fill="#000000" d="M410 -245L341 -284V-363H373V-303L425 -273ZM474 -198Q491 -175 491 -149V43H448V-21H64V43H21V-277H64V-85H235V-222Q213 -261 213 -299Q213 -340 233 -374Q253 -408 287.5 -428Q322 -448 363 -448Q404 -448 438 -428Q472 -408 492 -374Q512 -340 512 -299Q512 -244 474 -198ZM256 -299Q256 -269 270 -244.5Q284 -220 308.5 -206Q333 -192 362.5 -192Q392 -192 416.5 -206Q441 -220 455 -244.5Q469 -269 469 -298.5Q469 -328 455 -352.5Q441 -377 416.5 -391Q392 -405 362.5 -405Q333 -405 308.5 -391Q284 -377 270 -352.5Q256 -328 256 -299ZM149 -107Q177 -107 195 -125Q213 -143 213 -170.5Q213 -198 195 -216.5Q177 -235 149.5 -235Q122 -235 103.5 -216.5Q85 -198 85 -170.5Q85 -143 103.5 -125Q122 -107 149 -107Z"/>
</svg>