<svg xmlns="http://www.w3.org/2000/svg" viewBox="0 -512 512 512">
	<path fill="#000000" d="M149 -149Q176 -149 194.5 -168Q213 -187 213 -213.5Q213 -240 194.5 -258.5Q176 -277 149.5 -277Q123 -277 104 -258.5Q85 -240 85 -213.5Q85 -187 104 -168Q123 -149 149 -149ZM149 -235Q158 -235 164.5 -228.5Q171 -222 171 -213.5Q171 -205 164.5 -198.5Q158 -192 149.5 -192Q141 -192 134.5 -198.5Q128 -205 128 -213.5Q128 -222 134.5 -228.5Q141 -235 149 -235ZM405 -299H235V-128H64V-341H21V-21H64V-85H448V-21H491V-213Q491 -249 466 -274Q441 -299 405 -299ZM448 -128H277V-256H405Q423 -256 435.5 -243.5Q448 -231 448 -213Z"/>
</svg>