<svg xmlns="http://www.w3.org/2000/svg" viewBox="0 -512 512 512">
	<path fill="#000000" d="M405 -341H341Q341 -368 316 -386.5Q291 -405 256 -405Q221 -405 196 -386.5Q171 -368 171 -341H107Q98 -341 91.5 -335Q85 -329 85 -320Q85 -311 91.5 -305Q98 -299 107 -299V-149Q107 -132 119.5 -119.5Q132 -107 149 -107H363Q380 -107 392.5 -119.5Q405 -132 405 -149V-299Q414 -299 420.5 -305Q427 -311 427 -320Q427 -329 420.5 -335Q414 -341 405 -341ZM363 -149H149V-299H363ZM338 -277Q341 -265 341 -256Q341 -221 316 -196Q291 -171 256 -171Q221 -171 196 -196Q171 -221 171 -256Q171 -265 174 -277H219Q213 -267 213 -256Q213 -238 225.5 -225.5Q238 -213 256 -213Q274 -213 286.5 -225.5Q299 -238 299 -256Q299 -267 293 -277ZM427 -43V21H85V-43Q85 -66 111 -85H256Q229 -85 198 -78Q170 -71 150 -60.5Q130 -50 128 -43V-21H384V-43Q382 -50 362 -60.5Q342 -71 314 -78Q283 -85 256 -85H401Q427 -66 427 -43Z"/>
</svg>