<svg xmlns="http://www.w3.org/2000/svg" viewBox="0 -512 512 512">
	<path fill="#000000" d="M213 0H299Q299 18 286.5 30.5Q274 43 256 43Q238 43 225.5 30.5Q213 18 213 0ZM448 -43V-21H64V-43L107 -85V-213Q107 -263 136.5 -302.5Q166 -342 213 -356V-363Q213 -380 225.5 -392.5Q238 -405 256 -405Q274 -405 286.5 -392.5Q299 -380 299 -363V-356Q346 -342 375.5 -302.5Q405 -263 405 -213V-85ZM363 -213Q363 -242 348.5 -266.5Q334 -291 309.5 -305.5Q285 -320 256 -320Q227 -320 202.5 -305.5Q178 -291 163.5 -266.5Q149 -242 149 -213V-64H363ZM421 -380L391 -350Q418 -323 433 -287.5Q448 -252 448 -213H491Q491 -260 473 -303.5Q455 -347 421 -380ZM21 -213H64Q64 -252 79 -287.5Q94 -323 121 -350L91 -380Q57 -347 39 -303.5Q21 -260 21 -213Z"/>
</svg>