<svg xmlns="http://www.w3.org/2000/svg" viewBox="0 -512 512 512">
	<path fill="#000000" d="M363 -107H149V-128L171 -149V-205Q171 -240 187.5 -266Q204 -292 235 -299V-309Q235 -318 241 -324.5Q247 -331 256 -331Q265 -331 271 -324.5Q277 -318 277 -309V-299Q308 -292 324.5 -266Q341 -240 341 -205V-149L363 -128ZM288 -85Q288 -72 278.5 -62.5Q269 -53 256 -53Q243 -53 233.5 -62.5Q224 -72 224 -85ZM256 -405Q298 -405 337.5 -389Q377 -373 407 -343Q437 -313 453 -273.5Q469 -234 469 -192Q469 -150 453 -110.5Q437 -71 407 -41Q377 -11 337.5 5Q298 21 256 21Q214 21 174.5 5Q135 -11 105 -41Q75 -71 59 -110.5Q43 -150 43 -192Q43 -234 59 -273.5Q75 -313 105 -343Q135 -373 174.5 -389Q214 -405 256 -405ZM256 -363Q210 -363 170.5 -340Q131 -317 108 -277.5Q85 -238 85 -192Q85 -146 108 -106.5Q131 -67 170.5 -44Q210 -21 256 -21Q302 -21 341.5 -44Q381 -67 404 -106.5Q427 -146 427 -192Q427 -238 404 -277.5Q381 -317 341.5 -340Q302 -363 256 -363Z"/>
</svg>