<svg xmlns="http://www.w3.org/2000/svg" viewBox="0 -512 512 512">
	<path fill="#000000" d="M429 -140L384 -94L339 -140L308 -109L354 -64L308 -19L339 12L384 -34L429 12L460 -19L414 -64L460 -109ZM256 -405Q238 -405 225.5 -392.5Q213 -380 213 -363V-356Q167 -343 137 -303.5Q107 -264 107 -213V-85L64 -43V-21H263Q256 -42 256 -64Q256 -99 273 -128.5Q290 -158 319.5 -175Q349 -192 384 -192Q395 -192 405 -190V-213Q405 -264 375 -303.5Q345 -343 299 -356V-363Q299 -380 286.5 -392.5Q274 -405 256 -405ZM213 0Q213 18 225.5 30.5Q238 43 256 43Q267 43 276 38Q285 33 291 24Q281 13 273 0Z"/>
</svg>