<svg xmlns="http://www.w3.org/2000/svg" viewBox="0 -512 512 512">
	<path fill="#000000" d="M213 0H299Q299 18 286.5 30.5Q274 43 256 43Q238 43 225.5 30.5Q213 18 213 0ZM448 -43V-21H64V-43L107 -85V-213Q107 -263 136 -302.5Q165 -342 213 -356V-363Q213 -380 225.5 -392.5Q238 -405 256 -405Q274 -405 286.5 -392.5Q299 -380 299 -363V-356Q347 -342 376 -302.5Q405 -263 405 -213V-85ZM363 -213Q363 -243 348.5 -267.5Q334 -292 309.5 -306Q285 -320 256 -320Q227 -320 202.5 -306Q178 -292 163.5 -267.5Q149 -243 149 -213V-64H363Z"/>
</svg>