<svg xmlns="http://www.w3.org/2000/svg" viewBox="0 -512 512 512">
	<path fill="#000000" d="M256 -405Q238 -405 225.5 -392.5Q213 -380 213 -363V-356Q167 -343 137 -303.5Q107 -264 107 -213V-85L64 -43V-21H263Q256 -42 256 -64H149V-213Q149 -242 163.5 -266.5Q178 -291 202.5 -305.5Q227 -320 256 -320Q285 -320 309.5 -305.5Q334 -291 348.5 -266.5Q363 -242 363 -213V-190Q373 -192 384 -192Q395 -192 405 -190V-213Q405 -264 375 -303.5Q345 -343 299 -356V-363Q299 -380 286.5 -392.5Q274 -405 256 -405ZM363 -149V-85H299V-43H363V21H405V-43H469V-85H405V-149ZM213 0Q213 18 225.5 30.5Q238 43 256 43Q267 43 276 38Q285 33 291 24Q281 13 273 0Z"/>
</svg>