<svg xmlns="http://www.w3.org/2000/svg" viewBox="0 -512 512 512">
	<path fill="#000000" d="M256 -405Q298 -405 337.5 -389Q377 -373 407 -343Q437 -313 453 -273.5Q469 -234 469 -192Q469 -150 453 -110.5Q437 -71 407 -41Q377 -11 337.5 5Q298 21 256 21Q214 21 174.5 5Q135 -11 105 -41Q75 -71 59 -110.5Q43 -150 43 -192Q43 -234 59 -273.5Q75 -313 105 -343Q135 -373 174.5 -389Q214 -405 256 -405ZM363 -107V-128L341 -149V-205Q341 -240 324.5 -266Q308 -292 277 -299V-309Q277 -318 271 -324.5Q265 -331 256 -331Q247 -331 241 -324.5Q235 -318 235 -309V-299Q204 -292 187.5 -266Q171 -240 171 -205V-149L149 -128V-107ZM288 -85H224Q224 -72 233.5 -62.5Q243 -53 256 -53Q269 -53 278.5 -62.5Q288 -72 288 -85Z"/>
</svg>