<svg xmlns="http://www.w3.org/2000/svg" viewBox="0 -512 512 512">
	<path fill="#000000" d="M379 3L320 -61L345 -85L379 -51L455 -128L480 -98ZM213 0H273Q281 13 291 24Q279 43 256 43Q238 43 225.5 30.5Q213 18 213 0ZM64 -21V-43L107 -85V-213Q107 -263 136.5 -302.5Q166 -342 213 -356V-363Q213 -380 225.5 -392.5Q238 -405 256 -405Q274 -405 286.5 -392.5Q299 -380 299 -363V-356Q346 -342 375.5 -302.5Q405 -263 405 -213V-190L384 -192L363 -190V-213Q363 -242 348.5 -266.5Q334 -291 309.5 -305.5Q285 -320 256 -320Q227 -320 202.5 -305.5Q178 -291 163.5 -266.5Q149 -242 149 -213V-64H256Q256 -42 263 -21Z"/>
</svg>