<svg xmlns="http://www.w3.org/2000/svg" viewBox="0 -512 512 512">
	<path fill="#000000" d="M197 -73V45H147V-305Q147 -351 174 -378Q201 -405 248 -405Q291 -405 316.5 -383.5Q342 -362 342 -324Q342 -298 325.5 -275Q309 -252 283 -244V-243Q323 -236 344 -213.5Q365 -191 365 -155Q365 -113 336 -86.5Q307 -60 259 -60Q225 -60 197 -73ZM229 -219V-260Q256 -263 274 -280.5Q292 -298 292 -320Q292 -364 247 -364Q223 -364 210 -348.5Q197 -333 197 -305V-117Q226 -100 253.5 -100Q281 -100 296 -114Q311 -128 311 -154Q311 -211 229 -219Z"/>
</svg>