<svg xmlns="http://www.w3.org/2000/svg" viewBox="0 -512 512 512">
	<path fill="#000000" d="M275 -370Q287 -370 296 -361.5Q305 -353 305 -340.5Q305 -328 296 -319.5Q287 -311 274.5 -311Q262 -311 253.5 -319.5Q245 -328 245 -340.5Q245 -353 253.5 -361.5Q262 -370 275 -370ZM320 -171H352V-43H320ZM320 -267H352V-235H320ZM214 -393L171 -404L129 -265L83 -204L153 -184ZM420 -52Q418 -51 415 -47Q401 -31 393 -28Q378 -21 363 -21H288L287 -85Q286 -91 283 -96L232 -187L251 -245L279 -196Q284 -189 292 -189H339Q346 -189 351 -194Q356 -199 356 -206Q356 -213 351.5 -218Q347 -223 340 -223L305 -226L265 -299L262 -302Q258 -306 252 -308.5Q246 -311 238 -311Q225 -311 219 -305.5Q213 -300 210 -290L128 -21H64V21H363Q403 21 437 -13ZM208 -141L248 -77L251 -21H165Z"/>
</svg>