<svg xmlns="http://www.w3.org/2000/svg" viewBox="0 -512 512 512">
	<path fill="#000000" d="M250 -163L302 -284L279 -331H224V-363H299L314 -331H464L443 -256H351L365 -227Q384 -235 405 -235Q434 -235 458.5 -220.5Q483 -206 497.5 -181.5Q512 -157 512 -128Q512 -99 497.5 -74.5Q483 -50 458.5 -35.5Q434 -21 405 -21Q376 -21 351.5 -35.5Q327 -50 313 -74.5Q299 -99 299 -128Q299 -152 309 -173.5Q319 -195 337 -210L320 -245L261 -107H211Q204 -70 174.5 -45.5Q145 -21 107 -21Q78 -21 53.5 -35.5Q29 -50 14.5 -74.5Q0 -99 0 -128Q0 -157 14.5 -181.5Q29 -206 53.5 -220.5Q78 -235 107 -235Q148 -235 178.5 -207Q209 -179 213 -139H226L177 -256H160Q153 -256 148.5 -260.5Q144 -265 144 -272Q144 -279 148.5 -283.5Q153 -288 160 -288H219Q225 -288 230 -283.5Q235 -279 235 -272Q235 -265 230 -260.5Q225 -256 219 -256H213ZM107 -203Q76 -203 54 -181Q32 -159 32 -128Q32 -97 54 -75Q76 -53 107 -53Q132 -53 151.5 -68Q171 -83 178 -107H85V-139H181Q177 -166 156 -184.5Q135 -203 107 -203ZM405 -203Q392 -203 379 -198L420 -113L391 -99L352 -180Q331 -159 331 -128Q331 -97 352.5 -75Q374 -53 405 -53Q436 -53 458 -75Q480 -97 480 -128Q480 -159 458 -181Q436 -203 405 -203Z"/>
</svg>