<svg xmlns="http://www.w3.org/2000/svg" viewBox="0 -512 512 512">
	<path fill="#000000" d="M448 -203V-235L288 -256V-341H192V-309H256V-143H235L192 -235Q197 -236 200 -240.5Q203 -245 203 -250.5Q203 -256 198.5 -261.5Q194 -267 188 -267H145Q137 -267 132.5 -262.5Q128 -258 128 -251.5Q128 -245 132.5 -240Q137 -235 145 -235H158L201 -145H169Q164 -174 140.5 -193.5Q117 -213 85 -213Q50 -213 25 -188Q0 -163 0 -128Q0 -93 25 -68Q50 -43 85 -43Q117 -43 140.5 -62.5Q164 -82 169 -111H352Q355 -150 382.5 -176.5Q410 -203 448 -203ZM137 -111Q132 -95 117.5 -84Q103 -73 85 -73Q63 -73 47.5 -88Q32 -103 32 -125.5Q32 -148 47.5 -163.5Q63 -179 85 -179Q103 -179 117.5 -168.5Q132 -158 137 -141H85V-109H137ZM448 -171Q421 -171 402.5 -152.5Q384 -134 384 -106.5Q384 -79 402.5 -61Q421 -43 448 -43Q475 -43 493.5 -61Q512 -79 512 -106.5Q512 -134 493.5 -152.5Q475 -171 448 -171ZM448 -75Q435 -75 425.5 -84.5Q416 -94 416 -106.5Q416 -119 425.5 -129Q435 -139 448 -139Q461 -139 470.5 -129Q480 -119 480 -106.5Q480 -94 470.5 -84.5Q461 -75 448 -75Z"/>
</svg>