<svg xmlns="http://www.w3.org/2000/svg" viewBox="0 -512 512 512">
	<path fill="#000000" d="M405 -235Q389 -235 371 -229L308 -352H235V-320H289L308 -283L256 -168L218 -257Q223 -259 226 -263Q229 -267 229 -273Q229 -279 224.5 -283.5Q220 -288 213 -288H171Q164 -288 159 -283.5Q154 -279 154 -272Q154 -265 159 -260.5Q164 -256 171 -256H184L232 -144H212Q206 -183 176 -209Q146 -235 107 -235Q78 -235 53.5 -220.5Q29 -206 14.5 -181.5Q0 -157 0 -128Q0 -99 14.5 -74.5Q29 -50 53.5 -35.5Q78 -21 107 -21Q146 -21 176 -47Q206 -73 212 -112H267L326 -247L343 -214Q322 -199 310.5 -176.5Q299 -154 299 -128Q299 -99 313 -74.5Q327 -50 351.5 -35.5Q376 -21 405 -21Q434 -21 458.5 -35.5Q483 -50 497.5 -74.5Q512 -99 512 -128Q512 -157 497.5 -181.5Q483 -206 458.5 -220.5Q434 -235 405 -235ZM107 -53Q76 -53 54 -75Q32 -97 32 -128Q32 -159 54 -181Q76 -203 107 -203Q133 -203 153.5 -186Q174 -169 179 -144H85V-112H179Q174 -87 153.5 -70Q133 -53 107 -53ZM405 -53Q374 -53 352.5 -75Q331 -97 331 -128Q331 -145 338 -159.5Q345 -174 358 -185L396 -110L424 -125L386 -200Q398 -203 405 -203Q436 -203 458 -181Q480 -159 480 -128Q480 -97 458 -75Q436 -53 405 -53Z"/>
</svg>