<svg xmlns="http://www.w3.org/2000/svg" viewBox="0 -512 512 512">
	<path fill="#000000" d="M308 -104L326 -149H341V-171H427V-213H341V-235H326L308 -280Q301 -298 284.5 -309Q268 -320 249 -320H199Q180 -320 163.5 -309Q147 -298 140 -280L115 -216Q105 -192 115 -168L140 -104Q147 -86 163.5 -75Q180 -64 199 -64H249Q268 -64 284.5 -75Q301 -86 308 -104ZM199 -277H249Q255 -277 260.5 -273.5Q266 -270 268 -264L280 -235H168L180 -264Q182 -270 187.5 -273.5Q193 -277 199 -277ZM180 -120L168 -149H280L268 -120Q266 -114 260.5 -110.5Q255 -107 249 -107H199Q193 -107 187.5 -110.5Q182 -114 180 -120Z"/>
</svg>