<svg xmlns="http://www.w3.org/2000/svg" viewBox="0 -512 512 512">
	<path fill="#000000" d="M145 -341Q130 -341 118.5 -331.5Q107 -322 104 -307L86 -220Q85 -217 85 -211V-173Q85 -167 86 -164L104 -77Q107 -62 118.5 -52.5Q130 -43 145 -43H285Q298 -43 308 -49Q318 -55 324 -66L358 -135Q361 -142 363 -149H384V-171H427V-213H384V-235H363Q361 -242 358 -249L324 -318Q318 -329 308 -335Q298 -341 285 -341ZM145 -299H157L211 -192L157 -85H145L128 -173V-211ZM248 -213L205 -299H285L320 -230V-213ZM248 -171H320V-154L285 -85H205Z"/>
</svg>