<svg xmlns="http://www.w3.org/2000/svg" viewBox="0 -512 512 512">
	<path fill="#000000" d="M341 -422Q325 -422 314 -411Q303 -400 303 -384Q303 -368 314 -357Q325 -346 341 -346Q357 -346 368.5 -357Q380 -368 380 -384Q380 -400 368.5 -411Q357 -422 341 -422ZM265 -361Q249 -361 239 -350L160 -271Q149 -260 149 -245Q149 -225 167 -214L239 -171V-64H277V-203L229 -238L279 -288L316 -235H405V-273H337L296 -343Q291 -351 282.5 -356Q274 -361 265 -361ZM213 -384H64Q55 -384 49 -390.5Q43 -397 43 -405.5Q43 -414 49 -420.5Q55 -427 64 -427H273Q265 -415 263 -403Q235 -402 213 -384ZM107 -192Q78 -192 53.5 -177.5Q29 -163 14.5 -138.5Q0 -114 0 -85Q0 -56 14.5 -31.5Q29 -7 53.5 7Q78 21 107 21Q136 21 160.5 7Q185 -7 199 -31.5Q213 -56 213 -85Q213 -114 199 -138.5Q185 -163 160.5 -177.5Q136 -192 107 -192ZM107 -11Q76 -11 54 -32.5Q32 -54 32 -85Q32 -116 54 -138Q76 -160 107 -160Q138 -160 159.5 -138Q181 -116 181 -85Q181 -54 159.5 -32.5Q138 -11 107 -11ZM405 -192Q376 -192 351.5 -177.5Q327 -163 313 -138.5Q299 -114 299 -85Q299 -56 313 -31.5Q327 -7 351.5 7Q376 21 405 21Q434 21 458.5 7Q483 -7 497.5 -31.5Q512 -56 512 -85Q512 -114 497.5 -138.5Q483 -163 458.5 -177.5Q434 -192 405 -192ZM405 -11Q374 -11 352.5 -32.5Q331 -54 331 -85Q331 -116 352.5 -138Q374 -160 405 -160Q436 -160 458 -138Q480 -116 480 -85Q480 -54 458 -32.5Q436 -11 405 -11ZM113 -213H21Q13 -213 6.5 -219.5Q0 -226 0 -234.5Q0 -243 6.5 -249.5Q13 -256 21 -256H108L107 -245Q107 -229 113 -213ZM128 -299H43Q34 -299 27.5 -305Q21 -311 21 -320Q21 -329 27.5 -335Q34 -341 43 -341H170L130 -301Q128 -300 128 -299Z"/>
</svg>