<svg xmlns="http://www.w3.org/2000/svg" viewBox="0 -512 512 512">
	<path fill="#000000" d="M235 -171H277V-128H235ZM235 -256H277V-213H235ZM235 -85H277Q295 -85 307.5 -97.5Q320 -110 320 -128V-160Q320 -173 310.5 -182.5Q301 -192 288 -192Q301 -192 310.5 -201.5Q320 -211 320 -224V-256Q320 -274 307.5 -286.5Q295 -299 277 -299H235Q217 -299 204.5 -286.5Q192 -274 192 -256V-224Q192 -211 201.5 -201.5Q211 -192 224 -192Q211 -192 201.5 -182.5Q192 -173 192 -160V-128Q192 -110 204.5 -97.5Q217 -85 235 -85ZM256 -427Q192 -427 138 -395.5Q84 -364 52.5 -310Q21 -256 21 -192Q21 -128 52.5 -74Q84 -20 138 11.5Q192 43 256 43Q320 43 374 11.5Q428 -20 459.5 -74Q491 -128 491 -192Q491 -256 459.5 -310Q428 -364 374 -395.5Q320 -427 256 -427ZM256 -43Q215 -43 181 -63Q147 -83 127 -117Q107 -151 107 -192Q107 -233 127 -267Q147 -301 181 -321Q215 -341 256 -341Q297 -341 331 -321Q365 -301 385 -267Q405 -233 405 -192Q405 -151 385 -117Q365 -83 331 -63Q297 -43 256 -43Z"/>
</svg>