<svg xmlns="http://www.w3.org/2000/svg" viewBox="0 -512 512 512">
	<path fill="#000000" d="M433 -97L310 -310Q297 -333 271.5 -340Q246 -347 223 -333Q208 -325 200 -310L77 -97Q64 -74 70.5 -49Q77 -24 100 -11Q114 -2 132 -2H378Q405 -2 423.5 -20.5Q442 -39 442 -66Q442 -83 433 -97ZM115 -76L237 -289Q241 -296 249.5 -298.5Q258 -301 266 -297Q271 -294 274 -289L396 -76Q401 -68 398.5 -60Q396 -52 388 -47Q384 -44 378 -44H132Q124 -44 117.5 -50.5Q111 -57 111 -66Q111 -72 114 -76ZM255 -161Q238 -161 225.5 -173.5Q213 -186 213 -203.5Q213 -221 225.5 -233.5Q238 -246 255.5 -246Q273 -246 285.5 -233.5Q298 -221 298 -203.5Q298 -186 285.5 -173.5Q273 -161 255 -161ZM202 -65Q184 -65 171.5 -77.5Q159 -90 159 -108Q159 -126 171.5 -138Q184 -150 201.5 -150Q219 -150 231.5 -138Q244 -126 244 -108Q244 -90 231.5 -77.5Q219 -65 202 -65ZM308 -65Q291 -66 278.5 -78Q266 -90 266 -107.5Q266 -125 278.5 -137.5Q291 -150 308.5 -150Q326 -150 338.5 -138Q351 -126 351 -108Q351 -90 338.5 -77.5Q326 -65 308 -65Z"/>
</svg>