<svg xmlns="http://www.w3.org/2000/svg" viewBox="0 -512 512 512">
	<path fill="#000000" d="M363 -192H427Q444 -192 456.5 -179.5Q469 -167 469 -149V-85Q469 -68 456.5 -55.5Q444 -43 427 -43H363Q345 -43 332.5 -55.5Q320 -68 320 -85V-149Q320 -167 332.5 -179.5Q345 -192 363 -192ZM363 -149V-85H427V-149ZM43 -299H149Q167 -299 179.5 -286.5Q192 -274 192 -256V-213Q192 -196 179.5 -183.5Q167 -171 149 -171Q167 -171 179.5 -158.5Q192 -146 192 -128V-85Q192 -68 179.5 -55.5Q167 -43 149 -43H43ZM85 -256V-192H149V-256ZM85 -85H149V-149H85ZM235 -171H277V-43H235ZM235 -256H277V-213H235Z"/>
</svg>