<svg xmlns="http://www.w3.org/2000/svg" viewBox="0 -512 512 512">
	<path fill="#000000" d="M304 -223Q300 -207 278 -207Q266 -207 245 -213H243L255 -260L262 -258Q282 -253 291 -248Q308 -238 304 -223ZM237 -189L225 -138L229 -137Q253 -130 267 -130Q292 -130 296.5 -147.5Q301 -165 280 -176Q268 -183 243 -188ZM463 -140Q449 -84 409.5 -43.5Q370 -3 315.5 13Q261 29 204.5 15Q148 1 107.5 -38.5Q67 -78 51 -132.5Q35 -187 49 -243.5Q63 -300 102.5 -340.5Q142 -381 196.5 -397Q251 -413 307.5 -399Q364 -385 404.5 -345.5Q445 -306 461 -251.5Q477 -197 463 -140ZM303 -276L313 -315L289 -320L280 -283L261 -287L271 -325L247 -331L238 -292L191 -304L184 -279L193 -277Q201 -275 201 -275Q213 -272 212 -261L186 -156Q183 -149 175 -150Q175 -150 158 -155L147 -128L194 -116L184 -77L207 -71L217 -110L236 -105L226 -67L249 -61L259 -100Q292 -93 310 -99Q333 -106 341 -131Q356 -170 320 -188Q346 -195 350 -223Q353 -242 339 -256Q328 -268 303 -276Z"/>
</svg>