<svg xmlns="http://www.w3.org/2000/svg" viewBox="0 -512 512 512">
	<path fill="#000000" d="M268 -381Q258 -381 250 -375.5Q242 -370 241 -362Q240 -354 247 -348L308 -299L122 -298Q110 -298 100.5 -291.5Q91 -285 88.5 -275Q86 -265 93 -258Q100 -251 112 -251L207 -252L38 -122Q25 -112 22 -99Q19 -86 26.5 -76.5Q34 -67 48 -67Q62 -67 75 -76L166 -152V-146Q165 -139 165 -135Q165 -124 170 -108Q179 -78 201.5 -53.5Q224 -29 256.5 -14.5Q289 0 327 0Q365 0 399 -15Q430 -29 452.5 -54Q475 -79 484 -109Q489 -122 491 -139Q491 -159 489 -169Q485 -198 470 -222Q455 -246 433 -263L286 -376Q279 -381 268 -381ZM327 -252Q365 -252 394 -228Q408 -217 416.5 -202Q425 -187 426.5 -168.5Q428 -150 421.5 -133Q415 -116 401 -101.5Q387 -87 368 -79Q349 -71 327.5 -71Q306 -71 286.5 -78.5Q267 -86 253 -100.5Q239 -115 232.5 -132.5Q226 -150 228 -168Q230 -186 238.5 -201.5Q247 -217 261 -228Q289 -252 327 -252ZM329 -222Q304 -222 285.5 -206Q267 -190 266 -166.5Q265 -143 283 -125Q301 -107 329 -107Q357 -107 375.5 -125Q394 -143 393 -166.5Q392 -190 373 -206Q354 -222 329 -222Z"/>
</svg>