<svg xmlns="http://www.w3.org/2000/svg" viewBox="0 -512 512 512">
	<path fill="#000000" d="M64 -405H448Q457 -405 463 -399Q469 -393 469 -384V-341Q469 -332 463 -326Q457 -320 448 -320H427V-171Q427 -162 420.5 -155.5Q414 -149 405 -149H277V-103Q296 -96 308 -79.5Q320 -63 320 -43Q320 -16 301.5 2.5Q283 21 256 21Q229 21 210.5 2.5Q192 -16 192 -43Q192 -63 204 -79.5Q216 -96 235 -103V-149H107Q98 -149 91.5 -155.5Q85 -162 85 -171V-320H64Q55 -320 49 -326Q43 -332 43 -341V-384Q43 -393 49 -399Q55 -405 64 -405ZM256 -64Q247 -64 241 -58Q235 -52 235 -43Q235 -34 241 -27.5Q247 -21 256 -21Q265 -21 271 -27.5Q277 -34 277 -43Q277 -52 271 -58Q265 -64 256 -64Z"/>
</svg>