<svg xmlns="http://www.w3.org/2000/svg" viewBox="0 -512 512 512">
	<path fill="#000000" d="M64 -405H448Q457 -405 463 -399Q469 -393 469 -384V-341Q469 -333 463 -326.5Q457 -320 448 -320H427V-299Q427 -290 420.5 -283.5Q414 -277 405 -277H277V-231Q296 -224 308 -207.5Q320 -191 320 -171Q320 -144 301.5 -125.5Q283 -107 256 -107Q229 -107 210.5 -125.5Q192 -144 192 -171Q192 -191 204 -207.5Q216 -224 235 -231V-277H107Q98 -277 91.5 -283.5Q85 -290 85 -299V-320H64Q55 -320 49 -326.5Q43 -333 43 -341V-384Q43 -393 49 -399Q55 -405 64 -405ZM256 -192Q247 -192 241 -185.5Q235 -179 235 -170.5Q235 -162 241 -155.5Q247 -149 256 -149Q265 -149 271 -155.5Q277 -162 277 -170.5Q277 -179 271 -185.5Q265 -192 256 -192Z"/>
</svg>