<svg xmlns="http://www.w3.org/2000/svg" viewBox="0 -512 512 512">
	<path fill="#000000" d="M256 -448Q326 -448 384.5 -413.5Q443 -379 477.5 -320.5Q512 -262 512 -192Q512 -122 477.5 -63.5Q443 -5 384.5 29.5Q326 64 256 64Q186 64 127.5 29.5Q69 -5 34.5 -63.5Q0 -122 0 -192Q0 -262 34.5 -320.5Q69 -379 127.5 -413.5Q186 -448 256 -448ZM256 -405Q214 -405 174.5 -389Q135 -373 105 -343Q75 -313 59 -273.5Q43 -234 43 -192Q43 -154 55.5 -119.5Q68 -85 91 -57L391 -357Q363 -380 328.5 -392.5Q294 -405 256 -405ZM256 21Q298 21 337.5 5Q377 -11 407 -41Q437 -71 453 -110.5Q469 -150 469 -192Q469 -230 456.5 -264.5Q444 -299 421 -327L121 -27Q149 -4 183.5 8.5Q218 21 256 21Z"/>
</svg>