<svg xmlns="http://www.w3.org/2000/svg" viewBox="0 -512 512 512">
	<path fill="#000000" d="M448 -299Q439 -299 433 -304Q429 -308 427 -314V-320V-341H384V-299H341V-320Q341 -342 331 -364Q317 -391 292 -407Q260 -427 213.5 -427Q167 -427 135 -407Q109 -391 96 -364Q85 -342 85 -320V-43Q85 -29 79 -19Q69 0 43 0V43Q72 43 93 28Q110 16 120 -5Q128 -24 128 -43V-320Q128 -328 131 -338Q138 -356 154 -368Q176 -384 213 -384Q250 -384 272 -369Q288 -358 295 -339Q299 -329 299 -320V-299H256V-341H213V-320V-314Q211 -308 207 -304Q201 -299 192 -299Q179 -299 173 -288Q171 -283 171 -277V-21L172 -15Q176 -7 184 0Q196 9 216 15Q241 21 277 21H363Q399 21 424 15Q444 9 456 0Q464 -7 468 -15L469 -21V-277V-283Q467 -289 463 -293Q457 -299 448 -299ZM320 -34Q293 -34 274.5 -53Q256 -72 256 -98Q256 -117 273 -147Q284 -168 303 -193L320 -213L337 -193Q356 -168 367 -147Q384 -117 384 -98Q384 -72 365.5 -53Q347 -34 320 -34Z"/>
</svg>