<svg xmlns="http://www.w3.org/2000/svg" viewBox="0 -512 512 512">
	<path fill="#000000" d="M277 -85Q286 -85 292.5 -91.5Q299 -98 299 -107Q299 -116 292.5 -122Q286 -128 277 -128Q268 -128 262 -122Q256 -116 256 -107Q256 -98 262 -91.5Q268 -85 277 -85ZM277 -171Q286 -171 292.5 -177Q299 -183 299 -192Q299 -201 292.5 -207Q286 -213 277 -213Q268 -213 262 -207Q256 -201 256 -192Q256 -183 262 -177Q268 -171 277 -171ZM277 -256Q286 -256 292.5 -262Q299 -268 299 -277Q299 -286 292.5 -292.5Q286 -299 277 -299Q268 -299 262 -292.5Q256 -286 256 -277Q256 -268 262 -262Q268 -256 277 -256ZM363 -181Q367 -181 370 -184.5Q373 -188 373 -192Q373 -196 370 -199.5Q367 -203 362.5 -203Q358 -203 355 -199.5Q352 -196 352 -192Q352 -188 355 -184.5Q358 -181 363 -181ZM363 -267Q367 -267 370 -270Q373 -273 373 -277.5Q373 -282 370 -285Q367 -288 362.5 -288Q358 -288 355 -285Q352 -282 352 -277.5Q352 -273 355 -270Q358 -267 363 -267ZM64 -384V-341H448V-384ZM363 -96Q367 -96 370 -99Q373 -102 373 -106.5Q373 -111 370 -114Q367 -117 362.5 -117Q358 -117 355 -114Q352 -111 352 -106.5Q352 -102 355 -99Q358 -96 363 -96ZM192 -85Q201 -85 207 -91.5Q213 -98 213 -107Q213 -116 207 -122Q201 -128 192 -128Q183 -128 177 -122Q171 -116 171 -107Q171 -98 177 -91.5Q183 -85 192 -85ZM107 -160Q120 -160 129.5 -169.5Q139 -179 139 -192Q139 -205 129.5 -214.5Q120 -224 106.5 -224Q93 -224 84 -214.5Q75 -205 75 -192Q75 -179 84 -169.5Q93 -160 107 -160ZM107 -245Q120 -245 129.5 -254.5Q139 -264 139 -277.5Q139 -291 129.5 -300Q120 -309 106.5 -309Q93 -309 84 -300Q75 -291 75 -277.5Q75 -264 84 -254.5Q93 -245 107 -245ZM64 0H448V-43H64ZM192 -256Q201 -256 207 -262Q213 -268 213 -277Q213 -286 207 -292.5Q201 -299 192 -299Q183 -299 177 -292.5Q171 -286 171 -277Q171 -268 177 -262Q183 -256 192 -256ZM192 -171Q201 -171 207 -177Q213 -183 213 -192Q213 -201 207 -207Q201 -213 192 -213Q183 -213 177 -207Q171 -201 171 -192Q171 -183 177 -177Q183 -171 192 -171ZM107 -75Q120 -75 129.5 -84Q139 -93 139 -106.5Q139 -120 129.5 -129.5Q120 -139 106.5 -139Q93 -139 84 -129.5Q75 -120 75 -106.5Q75 -93 84 -84Q93 -75 107 -75Z"/>
</svg>