<svg xmlns="http://www.w3.org/2000/svg" viewBox="0 -512 512 512">
	<path fill="#000000" d="M299 -171Q290 -171 283.5 -164.5Q277 -158 277 -149Q277 -140 283.5 -134Q290 -128 299 -128Q308 -128 314 -134Q320 -140 320 -149Q320 -158 314 -164.5Q308 -171 299 -171ZM299 -96Q294 -96 291 -93Q288 -90 288 -85.5Q288 -81 291 -78Q294 -75 298.5 -75Q303 -75 306 -78Q309 -81 309 -85.5Q309 -90 306 -93Q303 -96 299 -96ZM256 -21Q210 -21 170.5 -44Q131 -67 108 -106.5Q85 -146 85 -192Q85 -238 108 -277.5Q131 -317 170.5 -340Q210 -363 256 -363Q302 -363 341.5 -340Q381 -317 404 -277.5Q427 -238 427 -192Q427 -146 404 -106.5Q381 -67 341.5 -44Q302 -21 256 -21ZM256 -405Q214 -405 174.5 -389Q135 -373 105 -343Q75 -313 59 -273.5Q43 -234 43 -192Q43 -150 59 -110.5Q75 -71 105 -41Q135 -11 174.5 5Q214 21 256 21Q298 21 337.5 5Q377 -11 407 -41Q437 -71 453 -110.5Q469 -150 469 -192Q469 -234 453 -273.5Q437 -313 407 -343Q377 -373 337.5 -389Q298 -405 256 -405ZM363 -245Q358 -245 355 -242Q352 -239 352 -234.5Q352 -230 355 -227Q358 -224 362.5 -224Q367 -224 370 -227Q373 -230 373 -234.5Q373 -239 370 -242Q367 -245 363 -245ZM363 -160Q358 -160 355 -157Q352 -154 352 -149.5Q352 -145 355 -142Q358 -139 362.5 -139Q367 -139 370 -142Q373 -145 373 -149.5Q373 -154 370 -157Q367 -160 363 -160ZM299 -288Q303 -288 306 -291Q309 -294 309 -298.5Q309 -303 306 -306Q303 -309 298.5 -309Q294 -309 291 -306Q288 -303 288 -298.5Q288 -294 291 -291Q294 -288 299 -288ZM299 -256Q290 -256 283.5 -250Q277 -244 277 -235Q277 -226 283.5 -219.5Q290 -213 299 -213Q308 -213 314 -219.5Q320 -226 320 -235Q320 -244 314 -250Q308 -256 299 -256ZM213 -288Q218 -288 221 -291Q224 -294 224 -298.5Q224 -303 221 -306Q218 -309 213.5 -309Q209 -309 206 -306Q203 -303 203 -298.5Q203 -294 206 -291Q209 -288 213 -288ZM149 -160Q145 -160 142 -157Q139 -154 139 -149.5Q139 -145 142 -142Q145 -139 149.5 -139Q154 -139 157 -142Q160 -145 160 -149.5Q160 -154 157 -157Q154 -160 149 -160ZM213 -96Q209 -96 206 -93Q203 -90 203 -85.5Q203 -81 206 -78Q209 -75 213.5 -75Q218 -75 221 -78Q224 -81 224 -85.5Q224 -90 221 -93Q218 -96 213 -96ZM149 -245Q145 -245 142 -242Q139 -239 139 -234.5Q139 -230 142 -227Q145 -224 149.5 -224Q154 -224 157 -227Q160 -230 160 -234.5Q160 -239 157 -242Q154 -245 149 -245ZM213 -171Q204 -171 198 -164.5Q192 -158 192 -149Q192 -140 198 -134Q204 -128 213 -128Q222 -128 228.5 -134Q235 -140 235 -149Q235 -158 228.5 -164.5Q222 -171 213 -171ZM213 -256Q204 -256 198 -250Q192 -244 192 -235Q192 -226 198 -219.5Q204 -213 213 -213Q222 -213 228.5 -219.5Q235 -226 235 -235Q235 -244 228.5 -250Q222 -256 213 -256Z"/>
</svg>