<svg xmlns="http://www.w3.org/2000/svg" viewBox="0 -512 512 512">
	<path fill="#000000" d="M299 -267Q285 -267 276 -257.5Q267 -248 267 -234.5Q267 -221 276 -212Q285 -203 298.5 -203Q312 -203 321.5 -212Q331 -221 331 -234.5Q331 -248 321.5 -257.5Q312 -267 299 -267ZM299 -181Q285 -181 276 -172Q267 -163 267 -149.5Q267 -136 276 -126.5Q285 -117 298.5 -117Q312 -117 321.5 -126.5Q331 -136 331 -149.5Q331 -163 321.5 -172Q312 -181 299 -181ZM213 -85Q204 -85 198 -79Q192 -73 192 -64Q192 -55 198 -49Q204 -43 213 -43Q222 -43 228.5 -49Q235 -55 235 -64Q235 -73 228.5 -79Q222 -85 213 -85ZM213 -267Q200 -267 190.5 -257.5Q181 -248 181 -234.5Q181 -221 190.5 -212Q200 -203 213.5 -203Q227 -203 236 -212Q245 -221 245 -234.5Q245 -248 236 -257.5Q227 -267 213 -267ZM299 -11Q294 -11 291 -7.5Q288 -4 288 0Q288 4 291 7.5Q294 11 298.5 11Q303 11 306 7.5Q309 4 309 0Q309 -4 306 -7.5Q303 -11 299 -11ZM299 -85Q290 -85 283.5 -79Q277 -73 277 -64Q277 -55 283.5 -49Q290 -43 299 -43Q308 -43 314 -49Q320 -55 320 -64Q320 -73 314 -79Q308 -85 299 -85ZM448 -160Q444 -160 440.5 -157Q437 -154 437 -149.5Q437 -145 440.5 -142Q444 -139 448 -139Q452 -139 455.5 -142Q459 -145 459 -149.5Q459 -154 455.5 -157Q452 -160 448 -160ZM384 -341Q375 -341 369 -335Q363 -329 363 -320Q363 -311 369 -305Q375 -299 384 -299Q393 -299 399 -305Q405 -311 405 -320Q405 -329 399 -335Q393 -341 384 -341ZM384 -256Q375 -256 369 -250Q363 -244 363 -235Q363 -226 369 -219.5Q375 -213 384 -213Q393 -213 399 -219.5Q405 -226 405 -235Q405 -244 399 -250Q393 -256 384 -256ZM384 -85Q375 -85 369 -79Q363 -73 363 -64Q363 -55 369 -49Q375 -43 384 -43Q393 -43 399 -49Q405 -55 405 -64Q405 -73 399 -79Q393 -85 384 -85ZM384 -171Q375 -171 369 -164.5Q363 -158 363 -149Q363 -140 369 -134Q375 -128 384 -128Q393 -128 399 -134Q405 -140 405 -149Q405 -158 399 -164.5Q393 -171 384 -171ZM213 -181Q200 -181 190.5 -172Q181 -163 181 -149.5Q181 -136 190.5 -126.5Q200 -117 213.5 -117Q227 -117 236 -126.5Q245 -136 245 -149.5Q245 -163 236 -172Q227 -181 213 -181ZM213 -299Q222 -299 228.5 -305Q235 -311 235 -320Q235 -329 228.5 -335Q222 -341 213 -341Q204 -341 198 -335Q192 -329 192 -320Q192 -311 198 -305Q204 -299 213 -299ZM213 -373Q218 -373 221 -376.5Q224 -380 224 -384Q224 -388 221 -391.5Q218 -395 213.5 -395Q209 -395 206 -391.5Q203 -388 203 -384Q203 -380 206 -376.5Q209 -373 213 -373ZM213 -11Q209 -11 206 -7.5Q203 -4 203 0Q203 4 206 7.5Q209 11 213.5 11Q218 11 221 7.5Q224 4 224 0Q224 -4 221 -7.5Q218 -11 213 -11ZM64 -160Q60 -160 56.5 -157Q53 -154 53 -149.5Q53 -145 56.5 -142Q60 -139 64 -139Q68 -139 71.5 -142Q75 -145 75 -149.5Q75 -154 71.5 -157Q68 -160 64 -160ZM299 -373Q303 -373 306 -376.5Q309 -380 309 -384Q309 -388 306 -391.5Q303 -395 298.5 -395Q294 -395 291 -391.5Q288 -388 288 -384Q288 -380 291 -376.5Q294 -373 299 -373ZM299 -299Q308 -299 314 -305Q320 -311 320 -320Q320 -329 314 -335Q308 -341 299 -341Q290 -341 283.5 -335Q277 -329 277 -320Q277 -311 283.5 -305Q290 -299 299 -299ZM448 -224Q452 -224 455.5 -227Q459 -230 459 -234.5Q459 -239 455.5 -242Q452 -245 448 -245Q444 -245 440.5 -242Q437 -239 437 -234.5Q437 -230 440.5 -227Q444 -224 448 -224ZM128 -341Q119 -341 113 -335Q107 -329 107 -320Q107 -311 113 -305Q119 -299 128 -299Q137 -299 143 -305Q149 -311 149 -320Q149 -329 143 -335Q137 -341 128 -341ZM64 -245Q60 -245 56.5 -242Q53 -239 53 -234.5Q53 -230 56.5 -227Q60 -224 64 -224Q68 -224 71.5 -227Q75 -230 75 -234.5Q75 -239 71.5 -242Q68 -245 64 -245ZM128 -256Q119 -256 113 -250Q107 -244 107 -235Q107 -226 113 -219.5Q119 -213 128 -213Q137 -213 143 -219.5Q149 -226 149 -235Q149 -244 143 -250Q137 -256 128 -256ZM128 -85Q119 -85 113 -79Q107 -73 107 -64Q107 -55 113 -49Q119 -43 128 -43Q137 -43 143 -49Q149 -55 149 -64Q149 -73 143 -79Q137 -85 128 -85ZM128 -171Q119 -171 113 -164.5Q107 -158 107 -149Q107 -140 113 -134Q119 -128 128 -128Q137 -128 143 -134Q149 -140 149 -149Q149 -158 143 -164.5Q137 -171 128 -171Z"/>
</svg>