<svg xmlns="http://www.w3.org/2000/svg" viewBox="0 -512 512 512">
	<path fill="#000000" d="M309 -389Q281 -389 260.5 -369Q240 -349 240 -320H213V-292Q192 -286 172 -273L380 -66Q405 -103 405 -149Q405 -199 375 -239Q345 -279 299 -292V-320H272Q272 -335 283 -346Q294 -357 309.5 -357Q325 -357 336 -346Q347 -335 347 -320Q347 -300 361 -286Q375 -272 394.5 -272Q414 -272 428 -286Q442 -300 442 -320V-336H411V-320Q411 -313 406 -308.5Q401 -304 394.5 -304Q388 -304 383.5 -308.5Q379 -313 379 -320Q379 -349 358.5 -369Q338 -389 309 -389ZM73 -312L43 -282L118 -207Q107 -179 107 -149Q107 -109 127 -74.5Q147 -40 181 -20Q215 0 256 0Q285 0 313 -12L389 64L419 34Z"/>
</svg>