<svg xmlns="http://www.w3.org/2000/svg" viewBox="0 -512 512 512">
	<path fill="#000000" d="M240 -320Q240 -349 260.5 -369Q281 -389 309.5 -389Q338 -389 358.5 -369Q379 -349 379 -320Q379 -313 383.5 -308.5Q388 -304 394.5 -304Q401 -304 406 -308.5Q411 -313 411 -320V-336H443V-320Q443 -300 429 -286Q415 -272 395 -272Q375 -272 361 -286Q347 -300 347 -320Q347 -335 336 -346Q325 -357 309.5 -357Q294 -357 283 -346Q272 -335 272 -320H299V-292Q345 -279 375 -239Q405 -199 405 -149Q405 -109 385 -74.5Q365 -40 331 -20Q297 0 256 0Q215 0 181 -20Q147 -40 127 -74.5Q107 -109 107 -149Q107 -199 137 -239Q167 -279 213 -292V-320ZM469 -320H512V-299H469ZM405 -363V-405H427V-363ZM446 -355L476 -385L492 -370L461 -339Z"/>
</svg>