<svg xmlns="http://www.w3.org/2000/svg" viewBox="0 -512 512 512">
	<path fill="#000000" d="M471 11L51 -412L23 -384L109 -299H107Q79 -299 61 -280.5Q43 -262 43 -235.5Q43 -209 60 -192Q43 -175 43 -148.5Q43 -122 61 -103.5Q79 -85 106.5 -85Q134 -85 152.5 -103.5Q171 -122 171 -149Q226 -154 254 -154L444 36ZM427 -90L284 -233Q293 -233 312.5 -234Q332 -235 341 -235Q341 -262 359.5 -280.5Q378 -299 405.5 -299Q433 -299 451 -280.5Q469 -262 469 -235.5Q469 -209 452 -192Q469 -175 469 -149Q469 -129 457.5 -112.5Q446 -96 427 -90Z"/>
</svg>