<svg xmlns="http://www.w3.org/2000/svg" viewBox="0 -512 512 512">
	<path fill="#000000" d="M171 -149Q171 -123 152 -104Q133 -85 106.5 -85Q80 -85 61.5 -104Q43 -123 43 -148.5Q43 -174 59 -192Q43 -210 43 -235.5Q43 -261 61.5 -280Q80 -299 106.5 -299Q133 -299 152 -280Q171 -261 171 -235L179 -234Q230 -231 256 -231Q282 -231 333 -234L341 -235Q341 -261 360 -280Q379 -299 405.5 -299Q432 -299 450.5 -280Q469 -261 469 -235.5Q469 -210 453 -192Q469 -174 469 -148.5Q469 -123 450.5 -104Q432 -85 405.5 -85Q379 -85 360 -104Q341 -123 341 -149L333 -150Q282 -153 256 -153Q230 -153 179 -150Z"/>
</svg>