<svg xmlns="http://www.w3.org/2000/svg" viewBox="0 -512 512 512">
	<path fill="#000000" d="M139 -21Q166 -21 200.5 -12Q235 -3 256 11Q277 -3 311.5 -12Q346 -21 373 -21Q433 -21 475 1Q477 2 480.5 2Q484 2 487.5 -1.5Q491 -5 491 -9V-320Q474 -333 448 -341Q414 -352 373 -352Q339 -352 311 -345Q278 -337 256 -320Q234 -337 201 -345Q173 -352 139 -352Q98 -352 64 -341Q38 -333 21 -320V-9Q21 -5 24.5 -1.5Q28 2 31.5 2Q35 2 37 1Q79 -21 139 -21ZM256 -32V-277Q277 -291 311.5 -300Q346 -309 373 -309Q414 -309 448 -299V-53Q414 -64 373 -64Q346 -64 311.5 -54.5Q277 -45 256 -32Z"/>
</svg>