<svg xmlns="http://www.w3.org/2000/svg" viewBox="0 -512 512 512">
	<path fill="#000000" d="M427 -208V-363Q427 -380 414.5 -392.5Q402 -405 384 -405H128Q110 -405 97.5 -392.5Q85 -380 85 -363V-21Q85 -4 97.5 8.5Q110 21 128 21H237Q258 42 284.5 53Q311 64 341 64Q382 64 416.5 44Q451 24 471 -10.5Q491 -45 491 -85Q491 -123 473.5 -155Q456 -187 427 -208ZM384 -363V-228Q362 -235 341 -235Q308 -235 277 -220V-363ZM128 -363H171V-192L224 -240L258 -209Q228 -189 210 -156Q192 -123 192 -85Q192 -52 207 -21H128ZM341 21Q312 21 287.5 7Q263 -7 249 -31.5Q235 -56 235 -85Q235 -114 249 -138.5Q263 -163 287.5 -177.5Q312 -192 341 -192Q370 -192 394.5 -177.5Q419 -163 433.5 -138.5Q448 -114 448 -85Q448 -56 433.5 -31.5Q419 -7 394.5 7Q370 21 341 21ZM352 -80L413 -44L397 -18L320 -64V-171H352Z"/>
</svg>