<svg xmlns="http://www.w3.org/2000/svg" viewBox="0 -512 512 512">
	<path fill="#000000" d="M277 -75Q277 -47 287.5 -22.5Q298 2 316 21H128Q110 21 97.5 8.5Q85 -4 85 -21V-363Q85 -380 97.5 -392.5Q110 -405 128 -405H149V-256L203 -288L256 -256V-405H384Q402 -405 414.5 -392.5Q427 -380 427 -363V-213Q423 -213 416 -213Q378 -213 346.5 -194.5Q315 -176 296 -144Q277 -112 277 -75ZM405 -21Q383 -21 367.5 -37Q352 -53 352 -75Q352 -87 358 -99L334 -122Q320 -100 320 -75Q320 -39 345 -14Q370 11 405 11V43L453 -5L405 -53ZM405 -160V-192L357 -144L405 -96V-128Q427 -128 443 -112.5Q459 -97 459 -75Q459 -62 453 -51L476 -28Q491 -49 491 -75Q491 -110 466 -135Q441 -160 405 -160Z"/>
</svg>