<svg xmlns="http://www.w3.org/2000/svg" viewBox="0 -512 512 512">
	<path fill="#000000" d="M384 -405Q402 -405 414.5 -392.5Q427 -380 427 -363V-21Q427 -4 414.5 8.5Q402 21 384 21H128Q110 21 97.5 8.5Q85 -4 85 -21V-363Q85 -380 97.5 -392.5Q110 -405 128 -405ZM384 -363H277V-256L224 -305L171 -256V-363H128V-21H384ZM277 -213Q290 -213 301 -206Q312 -199 317 -187Q322 -175 319.5 -162.5Q317 -150 307.5 -140.5Q298 -131 285.5 -128.5Q273 -126 261 -131Q249 -136 242 -147Q235 -158 235 -171Q235 -188 247.5 -200.5Q260 -213 277 -213ZM363 -43H192V-64Q192 -83 224 -96Q251 -107 277.5 -107Q304 -107 331 -96Q363 -83 363 -64Z"/>
</svg>