<svg xmlns="http://www.w3.org/2000/svg" viewBox="0 -512 512 512">
	<path fill="#000000" d="M256 11Q235 -3 200.5 -12Q166 -21 139 -21Q79 -21 37 1Q35 2 31.5 2Q28 2 24.5 -1.5Q21 -5 21 -9V-320Q38 -333 64 -341Q98 -352 139 -352Q173 -352 201 -345Q234 -337 256 -320Q278 -337 311 -345Q339 -352 373 -352Q414 -352 448 -341Q474 -333 491 -320V-9Q491 -5 487.5 -1.5Q484 2 480.5 2Q477 2 475 1Q433 -21 373 -21Q346 -21 311.5 -12Q277 -3 256 11ZM256 -277V-32Q277 -45 311.5 -54.5Q346 -64 373 -64Q414 -64 448 -53V-299Q414 -309 373 -309Q346 -309 311.5 -300Q277 -291 256 -277ZM277 -203Q312 -224 373 -224Q403 -224 427 -218V-251Q398 -256 373 -256Q317 -256 277 -238ZM373 -199Q318 -199 277 -182V-146Q313 -167 373 -167Q407 -167 427 -162V-194Q400 -199 373 -199ZM427 -137Q399 -142 373 -142Q315 -142 277 -125V-89Q313 -110 373 -110Q407 -110 427 -105Z"/>
</svg>