<svg xmlns="http://www.w3.org/2000/svg" viewBox="0 -512 512 512">
	<path fill="#000000" d="M384 -405H256V-256L203 -288L149 -256V-405H128Q110 -405 97.5 -392.5Q85 -380 85 -363V-21Q85 -4 97.5 8.5Q110 21 128 21H384Q402 21 414.5 8.5Q427 -4 427 -21V-363Q427 -380 414.5 -392.5Q402 -405 384 -405ZM299 -192Q312 -192 322.5 -185Q333 -178 338 -166Q343 -154 340.5 -141Q338 -128 329 -119Q320 -110 307 -107.5Q294 -105 282 -110Q270 -115 263 -125.5Q256 -136 256 -149Q256 -167 268.5 -179.5Q281 -192 299 -192ZM384 -21H213V-43Q213 -62 245 -75Q272 -85 298.5 -85Q325 -85 352 -75Q384 -62 384 -43Z"/>
</svg>