<svg xmlns="http://www.w3.org/2000/svg" viewBox="0 -512 512 512">
	<path fill="#000000" d="M277 -6Q277 8 283 21H128Q110 21 97.5 8.5Q85 -4 85 -21V-363Q85 -380 97.5 -392.5Q110 -405 128 -405H384Q402 -405 414.5 -392.5Q427 -380 427 -363V-232Q416 -235 405.5 -235Q395 -235 384 -232V-363H277V-192L224 -240L171 -192V-363H128V-21H277ZM491 -79V-4Q491 6 482.5 13.5Q474 21 463 21H346Q336 21 328 13Q320 5 320 -6V-81Q320 -91 328 -99Q336 -107 346 -107V-139Q346 -161 364 -176.5Q382 -192 405 -192Q428 -192 446.5 -176.5Q465 -161 465 -139V-107Q475 -107 483 -98.5Q491 -90 491 -79ZM437 -139Q437 -151 428 -158.5Q419 -166 405.5 -166Q392 -166 382.5 -158.5Q373 -151 373 -139V-107H437Z"/>
</svg>