<svg xmlns="http://www.w3.org/2000/svg" viewBox="0 -512 512 512">
	<path fill="#000000" d="M331 -192Q371 -192 399 -164Q427 -136 427 -96Q427 -68 412 -45L478 21L448 51L381 -15Q358 0 331 0Q291 0 263 -28Q235 -56 235 -96Q235 -136 263 -164Q291 -192 331 -192ZM331 -149Q309 -149 293 -133.5Q277 -118 277 -96Q277 -74 293 -58.5Q309 -43 331 -43Q353 -43 368.5 -58.5Q384 -74 384 -96Q384 -118 368.5 -133.5Q353 -149 331 -149ZM277 -363V-192L224 -240L171 -192V-363H128V-21H213Q231 5 257 21H128Q110 21 97.5 8.5Q85 -4 85 -21V-363Q85 -380 97.5 -392.5Q110 -405 128 -405H384Q402 -405 414.5 -392.5Q427 -380 427 -363V-196Q407 -214 384 -224V-363Z"/>
</svg>