<svg xmlns="http://www.w3.org/2000/svg" viewBox="0 -512 512 512">
	<path fill="#000000" d="M279 -21H107V-320H64V-21Q64 -4 76.5 8.5Q89 21 107 21H295Q283 2 279 -21ZM405 -405H299V-299L256 -331L213 -299V-405H192Q174 -405 161.5 -392.5Q149 -380 149 -363V-107Q149 -89 161.5 -76.5Q174 -64 192 -64H279Q284 -92 300 -115.5Q316 -139 340.5 -153Q365 -167 393 -170Q421 -173 448 -163V-363Q448 -380 435.5 -392.5Q423 -405 405 -405ZM481 -88L435 -43L481 3L451 33L405 -13L360 33L330 3L375 -43L330 -88L360 -118L405 -73L451 -118Z"/>
</svg>