<svg xmlns="http://www.w3.org/2000/svg" viewBox="0 -512 512 512">
	<path fill="#000000" d="M405 49L393 38L383 29Q349 -3 337 -17Q320 -40 320 -59.5Q320 -79 334 -93Q348 -107 367 -107Q378 -107 388.5 -102.5Q399 -98 405 -90Q412 -98 422 -102.5Q432 -107 444 -107Q463 -107 477 -93.5Q491 -80 491 -60Q491 -40 473 -17Q462 -3 428 29L418 38ZM384 -405Q402 -405 414.5 -392.5Q427 -380 427 -363V-169L405 -171L384 -169V-363H277V-192L224 -240L171 -192V-363H128V-21H279Q283 1 294 21H128Q110 21 97.5 8.5Q85 -4 85 -21V-363Q85 -380 97.5 -392.5Q110 -405 128 -405Z"/>
</svg>