<svg xmlns="http://www.w3.org/2000/svg" viewBox="0 -512 512 512">
	<path fill="#000000" d="M352 -80L413 -44L397 -18L320 -64V-171H352ZM491 -85Q491 -45 471 -10.5Q451 24 416.5 44Q382 64 341 64Q311 64 284.5 53Q258 42 237 21H128Q110 21 97.5 8.5Q85 -4 85 -21V-363Q85 -380 97.5 -392.5Q110 -405 128 -405H149V-256L203 -288L256 -256V-405H384Q402 -405 414.5 -392.5Q427 -380 427 -363V-208Q456 -187 473.5 -155Q491 -123 491 -85ZM448 -85Q448 -114 433.5 -138.5Q419 -163 394.5 -177.5Q370 -192 341 -192Q312 -192 287.5 -177.5Q263 -163 249 -138.5Q235 -114 235 -85Q235 -56 249 -31.5Q263 -7 287.5 7Q312 21 341 21Q370 21 394.5 7Q419 -7 433.5 -31.5Q448 -56 448 -85Z"/>
</svg>