<svg xmlns="http://www.w3.org/2000/svg" viewBox="0 -512 512 512">
	<path fill="#000000" d="M277 -6Q277 8 283 21H128Q110 21 97.5 8.5Q85 -4 85 -21V-363Q85 -380 97.5 -392.5Q110 -405 128 -405H384Q402 -405 414.5 -392.5Q427 -380 427 -363V-254Q416 -256 405.5 -256Q395 -256 384 -254V-363H277V-192L224 -240L171 -192V-363H128V-21H277ZM465 -107H373V-160Q373 -172 382.5 -180Q392 -188 405.5 -188Q419 -188 428 -180Q437 -172 437 -160V-149H465V-160Q465 -182 446.5 -197.5Q428 -213 405 -213Q382 -213 364 -197.5Q346 -182 346 -160V-107Q336 -107 328 -99Q320 -91 320 -81V-6Q320 5 328 13Q336 21 346 21H463Q474 21 482.5 13.5Q491 6 491 -4V-79Q491 -90 483 -98.5Q475 -107 465 -107Z"/>
</svg>