<svg xmlns="http://www.w3.org/2000/svg" viewBox="0 -512 512 512">
	<path fill="#000000" d="M256 11Q235 -3 200.5 -12Q166 -21 139 -21Q79 -21 37 1Q35 2 31.5 2Q28 2 24.5 -1.5Q21 -5 21 -9V-320Q38 -333 64 -341Q98 -352 139 -352Q173 -352 201 -345Q234 -337 256 -320Q278 -337 311 -345Q339 -352 373 -352Q414 -352 448 -341Q474 -333 491 -320V-9Q491 -5 487.5 -1.5Q484 2 480.5 2Q477 2 475 1Q433 -21 373 -21Q346 -21 311.5 -12Q277 -3 256 11ZM235 -288Q213 -298 186.5 -303.5Q160 -309 139 -309Q98 -309 64 -299V-53Q98 -64 139 -64Q160 -64 186.5 -58Q213 -52 235 -43ZM277 -43Q299 -52 325.5 -58Q352 -64 373 -64Q414 -64 448 -53V-299Q414 -309 373 -309Q352 -309 325.5 -303.5Q299 -298 277 -288ZM299 -99Q329 -110 373 -110Q407 -110 427 -105V-137Q399 -142 373 -142Q334 -142 299 -133ZM299 -156Q330 -167 373 -167Q407 -167 427 -162V-194Q400 -199 373 -199Q332 -199 299 -189ZM299 -213Q330 -224 373 -224Q403 -224 427 -218V-251Q398 -256 373 -256Q330 -256 299 -246Z"/>
</svg>