<svg xmlns="http://www.w3.org/2000/svg" viewBox="0 -512 512 512">
	<path fill="#000000" d="M427 -256H175Q158 -276 131.5 -277Q105 -278 84.5 -260Q64 -242 64 -213V-21Q55 -21 49 -15Q43 -9 43 0V21H213V0Q213 -9 207 -15Q201 -21 192 -21V-171H427Q444 -171 456.5 -183.5Q469 -196 469 -213.5Q469 -231 456.5 -243.5Q444 -256 427 -256ZM160 -21H96V-158Q111 -149 128 -149Q145 -149 160 -158ZM128 -181Q115 -181 105.5 -190.5Q96 -200 96 -213.5Q96 -227 105.5 -236Q115 -245 128 -245Q141 -245 150.5 -236Q160 -227 160 -213.5Q160 -200 150.5 -190.5Q141 -181 128 -181ZM224 -192L192 -235H224L256 -192ZM309 -192L277 -235H309L341 -192ZM395 -192L363 -235H395L427 -192Z"/>
</svg>