<svg xmlns="http://www.w3.org/2000/svg" viewBox="0 -512 512 512">
	<path fill="#000000" d="M424 -384Q415 -399 398 -404Q381 -409 365 -400L148 -274Q137 -277 128 -277Q101 -277 82.5 -258.5Q64 -240 64 -213V-21Q55 -21 49 -15Q43 -9 43 0V21H213V0Q213 -9 207 -15Q201 -21 192 -21V-201L408 -326Q423 -335 427.5 -352Q432 -369 424 -384ZM128 -181Q115 -181 105.5 -190.5Q96 -200 96 -213.5Q96 -227 105.5 -236Q115 -245 128 -245Q141 -245 150.5 -236Q160 -227 160 -213.5Q160 -200 150.5 -190.5Q141 -181 128 -181ZM222 -243L173 -264L201 -280L250 -259ZM296 -285L247 -307L274 -323L323 -301ZM370 -328L321 -349L348 -365L397 -344ZM363 -213L469 -107H405V-21H320V-107H256Z"/>
</svg>