<svg xmlns="http://www.w3.org/2000/svg" viewBox="0 -512 512 512">
	<path fill="#000000" d="M424 -384Q432 -369 427.5 -352Q423 -335 408 -326L192 -201V-21Q201 -21 207 -15Q213 -9 213 0V21H43V0Q43 -9 49 -15Q55 -21 64 -21V-213Q64 -240 82.5 -258.5Q101 -277 128 -277Q137 -277 148 -274L365 -400Q381 -409 398 -404Q415 -399 424 -384ZM160 -21V-158Q145 -149 128 -149Q111 -149 96 -158V-21ZM128 -181Q141 -181 150.5 -190.5Q160 -200 160 -213.5Q160 -227 150.5 -236Q141 -245 128 -245Q115 -245 105.5 -236Q96 -227 96 -213.5Q96 -200 105.5 -190.5Q115 -181 128 -181ZM222 -243L250 -259L201 -280L173 -264ZM296 -285L323 -301L274 -323L247 -307ZM370 -328L397 -344L348 -365L321 -349ZM341 -21V-128H277L363 -210L448 -128H384V-21Z"/>
</svg>