<svg xmlns="http://www.w3.org/2000/svg" viewBox="0 -512 512 512">
	<path fill="#000000" d="M425 -384Q415 -400 398 -404.5Q381 -409 367 -399L147 -273Q134 -277 128 -277Q101 -277 82.5 -259Q64 -241 64 -213V-21Q54 -21 48.5 -15.5Q43 -10 43 0V21H213V0Q213 -10 207.5 -15.5Q202 -21 192 -21V-201L407 -324Q423 -334 428 -351Q433 -368 425 -384ZM160 -21H96V-158Q110 -150 128 -150Q146 -150 160 -158ZM128 -181Q115 -181 105.5 -191Q96 -201 96 -213.5Q96 -226 105.5 -235.5Q115 -245 128 -245Q141 -245 150.5 -235.5Q160 -226 160 -213.5Q160 -201 150.5 -191Q141 -181 128 -181ZM222 -243L173 -265L201 -282L250 -260ZM297 -286L247 -307L275 -324L324 -303ZM369 -329L320 -350L348 -367L397 -346ZM427 -107H384V-235H427ZM427 -21H384V-64H427Z"/>
</svg>