<svg xmlns="http://www.w3.org/2000/svg" viewBox="0 -512 512 512">
	<path fill="#000000" d="M149 -341L107 -299V-277H64Q55 -277 49 -271Q43 -265 43 -256V-85Q43 -76 49 -70Q55 -64 64 -64H448Q457 -64 463 -70Q469 -76 469 -85V-256Q469 -265 463 -271Q457 -277 448 -277H405V-299L363 -341ZM149 -299H363V-277H149ZM235 -256H277Q282 -256 285 -253Q288 -250 288 -245.5Q288 -241 285 -238Q282 -235 277 -235H235Q230 -235 227 -238Q224 -241 224 -245.5Q224 -250 227 -253Q230 -256 235 -256ZM160 -224Q187 -224 205.5 -205.5Q224 -187 224 -160Q224 -133 205.5 -114.5Q187 -96 160 -96Q133 -96 114.5 -114.5Q96 -133 96 -160Q96 -187 114.5 -205.5Q133 -224 160 -224ZM352 -224Q379 -224 397.5 -205.5Q416 -187 416 -160Q416 -133 397.5 -114.5Q379 -96 352 -96Q325 -96 306.5 -114.5Q288 -133 288 -160Q288 -187 306.5 -205.5Q325 -224 352 -224ZM160 -192Q147 -192 137.5 -182.5Q128 -173 128 -160Q128 -147 137.5 -137.5Q147 -128 160 -128Q173 -128 182.5 -137.5Q192 -147 192 -160Q192 -173 182.5 -182.5Q173 -192 160 -192ZM352 -192Q339 -192 329.5 -182.5Q320 -173 320 -160Q320 -147 329.5 -137.5Q339 -128 352 -128Q365 -128 374.5 -137.5Q384 -147 384 -160Q384 -173 374.5 -182.5Q365 -192 352 -192Z"/>
</svg>