<svg xmlns="http://www.w3.org/2000/svg" viewBox="0 -512 512 512">
	<path fill="#000000" d="M252 -203H207V-273H260Q280 -273 291 -264.5Q302 -256 302 -238.5Q302 -221 289 -212Q276 -203 252 -203ZM259 -179H207V-101H262Q313 -101 313 -140Q313 -179 259 -179ZM469 -335V-49Q469 -20 448.5 0.5Q428 21 399 21H113Q84 21 63.5 0.5Q43 -20 43 -49V-335Q43 -364 63.5 -384.5Q84 -405 113 -405H399Q428 -405 448.5 -384.5Q469 -364 469 -335ZM341 -139Q341 -161 327.5 -175.5Q314 -190 292 -193V-194Q308 -197 319 -211Q330 -225 330 -243Q330 -267 312.5 -282.5Q295 -298 267 -298H180V-77H266Q301 -77 321 -93.5Q341 -110 341 -139Z"/>
</svg>