<svg xmlns="http://www.w3.org/2000/svg" viewBox="0 -512 512 512">
	<path fill="#000000" d="M64 -107Q64 -77 78 -52.5Q92 -28 116.5 -14Q141 0 171 0H213V-43H171Q143 -43 125 -61Q107 -79 107 -107V-149H64ZM448 -277Q448 -307 434 -331.5Q420 -356 395.5 -370Q371 -384 341 -384H299V-341H341Q369 -341 387 -323Q405 -305 405 -277V-235H448ZM341 0Q371 0 395.5 -14Q420 -28 434 -52.5Q448 -77 448 -107V-149H405V-107Q405 -79 387 -61Q369 -43 341 -43H299V0ZM171 -384Q141 -384 116.5 -370Q92 -356 78 -331.5Q64 -307 64 -277V-235H107V-277Q107 -305 125 -323Q143 -341 171 -341H213V-384Z"/>
</svg>