<svg xmlns="http://www.w3.org/2000/svg" viewBox="0 -512 512 512">
	<path fill="#000000" d="M405 -171V21H107V-171Q107 -200 121 -224.5Q135 -249 159.5 -263Q184 -277 213 -277V-320H192V-341H320V-320H299V-277Q328 -277 352.5 -263Q377 -249 391 -224.5Q405 -200 405 -171ZM277 -363L299 -405H213L235 -363ZM256 -213Q221 -213 196 -188Q171 -163 171 -128Q171 -97 192 -73V-43H219V-75H243V-43H269V-75H293V-43H320V-73Q341 -97 341 -128Q341 -163 316 -188Q291 -213 256 -213ZM224 -128Q215 -128 209 -134.5Q203 -141 203 -149.5Q203 -158 209 -164.5Q215 -171 224 -171Q233 -171 239 -164.5Q245 -158 245 -149.5Q245 -141 239 -134.5Q233 -128 224 -128ZM240 -101L256 -128L272 -101ZM288 -128Q279 -128 273 -134.5Q267 -141 267 -149.5Q267 -158 273 -164.5Q279 -171 288 -171Q297 -171 303 -164.5Q309 -158 309 -149.5Q309 -141 303 -134.5Q297 -128 288 -128Z"/>
</svg>