<svg xmlns="http://www.w3.org/2000/svg" viewBox="0 -512 512 512">
	<path fill="#000000" d="M213 -405V-363H233Q230 -344 216 -321Q208 -307 189 -281Q176 -264 171 -256V-154Q192 -135 192 -106.5Q192 -78 171 -59V-21Q171 -4 183.5 8.5Q196 21 213 21H299Q316 21 328.5 8.5Q341 -4 341 -21V-59Q320 -78 320 -106.5Q320 -135 341 -154V-256Q336 -264 323 -281Q304 -307 296 -321Q282 -344 279 -363H299V-405ZM256 -309Q262 -298 297 -258L299 -256V-171Q277 -142 277 -106.5Q277 -71 299 -43V-21H213V-43Q235 -71 235 -106.5Q235 -142 213 -171V-256L215 -258Q250 -298 256 -309Z"/>
</svg>