<svg xmlns="http://www.w3.org/2000/svg" viewBox="0 -512 512 512">
	<path fill="#000000" d="M277 -363H235L213 -405H299ZM299 -277V-320H320V-341H192V-320H213V-277Q184 -277 159.5 -263Q135 -249 121 -224.5Q107 -200 107 -171V21H405V-171Q405 -200 391 -224.5Q377 -249 352.5 -263Q328 -277 299 -277ZM363 -21H149V-171Q149 -197 168 -216Q187 -235 213 -235H299Q325 -235 344 -216Q363 -197 363 -171ZM256 -213Q221 -213 196 -188Q171 -163 171 -128Q171 -97 192 -73V-43H219V-75H243V-43H269V-75H293V-43H320V-73Q341 -97 341 -128Q341 -163 316 -188Q291 -213 256 -213ZM224 -128Q215 -128 209 -134.5Q203 -141 203 -149.5Q203 -158 209 -164.5Q215 -171 224 -171Q233 -171 239 -164.5Q245 -158 245 -149.5Q245 -141 239 -134.5Q233 -128 224 -128ZM240 -101L256 -128L272 -101ZM288 -128Q279 -128 273 -134.5Q267 -141 267 -149.5Q267 -158 273 -164.5Q279 -171 288 -171Q297 -171 303 -164.5Q309 -158 309 -149.5Q309 -141 303 -134.5Q297 -128 288 -128Z"/>
</svg>