<svg xmlns="http://www.w3.org/2000/svg" viewBox="0 -512 512 512">
	<path fill="#000000" d="M256 -405Q298 -405 337.5 -389Q377 -373 407 -343Q437 -313 453 -273.5Q469 -234 469 -192Q469 -150 453 -110.5Q437 -71 407 -41Q377 -11 337.5 5Q298 21 256 21Q214 21 174.5 5Q135 -11 105 -41Q75 -71 59 -110.5Q43 -150 43 -192Q43 -234 59 -273.5Q75 -313 105 -343Q135 -373 174.5 -389Q214 -405 256 -405ZM267 -213Q253 -213 244 -204Q235 -195 235 -181.5Q235 -168 244 -158.5Q253 -149 266.5 -149Q280 -149 289.5 -158.5Q299 -168 299 -181.5Q299 -195 289.5 -204Q280 -213 267 -213ZM256 -341Q238 -341 225.5 -328.5Q213 -316 213 -298.5Q213 -281 225.5 -268.5Q238 -256 256 -256Q274 -256 286.5 -268.5Q299 -281 299 -298.5Q299 -316 286.5 -328.5Q274 -341 256 -341ZM127 -267Q118 -251 122.5 -234Q127 -217 142 -208.5Q157 -200 174.5 -204.5Q192 -209 200.5 -224.5Q209 -240 204.5 -257Q200 -274 185 -282.5Q170 -291 153 -286.5Q136 -282 127 -267Z"/>
</svg>