<svg xmlns="http://www.w3.org/2000/svg" viewBox="0 -512 512 512">
	<path fill="#000000" d="M256 -405Q314 -405 363 -383.5Q412 -362 440.5 -325.5Q469 -289 469 -245Q469 -192 427 -149V21H85V-149Q43 -192 43 -245Q43 -289 71.5 -325.5Q100 -362 149 -383.5Q198 -405 256 -405ZM384 -168Q404 -184 415.5 -203.5Q427 -223 427 -245Q427 -277 404 -304Q381 -331 341.5 -347Q302 -363 256 -363Q210 -363 170.5 -347Q131 -331 108 -304Q85 -277 85 -245Q85 -223 96.5 -203.5Q108 -184 128 -168V-21H384ZM171 -64V-149H256V-64Z"/>
</svg>