<svg xmlns="http://www.w3.org/2000/svg" viewBox="0 -512 512 512">
	<path fill="#000000" d="M299 -405Q316 -405 328.5 -392.5Q341 -380 341 -363V-320H427Q444 -320 456.5 -307.5Q469 -295 469 -277L231 -43V0H85Q68 0 55.5 -12.5Q43 -25 43 -43V-277Q43 -295 55.5 -307.5Q68 -320 85 -320H171V-363Q171 -380 183.5 -392.5Q196 -405 213 -405ZM299 -320V-363H213V-320ZM449 -189Q444 -189 441 -186L419 -164L463 -121L484 -142Q488 -145 488 -150Q488 -155 484 -158L457 -186Q453 -189 449 -189ZM407 -152L277 -23V21H321L451 -108Z"/>
</svg>