<svg xmlns="http://www.w3.org/2000/svg" viewBox="0 -512 512 512">
	<path fill="#000000" d="M449 -189Q453 -189 457 -186L484 -158Q488 -155 488 -150Q488 -145 484 -142L463 -121L419 -164L441 -186Q444 -189 449 -189ZM407 -152L451 -108L321 21H277V-23ZM213 -405H299Q316 -405 328.5 -392.5Q341 -380 341 -363V-320H427Q444 -320 456.5 -307.5Q469 -295 469 -277L427 -235V-277H85V-43H235V0H85Q68 0 55.5 -12.5Q43 -25 43 -43V-277Q43 -295 55.5 -307.5Q68 -320 85 -320H171V-363Q171 -380 183.5 -392.5Q196 -405 213 -405ZM299 -320V-363H213V-320Z"/>
</svg>