<svg xmlns="http://www.w3.org/2000/svg" viewBox="0 -512 512 512">
	<path fill="#000000" d="M448 -211V-299Q448 -316 435.5 -328.5Q423 -341 405 -341H320V-384Q320 -402 307.5 -414.5Q295 -427 277 -427H192Q174 -427 161.5 -414.5Q149 -402 149 -384V-341H64Q46 -341 33.5 -328.5Q21 -316 21 -299V-64Q21 -46 33.5 -33.5Q46 -21 64 -21H219Q243 14 282 31Q321 48 363 42Q405 36 437.5 9Q470 -18 483.5 -58Q497 -98 487.5 -139.5Q478 -181 448 -211ZM192 -384H277V-341H192ZM405 -21Q377 0 341.5 0Q306 0 278 -21Q250 -42 239.5 -75Q229 -108 240 -140.5Q251 -173 279 -193Q307 -213 341.5 -213Q376 -213 404 -193Q432 -173 442.5 -140.5Q453 -108 443 -75Q433 -42 405 -21ZM320 -171H352V-111L404 -80L388 -53L320 -92Z"/>
</svg>