<svg xmlns="http://www.w3.org/2000/svg" viewBox="0 -512 512 512">
	<path fill="#000000" d="M427 -299H341V-341L299 -384H213L171 -341V-299H85Q68 -299 55.5 -286.5Q43 -274 43 -256V-149Q43 -138 48.5 -128Q54 -118 64 -112V-43Q64 -25 76.5 -12.5Q89 0 107 0H405Q423 0 435.5 -12.5Q448 -25 448 -43V-113Q458 -118 463.5 -128Q469 -138 469 -149V-256Q469 -274 456.5 -286.5Q444 -299 427 -299ZM213 -341H299V-299H213ZM85 -256H427V-149H320V-213H192V-149H85ZM277 -128H235V-171H277ZM405 -43H107V-107H192V-85H320V-107H405Z"/>
</svg>