<svg xmlns="http://www.w3.org/2000/svg" viewBox="0 -512 512 512">
	<path fill="#000000" d="M363 -64Q372 -64 378 -58Q384 -52 384 -42.5Q384 -33 378 -27Q372 -21 362.5 -21Q353 -21 347 -27Q341 -33 341 -42.5Q341 -52 347 -58Q353 -64 363 -64ZM363 -128Q320 -128 284.5 -104Q249 -80 235 -43Q249 -5 284.5 19Q320 43 362.5 43Q405 43 440.5 19Q476 -5 491 -43Q476 -80 440.5 -104Q405 -128 363 -128ZM363 11Q340 11 324.5 -4.5Q309 -20 309 -42.5Q309 -65 324.5 -80.5Q340 -96 362.5 -96Q385 -96 400.5 -80.5Q416 -65 416 -42.5Q416 -20 400.5 -4.5Q385 11 363 11ZM194 -28L188 -43H85V-277H427V-158Q457 -145 469 -134V-277Q469 -294 456.5 -307Q444 -320 427 -320H341V-363Q341 -380 328.5 -392.5Q316 -405 299 -405H213Q196 -405 183.5 -392.5Q171 -380 171 -363V-320H85Q68 -320 55.5 -307Q43 -294 43 -277V-43Q43 -26 55.5 -13Q68 0 85 0H209Q201 -11 194 -28ZM213 -363H299V-320H213Z"/>
</svg>