<svg xmlns="http://www.w3.org/2000/svg" viewBox="0 -512 512 512">
	<path fill="#000000" d="M213 -405H299Q316 -405 328.5 -392.5Q341 -380 341 -363V-320H427Q444 -320 456.5 -307.5Q469 -295 469 -277V-159Q433 -192 384 -192Q349 -192 319.5 -175Q290 -158 273 -128.5Q256 -99 256 -64Q256 -29 273 0H85Q68 0 55.5 -12.5Q43 -25 43 -43V-277Q43 -295 55.5 -307.5Q68 -320 85 -320H171V-363Q171 -380 183.5 -392.5Q196 -405 213 -405ZM299 -320V-363H213V-320ZM373 -43H405V-128H448V-43H480L427 21ZM363 -85V0H320V-85H288L341 -149L395 -85Z"/>
</svg>