<svg xmlns="http://www.w3.org/2000/svg" viewBox="0 -512 512 512">
	<path fill="#000000" d="M213 -303L173 -343L213 -384H299L341 -341V-299H427Q444 -299 456.5 -286.5Q469 -274 469 -256V-149Q469 -138 463.5 -128Q458 -118 448 -113V-68L367 -149H427V-256H260L218 -299H299V-341H213ZM472 10L445 37L407 0H107Q89 0 76.5 -12.5Q64 -25 64 -43V-112Q54 -118 48.5 -128Q43 -138 43 -149V-256Q43 -274 55.5 -286.5Q68 -299 85 -299H109L24 -384L51 -411ZM235 -128H277V-130L237 -171H235ZM192 -149V-213H194L152 -256H85V-149ZM365 -43L320 -88V-85H192V-107H107V-43Z"/>
</svg>