<svg xmlns="http://www.w3.org/2000/svg" viewBox="0 -512 512 512">
	<path fill="#000000" d="M213 -405H299Q316 -405 328.5 -392.5Q341 -380 341 -363V-320H427Q444 -320 456.5 -307.5Q469 -295 469 -277V-170Q454 -195 427 -213V-277H85V-43H224Q234 -19 252 0H85Q68 0 55.5 -12.5Q43 -25 43 -43V-277Q43 -295 55.5 -307.5Q68 -320 85 -320H171V-363Q171 -380 183.5 -392.5Q196 -405 213 -405ZM299 -320V-363H213V-320ZM433 -45L499 21L469 51L403 -15Q379 0 352 0Q312 0 284 -28Q256 -56 256 -96Q256 -136 284 -164Q312 -192 352 -192Q392 -192 420 -164Q448 -136 448 -96Q448 -68 433 -45ZM352 -43Q374 -43 389.5 -58.5Q405 -74 405 -96Q405 -118 389.5 -133.5Q374 -149 352 -149Q330 -149 314.5 -133.5Q299 -118 299 -96Q299 -74 314.5 -58.5Q330 -43 352 -43Z"/>
</svg>