<svg xmlns="http://www.w3.org/2000/svg" viewBox="0 -512 512 512">
	<path fill="#000000" d="M427 -320Q445 -320 457 -307Q469 -294 469 -277V-43Q469 -26 457 -13Q445 0 427 0H85Q67 0 55 -13Q43 -26 43 -43V-277Q43 -294 55 -307Q67 -320 85 -320H171V-363Q171 -381 183 -393Q195 -405 213 -405H299Q317 -405 329 -393Q341 -381 341 -363V-320ZM85 -277V-43H427V-277ZM299 -320V-363H213V-320ZM256 -256Q276 -256 290 -242Q304 -228 304 -208Q304 -188 290 -174Q276 -160 256 -160Q236 -160 222 -174Q208 -188 208 -208Q208 -228 222 -242Q236 -256 256 -256ZM352 -64H160V-88Q160 -108 188 -122Q216 -136 256 -136Q296 -136 324 -122Q352 -108 352 -88Z"/>
</svg>