<svg xmlns="http://www.w3.org/2000/svg" viewBox="0 -512 512 512">
	<path fill="#000000" d="M428 -262V-363H327L256 -433L186 -363H85V-262L15 -192L85 -121V-20H186L256 50L327 -20H428V-121L498 -192ZM188 -298Q204 -298 215 -286.5Q226 -275 226 -259.5Q226 -244 215 -233Q204 -222 188.5 -222Q173 -222 161.5 -233Q150 -244 150 -259.5Q150 -275 161.5 -286.5Q173 -298 188 -298ZM325 -85Q309 -85 298 -96.5Q287 -108 287 -123.5Q287 -139 298 -150Q309 -161 324.5 -161Q340 -161 351.5 -150Q363 -139 363 -123.5Q363 -108 351.5 -96.5Q340 -85 325 -85ZM181 -85L149 -117L331 -299L363 -267Z"/>
</svg>