<svg xmlns="http://www.w3.org/2000/svg" viewBox="0 -512 512 512">
	<path fill="#000000" d="M256 -277Q221 -277 196 -252Q171 -227 171 -192Q171 -157 196 -132Q221 -107 256 -107Q291 -107 316 -132Q341 -157 341 -192Q341 -227 316 -252Q291 -277 256 -277ZM256 -64Q221 -64 191.5 -81Q162 -98 145 -127.5Q128 -157 128 -192Q128 -227 145 -256.5Q162 -286 191.5 -303Q221 -320 256 -320Q291 -320 320.5 -303Q350 -286 367 -256.5Q384 -227 384 -192Q384 -157 367 -127.5Q350 -98 320.5 -81Q291 -64 256 -64ZM427 -263V-363H327L256 -433L185 -363H85V-263L15 -192L85 -121V-21H185L256 49L327 -21H427V-121L497 -192Z"/>
</svg>