<svg xmlns="http://www.w3.org/2000/svg" viewBox="0 -512 512 512">
	<path fill="#000000" d="M256 -235Q238 -235 225.5 -222.5Q213 -210 213 -192Q213 -174 225.5 -161.5Q238 -149 256 -149Q274 -149 286.5 -161.5Q299 -174 299 -192Q299 -210 286.5 -222.5Q274 -235 256 -235ZM384 -192Q384 -227 366.5 -256Q349 -285 320 -302.5Q291 -320 256 -320Q221 -320 192 -302.5Q163 -285 145.5 -256Q128 -227 128 -192Q128 -157 145.5 -128Q163 -99 192 -81L213 -117Q194 -129 182.5 -148.5Q171 -168 171 -190Q171 -225 196 -250Q221 -275 256 -275Q291 -275 316 -250Q341 -225 341 -190Q341 -166 329.5 -146.5Q318 -127 299 -117L320 -81Q349 -97 366.5 -127Q384 -157 384 -192ZM256 -405Q198 -405 149 -376.5Q100 -348 71.5 -299Q43 -250 43 -192Q43 -134 72 -85Q101 -36 149 -9L171 -45Q132 -68 108.5 -107Q85 -146 85 -192Q85 -238 108 -277.5Q131 -317 170.5 -340Q210 -363 256 -363Q302 -363 341.5 -340Q381 -317 404 -277.5Q427 -238 427 -191.5Q427 -145 404 -106.5Q381 -68 341 -45L363 -9Q411 -36 440 -85Q469 -134 469 -192Q469 -250 440.5 -299Q412 -348 363 -376.5Q314 -405 256 -405Z"/>
</svg>