<svg xmlns="http://www.w3.org/2000/svg" viewBox="0 -512 512 512">
	<path fill="#000000" d="M192 -149Q201 -149 207 -143Q213 -137 213 -128Q213 -119 207 -113Q201 -107 192 -107Q183 -107 177 -113Q171 -119 171 -128Q171 -137 177 -143Q183 -149 192 -149ZM320 -149Q329 -149 335 -143Q341 -137 341 -128Q341 -119 335 -113Q329 -107 320 -107Q311 -107 305 -113Q299 -119 299 -128Q299 -137 305 -143Q311 -149 320 -149ZM64 21L85 -43H64Q55 -43 49 -49Q43 -55 43 -64V-192Q43 -201 49 -207Q55 -213 64 -213H448Q457 -213 463 -207Q469 -201 469 -192V-64Q469 -55 463 -49Q457 -43 448 -43H427L448 21H405L384 -43H128L107 21ZM277 -171V-85H427V-171ZM85 -171V-85H235V-171Z"/>
</svg>