<svg xmlns="http://www.w3.org/2000/svg" viewBox="0 -512 512 512">
	<path fill="#000000" d="M427 -277H367Q352 -304 328 -320L363 -354L333 -384L286 -338Q271 -341 256 -341Q241 -341 226 -338L179 -384L149 -354L184 -320Q161 -305 145 -277H85V-235H130Q128 -224 128 -213V-192H85V-149H128V-128Q128 -117 130 -107H85V-64H145Q163 -34 192.5 -17Q222 0 256 0Q290 0 320 -17Q350 -34 367 -64H427V-107H382Q384 -117 384 -128V-149H427V-192H384V-213Q384 -224 382 -235H427ZM341 -128Q341 -93 316 -68Q291 -43 256 -43Q221 -43 196 -68Q171 -93 171 -128V-213Q171 -249 196 -274Q221 -299 256 -299Q291 -299 316 -274Q341 -249 341 -213ZM299 -235V-192H213V-235ZM213 -149H299V-107H213Z"/>
</svg>