<svg xmlns="http://www.w3.org/2000/svg" viewBox="0 -512 512 512">
	<path fill="#000000" d="M405 -299H345Q330 -326 307 -341L341 -375L311 -405L265 -359Q250 -363 235 -363Q220 -363 205 -359L158 -405L128 -375L163 -341Q139 -326 124 -299H64V-256H109Q107 -245 107 -235V-213H64V-171H107V-149Q107 -139 109 -128H64V-85H124Q147 -45 190.5 -29Q234 -13 277 -29V-43Q277 -60 283 -79Q261 -64 235 -64Q199 -64 174 -89Q149 -114 149 -149V-235Q149 -270 174 -295Q199 -320 234.5 -320Q270 -320 295 -295Q320 -270 320 -235V-149Q320 -141 319 -137Q338 -154 363 -163V-171H405V-213H363V-235Q363 -245 361 -256H405ZM277 -256V-213H192V-256ZM277 -171V-128H192V-171ZM363 -107V21L469 -43Z"/>
</svg>