<svg xmlns="http://www.w3.org/2000/svg" viewBox="0 -512 512 512">
	<path fill="#000000" d="M299 -192H213V-235H299ZM299 -107H213V-149H299ZM427 -277H367Q352 -303 328 -319L363 -354L333 -384L286 -338Q271 -341 256 -341Q241 -341 226 -338L179 -384L149 -354L184 -319Q160 -303 145 -277H85V-235H130Q128 -222 128 -213V-192H85V-149H128V-128Q128 -119 130 -107H85V-64H145Q162 -35 191.5 -17.5Q221 0 256 0Q291 0 320.5 -17.5Q350 -35 367 -64H427V-107H382Q384 -119 384 -128V-149H427V-192H384V-213Q384 -222 382 -235H427Z"/>
</svg>