<svg xmlns="http://www.w3.org/2000/svg" viewBox="0 -512 512 512">
	<path fill="#000000" d="M277 -403Q277 -403 277 -403V-405Q277 -414 271 -420.5Q265 -427 256 -427Q247 -427 241 -420.5Q235 -414 235 -405V-403Q189 -396 159 -360.5Q129 -325 129 -278V-107Q129 -59 159 -23.5Q189 12 235 19V21Q235 30 241 36.5Q247 43 256 43Q265 43 271 36.5Q277 30 277 21V19Q323 12 353 -23.5Q383 -59 383 -107V-278Q384 -325 353.5 -360.5Q323 -396 277 -403ZM341 -277H320V-333Q341 -308 341 -277ZM299 -33Q279 -21 256 -21Q233 -21 213 -33V-107H299ZM213 -128V-256H299V-128ZM192 -128H171V-256H192ZM213 -351Q233 -363 256 -363Q279 -363 299 -351V-277H213ZM320 -256H341V-128H320ZM192 -333V-277H171V-278Q171 -309 192 -333ZM171 -107H192V-51Q171 -75 171 -106ZM320 -51V-107H341Q341 -76 320 -51Z"/>
</svg>