<svg xmlns="http://www.w3.org/2000/svg" viewBox="0 -512 512 512">
	<path fill="#000000" d="M256 -405Q214 -405 174.5 -389Q135 -373 105 -343Q75 -313 59 -273.5Q43 -234 43 -192Q43 -150 59 -110.5Q75 -71 105 -41Q135 -11 174.5 5Q214 21 256 21Q298 21 337.5 5Q377 -11 407 -41Q437 -71 453 -110.5Q469 -150 469 -192Q469 -229 456 -264L422 -230Q427 -211 427 -192Q427 -146 404 -106.5Q381 -67 341.5 -44Q302 -21 256 -21Q210 -21 170.5 -44Q131 -67 108 -106.5Q85 -146 85 -192Q85 -238 108 -277.5Q131 -317 170.5 -340Q210 -363 256 -363Q275 -363 294 -358L329 -393Q293 -405 256 -405ZM405 -405L320 -320V-288L266 -234Q262 -235 256 -235Q238 -235 225.5 -222.5Q213 -210 213 -192Q213 -174 225.5 -161.5Q238 -149 256 -149Q274 -149 286.5 -161.5Q299 -174 299 -192Q299 -198 298 -202L352 -256H384L469 -341H405ZM256 -320Q221 -320 191.5 -303Q162 -286 145 -256.5Q128 -227 128 -192Q128 -157 145 -127.5Q162 -98 191.5 -81Q221 -64 256 -64Q291 -64 320.5 -81Q350 -98 367 -127.5Q384 -157 384 -192H341Q341 -157 316 -132Q291 -107 256 -107Q221 -107 196 -132Q171 -157 171 -192Q171 -227 196 -252Q221 -277 256 -277Z"/>
</svg>