<svg xmlns="http://www.w3.org/2000/svg" viewBox="0 -512 512 512">
	<path fill="#000000" d="M21 -405H64V-256H213V-384H405Q441 -384 466 -359Q491 -334 491 -299V43H448V0H64V43H21ZM256 -341V-256H448V-299Q448 -316 435.5 -328.5Q423 -341 405 -341ZM64 -213V-43H213V-171H405Q429 -171 448 -158V-213ZM139 -171Q161 -171 176.5 -155.5Q192 -140 192 -117.5Q192 -95 176.5 -79.5Q161 -64 138.5 -64Q116 -64 100.5 -79.5Q85 -95 85 -117.5Q85 -140 100.5 -155.5Q116 -171 139 -171ZM139 -137Q131 -137 125 -131Q119 -125 119 -117Q119 -109 125 -103.5Q131 -98 139 -98Q147 -98 152.5 -103.5Q158 -109 158 -117Q158 -125 152.5 -131Q147 -137 139 -137ZM256 -128V-43H448V-85Q448 -103 435.5 -115.5Q423 -128 405 -128ZM139 -384Q161 -384 176.5 -368.5Q192 -353 192 -330.5Q192 -308 176.5 -292.5Q161 -277 138.5 -277Q116 -277 100.5 -292.5Q85 -308 85 -330.5Q85 -353 100.5 -368.5Q116 -384 139 -384ZM139 -350Q131 -350 125 -344.5Q119 -339 119 -331Q119 -323 125 -317Q131 -311 139 -311Q147 -311 152.5 -317Q158 -323 158 -331Q158 -339 152.5 -344.5Q147 -350 139 -350Z"/>
</svg>