<svg xmlns="http://www.w3.org/2000/svg" viewBox="0 -512 512 512">
	<path fill="#000000" d="M21 -405V43H64V0H448V43H491V-299Q491 -334 466 -359Q441 -384 405 -384H213V-277H64V-405ZM139 -405Q117 -405 101 -389.5Q85 -374 85 -352Q85 -330 101 -314.5Q117 -299 139 -299Q161 -299 176.5 -314.5Q192 -330 192 -352Q192 -374 176.5 -389.5Q161 -405 139 -405ZM64 -213H448V-159Q428 -171 405 -171H213V-64H64ZM139 -192Q117 -192 101 -176.5Q85 -161 85 -139Q85 -117 101 -101Q117 -85 139 -85Q161 -85 176.5 -101Q192 -117 192 -139Q192 -161 176.5 -176.5Q161 -192 139 -192Z"/>
</svg>