<svg xmlns="http://www.w3.org/2000/svg" viewBox="0 -512 512 512">
	<path fill="#000000" d="M85 -213H236Q213 -174 213 -128Q213 -82 236 -43H128V-21Q128 -13 121.5 -6.5Q115 0 107 0H85Q77 0 70.5 -6.5Q64 -13 64 -21V-59Q43 -79 43 -107V-320Q43 -371 93 -391Q130 -405 213 -405Q296 -405 334 -391Q384 -371 384 -320V-299Q363 -299 341 -293V-320H85ZM117 -85Q131 -85 140 -94.5Q149 -104 149 -117.5Q149 -131 140 -140Q131 -149 117.5 -149Q104 -149 94.5 -140Q85 -131 85 -117.5Q85 -104 94.5 -94.5Q104 -85 117 -85ZM320 -21V0H448V-21Q448 -30 441.5 -36.5Q435 -43 427 -43H405V-149H448L491 -192L448 -235H277L320 -192L277 -149H363V-43H341Q333 -43 326.5 -36.5Q320 -30 320 -21Z"/>
</svg>