<svg xmlns="http://www.w3.org/2000/svg" viewBox="0 -512 512 512">
	<path fill="#000000" d="M427 -384H149V-405H128Q118 -404 110 -398.5Q102 -393 98 -384H43V-341H80Q57 -267 47 -115Q43 -40 43 21H149V-341H427ZM469 -267Q469 -288 454.5 -303Q440 -318 419 -319Q398 -320 382 -306.5Q366 -293 363 -272.5Q360 -252 372.5 -235Q385 -218 405 -213V21H427V-213Q446 -217 458 -232Q470 -247 469 -267ZM320 -203V-107H299V21H267V-85H245V21H213V-107H192V-203Q192 -216 201.5 -225.5Q211 -235 224 -235H288Q301 -235 310.5 -225.5Q320 -216 320 -203ZM256 -309Q243 -309 233.5 -300Q224 -291 224 -277.5Q224 -264 233.5 -254.5Q243 -245 256 -245Q269 -245 278.5 -254.5Q288 -264 288 -277.5Q288 -291 278.5 -300Q269 -309 256 -309Z"/>
</svg>