<svg xmlns="http://www.w3.org/2000/svg" viewBox="0 -512 512 512">
	<path fill="#000000" d="M213 -341Q130 -341 93 -327Q43 -307 43 -256V-43Q43 -14 64 5V43Q64 51 70.5 57.5Q77 64 85 64H107Q115 64 121.5 57.5Q128 51 128 43V21H299V43Q299 51 305 57.5Q311 64 320 64H341Q350 64 356.5 57.5Q363 51 363 43V5Q384 -14 384 -43V-256Q384 -307 334 -327Q296 -341 213 -341ZM117 -21Q104 -21 94.5 -30.5Q85 -40 85 -53.5Q85 -67 94.5 -76Q104 -85 117.5 -85Q131 -85 140 -76Q149 -67 149 -53.5Q149 -40 140 -30.5Q131 -21 117 -21ZM309 -21Q296 -21 286.5 -30.5Q277 -40 277 -53.5Q277 -67 286.5 -76Q296 -85 309.5 -85Q323 -85 332 -76Q341 -67 341 -53.5Q341 -40 332 -30.5Q323 -21 309 -21ZM341 -149H85V-256H341ZM469 -341V-128Q469 -100 448 -81V-43Q448 -34 441.5 -27.5Q435 -21 427 -21H424Q427 -33 427 -43V-256Q427 -314 386 -346Q354 -371 297 -379Q265 -384 213 -384Q166 -384 138 -380Q154 -408 199 -418Q234 -427 299 -427Q382 -427 419 -412Q469 -393 469 -341Z"/>
</svg>