<svg xmlns="http://www.w3.org/2000/svg" viewBox="0 -512 512 512">
	<path fill="#000000" d="M459 -320L427 -288L459 -256L427 -224L459 -192L427 -160L459 -128H267Q267 -101 248 -82.5Q229 -64 202.5 -64Q176 -64 157.5 -82.5Q139 -101 139 -128H53V-277Q53 -295 65.5 -307.5Q78 -320 96 -320ZM395 -288H320V-235H395ZM288 -288H203V-235H288ZM171 -288H85V-235H171ZM203 -160Q189 -160 180 -150.5Q171 -141 171 -128Q171 -115 180 -105.5Q189 -96 202.5 -96Q216 -96 225.5 -105.5Q235 -115 235 -128Q235 -141 225.5 -150.5Q216 -160 203 -160Z"/>
</svg>