<svg xmlns="http://www.w3.org/2000/svg" viewBox="0 -512 512 512">
	<path fill="#000000" d="M384 -277H128V-363H384ZM352 -149Q339 -149 329.5 -159Q320 -169 320 -181.5Q320 -194 329.5 -203.5Q339 -213 352 -213Q365 -213 374.5 -203.5Q384 -194 384 -181.5Q384 -169 374.5 -159Q365 -149 352 -149ZM160 -149Q147 -149 137.5 -159Q128 -169 128 -181.5Q128 -194 137.5 -203.5Q147 -213 160 -213Q173 -213 182.5 -203.5Q192 -194 192 -181.5Q192 -169 182.5 -159Q173 -149 160 -149ZM85 -171Q85 -157 91 -144.5Q97 -132 107 -124V-85Q107 -76 112.5 -70Q118 -64 128 -64H149Q159 -64 165 -70Q171 -76 171 -85V-107H341V-85Q341 -76 347 -70Q353 -64 363 -64H384Q394 -64 399.5 -70Q405 -76 405 -85V-124Q415 -132 421 -144.5Q427 -157 427 -171V-363Q427 -414 377 -433Q339 -448 256 -448Q173 -448 135 -433Q85 -414 85 -363ZM149 0H235V-43L363 21H277V64Z"/>
</svg>