<svg xmlns="http://www.w3.org/2000/svg" viewBox="0 -512 512 512">
	<path fill="#000000" d="M427 -171V-320Q427 -371 377 -391Q339 -405 256 -405Q173 -405 135 -391Q85 -371 85 -320V-107Q85 -79 107 -59V-21Q107 -13 113.5 -6.5Q120 0 128 0H149Q158 0 164.5 -6.5Q171 -13 171 -21V-43H256Q235 -71 235 -107Q235 -136 249 -160.5Q263 -185 287.5 -199Q312 -213 341 -213Q367 -213 389.5 -201.5Q412 -190 427 -171ZM341 -213H128V-320H384V-213ZM137 -95Q128 -104 128 -117.5Q128 -131 137.5 -140Q147 -149 160 -149Q173 -149 182.5 -140Q192 -131 192 -117.5Q192 -104 182.5 -94.5Q173 -85 160 -85Q147 -85 137 -95ZM331 -87L284 -134Q277 -121 277 -107Q277 -80 296 -61.5Q315 -43 341 -43Q356 -43 369 -49L454 36L484 6L399 -79Q405 -92 405 -107Q405 -133 386.5 -152Q368 -171 341 -171Q327 -171 314 -164L361 -117Z"/>
</svg>