<svg xmlns="http://www.w3.org/2000/svg" viewBox="0 -512 512 512">
	<path fill="#000000" d="M128 21V-43H85V21H43V-149Q43 -158 49 -164.5Q55 -171 64 -171Q73 -171 79 -164.5Q85 -158 85 -149V-85H149Q158 -85 164.5 -79Q171 -73 171 -64V21ZM427 -213V21H405V-213Q385 -217 373 -234Q361 -251 363 -271Q365 -291 380 -305Q395 -319 416 -319Q437 -319 452 -305Q467 -291 469 -271Q471 -251 459 -234Q447 -217 427 -213ZM320 -202V-107H299V21H267V-85H245V21H213V-107H192V-203Q192 -216 201.5 -225.5Q211 -235 224 -235H288Q301 -235 310.5 -225.5Q320 -216 320 -203ZM256 -308Q246 -308 238 -302.5Q230 -297 226.5 -288Q223 -279 225 -269.5Q227 -260 234 -253Q241 -246 250.5 -244.5Q260 -243 269 -247Q278 -251 283 -259.5Q288 -268 288 -277Q288 -291 278.5 -300Q269 -309 256 -309Z"/>
</svg>