<svg xmlns="http://www.w3.org/2000/svg" viewBox="0 -512 512 512">
	<path fill="#000000" d="M469 -299V-107Q469 -95 463.5 -85.5Q458 -76 448 -70V-37Q448 -31 443.5 -26Q439 -21 432 -21H421Q415 -21 410 -26Q405 -31 405 -37V-64H256V-37Q256 -31 251.5 -26Q247 -21 240 -21H229Q223 -21 218 -26Q213 -31 213 -37V-70Q204 -76 198 -85.5Q192 -95 192 -107V-299Q192 -329 211 -344Q228 -356 262 -360Q282 -363 330.5 -363Q379 -363 400 -360Q434 -356 450 -344Q469 -329 469 -299ZM277 -128Q277 -137 271 -143Q265 -149 256 -149Q247 -149 241 -143Q235 -137 235 -128Q235 -119 241 -113Q247 -107 256 -107Q265 -107 271 -113Q277 -119 277 -128ZM427 -128Q427 -137 420.5 -143Q414 -149 405.5 -149Q397 -149 390.5 -143Q384 -137 384 -128Q384 -119 390.5 -113Q397 -107 405.5 -107Q414 -107 420.5 -113Q427 -119 427 -128ZM427 -299H235V-213H427ZM149 -245Q149 -268 133 -283Q117 -298 95 -297.5Q73 -297 57.5 -281Q42 -265 43 -243Q43 -224 55 -210Q67 -196 85 -192V-21H107V-192Q125 -196 137 -211Q149 -226 149 -245Z"/>
</svg>