<svg xmlns="http://www.w3.org/2000/svg" viewBox="0 -512 512 512">
	<path fill="#000000" d="M352 -363V-272L413 -236L397 -210L320 -256V-363ZM341 -171Q385 -171 416.5 -202Q448 -233 448 -277Q448 -321 416.5 -352.5Q385 -384 341 -384Q297 -384 266 -352.5Q235 -321 235 -277Q235 -233 266 -202Q297 -171 341 -171ZM288 -43Q302 -43 311 -52.5Q320 -62 320 -75Q320 -88 311 -97.5Q302 -107 288 -107Q274 -107 265 -97.5Q256 -88 256 -75Q256 -62 265 -52.5Q274 -43 288 -43ZM64 -171H237Q192 -214 192 -277H64ZM96 -43Q110 -43 119 -52.5Q128 -62 128 -75Q128 -88 119 -97.5Q110 -107 96 -107Q82 -107 73 -97.5Q64 -88 64 -75Q64 -62 73 -52.5Q82 -43 96 -43ZM341 -427Q404 -427 447.5 -383.5Q491 -340 491 -277Q491 -221 454 -179.5Q417 -138 363 -130V-64Q363 -37 341 -17V21Q341 29 335 36Q329 43 320 43H299Q290 43 283.5 36.5Q277 30 277 21V0H107V21Q107 30 100.5 36.5Q94 43 85 43H64Q55 43 49 36Q43 29 43 21V-17Q21 -37 21 -64V-277Q21 -328 64.5 -345.5Q108 -363 192 -363H205L218 -362Q263 -427 341 -427Z"/>
</svg>