<svg xmlns="http://www.w3.org/2000/svg" viewBox="0 -512 512 512">
	<path fill="#000000" d="M384 -213H128V-320H384ZM352 -85Q339 -85 329.5 -94.5Q320 -104 320 -117.5Q320 -131 329.5 -140Q339 -149 352 -149Q365 -149 374.5 -140Q384 -131 384 -117.5Q384 -104 374.5 -94.5Q365 -85 352 -85ZM160 -85Q147 -85 137.5 -94.5Q128 -104 128 -117.5Q128 -131 137.5 -140Q147 -149 160 -149Q173 -149 182.5 -140Q192 -131 192 -117.5Q192 -104 182.5 -94.5Q173 -85 160 -85ZM85 -107Q85 -79 107 -59V-21Q107 -12 113 -6Q119 0 128 0H149Q158 0 164.5 -6Q171 -12 171 -21V-43H341V-21Q341 -12 347.5 -6Q354 0 363 0H384Q393 0 399 -6Q405 -12 405 -21V-59Q427 -79 427 -107V-320Q427 -371 377 -391Q339 -405 256 -405Q173 -405 135 -391Q85 -371 85 -320Z"/>
</svg>