<svg xmlns="http://www.w3.org/2000/svg" viewBox="0 -512 512 512">
	<path fill="#000000" d="M277 0H235V-320L193 -363L213 -384L256 -341L299 -384L320 -363L277 -320ZM299 -256V-299Q327 -320 363 -320Q392 -320 416.5 -305.5Q441 -291 455 -266.5Q469 -242 469 -213Q469 -188 457.5 -165.5Q446 -143 427 -128V-85Q427 -50 402 -25Q377 0 341 0Q318 0 299 -12V-54Q318 -43 341 -43Q359 -43 371.5 -55.5Q384 -68 384 -85V-153Q403 -160 415 -176.5Q427 -193 427 -213Q427 -240 408 -258.5Q389 -277 363 -277Q327 -277 299 -256ZM213 -256Q185 -277 149 -277Q123 -277 104 -258.5Q85 -240 85 -213Q85 -193 97 -176.5Q109 -160 128 -153V-85Q128 -68 140.5 -55.5Q153 -43 171 -43Q194 -43 213 -54V-12Q194 0 171 0Q135 0 110 -25Q85 -50 85 -85V-128Q66 -143 54.5 -165.5Q43 -188 43 -213Q43 -242 57 -266.5Q71 -291 95.5 -305.5Q120 -320 149 -320Q185 -320 213 -299ZM192 -213L160 -245L128 -213L160 -181ZM384 -213L352 -245L320 -213L352 -181Z"/>
</svg>