<svg xmlns="http://www.w3.org/2000/svg" viewBox="0 -512 512 512">
	<path fill="#000000" d="M427 -11Q427 2 417 11.5Q407 21 395 21H277Q265 21 256 13L171 -77L186 -94Q192 -100 203 -100H207L256 -64V-256Q256 -266 262 -271.5Q268 -277 277.5 -277Q287 -277 293 -271.5Q299 -266 299 -256V-160L324 -158L407 -111Q415 -108 421 -99.5Q427 -91 427 -83ZM427 -405H85Q68 -405 55.5 -392.5Q43 -380 43 -363V-192Q43 -174 55.5 -161.5Q68 -149 85 -149H171V-192H85V-363H427V-192H384V-149H427Q444 -149 456.5 -161.5Q469 -174 469 -192V-363Q469 -380 456.5 -392.5Q444 -405 427 -405Z"/>
</svg>