<svg xmlns="http://www.w3.org/2000/svg" viewBox="0 -512 512 512">
	<path fill="#000000" d="M277 0H235V-320L193 -363L213 -384L256 -341L299 -384L320 -363L277 -320ZM149 -320Q120 -320 95.5 -305.5Q71 -291 57 -266.5Q43 -242 43 -213Q43 -188 54.5 -165.5Q66 -143 85 -128V-85Q85 -50 110 -25Q135 0 171 0Q193 0 213 -11V-12V-299Q185 -320 149 -320ZM139 -181L107 -213L139 -245L171 -213ZM469 -213Q469 -242 455 -266.5Q441 -291 416.5 -305.5Q392 -320 363 -320Q327 -320 299 -299V-12Q318 0 341 0Q377 0 402 -25Q427 -50 427 -85V-128Q446 -143 457.5 -165.5Q469 -188 469 -213ZM373 -181L341 -213L373 -245L405 -213Z"/>
</svg>