<svg xmlns="http://www.w3.org/2000/svg" viewBox="0 -512 512 512">
	<path fill="#000000" d="M150 -373Q128 -351 128 -320Q128 -289 150 -267L332 -86Q341 -77 341 -63.5Q341 -50 331.5 -41Q322 -32 309 -32Q296 -32 286 -41L196 -132L218 -154L143 -230L135 -222L105 -252Q99 -259 90 -259Q81 -259 75 -252L45 -222Q39 -216 39 -207Q39 -198 45 -192L75 -162L67 -154L143 -79L166 -102L256 -11Q278 11 309 11Q340 11 362 -11Q384 -33 384 -64Q384 -95 362 -116L180 -298Q171 -307 171 -320.5Q171 -334 180.5 -343Q190 -352 203 -352Q216 -352 226 -343L316 -252L294 -230L369 -154L377 -162L407 -132Q413 -125 422 -125Q431 -125 437 -132L467 -162Q473 -168 473 -177Q473 -186 467 -192L437 -222L445 -230L369 -305L346 -282L256 -373Q234 -395 203 -395Q172 -395 150 -373ZM60 -207L90 -237L120 -207L90 -177ZM392 -177L422 -207L452 -177L422 -147Z"/>
</svg>