<svg xmlns="http://www.w3.org/2000/svg" viewBox="0 -512 512 512">
	<path fill="#000000" d="M299 -107V0H213V-64H192Q165 -64 146.5 -82.5Q128 -101 128 -128V-192Q128 -201 134 -207Q140 -213 149 -213Q158 -213 164.5 -207Q171 -201 171 -192V-128Q171 -119 177 -113Q183 -107 192 -107H213V-320Q213 -338 225.5 -350.5Q238 -363 256 -363Q274 -363 286.5 -350.5Q299 -338 299 -320V-149H320Q329 -149 335 -155.5Q341 -162 341 -171V-213Q341 -222 347.5 -228.5Q354 -235 363 -235Q372 -235 378 -228.5Q384 -222 384 -213V-171Q384 -144 365.5 -125.5Q347 -107 320 -107Z"/>
</svg>