<svg xmlns="http://www.w3.org/2000/svg" viewBox="0 -512 512 512">
	<path fill="#000000" d="M245 -437Q254 -433 265.5 -411.5Q277 -390 277 -373.5Q277 -357 268.5 -349Q260 -341 245 -341Q230 -341 223 -346Q213 -352 213 -368Q213 -377 218 -386Q220 -391 227 -403Q241 -423 245 -437ZM395 -256Q435 -256 463 -228Q491 -200 491 -160Q491 -135 479.5 -114Q468 -93 448 -80V43H64V-80Q44 -93 32.5 -114Q21 -135 21 -160Q21 -200 49 -228Q77 -256 117 -256H213V-320H277V-256ZM256 -107Q278 -107 293.5 -122.5Q309 -138 309 -160H341Q341 -138 357 -122.5Q373 -107 395 -107Q417 -107 432.5 -122.5Q448 -138 448 -160Q448 -182 432.5 -197.5Q417 -213 395 -213H117Q95 -213 79.5 -197.5Q64 -182 64 -160Q64 -138 79.5 -122.5Q95 -107 117 -107Q139 -107 155 -122.5Q171 -138 171 -160H203Q203 -138 218.5 -122.5Q234 -107 256 -107Z"/>
</svg>