<svg xmlns="http://www.w3.org/2000/svg" viewBox="0 -512 512 512">
	<path fill="#000000" d="M256 -320Q274 -320 286.5 -332.5Q299 -345 299 -363Q299 -375 292 -385L256 -448L220 -385Q213 -375 213 -363Q213 -345 225.5 -332.5Q238 -320 256 -320ZM384 -256H277V-299H235V-256H128Q101 -256 82.5 -237.5Q64 -219 64 -192V0Q64 9 70.5 15Q77 21 85 21H427Q435 21 441.5 15Q448 9 448 0V-192Q448 -219 429.5 -237.5Q411 -256 384 -256ZM405 -21H107V-85Q136 -85 158 -107L181 -130L204 -107Q225 -86 256 -86Q287 -86 308 -107L331 -130L354 -107Q376 -85 405 -85ZM405 -117Q388 -117 377 -129L331 -175L285 -129Q274 -118 256 -118Q238 -118 226 -129L181 -175L135 -129Q124 -117 107 -117V-192Q107 -201 113 -207Q119 -213 128 -213H384Q393 -213 399 -207Q405 -201 405 -192Z"/>
</svg>