<svg xmlns="http://www.w3.org/2000/svg" viewBox="0 -512 512 512">
	<path fill="#000000" d="M405 -384H107Q89 -384 76.5 -371.5Q64 -359 64 -341V-43Q64 -25 76.5 -12.5Q89 0 107 0H405Q423 0 435.5 -12.5Q448 -25 448 -43V-341Q448 -359 435.5 -371.5Q423 -384 405 -384ZM405 -43H107V-341H405ZM132 -284H239V-252H132ZM277 -111H384V-79H277ZM277 -166H384V-134H277ZM171 -64H203V-107H245V-139H203V-181H171V-139H128V-107H171ZM301 -215L331 -245L361 -215L384 -237L354 -267L384 -297L361 -320L331 -290L301 -320L277 -297L307 -267L277 -237Z"/>
</svg>