<svg xmlns="http://www.w3.org/2000/svg" viewBox="0 -512 512 512">
	<path fill="#000000" d="M149 -405H363Q380 -405 392.5 -392.5Q405 -380 405 -363V-21Q405 -4 392.5 8.5Q380 21 363 21H149Q132 21 119.5 8.5Q107 -4 107 -21V-363Q107 -380 119.5 -392.5Q132 -405 149 -405ZM149 -363V-277H363V-363ZM149 -235V-192H192V-235ZM235 -235V-192H277V-235ZM320 -235V-192H363V-235ZM149 -149V-107H192V-149ZM235 -149V-107H277V-149ZM320 -149V-107H363V-149ZM149 -64V-21H192V-64ZM235 -64V-21H277V-64ZM320 -64V-21H363V-64Z"/>
</svg>