<svg xmlns="http://www.w3.org/2000/svg" viewBox="0 -512 512 512">
	<path fill="#000000" d="M405 -384H107Q89 -384 76.5 -371.5Q64 -359 64 -341V-43Q64 -25 76.5 -12.5Q89 0 107 0H405Q423 0 435.5 -12.5Q448 -25 448 -43V-341Q448 -359 435.5 -371.5Q423 -384 405 -384ZM277 -297L301 -320L331 -290L361 -320L384 -297L354 -267L384 -237L361 -213L331 -243L301 -213L277 -237L307 -267ZM132 -284H239V-252H132ZM245 -107H203V-64H171V-107H128V-139H171V-181H203V-139H245ZM384 -81H277V-113H384ZM384 -132H277V-164H384Z"/>
</svg>