<svg xmlns="http://www.w3.org/2000/svg" viewBox="0 -512 512 512">
	<path fill="#000000" d="M405 -384H384V-427H341V-384H171V-427H128V-384H107Q89 -384 76.5 -371.5Q64 -359 64 -341V-43Q64 -25 76.5 -12.5Q89 0 107 0H405Q423 0 435.5 -12.5Q448 -25 448 -43V-341Q448 -359 435.5 -371.5Q423 -384 405 -384ZM405 -43H107V-256H405ZM405 -299H107V-341H405ZM256 -235Q277 -235 290.5 -220.5Q304 -206 304 -186.5Q304 -167 289.5 -152.5Q275 -138 255.5 -138.5Q236 -139 222 -152.5Q208 -166 208 -186.5Q208 -207 222 -221Q236 -235 256 -235ZM352 -67V-64H160V-67Q160 -87 188 -101Q216 -115 256 -115Q296 -115 324 -101Q352 -87 352 -67Z"/>
</svg>