<svg xmlns="http://www.w3.org/2000/svg" viewBox="0 -512 512 512">
	<path fill="#000000" d="M384 -213V-181Q417 -181 440.5 -160Q464 -139 468.5 -107.5Q473 -76 455 -49L432 -72Q440 -89 436 -107.5Q432 -126 417.5 -137.5Q403 -149 384 -149V-117L336 -165ZM384 21V-11Q351 -11 327.5 -32Q304 -53 299.5 -84.5Q295 -116 313 -143L336 -120Q328 -103 332 -84.5Q336 -66 350.5 -54.5Q365 -43 384 -43V-75L432 -27ZM405 -384H384V-427H341V-384H171V-427H128V-384H107Q89 -384 76.5 -371.5Q64 -359 64 -341V-43Q64 -25 76.5 -12.5Q89 0 107 0H299Q279 -17 267 -43H107V-256H405V-222Q429 -218 448 -207V-341Q448 -359 435.5 -371.5Q423 -384 405 -384ZM405 -299H107V-341H405Z"/>
</svg>