<svg xmlns="http://www.w3.org/2000/svg" viewBox="0 -512 512 512">
	<path fill="#000000" d="M256 -256Q277 -256 290.5 -242Q304 -228 304 -208.5Q304 -189 289.5 -174Q275 -159 255.5 -159.5Q236 -160 222 -173.5Q208 -187 208 -207.5Q208 -228 222 -242Q236 -256 256 -256ZM352 -64H160V-88Q160 -108 188 -122Q216 -136 256 -136Q296 -136 324 -122Q352 -108 352 -88ZM405 -43H107V-277H405ZM341 -427V-384H171V-427H128V-384H107Q89 -384 76.5 -371.5Q64 -359 64 -341V-43Q64 -25 76.5 -12.5Q89 0 107 0H405Q423 0 435.5 -12.5Q448 -25 448 -43V-341Q448 -359 435.5 -371.5Q423 -384 405 -384H384V-427Z"/>
</svg>