<svg xmlns="http://www.w3.org/2000/svg" viewBox="0 -512 512 512">
	<path fill="#000000" d="M256 0H107Q89 0 76.5 -12.5Q64 -25 64 -43V-341Q64 -359 76.5 -371.5Q89 -384 107 -384H128V-427H171V-384H341V-427H384V-384H405Q423 -384 435.5 -371.5Q448 -359 448 -341V-213Q423 -230 405 -233V-277H107V-43H256ZM469 -58Q469 -69 461.5 -77Q454 -85 444 -85H352V-139Q352 -151 361.5 -158.5Q371 -166 384 -166Q397 -166 406.5 -158.5Q416 -151 416 -139V-128H444V-139Q444 -161 425.5 -176.5Q407 -192 384 -192Q361 -192 342.5 -176.5Q324 -161 324 -139V-85Q315 -85 307 -77Q299 -69 299 -60V15Q299 26 306.5 34.5Q314 43 324 43H442Q453 43 461 35Q469 27 469 17Z"/>
</svg>