<svg xmlns="http://www.w3.org/2000/svg" viewBox="0 -512 512 512">
	<path fill="#000000" d="M256 0H107Q89 0 76.5 -12.5Q64 -25 64 -43V-341Q64 -359 76.5 -371.5Q89 -384 107 -384H128V-427H171V-384H341V-427H384V-384H405Q423 -384 435.5 -371.5Q448 -359 448 -341V-192Q423 -209 405 -211V-277H107V-43H256ZM469 -58V17Q469 27 461 35Q453 43 442 43H324Q314 43 306.5 34.5Q299 26 299 15V-60Q299 -69 307 -77Q315 -85 324 -85V-117Q324 -139 342.5 -155Q361 -171 384 -171Q407 -171 425.5 -155Q444 -139 444 -117V-85Q454 -85 461.5 -77Q469 -69 469 -58ZM416 -117Q416 -130 406.5 -137.5Q397 -145 384 -145Q371 -145 361.5 -137.5Q352 -130 352 -117V-85H416Z"/>
</svg>