<svg xmlns="http://www.w3.org/2000/svg" viewBox="0 -512 512 512">
	<path fill="#000000" d="M128 -427V-384H107Q89 -384 76.5 -371.5Q64 -359 64 -341V-43Q64 -25 76.5 -12.5Q89 0 107 0H405Q423 0 435.5 -12.5Q448 -25 448 -43V-341Q448 -359 435.5 -371.5Q423 -384 405 -384H384V-427H341V-384H171V-427ZM107 -277H405V-43H107ZM260 -256Q232 -256 215 -243Q198 -230 199 -206V-205H240Q240 -215 246 -220Q252 -225 261 -225Q270 -225 276 -219Q282 -213 282 -202.5Q282 -192 277 -185Q272 -178 264 -173Q247 -162 241 -153.5Q235 -145 235 -128H277Q277 -138 280 -144Q283 -150 291 -155Q306 -163 315 -175.5Q324 -188 324 -203Q324 -227 307 -241.5Q290 -256 260 -256ZM235 -107V-64H277V-107Z"/>
</svg>