<svg xmlns="http://www.w3.org/2000/svg" viewBox="0 -512 512 512">
	<path fill="#000000" d="M128 -427V-384H107Q89 -384 76.5 -371.5Q64 -359 64 -341V-43Q64 -25 76.5 -12.5Q89 0 107 0H237Q257 20 284 31.5Q311 43 341 43Q382 43 416.5 23Q451 3 471 -31.5Q491 -66 491 -107Q491 -137 479.5 -164Q468 -191 448 -211V-341Q448 -359 435.5 -371.5Q423 -384 405 -384H384V-427H341V-384H171V-427ZM107 -341H405V-299H107ZM107 -256H405V-242Q375 -256 341 -256Q301 -256 266.5 -236Q232 -216 212 -181.5Q192 -147 192 -107Q192 -73 206 -43H107ZM341 -210Q369 -210 393 -196Q417 -182 431 -158.5Q445 -135 445 -107Q445 -79 431 -55Q417 -31 393 -17Q369 -3 341 -3Q313 -3 289.5 -17Q266 -31 252 -55Q238 -79 238 -107Q238 -135 252 -158.5Q266 -182 289.5 -196Q313 -210 341 -210ZM320 -171V-92L388 -53L404 -80L352 -111V-171Z"/>
</svg>