<svg xmlns="http://www.w3.org/2000/svg" viewBox="0 -512 512 512">
	<path fill="#000000" d="M412 -45Q427 -71 427 -96Q427 -136 399 -164Q371 -192 331 -192Q291 -192 263 -164Q235 -136 235 -96Q235 -56 263 -28Q291 0 331 0Q361 0 382 -15L448 51L478 21ZM331 -43Q308 -43 292.5 -58.5Q277 -74 277 -96Q277 -118 292.5 -133.5Q308 -149 330.5 -149Q353 -149 368.5 -133.5Q384 -118 384 -96Q384 -74 368.5 -58.5Q353 -43 331 -43ZM107 -43V-256H405V-213Q432 -197 448 -171V-341Q448 -359 435.5 -371.5Q423 -384 405 -384H384V-427H341V-384H171V-427H128V-384H107Q89 -384 76.5 -371.5Q64 -359 64 -341V-43Q64 -25 76.5 -12.5Q89 0 107 0H230Q212 -19 203 -43ZM405 -341V-299H107V-341Z"/>
</svg>