<svg xmlns="http://www.w3.org/2000/svg" viewBox="0 -512 512 512">
	<path fill="#000000" d="M405 -384H384V-427H341V-384H171V-427H128V-384H107Q89 -384 76.5 -371.5Q64 -359 64 -341V-43Q64 -25 76.5 -12.5Q89 0 107 0H256V-43H107V-256H405V-233Q430 -226 448 -213V-341Q448 -359 435.5 -371.5Q423 -384 405 -384ZM405 -299H107V-341H405ZM469 17Q469 27 461 35Q453 43 442 43H324Q314 43 306.5 34.5Q299 26 299 15V-60Q299 -69 307 -77Q315 -85 324 -85V-139Q324 -161 342.5 -176.5Q361 -192 384 -192Q407 -192 425.5 -176.5Q444 -161 444 -139V-128H416V-139Q416 -151 406.5 -158.5Q397 -166 384 -166Q371 -166 361.5 -158.5Q352 -151 352 -139V-85H444Q454 -85 461.5 -77Q469 -69 469 -58Z"/>
</svg>