<svg xmlns="http://www.w3.org/2000/svg" viewBox="0 -512 512 512">
	<path fill="#000000" d="M255 -235Q232 -235 217.5 -223.5Q203 -212 203 -190V-189H238Q238 -198 243 -202.5Q248 -207 255.5 -207Q263 -207 268 -201.5Q273 -196 273 -187Q273 -178 269.5 -172Q266 -166 258 -160Q244 -151 238.5 -143.5Q233 -136 233 -121H270Q270 -130 272 -135Q274 -140 281 -145Q294 -152 301.5 -163Q309 -174 309 -187Q309 -209 294.5 -222Q280 -235 255 -235ZM233 -102V-64H270V-102ZM405 -384H384V-427H341V-384H171V-427H128V-384H107Q89 -384 76.5 -371.5Q64 -359 64 -341V-43Q64 -25 76.5 -12.5Q89 0 107 0H405Q423 0 435.5 -12.5Q448 -25 448 -43V-341Q448 -359 435.5 -371.5Q423 -384 405 -384ZM405 -341V-299H107V-341ZM107 -43V-256H405V-43Z"/>
</svg>