<svg xmlns="http://www.w3.org/2000/svg" viewBox="0 -512 512 512">
	<path fill="#000000" d="M405 -384H384V-427H341V-384H171V-427H128V-384H107Q89 -384 76.5 -371.5Q64 -359 64 -341V-43Q64 -25 76.5 -12.5Q89 0 107 0H256V-43H107V-256H405V-213Q430 -206 448 -194V-341Q448 -359 435.5 -371.5Q423 -384 405 -384ZM405 -299H107V-341H405ZM444 -85V-117Q444 -139 425.5 -155Q407 -171 384 -171Q361 -171 342.5 -155Q324 -139 324 -117V-85Q315 -85 307 -77Q299 -69 299 -60V15Q299 26 306.5 34.5Q314 43 324 43H442Q453 43 461 35Q469 27 469 17V-58Q469 -69 461.5 -77Q454 -85 444 -85ZM416 -85H352V-117Q352 -130 361.5 -137.5Q371 -145 384 -145Q397 -145 406.5 -137.5Q416 -130 416 -117Z"/>
</svg>