<svg xmlns="http://www.w3.org/2000/svg" viewBox="0 -512 512 512">
	<path fill="#000000" d="M341 -188Q341 -166 321 -142Q309 -126 269 -90L256 -78L243 -90Q203 -126 191 -142Q171 -166 171 -186.5Q171 -207 184.5 -221Q198 -235 218 -235Q241 -235 256 -217Q271 -235 294 -235Q314 -235 327.5 -221Q341 -207 341 -188ZM448 -341V-43Q448 -25 435.5 -12.5Q423 0 405 0H107Q89 0 76.5 -12.5Q64 -25 64 -43V-341Q64 -359 76.5 -371.5Q89 -384 107 -384H128V-427H171V-384H341V-427H384V-384H405Q423 -384 435.5 -371.5Q448 -359 448 -341ZM107 -341V-299H405V-341ZM405 -43V-256H107V-43Z"/>
</svg>