<svg xmlns="http://www.w3.org/2000/svg" viewBox="0 -512 512 512">
	<path fill="#000000" d="M320 -171H352V-111L404 -80L388 -53L320 -92ZM405 -277H107V-43H206Q192 -73 192 -107Q192 -147 212 -181.5Q232 -216 266.5 -236Q301 -256 341 -256Q375 -256 405 -242ZM107 0Q89 0 76.5 -12.5Q64 -25 64 -43V-341Q64 -359 76.5 -371.5Q89 -384 107 -384H128V-427H171V-384H341V-427H384V-384H405Q423 -384 435.5 -371.5Q448 -359 448 -341V-211Q468 -191 479.5 -164Q491 -137 491 -107Q491 -66 470.5 -32Q450 2 416 22.5Q382 43 341 43Q311 43 284 31.5Q257 20 237 0ZM341 -210Q313 -210 289.5 -196Q266 -182 252 -158.5Q238 -135 238 -107Q238 -79 252 -55Q266 -31 289.5 -17Q313 -3 341 -3Q362 -3 381 -11Q400 -19 414.5 -33.5Q429 -48 437 -67Q445 -86 445 -107Q445 -135 431 -158.5Q417 -182 393 -196Q369 -210 341 -210Z"/>
</svg>