<svg xmlns="http://www.w3.org/2000/svg" viewBox="0 -512 512 512">
	<path fill="#000000" d="M405 -384H384V-427H341V-384H171V-427H128V-384H107Q89 -384 76.5 -371.5Q64 -359 64 -341V-43Q64 -25 76.5 -12.5Q89 0 107 0H299Q280 -15 267 -43H107V-256H405V-222Q431 -218 448 -207V-341Q448 -359 435.5 -371.5Q423 -384 405 -384ZM405 -299H107V-341H405ZM384 -181Q421 -181 444 -156L469 -181V-96H384L422 -134Q404 -149 384 -149Q362 -149 346.5 -133.5Q331 -118 331 -96Q331 -74 346.5 -58.5Q362 -43 384 -43Q409 -43 427 -64H463Q453 -40 432 -25.5Q411 -11 384 -11Q349 -11 324 -36Q299 -61 299 -96Q299 -131 324 -156Q349 -181 384 -181Z"/>
</svg>