<svg xmlns="http://www.w3.org/2000/svg" viewBox="0 -512 512 512">
	<path fill="#000000" d="M471 11L201 -260L51 -410L23 -384L58 -350Q43 -329 43 -299V-21Q43 -4 55.5 8.5Q68 21 85 21H213Q231 21 243.5 8.5Q256 -4 256 -21V-151L277 -130V-107H301L444 36ZM107 -21Q99 -21 92 -28Q85 -35 85 -43Q85 -51 92 -57.5Q99 -64 107 -64Q115 -64 121.5 -57.5Q128 -51 128 -43Q128 -35 121.5 -28Q115 -21 107 -21ZM149 -235Q122 -235 103.5 -253Q85 -271 85 -299Q85 -305 90 -318L171 -237Q166 -237 159 -236Q152 -235 149 -235ZM154 -363L117 -399Q133 -405 149 -405Q179 -405 203.5 -391Q228 -377 242 -352.5Q256 -328 256 -299V-260L213 -303Q212 -327 195 -344Q178 -361 154 -363ZM427 -256H277V-299H427Q444 -299 456.5 -286.5Q469 -274 469 -256V-149Q469 -132 456.5 -119.5Q444 -107 427 -107H410L367 -149H427Z"/>
</svg>