<svg xmlns="http://www.w3.org/2000/svg" viewBox="0 -512 512 512">
	<path fill="#000000" d="M149 -405Q120 -405 95.5 -391Q71 -377 57 -352.5Q43 -328 43 -299V-21Q43 -4 55.5 8.5Q68 21 85 21H213Q231 21 243.5 8.5Q256 -4 256 -21V-299Q256 -328 241.5 -352.5Q227 -377 202.5 -391Q178 -405 149 -405ZM107 -21Q98 -21 91.5 -27.5Q85 -34 85 -42.5Q85 -51 91.5 -57.5Q98 -64 106.5 -64Q115 -64 121.5 -57.5Q128 -51 128 -42.5Q128 -34 121.5 -27.5Q115 -21 107 -21ZM149 -235Q123 -235 104 -253.5Q85 -272 85 -298.5Q85 -325 104 -344Q123 -363 149.5 -363Q176 -363 194.5 -344Q213 -325 213 -298.5Q213 -272 194.5 -253.5Q176 -235 149 -235ZM469 -256V-149Q469 -132 456.5 -119.5Q444 -107 427 -107H277V-149H427V-256H277V-299H427Q444 -299 456.5 -286.5Q469 -274 469 -256Z"/>
</svg>