<svg xmlns="http://www.w3.org/2000/svg" viewBox="0 -512 512 512">
	<path fill="#000000" d="M293 -128L210 16Q234 21 256 21Q294 21 328.5 8.5Q363 -4 391 -27L313 -162ZM52 -128Q67 -81 101 -45.5Q135 -10 180 7L259 -128ZM182 -192L99 -336Q72 -308 57.5 -270.5Q43 -233 43 -192Q43 -171 47 -149H207ZM465 -235H305L413 -48Q440 -77 454.5 -114Q469 -151 469 -192Q469 -214 465 -235ZM460 -256Q445 -303 411 -338.5Q377 -374 332 -391L253 -256ZM201 -224L302 -400Q278 -405 256 -405Q218 -405 183.5 -392.5Q149 -380 121 -357L199 -222Z"/>
</svg>