<svg xmlns="http://www.w3.org/2000/svg" viewBox="0 -512 512 512">
	<path fill="#000000" d="M85 -363H427Q444 -363 456.5 -350.5Q469 -338 469 -320V-64Q469 -46 456.5 -33.5Q444 -21 427 -21H85Q68 -21 55.5 -33.5Q43 -46 43 -64V-320Q43 -338 55.5 -350.5Q68 -363 85 -363ZM85 -320V-64H427V-320ZM256 -288Q290 -288 316 -267Q342 -246 350 -213H316Q310 -232 293.5 -244Q277 -256 256 -256Q235 -256 218.5 -244Q202 -232 196 -213H162Q170 -246 196 -267Q222 -288 256 -288ZM256 -96Q222 -96 196 -117Q170 -138 162 -171H196Q202 -152 218.5 -140Q235 -128 256 -128Q277 -128 293.5 -140Q310 -152 316 -171H350Q342 -138 316 -117Q290 -96 256 -96Z"/>
</svg>