<svg xmlns="http://www.w3.org/2000/svg" viewBox="0 -512 512 512">
	<path fill="#000000" d="M128 -448H384Q402 -448 414.5 -435.5Q427 -423 427 -405V21Q427 39 414.5 51.5Q402 64 384 64H128Q110 64 97.5 51.5Q85 39 85 21V-405Q85 -423 97.5 -435.5Q110 -448 128 -448ZM256 -320Q283 -320 301.5 -301.5Q320 -283 320 -256Q320 -229 301.5 -210.5Q283 -192 256 -192Q229 -192 210.5 -210.5Q192 -229 192 -256Q192 -283 210.5 -301.5Q229 -320 256 -320ZM235 -427V-384H277V-427ZM128 -363V-96Q128 -110 145 -122.5Q162 -135 191.5 -142Q221 -149 256 -149Q291 -149 320.5 -142Q350 -135 367 -122.5Q384 -110 384 -96V-363ZM277 -64H192V-21H277V21L341 -43L277 -107Z"/>
</svg>