<svg xmlns="http://www.w3.org/2000/svg" viewBox="0 -512 512 512">
	<path fill="#000000" d="M192 -384L153 -341H85Q68 -341 55.5 -328.5Q43 -316 43 -299V-43Q43 -25 55.5 -12.5Q68 0 85 0H427Q444 0 456.5 -12.5Q469 -25 469 -43V-299Q469 -316 456.5 -328.5Q444 -341 427 -341H359L320 -384ZM256 -64Q235 -64 215.5 -72Q196 -80 181 -95Q166 -110 157.5 -129.5Q149 -149 149 -170.5Q149 -192 157.5 -211.5Q166 -231 181 -246Q196 -261 215.5 -269Q235 -277 256 -277Q285 -277 309.5 -263Q334 -249 348.5 -224.5Q363 -200 363 -171Q363 -142 348.5 -117.5Q334 -93 309.5 -78.5Q285 -64 256 -64ZM256 -85L283 -144L341 -171L283 -197L256 -256L229 -197L171 -171L229 -144Z"/>
</svg>