<svg xmlns="http://www.w3.org/2000/svg" viewBox="0 -512 512 512">
	<path fill="#000000" d="M445 37L429 21H64V-21H386L275 -133L277 -128H128L171 -213H194L173 -235H171Q153 -235 140.5 -247.5Q128 -260 128 -277V-280L24 -384L51 -411L472 10ZM277 -277Q289 -277 298.5 -283Q308 -289 314 -299H405V-111L448 -68V-299Q448 -316 435.5 -328.5Q423 -341 405 -341H314Q308 -351 298.5 -357Q289 -363 277 -363Q277 -380 264.5 -392.5Q252 -405 235 -405H171Q159 -405 149 -399Q139 -393 133 -383L267 -250Q277 -262 277 -277Z"/>
</svg>