<svg xmlns="http://www.w3.org/2000/svg" viewBox="0 -512 512 512">
	<path fill="#000000" d="M320 -192Q309 -175 305 -149Q284 -128 256.5 -128Q229 -128 210.5 -146.5Q192 -165 192 -192Q192 -219 210.5 -237.5Q229 -256 256 -256Q283 -256 301.5 -237.5Q320 -219 320 -192ZM277 -60Q277 -78 286 -90L281 -89Q265 -85 256 -85Q227 -85 202.5 -99.5Q178 -114 163.5 -138.5Q149 -163 149 -192Q149 -221 163.5 -245.5Q178 -270 202.5 -284.5Q227 -299 256 -299Q292 -299 319.5 -277.5Q347 -256 358 -222Q373 -228 381 -231Q394 -235 405 -235Q423 -235 439.5 -229Q456 -223 469 -213V-320Q469 -338 456.5 -350.5Q444 -363 427 -363H363L320 -405H192L149 -363H85Q68 -363 55.5 -350.5Q43 -338 43 -320V-64Q43 -46 55.5 -33.5Q68 -21 85 -21H277ZM465 -85H373V-139Q373 -151 382.5 -158.5Q392 -166 405.5 -166Q419 -166 428 -158.5Q437 -151 437 -139V-128H465V-139Q465 -161 446.5 -176.5Q428 -192 405 -192Q382 -192 364 -176.5Q346 -161 346 -139V-85Q336 -85 328 -77Q320 -69 320 -60V15Q320 26 328 34.5Q336 43 346 43H463Q474 43 482.5 35Q491 27 491 17V-58Q491 -69 483 -77Q475 -85 465 -85Z"/>
</svg>