<svg xmlns="http://www.w3.org/2000/svg" viewBox="0 -512 512 512">
	<path fill="#000000" d="M64 -363V-427H107V-363H171V-320H107V-256H64V-320H0V-363ZM128 -235V-299H192V-363H341L380 -320H448Q466 -320 478.5 -307.5Q491 -295 491 -277V-21Q491 -4 478.5 8.5Q466 21 448 21H107Q89 21 76.5 8.5Q64 -4 64 -21V-235ZM277 -43Q312 -43 338 -61Q364 -79 376 -108.5Q388 -138 383 -168Q377 -200 353 -224.5Q329 -249 296 -255Q266 -260 236.5 -248Q207 -236 190 -211Q171 -184 171 -149Q171 -120 185 -95.5Q199 -71 223.5 -57Q248 -43 277 -43ZM209 -149Q209 -120 229 -101Q249 -82 277 -81Q305 -80 325.5 -101Q346 -122 345.5 -149.5Q345 -177 326 -197.5Q307 -218 278 -218Q249 -218 229 -197.5Q209 -177 209 -149Z"/>
</svg>