<svg xmlns="http://www.w3.org/2000/svg" viewBox="0 -512 512 512">
	<path fill="#000000" d="M85 -363H149L192 -405H320L363 -363H427Q444 -363 456.5 -350.5Q469 -338 469 -320V-64Q469 -46 456.5 -33.5Q444 -21 427 -21H85Q68 -21 55.5 -33.5Q43 -46 43 -64V-320Q43 -338 55.5 -350.5Q68 -363 85 -363ZM256 -299Q227 -299 202.5 -284.5Q178 -270 163.5 -245.5Q149 -221 149 -192Q149 -163 163.5 -138.5Q178 -114 202.5 -99.5Q227 -85 256 -85Q285 -85 309.5 -99.5Q334 -114 348.5 -138.5Q363 -163 363 -192Q363 -221 348.5 -245.5Q334 -270 309.5 -284.5Q285 -299 256 -299ZM256 -256Q283 -256 301.5 -237.5Q320 -219 320 -192Q320 -165 301.5 -146.5Q283 -128 256 -128Q229 -128 210.5 -146.5Q192 -165 192 -192Q192 -219 210.5 -237.5Q229 -256 256 -256Z"/>
</svg>