<svg xmlns="http://www.w3.org/2000/svg" viewBox="0 -512 512 512">
	<path fill="#000000" d="M448 -320H380L341 -363H213V-320H322L363 -277H448V-21H107V-213H64V-21Q64 -4 76.5 8.5Q89 21 107 21H448Q466 21 478.5 8.5Q491 -4 491 -21V-277Q491 -295 478.5 -307.5Q466 -320 448 -320ZM171 -149Q171 -115 190 -88Q207 -63 236.5 -51Q266 -39 296 -44Q329 -50 353 -74Q377 -98 383 -131Q388 -161 376 -190Q364 -219 339 -237Q312 -256 277 -256Q248 -256 223.5 -241.5Q199 -227 185 -202.5Q171 -178 171 -149ZM277 -213Q304 -213 322.5 -194.5Q341 -176 341 -149.5Q341 -123 322.5 -104.5Q304 -86 277.5 -86Q251 -86 232.5 -104.5Q214 -123 214 -149.5Q214 -176 232.5 -194.5Q251 -213 277 -213ZM107 -320H171V-363H107V-427H64V-363H0V-320H64V-256H107Z"/>
</svg>