<svg xmlns="http://www.w3.org/2000/svg" viewBox="0 -512 512 512">
	<path fill="#000000" d="M363 -192Q363 -176 357 -159L320 -197Q318 -220 301 -237Q284 -254 261 -256L223 -293Q240 -299 256 -299Q285 -299 309.5 -284.5Q334 -270 348.5 -245.5Q363 -221 363 -192ZM211 -363H301L340 -320H427V-90L467 -49Q469 -56 469 -64V-320Q469 -338 456.5 -350.5Q444 -363 427 -363H359L320 -405H192L153 -363L183 -333ZM472 10L445 37L386 -21H85Q68 -21 55.5 -33.5Q43 -46 43 -64V-320Q43 -339 57 -351L24 -384L51 -411ZM192 -192Q192 -165 210.5 -146.5Q229 -128 256 -128Q266 -128 276 -132L196 -212Q192 -201 192 -192ZM344 -64L308 -99Q283 -85 255 -85Q227 -85 202.5 -99.5Q178 -114 163.5 -138.5Q149 -163 149 -191Q149 -219 163 -244L88 -320H85V-64Z"/>
</svg>