<svg xmlns="http://www.w3.org/2000/svg" viewBox="0 -512 512 512">
	<path fill="#000000" d="M395 -90Q384 -90 376.5 -97.5Q369 -105 369 -115.5Q369 -126 377 -133.5Q385 -141 394.5 -141Q404 -141 412 -133Q420 -125 421 -115.5Q422 -106 414 -98Q406 -90 395 -90ZM395 -192Q364 -192 342 -170Q320 -148 320 -117Q320 -93 339 -57Q353 -31 375 -2L395 21L414 -2Q436 -31 450 -57Q469 -93 469 -117Q469 -148 447 -170Q425 -192 395 -192ZM192 -405L154 -363H85Q68 -363 55.5 -350.5Q43 -338 43 -320V-64Q43 -46 55.5 -33.5Q68 -21 85 -21H309Q293 -45 288 -64H85V-320H173L211 -363H301L339 -320H427V-230Q449 -224 469 -207V-320Q469 -338 456.5 -350.5Q444 -363 427 -363H358L320 -405ZM256 -299Q227 -299 202.5 -284.5Q178 -270 163.5 -245.5Q149 -221 149 -192Q149 -163 163.5 -138.5Q178 -114 202.5 -99.5Q227 -85 256 -85Q273 -85 282 -87L281 -92Q277 -108 277 -117V-132Q265 -128 256 -128Q229 -128 210.5 -146.5Q192 -165 192 -192Q192 -219 210.5 -237.5Q229 -256 256 -256Q278 -256 295.5 -242Q313 -228 318 -207Q338 -223 356 -228Q345 -260 317.5 -279.5Q290 -299 256 -299Z"/>
</svg>