<svg xmlns="http://www.w3.org/2000/svg" viewBox="0 -512 512 512">
	<path fill="#000000" d="M491 -58V17Q491 27 482.5 35Q474 43 463 43H346Q336 43 328 34.5Q320 26 320 15V-60Q320 -69 328 -77Q336 -85 346 -85V-117Q346 -139 364 -155Q382 -171 405 -171Q428 -171 446.5 -155Q465 -139 465 -117V-85Q475 -85 483 -77Q491 -69 491 -58ZM437 -117Q437 -130 428 -137.5Q419 -145 405.5 -145Q392 -145 382.5 -137.5Q373 -130 373 -117V-85H437ZM427 -363Q444 -363 456.5 -350.5Q469 -338 469 -320V-192Q450 -206 427 -211V-320H340L301 -363H211L172 -320H85V-64H277V-21H85Q68 -21 55.5 -33.5Q43 -46 43 -64V-320Q43 -338 55.5 -350.5Q68 -363 85 -363H153L192 -405H320L359 -363ZM256 -299Q297 -299 327 -271.5Q357 -244 362 -204Q335 -192 317.5 -167Q300 -142 299 -112Q288 -102 282 -89Q270 -85 256 -85Q227 -85 202.5 -99.5Q178 -114 163.5 -138.5Q149 -163 149 -192Q149 -221 163.5 -245.5Q178 -270 202.5 -284.5Q227 -299 256 -299ZM256 -128Q282 -128 301 -147Q320 -166 320 -192Q320 -218 301 -237Q282 -256 256 -256Q230 -256 211 -237Q192 -218 192 -192Q192 -166 211 -147Q230 -128 256 -128Z"/>
</svg>