<svg xmlns="http://www.w3.org/2000/svg" viewBox="0 -512 512 512">
	<path fill="#000000" d="M85 -363H427Q444 -363 456.5 -350.5Q469 -338 469 -320V-64Q469 -46 456.5 -33.5Q444 -21 427 -21H85Q68 -21 55.5 -33.5Q43 -46 43 -64V-320Q43 -338 55.5 -350.5Q68 -363 85 -363ZM85 -320V-64H427V-320ZM117 -288H235V-252Q221 -248 210.5 -237.5Q200 -227 196 -213H117ZM395 -288V-213H316Q312 -227 301.5 -237.5Q291 -248 277 -252V-288ZM395 -96H277V-132Q291 -136 301.5 -146.5Q312 -157 316 -171H395ZM117 -96V-171H196Q200 -157 210.5 -146.5Q221 -136 235 -132V-96ZM256 -224Q269 -224 278.5 -214.5Q288 -205 288 -192Q288 -179 278.5 -169.5Q269 -160 256 -160Q243 -160 233.5 -169.5Q224 -179 224 -192Q224 -205 233.5 -214.5Q243 -224 256 -224Z"/>
</svg>