<svg xmlns="http://www.w3.org/2000/svg" viewBox="0 -512 512 512">
	<path fill="#000000" d="M105 -313Q99 -319 99 -328Q99 -337 105.5 -343Q112 -349 120.5 -349Q129 -349 135 -343L286 -222Q299 -210 299 -192Q299 -174 286.5 -161.5Q274 -149 256 -149Q238 -149 226 -162ZM256 -21Q302 -21 341.5 -44Q381 -67 404 -106.5Q427 -146 427 -192Q427 -227 413.5 -258Q400 -289 377 -313L407 -343Q436 -313 452.5 -274Q469 -235 469 -192.5Q469 -150 453 -110.5Q437 -71 407 -41Q377 -11 337.5 5Q298 21 256 21Q214 21 174.5 5Q135 -11 105 -41Q75 -71 59 -110.5Q43 -150 43 -192H85Q85 -146 108 -106.5Q131 -67 170.5 -44Q210 -21 256 -21ZM256 -427Q274 -427 286.5 -414.5Q299 -402 299 -384Q299 -366 286.5 -353.5Q274 -341 256 -341Q238 -341 225.5 -353.5Q213 -366 213 -384Q213 -402 225.5 -414.5Q238 -427 256 -427Z"/>
</svg>