<svg xmlns="http://www.w3.org/2000/svg" viewBox="0 -512 512 512">
	<path fill="#000000" d="M256 -235L236 -191L192 -171L236 -151L256 -107L276 -151L320 -171L276 -191ZM427 -341H359L320 -384H192L153 -341H85Q68 -341 55.5 -328.5Q43 -316 43 -299V-43Q43 -25 55.5 -12.5Q68 0 85 0H427Q444 0 456.5 -12.5Q469 -25 469 -43V-299Q469 -316 456.5 -328.5Q444 -341 427 -341ZM427 -43H85V-299H172L211 -341H301L340 -299H427ZM256 -277Q235 -277 215.5 -269Q196 -261 181 -246Q166 -231 157.5 -211.5Q149 -192 149 -170.5Q149 -149 157.5 -129.5Q166 -110 181 -95Q196 -80 215.5 -72Q235 -64 256 -64Q285 -64 309.5 -78.5Q334 -93 348.5 -117.5Q363 -142 363 -171Q363 -200 348.5 -224.5Q334 -249 309.5 -263Q285 -277 256 -277ZM256 -107Q229 -107 210.5 -125.5Q192 -144 192 -170.5Q192 -197 210.5 -216Q229 -235 256 -235Q283 -235 301.5 -216Q320 -197 320 -170.5Q320 -144 301.5 -125.5Q283 -107 256 -107Z"/>
</svg>