<svg xmlns="http://www.w3.org/2000/svg" viewBox="0 -512 512 512">
	<path fill="#000000" d="M256 -320Q238 -320 225.5 -332.5Q213 -345 213 -362.5Q213 -380 225.5 -392.5Q238 -405 255.5 -405Q273 -405 286 -392.5Q299 -380 299 -362.5Q299 -345 286.5 -332.5Q274 -320 256 -320ZM363 -448H149Q132 -448 119.5 -435.5Q107 -423 107 -405V-107Q107 -89 119.5 -76.5Q132 -64 149 -64H363Q380 -64 392.5 -76.5Q405 -89 405 -107V-405Q405 -423 392.5 -435.5Q380 -448 363 -448ZM299 -21V21H405V-21ZM213 -21H107V21H213V64L277 0L213 -64Z"/>
</svg>