<svg xmlns="http://www.w3.org/2000/svg" viewBox="0 -512 512 512">
	<path fill="#000000" d="M277 -21H85Q68 -21 55.5 -33.5Q43 -46 43 -64V-320Q43 -338 55.5 -350.5Q68 -363 85 -363H154L192 -405H320L358 -363H427Q444 -363 456.5 -350.5Q469 -338 469 -320V-213Q444 -230 427 -233V-320H341L303 -363H211L171 -320H85V-64H277ZM256 -299Q227 -299 202.5 -284.5Q178 -270 163.5 -245.5Q149 -221 149 -192Q149 -163 163.5 -138.5Q178 -114 202.5 -99.5Q227 -85 256 -85Q265 -85 281 -89L286 -90Q293 -105 303 -111V-137Q303 -145 305 -147Q284 -126 256.5 -126Q229 -126 210.5 -144.5Q192 -163 192 -190Q192 -217 210.5 -235.5Q229 -254 256 -254Q283 -254 301.5 -235.5Q320 -217 320 -190V-188Q331 -204 358 -220Q347 -256 319.5 -277.5Q292 -299 256 -299ZM465 -85H373V-139Q373 -151 382.5 -158.5Q392 -166 405.5 -166Q419 -166 428 -158.5Q437 -151 437 -139V-128H465V-139Q465 -161 446.5 -176.5Q428 -192 405 -192Q382 -192 364 -176.5Q346 -161 346 -139V-85Q336 -85 328 -77Q320 -69 320 -60V15Q320 26 328 34.5Q336 43 346 43H463Q474 43 482.5 35Q491 27 491 17V-58Q491 -69 483 -77Q475 -85 465 -85Z"/>
</svg>