<svg xmlns="http://www.w3.org/2000/svg" viewBox="0 -512 512 512">
	<path fill="#000000" d="M256 -405Q314 -405 363 -376.5Q412 -348 440.5 -299Q469 -250 469 -192Q469 -134 440.5 -85Q412 -36 363 -7.5Q314 21 256 21Q198 21 149 -7.5Q100 -36 71.5 -85Q43 -134 43 -192Q43 -250 71.5 -299Q100 -348 149 -376.5Q198 -405 256 -405ZM256 -363Q194 -363 151 -326L390 -87Q427 -138 427 -192Q427 -238 404 -277.5Q381 -317 341.5 -340Q302 -363 256 -363ZM361 -58L122 -297Q85 -254 85 -192Q85 -146 108 -106.5Q131 -67 170.5 -44Q210 -21 256 -21Q318 -21 361 -58Z"/>
</svg>