<svg xmlns="http://www.w3.org/2000/svg" viewBox="0 -512 512 512">
	<path fill="#000000" d="M267 -405Q250 -405 234 -386Q221 -368 212 -342.5Q203 -317 203 -299Q203 -272 221.5 -253.5Q240 -235 266.5 -235Q293 -235 312 -253.5Q331 -272 331 -299Q331 -317 322 -342.5Q313 -368 299 -386Q283 -405 267 -405ZM267 -309Q276 -309 282 -303Q288 -297 288 -288Q288 -279 282 -273Q276 -267 267 -267Q258 -267 251.5 -273Q245 -279 245 -288Q245 -297 251.5 -303Q258 -309 267 -309ZM213 -213Q204 -213 198 -207Q192 -201 192 -192V-21H149Q140 -21 134 -27.5Q128 -34 128 -43V-64Q128 -73 122 -79Q116 -85 107 -85Q98 -85 91.5 -79Q85 -73 85 -64V-43Q85 -16 104 2.5Q123 21 149 21H405Q414 21 420.5 15Q427 9 427 0Q427 -9 420.5 -15Q414 -21 405 -21H341V-192Q341 -201 335 -207Q329 -213 320 -213Z"/>
</svg>