<svg xmlns="http://www.w3.org/2000/svg" viewBox="0 -512 512 512">
	<path fill="#000000" d="M437 -213Q437 -205 431 -198.5Q425 -192 416 -192H405V-149Q405 -132 392.5 -119.5Q380 -107 363 -107H277V-21H299Q316 -21 328.5 -8.5Q341 4 341 21H171Q171 4 183.5 -8.5Q196 -21 213 -21H235V-107H149Q132 -107 119.5 -119.5Q107 -132 107 -149V-192H96Q87 -192 81 -198.5Q75 -205 75 -213.5Q75 -222 81 -228.5Q87 -235 96 -235H107V-363L149 -341V-235H160Q169 -235 175 -228.5Q181 -222 181 -213.5Q181 -205 175 -198.5Q169 -192 160 -192H149V-149H235V-192H224Q215 -192 209 -198.5Q203 -205 203 -213.5Q203 -222 209 -228.5Q215 -235 224 -235H235V-405L277 -384V-235H288Q297 -235 303 -228.5Q309 -222 309 -213.5Q309 -205 303 -198.5Q297 -192 288 -192H277V-149H363V-192H352Q343 -192 337 -198.5Q331 -205 331 -213.5Q331 -222 337 -228.5Q343 -235 352 -235H363V-363L405 -341V-235H416Q425 -235 431 -228.5Q437 -222 437 -213Z"/>
</svg>