<svg xmlns="http://www.w3.org/2000/svg" viewBox="0 -512 512 512">
	<path fill="#000000" d="M384 -299Q397 -299 406.5 -308Q416 -317 416 -331.5Q416 -346 407 -364Q396 -384 384 -384Q372 -384 361 -364Q352 -346 352 -331.5Q352 -317 361.5 -308Q371 -299 384 -299ZM384 -336Q388 -336 391.5 -333Q395 -330 395 -325.5Q395 -321 391.5 -318Q388 -315 384 -315Q380 -315 376.5 -318Q373 -321 373 -325.5Q373 -330 376.5 -333Q380 -336 384 -336ZM256 -320Q269 -320 278.5 -329.5Q288 -339 288 -353Q288 -367 279 -385Q268 -405 256 -405Q244 -405 233 -385Q224 -367 224 -353Q224 -339 233.5 -329.5Q243 -320 256 -320ZM256 -357Q260 -357 263.5 -354Q267 -351 267 -346.5Q267 -342 263.5 -339Q260 -336 256 -336Q252 -336 248.5 -339Q245 -342 245 -346.5Q245 -351 248.5 -354Q252 -357 256 -357ZM128 -299Q141 -299 150.5 -308Q160 -317 160 -331.5Q160 -346 151 -364Q140 -384 128 -384Q116 -384 105 -364Q96 -346 96 -331.5Q96 -317 105.5 -308Q115 -299 128 -299ZM128 -336Q132 -336 135.5 -333Q139 -330 139 -325.5Q139 -321 135.5 -318Q132 -315 128 -315Q124 -315 120.5 -318Q117 -321 117 -325.5Q117 -330 120.5 -333Q124 -336 128 -336ZM437 -213Q437 -205 431 -198.5Q425 -192 416 -192H405V-149Q405 -132 392.5 -119.5Q380 -107 363 -107H277V-21H299Q316 -21 328.5 -8.5Q341 4 341 21H171Q171 4 183.5 -8.5Q196 -21 213 -21H235V-107H149Q132 -107 119.5 -119.5Q107 -132 107 -149V-192H96Q87 -192 81 -198.5Q75 -205 75 -213.5Q75 -222 81 -228.5Q87 -235 96 -235V-256Q96 -265 102.5 -271Q109 -277 117 -277H139Q147 -277 153.5 -271Q160 -265 160 -256V-235Q169 -235 175 -228.5Q181 -222 181 -213.5Q181 -205 175 -198.5Q169 -192 160 -192H149V-149H235V-192H224Q215 -192 209 -198.5Q203 -205 203 -213.5Q203 -222 209 -228.5Q215 -235 224 -235V-277Q224 -286 230.5 -292.5Q237 -299 245 -299H267Q275 -299 281.5 -292.5Q288 -286 288 -277V-235Q297 -235 303 -228.5Q309 -222 309 -213.5Q309 -205 303 -198.5Q297 -192 288 -192H277V-149H363V-192H352Q343 -192 337 -198.5Q331 -205 331 -213.5Q331 -222 337 -228.5Q343 -235 352 -235V-256Q352 -265 358.5 -271Q365 -277 373 -277H395Q403 -277 409.5 -271Q416 -265 416 -256V-235Q425 -235 431 -228.5Q437 -222 437 -213Z"/>
</svg>