<svg xmlns="http://www.w3.org/2000/svg" viewBox="0 -512 512 512">
	<path fill="#000000" d="M471 11L51 -412L23 -384L164 -243Q147 -213 151.5 -177Q156 -141 181.5 -115.5Q207 -90 243 -85Q279 -80 309 -98L446 38ZM211 -147Q198 -160 194 -178Q190 -196 196 -213L277 -132Q259 -126 241.5 -129.5Q224 -133 211 -147ZM316 -314Q310 -334 315 -354Q320 -379 339 -397Q368 -368 371 -335Q386 -344 401 -349Q409 -351 414 -352Q411 -327 397 -309Q434 -302 459 -277Q441 -259 416 -254Q395 -249 375 -254Q371 -275 354.5 -291Q338 -307 316 -314ZM260 -256L222 -294Q250 -304 279.5 -297.5Q309 -291 331 -269Q353 -247 359.5 -218Q366 -189 356 -160L320 -196Q316 -224 301 -237Q281 -253 260 -256ZM196 -70Q202 -50 197 -30Q192 -5 173 13Q144 -16 141 -49Q126 -40 111 -35Q103 -33 98 -32Q101 -57 115 -75Q78 -82 53 -107Q71 -125 96 -130Q117 -135 137 -130Q141 -109 157.5 -93Q174 -77 196 -70Z"/>
</svg>