<svg xmlns="http://www.w3.org/2000/svg" viewBox="0 -512 512 512">
	<path fill="#000000" d="M355 -162L309 -207Q341 -238 385 -260Q407 -271 423 -275Q396 -204 355 -162ZM256 -405Q253 -398 249 -390Q241 -371 235 -351Q226 -322 222 -294L293 -224Q301 -305 256 -405ZM445 37L472 10L51 -411L24 -384L184 -224Q164 -241 139 -254Q122 -263 104 -270L89 -275Q129 -171 198 -129Q171 -132 142 -127Q121 -122 101 -114L85 -107Q157 -75 212 -86Q193 -71 180 -47Q174 -35 171 -25Q224 -45 245 -78V21H267V-78Q288 -45 341 -25L337 -36Q331 -48 324 -60Q313 -75 300 -86H304Q317 -84 324 -83Z"/>
</svg>