<svg xmlns="http://www.w3.org/2000/svg" viewBox="0 -512 512 512">
	<path fill="#000000" d="M404 -405Q400 -415 392 -421Q384 -427 373 -427H139Q128 -427 120 -421Q112 -415 108 -405L64 -277V-107Q64 -98 70.5 -91.5Q77 -85 85 -85H107Q115 -85 121.5 -91.5Q128 -98 128 -107V-128H384V-107Q384 -98 390.5 -91.5Q397 -85 405 -85H427Q435 -85 441.5 -91.5Q448 -98 448 -107V-277ZM146 -384H366L389 -318H123ZM405 -171H107V-277H405ZM160 -256Q173 -256 182.5 -246.5Q192 -237 192 -224Q192 -211 182.5 -201.5Q173 -192 160 -192Q147 -192 137.5 -201.5Q128 -211 128 -224Q128 -237 137.5 -246.5Q147 -256 160 -256ZM352 -256Q365 -256 374.5 -246.5Q384 -237 384 -224Q384 -211 374.5 -201.5Q365 -192 352 -192Q339 -192 329.5 -201.5Q320 -211 320 -224Q320 -237 329.5 -246.5Q339 -256 352 -256ZM149 -21H235V-64L363 0H277V43Z"/>
</svg>