<svg xmlns="http://www.w3.org/2000/svg" viewBox="0 -512 512 512">
	<path fill="#000000" d="M192 -448Q165 -448 146.5 -429.5Q128 -411 128 -384Q128 -357 146.5 -338.5Q165 -320 192 -320Q213 -320 229 -331.5Q245 -343 252 -363H299V-320H341V-363H384V-405H252Q245 -425 229 -436.5Q213 -448 192 -448ZM192 -405Q202 -405 207.5 -399.5Q213 -394 213 -384Q213 -374 207.5 -368.5Q202 -363 192 -363Q182 -363 176.5 -368.5Q171 -374 171 -384Q171 -394 176.5 -399.5Q182 -405 192 -405ZM139 -277Q128 -277 120 -271.5Q112 -266 109 -256L64 -128V43Q64 52 70 58Q76 64 85 64H107Q116 64 122 58Q128 52 128 43V21H384V43Q384 52 390 58Q396 64 405 64H427Q436 64 442 58Q448 52 448 43V-128L403 -256Q400 -265 391.5 -271Q383 -277 373 -277ZM139 -245H373L405 -149H107ZM139 -107Q151 -107 161 -97Q171 -87 171 -74.5Q171 -62 161 -52.5Q151 -43 138.5 -43Q126 -43 116.5 -52.5Q107 -62 107 -74.5Q107 -87 116.5 -97Q126 -107 139 -107ZM373 -107Q386 -107 395.5 -97Q405 -87 405 -74.5Q405 -62 395.5 -52.5Q386 -43 373.5 -43Q361 -43 351 -52.5Q341 -62 341 -74.5Q341 -87 351 -97Q361 -107 373 -107Z"/>
</svg>