<svg xmlns="http://www.w3.org/2000/svg" viewBox="0 -512 512 512">
	<path fill="#000000" d="M469 0H235V-107Q235 -118 229 -128Q223 -138 213 -144V-149Q213 -185 192 -213H427V-341H252L155 -244Q133 -256 107 -256L235 -384H448Q456 -384 462.5 -377.5Q469 -371 469 -363ZM405 -149H341V-107H405ZM166 -107H75V-160Q75 -172 84 -180Q93 -188 106.5 -188Q120 -188 129.5 -180Q139 -172 139 -160V-149H166V-160Q166 -182 148 -197.5Q130 -213 107 -213Q84 -213 65.5 -197.5Q47 -182 47 -160V-107Q37 -107 29 -99Q21 -91 21 -81V-6Q21 5 29 13Q37 21 47 21H164Q175 21 183.5 13.5Q192 6 192 -4V-79Q192 -90 184 -98.5Q176 -107 166 -107Z"/>
</svg>