<svg xmlns="http://www.w3.org/2000/svg" viewBox="0 -512 512 512">
	<path fill="#000000" d="M320 43Q311 43 305 36.5Q299 30 300 21.5Q301 13 307 6Q318 -2 329 -19Q343 -40 343 -55Q343 -63 339 -72Q337 -78 330 -90L324 -100Q313 -117 308 -127Q301 -144 301 -160Q301 -191 315 -213Q324 -226 332 -230.5Q340 -235 349 -233Q358 -231 362.5 -223.5Q367 -216 365 -207.5Q363 -199 356 -194L354 -191Q350 -187 348 -180Q346 -171 346 -160Q346 -153 350 -143Q352 -137 359 -125L365 -115Q376 -98 381 -88Q388 -71 388 -55Q388 -27 366 6Q355 23 340 38H339L333 40Q323 43 320 43ZM250 36Q250 36 250 36Q266 20 277 4Q299 -29 299 -58Q299 -87 273 -122L270 -127Q263 -139 260 -145Q256 -155 256 -162Q256 -174 259 -182Q261 -189 264 -193L267 -196Q275 -201 276.5 -209.5Q278 -218 273 -226Q268 -234 259.5 -235.5Q251 -237 242.5 -232.5Q234 -228 226 -215Q211 -193 211 -162.5Q211 -132 237 -98L240 -93Q247 -80 250 -75Q254 -65 254 -58Q254 -42 240 -21Q229 -5 218 4Q211 10 211 19Q211 28 216.5 34.5Q222 41 230 41Q242 44 250 36ZM164 36Q164 36 165 36Q180 20 192 4Q213 -29 213 -58Q213 -87 188 -122Q179 -134 176 -141Q171 -152 171 -163Q171 -174 173 -182Q175 -189 179 -193L181 -196Q189 -201 191 -209.5Q193 -218 188 -226Q185 -232 176 -234Q167 -236 160 -233Q151 -228 142 -215Q128 -193 128 -162.5Q128 -132 154 -98L157 -93Q164 -80 166 -75Q171 -65 171 -58Q171 -42 157 -21Q145 -5 134 4Q128 10 127.5 19Q127 28 132 34Q141 43 149.5 43Q158 43 164 36ZM256 -384Q212 -384 171 -379Q107 -372 70 -356Q21 -334 21 -299.5Q21 -265 36 -183Q47 -119 60 -64H107V-107H94Q64 -251 64 -299Q64 -309 91.5 -319Q119 -329 163.5 -335Q208 -341 256 -341Q304 -341 348.5 -335Q393 -329 420.5 -319Q448 -309 448 -299Q448 -251 418 -107H405V-64H452Q465 -119 476 -183Q491 -265 491 -299.5Q491 -334 442 -356Q405 -372 341 -379Q300 -384 256 -384Z"/>
</svg>