<svg xmlns="http://www.w3.org/2000/svg" viewBox="0 -512 512 512">
	<path fill="#000000" d="M139 -341Q128 -341 120 -335Q112 -329 108 -320L64 -192V-21Q64 -12 70 -6Q76 0 85 0H107Q116 0 122 -6Q128 -12 128 -21V-43H241Q235 -64 235 -85Q235 -125 254.5 -159Q274 -193 307 -213H107L139 -309H373L399 -234Q418 -232 437 -225L404 -320Q400 -329 392 -335Q384 -341 373 -341ZM363 -192Q358 -192 357 -188L353 -159Q343 -155 335 -149L308 -160Q303 -160 302 -157L281 -120Q278 -116 282 -113L304 -96Q304 -91 304 -85.5Q304 -80 304 -75L282 -57Q278 -54 281 -50L302 -13Q303 -11 308 -11L335 -21Q345 -15 353 -11L357 17Q358 21 363 21H405Q410 21 410 17L415 -11Q423 -15 432 -21L459 -11Q464 -11 466 -13L487 -50Q489 -54 486 -57L463 -75L464 -85Q464 -91 463 -96L486 -113Q489 -116 487 -120L465 -157Q464 -160 459 -160L432 -149Q422 -157 414 -159L410 -188Q410 -192 405 -192ZM139 -171Q152 -171 161.5 -161.5Q171 -152 171 -138.5Q171 -125 161.5 -116Q152 -107 138.5 -107Q125 -107 116 -116Q107 -125 107 -138.5Q107 -152 116 -161.5Q125 -171 139 -171ZM384 -117Q397 -117 406.5 -108Q416 -99 416 -85.5Q416 -72 406.5 -62.5Q397 -53 384 -53Q371 -53 361.5 -62.5Q352 -72 352 -85.5Q352 -99 361.5 -108Q371 -117 384 -117Z"/>
</svg>