<svg xmlns="http://www.w3.org/2000/svg" viewBox="0 -512 512 512">
	<path fill="#000000" d="M235 -128H277V-85H235ZM235 -299H277V-171H235ZM256 -384Q204 -384 160 -358Q116 -332 90 -288Q64 -244 64 -192Q64 -140 90 -96Q116 -52 160 -26Q204 0 256 0Q308 0 352 -26Q396 -52 422 -96Q448 -140 448 -192Q448 -244 422 -288Q396 -332 352 -358Q308 -384 256 -384ZM256 -43Q216 -43 181.5 -63Q147 -83 127 -117.5Q107 -152 107 -192Q107 -232 127 -266.5Q147 -301 181.5 -321Q216 -341 256 -341Q296 -341 330.5 -321Q365 -301 385 -266.5Q405 -232 405 -192Q405 -152 385 -117.5Q365 -83 330.5 -63Q296 -43 256 -43ZM437 -11Q473 -46 492.5 -93Q512 -140 512 -192Q512 -244 492.5 -291Q473 -338 437 -373L414 -350Q445 -319 462.5 -278Q480 -237 480 -192Q480 -147 462.5 -106Q445 -65 414 -34ZM98 -34Q67 -65 49.5 -106Q32 -147 32 -192Q32 -237 49.5 -278Q67 -319 98 -350L75 -373Q39 -338 19.5 -291Q0 -244 0 -192Q0 -140 19.5 -93Q39 -46 75 -11Z"/>
</svg>