<svg xmlns="http://www.w3.org/2000/svg" viewBox="0 -512 512 512">
	<path fill="#000000" d="M32 -192Q32 -147 49.5 -106Q67 -65 98 -34L75 -11Q39 -46 19.5 -93Q0 -140 0 -192Q0 -244 19.5 -291Q39 -338 75 -373L98 -350Q67 -319 49.5 -278Q32 -237 32 -192ZM448 -192Q448 -140 422 -96Q396 -52 352 -26Q308 0 256 0Q204 0 160 -26Q116 -52 90 -96Q64 -140 64 -192Q64 -244 90 -288Q116 -332 160 -358Q204 -384 256 -384Q308 -384 352 -358Q396 -332 422 -288Q448 -244 448 -192ZM107 -192Q107 -180 109 -165Q115 -171 122.5 -171Q130 -171 133.5 -168.5Q137 -166 142 -159L145 -156Q166 -128 189.5 -128Q213 -128 235 -156L236 -157Q243 -167 247 -169Q251 -171 257 -171Q263 -171 266 -168.5Q269 -166 275 -158L277 -156Q299 -128 322.5 -128Q346 -128 367 -156L370 -159Q375 -166 378.5 -168.5Q382 -171 389.5 -171Q397 -171 403 -165Q405 -180 405 -192Q405 -232 385 -266.5Q365 -301 330.5 -321Q296 -341 256 -341Q216 -341 181.5 -321Q147 -301 127 -266.5Q107 -232 107 -192ZM437 -373L414 -350Q445 -319 462.5 -278Q480 -237 480 -192Q480 -147 462.5 -106Q445 -65 414 -34L437 -11Q473 -46 492.5 -93Q512 -140 512 -192Q512 -244 492.5 -291Q473 -338 437 -373Z"/>
</svg>