<svg xmlns="http://www.w3.org/2000/svg" viewBox="0 -512 512 512">
	<path fill="#000000" d="M256 -384Q204 -384 159.5 -358.5Q115 -333 89.5 -288.5Q64 -244 64 -192Q64 -140 89.5 -95.5Q115 -51 159.5 -25.5Q204 0 256 0Q308 0 352.5 -25.5Q397 -51 422.5 -95.5Q448 -140 448 -192Q448 -244 422.5 -288.5Q397 -333 352.5 -358.5Q308 -384 256 -384ZM256 -43Q215 -43 181 -63Q147 -83 127 -117Q107 -151 107 -192Q107 -233 127 -267Q147 -301 181 -321Q215 -341 256 -341Q297 -341 331 -321Q365 -301 385 -267Q405 -233 405 -192Q405 -151 385 -117Q365 -83 331 -63Q297 -43 256 -43ZM437 -11Q473 -46 492.5 -93Q512 -140 512 -192Q512 -244 492.5 -291Q473 -338 437 -373L414 -350Q445 -319 462.5 -278Q480 -237 480 -192Q480 -147 462.5 -106Q445 -65 414 -34ZM98 -34Q67 -65 49.5 -106Q32 -147 32 -192Q32 -237 49.5 -278Q67 -319 98 -350L75 -373Q39 -338 19.5 -291Q0 -244 0 -192Q0 -140 19.5 -93Q39 -46 75 -11ZM203 -299V-85H245V-171H288Q306 -171 318.5 -183.5Q331 -196 331 -213V-256Q331 -274 318.5 -286.5Q306 -299 288 -299ZM245 -256H288V-213H245Z"/>
</svg>