<svg xmlns="http://www.w3.org/2000/svg" viewBox="0 -512 512 512">
	<path fill="#000000" d="M107 -171L139 -267H373L405 -171ZM373 -64Q360 -64 350.5 -73.5Q341 -83 341 -96Q341 -109 350.5 -118.5Q360 -128 373.5 -128Q387 -128 396 -118.5Q405 -109 405 -96Q405 -83 396 -73.5Q387 -64 373 -64ZM139 -64Q125 -64 116 -73.5Q107 -83 107 -96Q107 -109 116 -118.5Q125 -128 138.5 -128Q152 -128 161.5 -118.5Q171 -109 171 -96Q171 -83 161.5 -73.5Q152 -64 139 -64ZM404 -277Q400 -287 392 -293Q384 -299 373 -299H139Q128 -299 120 -293Q112 -287 108 -277L64 -149V21Q64 30 70 36.5Q76 43 85 43H107Q116 43 122 36.5Q128 30 128 21V0H384V21Q384 30 390 36.5Q396 43 405 43H427Q436 43 442 36.5Q448 30 448 21V-149ZM149 -341Q163 -341 172 -350.5Q181 -360 181 -373.5Q181 -387 165 -410Q157 -422 149 -431L141 -421Q132 -408 126 -398Q117 -383 117 -373Q117 -360 126.5 -350.5Q136 -341 149 -341ZM256 -341Q269 -341 278.5 -350.5Q288 -360 288 -373Q288 -383 280 -398Q274 -408 264 -421L256 -431L248 -421Q238 -408 232 -398Q224 -383 224 -373Q224 -360 233.5 -350.5Q243 -341 256 -341ZM363 -341Q376 -341 385.5 -350.5Q395 -360 395 -373.5Q395 -387 379 -410Q371 -422 363 -431L354 -421Q345 -408 339 -398Q331 -383 331 -373Q331 -360 340 -350.5Q349 -341 363 -341Z"/>
</svg>