<svg xmlns="http://www.w3.org/2000/svg" viewBox="0 -512 512 512">
	<path fill="#000000" d="M235 -171H277V-128H235ZM235 -341H277V-213H235ZM363 -346Q392 -324 409.5 -288Q427 -252 427 -213Q427 -166 402.5 -126Q378 -86 338 -64H174Q134 -86 109.5 -126Q85 -166 85 -213Q85 -252 102 -288Q119 -324 149 -346V-405H107V-366Q76 -336 59.5 -296.5Q43 -257 43 -213Q43 -169 59.5 -130Q76 -91 107 -61V21H149V-21H192V21H235V-21H277V21H320V-21H363V21H405V-61Q436 -91 452.5 -130Q469 -169 469 -213Q469 -257 452.5 -296.5Q436 -336 405 -366V-405H363Z"/>
</svg>