<svg xmlns="http://www.w3.org/2000/svg" viewBox="0 -512 512 512">
	<path fill="#000000" d="M107 -149H405L373 -245H139ZM373 -43Q387 -43 396 -52Q405 -61 405 -74.5Q405 -88 396 -97.5Q387 -107 373.5 -107Q360 -107 350.5 -97.5Q341 -88 341 -74.5Q341 -61 350.5 -52Q360 -43 373 -43ZM139 -43Q152 -43 161.5 -52Q171 -61 171 -74.5Q171 -88 161.5 -97.5Q152 -107 138.5 -107Q125 -107 116 -97.5Q107 -88 107 -74.5Q107 -61 116 -52Q125 -43 139 -43ZM404 -256L448 -128V43Q448 52 442 58Q436 64 427 64H405Q396 64 390 58Q384 52 384 43V21H128V43Q128 52 122 58Q116 64 107 64H85Q76 64 70 58Q64 52 64 43V-128L108 -256Q112 -265 120 -271Q128 -277 139 -277H373Q384 -277 392 -271Q400 -265 404 -256ZM256 -448Q290 -448 321 -435Q352 -422 377 -398L346 -368Q328 -386 304.5 -395.5Q281 -405 256 -405Q231 -405 207.5 -395.5Q184 -386 166 -368L136 -398Q160 -422 191 -435Q222 -448 256 -448ZM256 -363Q291 -363 316 -337L286 -307Q273 -320 256 -320Q239 -320 226 -307L196 -337Q221 -363 256 -363Z"/>
</svg>