<svg xmlns="http://www.w3.org/2000/svg" viewBox="0 -512 512 512">
	<path fill="#000000" d="M491 -277Q491 -318 471 -352.5Q451 -387 416.5 -407Q382 -427 341 -427Q304 -427 272.5 -410Q241 -393 220 -363.5Q199 -334 194 -299H96Q86 -299 77.5 -293Q69 -287 66 -277L21 -149V21Q21 30 27.5 36.5Q34 43 43 43H64Q73 43 79 36.5Q85 30 85 21V0H341V21Q341 30 347.5 36.5Q354 43 363 43H384Q393 43 399 36.5Q405 30 405 21V-143Q444 -161 467.5 -197Q491 -233 491 -277ZM96 -267H193Q195 -239 206.5 -214.5Q218 -190 237 -171H64ZM96 -64Q83 -64 73.5 -73.5Q64 -83 64 -96Q64 -109 73.5 -118.5Q83 -128 96 -128Q109 -128 118.5 -118.5Q128 -109 128 -96Q128 -83 118.5 -73.5Q109 -64 96 -64ZM331 -64Q317 -64 308 -73.5Q299 -83 299 -96Q299 -109 308 -118.5Q317 -128 330.5 -128Q344 -128 353.5 -118.5Q363 -109 363 -96Q363 -83 353.5 -73.5Q344 -64 331 -64ZM341 -171Q297 -171 266 -202Q235 -233 235 -277Q235 -321 266 -352.5Q297 -384 341 -384Q385 -384 416.5 -352.5Q448 -321 448 -277Q448 -233 416.5 -202Q385 -171 341 -171ZM352 -272L413 -236L397 -210L320 -256V-363H352Z"/>
</svg>