<svg xmlns="http://www.w3.org/2000/svg" viewBox="0 -512 512 512">
	<path fill="#000000" d="M256 -384Q204 -384 159.5 -358.5Q115 -333 89.5 -288.5Q64 -244 64 -192Q64 -140 89.5 -95.5Q115 -51 159.5 -25.5Q204 0 256 0Q308 0 352.5 -25.5Q397 -51 422.5 -95.5Q448 -140 448 -192Q448 -244 422.5 -288.5Q397 -333 352.5 -358.5Q308 -384 256 -384ZM256 -43Q215 -43 181 -63Q147 -83 127 -117Q107 -151 107 -192Q107 -233 127 -267Q147 -301 181 -321Q215 -341 256 -341Q297 -341 331 -321Q365 -301 385 -267Q405 -233 405 -192Q405 -151 385 -117Q365 -83 331 -63Q297 -43 256 -43ZM437 -11Q473 -46 492.5 -93Q512 -140 512 -192Q512 -244 492.5 -291Q473 -338 437 -373L414 -350Q445 -319 462.5 -278Q480 -237 480 -192Q480 -147 462.5 -106Q445 -65 414 -34ZM98 -34Q67 -65 49.5 -106Q32 -147 32 -192Q32 -237 49.5 -278Q67 -319 98 -350L75 -373Q39 -338 19.5 -291Q0 -244 0 -192Q0 -140 19.5 -93Q39 -46 75 -11ZM326 -224Q337 -224 344.5 -214.5Q352 -205 352 -192Q352 -179 344.5 -169.5Q337 -160 327 -160Q317 -160 309 -168L285 -192L310 -216Q317 -224 326 -224ZM186 -224Q195 -224 203 -216V-215L204 -214L227 -192L202 -167Q195 -160 185 -160Q175 -160 167.5 -169.5Q160 -179 160 -192Q160 -205 167.5 -214.5Q175 -224 186 -224ZM326 -256Q302 -256 286 -238L256 -208L226 -237Q210 -256 186 -256Q162 -256 145 -237Q128 -218 128 -192Q128 -166 145 -147Q162 -128 185.5 -128Q209 -128 226 -146L256 -176L286 -147Q303 -128 326.5 -128Q350 -128 367 -147Q384 -166 384 -192.5Q384 -219 367 -237.5Q350 -256 326 -256Z"/>
</svg>