<svg xmlns="http://www.w3.org/2000/svg" viewBox="0 -512 512 512">
	<path fill="#000000" d="M277 -346Q247 -346 229 -298Q213 -254 213 -192Q213 -130 229 -86Q247 -38 277 -38Q322 -38 365 -57Q411 -76 439 -110Q469 -146 469 -192Q469 -238 439 -274Q411 -308 365 -327Q322 -346 277 -346ZM279 -81Q271 -89 265 -116Q256 -149 256 -192Q256 -235 265 -268Q271 -295 279 -303Q312 -302 345 -289Q381 -275 402 -252Q427 -225 427 -192Q427 -159 402 -132Q380 -109 344 -95Q311 -82 279 -81ZM171 -224Q171 -219 170 -208Q169 -197 169 -192V-179L51 -149L41 -190ZM43 -299L201 -339Q193 -327 190 -314Q188 -307 183 -290L53 -258ZM175 -117Q178 -96 186 -77L51 -43L41 -83Z"/>
</svg>