<svg xmlns="http://www.w3.org/2000/svg" viewBox="0 -512 512 512">
	<path fill="#000000" d="M405 -128H363V-171H405ZM427 -21V21H341V-21H363V-64H341V-107H405V-21ZM404 -341Q400 -351 392 -357Q384 -363 373 -363H139Q128 -363 120 -357Q112 -351 108 -341L64 -213V-43Q64 -34 70 -27.5Q76 -21 85 -21H107Q116 -21 122 -27.5Q128 -34 128 -43V-64H235Q235 -105 255 -139Q275 -173 309 -193Q343 -213 384 -213Q418 -213 448 -199V-213ZM139 -128Q125 -128 116 -137.5Q107 -147 107 -160Q107 -173 116 -182.5Q125 -192 138.5 -192Q152 -192 161.5 -182.5Q171 -173 171 -160Q171 -147 161.5 -137.5Q152 -128 139 -128ZM107 -235L139 -331H373L405 -235Z"/>
</svg>