<svg xmlns="http://www.w3.org/2000/svg" viewBox="0 -512 512 512">
	<path fill="#000000" d="M171 -213L203 -309H395L427 -213ZM395 -107Q381 -107 372 -116Q363 -125 363 -138.5Q363 -152 372 -161.5Q381 -171 394.5 -171Q408 -171 417.5 -161.5Q427 -152 427 -138.5Q427 -125 417.5 -116Q408 -107 395 -107ZM203 -107Q189 -107 180 -116Q171 -125 171 -138.5Q171 -152 180 -161.5Q189 -171 202.5 -171Q216 -171 225.5 -161.5Q235 -152 235 -138.5Q235 -125 225.5 -116Q216 -107 203 -107ZM425 -320Q422 -330 413.5 -335.5Q405 -341 395 -341H203Q192 -341 184 -335.5Q176 -330 172 -320L128 -192V-21Q128 -12 134 -6Q140 0 149 0H171Q180 0 186 -6Q192 -12 192 -21V-43H405V-21Q405 -12 411.5 -6Q418 0 427 0H448Q457 0 463 -6Q469 -12 469 -21V-192ZM318 -384Q315 -394 306.5 -399.5Q298 -405 288 -405H96Q86 -405 77.5 -399.5Q69 -394 66 -384L21 -256V-85Q21 -76 27.5 -70Q34 -64 43 -64H64Q73 -64 79 -70Q85 -76 85 -85V-173Q73 -177 67.5 -189Q62 -201 66 -213Q70 -223 78 -229Q86 -235 96 -235H97L112 -277H64L96 -373H322Z"/>
</svg>