<svg xmlns="http://www.w3.org/2000/svg" viewBox="0 -512 512 512">
	<path fill="#000000" d="M447 -97Q447 -98 448 -101V-107V-96ZM235 -107Q235 -84 244 -64H128V-43Q128 -34 121.5 -27.5Q115 -21 107 -21H85Q77 -21 70.5 -27.5Q64 -34 64 -43V-213L108 -341Q112 -351 120 -357Q128 -363 139 -363H373Q384 -363 392 -357Q400 -351 404 -341L448 -213V-107Q448 -136 433.5 -160.5Q419 -185 394.5 -199Q370 -213 341 -213Q312 -213 287.5 -199Q263 -185 249 -160.5Q235 -136 235 -107ZM171 -160Q171 -173 161.5 -182.5Q152 -192 138.5 -192Q125 -192 116 -182.5Q107 -173 107 -160Q107 -147 116 -137.5Q125 -128 138.5 -128Q152 -128 161.5 -137.5Q171 -147 171 -160ZM405 -235L373 -331H139L107 -235ZM488 4L400 -84Q407 -100 403 -118.5Q399 -137 385.5 -150.5Q372 -164 352 -167.5Q332 -171 314 -163L356 -121L327 -92L285 -134Q276 -116 279.5 -96.5Q283 -77 297 -63Q311 -49 329 -45Q347 -41 364 -48L451 40Q454 43 458 43Q462 43 465 40L487 18Q490 15 490.5 10.5Q491 6 488 4Z"/>
</svg>