<svg xmlns="http://www.w3.org/2000/svg" viewBox="0 -512 512 512">
	<path fill="#000000" d="M277 -346Q247 -346 229 -298Q213 -254 213 -192Q213 -130 229 -86Q247 -38 277 -38Q322 -38 365 -57Q411 -76 439 -110Q469 -146 469 -192Q469 -238 439 -274Q411 -308 365 -327Q322 -346 277 -346ZM279 -81Q271 -89 265 -116Q256 -149 256 -192Q256 -235 265 -268Q271 -295 279 -303Q312 -302 345 -289Q381 -275 402 -252Q427 -225 427 -192Q427 -159 402 -132Q381 -109 345 -95Q312 -82 279 -81ZM128 -277V-213H171V-171H128V-107H179Q188 -77 192 -64H128V0H85V-64H43V-107H85V-171H43V-213H85V-277H43V-320H85V-384H128V-320H192L191 -317Q190 -314 190 -311Q181 -290 179 -277Z"/>
</svg>