<svg xmlns="http://www.w3.org/2000/svg" viewBox="0 -512 512 512">
	<path fill="#000000" d="M437 -25L137 -325L51 -410L24 -384L97 -310L64 -213V-43Q64 -34 70 -27.5Q76 -21 85 -21H107Q116 -21 122 -27.5Q128 -34 128 -43V-64H344L445 37L472 10ZM139 -128Q125 -128 116 -137.5Q107 -147 107 -160Q107 -173 116 -182.5Q125 -192 138.5 -192Q152 -192 161.5 -182.5Q171 -173 171 -160Q171 -147 161.5 -137.5Q152 -128 139 -128ZM107 -235L123 -284L173 -235ZM373 -331L405 -235H282L344 -172Q350 -184 362.5 -188.5Q375 -193 387 -187.5Q399 -182 403 -169.5Q407 -157 401.5 -145.5Q396 -134 387 -130L448 -68V-213L404 -341Q400 -351 392 -357Q384 -363 373 -363H154L186 -331Z"/>
</svg>