<svg xmlns="http://www.w3.org/2000/svg" viewBox="0 -512 512 512">
	<path fill="#000000" d="M166 -85V-117Q166 -139 148 -155Q130 -171 107 -171Q84 -171 65.5 -155Q47 -139 47 -117V-85Q37 -85 29 -77Q21 -69 21 -60V15Q21 26 29 34.5Q37 43 47 43H164Q175 43 183.5 35Q192 27 192 17V-58Q192 -69 184 -77Q176 -85 166 -85ZM139 -85H75V-117Q75 -130 84 -137.5Q93 -145 106.5 -145Q120 -145 129.5 -137.5Q139 -130 139 -117ZM448 -384H235L64 -213V-204Q85 -213 107 -213Q134 -213 157.5 -200Q181 -187 195 -165Q209 -143 209 -117V-112Q221 -102 228 -88Q235 -74 235 -58V0H469V-363Q469 -371 463 -377.5Q457 -384 448 -384ZM405 -107H341V-149H405ZM427 -213H124L252 -341H427Z"/>
</svg>