<svg xmlns="http://www.w3.org/2000/svg" viewBox="0 -512 512 512">
	<path fill="#000000" d="M361 -341Q357 -351 348.5 -357Q340 -363 331 -363H96Q85 -363 77 -357Q69 -351 66 -341L21 -213V-43Q21 -35 28 -28Q35 -21 43 -21H64Q72 -21 78.5 -28Q85 -35 85 -43V-64H177Q171 -83 171 -107Q171 -144 187 -178Q202 -210 228 -235H64L96 -331H331L348 -277Q368 -277 384 -271ZM96 -192Q109 -192 118.5 -182.5Q128 -173 128 -160Q128 -147 118.5 -137.5Q109 -128 96 -128Q83 -128 73.5 -137.5Q64 -147 64 -160Q64 -173 73.5 -182.5Q83 -192 96 -192ZM491 -85H448V-43H405V-85H363V-128H405V-171H448V-128H491ZM309 -107Q321 -107 331 -121.5Q341 -136 341 -149Q341 -167 328.5 -179.5Q316 -192 299 -192H235V-149H299V-128H256V-85H299V-64H235V-21H299Q316 -21 328.5 -33.5Q341 -46 341 -64Q341 -78 331 -92.5Q321 -107 309 -107Z"/>
</svg>