<svg xmlns="http://www.w3.org/2000/svg" viewBox="0 -512 512 512">
	<path fill="#000000" d="M405 -299V-341H448V-384H277V-341H320V-299H21V0H491V-299ZM448 -140Q443 -145 438.5 -147Q434 -149 426 -149Q418 -149 413.5 -147Q409 -145 402 -138L399 -134Q372 -107 341.5 -107Q311 -107 284 -134L280 -138Q273 -145 269 -147Q265 -149 256 -149Q250 -149 245 -147.5Q240 -146 230 -136L228 -134Q201 -107 170.5 -107Q140 -107 113 -134L110 -138Q103 -145 98.5 -147Q94 -149 86 -149Q78 -149 73.5 -147Q69 -145 64 -140V-256H448Z"/>
</svg>