<svg xmlns="http://www.w3.org/2000/svg" viewBox="0 -512 512 512">
	<path fill="#000000" d="M403 -320Q400 -329 391.5 -335Q383 -341 373 -341H139Q128 -341 120 -335.5Q112 -330 109 -320L64 -192V-21Q64 -13 70.5 -6.5Q77 0 85 0H107Q116 0 122 -6.5Q128 -13 128 -21V-43H384V-21Q384 -13 390.5 -6.5Q397 0 405 0H427Q435 0 441.5 -6.5Q448 -13 448 -21V-192ZM145 -299H365L388 -235H124ZM405 -85H107V-192H405ZM160 -171Q173 -171 182.5 -161Q192 -151 192 -138.5Q192 -126 182.5 -116.5Q173 -107 160 -107Q147 -107 137.5 -116.5Q128 -126 128 -138.5Q128 -151 137.5 -161Q147 -171 160 -171ZM352 -171Q365 -171 374.5 -161Q384 -151 384 -138.5Q384 -126 374.5 -116.5Q365 -107 352 -107Q339 -107 329.5 -116.5Q320 -126 320 -138.5Q320 -151 329.5 -161Q339 -171 352 -171Z"/>
</svg>