<svg xmlns="http://www.w3.org/2000/svg" viewBox="0 -512 512 512">
	<path fill="#000000" d="M107 -64Q98 -88 90 -111Q71 -168 59 -216Q43 -282 43 -320Q43 -349 49 -369Q55 -385 64 -395Q71 -401 79 -404L85 -405H107H112Q119 -403 122 -399Q128 -393 128 -384Q128 -378 126 -374Q124 -370 120 -364Q114 -355 111 -348Q107 -337 107 -320Q107 -307 115 -291Q120 -281 134 -261Q152 -234 159 -219Q171 -194 171 -171.5Q171 -149 161 -127Q153 -110 139 -93Q129 -82 117 -72ZM320 -85Q338 -85 350.5 -72.5Q363 -60 363 -43V-21Q363 -4 350.5 8.5Q338 21 320 21H192Q165 21 144 2Q133 -7 128 -17Q124 -21 124 -26Q124 -31 128 -34L145 -48Q166 -64 182 -74Q204 -87 213 -87H320ZM292 -375L262 -303L292 -230L250 -128L213 -158L243 -230L213 -303L256 -405ZM382 -375L352 -303L382 -230L339 -128L303 -158L333 -230L303 -303L346 -405ZM469 -375L439 -303L469 -230L427 -128L390 -158L420 -230L390 -303L433 -405Z"/>
</svg>