<svg xmlns="http://www.w3.org/2000/svg" viewBox="0 -512 512 512">
	<path fill="#000000" d="M363 -352Q363 -330 347.5 -314.5Q332 -299 309.5 -299Q287 -299 271.5 -314.5Q256 -330 256 -352Q256 -374 271.5 -389.5Q287 -405 309.5 -405Q332 -405 347.5 -389.5Q363 -374 363 -352ZM320 -277H303Q269 -277 239.5 -295Q210 -313 194 -343Q190 -348 190 -350L151 -333Q160 -309 184 -285Q211 -259 245 -245L207 -139L124 -162L64 -45L107 -34L145 -111L241 -85Q257 -82 271.5 -89.5Q286 -97 292 -111L341 -247Q345 -259 338 -268Q331 -277 320 -277ZM403 -299L331 -98Q321 -73 299.5 -58Q278 -43 252 -43Q237 -43 230 -45L169 -62L149 -23L192 -13L222 -4Q243 0 254 0Q294 0 326.5 -22.5Q359 -45 373 -83L448 -299Z"/>
</svg>