<svg xmlns="http://www.w3.org/2000/svg" viewBox="0 -512 512 512">
	<path fill="#000000" d="M256 -64Q256 -99 273 -128.5Q290 -158 319.5 -175Q349 -192 383.5 -192Q418 -192 448 -175V-192L404 -320Q400 -329 392 -335Q384 -341 373 -341H139Q128 -341 120 -335Q112 -329 108 -320L64 -192V-21Q64 -13 70.5 -6.5Q77 0 85 0H107Q115 0 121.5 -6.5Q128 -13 128 -21V-43H258Q256 -55 256 -64ZM139 -309H373L405 -213H107ZM139 -107Q125 -107 116 -116Q107 -125 107 -138.5Q107 -152 116 -161.5Q125 -171 138.5 -171Q152 -171 161.5 -161.5Q171 -152 171 -138.5Q171 -125 161.5 -116Q152 -107 139 -107ZM384 -128V-85H469V-43H384V0L320 -64Z"/>
</svg>