<svg xmlns="http://www.w3.org/2000/svg" viewBox="0 -512 512 512">
	<path fill="#000000" d="M491 -299V-171H448V-299ZM448 -85H491V-128H448ZM21 -256V-213H107Q108 -221 109 -235Q110 -249 111 -256ZM107 -171H21V-128H111Q110 -135 109 -149Q108 -163 107 -171ZM126 -311Q127 -321 135 -335L139 -341H21V-299H122Q123 -301 124 -305Q125 -309 126 -311ZM21 -85V-43H141Q127 -63 122 -85ZM213 -346Q183 -346 165 -298Q149 -254 149 -192Q149 -130 165 -86Q183 -38 213 -38Q258 -38 301 -57Q347 -76 375 -110Q405 -146 405 -192Q405 -238 375 -274Q347 -308 301 -327Q258 -346 213 -346ZM215 -81Q207 -89 201 -116Q192 -149 192 -192Q192 -235 201 -268Q207 -295 215 -303Q248 -302 281 -289Q317 -275 338 -252Q363 -225 363 -192Q363 -159 338 -132Q317 -109 281 -95Q248 -82 215 -81Z"/>
</svg>