<svg xmlns="http://www.w3.org/2000/svg" viewBox="0 -512 512 512">
	<path fill="#000000" d="M277 -192Q277 -183 271 -177Q265 -171 256 -171Q247 -171 241 -177Q235 -183 235 -192Q235 -201 241 -207Q247 -213 256 -213Q265 -213 271 -207Q277 -201 277 -192ZM213 -192L149 -256V-213H64V-171H149V-128ZM299 -192L363 -128V-171H448V-213H363V-256ZM437 -373L414 -350Q445 -319 462.5 -278Q480 -237 480 -192Q480 -147 462.5 -106Q445 -65 414 -34L437 -11Q473 -46 492.5 -93Q512 -140 512 -192Q512 -244 492.5 -291Q473 -338 437 -373ZM121 -256Q140 -294 176 -317.5Q212 -341 256 -341Q300 -341 336 -317.5Q372 -294 391 -256H437Q417 -313 367.5 -348.5Q318 -384 256 -384Q194 -384 144.5 -348.5Q95 -313 75 -256ZM98 -350L75 -373Q39 -338 19.5 -291Q0 -244 0 -192Q0 -140 19.5 -93Q39 -46 75 -11L98 -34Q67 -65 49.5 -106Q32 -147 32 -192Q32 -237 49.5 -278Q67 -319 98 -350ZM391 -128Q372 -90 336 -66.5Q300 -43 256 -43Q212 -43 176 -66.5Q140 -90 121 -128H75Q95 -71 144.5 -35.5Q194 0 256 0Q318 0 367.5 -35.5Q417 -71 437 -128Z"/>
</svg>