<svg xmlns="http://www.w3.org/2000/svg" viewBox="0 -512 512 512">
	<path fill="#000000" d="M256 -235H320V-277H256V-299Q256 -308 250 -314Q244 -320 234.5 -320Q225 -320 219 -314Q213 -308 213 -299V-79Q204 -74 198 -64Q192 -54 192 -43Q192 -25 204.5 -12.5Q217 0 234.5 0Q252 0 264.5 -12.5Q277 -25 277 -43Q277 -54 271.5 -64Q266 -74 256 -79V-149H320V-192H256ZM512 -192Q512 -140 492.5 -93Q473 -46 437 -11L414 -34Q445 -65 462.5 -106Q480 -147 480 -192Q480 -237 462.5 -278Q445 -319 414 -350L437 -373Q473 -338 492.5 -291Q512 -244 512 -192ZM32 -192Q32 -147 49.5 -106Q67 -65 98 -34L75 -11Q39 -46 19.5 -93Q0 -140 0 -192Q0 -244 19.5 -291Q39 -338 75 -373L98 -350Q67 -319 49.5 -278Q32 -237 32 -192ZM448 -192Q448 -136 419 -90Q390 -44 341 -20V-70Q371 -90 388 -122.5Q405 -155 405 -192Q405 -232 385 -266.5Q365 -301 330.5 -321Q296 -341 256 -341Q216 -341 181.5 -321Q147 -301 127 -266.5Q107 -232 107 -192Q107 -155 124 -122.5Q141 -90 171 -70V-20Q122 -44 93 -90Q64 -136 64 -192Q64 -244 90 -288Q116 -332 160 -358Q204 -384 256 -384Q308 -384 352 -358Q396 -332 422 -288Q448 -244 448 -192Z"/>
</svg>