<svg xmlns="http://www.w3.org/2000/svg" viewBox="0 -512 512 512">
	<path fill="#000000" d="M64 -320H341L405 -235H448Q466 -235 478.5 -222.5Q491 -210 491 -192V-128H448Q448 -101 429.5 -82.5Q411 -64 384 -64Q357 -64 338.5 -82.5Q320 -101 320 -128H192Q192 -101 173.5 -82.5Q155 -64 128 -64Q101 -64 82.5 -82.5Q64 -101 64 -128H21V-277Q21 -295 33.5 -307.5Q46 -320 64 -320ZM53 -288V-235H224V-288ZM256 -288V-235H366L325 -288ZM128 -160Q115 -160 105.5 -150.5Q96 -141 96 -128Q96 -115 105.5 -105.5Q115 -96 128 -96Q141 -96 150.5 -105.5Q160 -115 160 -128Q160 -141 150.5 -150.5Q141 -160 128 -160ZM384 -160Q371 -160 361.5 -150.5Q352 -141 352 -128Q352 -115 361.5 -105.5Q371 -96 384 -96Q397 -96 406.5 -105.5Q416 -115 416 -128Q416 -141 406.5 -150.5Q397 -160 384 -160Z"/>
</svg>