<svg xmlns="http://www.w3.org/2000/svg" viewBox="0 -512 512 512">
	<path fill="#000000" d="M235 -448V-384H277V-448ZM168 -417L138 -387L183 -341L213 -372ZM344 -417L299 -372L329 -341L374 -387ZM256 -341Q238 -341 225.5 -328.5Q213 -316 213 -299V-277H139Q128 -277 120 -271Q112 -265 108 -256L64 -128V43Q64 52 70 58Q76 64 85 64H107Q116 64 122 58Q128 52 128 43V21H384V43Q384 52 390 58Q396 64 405 64H427Q436 64 442 58Q448 52 448 43V-128L404 -256Q400 -265 392 -271Q384 -277 373 -277H299V-299Q299 -316 286.5 -328.5Q274 -341 256 -341ZM139 -245H373L405 -149H107ZM139 -107Q152 -107 161.5 -97.5Q171 -88 171 -74.5Q171 -61 161.5 -52Q152 -43 138.5 -43Q125 -43 116 -52Q107 -61 107 -74.5Q107 -88 116 -97.5Q125 -107 139 -107ZM373 -107Q387 -107 396 -97.5Q405 -88 405 -74.5Q405 -61 396 -52Q387 -43 373.5 -43Q360 -43 350.5 -52Q341 -61 341 -74.5Q341 -88 350.5 -97.5Q360 -107 373 -107Z"/>
</svg>