<svg xmlns="http://www.w3.org/2000/svg" viewBox="0 -512 512 512">
	<path fill="#000000" d="M113 -320Q140 -350 177 -367Q214 -384 256 -384Q298 -384 335 -367Q372 -350 399 -320H332Q297 -341 256 -341Q215 -341 180 -320ZM307 -243V-277H239Q225 -277 215 -267Q205 -257 205 -243V-209Q205 -195 215 -185Q225 -175 239 -175H273V-141H205V-107H273Q287 -107 297 -117Q307 -127 307 -141V-175Q307 -189 297 -199Q287 -209 273 -209H239V-243ZM393 -277H324V-107H358V-175H393Q407 -175 417 -185Q427 -195 427 -209V-243Q427 -257 417 -267Q407 -277 393 -277ZM393 -209H358V-243H393ZM188 -243V-277H85V-107H188V-141H119V-175H188V-209H119V-243ZM332 -64Q297 -43 256 -43Q215 -43 180 -64H113Q140 -34 177 -17Q214 0 256 0Q298 0 335 -17Q372 -34 399 -64ZM437 -373L414 -350Q445 -319 462.5 -278Q480 -237 480 -192Q480 -147 462.5 -106Q445 -65 414 -34L437 -11Q473 -46 492.5 -93Q512 -140 512 -192Q512 -244 492.5 -291Q473 -338 437 -373ZM98 -350L75 -373Q39 -338 19.5 -291Q0 -244 0 -192Q0 -140 19.5 -93Q39 -46 75 -11L98 -34Q67 -65 49.5 -106Q32 -147 32 -192Q32 -237 49.5 -278Q67 -319 98 -350Z"/>
</svg>