<svg xmlns="http://www.w3.org/2000/svg" viewBox="0 -512 512 512">
	<path fill="#000000" d="M21 -320L53 -288L21 -256L53 -224L21 -192L53 -160L21 -128H320Q320 -101 338.5 -82.5Q357 -64 384 -64Q411 -64 429.5 -82.5Q448 -101 448 -128H491V-192Q491 -210 478.5 -222.5Q466 -235 448 -235H405L341 -320ZM99 -288H224V-235H88L67 -256ZM256 -288H331L372 -235H256ZM384 -160Q397 -160 406.5 -150.5Q416 -141 416 -128Q416 -115 406.5 -105.5Q397 -96 384 -96Q371 -96 361.5 -105.5Q352 -115 352 -128Q352 -141 361.5 -150.5Q371 -160 384 -160Z"/>
</svg>