<svg xmlns="http://www.w3.org/2000/svg" viewBox="0 -512 512 512">
	<path fill="#000000" d="M404 -405Q400 -415 392 -421Q384 -427 373 -427H139Q128 -427 120 -421Q112 -415 108 -405L64 -277V-107Q64 -98 70.5 -91.5Q77 -85 85 -85H107Q115 -85 121.5 -91.5Q128 -98 128 -107V-128H384V-107Q384 -98 390.5 -91.5Q397 -85 405 -85H427Q435 -85 441.5 -91.5Q448 -98 448 -107V-277ZM139 -192Q125 -192 116 -201.5Q107 -211 107 -224Q107 -237 116 -246.5Q125 -256 138.5 -256Q152 -256 161.5 -246.5Q171 -237 171 -224Q171 -211 161.5 -201.5Q152 -192 139 -192ZM373 -192Q360 -192 350.5 -201.5Q341 -211 341 -224Q341 -237 350.5 -246.5Q360 -256 373.5 -256Q387 -256 396 -246.5Q405 -237 405 -224Q405 -211 396 -201.5Q387 -192 373 -192ZM107 -299L139 -395H373L405 -299ZM149 -21H235V-64L363 0H277V43Z"/>
</svg>