<svg xmlns="http://www.w3.org/2000/svg" viewBox="0 -512 512 512">
	<path fill="#000000" d="M107 -171L139 -267H373L405 -171ZM373 -64Q361 -64 351 -73.5Q341 -83 341 -96Q341 -109 351 -118.5Q361 -128 373.5 -128Q386 -128 395.5 -118.5Q405 -109 405 -96Q405 -83 395.5 -73.5Q386 -64 373 -64ZM139 -64Q126 -64 116.5 -73.5Q107 -83 107 -96Q107 -109 116.5 -118.5Q126 -128 138.5 -128Q151 -128 161 -118.5Q171 -109 171 -96Q171 -83 161 -73.5Q151 -64 139 -64ZM403 -277Q400 -287 391.5 -293Q383 -299 373 -299H139Q128 -299 120 -293Q112 -287 109 -277L64 -149V21Q64 31 70 37Q76 43 85 43H107Q116 43 122 37Q128 31 128 21V0H384V21Q384 31 390 37Q396 43 405 43H427Q436 43 442 37Q448 31 448 21V-149ZM171 -427L256 -331L341 -427Z"/>
</svg>