<svg xmlns="http://www.w3.org/2000/svg" viewBox="0 -512 512 512">
	<path fill="#000000" d="M512 -192Q512 -140 492.5 -93Q473 -46 437 -11L414 -34Q445 -65 462.5 -106Q480 -147 480 -192Q480 -237 462.5 -278Q445 -319 414 -350L437 -373Q473 -338 492.5 -291Q512 -244 512 -192ZM427 -243V-277H358Q344 -277 334 -267Q324 -257 324 -243V-209Q324 -195 334 -185Q344 -175 358 -175H393V-141H324V-107H393Q407 -107 417 -117Q427 -127 427 -141V-175Q427 -189 417 -199Q407 -209 393 -209H358V-243ZM180 -320Q215 -341 256 -341Q297 -341 332 -320H399Q372 -350 335 -367Q298 -384 256 -384Q214 -384 177 -367Q140 -350 113 -320ZM282 -192Q292 -192 299.5 -184.5Q307 -177 307 -166V-141Q307 -127 297 -117Q287 -107 273 -107H205V-277H273Q287 -277 297 -267Q307 -257 307 -243V-218Q307 -207 299.5 -199.5Q292 -192 282 -192ZM273 -175H239V-141H273ZM273 -243H239V-209H273ZM98 -350L75 -373Q39 -338 19.5 -291Q0 -244 0 -192Q0 -140 19.5 -93Q39 -46 75 -11L98 -34Q67 -65 49.5 -106Q32 -147 32 -192Q32 -237 49.5 -278Q67 -319 98 -350ZM154 -107V-175H119V-107H85V-243Q85 -257 95 -267Q105 -277 119 -277H154Q168 -277 178 -267Q188 -257 188 -243V-107ZM154 -209V-243H119V-209ZM332 -64Q297 -43 256 -43Q215 -43 180 -64H113Q140 -34 177 -17Q214 0 256 0Q298 0 335 -17Q372 -34 399 -64Z"/>
</svg>