<svg xmlns="http://www.w3.org/2000/svg" viewBox="0 -512 512 512">
	<path fill="#000000" d="M256 -341Q296 -341 330.5 -321Q365 -301 385 -266.5Q405 -232 405 -192Q405 -152 385 -117.5Q365 -83 330.5 -63Q296 -43 256 -43Q216 -43 181.5 -63Q147 -83 127 -117.5Q107 -152 107 -192Q107 -232 127 -266.5Q147 -301 181.5 -321Q216 -341 256 -341ZM256 -384Q204 -384 160 -358Q116 -332 90 -288Q64 -244 64 -192Q64 -140 90 -96Q116 -52 160 -26Q204 0 256 0Q308 0 352 -26Q396 -52 422 -96Q448 -140 448 -192Q448 -244 422 -288Q396 -332 352 -358Q308 -384 256 -384ZM98 -350L75 -373Q38 -336 18 -287L49 -277Q66 -319 98 -350ZM36 -147Q32 -169 32 -192Q32 -215 36 -237L6 -246Q0 -219 0 -192Q0 -165 6 -138ZM494 -287Q474 -336 437 -373L414 -350Q446 -319 463 -277ZM18 -97Q37 -49 75 -11L98 -34Q66 -65 49 -107ZM414 -34L437 -11Q475 -49 494 -97L463 -107Q446 -65 414 -34ZM476 -237Q480 -215 480 -192Q480 -169 476 -147L506 -138Q512 -166 512 -192Q512 -218 506 -246Z"/>
</svg>