<svg xmlns="http://www.w3.org/2000/svg" viewBox="0 -512 512 512">
	<path fill="#000000" d="M205 -104Q205 -137 219 -165.5Q233 -194 258 -213H107L139 -309H373L399 -231Q426 -219 446 -198L404 -320Q400 -329 392 -335Q384 -341 373 -341H139Q128 -341 120 -335Q112 -329 108 -320L64 -192V-21Q64 -13 70.5 -6.5Q77 0 85 0H107Q115 0 121.5 -6.5Q128 -13 128 -21V-43H220Q205 -72 205 -104ZM139 -107Q125 -107 116 -116Q107 -125 107 -138.5Q107 -152 116 -161.5Q125 -171 138.5 -171Q152 -171 161.5 -161.5Q171 -152 171 -138.5Q171 -125 161.5 -116Q152 -107 139 -107ZM442 -6ZM344 -200Q384 -200 412 -172Q440 -144 440 -104Q440 -76 425 -53L491 13L461 43L395 -23Q371 -8 344 -8Q304 -8 276 -36Q248 -64 248 -104Q248 -144 276 -172Q304 -200 344 -200ZM344 -158Q322 -158 306 -142Q290 -126 290 -104Q290 -82 306 -66.5Q322 -51 344 -51Q366 -51 381.5 -66.5Q397 -82 397 -104.5Q397 -127 381.5 -142.5Q366 -158 344 -158Z"/>
</svg>