<svg xmlns="http://www.w3.org/2000/svg" viewBox="0 -512 512 512">
	<path fill="#000000" d="M107 -213L139 -309H373L405 -213ZM373 -107Q360 -107 350.5 -116Q341 -125 341 -138.5Q341 -152 350.5 -161.5Q360 -171 373.5 -171Q387 -171 396 -161.5Q405 -152 405 -138.5Q405 -125 396 -116Q387 -107 373 -107ZM139 -107Q125 -107 116 -116Q107 -125 107 -138.5Q107 -152 116 -161.5Q125 -171 138.5 -171Q152 -171 161.5 -161.5Q171 -152 171 -138.5Q171 -125 161.5 -116Q152 -107 139 -107ZM404 -320Q400 -329 392 -335Q384 -341 373 -341H139Q128 -341 120 -335Q112 -329 108 -320L64 -192V-21Q64 -12 70 -6Q76 0 85 0H107Q116 0 122 -6Q128 -12 128 -21V-43H384V-21Q384 -12 390 -6Q396 0 405 0H427Q436 0 442 -6Q448 -12 448 -21V-192Z"/>
</svg>