<svg xmlns="http://www.w3.org/2000/svg" viewBox="0 -512 512 512">
	<path fill="#000000" d="M171 -75Q171 -61 161.5 -52Q152 -43 138.5 -43Q125 -43 116 -52Q107 -61 107 -74.5Q107 -88 116 -97.5Q125 -107 138.5 -107Q152 -107 161.5 -97.5Q171 -88 171 -75ZM384 -329Q381 -362 358 -383.5Q335 -405 304 -405H189Q159 -405 136 -383.5Q113 -362 110 -330L107 -307Q105 -295 113 -286Q121 -277 132 -277Q143 -277 150.5 -284Q158 -291 159 -301L162 -324Q163 -336 171 -344Q179 -352 189 -352H304Q314 -352 322 -344Q330 -336 331 -324L352 -88Q353 -74 345 -63.5Q337 -53 325 -53L214 -68Q211 -37 188 -17L319 0H325Q342 0 357 -7Q372 -14 383.5 -26.5Q395 -39 401 -56.5Q407 -74 405 -93ZM249 -279Q239 -285 228.5 -282.5Q218 -280 212 -270L136 -149H139Q166 -149 188 -131L257 -242Q263 -251 260.5 -262Q258 -273 249 -279Z"/>
</svg>