<svg xmlns="http://www.w3.org/2000/svg" viewBox="0 -512 512 512">
	<path fill="#000000" d="M107 -299Q89 -299 76.5 -286.5Q64 -274 64 -256V-128Q64 -110 76.5 -97.5Q89 -85 107 -85H149Q149 -59 168 -40Q187 -21 213.5 -21Q240 -21 258.5 -40Q277 -59 277 -85H448V-128H405V-256Q405 -274 392.5 -286.5Q380 -299 363 -299ZM107 -256H213V-192H107ZM277 -256H363V-192H277ZM213 -107Q222 -107 228.5 -100.5Q235 -94 235 -85Q235 -76 228.5 -70Q222 -64 213 -64Q204 -64 198 -70Q192 -76 192 -85Q192 -94 198 -100.5Q204 -107 213 -107Z"/>
</svg>