<svg xmlns="http://www.w3.org/2000/svg" viewBox="0 -512 512 512">
	<path fill="#000000" d="M427 23L479 55L465 -5L512 -45L450 -50L427 -107L403 -50L341 -45L388 -5L373 55ZM300 0H43Q25 -1 13 -13Q1 -25 0 -43V-341Q1 -359 13 -371Q25 -383 43 -384H469Q487 -383 499 -371Q511 -359 512 -341V-117Q494 -133 469 -142V-341H43V-43H300Q299 -31 299 -21Q299 -11 300 0ZM299 -85H85V-112Q85 -128 105 -142Q122 -153 149 -159Q172 -165 192 -165Q212 -165 235 -159Q262 -153 279 -142Q299 -128 299 -112ZM299 -213H384V-192H299ZM192 -299Q170 -299 154.5 -283Q139 -267 139 -245Q139 -223 154.5 -207.5Q170 -192 192 -192Q214 -192 229.5 -207.5Q245 -223 245 -245Q245 -267 229.5 -283Q214 -299 192 -299ZM299 -256H427V-235H299ZM299 -299H427V-277H299Z"/>
</svg>