<svg xmlns="http://www.w3.org/2000/svg" viewBox="0 -512 512 512">
	<path fill="#000000" d="M314 -401H346Q363 -401 375.5 -388.5Q388 -376 388 -358V-222ZM429 -367L457 -354Q472 -348 479 -331.5Q486 -315 480 -299L429 -173ZM384 -117L277 -373Q273 -386 262.5 -392.5Q252 -399 239 -399Q234 -399 226 -396L64 -331Q48 -324 41.5 -308.5Q35 -293 43 -277L149 -21Q154 -9 164.5 -2.5Q175 4 188 4Q198 4 205 0L363 -64Q375 -69 381.5 -79Q388 -89 388 -102Q387 -105 386 -110Q385 -115 384 -117ZM243 -128L175 -179L183 -265L252 -213Z"/>
</svg>