<svg xmlns="http://www.w3.org/2000/svg" viewBox="0 -512 512 512">
	<path fill="#000000" d="M64 -363V21Q64 39 76.5 51.5Q89 64 107 64H363V21H107V-363ZM405 -448H192Q174 -448 161.5 -435.5Q149 -423 149 -405V-64Q149 -46 161.5 -33.5Q174 -21 192 -21H405Q423 -21 435.5 -33.5Q448 -46 448 -64V-405Q448 -423 435.5 -435.5Q423 -448 405 -448ZM337 -171Q324 -171 311 -177L331 -128H267L286 -177Q273 -171 260 -171Q241 -171 227 -184.5Q213 -198 213 -218Q213 -238 231 -260Q242 -274 276 -307L286 -316L299 -326L311 -316L321 -307Q355 -274 367 -260Q384 -238 384 -217.5Q384 -197 370.5 -184Q357 -171 337 -171Z"/>
</svg>