<svg xmlns="http://www.w3.org/2000/svg" viewBox="0 -512 512 512">
	<path fill="#000000" d="M448 -277V-299L384 -256L320 -299V-277L384 -235ZM469 -384H43Q25 -384 12.5 -371.5Q0 -359 0 -341V-43Q0 -25 12.5 -12.5Q25 0 43 0H469Q487 0 499.5 -12.5Q512 -25 512 -43V-341Q512 -359 499.5 -371.5Q487 -384 469 -384ZM171 -320Q197 -320 216 -301.5Q235 -283 235 -256Q235 -229 216 -210.5Q197 -192 170.5 -192Q144 -192 125.5 -210.5Q107 -229 107 -256Q107 -283 125.5 -301.5Q144 -320 171 -320ZM299 -64H43V-85Q43 -105 66 -121Q86 -135 119 -144Q147 -151 170.5 -151Q194 -151 223 -144Q255 -135 275 -121Q299 -105 299 -85ZM469 -192H299V-320H469Z"/>
</svg>