<svg xmlns="http://www.w3.org/2000/svg" viewBox="0 -512 512 512">
	<path fill="#000000" d="M245 -107Q273 -107 296 -122L348 -70L378 -100L326 -152Q341 -175 341 -203Q341 -243 313 -271Q285 -299 245 -299Q205 -299 177 -271Q149 -243 149 -203Q149 -163 177 -135Q205 -107 245 -107ZM245 -256Q267 -256 283 -240.5Q299 -225 299 -203Q299 -181 283 -165Q267 -149 245 -149Q223 -149 207.5 -165Q192 -181 192 -203Q192 -225 207.5 -240.5Q223 -256 245 -256ZM427 -363H85Q68 -363 55.5 -350.5Q43 -338 43 -320V-64Q43 -46 55.5 -33.5Q68 -21 85 -21H427Q444 -21 456.5 -33.5Q469 -46 469 -64V-320Q469 -338 456.5 -350.5Q444 -363 427 -363ZM427 -64H85V-320H427Z"/>
</svg>