<svg xmlns="http://www.w3.org/2000/svg" viewBox="0 -512 512 512">
	<path fill="#000000" d="M64 -363V21Q64 39 76.5 51.5Q89 64 107 64H363V21H107V-363ZM405 -448H192Q174 -448 161.5 -435.5Q149 -423 149 -405V-64Q149 -46 161.5 -33.5Q174 -21 192 -21H405Q423 -21 435.5 -33.5Q448 -46 448 -64V-405Q448 -423 435.5 -435.5Q423 -448 405 -448ZM311 -154L299 -143L286 -154L276 -163Q242 -195 231 -209Q213 -232 213 -251.5Q213 -271 227 -285Q241 -299 260 -299Q272 -299 282 -294.5Q292 -290 299 -282Q305 -290 315.5 -294.5Q326 -299 337 -299Q357 -299 370.5 -285.5Q384 -272 384 -252Q384 -232 367 -209Q355 -195 321 -163Z"/>
</svg>