<svg xmlns="http://www.w3.org/2000/svg" viewBox="0 -512 512 512">
	<path fill="#000000" d="M43 -384H469Q486 -384 499 -371Q512 -358 512 -341V-43Q512 -26 499 -13Q486 0 469 0H43Q26 0 13 -13Q0 -26 0 -43V-341Q0 -358 13 -371Q26 -384 43 -384ZM299 -320V-299H469V-320ZM299 -277V-256H469V-277ZM299 -235V-213H448V-235ZM171 -151Q147 -151 119 -144Q86 -135 66 -121Q43 -105 43 -85V-64H299V-85Q299 -105 275 -121Q255 -135 223 -144Q194 -151 171 -151ZM171 -320Q144 -320 125.5 -301.5Q107 -283 107 -256Q107 -229 125.5 -210.5Q144 -192 170.5 -192Q197 -192 216 -210.5Q235 -229 235 -256Q235 -283 216 -301.5Q197 -320 171 -320Z"/>
</svg>