<svg xmlns="http://www.w3.org/2000/svg" viewBox="0 -512 512 512">
	<path fill="#000000" d="M427 23L479 55L465 -5L512 -45L450 -50L427 -107L403 -50L341 -45L388 -5L373 55ZM300 0H43Q26 0 13 -13Q0 -26 0 -43V-341Q0 -358 13 -371Q26 -384 43 -384H469Q486 -384 499 -371Q512 -358 512 -341V-117Q476 -149 427 -149Q392 -149 362.5 -132Q333 -115 316 -85.5Q299 -56 299 -21Q299 -11 300 0ZM171 -151Q147 -151 119 -144Q86 -135 66 -121Q43 -105 43 -85V-64H299V-85Q299 -105 275 -121Q255 -135 223 -144Q194 -151 171 -151ZM171 -320Q144 -320 125.5 -301Q107 -282 107 -256Q107 -230 125.5 -211Q144 -192 170.5 -192Q197 -192 216 -211Q235 -230 235 -256Q235 -282 216 -301Q197 -320 171 -320ZM448 -235H299V-213H448ZM469 -277H299V-256H469ZM469 -320H299V-299H469Z"/>
</svg>