<svg xmlns="http://www.w3.org/2000/svg" viewBox="0 -512 512 512">
	<path fill="#000000" d="M405 -448H192Q174 -448 161.5 -435.5Q149 -423 149 -405V-64Q149 -46 161.5 -33.5Q174 -21 192 -21H405Q423 -21 435.5 -33.5Q448 -46 448 -64V-405Q448 -423 435.5 -435.5Q423 -448 405 -448ZM405 -64H192V-405H405ZM64 -363V21Q64 39 76.5 51.5Q89 64 107 64H363V21H107V-363ZM299 -320Q281 -320 268.5 -307.5Q256 -295 256 -277Q256 -266 262 -256H256Q238 -256 225.5 -243.5Q213 -231 213 -213.5Q213 -196 225.5 -183.5Q238 -171 255.5 -171Q273 -171 288 -186L267 -128H331L309 -186Q324 -171 341.5 -171Q359 -171 371.5 -183.5Q384 -196 384 -213.5Q384 -231 371.5 -243.5Q359 -256 341 -256H335Q341 -266 341 -277Q341 -295 328.5 -307.5Q316 -320 299 -320Z"/>
</svg>