<svg xmlns="http://www.w3.org/2000/svg" viewBox="0 -512 512 512">
	<path fill="#000000" d="M239 -400Q251 -400 262 -392.5Q273 -385 277 -373L384 -118Q387 -109 387 -101Q386 -89 379 -78.5Q372 -68 361 -63L203 2Q196 5 186 5Q174 5 163.5 -2Q153 -9 148 -21L42 -276Q35 -292 42 -308.5Q49 -325 65 -332L222 -397Q231 -400 239 -400ZM313 -400H344Q362 -400 374.5 -387.5Q387 -375 387 -357V-222ZM429 -367L458 -355Q474 -348 481 -332Q488 -316 481 -300L429 -175ZM239 -358L81 -292L187 -36L345 -102ZM185 -266L253 -214L244 -129L175 -180Z"/>
</svg>