<svg xmlns="http://www.w3.org/2000/svg" viewBox="0 -512 512 512">
	<path fill="#000000" d="M363 -405H149Q132 -405 119.5 -392.5Q107 -380 107 -363V-21Q107 -4 119.5 8.5Q132 21 149 21H363Q380 21 392.5 8.5Q405 -4 405 -21V-363Q405 -380 392.5 -392.5Q380 -405 363 -405ZM299 -128Q282 -128 267 -143L288 -85H224L245 -143Q230 -128 213 -128Q196 -128 183.5 -140.5Q171 -153 171 -170.5Q171 -188 183.5 -200.5Q196 -213 213 -213H220Q213 -223 213 -235Q213 -252 225.5 -264.5Q238 -277 256 -277Q274 -277 286.5 -264.5Q299 -252 299 -235Q299 -223 292 -213H299Q316 -213 328.5 -200.5Q341 -188 341 -170.5Q341 -153 328.5 -140.5Q316 -128 299 -128Z"/>
</svg>