<svg xmlns="http://www.w3.org/2000/svg" viewBox="0 -512 512 512">
	<path fill="#000000" d="M469 -384H43Q25 -384 12.5 -371.5Q0 -359 0 -341V-43Q0 -25 12.5 -12.5Q25 0 43 0H469Q487 0 499.5 -12.5Q512 -25 512 -43V-341Q512 -359 499.5 -371.5Q487 -384 469 -384ZM469 -43H43V-341H469ZM448 -320H299V-213H448ZM427 -277L373 -240L320 -277V-299L373 -261L427 -299ZM192 -192Q219 -192 237.5 -210.5Q256 -229 256 -256Q256 -283 237.5 -301.5Q219 -320 192 -320Q165 -320 146.5 -301.5Q128 -283 128 -256Q128 -229 146.5 -210.5Q165 -192 192 -192ZM192 -277Q201 -277 207 -271Q213 -265 213 -256Q213 -247 207 -241Q201 -235 192 -235Q183 -235 177 -241Q171 -247 171 -256Q171 -265 177 -271Q183 -277 192 -277ZM320 -94Q320 -119 296 -138Q277 -153 244 -163Q216 -171 192 -171Q168 -171 140 -163Q107 -153 88 -138Q64 -119 64 -94V-64H320ZM117 -107Q130 -115 151 -121.5Q172 -128 192 -128Q212 -128 233 -121.5Q254 -115 267 -107Z"/>
</svg>