<svg xmlns="http://www.w3.org/2000/svg" viewBox="0 -512 512 512">
	<path fill="#000000" d="M363 -405H149Q132 -405 119.5 -392.5Q107 -380 107 -363V-21Q107 -4 119.5 8.5Q132 21 149 21H363Q380 21 392.5 8.5Q405 -4 405 -21V-363Q405 -380 392.5 -392.5Q380 -405 363 -405ZM294 -128Q282 -128 269 -134L288 -85H224L243 -134Q230 -128 218 -128Q198 -128 184.5 -142Q171 -156 171 -175.5Q171 -195 188 -217Q199 -231 234 -264L243 -273L256 -284L269 -273L278 -264Q313 -231 324 -217Q341 -195 341 -175Q341 -155 327.5 -141.5Q314 -128 294 -128Z"/>
</svg>