<svg xmlns="http://www.w3.org/2000/svg" viewBox="0 -512 512 512">
	<path fill="#000000" d="M363 -405H149Q132 -405 119.5 -392.5Q107 -380 107 -363V-21Q107 -4 119.5 8.5Q132 21 149 21H363Q380 21 392.5 8.5Q405 -4 405 -21V-363Q405 -380 392.5 -392.5Q380 -405 363 -405ZM363 -21H149V-363H363ZM256 -284L243 -273L234 -264Q199 -231 188 -217Q171 -195 171 -175.5Q171 -156 184.5 -142Q198 -128 218 -128Q230 -128 243 -134L224 -85H288L269 -134Q278 -128 294 -128Q314 -128 327.5 -141.5Q341 -155 341 -175Q341 -195 324 -217Q313 -231 278 -264L269 -273Z"/>
</svg>