<svg xmlns="http://www.w3.org/2000/svg" viewBox="0 -512 512 512">
	<path fill="#000000" d="M245 -256Q223 -256 207.5 -240.5Q192 -225 192 -203Q192 -181 207.5 -165Q223 -149 245 -149Q267 -149 283 -165Q299 -181 299 -203Q299 -225 283 -240.5Q267 -256 245 -256ZM427 -363H85Q68 -363 55.5 -350.5Q43 -338 43 -320V-64Q43 -46 55.5 -33.5Q68 -21 85 -21H427Q444 -21 456.5 -33.5Q469 -46 469 -64V-320Q469 -338 456.5 -350.5Q444 -363 427 -363ZM358 -60L296 -122Q273 -107 245 -107Q205 -107 177 -135Q149 -163 149 -203Q149 -243 177 -271Q205 -299 245 -299Q285 -299 313 -271Q341 -243 341 -203Q341 -175 326 -152L388 -90Z"/>
</svg>