<svg xmlns="http://www.w3.org/2000/svg" viewBox="0 -512 512 512">
	<path fill="#000000" d="M469 -384H43Q25 -383 13 -371Q1 -359 0 -341V-43Q1 -25 13 -13Q25 -1 43 0H469Q487 -1 499 -13Q511 -25 512 -43V-341Q511 -359 499 -371Q487 -383 469 -384ZM469 -43H43V-341H469ZM299 -85V-112Q299 -128 279 -142Q262 -153 235 -159Q212 -165 192 -165Q172 -165 149 -159Q122 -153 105 -142Q85 -128 85 -112V-85ZM192 -299Q170 -299 154.5 -283Q139 -267 139 -245Q139 -223 154.5 -207.5Q170 -192 192 -192Q214 -192 229.5 -207.5Q245 -223 245 -245Q245 -267 229.5 -283Q214 -299 192 -299ZM299 -299V-277H427V-299ZM299 -256V-235H427V-256ZM299 -213V-192H384V-213Z"/>
</svg>