<svg xmlns="http://www.w3.org/2000/svg" viewBox="0 -512 512 512">
	<path fill="#000000" d="M363 -405H149Q132 -405 119.5 -392.5Q107 -380 107 -363V-21Q107 -4 119.5 8.5Q132 21 149 21H363Q380 21 392.5 8.5Q405 -4 405 -21V-363Q405 -380 392.5 -392.5Q380 -405 363 -405ZM363 -21H149V-363H363ZM256 -277Q238 -277 225.5 -264.5Q213 -252 213 -235Q213 -223 220 -213H213Q196 -213 183.5 -200.5Q171 -188 171 -170.5Q171 -153 183.5 -140.5Q196 -128 213 -128Q230 -128 245 -143L224 -85H288L267 -143Q282 -128 299 -128Q316 -128 328.5 -140.5Q341 -153 341 -170.5Q341 -188 328.5 -200.5Q316 -213 299 -213H292Q299 -223 299 -235Q299 -252 286.5 -264.5Q274 -277 256 -277Z"/>
</svg>