<svg xmlns="http://www.w3.org/2000/svg" viewBox="0 -512 512 512">
	<path fill="#000000" d="M256 -405Q280 -405 301 -392.5Q322 -380 335 -359.5Q348 -339 348 -316Q347 -281 325 -256Q314 -243 300 -235Q313 -241 334 -244L352 -245Q392 -245 420 -219Q448 -193 448 -153.5Q448 -114 420.5 -89Q393 -64 352 -64L342 -65Q329 -66 316 -70Q296 -76 277 -85V-78Q277 -68 280 -56Q284 -40 293 -22Q303 -1 320 21H192Q223 -19 232 -56Q236 -75 235 -85Q216 -76 196 -70Q183 -66 170 -65L160 -64Q119 -64 91.5 -89Q64 -114 64 -153.5Q64 -193 92 -219Q120 -245 160 -245L178 -244Q199 -241 212 -235Q198 -243 187 -256Q165 -281 164 -316Q164 -339 177 -359.5Q190 -380 211 -392.5Q232 -405 256 -405Z"/>
</svg>