<svg xmlns="http://www.w3.org/2000/svg" viewBox="0 -512 512 512">
	<path fill="#000000" d="M363 -405H149Q132 -405 119.5 -392.5Q107 -380 107 -363V-21Q107 -4 119.5 8.5Q132 21 149 21H363Q380 21 392.5 8.5Q405 -4 405 -21V-363Q405 -380 392.5 -392.5Q380 -405 363 -405ZM269 -111L256 -100L243 -111L234 -120Q199 -153 188 -167Q171 -189 171 -208.5Q171 -228 184.5 -242Q198 -256 218 -256Q229 -256 239.5 -251.5Q250 -247 256 -239Q262 -247 272.5 -251.5Q283 -256 294 -256Q314 -256 327.5 -243Q341 -230 341 -209.5Q341 -189 324 -167Q313 -153 278 -120Z"/>
</svg>