<svg xmlns="http://www.w3.org/2000/svg" viewBox="0 -512 512 512">
	<path fill="#000000" d="M341 -235L337 -213H288Q284 -213 280.5 -210Q277 -207 277 -202.5Q277 -198 280.5 -195Q284 -192 288 -192H333L311 -85H267Q262 -85 259 -82Q256 -79 256 -74.5Q256 -70 259 -67Q262 -64 267 -64H307L299 -21Q299 -4 286.5 8.5Q274 21 256 21Q238 21 225.5 8.5Q213 -4 213 -21L192 -128H224Q228 -128 231.5 -131Q235 -134 235 -138.5Q235 -143 231.5 -146Q228 -149 224 -149H188L171 -235Q171 -254 184 -269.5Q197 -285 220 -292L190 -335Q185 -343 186.5 -351.5Q188 -360 195.5 -365Q203 -370 211.5 -368.5Q220 -367 225 -360L235 -346V-384Q235 -393 241 -399Q247 -405 256 -405Q265 -405 271 -399Q277 -393 277 -384V-335L309 -372Q315 -379 323.5 -380Q332 -381 339 -375Q346 -369 346.5 -360.5Q347 -352 341 -345L296 -291Q317 -283 329 -268Q341 -253 341 -235Z"/>
</svg>