<svg xmlns="http://www.w3.org/2000/svg" viewBox="0 -512 512 512">
	<path fill="#000000" d="M301 -267L256 -311L211 -267L181 -297L226 -341L181 -386L211 -416L256 -371L301 -416L331 -386L286 -341L331 -297ZM149 -64Q167 -64 179.5 -51.5Q192 -39 192 -21.5Q192 -4 179.5 8.5Q167 21 149.5 21Q132 21 119.5 8.5Q107 -4 107 -21.5Q107 -39 119.5 -51.5Q132 -64 149 -64ZM363 -64Q380 -64 392.5 -51.5Q405 -39 405 -21.5Q405 -4 392.5 8.5Q380 21 362.5 21Q345 21 332.5 8.5Q320 -4 320 -21.5Q320 -39 332.5 -51.5Q345 -64 363 -64ZM154 -132Q154 -131 155 -129.5Q156 -128 158 -128H405V-85H149Q132 -85 119.5 -97.5Q107 -110 107 -128Q107 -137 111 -149L139 -201L64 -363H21V-405H92L183 -213H333L416 -363L452 -341L369 -192Q364 -182 354 -176.5Q344 -171 333 -171H173L154 -137Z"/>
</svg>