<svg xmlns="http://www.w3.org/2000/svg" viewBox="0 -512 512 512">
	<path fill="#000000" d="M192 -21Q192 -4 179.5 8.5Q167 21 149.5 21Q132 21 119.5 8.5Q107 -4 107 -21.5Q107 -39 119.5 -51.5Q132 -64 149.5 -64Q167 -64 179.5 -51.5Q192 -39 192 -21ZM363 -64Q345 -64 332.5 -51.5Q320 -39 320 -21.5Q320 -4 332.5 8.5Q345 21 362.5 21Q380 21 392.5 8.5Q405 -4 405 -21.5Q405 -39 392.5 -51.5Q380 -64 363 -64ZM154 -132V-134L173 -171H331Q342 -171 352 -176.5Q362 -182 367 -192L450 -341L414 -363L331 -213H181L92 -405H21V-363H64L141 -201L111 -149Q107 -137 107 -128Q107 -110 119.5 -97.5Q132 -85 149 -85H405V-128H158Q156 -128 155 -129.5Q154 -131 154 -132ZM256 -250L243 -260L234 -269Q199 -302 188 -316Q171 -338 171 -358Q171 -378 184.5 -391.5Q198 -405 218 -405Q229 -405 239.5 -400.5Q250 -396 256 -388Q262 -396 272.5 -400.5Q283 -405 294 -405Q314 -405 327.5 -392Q341 -379 341 -358.5Q341 -338 324 -316Q313 -302 278 -269L269 -260Z"/>
</svg>