<svg xmlns="http://www.w3.org/2000/svg" viewBox="0 -512 512 512">
	<path fill="#000000" d="M485 37L27 -421L0 -394L94 -300L141 -201L112 -148Q107 -139 107 -128Q107 -110 119.5 -97.5Q132 -85 149 -85H308L338 -56Q330 -50 325 -41Q320 -32 320 -21Q320 -4 332.5 8.5Q345 21 363 21Q385 21 397 3L458 64ZM158 -128Q156 -128 154.5 -129.5Q153 -131 153 -133L154 -136L173 -171H223L266 -128ZM332 -171Q344 -171 354 -177Q364 -183 369 -193L445 -331Q448 -336 448 -341Q448 -350 442 -356.5Q436 -363 427 -363H140ZM149 -64Q132 -64 119.5 -51.5Q107 -39 107 -21.5Q107 -4 119.5 8.5Q132 21 149.5 21Q167 21 179.5 8.5Q192 -4 192 -21.5Q192 -39 179.5 -51.5Q167 -64 149 -64Z"/>
</svg>