<svg xmlns="http://www.w3.org/2000/svg" viewBox="0 -512 512 512">
	<path fill="#000000" d="M363 -64Q380 -64 392.5 -51.5Q405 -39 405 -21.5Q405 -4 392.5 8.5Q380 21 362.5 21Q345 21 332.5 8.5Q320 -4 320 -21.5Q320 -39 332.5 -51.5Q345 -64 363 -64ZM21 -405H91L111 -363H427Q436 -363 442 -356.5Q448 -350 448 -341Q448 -337 445 -331L369 -193Q364 -183 354 -177Q344 -171 332 -171H173L154 -136L153 -133Q153 -131 154.5 -129.5Q156 -128 158 -128H405V-85H149Q132 -85 119.5 -97.5Q107 -110 107 -128Q107 -139 112 -148L141 -201L64 -363H21ZM149 -64Q167 -64 179.5 -51.5Q192 -39 192 -21.5Q192 -4 179.5 8.5Q167 21 149.5 21Q132 21 119.5 8.5Q107 -4 107 -21.5Q107 -39 119.5 -51.5Q132 -64 149 -64ZM341 -213L401 -320H131L181 -213Z"/>
</svg>