<svg xmlns="http://www.w3.org/2000/svg" viewBox="0 -512 512 512">
	<path fill="#000000" d="M405 -21Q405 -4 392.5 8.5Q380 21 362.5 21Q345 21 332.5 8.5Q320 -4 320 -21.5Q320 -39 332.5 -51.5Q345 -64 362.5 -64Q380 -64 392.5 -51.5Q405 -39 405 -21ZM149 -64Q132 -64 119.5 -51.5Q107 -39 107 -21.5Q107 -4 119.5 8.5Q132 21 149.5 21Q167 21 179.5 8.5Q192 -4 192 -21.5Q192 -39 179.5 -51.5Q167 -64 149 -64ZM154 -136L153 -133Q153 -131 154.5 -129.5Q156 -128 158 -128H405V-85H149Q132 -85 119.5 -97.5Q107 -110 107 -128Q107 -139 112 -148L141 -201L64 -363H21V-405H91L111 -363H427Q435 -363 441.5 -356.5Q448 -350 448 -341Q448 -337 445 -331L369 -193Q364 -183 354 -177Q344 -171 332 -171H173ZM181 -213H213V-256H161ZM235 -256V-213H299V-256ZM299 -277V-320H235V-277ZM365 -256H320V-213H341ZM401 -320H320V-277H377ZM131 -320L151 -277H213V-320Z"/>
</svg>