<svg xmlns="http://www.w3.org/2000/svg" viewBox="0 -512 512 512">
	<path fill="#000000" d="M427 -149Q427 -173 417.5 -182.5Q408 -192 384 -192H341V-213Q341 -225 339.5 -229Q338 -233 329 -234Q322 -235 299 -235V-43H384Q408 -43 417.5 -52.5Q427 -62 427 -85ZM256 -192Q256 -216 246.5 -225.5Q237 -235 213 -235H128Q104 -235 94.5 -225.5Q85 -216 85 -192V-43H128V-107H213V-43H256ZM213 -299H299V-341H213ZM469 -256V-21Q469 -4 456.5 8.5Q444 21 427 21H85Q68 21 55.5 8.5Q43 -4 43 -21V-256Q43 -274 55.5 -286.5Q68 -299 85 -299H171V-341L213 -384H299L341 -341V-299H427Q444 -299 456.5 -286.5Q469 -274 469 -256ZM341 -85H384V-149H341ZM128 -192H213V-149H128Z"/>
</svg>