<svg xmlns="http://www.w3.org/2000/svg" viewBox="0 -512 512 512">
	<path fill="#000000" d="M64 -320V-64H284Q277 -85 277 -107H149Q149 -124 136.5 -136.5Q124 -149 107 -149V-235Q124 -235 136.5 -247.5Q149 -260 149 -277H363Q363 -260 375.5 -247.5Q388 -235 405 -235V-233Q426 -233 448 -226V-320ZM256 -256Q229 -256 210.5 -237.5Q192 -219 192 -192Q192 -165 210.5 -147Q229 -129 256 -128Q268 -128 280 -133Q285 -153 293 -167Q303 -185 319 -200Q317 -222 299 -239Q281 -256 256 -256ZM461 -186L379 -103L350 -132L320 -102L379 -43L491 -156Z"/>
</svg>