<svg xmlns="http://www.w3.org/2000/svg" viewBox="0 -512 512 512">
	<path fill="#000000" d="M365 -237Q346 -256 320 -256Q294 -256 275 -237Q256 -218 256 -192Q256 -166 275 -147Q294 -128 320 -128Q346 -128 365 -147Q384 -166 384 -192Q384 -218 365 -237ZM149 -320V-64H491V-320ZM448 -149Q430 -149 417.5 -136.5Q405 -124 405 -107H235Q235 -124 222.5 -136.5Q210 -149 192 -149V-235Q210 -235 222.5 -247.5Q235 -260 235 -277H405Q405 -260 417.5 -247.5Q430 -235 448 -235ZM107 -277H64Q55 -277 49 -283.5Q43 -290 43 -298.5Q43 -307 49 -313.5Q55 -320 64 -320H107ZM107 -171H43Q34 -171 27.5 -177Q21 -183 21 -192Q21 -201 27.5 -207Q34 -213 43 -213H107ZM107 -64H21Q13 -64 6.5 -70.5Q0 -77 0 -85.5Q0 -94 6.5 -100.5Q13 -107 21 -107H107Z"/>
</svg>