<svg xmlns="http://www.w3.org/2000/svg" viewBox="0 -512 512 512">
	<path fill="#000000" d="M373 -89L425 -59L409 -31L341 -71V-149H373ZM512 -85Q512 -45 492 -10.5Q472 24 437.5 44Q403 64 362.5 64Q322 64 287.5 44Q253 24 233 -10.5Q213 -45 213 -85Q213 -95 215 -107H43V-363H427V-220Q465 -202 488.5 -165.5Q512 -129 512 -85ZM228 -149Q234 -162 241 -171Q239 -171 235 -171Q208 -171 189.5 -189.5Q171 -208 171 -234.5Q171 -261 189.5 -280Q208 -299 234.5 -299Q261 -299 280 -280Q299 -261 299 -235Q299 -227 297 -219Q328 -235 363 -235Q373 -235 384 -233V-277Q366 -277 353.5 -289.5Q341 -302 341 -320H128Q128 -302 115.5 -289.5Q103 -277 85 -277V-192Q103 -192 115.5 -179.5Q128 -167 128 -149ZM469 -85Q469 -114 455 -138.5Q441 -163 416.5 -177.5Q392 -192 363 -192Q334 -192 309.5 -177.5Q285 -163 270.5 -138.5Q256 -114 256 -85Q256 -56 270.5 -31.5Q285 -7 309.5 7Q334 21 363 21Q392 21 416.5 7Q441 -7 455 -31.5Q469 -56 469 -85Z"/>
</svg>