<svg xmlns="http://www.w3.org/2000/svg" viewBox="0 -512 512 512">
	<path fill="#000000" d="M262 -257L211 -309H331V-235H363V-341H211L262 -393L240 -416L149 -325L240 -235ZM256 -149Q229 -149 210.5 -130.5Q192 -112 192 -85.5Q192 -59 210.5 -40Q229 -21 256 -21Q283 -21 301.5 -40Q320 -59 320 -85.5Q320 -112 301.5 -130.5Q283 -149 256 -149ZM64 -213V43H448V-213ZM405 -43Q388 -43 375.5 -30.5Q363 -18 363 0H149Q149 -18 136.5 -30.5Q124 -43 107 -43V-128Q124 -128 136.5 -140.5Q149 -153 149 -171H363Q363 -153 375.5 -140.5Q388 -128 405 -128Z"/>
</svg>