<svg xmlns="http://www.w3.org/2000/svg" viewBox="0 -512 512 512">
	<path fill="#000000" d="M330 -61L360 -31L405 -77L451 -31L481 -61L435 -107L481 -152L451 -182L405 -137L360 -182L330 -152L375 -107ZM319 -200Q318 -222 299.5 -239Q281 -256 256 -256Q229 -255 210.5 -237Q192 -219 192 -192Q192 -165 210.5 -147Q229 -129 256 -128Q268 -128 280 -133Q285 -153 293 -167Q303 -185 319 -200ZM277 -107H149Q149 -124 136.5 -136.5Q124 -149 107 -149V-235Q124 -235 136.5 -247.5Q149 -260 149 -277H363Q363 -260 375.5 -247.5Q388 -235 405 -235V-234Q427 -233 448 -226V-320H64V-64H284Q277 -85 277 -107Z"/>
</svg>