<svg xmlns="http://www.w3.org/2000/svg" viewBox="0 -512 512 512">
	<path fill="#000000" d="M465 -107Q475 -107 483 -98.5Q491 -90 491 -79V-4Q491 6 482.5 13.5Q474 21 463 21H346Q336 21 328 13Q320 5 320 -6V-81Q320 -91 328 -99Q336 -107 346 -107V-160Q346 -182 364 -197.5Q382 -213 405 -213Q428 -213 446.5 -197.5Q465 -182 465 -160V-149H437V-160Q437 -172 428 -180Q419 -188 405.5 -188Q392 -188 382.5 -180Q373 -172 373 -160V-107ZM43 -320H427V-254L405 -256Q380 -256 357 -244Q341 -257 341 -277H128Q128 -260 115.5 -247.5Q103 -235 85 -235V-149Q103 -149 115.5 -136.5Q128 -124 128 -107H278L277 -96V-64H43ZM235 -256Q261 -256 280 -237.5Q299 -219 299 -192Q299 -165 280 -146.5Q261 -128 234.5 -128Q208 -128 189.5 -146.5Q171 -165 171 -192Q171 -219 189.5 -237.5Q208 -256 235 -256Z"/>
</svg>