<svg xmlns="http://www.w3.org/2000/svg" viewBox="0 -512 512 512">
	<path fill="#000000" d="M465 -128Q475 -128 483 -119.5Q491 -111 491 -100V-26Q491 -16 482.5 -8Q474 0 463 0H346Q336 0 328 -8.5Q320 -17 320 -28V-102Q320 -112 328 -120Q336 -128 346 -128V-160Q346 -182 364 -197.5Q382 -213 405 -213Q428 -213 446.5 -197.5Q465 -182 465 -160ZM437 -128V-160Q437 -172 428 -180Q419 -188 405.5 -188Q392 -188 382.5 -180Q373 -172 373 -160V-128ZM43 -320H427V-254L405 -256Q380 -256 357 -244Q341 -257 341 -277H128Q128 -260 115.5 -247.5Q103 -235 85 -235V-149Q103 -149 115.5 -136.5Q128 -124 128 -107H278L277 -96V-64H43ZM235 -256Q261 -256 280 -237.5Q299 -219 299 -192Q299 -165 280 -146.5Q261 -128 234.5 -128Q208 -128 189.5 -146.5Q171 -165 171 -192Q171 -219 189.5 -237.5Q208 -256 235 -256Z"/>
</svg>