<svg xmlns="http://www.w3.org/2000/svg" viewBox="0 -512 512 512">
	<path fill="#000000" d="M107 -320H491V-64H107ZM299 -256Q325 -256 344 -237.5Q363 -219 363 -192Q363 -165 344 -146.5Q325 -128 298.5 -128Q272 -128 253.5 -146.5Q235 -165 235 -192Q235 -219 253.5 -237.5Q272 -256 299 -256ZM192 -277Q192 -260 179.5 -247.5Q167 -235 149 -235V-149Q167 -149 179.5 -136.5Q192 -124 192 -107H405Q405 -124 417.5 -136.5Q430 -149 448 -149V-235Q430 -235 417.5 -247.5Q405 -260 405 -277ZM21 -235H64V-21H405V21H21Z"/>
</svg>