<svg xmlns="http://www.w3.org/2000/svg" viewBox="0 -512 512 512">
	<path fill="#000000" d="M43 -341H469V-21H43ZM427 -64V-299H85V-64ZM363 -277Q363 -260 375.5 -247.5Q388 -235 405 -235V-128Q388 -128 375.5 -115.5Q363 -103 363 -85H149Q149 -103 136.5 -115.5Q124 -128 107 -128V-235Q124 -235 136.5 -247.5Q149 -260 149 -277ZM363 -171V-192Q363 -210 353.5 -222.5Q344 -235 330.5 -235Q317 -235 308 -222.5Q299 -210 299 -192V-171Q299 -153 308 -140.5Q317 -128 330.5 -128Q344 -128 353.5 -140.5Q363 -153 363 -171ZM331 -213Q335 -213 338 -210Q341 -207 341 -203V-160Q341 -156 338 -152.5Q335 -149 330.5 -149Q326 -149 323 -152.5Q320 -156 320 -160V-203Q320 -207 323 -210Q326 -213 331 -213ZM277 -171V-192Q277 -210 268 -222.5Q259 -235 245.5 -235Q232 -235 222.5 -222.5Q213 -210 213 -192V-171Q213 -153 222.5 -140.5Q232 -128 245.5 -128Q259 -128 268 -140.5Q277 -153 277 -171ZM245 -213Q250 -213 253 -210Q256 -207 256 -203V-160Q256 -156 253 -152.5Q250 -149 245.5 -149Q241 -149 238 -152.5Q235 -156 235 -160V-203Q235 -207 238 -210Q241 -213 245 -213ZM171 -128H192V-235H171L149 -224V-203L171 -213Z"/>
</svg>