<svg xmlns="http://www.w3.org/2000/svg" viewBox="0 -512 512 512">
	<path fill="#000000" d="M21 -235V-192Q73 -192 117.5 -166Q162 -140 187.5 -96Q213 -52 213 0H256Q256 -64 224.5 -118Q193 -172 139 -203.5Q85 -235 21 -235ZM21 -149V-107Q50 -107 74.5 -92.5Q99 -78 113.5 -53.5Q128 -29 128 0H171Q171 -30 159.5 -57.5Q148 -85 127 -106Q106 -127 78.5 -138Q51 -149 21 -149ZM21 -64V0H85Q85 -27 66.5 -45.5Q48 -64 21 -64ZM448 -384H64Q46 -384 33.5 -371.5Q21 -359 21 -341V-277H64V-341H448V-43H299V0H448Q466 0 478.5 -12.5Q491 -25 491 -43V-341Q491 -359 478.5 -371.5Q466 -384 448 -384Z"/>
</svg>