<svg xmlns="http://www.w3.org/2000/svg" viewBox="0 -512 512 512">
	<path fill="#000000" d="M309 -192Q309 -214 293.5 -229.5Q278 -245 256 -245Q234 -245 218.5 -229.5Q203 -214 203 -192Q203 -176 211 -163.5Q219 -151 233 -144L209 -121Q192 -132 181.5 -151Q171 -170 171 -192Q171 -227 196 -252Q221 -277 256 -277Q291 -277 316 -252Q341 -227 341 -192Q341 -170 330.5 -151Q320 -132 303 -121L279 -144Q293 -151 301 -163.5Q309 -176 309 -192ZM256 -405Q198 -405 149 -376.5Q100 -348 71.5 -299Q43 -250 43 -192Q43 -144 63 -101.5Q83 -59 118 -29L141 -52Q110 -77 92.5 -114Q75 -151 75 -192Q75 -241 99 -283Q123 -325 165 -349Q207 -373 256 -373Q305 -373 347 -349Q389 -325 413 -283Q437 -241 437 -192Q437 -151 419.5 -114Q402 -77 371 -52L394 -29Q429 -59 449 -101.5Q469 -144 469 -192Q469 -250 440.5 -299Q412 -348 363 -376.5Q314 -405 256 -405ZM405 -192Q405 -233 385 -267Q365 -301 331 -321Q297 -341 256 -341Q215 -341 181 -321Q147 -301 127 -267Q107 -233 107 -192Q107 -157 122 -126.5Q137 -96 164 -75L187 -97Q164 -114 151.5 -138.5Q139 -163 139 -192Q139 -224 154.5 -251Q170 -278 197 -293.5Q224 -309 256 -309Q288 -309 315 -293.5Q342 -278 357.5 -251Q373 -224 373 -192Q373 -163 360.5 -138.5Q348 -114 325 -97L348 -75Q375 -96 390 -126.5Q405 -157 405 -192ZM128 21H384L256 -107Z"/>
</svg>