<svg xmlns="http://www.w3.org/2000/svg" viewBox="0 -512 512 512">
	<path fill="#000000" d="M171 -384V-341H235V-229Q225 -223 219 -213Q213 -203 213 -192V-171H299V-192Q299 -203 293 -213Q287 -223 277 -229V-341H341V-384ZM128 -192Q93 -192 68 -182.5Q43 -173 43 -160Q43 -147 68 -137.5Q93 -128 128 -128Q163 -128 188 -137.5Q213 -147 213 -160Q213 -173 188 -182.5Q163 -192 128 -192ZM384 -192Q349 -192 324 -182.5Q299 -173 299 -160Q299 -147 324 -137.5Q349 -128 384 -128Q419 -128 444 -137.5Q469 -147 469 -160Q469 -173 444 -182.5Q419 -192 384 -192ZM213 -149V-128Q213 -116 219 -106.5Q225 -97 235 -91Q245 -85 256 -85Q267 -85 277 -91Q287 -97 293 -107Q299 -117 299 -128V-149ZM277 -43V21H235V-43ZM339 -97L384 -51L354 -21L309 -67ZM204 -67L158 -21L128 -51L173 -97Z"/>
</svg>