<svg xmlns="http://www.w3.org/2000/svg" viewBox="0 -512 512 512">
	<path fill="#000000" d="M395 -171Q364 -171 342 -148.5Q320 -126 320 -96Q320 -61 357 -6Q376 22 395 43L414 19Q436 -10 450 -35Q469 -71 469 -96Q469 -126 447 -148.5Q425 -171 395 -171ZM395 -68Q384 -68 376.5 -76Q369 -84 369 -94Q369 -104 377 -111.5Q385 -119 394.5 -119Q404 -119 412 -111Q420 -103 421 -93.5Q422 -84 414 -76Q406 -68 395 -68ZM339 43H149Q132 43 119.5 30.5Q107 18 107 0V-384Q107 -402 119.5 -414.5Q132 -427 149 -427H363Q380 -427 392.5 -414.5Q405 -402 405 -384V-213Q402 -213 395 -213Q379 -213 363 -209V-341H149V-43H289Q305 -2 339 43Z"/>
</svg>