<svg xmlns="http://www.w3.org/2000/svg" viewBox="0 -512 512 512">
	<path fill="#000000" d="M428 -343Q458 -313 474.5 -274Q491 -235 491 -192Q491 -149 474.5 -110Q458 -71 428 -41L398 -71Q422 -95 435 -126Q448 -157 448 -192Q448 -227 435 -258Q422 -289 398 -313ZM368 -282Q386 -265 395.5 -241.5Q405 -218 405 -192Q405 -166 395.5 -142.5Q386 -119 368 -102L338 -132Q363 -157 363 -192Q363 -227 338 -252ZM277 -235Q295 -235 307.5 -222.5Q320 -210 320 -192Q320 -174 307.5 -161.5Q295 -149 277.5 -149Q260 -149 247.5 -161.5Q235 -174 235 -192Q235 -210 247.5 -222.5Q260 -235 277 -235ZM245 -427Q267 -427 283 -411Q299 -395 299 -373V-277H256V-363H64V-43H256V-107H299V-11Q299 11 283 27Q267 43 245 43H75Q53 43 37 27Q21 11 21 -11V-373Q21 -395 37 -411Q53 -427 75 -427Z"/>
</svg>