<svg xmlns="http://www.w3.org/2000/svg" viewBox="0 -512 512 512">
	<path fill="#000000" d="M51 -411L24 -384L47 -360Q43 -351 43 -341V-43Q43 -25 55.5 -12.5Q68 0 85 0H235Q252 0 264.5 -12.5Q277 -25 277 -43V-130L445 37L472 10ZM235 -85H85V-299H109L235 -173ZM491 -352V-288Q491 -275 481.5 -265.5Q472 -256 459 -256H384L322 -194L320 -196V-352Q320 -365 329.5 -374.5Q339 -384 352 -384H459Q472 -384 481.5 -374.5Q491 -365 491 -352ZM218 -299L132 -384H235Q252 -384 264.5 -371.5Q277 -359 277 -341V-239L235 -282V-299Z"/>
</svg>