<svg xmlns="http://www.w3.org/2000/svg" viewBox="0 -512 512 512">
	<path fill="#000000" d="M149 -427Q132 -427 119.5 -414.5Q107 -402 107 -384V-299H149V-363H363V-21H149V-85H107V0Q107 18 119.5 30.5Q132 43 149 43H363Q380 43 392.5 30.5Q405 18 405 0V-384Q405 -402 392.5 -414.5Q380 -427 363 -427ZM128 -256Q101 -256 82.5 -237.5Q64 -219 64 -192Q64 -165 82.5 -146.5Q101 -128 128 -128Q149 -128 165 -139.5Q181 -151 188 -171H235V-128H277V-171H320V-213H188Q181 -233 165 -244.5Q149 -256 128 -256ZM128 -213Q138 -213 143.5 -207.5Q149 -202 149 -192Q149 -182 143.5 -176.5Q138 -171 128 -171Q118 -171 112.5 -176.5Q107 -182 107 -192Q107 -202 112.5 -207.5Q118 -213 128 -213Z"/>
</svg>