<svg xmlns="http://www.w3.org/2000/svg" viewBox="0 -512 512 512">
	<path fill="#000000" d="M43 -107V-64Q72 -64 96.5 -49.5Q121 -35 135 -10.5Q149 14 149 43H192Q192 2 172 -32Q152 -66 117.5 -86.5Q83 -107 43 -107ZM43 -21V43H107Q107 16 88 -2.5Q69 -21 43 -21ZM43 -192V-149Q95 -149 139 -123.5Q183 -98 209 -53.5Q235 -9 235 43H277Q277 -21 245.5 -75Q214 -129 160 -160.5Q106 -192 43 -192ZM363 -427H149Q132 -427 119.5 -414.5Q107 -402 107 -384V-227Q129 -222 149 -213V-341H363V-64H298Q315 -25 318 21H363Q380 21 392.5 8.5Q405 -4 405 -21V-384Q405 -402 392.5 -414.5Q380 -427 363 -427Z"/>
</svg>