<svg xmlns="http://www.w3.org/2000/svg" viewBox="0 -512 512 512">
	<path fill="#000000" d="M363 -427H149Q132 -427 119.5 -414.5Q107 -402 107 -384V-320H149V-363H363V-21H149V-64H107V0Q107 18 119.5 30.5Q132 43 149 43H363Q380 43 392.5 30.5Q405 18 405 0V-384Q405 -402 392.5 -414.5Q380 -427 363 -427ZM188 -213V-245Q188 -267 169.5 -283Q151 -299 128 -299Q105 -299 86.5 -283Q68 -267 68 -245V-213Q59 -213 51 -205Q43 -197 43 -188V-113Q43 -102 50.5 -93.5Q58 -85 68 -85H186Q197 -85 205 -93Q213 -101 213 -111V-186Q213 -197 205.5 -205Q198 -213 188 -213ZM160 -213H96V-245Q96 -258 105.5 -265.5Q115 -273 128 -273Q141 -273 150.5 -265.5Q160 -258 160 -245Z"/>
</svg>