<svg xmlns="http://www.w3.org/2000/svg" viewBox="0 -512 512 512">
	<path fill="#000000" d="M445 37L402 -6Q397 7 386.5 14Q376 21 363 21H318Q315 -25 298 -64H344L149 -258V-213Q129 -222 107 -227V-301L24 -384L51 -411L472 10ZM363 -341V-154L405 -111V-384Q405 -402 392.5 -414.5Q380 -427 363 -427H149Q137 -427 127.5 -420.5Q118 -414 112 -404L175 -341ZM43 -21V43H107Q107 16 88 -2.5Q69 -21 43 -21ZM43 -107V-64Q72 -64 96.5 -49.5Q121 -35 135 -10.5Q149 14 149 43H192Q192 2 172 -32.5Q152 -67 117.5 -87Q83 -107 43 -107ZM43 -192V-149Q95 -149 139 -123.5Q183 -98 209 -53.5Q235 -9 235 43H277Q277 -21 245.5 -75Q214 -129 160 -160.5Q106 -192 43 -192Z"/>
</svg>