<svg xmlns="http://www.w3.org/2000/svg" viewBox="0 -512 512 512">
	<path fill="#000000" d="M320 -405Q311 -405 305 -399Q299 -393 299 -384V-320H213Q196 -320 183.5 -307.5Q171 -295 171 -277V-21Q171 -4 183.5 8.5Q196 21 213 21H320Q338 21 350.5 8.5Q363 -4 363 -21V-277Q363 -289 357 -298.5Q351 -308 341 -314V-384Q341 -393 335 -399Q329 -405 320 -405ZM213 -277H320V-171H213ZM213 -128H235V-107H213ZM256 -128H277V-107H256ZM299 -128H320V-107H299ZM213 -85H235V-64H213ZM256 -85H277V-64H256ZM299 -85H320V-64H299ZM213 -43H235V-21H213ZM256 -43H277V-21H256ZM299 -43H320V-21H299Z"/>
</svg>