<svg xmlns="http://www.w3.org/2000/svg" viewBox="0 -512 512 512">
	<path fill="#000000" d="M277 0L320 -21L363 0V-149H277ZM363 -256V-299L320 -277L277 -299V-256L235 -235L277 -213V-171L320 -192L363 -171V-213L405 -235ZM427 -384H85Q68 -384 55.5 -371.5Q43 -359 43 -341V-128Q43 -110 55.5 -97.5Q68 -85 85 -85H235V-128H85V-341H427V-128H405V-85H427Q444 -85 456.5 -97.5Q469 -110 469 -128V-341Q469 -359 456.5 -371.5Q444 -384 427 -384ZM235 -277H107V-320H235ZM192 -213H107V-256H192ZM235 -149H107V-192H235Z"/>
</svg>