<svg xmlns="http://www.w3.org/2000/svg" viewBox="0 -512 512 512">
	<path fill="#000000" d="M320 -169Q320 -142 301.5 -123.5Q283 -105 256 -105Q229 -105 210.5 -123.5Q192 -142 192 -168.5Q192 -195 210.5 -214Q229 -233 256 -233Q283 -233 301.5 -214Q320 -195 320 -169ZM192 -405V-384Q192 -366 204.5 -353.5Q217 -341 235 -341V-254Q246 -256 256 -256Q266 -256 277 -254V-341Q295 -341 307.5 -353.5Q320 -366 320 -384V-405ZM85 -211Q59 -211 40 -192.5Q21 -174 21 -147.5Q21 -121 40 -102Q59 -83 85.5 -83Q112 -83 130.5 -102Q149 -121 149 -147.5Q149 -174 130.5 -192.5Q112 -211 85 -211ZM427 -211Q400 -211 381.5 -192.5Q363 -174 363 -147.5Q363 -121 381.5 -102Q400 -83 426.5 -83Q453 -83 472 -102Q491 -121 491 -147.5Q491 -174 472 -192.5Q453 -211 427 -211ZM427 -62Q405 -62 386 -70Q369 -62 352 -62Q335 -62 319.5 -69.5Q304 -77 294 -90Q277 -83 256 -83Q235 -83 218 -90Q208 -77 192.5 -69.5Q177 -62 160 -62Q143 -62 126 -70Q107 -62 85 -62Q78 -62 68 -64Q85 -43 109 -31Q133 -19 160 -19Q202 -19 235 -46V2Q235 11 241 17Q247 23 256 23Q265 23 271 17Q277 11 277 2V-46Q310 -19 352 -19Q379 -19 403 -31Q427 -43 444 -64Q434 -62 427 -62Z"/>
</svg>