<svg xmlns="http://www.w3.org/2000/svg" viewBox="0 -512 512 512">
	<path fill="#000000" d="M272 -364Q304 -387 346 -387Q370 -387 397 -374.5Q424 -362 440 -345Q473 -304 468 -249.5Q463 -195 432 -165L270 -3Q264 3 255 3Q246 3 240 -3Q234 -9 234 -18Q234 -27 240 -33L338 -131Q346 -138 338 -146Q330 -154 323 -146L225 -48Q219 -42 210 -42Q201 -42 195 -48Q189 -54 189 -63Q189 -72 195 -78L293 -176Q302 -184 294 -192Q286 -200 278 -192L180 -93Q174 -87 165 -87Q156 -87 149.5 -93Q143 -99 143 -108Q143 -117 150 -124L248 -222Q256 -230 248 -237Q240 -244 233 -237L134 -139Q127 -132 118.5 -132Q110 -132 104 -138.5Q98 -145 98 -154Q98 -163 104 -169Q191 -256 225 -289L301 -214Q314 -202 331 -202Q353 -202 366 -220Q375 -233 372.5 -249Q370 -265 359 -276ZM316 -229L225 -320L74 -169Q47 -196 43.5 -252.5Q40 -309 74 -350Q112 -388 165 -388Q218 -388 255 -350L346 -259Q352 -253 352 -244Q352 -235 346 -229Q340 -223 331 -223Q322 -223 316 -229Z"/>
</svg>