<svg xmlns="http://www.w3.org/2000/svg" viewBox="0 -512 512 512">
	<path fill="#000000" d="M224 -320L73 -169Q49 -195 43 -252Q40 -308 75 -350Q113 -388 167 -388Q221 -388 256 -350L292 -314Q272 -308 252 -294ZM331 -320Q377 -320 413.5 -292.5Q450 -265 463 -222Q467 -239 467 -250Q473 -302 439 -346Q422 -363 397 -375Q368 -388 346 -388Q304 -388 271 -365L316 -320ZM235 -279L226 -288Q204 -272 105 -169Q98 -162 98 -153.5Q98 -145 104.5 -138.5Q111 -132 119.5 -132Q128 -132 134 -139L192 -196Q198 -246 235 -279ZM218 -100L194 -77Q193 -75 191.5 -71Q190 -67 190 -64Q190 -55 196.5 -49Q203 -43 210.5 -43Q218 -43 224 -49L247 -73Q233 -81 218 -100ZM192 -166L149 -124Q143 -117 143 -107.5Q143 -98 149.5 -91.5Q156 -85 164.5 -85Q173 -85 179 -92L205 -119Q195 -142 192 -166ZM267 -60L241 -34Q235 -28 235 -19.5Q235 -11 241 -4.5Q247 2 256 2Q265 2 271 -4L311 -45Q284 -48 267 -60ZM474 -68L444 -38L382 -100Q356 -85 331 -85Q291 -85 263 -113Q235 -141 235 -181Q235 -221 263 -249Q291 -277 331 -277Q371 -277 399 -249Q427 -221 427 -181Q427 -156 412 -130ZM384 -181Q384 -204 368.5 -219.5Q353 -235 330.5 -235Q308 -235 292.5 -219.5Q277 -204 277 -181.5Q277 -159 292.5 -143.5Q308 -128 330.5 -128Q353 -128 368.5 -143.5Q384 -159 384 -181Z"/>
</svg>