<svg xmlns="http://www.w3.org/2000/svg" viewBox="0 -512 512 512">
	<path fill="#000000" d="M277 -213H426Q418 -272 377 -312.5Q336 -353 277 -362ZM235 -22V-362Q171 -353 128 -305Q85 -257 85 -192Q85 -127 128 -78.5Q171 -30 235 -22ZM277 -22Q336 -30 377 -71Q418 -112 426 -171H277ZM256 -192ZM256 21Q212 21 173 4.5Q134 -12 105 -41Q76 -70 59.5 -109Q43 -148 43 -192Q43 -236 59.5 -275Q76 -314 105 -343Q134 -372 173 -388.5Q212 -405 256 -405Q300 -405 339 -388.5Q378 -372 407 -343Q436 -314 452.5 -275Q469 -236 469 -192Q469 -148 452.5 -109Q436 -70 407 -41Q378 -12 339 4.5Q300 21 256 21Z"/>
</svg>