<svg xmlns="http://www.w3.org/2000/svg" viewBox="0 -512 512 512">
	<path fill="#000000" d="M277 -404V-340Q313 -334 342.5 -313.5Q372 -293 388.5 -261Q405 -229 405 -192Q405 -164 395 -138L451 -105Q469 -147 469 -192Q469 -246 443.5 -293Q418 -340 374.5 -369.5Q331 -399 277 -404ZM256 -43Q215 -43 181 -63Q147 -83 127 -117Q107 -151 107 -192Q107 -229 123.5 -261Q140 -293 169.5 -313.5Q199 -334 235 -340V-404Q181 -399 137 -369.5Q93 -340 68 -293Q43 -246 43 -192Q43 -150 59 -110.5Q75 -71 105 -41Q135 -11 174.5 5Q214 21 256 21Q308 21 353 -2Q398 -25 428 -66L372 -99Q351 -72 321 -57.5Q291 -43 256 -43Z"/>
</svg>