<svg xmlns="http://www.w3.org/2000/svg" viewBox="0 -512 512 512">
	<path fill="#000000" d="M277 -404Q331 -399 374.5 -369.5Q418 -340 443.5 -293Q469 -246 469 -192Q469 -147 451 -105L395 -138Q405 -164 405 -192Q405 -229 388.5 -261Q372 -293 342.5 -313.5Q313 -334 277 -340ZM256 -43Q291 -43 321 -57.5Q351 -72 372 -99L428 -66Q398 -25 353 -2Q308 21 256 21Q198 21 149 -7.5Q100 -36 71.5 -85Q43 -134 43 -192Q43 -246 68 -293Q93 -340 137 -369.5Q181 -399 235 -404V-340Q199 -334 169.5 -313.5Q140 -293 123.5 -261Q107 -229 107 -192Q107 -151 127 -117Q147 -83 181 -63Q215 -43 256 -43ZM256 -320Q291 -320 320.5 -303Q350 -286 367 -256.5Q384 -227 384 -192Q384 -145 353.5 -109Q323 -73 277 -66V-132Q296 -138 308 -154.5Q320 -171 320 -192Q320 -219 301.5 -237.5Q283 -256 256 -256L244 -255L211 -312Q232 -320 256 -320ZM128 -192Q128 -221 140.5 -246.5Q153 -272 175 -291L207 -234Q192 -216 192 -192Q192 -171 204 -154.5Q216 -138 235 -132V-66Q189 -73 158.5 -109Q128 -145 128 -192Z"/>
</svg>