<svg xmlns="http://www.w3.org/2000/svg" viewBox="0 -512 512 512">
	<path fill="#000000" d="M448 -277Q433 -277 422 -269Q411 -261 407 -248.5Q403 -236 407 -224L331 -147Q320 -151 309 -147L254 -203Q258 -214 254 -226.5Q250 -239 239.5 -247.5Q229 -256 214 -256Q199 -256 188 -247.5Q177 -239 173 -226.5Q169 -214 173 -203L75 -107Q56 -112 38.5 -99.5Q21 -87 21 -64Q21 -46 33.5 -33.5Q46 -21 64 -21Q78 -21 89 -29.5Q100 -38 104.5 -50.5Q109 -63 105 -75L201 -173Q211 -169 222 -173L277 -117Q274 -106 278.5 -93.5Q283 -81 294 -72.5Q305 -64 320 -64Q335 -64 346 -72.5Q357 -81 361 -93.5Q365 -106 361 -117L437 -194Q456 -189 473.5 -201Q491 -213 491 -235Q491 -252 478.5 -264.5Q466 -277 448 -277ZM320 -256L339 -301L384 -320L339 -339L320 -384L301 -339L256 -320L301 -301ZM75 -213L85 -256L128 -267L85 -277L75 -320L64 -277L21 -267L64 -256Z"/>
</svg>