<svg xmlns="http://www.w3.org/2000/svg" viewBox="0 -512 512 512">
	<path fill="#000000" d="M64 -149L75 -148L172 -245Q169 -256 172 -267Q175 -278 183 -286Q196 -299 213.5 -299Q231 -299 243 -286Q252 -278 254.5 -267Q257 -256 255 -245L309 -191L320 -192Q327 -192 331 -191L407 -267Q405 -270 405 -277Q405 -295 417.5 -307.5Q430 -320 448 -320Q466 -320 478.5 -307.5Q491 -295 491 -277.5Q491 -260 478.5 -247.5Q466 -235 448 -235Q441 -235 437 -236L361 -160Q363 -157 363 -149Q363 -132 350.5 -119.5Q338 -107 320 -107Q302 -107 289.5 -119.5Q277 -132 277 -149L279 -160L224 -215Q213 -212 203 -215L105 -117L107 -107Q107 -89 94.5 -76.5Q82 -64 64 -64Q46 -64 33.5 -76.5Q21 -89 21 -106.5Q21 -124 33.5 -136.5Q46 -149 64 -149Z"/>
</svg>