<svg xmlns="http://www.w3.org/2000/svg" viewBox="0 -512 512 512">
	<path fill="#000000" d="M43 -405H85V-21H469V21H43ZM192 -235Q219 -235 237.5 -216Q256 -197 256 -170.5Q256 -144 237.5 -125.5Q219 -107 192 -107Q165 -107 146.5 -125.5Q128 -144 128 -170.5Q128 -197 146.5 -216Q165 -235 192 -235ZM277 -405Q304 -405 322.5 -386.5Q341 -368 341 -341.5Q341 -315 322.5 -296Q304 -277 277.5 -277Q251 -277 232 -296Q213 -315 213 -341.5Q213 -368 232 -386.5Q251 -405 277 -405ZM384 -192Q411 -192 429.5 -173.5Q448 -155 448 -128Q448 -101 429.5 -82.5Q411 -64 384 -64Q357 -64 338.5 -82.5Q320 -101 320 -128Q320 -155 338.5 -173.5Q357 -192 384 -192Z"/>
</svg>