<svg xmlns="http://www.w3.org/2000/svg" viewBox="0 -512 512 512">
	<path fill="#000000" d="M345 -30L302 -104Q318 -116 328 -133Q338 -150 341 -171H427Q424 -127 402 -90Q380 -53 345 -30ZM277 -298V-384Q323 -381 361 -358Q399 -335 422 -297Q445 -259 448 -213H362Q358 -247 334.5 -270.5Q311 -294 277 -298ZM149 -181Q149 -161 157 -143L83 -100Q64 -138 64 -181Q64 -229 86.5 -269.5Q109 -310 148.5 -335Q188 -360 235 -363V-277Q198 -273 173.5 -245.5Q149 -218 149 -181ZM245 0Q198 0 158.5 -22Q119 -44 94 -81L168 -124Q182 -106 202 -95.5Q222 -85 245 -85Q266 -85 284 -93L327 -19Q289 0 245 0Z"/>
</svg>