<svg xmlns="http://www.w3.org/2000/svg" viewBox="0 -512 512 512">
	<path fill="#000000" d="M154 -209Q182 -209 202 -189Q222 -169 222 -140.5Q222 -112 202 -92.5Q182 -73 153.5 -73Q125 -73 105 -92.5Q85 -112 85 -140.5Q85 -169 105 -189Q125 -209 154 -209ZM316 -107Q333 -107 345.5 -94.5Q358 -82 358 -64Q358 -46 345.5 -33.5Q333 -21 315.5 -21Q298 -21 285.5 -33.5Q273 -46 273 -64Q273 -82 285.5 -94.5Q298 -107 316 -107ZM324 -363Q352 -363 375.5 -349Q399 -335 413 -311.5Q427 -288 427 -260Q427 -232 413 -208.5Q399 -185 375.5 -171.5Q352 -158 324 -158Q296 -158 272.5 -171.5Q249 -185 235.5 -208.5Q222 -232 222 -260Q222 -288 235.5 -311.5Q249 -335 272.5 -349Q296 -363 324 -363Z"/>
</svg>