<svg xmlns="http://www.w3.org/2000/svg" viewBox="0 -512 512 512">
	<path fill="#000000" d="M212 -207Q229 -267 240 -289Q255 -320 277 -320Q299 -320 315 -289Q326 -267 342 -207Q356 -155 366 -130Q382 -89 404 -68Q431 -43 469 -43V-85Q447 -85 431 -102Q417 -117 405 -148Q396 -170 383.5 -217.5Q371 -265 362 -287Q349 -323 330 -341Q309 -363 277.5 -363Q246 -363 224 -341Q206 -323 192 -287Q184 -265 171 -218Q153 -148 138 -122Q118 -85 85 -85V-405H43V21H469V-21H85V-43Q124 -43 151 -68Q173 -89 189 -130Q199 -155 212 -207Z"/>
</svg>