<svg xmlns="http://www.w3.org/2000/svg" viewBox="0 -512 512 512">
	<path fill="#000000" d="M256 -384Q198 -384 149 -361Q100 -338 71.5 -299Q43 -260 43 -213Q43 -179 58.5 -148Q74 -117 101 -96Q101 -82 91 -62Q75 -33 43 0Q80 -2 115.5 -15.5Q151 -29 181 -53Q218 -43 256 -43Q314 -43 363 -66Q412 -89 440.5 -128Q469 -167 469 -213.5Q469 -260 440.5 -299Q412 -338 363 -361Q314 -384 256 -384ZM256 -85Q210 -85 170.5 -102.5Q131 -120 108 -149.5Q85 -179 85 -213.5Q85 -248 108 -277.5Q131 -307 170.5 -324Q210 -341 256 -341Q302 -341 341.5 -324Q381 -307 404 -277.5Q427 -248 427 -213.5Q427 -179 404 -149.5Q381 -120 341.5 -102.5Q302 -85 256 -85ZM363 -192V-235H320V-192ZM277 -192V-235H235V-192ZM192 -192V-235H149V-192Z"/>
</svg>