<svg xmlns="http://www.w3.org/2000/svg" viewBox="0 -512 512 512">
	<path fill="#000000" d="M256 -384Q314 -384 363 -361Q412 -338 440.5 -299Q469 -260 469 -213Q469 -196 465 -177Q445 -188 424 -191Q427 -202 427 -213Q427 -248 404 -277.5Q381 -307 341.5 -324Q302 -341 256 -341Q210 -341 170.5 -324Q131 -307 108 -277.5Q85 -248 85 -213.5Q85 -179 108 -149.5Q131 -120 170.5 -102.5Q210 -85 256 -85L279 -86L277 -64L279 -44L256 -43Q218 -43 181 -53Q151 -29 115.5 -15.5Q80 -2 43 0Q75 -33 91 -62Q101 -82 101 -96Q74 -117 58.5 -148Q43 -179 43 -213Q43 -260 71.5 -299Q100 -338 149 -361Q198 -384 256 -384ZM384 -149H427V-85H491V-43H427V21H384V-43H320V-85H384Z"/>
</svg>