<svg xmlns="http://www.w3.org/2000/svg" viewBox="0 -512 512 512">
	<path fill="#000000" d="M256 -384Q198 -384 149 -361Q100 -338 71.5 -298.5Q43 -259 43 -213Q43 -179 59 -148Q75 -117 102 -96Q102 -82 92 -62Q76 -32 43 0Q118 -3 181 -53Q220 -43 256 -43Q314 -43 363 -66Q412 -89 440.5 -128Q469 -167 469 -213Q469 -259 440.5 -298.5Q412 -338 363 -361Q314 -384 256 -384ZM256 -85Q210 -85 170.5 -102.5Q131 -120 108 -149.5Q85 -179 85 -213.5Q85 -248 108 -277.5Q131 -307 170.5 -324Q210 -341 256 -341Q302 -341 341.5 -324Q381 -307 404 -277.5Q427 -248 427 -213.5Q427 -179 404 -149.5Q381 -120 341.5 -102.5Q302 -85 256 -85ZM260 -309Q233 -309 215 -299Q195 -285 198 -262H241Q241 -272 247 -275Q256 -279 262 -279Q273 -279 279.5 -273Q286 -267 286 -259.5Q286 -252 282 -243Q273 -235 269 -233Q253 -223 245 -215Q239 -211 237 -205.5Q235 -200 235 -192H277Q277 -196 279 -201V-207Q281 -210 286 -214L290 -218Q303 -223 314 -237Q322 -248 322 -262Q322 -285 305 -299Q291 -309 260 -309ZM235 -171V-128H277V-171Z"/>
</svg>