<svg xmlns="http://www.w3.org/2000/svg" viewBox="0 -512 512 512">
	<path fill="#000000" d="M256 21Q283 21 305 15Q289 -5 284 -23Q275 -21 256 -21Q210 -21 170.5 -44Q131 -67 108 -106.5Q85 -146 85 -192Q85 -238 108 -277.5Q131 -317 170.5 -340Q210 -363 256 -363Q281 -363 303 -356L337 -390Q292 -405 256 -405Q198 -405 149 -376.5Q100 -348 71.5 -299Q43 -250 43 -192Q43 -134 71.5 -85Q100 -36 149 -7.5Q198 21 256 21ZM139 -203L169 -233L235 -166L418 -350L448 -320L235 -107ZM405 -149L378 -91L320 -64L378 -37L405 21L432 -37L491 -64L432 -91Z"/>
</svg>