<svg xmlns="http://www.w3.org/2000/svg" viewBox="0 -512 512 512">
	<path fill="#000000" d="M299 -405Q252 -405 213 -382Q174 -359 151 -320Q128 -281 128 -234.5Q128 -188 151 -149Q174 -110 213 -87Q252 -64 298.5 -64Q345 -64 384 -87Q423 -110 446 -149Q469 -188 469 -234.5Q469 -281 446 -320Q423 -359 384 -382Q345 -405 299 -405ZM299 -363Q333 -363 362.5 -345.5Q392 -328 409.5 -298.5Q427 -269 427 -234.5Q427 -200 409.5 -170.5Q392 -141 363 -124Q334 -107 299 -107Q264 -107 234.5 -124Q205 -141 188 -170.5Q171 -200 171 -234.5Q171 -269 188 -298.5Q205 -328 234.5 -345.5Q264 -363 299 -363ZM105 -324Q76 -300 59.5 -265Q43 -230 43 -192Q43 -146 66 -106.5Q89 -67 128 -44Q167 -21 213 -21Q233 -21 253 -26Q197 -39 153 -79Q122 -96 103.5 -126.5Q85 -157 85 -192Q85 -200 87 -211Q85 -225 85 -235Q85 -281 105 -324Z"/>
</svg>