<svg xmlns="http://www.w3.org/2000/svg" viewBox="0 -512 512 512">
	<path fill="#000000" d="M235 -75Q235 -88 244 -97.5Q253 -107 267 -107Q275 -107 284 -102L443 -193Q431 -215 414 -237Q410 -235 405 -235Q397 -235 390.5 -241Q384 -247 384 -256Q384 -261 388 -268Q332 -327 256 -357Q254 -341 241.5 -330.5Q229 -320 212.5 -320Q196 -320 183.5 -332.5Q171 -345 171 -363Q171 -371 174 -380Q144 -384 117 -384Q110 -384 107 -383V-255Q125 -251 137 -236.5Q149 -222 149 -202.5Q149 -183 137 -168.5Q125 -154 107 -150V0L235 -74ZM299 -256Q316 -256 328.5 -243.5Q341 -231 341 -213.5Q341 -196 328.5 -183.5Q316 -171 298.5 -171Q281 -171 268.5 -183.5Q256 -196 256 -213.5Q256 -231 268.5 -243.5Q281 -256 299 -256ZM192 -107Q183 -107 177 -113Q171 -119 171 -128Q171 -137 177 -143Q183 -149 192 -149Q201 -149 207 -143Q213 -137 213 -128Q213 -119 207 -113Q201 -107 192 -107ZM192 -235Q183 -235 177 -241Q171 -247 171 -256Q171 -265 177 -271Q183 -277 192 -277Q201 -277 207 -271Q213 -265 213 -256Q213 -247 207 -241Q201 -235 192 -235Z"/>
</svg>