<svg xmlns="http://www.w3.org/2000/svg" viewBox="0 -512 512 512">
	<path fill="#000000" d="M75 -412L47 -384L130 -301V-256Q148 -253 160.5 -238Q173 -223 173 -203Q173 -183 161 -168.5Q149 -154 130 -149V0L258 -75Q258 -87 267.5 -97Q277 -107 290 -107Q299 -107 307 -102L322 -111L433 0L461 -28ZM215 -107Q207 -107 200.5 -113.5Q194 -120 194 -128Q194 -136 200.5 -142.5Q207 -149 215 -149Q223 -149 230 -142.5Q237 -136 237 -128Q237 -120 230 -113.5Q223 -107 215 -107ZM294 -245L211 -329Q220 -320 236 -320Q252 -320 264 -331Q276 -342 279 -358Q360 -323 412 -269L410 -266Q407 -261 407 -258Q407 -250 414 -243.5Q421 -237 428 -237Q435 -237 437 -239Q448 -226 465 -196L390 -154L354 -190Q365 -201 365 -218Q365 -235 352.5 -247.5Q340 -260 322 -260Q301 -252 294 -245ZM203 -337L156 -384Q171 -384 196 -380Q194 -373 194 -363Q194 -346 203 -337Z"/>
</svg>