<svg xmlns="http://www.w3.org/2000/svg" viewBox="0 -512 512 512">
	<path fill="#000000" d="M267 -416Q238 -416 215.5 -399Q193 -382 185 -355Q168 -363 149 -363Q114 -363 89 -338Q64 -313 64 -277Q64 -248 82 -225Q100 -202 128 -195V-43H405V-195Q434 -202 451.5 -225Q469 -248 469 -277Q469 -313 444 -338Q419 -363 384 -363Q366 -363 348 -355Q340 -382 317.5 -399Q295 -416 267 -416ZM256 -224H277V-75H256ZM192 -181H213V-75H192ZM320 -181H341V-75H320ZM128 -21V0Q128 9 134 15Q140 21 149 21H384Q393 21 399 15Q405 9 405 0V-21Z"/>
</svg>