<svg xmlns="http://www.w3.org/2000/svg" viewBox="0 -512 512 512">
	<path fill="#000000" d="M235 -281Q216 -288 204 -304.5Q192 -321 192 -341Q192 -368 210.5 -386.5Q229 -405 256 -405Q283 -405 301.5 -386.5Q320 -368 320 -341Q320 -321 308 -304.5Q296 -288 277 -281V-221Q267 -224 256 -224Q245 -224 235 -221ZM390 2Q372 -8 364 -26.5Q356 -45 359 -65L307 -95Q324 -111 329 -132L381 -102Q396 -115 416 -117Q436 -119 454 -109Q477 -95 484 -69.5Q491 -44 477.5 -21Q464 2 438.5 8.5Q413 15 390 2ZM58 -109Q75 -119 95.5 -117Q116 -115 131 -102L183 -132Q188 -110 205 -95L153 -65Q156 -45 147.5 -26.5Q139 -8 122 2Q99 15 73 8.5Q47 2 34 -21Q21 -44 28 -70Q35 -96 58 -109ZM299 -149Q299 -132 286.5 -119.5Q274 -107 256 -107Q238 -107 225.5 -119.5Q213 -132 213 -149.5Q213 -167 225.5 -179.5Q238 -192 256 -192Q274 -192 286.5 -179.5Q299 -167 299 -149ZM363 -149L362 -137L331 -156Q329 -172 320.5 -186.5Q312 -201 299 -211V-247Q327 -235 345 -208.5Q363 -182 363 -149ZM319 -63Q291 -43 255.5 -43Q220 -43 193 -64L224 -82Q239 -75 255.5 -75Q272 -75 288 -82ZM150 -137L149 -149Q149 -182 167 -208.5Q185 -235 213 -247V-211Q200 -201 191.5 -186.5Q183 -172 181 -156Z"/>
</svg>