<svg xmlns="http://www.w3.org/2000/svg" viewBox="0 -512 512 512">
	<path fill="#000000" d="M299 -271L272 -256L235 -277L197 -256L171 -271Q161 -266 155 -256Q149 -246 149 -235V-213Q149 -128 194 -67Q225 -24 276 3Q301 17 320 21V-235Q320 -246 314 -256Q308 -266 299 -271ZM277 -45Q243 -68 222 -102Q194 -146 192 -204L235 -228L277 -204ZM197 -288L165 -307Q183 -338 212 -348Q210 -354 204.5 -358.5Q199 -363 192 -363V-405Q216 -405 234 -389Q252 -373 255 -349Q286 -339 304 -307L272 -288L235 -309ZM405 -299V-171H363V-299ZM363 -128H405V-85H363Z"/>
</svg>