<svg xmlns="http://www.w3.org/2000/svg" viewBox="0 -512 512 512">
	<path fill="#000000" d="M233 -348Q231 -354 225.5 -358.5Q220 -363 213 -363V-405Q238 -405 256 -389V-363Q263 -363 268.5 -358.5Q274 -354 276 -348Q258 -342 244.5 -327Q231 -312 223 -292L189 -311Q206 -338 233 -348ZM213 -213Q213 -238 226 -258L198 -274Q185 -269 178 -258.5Q171 -248 171 -235V-213Q171 -115 229 -50Q266 -8 321 14Q273 -23 246 -74Q213 -136 213 -213ZM191 -348Q189 -354 183.5 -358.5Q178 -363 171 -363V-389Q153 -405 128 -405V-363Q135 -363 140.5 -358.5Q146 -354 148 -348Q121 -338 104 -311L137 -292Q145 -312 159 -327Q173 -342 191 -348ZM128 -213Q128 -238 141 -258L112 -274Q100 -269 92.5 -258.5Q85 -248 85 -235V-213Q85 -115 143 -50Q181 -8 235 14Q188 -23 161 -74Q128 -136 128 -213ZM427 -235V21L409 15Q387 7 367 -6Q338 -24 316 -48Q289 -78 274 -115Q256 -160 256 -213V-235Q256 -246 262 -256Q268 -266 277 -271L304 -256L341 -277L379 -256L405 -271Q415 -266 421 -256Q427 -246 427 -235ZM384 -45V-204L341 -228L299 -204Q301 -146 329 -102Q350 -68 384 -45ZM272 -307L304 -288L341 -309L379 -288L411 -307Q392 -339 362 -349Q359 -373 341 -389Q323 -405 299 -405V-363Q306 -363 311 -358.5Q316 -354 319 -348Q289 -338 272 -307Z"/>
</svg>