<svg xmlns="http://www.w3.org/2000/svg" viewBox="0 -512 512 512">
	<path fill="#000000" d="M320 -271Q330 -266 335.5 -256Q341 -246 341 -235V-175L245 -271L256 -277L293 -256ZM256 -309L293 -288L326 -307Q307 -339 277 -349Q274 -373 256 -389Q238 -405 213 -405V-363Q220 -363 225.5 -358.5Q231 -354 233 -348Q212 -341 196 -321L225 -291ZM472 10L445 37L341 -66V21L324 15Q302 7 281 -6Q253 -24 231 -48Q203 -78 188 -115Q171 -160 171 -213V-237L24 -384L51 -411ZM299 -109L215 -193Q219 -139 246 -99Q266 -67 299 -45Z"/>
</svg>