<svg xmlns="http://www.w3.org/2000/svg" viewBox="0 -512 512 512">
	<path fill="#000000" d="M180 -292L146 -311Q163 -338 191 -348Q189 -354 183.5 -358.5Q178 -363 171 -363V-405Q195 -405 213 -389V-363Q220 -363 225.5 -358.5Q231 -354 233 -348Q216 -342 202 -327Q188 -312 180 -292ZM171 -213Q171 -238 183 -258L155 -274Q143 -269 135.5 -258.5Q128 -248 128 -235V-213Q128 -115 186 -50Q223 -8 278 14Q231 -23 203 -74Q171 -136 171 -213ZM363 -271L336 -256L299 -277L261 -256L235 -271Q225 -266 219 -256Q213 -246 213 -235V-213Q213 -160 231 -115Q246 -78 273 -48Q295 -24 324 -6Q344 7 366 15L384 21V-235Q384 -246 378 -256Q372 -266 363 -271ZM229 -307L261 -288L299 -309L336 -288L368 -307Q350 -339 319 -349Q316 -373 298 -389Q280 -405 256 -405V-363Q263 -363 268.5 -358.5Q274 -354 276 -348Q247 -338 229 -307Z"/>
</svg>