<svg xmlns="http://www.w3.org/2000/svg" viewBox="0 -512 512 512">
	<path fill="#000000" d="M384 -187V-256L277 -309V-341H320V-384H277V-427H235V-384H192V-341H235V-309L128 -256V-187L43 -149V21H235V-64Q235 -73 241 -79Q247 -85 256 -85Q265 -85 271 -79Q277 -73 277 -64V21H469V-149ZM427 -21H320V-65Q320 -92 301 -111Q282 -130 256 -130Q230 -130 211 -111Q192 -92 192 -65V-21H85V-124L171 -162V-234L256 -277L341 -234V-162L427 -124ZM256 -224Q269 -224 278.5 -214.5Q288 -205 288 -192Q288 -179 278.5 -169.5Q269 -160 256 -160Q243 -160 233.5 -169.5Q224 -179 224 -192Q224 -205 233.5 -214.5Q243 -224 256 -224Z"/>
</svg>