<svg xmlns="http://www.w3.org/2000/svg" viewBox="0 -512 512 512">
	<path fill="#000000" d="M445 37L386 -21H384V-24L363 -45V-21H256V-48Q266 -54 272 -64Q280 -79 275.5 -96Q271 -113 256 -122V-149H258L24 -384L51 -411L472 10ZM309 -241H341Q358 -242 370.5 -230Q383 -218 384 -201V-171H416V-206Q415 -235 393.5 -254.5Q372 -274 342 -273H309Q293 -274 281.5 -286.5Q270 -299 270 -315Q270 -331 281.5 -342Q293 -353 308 -353H309V-384Q280 -384 259 -363Q238 -342 238 -312.5Q238 -283 259 -262Q280 -241 309 -241ZM437 -220V-218V-171H469V-218Q469 -253 451 -282Q433 -311 402 -326H401Q413 -337 418.5 -352.5Q424 -368 422 -384H391Q391 -380 391 -377Q391 -360 379.5 -348.5Q368 -337 352 -337V-305Q387 -305 412 -280Q437 -255 437 -220ZM198 -107Q204 -116 213 -122V-149H107Q80 -149 61.5 -130.5Q43 -112 43 -85.5Q43 -59 62 -40Q81 -21 107 -21H213V-48Q198 -57 193.5 -74Q189 -91 198 -107ZM384 -132L416 -100V-149H384ZM437 -79L469 -47V-149H437ZM235 -107Q226 -107 219.5 -100.5Q213 -94 213 -85.5Q213 -77 219.5 -70.5Q226 -64 234.5 -64Q243 -64 249.5 -70.5Q256 -77 256 -85.5Q256 -94 249.5 -100.5Q243 -107 235 -107Z"/>
</svg>