<svg xmlns="http://www.w3.org/2000/svg" viewBox="0 -512 512 512">
	<path fill="#000000" d="M341 -230H309Q293 -232 281.5 -244Q270 -256 270 -272.5Q270 -289 281.5 -300Q293 -311 309 -310V-341Q280 -341 259 -320Q238 -299 238 -269.5Q238 -240 259 -219Q280 -198 309 -198H341Q359 -199 372 -186.5Q385 -174 384 -156V-128H416V-163Q415 -193 393 -212.5Q371 -232 341 -230ZM401 -283Q417 -298 421.5 -319.5Q426 -341 418 -361Q410 -381 392 -393Q374 -405 352 -405V-373Q368 -373 379.5 -361.5Q391 -350 391 -334Q391 -318 379.5 -306Q368 -294 352 -294V-262Q388 -262 413 -236.5Q438 -211 437 -176V-128H469V-176Q469 -210 451 -239Q433 -268 402 -283ZM384 -107V21H416V-107ZM437 -107V21H469V-107ZM256 -107V-80Q266 -74 271.5 -64Q277 -54 277 -42.5Q277 -31 271.5 -21Q266 -11 256 -6V21H363V-107ZM61 -88Q48 -74 44 -55Q40 -36 47.5 -18Q55 0 71 10.5Q87 21 107 21H213V-6Q203 -11 197.5 -21Q192 -31 192 -42.5Q192 -54 197.5 -64Q203 -74 213 -80V-107H107Q80 -107 61 -88ZM256 -43Q256 -36 252.5 -30.5Q249 -25 243 -22.5Q237 -20 230.5 -21.5Q224 -23 219.5 -27.5Q215 -32 213.5 -38.5Q212 -45 214.5 -51Q217 -57 222.5 -60.5Q228 -64 235 -64Q244 -64 250 -58Q256 -52 256 -43Z"/>
</svg>