<svg xmlns="http://www.w3.org/2000/svg" viewBox="0 -512 512 512">
	<path fill="#000000" d="M384 -235V-277H427V-235ZM384 -192V-235H341V-192ZM384 -277V-320H341V-277ZM341 -387V-363H384Q363 -378 341 -387ZM384 -363V-320H427Q408 -344 384 -363ZM427 -320V-277H451Q442 -299 427 -320ZM469 -192Q469 -213 465 -235H427V-192ZM341 -320V-363H299V-320ZM341 -107H384V-149H341ZM384 -64H427V-107H384ZM341 -21H384V-64H341ZM299 17Q320 13 341 3V-21H299ZM384 -149H427V-192H384ZM341 -277H299V-235H341ZM427 -107H451Q461 -128 465 -149H427ZM341 -192H299V-149H341ZM256 -64V-107H299V-149H256V-192H299V-235H256V-277H299V-320H256V-363H299V-401Q277 -405 256 -405Q198 -405 149 -376.5Q100 -348 71.5 -299Q43 -250 43 -192Q43 -134 71.5 -85Q100 -36 149 -7.5Q198 21 256 21V-21H299V-64ZM299 -64H341V-107H299Z"/>
</svg>