<svg xmlns="http://www.w3.org/2000/svg" viewBox="0 -512 512 512">
	<path fill="#000000" d="M277 -213Q286 -213 292.5 -207Q299 -201 299 -192Q299 -183 292.5 -177Q286 -171 277 -171Q268 -171 262 -177Q256 -183 256 -192Q256 -201 262 -207Q268 -213 277 -213ZM168 -315Q189 -337 217 -350Q245 -363 277 -363Q314 -363 346 -346Q378 -329 399 -299.5Q420 -270 425 -235H469V-192H341Q341 -219 322.5 -237.5Q304 -256 277.5 -256Q251 -256 232 -237.5Q213 -219 213 -192H43V-235H44Q50 -307 96 -363ZM144 -280L108 -304Q90 -271 87 -235H129Q133 -259 144 -280ZM158 -119L128 -149H252Q255 -143 262 -138.5Q269 -134 277 -134Q285 -134 292 -138.5Q299 -143 303 -149H427V-119Q411 -129 403 -127Q397 -125 395 -119L394 -112V-70L352 -28Q345 -52 333 -51Q327 -50 322 -45L292 -15H233Q246 -36 237 -44Q232 -48 225 -48H183L141 -90Q165 -96 164 -108Q163 -115 158 -119Z"/>
</svg>