<svg xmlns="http://www.w3.org/2000/svg" viewBox="0 -512 512 512">
	<path fill="#000000" d="M341 -363L427 -277V-363ZM427 -107L341 -21H427ZM171 -21L85 -107V-21ZM85 -277L171 -363H85ZM362 -298Q333 -326 294.5 -336Q256 -346 217.5 -336Q179 -326 150.5 -297.5Q122 -269 112 -230.5Q102 -192 112 -153.5Q122 -115 150.5 -86.5Q179 -58 217.5 -48Q256 -38 294.5 -48Q333 -58 361.5 -86.5Q390 -115 400 -153.5Q410 -192 400 -230.5Q390 -269 362 -298ZM338 -110Q316 -87 286 -79.5Q256 -72 226 -79.5Q196 -87 173.5 -109.5Q151 -132 143.5 -162Q136 -192 143.5 -222Q151 -252 173.5 -274.5Q196 -297 226 -304.5Q256 -312 286 -304.5Q316 -297 338.5 -274.5Q361 -252 368.5 -222Q376 -192 368.5 -162Q361 -132 338 -110Z"/>
</svg>