<svg xmlns="http://www.w3.org/2000/svg" viewBox="0 -512 512 512">
	<path fill="#000000" d="M472 10L51 -411L24 -384L87 -321Q66 -294 54.5 -261Q43 -228 43 -192Q43 -134 71.5 -85Q100 -36 149 -7.5Q198 21 256 21Q328 21 385 -23L445 37ZM256 -21Q210 -21 170.5 -44Q131 -67 108 -106.5Q85 -146 85 -192Q85 -246 117 -291L355 -53Q311 -21 256 -21ZM174 -342L143 -373Q195 -405 256 -405Q314 -405 363 -376.5Q412 -348 440.5 -299Q469 -250 469 -192Q469 -131 437 -79L406 -110Q427 -148 427 -192Q427 -238 404 -277.5Q381 -317 341.5 -340Q302 -363 256 -363Q212 -363 174 -342Z"/>
</svg>