<svg xmlns="http://www.w3.org/2000/svg" viewBox="0 -512 512 512">
	<path fill="#000000" d="M405 -256V-299Q405 -316 392.5 -328.5Q380 -341 363 -341H341V-405H299V-341H277Q260 -341 247.5 -328.5Q235 -316 235 -299V-256Q217 -256 204.5 -243.5Q192 -231 192 -213V-192H107Q89 -192 76.5 -179.5Q64 -167 64 -149V21H128V-21H171V21H256V-21H299V21H341V-21H384V21H448V-213Q448 -231 435.5 -243.5Q423 -256 405 -256ZM171 -64H128V-107H171ZM299 -64H256V-107H299ZM299 -149H256V-192H299ZM277 -256V-299H363V-256ZM384 -64H341V-107H384ZM384 -149H341V-192H384Z"/>
</svg>