<svg xmlns="http://www.w3.org/2000/svg" viewBox="0 -512 512 512">
	<path fill="#000000" d="M320 43H277V0H320ZM405 0H363V43H405ZM320 -85H277V-43H320ZM149 0H107V43H149ZM149 -85H107V-43H149ZM405 -85H363V-43H405ZM320 -171H277V-128H320ZM405 -171H363V-128H405ZM448 -256Q466 -256 478.5 -243.5Q491 -231 491 -213V43H448V-213H235V43H192V-128H64V43H21V-128Q21 -146 33.5 -158.5Q46 -171 64 -171H192V-213Q192 -231 204.5 -243.5Q217 -256 235 -256V-299Q235 -316 247.5 -328.5Q260 -341 277 -341H320V-427H363V-341H405Q423 -341 435.5 -328.5Q448 -316 448 -299ZM405 -256V-299H277V-256Z"/>
</svg>