<svg xmlns="http://www.w3.org/2000/svg" viewBox="0 -512 512 512">
	<path fill="#000000" d="M405 -384Q423 -384 435.5 -371.5Q448 -359 448 -341V-43Q448 -25 435.5 -12.5Q423 0 405 0H107Q89 0 76.5 -12.5Q64 -25 64 -43V-341Q64 -359 76.5 -371.5Q89 -384 107 -384H196Q203 -403 219.5 -415Q236 -427 256 -427Q276 -427 292.5 -415Q309 -403 316 -384ZM256 -384Q247 -384 241 -378Q235 -372 235 -363Q235 -354 241 -347.5Q247 -341 256 -341Q265 -341 271 -347.5Q277 -354 277 -363Q277 -372 271 -378Q265 -384 256 -384ZM149 -299V-341H107V-43H405V-341H363V-299ZM149 -171L256 -64V-128H341V-213H256V-277Z"/>
</svg>