<svg xmlns="http://www.w3.org/2000/svg" viewBox="0 -512 512 512">
	<path fill="#000000" d="M427 -384H358Q352 -403 335.5 -415Q319 -427 298.5 -427Q278 -427 261.5 -415Q245 -403 239 -384H171Q153 -384 140.5 -371.5Q128 -359 128 -341V-85Q128 -68 140.5 -55.5Q153 -43 171 -43H427Q444 -43 456.5 -55.5Q469 -68 469 -85V-341Q469 -359 456.5 -371.5Q444 -384 427 -384ZM299 -384Q308 -384 314 -377.5Q320 -371 320 -363Q320 -355 313.5 -348Q307 -341 299 -341Q291 -341 284 -348Q277 -355 277 -363Q277 -371 283 -377.5Q289 -384 299 -384ZM341 -149H192V-192H341ZM405 -235H192V-277H405ZM85 0H384V43H85Q68 43 55.5 30.5Q43 18 43 0V-299H85Z"/>
</svg>