<svg xmlns="http://www.w3.org/2000/svg" viewBox="0 -512 512 512">
	<path fill="#000000" d="M405 -384Q423 -384 435.5 -371.5Q448 -359 448 -341V-163Q428 -171 405 -171Q371 -171 341.5 -153.5Q312 -136 294.5 -106.5Q277 -77 277 -43Q277 -20 285 0H107Q89 0 76.5 -12.5Q64 -25 64 -43V-341Q64 -359 76.5 -371.5Q89 -384 107 -384H196Q207 -413 235 -422Q259 -431 283 -420Q307 -409 316 -384ZM256 -384Q247 -384 241 -378Q235 -372 235 -363Q235 -354 241 -347.5Q247 -341 256 -341Q265 -341 271 -347.5Q277 -354 277 -363Q277 -372 271 -378Q265 -384 256 -384ZM235 -85V-128H149V-85ZM277 -171V-213H149V-171ZM363 -256V-299H149V-256ZM363 -107L469 -43L363 21Z"/>
</svg>