<svg xmlns="http://www.w3.org/2000/svg" viewBox="0 -512 512 512">
	<path fill="#000000" d="M85 0H384V43H85Q68 43 55.5 30.5Q43 18 43 0V-299H85ZM469 -341V-85Q469 -68 456.5 -55.5Q444 -43 427 -43H171Q153 -43 140.5 -55.5Q128 -68 128 -85V-341Q128 -359 140.5 -371.5Q153 -384 171 -384H239Q245 -403 261.5 -415Q278 -427 298.5 -427Q319 -427 335.5 -415Q352 -403 358 -384H427Q444 -384 456.5 -371.5Q469 -359 469 -341ZM277 -363Q277 -355 284 -348Q291 -341 299 -341Q307 -341 313.5 -348Q320 -355 320 -363Q320 -371 314 -377.5Q308 -384 298.5 -384Q289 -384 283 -377.5Q277 -371 277 -363ZM363 -192L256 -277V-107Z"/>
</svg>