<svg xmlns="http://www.w3.org/2000/svg" viewBox="0 -512 512 512">
	<path fill="#000000" d="M320 -117Q320 -95 304.5 -79.5Q289 -64 267 -64Q245 -64 229 -79.5Q213 -95 213 -117V-155Q213 -161 218 -166Q223 -171 229.5 -171Q236 -171 240.5 -166Q245 -161 245 -155V-117Q245 -108 251.5 -102Q258 -96 267 -96Q276 -96 282 -102Q288 -108 288 -117V-194Q274 -199 265 -210Q256 -221 256 -235Q256 -252 270 -264.5Q284 -277 304 -277Q324 -277 338 -264.5Q352 -252 352 -235Q352 -221 343 -210Q334 -199 320 -194ZM176 -277Q196 -277 210 -264.5Q224 -252 224 -235Q224 -221 215 -210Q206 -199 192 -194V-80Q192 -51 212.5 -31Q233 -11 261.5 -11Q290 -11 310.5 -31Q331 -51 331 -80V-155Q331 -161 335.5 -166Q340 -171 346.5 -171Q353 -171 358 -166Q363 -161 363 -155V-80Q363 -60 355 -41.5Q347 -23 333 -8.5Q319 6 300 13.5Q281 21 261 21Q241 21 222.5 13.5Q204 6 189.5 -8.5Q175 -23 167.5 -41.5Q160 -60 160 -80V-194Q146 -199 137 -210Q128 -221 128 -235Q128 -252 142 -264.5Q156 -277 176 -277ZM215 -317L205 -286Q192 -293 177 -293Q162 -293 149.5 -287.5Q137 -282 129 -272L103 -291Q124 -318 160 -324V-325Q160 -358 183.5 -381.5Q207 -405 240 -405Q273 -405 296.5 -381.5Q320 -358 320 -325V-324Q356 -318 377 -291L351 -272Q343 -282 330.5 -287.5Q318 -293 303 -293Q288 -293 275 -286L265 -317Q279 -323 288 -324V-325Q288 -345 274 -359Q260 -373 240 -373Q220 -373 206 -359Q192 -345 192 -325V-324Q201 -323 215 -317ZM304 -251Q295 -251 289 -246Q283 -241 283 -234.5Q283 -228 289 -223.5Q295 -219 304 -219Q313 -219 319 -223.5Q325 -228 325 -234.5Q325 -241 319 -246Q313 -251 304 -251ZM176 -251Q167 -251 161 -246Q155 -241 155 -234.5Q155 -228 161 -223.5Q167 -219 176 -219Q185 -219 191 -223.5Q197 -228 197 -234.5Q197 -241 191 -246Q185 -251 176 -251Z"/>
</svg>