<svg xmlns="http://www.w3.org/2000/svg" viewBox="0 -512 512 512">
	<path fill="#000000" d="M405 -384H316Q309 -403 292.5 -415Q276 -427 256 -427Q236 -427 219.5 -415Q203 -403 196 -384H107Q89 -384 76.5 -371.5Q64 -359 64 -341V-43Q64 -25 76.5 -12.5Q89 0 107 0H405Q423 0 435.5 -12.5Q448 -25 448 -43V-341Q448 -359 435.5 -371.5Q423 -384 405 -384ZM256 -384Q265 -384 271 -377.5Q277 -371 277 -362.5Q277 -354 271 -347.5Q265 -341 256 -341Q247 -341 241 -347.5Q235 -354 235 -362.5Q235 -371 241 -377.5Q247 -384 256 -384ZM405 -43H107V-341H149V-299H363V-341H405ZM171 -192H341V-149H171Z"/>
</svg>