<svg xmlns="http://www.w3.org/2000/svg" viewBox="0 -512 512 512">
	<path fill="#000000" d="M384 -43H128V-73Q128 -92 152 -109Q172 -122 204 -131Q233 -139 256 -139Q279 -139 308 -131Q340 -122 360 -109Q384 -92 384 -73ZM256 -299Q283 -299 301.5 -280Q320 -261 320 -234.5Q320 -208 301.5 -189.5Q283 -171 256 -171Q229 -171 210.5 -189.5Q192 -208 192 -234.5Q192 -261 210.5 -280Q229 -299 256 -299ZM256 -384Q265 -384 271 -378Q277 -372 277 -363Q277 -354 271 -347.5Q265 -341 256 -341Q247 -341 241 -347.5Q235 -354 235 -363Q235 -372 241 -378Q247 -384 256 -384ZM405 -384H316Q309 -403 292.5 -415Q276 -427 256 -427Q236 -427 219.5 -415Q203 -403 196 -384H107Q89 -384 76.5 -371.5Q64 -359 64 -341V-43Q64 -25 76.5 -12.5Q89 0 107 0H405Q423 0 435.5 -12.5Q448 -25 448 -43V-341Q448 -359 435.5 -371.5Q423 -384 405 -384Z"/>
</svg>