<svg xmlns="http://www.w3.org/2000/svg" viewBox="0 -512 512 512">
	<path fill="#000000" d="M448 -211V-341Q448 -359 435.5 -371.5Q423 -384 405 -384H316Q309 -403 292.5 -415Q276 -427 256 -427Q236 -427 219.5 -415Q203 -403 196 -384H107Q89 -384 76.5 -371.5Q64 -359 64 -341V-43Q64 -25 76.5 -12.5Q89 0 107 0H237Q258 20 284.5 31.5Q311 43 341 43Q382 43 416.5 23Q451 3 471 -31.5Q491 -66 491 -107Q491 -137 479.5 -163.5Q468 -190 448 -211ZM256 -384Q265 -384 271 -377.5Q277 -371 277 -362.5Q277 -354 271 -347.5Q265 -341 256 -341Q247 -341 241 -347.5Q235 -354 235 -362.5Q235 -371 241 -377.5Q247 -384 256 -384ZM107 -43V-341H149V-299H363V-341H405V-241Q375 -256 341 -256Q301 -256 266.5 -236Q232 -216 212 -181.5Q192 -147 192 -107Q192 -73 207 -43ZM341 0Q312 0 287.5 -14.5Q263 -29 249 -53.5Q235 -78 235 -107Q235 -136 249 -160.5Q263 -185 287.5 -199Q312 -213 341 -213Q370 -213 394.5 -199Q419 -185 433.5 -160.5Q448 -136 448 -107Q448 -78 433.5 -53.5Q419 -29 394.5 -14.5Q370 0 341 0ZM352 -101L413 -65L397 -39L320 -85V-192H352Z"/>
</svg>