<svg xmlns="http://www.w3.org/2000/svg" viewBox="0 -512 512 512">
	<path fill="#000000" d="M405 -384H316Q307 -409 283 -420Q259 -431 235 -422Q207 -413 196 -384H107Q89 -384 76.5 -371.5Q64 -359 64 -341V-43Q64 -25 76.5 -12.5Q89 0 107 0H405Q423 0 435.5 -12.5Q448 -25 448 -43V-341Q448 -359 435.5 -371.5Q423 -384 405 -384ZM256 -384Q265 -384 271 -378Q277 -372 277 -363Q277 -354 271 -347.5Q265 -341 256 -341Q247 -341 241 -347.5Q235 -354 235 -363Q235 -372 241 -378Q247 -384 256 -384ZM149 -299H363V-341H405V-43H107V-341H149ZM213 -85V-256L320 -171Z"/>
</svg>