<svg xmlns="http://www.w3.org/2000/svg" viewBox="0 -512 512 512">
	<path fill="#000000" d="M405 -384Q423 -384 435.5 -371.5Q448 -359 448 -341V-252L423 -277H320Q285 -277 260 -252Q235 -227 235 -192V0H107Q89 0 76.5 -12.5Q64 -25 64 -43V-341Q64 -359 76.5 -371.5Q89 -384 107 -384H196Q203 -403 219.5 -415Q236 -427 256 -427Q276 -427 292.5 -415Q309 -403 316 -384ZM256 -384Q247 -384 241 -377.5Q235 -371 235 -362.5Q235 -354 241 -347.5Q247 -341 256 -341Q265 -341 271 -347.5Q277 -354 277 -362.5Q277 -371 271 -377.5Q265 -384 256 -384ZM320 43Q302 43 289.5 30.5Q277 18 277 0V-192Q277 -210 289.5 -222.5Q302 -235 320 -235H405L491 -149V0Q491 18 478.5 30.5Q466 43 448 43ZM448 -132L388 -192H384V-128H448Z"/>
</svg>