<svg xmlns="http://www.w3.org/2000/svg" viewBox="0 -512 512 512">
	<path fill="#000000" d="M449 -189Q453 -189 457 -186L484 -158Q488 -155 488 -150Q488 -145 484 -142L463 -121L419 -164L441 -186Q444 -189 449 -189ZM407 -152L451 -108L321 21H277V-23ZM235 -43L192 0H107Q89 0 76.5 -12.5Q64 -25 64 -43V-341Q64 -359 76.5 -371.5Q89 -384 107 -384H196Q203 -403 219.5 -415Q236 -427 256 -427Q276 -427 292.5 -415Q309 -403 316 -384H405Q423 -384 435.5 -371.5Q448 -359 448 -341V-256L405 -213V-341H363V-299H149V-341H107V-43ZM256 -384Q247 -384 241 -377.5Q235 -371 235 -362.5Q235 -354 241 -347.5Q247 -341 256 -341Q265 -341 271 -347.5Q277 -354 277 -362.5Q277 -371 271 -377.5Q265 -384 256 -384Z"/>
</svg>