<svg xmlns="http://www.w3.org/2000/svg" viewBox="0 -512 512 512">
	<path fill="#000000" d="M363 -256H352ZM149 -128H213Q216 -152 224 -171H149ZM254 -215Q274 -235 299.5 -245.5Q325 -256 352 -256H149V-213H252ZM254 -19Q264 -9 279 0H107Q89 0 76.5 -12.5Q64 -25 64 -43V-341Q64 -359 76.5 -371.5Q89 -384 107 -384H196Q207 -413 235 -422Q259 -431 283 -420Q307 -409 316 -384H405Q423 -384 435.5 -371.5Q448 -359 448 -341V-217Q429 -235 405 -245V-341H363V-299H149V-341H107V-43H235Q243 -31 254 -19ZM235 -363Q235 -354 241 -347.5Q247 -341 256 -341Q265 -341 271 -347.5Q277 -354 277 -362.5Q277 -371 271 -377.5Q265 -384 256 -384Q247 -384 241 -377.5Q235 -371 235 -363ZM499 0L469 30L403 -36Q379 -21 352 -21Q312 -21 284 -49Q256 -77 256 -117Q256 -157 284 -185Q312 -213 352 -213Q392 -213 420 -185Q448 -157 448 -117Q448 -89 433 -66ZM405 -117Q405 -139 389.5 -155Q374 -171 352 -171Q330 -171 314.5 -155Q299 -139 299 -117Q299 -95 314.5 -79.5Q330 -64 352 -64Q374 -64 389.5 -79.5Q405 -95 405 -117Z"/>
</svg>