<svg xmlns="http://www.w3.org/2000/svg" viewBox="0 -512 512 512">
	<path fill="#000000" d="M352 -101L413 -65L397 -39L320 -85V-192H352ZM491 -107Q491 -66 471 -31.5Q451 3 416.5 23Q382 43 341 43Q311 43 284.5 31.5Q258 20 237 0H107Q89 0 76.5 -12.5Q64 -25 64 -43V-341Q64 -359 76.5 -371.5Q89 -384 107 -384H196Q203 -403 219.5 -415Q236 -427 256 -427Q276 -427 292.5 -415Q309 -403 316 -384H405Q423 -384 435.5 -371.5Q448 -359 448 -341V-211Q468 -190 479.5 -163.5Q491 -137 491 -107ZM235 -363Q235 -354 241 -347.5Q247 -341 256 -341Q265 -341 271 -347.5Q277 -354 277 -362.5Q277 -371 271 -377.5Q265 -384 256 -384Q247 -384 241 -377.5Q235 -371 235 -363ZM448 -107Q448 -136 433.5 -160.5Q419 -185 394.5 -199Q370 -213 341 -213Q312 -213 287.5 -199Q263 -185 249 -160.5Q235 -136 235 -107Q235 -78 249 -53.5Q263 -29 287.5 -14.5Q312 0 341 0Q370 0 394.5 -14.5Q419 -29 433.5 -53.5Q448 -78 448 -107Z"/>
</svg>