<svg xmlns="http://www.w3.org/2000/svg" viewBox="0 -512 512 512">
	<path fill="#000000" d="M51 -411L24 -384L64 -343V-43Q64 -25 76.5 -12.5Q89 0 107 0H407L445 37L472 10ZM107 -43V-301L365 -43ZM363 -299V-341H405V-111L448 -68V-341Q448 -359 435.5 -371.5Q423 -384 405 -384H316Q309 -403 292.5 -415Q276 -427 256 -427Q236 -427 219.5 -415Q203 -403 196 -384H132L218 -299ZM256 -384Q265 -384 271 -377.5Q277 -371 277 -362.5Q277 -354 271 -347.5Q265 -341 256 -341Q247 -341 241 -347.5Q235 -354 235 -362.5Q235 -371 241 -377.5Q247 -384 256 -384Z"/>
</svg>