<svg xmlns="http://www.w3.org/2000/svg" viewBox="0 -512 512 512">
	<path fill="#000000" d="M235 -43H107V-341H149V-299H363V-341H405V-245Q429 -235 448 -217V-341Q448 -359 435.5 -371.5Q423 -384 405 -384H316Q309 -403 292.5 -415Q276 -427 256 -427Q236 -427 219.5 -415Q203 -403 196 -384H107Q89 -384 76.5 -371.5Q64 -359 64 -341V-43Q64 -25 76.5 -12.5Q89 0 107 0H279Q264 -9 253.5 -20Q243 -31 235 -43ZM256 -384Q265 -384 271 -377.5Q277 -371 277 -362.5Q277 -354 271 -347.5Q265 -341 256 -341Q247 -341 241 -347.5Q235 -354 235 -362.5Q235 -371 241 -377.5Q247 -384 256 -384ZM433 -66Q448 -89 448 -117Q448 -157 420 -185Q392 -213 352 -213Q312 -213 284 -185Q256 -157 256 -117Q256 -77 284 -49Q312 -21 352 -21Q379 -21 403 -36L469 30L499 0ZM352 -64Q330 -64 314.5 -79.5Q299 -95 299 -117Q299 -139 314.5 -155Q330 -171 352 -171Q374 -171 389.5 -155Q405 -139 405 -117Q405 -95 389.5 -79.5Q374 -64 352 -64Z"/>
</svg>