<svg xmlns="http://www.w3.org/2000/svg" viewBox="0 -512 512 512">
	<path fill="#000000" d="M85 -299V0H384V43H85Q68 43 55.5 30.5Q43 18 43 0V-299ZM427 -384Q444 -384 456.5 -371.5Q469 -359 469 -341V-85Q469 -68 456.5 -55.5Q444 -43 427 -43H171Q153 -43 140.5 -55.5Q128 -68 128 -85V-341Q128 -359 140.5 -371.5Q153 -384 171 -384H239Q245 -403 261.5 -415Q278 -427 298.5 -427Q319 -427 335.5 -415Q352 -403 358 -384ZM299 -384Q289 -384 283 -377.5Q277 -371 277 -362.5Q277 -354 283 -347.5Q289 -341 298.5 -341Q308 -341 314 -347Q320 -353 320 -362.5Q320 -372 314 -378Q308 -384 299 -384ZM213 -299V-341H171V-85H427V-341H384V-299ZM256 -128V-256L363 -192Z"/>
</svg>