<svg xmlns="http://www.w3.org/2000/svg" viewBox="0 -512 512 512">
	<path fill="#000000" d="M43 -320Q25 -320 12.5 -307.5Q0 -295 0 -277V-107Q0 -89 12.5 -76.5Q25 -64 43 -64H469Q487 -64 499.5 -76.5Q512 -89 512 -107V-277Q512 -295 499.5 -307.5Q487 -320 469 -320ZM43 -277H469V-107H43ZM64 -256V-224H133L64 -128H101L171 -224V-256ZM197 -256V-224H229V-256ZM256 -256V-224H288V-128H320V-256ZM363 -256Q354 -256 347.5 -250Q341 -244 341 -235V-149Q341 -140 347.5 -134Q354 -128 363 -128H427Q436 -128 442 -134Q448 -140 448 -149V-235Q448 -244 442 -250Q436 -256 427 -256ZM373 -224H416V-160H373ZM197 -160V-128H229V-160Z"/>
</svg>