<svg xmlns="http://www.w3.org/2000/svg" viewBox="0 -512 512 512">
	<path fill="#000000" d="M448 -169Q444 -169 439 -164L418 -143L463 -98L484 -119Q487 -123 487 -128Q487 -133 484 -137L457 -164Q452 -169 448 -169ZM407 -130L277 -2V43H322L452 -87ZM267 -299V-188L352 -137L331 -115L235 -171V-299ZM235 19Q181 14 137 -15.5Q93 -45 68 -91.5Q43 -138 43 -192Q43 -250 71.5 -299Q100 -348 149 -376.5Q198 -405 255 -405Q312 -405 359 -379Q406 -353 435.5 -307.5Q465 -262 469 -207Q457 -211 448 -211Q439 -211 427 -207Q422 -250 398.5 -285.5Q375 -321 337.5 -342Q300 -363 255 -363Q210 -363 170.5 -340Q131 -317 108 -277.5Q85 -238 85 -192Q85 -149 105 -112Q125 -75 160 -51.5Q195 -28 237 -23L235 -19Z"/>
</svg>