<svg xmlns="http://www.w3.org/2000/svg" viewBox="0 -512 512 512">
	<path fill="#000000" d="M501 -85L395 21L320 -53L352 -85L395 -43L469 -117ZM279 -23Q271 -21 256 -21Q210 -21 170.5 -44Q131 -67 108 -106.5Q85 -146 85 -192Q85 -238 108 -277.5Q131 -317 170.5 -340Q210 -363 256 -363Q302 -363 341.5 -340Q381 -317 404 -277.5Q427 -238 427 -192Q427 -177 425 -169Q445 -166 465 -156L466 -161Q469 -181 469 -192Q469 -250 440.5 -299Q412 -348 363 -376.5Q314 -405 256 -405Q198 -405 149 -376.5Q100 -348 71.5 -299Q43 -250 43 -192Q43 -134 71.5 -85Q100 -36 149 -7.5Q198 21 256 21Q271 21 292 17Q283 2 279 -23ZM333 -147L267 -186V-299H235V-171L309 -126Q316 -134 333 -147Z"/>
</svg>