<svg xmlns="http://www.w3.org/2000/svg" viewBox="0 -512 512 512">
	<path fill="#000000" d="M47 -431L17 -401L102 -316L64 -277H171V-384L132 -346ZM256 -277Q215 -277 181 -257Q147 -237 127 -203Q107 -169 107 -128Q107 -87 127 -53Q147 -19 181 1Q215 21 256 21Q297 21 331 1Q365 -19 385 -53Q405 -87 405 -128Q405 -169 385 -203Q365 -237 331 -257Q297 -277 256 -277ZM256 -231Q284 -231 308 -217.5Q332 -204 345.5 -180Q359 -156 359 -128Q359 -107 351.5 -88Q344 -69 329.5 -54.5Q315 -40 296 -32.5Q277 -25 256 -25Q228 -25 204 -38.5Q180 -52 166.5 -76Q153 -100 153 -128Q153 -149 160.5 -168Q168 -187 182.5 -201.5Q197 -216 216 -223.5Q235 -231 256 -231ZM235 -192V-113L303 -74L319 -102L267 -132V-192Z"/>
</svg>