<svg xmlns="http://www.w3.org/2000/svg" viewBox="0 -512 512 512">
	<path fill="#000000" d="M256 -427Q216 -427 181.5 -406.5Q147 -386 127 -352Q107 -318 107 -277.5Q107 -237 127 -202.5Q147 -168 181 -148Q215 -128 256 -128Q297 -128 331 -148Q365 -168 385 -202.5Q405 -237 405 -277.5Q405 -318 385 -352Q365 -386 330.5 -406.5Q296 -427 256 -427ZM256 -381Q284 -381 308 -367Q332 -353 345.5 -329Q359 -305 359 -277Q359 -249 345.5 -225.5Q332 -202 308 -188Q284 -174 256 -174Q235 -174 216 -182Q197 -190 182.5 -204.5Q168 -219 160.5 -238Q153 -257 153 -277Q153 -305 166.5 -329Q180 -353 204 -367Q228 -381 256 -381ZM235 -341V-263L303 -223L319 -251L267 -281V-341ZM85 -107V64H128V0H384V64L469 -21L384 -107V-43H128V-107Z"/>
</svg>