<svg xmlns="http://www.w3.org/2000/svg" viewBox="0 -512 512 512">
	<path fill="#000000" d="M256 -21Q271 -21 279 -23Q283 2 292 17Q271 21 256 21Q198 21 149 -7.5Q100 -36 71.5 -85Q43 -134 43 -192Q43 -250 71.5 -299Q100 -348 149 -376.5Q198 -405 256 -405Q314 -405 363 -376.5Q412 -348 440.5 -299Q469 -250 469 -192Q469 -182 466 -163L465 -156Q445 -166 425 -169Q427 -177 427 -192Q427 -238 404 -277.5Q381 -317 341.5 -340Q302 -363 256 -363Q210 -363 170.5 -340Q131 -317 108 -277.5Q85 -238 85 -192Q85 -146 108 -106.5Q131 -67 170.5 -44Q210 -21 256 -21ZM267 -186L333 -147Q316 -134 309 -126L235 -171V-299H267ZM378 -69L405 -128L432 -69L491 -43L432 -16L405 43L378 -16L320 -43Z"/>
</svg>