<svg xmlns="http://www.w3.org/2000/svg" viewBox="0 -512 512 512">
	<path fill="#000000" d="M320 -363Q366 -363 405.5 -340Q445 -317 468 -277.5Q491 -238 491 -192Q491 -146 468 -106.5Q445 -67 405.5 -44Q366 -21 320 -21Q274 -21 234.5 -44Q195 -67 172 -106.5Q149 -146 149 -192Q149 -238 172 -277.5Q195 -317 234.5 -340Q274 -363 320 -363ZM320 -320Q285 -320 255.5 -303Q226 -286 209 -256.5Q192 -227 192 -192Q192 -157 209 -127.5Q226 -98 255.5 -81Q285 -64 320 -64Q355 -64 384.5 -81Q414 -98 431 -127.5Q448 -157 448 -192Q448 -227 431 -256.5Q414 -286 384.5 -303Q355 -320 320 -320ZM299 -277H331V-197L380 -147L358 -124L299 -183ZM43 -64Q34 -64 27.5 -70Q21 -76 21 -85Q21 -94 27.5 -100.5Q34 -107 43 -107H124Q134 -85 149 -64ZM64 -171Q55 -171 49 -177Q43 -183 43 -192Q43 -201 49 -207Q55 -213 64 -213H108L107 -192L108 -171ZM85 -277Q76 -277 70 -283.5Q64 -290 64 -299Q64 -308 70 -314Q76 -320 85 -320H149Q134 -299 124 -277Z"/>
</svg>