<svg xmlns="http://www.w3.org/2000/svg" viewBox="0 -512 512 512">
	<path fill="#000000" d="M235 -299V-171L346 -105L363 -130L267 -188V-299ZM427 -192V-64H469V-192ZM427 -21V21H469V-21ZM384 -21Q328 21 256 21Q198 21 149 -7.5Q100 -36 71.5 -85Q43 -134 43 -192Q43 -250 71.5 -299Q100 -348 149 -376.5Q198 -405 256 -405Q306 -405 350.5 -383Q395 -361 425.5 -322Q456 -283 465 -235H420Q406 -290 360 -326.5Q314 -363 256 -363Q210 -363 170.5 -340Q131 -317 108 -277.5Q85 -238 85 -192Q85 -146 108 -106.5Q131 -67 170.5 -44Q210 -21 256 -21Q293 -21 327 -37Q359 -52 384 -79Z"/>
</svg>