<svg xmlns="http://www.w3.org/2000/svg" viewBox="0 -512 512 512">
	<path fill="#000000" d="M309 -126L235 -171V-299H267V-187L332 -148Q319 -138 309 -126ZM279 -23Q267 -21 256 -21Q210 -21 170.5 -44Q131 -67 108 -106.5Q85 -146 85 -192Q85 -238 108 -277.5Q131 -317 170.5 -340Q210 -363 256 -363Q302 -363 341.5 -340Q381 -317 404 -277.5Q427 -238 427 -192Q427 -181 425 -169Q447 -166 466 -155Q469 -174 469 -192Q469 -250 440.5 -299Q412 -348 363 -376.5Q314 -405 256 -405Q198 -405 149 -376.5Q100 -348 71.5 -299Q43 -250 43 -192Q43 -134 71.5 -85Q100 -36 149 -7.5Q198 21 256 21Q274 21 293 18Q282 -1 279 -23ZM320 -64V-21H491V-64Z"/>
</svg>