<svg xmlns="http://www.w3.org/2000/svg" viewBox="0 -512 512 512">
	<path fill="#000000" d="M107 -363Q89 -363 76.5 -350.5Q64 -338 64 -320V-64Q64 -46 76.5 -33.5Q89 -21 107 -21H405Q423 -21 435.5 -34Q448 -47 448 -64V-320Q448 -337 435.5 -350Q423 -363 405 -363ZM96 -331H416V-53H96ZM149 -256Q140 -256 134 -250Q128 -244 128 -235V-149Q128 -140 134 -134Q140 -128 149 -128H213Q222 -128 228.5 -134Q235 -140 235 -149V-171H203V-160H160V-224H203V-213H235V-235Q235 -244 228.5 -250Q222 -256 213 -256ZM299 -256Q290 -256 283.5 -250Q277 -244 277 -235V-149Q277 -140 283.5 -134Q290 -128 299 -128H363Q372 -128 378 -134Q384 -140 384 -149V-171H352V-160H309V-224H352V-213H384V-235Q384 -244 378 -250Q372 -256 363 -256Z"/>
</svg>