<svg xmlns="http://www.w3.org/2000/svg" viewBox="0 -512 512 512">
	<path fill="#000000" d="M396 -237L365 -267L320 -222L275 -267L245 -237L290 -192L245 -147L275 -116L320 -162L365 -116L396 -147L350 -192ZM43 -192Q43 -236 66.5 -272.5Q90 -309 128 -327V-373Q71 -353 35.5 -303.5Q0 -254 0 -192Q0 -130 35.5 -80.5Q71 -31 128 -11V-57Q90 -75 66.5 -111.5Q43 -148 43 -192ZM320 -384Q268 -384 224 -358Q180 -332 154 -288Q128 -244 128 -192Q128 -140 154 -96Q180 -52 224 -26Q268 0 320 0Q372 0 416 -26Q460 -52 486 -96Q512 -140 512 -192Q512 -244 486 -288Q460 -332 416 -358Q372 -384 320 -384ZM320 -43Q280 -43 245.5 -63Q211 -83 191 -117.5Q171 -152 171 -192Q171 -232 191 -266.5Q211 -301 245.5 -321Q280 -341 320 -341Q360 -341 394.5 -321Q429 -301 449 -266.5Q469 -232 469 -192Q469 -152 449 -117.5Q429 -83 394.5 -63Q360 -43 320 -43Z"/>
</svg>