<svg xmlns="http://www.w3.org/2000/svg" viewBox="0 -512 512 512">
	<path fill="#000000" d="M43 -192Q43 -236 66.5 -272.5Q90 -309 128 -327V-373Q71 -353 35.5 -303.5Q0 -254 0 -192Q0 -130 35.5 -80.5Q71 -31 128 -11V-57Q90 -75 66.5 -111.5Q43 -148 43 -192ZM320 -384Q268 -384 224 -358Q180 -332 154 -288Q128 -244 128 -192Q128 -140 154 -96Q180 -52 224 -26Q268 0 320 0Q372 0 416 -26Q460 -52 486 -96Q512 -140 512 -192Q512 -244 486 -288Q460 -332 416 -358Q372 -384 320 -384ZM427 -115L397 -85L320 -162L243 -85L213 -115L290 -192L213 -269L243 -299L320 -222L397 -299L427 -269L350 -192Z"/>
</svg>