<svg xmlns="http://www.w3.org/2000/svg" viewBox="0 -512 512 512">
	<path fill="#000000" d="M384 -213H352V-224H309V-160H352V-171H384V-149Q384 -140 378 -134Q372 -128 363 -128H299Q290 -128 283.5 -134Q277 -140 277 -149V-235Q277 -244 283.5 -250Q290 -256 299 -256H363Q372 -256 378 -250Q384 -244 384 -235ZM235 -213H203V-224H160V-160H203V-171H235V-149Q235 -140 228.5 -134Q222 -128 213 -128H149Q140 -128 134 -134Q128 -140 128 -149V-235Q128 -244 134 -250Q140 -256 149 -256H213Q222 -256 228.5 -250Q235 -244 235 -235ZM405 -363H107Q89 -363 76.5 -350.5Q64 -338 64 -320V-64Q64 -46 76.5 -33.5Q89 -21 107 -21H405Q423 -21 435.5 -33.5Q448 -46 448 -64V-320Q448 -338 435.5 -350.5Q423 -363 405 -363Z"/>
</svg>