<svg xmlns="http://www.w3.org/2000/svg" viewBox="0 -512 512 512">
	<path fill="#000000" d="M320 -128H192V-149H320ZM320 -107H192V-85H320ZM320 -64H192V-43H320ZM491 -160Q491 -120 462.5 -92Q434 -64 395 -64H384V21H128V-65Q86 -68 56 -97Q21 -131 21 -180Q21 -221 46 -253.5Q71 -286 112 -295Q125 -345 165 -375Q205 -405 256 -405Q318 -405 361.5 -361.5Q405 -318 405 -256Q442 -252 466.5 -224.5Q491 -197 491 -160ZM128 -108V-213H363V-256Q363 -300 331.5 -331.5Q300 -363 256 -363Q212 -363 180.5 -331.5Q149 -300 149 -256H139Q108 -256 86 -234Q64 -212 64 -181.5Q64 -151 86 -128Q104 -111 128 -108ZM341 -171H171V-21H341ZM448 -160Q448 -183 432.5 -198Q417 -213 395 -213H384V-107H395Q417 -107 432.5 -122.5Q448 -138 448 -160Z"/>
</svg>