<svg xmlns="http://www.w3.org/2000/svg" viewBox="0 -512 512 512">
	<path fill="#000000" d="M139 -64H277V-21H139Q89 -21 55 -55Q21 -89 21 -137Q21 -179 46 -211.5Q71 -244 112 -253Q125 -302 165 -332.5Q205 -363 256 -363Q318 -363 362 -319Q397 -284 404 -235Q384 -235 362 -225Q358 -262 332 -289Q300 -320 256 -320Q212 -320 180.5 -288.5Q149 -257 149 -213H139Q108 -213 86 -191.5Q64 -170 64 -139Q64 -108 86 -86Q108 -64 139 -64ZM491 -79V-4Q491 6 482.5 13.5Q474 21 463 21H346Q336 21 328 13Q320 5 320 -6V-81Q320 -91 328 -99Q336 -107 346 -107V-139Q346 -161 364 -176.5Q382 -192 405 -192Q428 -192 446.5 -176.5Q465 -161 465 -139V-107Q475 -107 483 -98.5Q491 -90 491 -79ZM437 -139Q437 -151 428 -158.5Q419 -166 405.5 -166Q392 -166 382.5 -158.5Q373 -151 373 -139V-107H437Z"/>
</svg>