<svg xmlns="http://www.w3.org/2000/svg" viewBox="0 -512 512 512">
	<path fill="#000000" d="M466 -181Q442 -209 405 -213Q405 -276 361.5 -319.5Q318 -363 256 -363Q205 -363 165 -332Q125 -301 112 -253Q71 -244 46 -211.5Q21 -179 21 -137Q21 -89 55 -55Q89 -21 139 -21H395Q434 -21 462.5 -49.5Q491 -78 491 -117Q491 -154 466 -181ZM224 -235H192V-213Q192 -196 179.5 -183.5Q167 -171 149 -171Q167 -171 179.5 -158.5Q192 -146 192 -128V-107H224V-64H192Q174 -64 161.5 -76.5Q149 -89 149 -107V-128Q149 -137 143 -143Q137 -149 128 -149H117V-192H128Q137 -192 143 -198.5Q149 -205 149 -213V-235Q149 -252 161.5 -264.5Q174 -277 192 -277H224ZM395 -149H384Q375 -149 369 -143Q363 -137 363 -128V-107Q363 -89 350.5 -76.5Q338 -64 320 -64H288V-107H320V-128Q320 -146 332.5 -158.5Q345 -171 363 -171Q345 -171 332.5 -183.5Q320 -196 320 -213V-235H288V-277H320Q338 -277 350.5 -264.5Q363 -252 363 -235V-213Q363 -205 369 -198.5Q375 -192 384 -192H395Z"/>
</svg>