<svg xmlns="http://www.w3.org/2000/svg" viewBox="0 -512 512 512">
	<path fill="#000000" d="M277 -43Q277 -34 279 -21H139Q89 -21 55 -55Q21 -89 21 -137Q21 -179 46 -211.5Q71 -244 112 -253Q125 -302 165 -332.5Q205 -363 256 -363Q318 -363 361.5 -319.5Q405 -276 405 -213Q442 -209 466 -181Q483 -163 488 -140Q452 -171 405 -171H363V-213Q363 -257 331.5 -288.5Q300 -320 256 -320Q212 -320 180.5 -288.5Q149 -257 149 -213H139Q108 -213 86 -191.5Q64 -170 64 -139Q64 -108 86 -86Q108 -64 139 -64H279Q277 -51 277 -43ZM320 -64V-21H491V-64Z"/>
</svg>