<svg xmlns="http://www.w3.org/2000/svg" viewBox="0 -512 512 512">
	<path fill="#000000" d="M256 -43Q256 -33 258 -21H139Q89 -21 55 -55Q21 -89 21 -137Q21 -179 46 -211.5Q71 -244 112 -253Q125 -302 165 -332.5Q205 -363 256 -363Q318 -363 361.5 -319.5Q405 -276 405 -213Q442 -209 466 -181L469 -177Q439 -192 405 -192Q365 -192 330.5 -172Q296 -152 276 -117.5Q256 -83 256 -43ZM508 -8L487 29Q486 32 480 32L454 21Q444 28 436 31L432 60Q431 64 427 64H384Q379 64 378 60L374 31Q366 28 356 21L330 32Q324 32 323 29L302 -8Q300 -12 303 -15L326 -32Q325 -37 325 -42.5Q325 -48 326 -53L303 -71Q300 -74 302 -78L323 -115Q325 -117 330 -117L356 -107Q365 -112 374 -117L378 -145Q379 -149 384 -149H427Q431 -149 432 -145L436 -117Q443 -114 454 -107L480 -117Q486 -117 487 -115L508 -78Q510 -74 507 -71L484 -53Q485 -48 485 -43L484 -32L507 -15Q510 -12 508 -8ZM437 -43Q437 -56 427.5 -65.5Q418 -75 405 -75Q392 -75 382.5 -65.5Q373 -56 373 -42.5Q373 -29 382.5 -20Q392 -11 405.5 -11Q419 -11 428 -20Q437 -29 437 -43Z"/>
</svg>