<svg xmlns="http://www.w3.org/2000/svg" viewBox="0 -512 512 512">
	<path fill="#000000" d="M466 -181Q442 -209 405 -213Q405 -276 361.5 -319.5Q318 -363 256 -363Q205 -363 165 -332Q125 -301 112 -253Q71 -244 46 -211.5Q21 -179 21 -137Q21 -89 55 -55Q89 -21 139 -21H395Q434 -21 462.5 -49.5Q491 -78 491 -117Q491 -154 466 -181ZM432 -80Q417 -64 395 -64H139Q108 -64 86 -86Q64 -108 64 -139Q64 -170 86 -191.5Q108 -213 139 -213H149Q149 -257 180.5 -288.5Q212 -320 256 -320Q300 -320 331.5 -288.5Q363 -257 363 -213V-171H395Q417 -171 432.5 -155Q448 -139 448 -117Q448 -95 432 -80ZM171 -225Q171 -238 180 -246.5Q189 -255 201.5 -255Q214 -255 223 -246.5Q232 -238 232 -225.5Q232 -213 223 -204Q214 -195 201.5 -195Q189 -195 180 -204Q171 -213 171 -225ZM341 -116Q341 -104 332 -95Q323 -86 310.5 -86Q298 -86 289 -95Q280 -104 280 -116.5Q280 -129 289 -138Q298 -147 310.5 -147Q323 -147 332 -138Q341 -129 341 -116ZM316 -256L341 -230L196 -85L171 -111Z"/>
</svg>