<svg xmlns="http://www.w3.org/2000/svg" viewBox="0 -512 512 512">
	<path fill="#000000" d="M466 -181Q442 -209 405 -213Q405 -276 361.5 -319.5Q318 -363 256 -363Q205 -363 165 -332Q125 -301 112 -253Q71 -244 46 -211.5Q21 -179 21 -137Q21 -89 55 -55Q89 -21 139 -21H395Q434 -21 462.5 -49.5Q491 -78 491 -117Q491 -154 466 -181ZM432 -80Q417 -64 395 -64H139Q108 -64 86 -86Q64 -108 64 -139Q64 -170 86 -191.5Q108 -213 139 -213H149Q149 -257 180.5 -288.5Q212 -320 256 -320Q300 -320 331.5 -288.5Q363 -257 363 -213V-171H395Q417 -171 432.5 -155Q448 -139 448 -117Q448 -95 432 -80ZM341 -192Q341 -227 316 -252Q291 -277 256 -277Q221 -277 196 -252Q171 -227 171 -192Q171 -157 196 -132Q221 -107 256 -107Q279 -107 299 -119L353 -64L384 -95L329 -149Q341 -169 341 -192ZM256 -149Q238 -149 225.5 -161.5Q213 -174 213 -192Q213 -210 225.5 -222.5Q238 -235 256 -235Q274 -235 286.5 -222.5Q299 -210 299 -192Q299 -174 286.5 -161.5Q274 -149 256 -149Z"/>
</svg>