<svg xmlns="http://www.w3.org/2000/svg" viewBox="0 -512 512 512">
	<path fill="#000000" d="M201 -21H139Q89 -21 55 -55Q21 -89 21 -137Q21 -179 46 -211.5Q71 -244 112 -253Q125 -302 165.5 -332.5Q206 -363 256 -363Q319 -363 362 -319.5Q405 -276 405 -213Q442 -209 466 -181Q487 -158 490 -128H447Q444 -144 432 -155Q417 -171 395 -171H363V-213Q363 -257 331.5 -288.5Q300 -320 256 -320Q212 -320 180.5 -288.5Q149 -257 149 -213H139Q108 -213 86 -191.5Q64 -170 64 -139Q64 -108 86 -86Q108 -64 139 -64H192Q192 -42 201 -21ZM491 -85V-43H448V0H405V-43H358Q352 -23 335.5 -11.5Q319 0 299 0Q271 0 253 -18.5Q235 -37 235 -64Q235 -91 253 -109.5Q271 -128 299 -128Q319 -128 335.5 -116.5Q352 -105 358 -85ZM320 -64Q320 -72 314 -78.5Q308 -85 298.5 -85Q289 -85 283 -78.5Q277 -72 277 -64Q277 -56 283 -49.5Q289 -43 298.5 -43Q308 -43 314 -49.5Q320 -56 320 -64Z"/>
</svg>