<svg xmlns="http://www.w3.org/2000/svg" viewBox="0 -512 512 512">
	<path fill="#000000" d="M181 -107H341Q368 -107 387 -125.5Q406 -144 405.5 -170.5Q405 -197 386.5 -215.5Q368 -234 341 -235Q337 -266 313 -287.5Q289 -309 259 -309Q232 -309 210 -295.5Q188 -282 177 -256Q147 -253 127 -232.5Q107 -212 107 -181Q107 -150 128.5 -128.5Q150 -107 181 -107ZM256 21Q212 21 173 4.5Q134 -12 105 -41Q76 -70 59.5 -109Q43 -148 43 -192Q43 -236 59.5 -275Q76 -314 105 -343Q134 -372 173 -388.5Q212 -405 256 -405Q300 -405 339 -388.5Q378 -372 407 -343Q436 -314 452.5 -275Q469 -236 469 -192Q469 -148 452.5 -109Q436 -70 407 -41Q378 -12 339 4.5Q300 21 256 21ZM256 -21Q327 -21 377 -71Q427 -121 427 -192Q427 -263 377 -313Q327 -363 256 -363Q185 -363 135 -313Q85 -263 85 -192Q85 -121 135 -71Q185 -21 256 -21ZM181 -149Q168 -149 158.5 -158.5Q149 -168 149 -181.5Q149 -195 158.5 -204Q168 -213 181 -213H213V-224Q213 -241 226 -254Q239 -267 256 -267Q273 -267 286 -254Q299 -241 299 -224V-192H341Q351 -192 357 -186Q363 -180 363 -171Q363 -162 357 -155.5Q351 -149 341 -149ZM256 -192Z"/>
</svg>