<svg xmlns="http://www.w3.org/2000/svg" viewBox="0 -512 512 512">
	<path fill="#000000" d="M256 -53Q256 -39 260 -21H139Q89 -21 55 -55Q21 -89 21 -137Q21 -179 46 -211.5Q71 -244 112 -253Q125 -302 165 -332.5Q205 -363 256 -363Q318 -363 361.5 -319.5Q405 -276 405 -213Q442 -209 466 -181Q473 -174 479 -163Q442 -192 395 -192Q380 -192 363 -188V-213Q363 -257 331.5 -288.5Q300 -320 256 -320Q212 -320 180.5 -288.5Q149 -257 149 -213H139Q108 -213 86 -191.5Q64 -170 64 -139Q64 -108 86 -86Q108 -64 139 -64H257Q256 -60 256 -53ZM491 -53Q491 -13 463 15Q435 43 395 43Q355 43 327 15Q299 -13 299 -53Q299 -93 327 -121Q355 -149 395 -149Q435 -149 463 -121Q491 -93 491 -53ZM427 2L340 -85Q331 -71 331 -53Q331 -27 349.5 -8Q368 11 395 11Q413 11 427 2ZM459 -53Q459 -80 440 -98.5Q421 -117 395 -117Q377 -117 363 -108L450 -21Q459 -35 459 -53Z"/>
</svg>