<svg xmlns="http://www.w3.org/2000/svg" viewBox="0 -512 512 512">
	<path fill="#000000" d="M277 -75Q277 -47 288 -21H139Q89 -21 55 -55Q21 -89 21 -137Q21 -179 46 -211.5Q71 -244 112 -253Q125 -302 165 -332.5Q205 -363 256 -363Q318 -363 361.5 -319.5Q405 -276 405 -213H407Q372 -211 342 -192Q312 -173 294.5 -142Q277 -111 277 -75ZM405 -160V-192L357 -144L405 -96V-128Q427 -128 443 -112.5Q459 -97 459 -75Q459 -62 453 -51L476 -28Q491 -49 491 -75Q491 -110 466 -135Q441 -160 405 -160ZM405 -21Q383 -21 367.5 -37Q352 -53 352 -75Q352 -87 358 -99L334 -122Q320 -100 320 -75Q320 -39 345 -14Q370 11 405 11V43L453 -5L405 -53Z"/>
</svg>