<svg xmlns="http://www.w3.org/2000/svg" viewBox="0 -512 512 512">
	<path fill="#000000" d="M256 -53Q256 -39 260 -21H139Q89 -21 55 -55Q21 -89 21 -137Q21 -179 46 -211.5Q71 -244 112 -253Q125 -302 165 -332.5Q205 -363 256 -363Q318 -363 361.5 -319.5Q405 -276 405 -213Q442 -209 466 -181Q473 -174 479 -163Q442 -192 395 -192Q357 -192 325 -173.5Q293 -155 274.5 -123Q256 -91 256 -53ZM384 -139Q349 -139 324 -114Q299 -89 299 -53.5Q299 -18 324 7Q349 32 384 32Q411 32 432.5 17.5Q454 3 463 -21H427Q419 -11 408 -5.5Q397 0 384 0Q362 0 346.5 -15.5Q331 -31 331 -53Q331 -75 346.5 -91Q362 -107 384 -107Q406 -107 422 -91L384 -53H469V-139L444 -114Q419 -139 384 -139Z"/>
</svg>