<svg xmlns="http://www.w3.org/2000/svg" viewBox="0 -512 512 512">
	<path fill="#000000" d="M422 34L366 -21H139Q90 -21 55.5 -55.5Q21 -90 21 -139Q21 -180 46.5 -212Q72 -244 112 -253L115 -261Q117 -265 118 -270L30 -358L60 -388L452 4ZM139 -64H323L151 -236Q150 -230 149.5 -224.5Q149 -219 149 -213H139Q108 -213 86 -191.5Q64 -170 64 -139Q64 -108 86 -86Q108 -64 139 -64ZM237 -149ZM461 -48L430 -78Q439 -85 443.5 -95Q448 -105 448 -117Q448 -140 432.5 -155.5Q417 -171 395 -171H363V-213Q363 -257 331.5 -288.5Q300 -320 256 -320Q242 -320 228.5 -316.5Q215 -313 203 -305L172 -336Q191 -349 212 -356Q233 -363 256 -363Q319 -363 362 -319.5Q405 -276 405 -213Q442 -209 466.5 -181.5Q491 -154 491 -117Q491 -96 483 -78.5Q475 -61 461 -48ZM316 -191Z"/>
</svg>