<svg xmlns="http://www.w3.org/2000/svg" viewBox="0 -512 512 512">
	<path fill="#000000" d="M409 -191Q427 -209 427 -235.5Q427 -262 408.5 -282Q390 -302 363 -302H303Q303 -330 289 -354Q275 -378 251.5 -391.5Q228 -405 200 -405Q167 -405 141 -387Q115 -369 103 -340Q69 -339 45 -314Q21 -289 21 -254.5Q21 -220 46 -195.5Q71 -171 106 -171H173Q171 -159 171 -149H160Q129 -149 107 -127.5Q85 -106 85 -75Q85 -44 107 -22Q129 0 160 0H395Q435 0 463 -28Q491 -56 491 -96Q491 -132 467.5 -158.5Q444 -185 409 -191ZM395 -43H160Q147 -43 137.5 -52Q128 -61 128 -74.5Q128 -88 137.5 -97.5Q147 -107 160 -107H213V-149Q213 -180 235 -202Q257 -224 288 -224Q319 -224 341 -202Q363 -180 363 -149H395Q417 -149 432.5 -133.5Q448 -118 448 -96Q448 -74 432.5 -58.5Q417 -43 395 -43Z"/>
</svg>