<svg xmlns="http://www.w3.org/2000/svg" viewBox="0 -512 512 512">
	<path fill="#000000" d="M466 -181Q442 -209 405 -213Q405 -276 361.5 -319.5Q318 -363 256 -363Q205 -363 165 -332Q125 -301 112 -253Q71 -244 46 -211.5Q21 -179 21 -137Q21 -89 55 -55Q89 -21 139 -21H395Q434 -21 462.5 -49.5Q491 -78 491 -117Q491 -154 466 -181ZM277 -85H235V-128H277ZM316 -196Q307 -184 292 -176Q283 -171 280 -164.5Q277 -158 277 -149H235Q235 -166 241.5 -175Q248 -184 264 -194Q272 -199 277 -206.5Q282 -214 282 -224Q282 -234 276.5 -240Q271 -246 260 -246Q252 -246 246 -241Q240 -236 240 -226H198Q196 -251 214 -264Q232 -277 261 -277Q290 -277 307.5 -262.5Q325 -248 325 -224Q325 -209 316 -196Z"/>
</svg>