<svg xmlns="http://www.w3.org/2000/svg" viewBox="0 -512 512 512">
	<path fill="#000000" d="M466 -181Q442 -209 405 -213Q405 -276 361.5 -319.5Q318 -363 256 -363Q205 -363 165 -332Q125 -301 112 -253Q71 -244 46 -211.5Q21 -179 21 -137Q21 -89 55 -55Q89 -21 139 -21H395Q434 -21 462.5 -49.5Q491 -78 491 -117Q491 -154 466 -181ZM432 -80Q417 -64 395 -64H139Q108 -64 86 -86Q64 -108 64 -139Q64 -170 86 -191.5Q108 -213 139 -213H149Q149 -257 180.5 -288.5Q212 -320 256 -320Q300 -320 331.5 -288.5Q363 -257 363 -213V-171H395Q417 -171 432.5 -155Q448 -139 448 -117Q448 -95 432 -80ZM316 -231L341 -256V-171H256L294 -208Q278 -224 256 -224Q234 -224 218.5 -208.5Q203 -193 203 -171Q203 -149 218.5 -133Q234 -117 256 -117Q269 -117 280 -123Q291 -129 299 -139H335Q326 -115 304.5 -100Q283 -85 256 -85Q221 -85 196 -110Q171 -135 171 -170.5Q171 -206 196 -231Q221 -256 256 -256Q291 -256 316 -231Z"/>
</svg>