<svg xmlns="http://www.w3.org/2000/svg" viewBox="0 -512 512 512">
	<path fill="#000000" d="M491 -117Q491 -139 481 -159Q471 -187 450.5 -209Q430 -231 402 -243Q394 -287 362 -319Q318 -363 256 -363Q205 -363 165 -332Q125 -301 112 -253Q71 -244 46 -211.5Q21 -179 21 -137Q21 -89 55 -55Q89 -21 139 -21H219Q240 8 272 25.5Q304 43 341 43Q382 43 416.5 23Q451 3 471 -31.5Q491 -66 491 -107ZM139 -64Q108 -64 86 -86Q64 -108 64 -139Q64 -170 86 -191.5Q108 -213 139 -213H149Q149 -257 180.5 -288.5Q212 -320 256 -320Q300 -320 332 -289Q346 -274 354 -255Q350 -256 341 -256Q301 -256 266.5 -236Q232 -216 212 -181.5Q192 -147 192 -107Q192 -86 198 -64ZM341 0Q312 0 287.5 -14.5Q263 -29 249 -53.5Q235 -78 235 -107Q235 -136 249 -160.5Q263 -185 287.5 -199Q312 -213 341 -213Q370 -213 394.5 -199Q419 -185 433.5 -160.5Q448 -136 448 -107Q448 -78 433.5 -53.5Q419 -29 394.5 -14.5Q370 0 341 0ZM352 -101L413 -65L397 -39L320 -85V-192H352Z"/>
</svg>