<svg xmlns="http://www.w3.org/2000/svg" viewBox="0 -512 512 512">
	<path fill="#000000" d="M139 -21Q90 -21 55.5 -55Q21 -89 21 -137Q21 -179 46 -211.5Q71 -244 112 -253Q121 -291 157 -326Q193 -361 235 -361Q252 -361 264.5 -348Q277 -335 277 -318V-189L311 -222L341 -192L256 -107L171 -192L201 -222L235 -189V-318Q194 -310 171.5 -278.5Q149 -247 149 -213H139Q108 -213 86 -191.5Q64 -170 64 -139Q64 -108 86 -86Q108 -64 139 -64H395Q417 -64 432.5 -79.5Q448 -95 448 -117.5Q448 -140 432.5 -155.5Q417 -171 395 -171H363V-213Q363 -239 351 -261Q339 -283 320 -299V-348Q359 -330 382 -293Q405 -256 405 -213Q442 -209 466.5 -181.5Q491 -154 491 -117Q491 -77 463 -49Q435 -21 395 -21ZM256 -212Z"/>
</svg>