<svg xmlns="http://www.w3.org/2000/svg" viewBox="0 -512 512 512">
	<path fill="#000000" d="M226 -179L227 -180L239 -192L226 -205Q186 -249 167 -267Q140 -290 119 -296Q110 -299 100 -299Q76 -299 59.5 -281.5Q43 -264 43 -240Q43 -219 54 -203Q59 -197 64 -192Q59 -187 54 -181Q43 -165 43 -142Q43 -119 60 -102Q77 -85 101 -85Q110 -85 119 -88Q140 -93 166 -117Q186 -134 226 -179ZM181 -192Q149 -158 134 -145Q114 -128 101 -128Q94 -128 89.5 -132.5Q85 -137 85 -143Q85 -154 92 -160L128 -192L92 -224Q85 -230 85 -240Q85 -247 89.5 -251.5Q94 -256 100 -256Q113 -256 134 -239Q149 -226 181 -192ZM152 -55Q149 -46 149 -36Q149 -12 166.5 4.5Q184 21 208 21Q229 21 245 10Q251 5 256 0Q261 5 267 10Q283 21 306 21Q329 21 346 4Q363 -13 363 -37Q363 -46 360 -55Q355 -76 331 -102Q314 -122 269 -162L256 -175L243 -163Q198 -122 181 -103Q158 -76 152 -55ZM256 -117Q290 -85 303 -70Q320 -50 320 -37Q320 -30 315.5 -25.5Q311 -21 305 -21Q294 -21 288 -28L256 -64L224 -28Q218 -21 208 -21Q201 -21 196.5 -25.5Q192 -30 192 -36Q192 -49 209 -70Q222 -85 256 -117ZM286 -179Q326 -134 345 -117Q372 -94 393 -88Q402 -85 412 -85Q436 -85 452.5 -102.5Q469 -120 469 -144Q469 -165 458 -181Q453 -187 448 -192Q453 -197 458 -203Q469 -219 469 -242Q469 -265 452 -282Q435 -299 411 -299Q402 -299 393 -296Q372 -291 346 -267Q326 -250 286 -205L274 -192ZM332 -192Q362 -225 378 -239Q399 -256 411 -256Q418 -256 422.5 -251.5Q427 -247 427 -241Q427 -230 420 -224L384 -192L420 -160Q427 -154 427 -144Q427 -137 422.5 -132.5Q418 -128 412 -128Q399 -128 378 -145Q362 -159 332 -192ZM269 -221Q314 -262 331 -281Q354 -308 360 -329Q363 -338 363 -348Q363 -372 345.5 -388.5Q328 -405 304 -405Q283 -405 267 -394Q261 -389 256 -384Q251 -389 245 -394Q229 -405 206 -405Q183 -405 166 -388Q149 -371 149 -347Q149 -338 152 -329Q157 -308 181 -282Q198 -262 243 -221L256 -209L269 -222ZM256 -267Q222 -299 209 -314Q192 -334 192 -347Q192 -354 196.5 -358.5Q201 -363 207 -363Q218 -363 224 -356L256 -320L288 -356Q294 -363 304 -363Q311 -363 315.5 -358.5Q320 -354 320 -348Q320 -335 303 -314Q290 -299 256 -267Z"/>
</svg>