<svg xmlns="http://www.w3.org/2000/svg" viewBox="0 -512 512 512">
	<path fill="#000000" d="M391 -282Q386 -289 377.5 -291Q369 -293 361.5 -288Q354 -283 352.5 -274.5Q351 -266 355 -258Q363 -247 362.5 -233.5Q362 -220 354 -209Q346 -198 332.5 -194Q319 -190 306 -194.5Q293 -199 285 -210Q277 -221 277 -235V-281Q299 -289 311 -309Q323 -329 319 -352Q315 -375 297 -390.5Q279 -406 256 -406Q233 -406 215 -390.5Q197 -375 193 -352Q189 -329 201 -309Q213 -289 235 -281V-235Q235 -221 227 -210Q219 -199 206 -194.5Q193 -190 179.5 -194Q166 -198 158 -209Q150 -220 149.5 -233.5Q149 -247 157 -258Q161 -266 159.5 -274.5Q158 -283 150.5 -288Q143 -293 134.5 -291Q126 -289 121 -282Q104 -257 106.5 -227.5Q109 -198 129.5 -176.5Q150 -155 179.5 -150.5Q209 -146 235 -161V-21Q217 -21 204.5 -8.5Q192 4 192 21H320Q320 4 307.5 -8.5Q295 -21 277 -21V-161Q303 -146 332.5 -150.5Q362 -155 382.5 -176.5Q403 -198 405.5 -227.5Q408 -257 391 -282ZM256 -363Q262 -363 267.5 -359Q273 -355 275.5 -349.5Q278 -344 277 -337.5Q276 -331 271.5 -326.5Q267 -322 260.5 -320.5Q254 -319 248 -321.5Q242 -324 238.5 -329.5Q235 -335 235 -341Q235 -350 241 -356.5Q247 -363 256 -363Z"/>
</svg>