<svg xmlns="http://www.w3.org/2000/svg" viewBox="0 -512 512 512">
	<path fill="#000000" d="M405 -384H107Q89 -384 76.5 -371.5Q64 -359 64 -341V-43Q64 -25 76.5 -12.5Q89 0 107 0H405Q423 0 435.5 -12.5Q448 -25 448 -43V-341Q448 -359 435.5 -371.5Q423 -384 405 -384ZM235 -277H192V-235Q192 -217 179.5 -204.5Q167 -192 149 -192Q167 -192 179.5 -179.5Q192 -167 192 -149V-107H235V-64H192Q174 -64 161.5 -76.5Q149 -89 149 -107V-128Q149 -146 136.5 -158.5Q124 -171 107 -171V-213Q124 -213 136.5 -225.5Q149 -238 149 -256V-277Q149 -295 161.5 -307.5Q174 -320 192 -320H235ZM405 -171Q388 -171 375.5 -158.5Q363 -146 363 -128V-107Q363 -89 350.5 -76.5Q338 -64 320 -64H277V-107H320V-149Q320 -167 332.5 -179.5Q345 -192 363 -192Q345 -192 332.5 -204.5Q320 -217 320 -235V-277H277V-320H320Q338 -320 350.5 -307.5Q363 -295 363 -277V-256Q363 -238 375.5 -225.5Q388 -213 405 -213Z"/>
</svg>