<svg xmlns="http://www.w3.org/2000/svg" viewBox="0 -512 512 512">
	<path fill="#000000" d="M405 -384H107Q89 -384 76.5 -371.5Q64 -359 64 -341V-43Q64 -25 76.5 -12.5Q89 0 107 0H405Q423 0 435.5 -12.5Q448 -25 448 -43V-341Q448 -359 435.5 -371.5Q423 -384 405 -384ZM213 -79L179 -64Q155 -88 141.5 -121.5Q128 -155 128 -192Q128 -229 141.5 -262.5Q155 -296 179 -320L213 -305Q193 -286 182 -256Q171 -226 171 -192Q171 -158 182 -128Q193 -98 213 -79ZM333 -64L299 -79Q319 -100 330 -129Q341 -158 341 -192Q341 -226 330 -256Q319 -286 299 -305L333 -320Q357 -296 370.5 -262.5Q384 -229 384 -192Q384 -155 370.5 -121.5Q357 -88 333 -64Z"/>
</svg>