<svg xmlns="http://www.w3.org/2000/svg" viewBox="0 -512 512 512">
	<path fill="#000000" d="M107 -384Q89 -384 76.5 -371.5Q64 -359 64 -341.5Q64 -324 51.5 -311.5Q39 -299 21 -299V-256Q39 -256 51.5 -243.5Q64 -231 64 -213.5Q64 -196 76.5 -183.5Q89 -171 107 -171H149V-213H107V-235Q107 -252 94.5 -264.5Q82 -277 64 -277Q82 -277 94.5 -289.5Q107 -302 107 -320V-341H149V-384ZM235 -384Q252 -384 264.5 -371.5Q277 -359 277 -341.5Q277 -324 289.5 -311.5Q302 -299 320 -299V-256Q302 -256 289.5 -243.5Q277 -231 277 -213.5Q277 -196 264.5 -183.5Q252 -171 235 -171H192V-213H235V-235Q235 -252 247.5 -264.5Q260 -277 277 -277Q260 -277 247.5 -289.5Q235 -302 235 -320V-341H192V-384ZM469 -320V-64Q469 -46 456.5 -33.5Q444 -21 427 -21H85Q68 -21 55.5 -33.5Q43 -46 43 -64V-128H85V-64H427V-320H363V-363H427Q444 -363 456.5 -350.5Q469 -338 469 -320Z"/>
</svg>