<svg xmlns="http://www.w3.org/2000/svg" viewBox="0 -512 512 512">
	<path fill="#000000" d="M175 -192L147 -173V-211ZM245 -239V-291L156 -232L195 -206ZM356 -232L267 -291V-239L317 -206ZM156 -152L245 -93V-145L195 -178ZM267 -145V-93L356 -152L317 -178ZM256 -219L216 -192L256 -165L296 -192ZM469 -192Q469 -134 440.5 -85Q412 -36 363 -7.5Q314 21 256 21Q198 21 149 -7.5Q100 -36 71.5 -85Q43 -134 43 -192Q43 -250 71.5 -299Q100 -348 149 -376.5Q198 -405 256 -405Q314 -405 363 -376.5Q412 -348 440.5 -299Q469 -250 469 -192ZM388 -232Q388 -233 388 -234L387 -236L384 -241L262 -322Q256 -326 250 -322L128 -241L126 -238L124 -232V-150L125 -148L128 -143L250 -62Q252 -60 255.5 -60Q259 -60 262 -62L383 -142L385 -144L388 -152ZM365 -173V-211L337 -192Z"/>
</svg>