<svg xmlns="http://www.w3.org/2000/svg" viewBox="0 -512 512 512">
	<path fill="#000000" d="M107 -384H149V-341H107V-235Q107 -217 94.5 -204.5Q82 -192 64 -192Q82 -192 94.5 -179.5Q107 -167 107 -149V-43H149V0H107Q88 -5 77 -15Q64 -26 64 -43V-128Q64 -146 51.5 -158.5Q39 -171 21 -171H0V-213H21Q39 -213 51.5 -225.5Q64 -238 64 -256V-341Q64 -359 76.5 -371.5Q89 -384 107 -384ZM405 -384Q423 -384 435.5 -371.5Q448 -359 448 -341V-256Q448 -238 460.5 -225.5Q473 -213 491 -213H512V-171H491Q473 -171 460.5 -158.5Q448 -146 448 -128V-43Q448 -25 435.5 -12.5Q423 0 405 0H363V-43H405V-149Q405 -167 417.5 -179.5Q430 -192 448 -192Q430 -192 417.5 -204.5Q405 -217 405 -235V-341H363V-384ZM256 -128Q265 -128 271 -122Q277 -116 277 -107Q277 -98 271 -91.5Q265 -85 256 -85Q247 -85 241 -91.5Q235 -98 235 -107Q235 -116 241 -122Q247 -128 256 -128ZM171 -128Q180 -128 186 -122Q192 -116 192 -107Q192 -98 186 -91.5Q180 -85 171 -85Q162 -85 155.5 -91.5Q149 -98 149 -107Q149 -116 155.5 -122Q162 -128 171 -128ZM341 -128Q350 -128 356.5 -122Q363 -116 363 -107Q363 -98 356.5 -91.5Q350 -85 341 -85Q332 -85 326 -91.5Q320 -98 320 -107Q320 -116 326 -122Q332 -128 341 -128Z"/>
</svg>