<svg xmlns="http://www.w3.org/2000/svg" viewBox="0 -512 512 512">
	<path fill="#000000" d="M247 -384Q272 -363 285.5 -335Q299 -307 299 -277Q299 -247 285.5 -219.5Q272 -192 247 -171L213 -183Q234 -199 245 -224.5Q256 -250 256 -277.5Q256 -305 245 -330.5Q234 -356 213 -371ZM94 -384L128 -371Q108 -356 96.5 -330.5Q85 -305 85 -277.5Q85 -250 96.5 -224.5Q108 -199 128 -183L94 -171Q70 -192 56.5 -219.5Q43 -247 43 -277Q43 -307 56.5 -335Q70 -363 94 -384ZM469 -320V-64Q469 -46 456.5 -33.5Q444 -21 427 -21H85Q68 -21 55.5 -33.5Q43 -46 43 -64V-128H85V-64H427V-320H342V-363H427Q444 -363 456.5 -350.5Q469 -338 469 -320Z"/>
</svg>