<svg xmlns="http://www.w3.org/2000/svg" viewBox="0 -512 512 512">
	<path fill="#000000" d="M379 3L320 -61L345 -85L379 -51L455 -128L480 -98ZM277 -60Q260 -43 234 -43Q208 -43 189.5 -61.5Q171 -80 171 -107V-171H299V-135Q315 -159 341 -175V-213H128V-107Q128 -81 139.5 -58.5Q151 -36 171 -21H85V-363H128V-320Q128 -311 134.5 -305Q141 -299 149 -299H320Q329 -299 335 -305Q341 -311 341 -320V-363H384V-405H85Q68 -405 55.5 -392.5Q43 -380 43 -363V-21Q43 -4 55.5 8.5Q68 21 85 21H310Q279 -13 277 -60ZM213 -256Q213 -247 219.5 -241Q226 -235 234.5 -235Q243 -235 249.5 -241Q256 -247 256 -256Q256 -265 249.5 -271Q243 -277 234.5 -277Q226 -277 219.5 -271Q213 -265 213 -256Z"/>
</svg>