<svg xmlns="http://www.w3.org/2000/svg" viewBox="0 -512 512 512">
	<path fill="#000000" d="M384 -320V-363H427V-405H128Q110 -405 97.5 -392.5Q85 -380 85 -363V-21Q85 -4 97.5 8.5Q110 21 128 21H427V-21H341Q361 -36 372.5 -58.5Q384 -81 384 -107V-213H171V-107Q171 -81 182.5 -58.5Q194 -36 214 -21H128V-363H171V-320Q171 -311 177 -305Q183 -299 192 -299H363Q371 -299 377.5 -305Q384 -311 384 -320ZM213 -107V-171H341V-107Q341 -80 322.5 -61.5Q304 -43 277.5 -43Q251 -43 232 -61.5Q213 -80 213 -107ZM277 -277Q286 -277 292.5 -271Q299 -265 299 -256Q299 -247 292.5 -241Q286 -235 277.5 -235Q269 -235 262.5 -241Q256 -247 256 -256Q256 -265 262.5 -271Q269 -277 277 -277Z"/>
</svg>