<svg xmlns="http://www.w3.org/2000/svg" viewBox="0 -512 512 512">
	<path fill="#000000" d="M320 -85V-149H384V-192L469 -117L384 -43V-85ZM363 -64V0H299V43L213 -32L299 -107V-64ZM256 -277Q221 -277 196 -252Q171 -227 171 -192Q171 -162 190 -138Q209 -114 239 -108L341 -195Q340 -229 315.5 -253Q291 -277 256 -277ZM256 -149Q238 -149 225.5 -161.5Q213 -174 213 -192Q213 -210 225.5 -222.5Q238 -235 256 -235Q274 -235 286.5 -222.5Q299 -210 299 -192Q299 -174 286.5 -161.5Q274 -149 256 -149ZM462 -262L419 -336Q418 -339 414 -340.5Q410 -342 406 -340L353 -319Q337 -332 317 -340L309 -396Q309 -400 306 -402.5Q303 -405 299 -405H213Q209 -405 206 -402.5Q203 -400 203 -396L195 -340Q176 -332 159 -319L107 -340Q103 -342 99 -340.5Q95 -339 94 -336L51 -262Q49 -258 49.5 -254.5Q50 -251 53 -248L97 -213L96 -192L97 -171L52 -136Q49 -134 48.5 -130Q48 -126 50 -122L93 -48Q94 -44 98 -42.5Q102 -41 107 -43L160 -64Q168 -58 176 -53L211 -83Q186 -93 169 -113L117 -92L101 -120L145 -154Q132 -192 145 -230L100 -263L116 -291L167 -270Q193 -300 231 -308L240 -363H272L280 -307Q318 -299 344 -269L395 -290L411 -263L367 -230Q370 -222 371 -213H414L459 -248Q462 -250 463 -254Q464 -258 462 -262ZM256 -277Q221 -277 196 -252Q171 -227 171 -192Q171 -162 190 -138Q209 -114 239 -108L341 -195Q340 -229 315.5 -253Q291 -277 256 -277ZM256 -149Q238 -149 225.5 -161.5Q213 -174 213 -192Q213 -210 225.5 -222.5Q238 -235 256 -235Q274 -235 286.5 -222.5Q299 -210 299 -192Q299 -174 286.5 -161.5Q274 -149 256 -149ZM256 -277Q221 -277 196 -252Q171 -227 171 -192Q171 -162 190 -138Q209 -114 239 -108L341 -195Q340 -229 315.5 -253Q291 -277 256 -277ZM256 -149Q238 -149 225.5 -161.5Q213 -174 213 -192Q213 -210 225.5 -222.5Q238 -235 256 -235Q274 -235 286.5 -222.5Q299 -210 299 -192Q299 -174 286.5 -161.5Q274 -149 256 -149Z"/>
</svg>