<svg xmlns="http://www.w3.org/2000/svg" viewBox="0 -512 512 512">
	<path fill="#000000" d="M256 -384Q204 -384 160 -358Q116 -332 90 -288Q64 -244 64 -192Q64 -140 90 -96Q116 -52 160 -26Q204 0 256 0Q321 0 373 -40L343 -70Q303 -43 256 -43Q215 -43 181 -63Q147 -83 127 -117Q107 -151 107 -192Q107 -233 127 -267Q147 -301 181 -321Q215 -341 256 -341Q297 -341 331 -321Q365 -301 385 -267Q405 -233 405 -192H341L427 -107L512 -192H448Q448 -244 422 -288Q396 -332 352 -358Q308 -384 256 -384ZM164 -167Q161 -165 163 -161L182 -128Q183 -125 188 -125L212 -135Q220 -130 228 -126L232 -101Q233 -97 237 -97H275Q277 -96 278.5 -97Q280 -98 280 -100L284 -125Q293 -129 300 -135L324 -125Q328 -124 330 -128L349 -160Q351 -164 348 -167L327 -182Q328 -192 327 -202L348 -218Q351 -220 349 -224L330 -257Q328 -261 324 -259L300 -250Q294 -254 284 -259L280 -284Q279 -288 275 -288H238Q234 -288 233 -284L230 -259Q220 -255 213 -250L189 -259Q184 -260 183 -256L163 -224Q162 -220 164 -217L186 -202Q185 -197 185 -192Q185 -187 186 -182ZM256 -160Q243 -160 233.5 -169.5Q224 -179 224 -192Q224 -205 233.5 -214.5Q243 -224 256 -224Q269 -224 278.5 -214.5Q288 -205 288 -192Q288 -179 278.5 -169.5Q269 -160 256 -160Z"/>
</svg>