<svg xmlns="http://www.w3.org/2000/svg" viewBox="0 -512 512 512">
	<path fill="#000000" d="M250 -21H241L233 -77Q197 -83 169 -115L117 -94L100 -122L145 -156Q132 -194 145 -233L100 -262L117 -290L169 -269Q194 -298 233 -307L239 -363H271L279 -307Q298 -304 315 -293.5Q332 -283 343 -269L395 -290L412 -262L367 -230Q373 -211 373 -192H384Q395 -192 416 -188V-192L414 -213L459 -247Q464 -253 461 -260L418 -335Q417 -339 414 -340Q411 -341 405 -341L352 -320Q341 -329 316 -341L307 -399Q309 -400 305.5 -402.5Q302 -405 299 -405H213Q210 -405 206.5 -402.5Q203 -400 203 -397L194 -339Q186 -337 172 -328L158 -320L107 -341Q101 -341 98 -340Q95 -339 92 -335L49 -260Q46 -255 53 -247L98 -213L96 -192L98 -171L53 -134Q48 -129 51 -122L94 -47Q95 -44 98 -43.5Q101 -43 107 -43L160 -64Q171 -55 196 -43L205 15Q205 18 208 20.5Q211 23 215 23H269Q262 14 257 1Q254 -6 250 -21ZM341 -186V-192Q341 -227 316 -252Q291 -277 256 -277Q221 -277 196 -252Q171 -227 171 -192Q171 -157 196 -132Q221 -107 256 -107Q267 -134 290 -155Q313 -176 341 -186ZM213 -192Q213 -210 225.5 -222.5Q238 -235 256 -235Q274 -235 286.5 -222.5Q299 -210 299 -192Q299 -174 286.5 -161.5Q274 -149 256 -149Q238 -149 225.5 -161.5Q213 -174 213 -192ZM384 -139V-171L337 -124L384 -77V-107Q406 -107 421.5 -91.5Q437 -76 437 -53Q437 -39 431 -30L454 -6Q474 -35 467 -70Q460 -105 431 -124Q413 -139 384 -139ZM384 0Q362 0 346.5 -15.5Q331 -31 331 -53Q331 -67 337 -77L314 -100Q294 -71 301 -36.5Q308 -2 337 17Q363 32 384 32V64L431 17L384 -32Z"/>
</svg>