<svg xmlns="http://www.w3.org/2000/svg" viewBox="0 -512 512 512">
	<path fill="#000000" d="M256 -384Q204 -384 160 -358Q116 -332 90 -288Q64 -244 64 -192H0L85 -107L171 -192H107Q107 -233 127 -267Q147 -301 181 -321Q215 -341 256 -341Q297 -341 331 -321Q365 -301 385 -267Q405 -233 405 -192Q405 -151 385 -117Q365 -83 331 -63Q297 -43 256 -43Q209 -43 169 -70L139 -40Q191 0 256 0Q308 0 352 -26Q396 -52 422 -96Q448 -140 448 -192Q448 -244 422 -288Q396 -332 352 -358Q308 -384 256 -384ZM348 -167L326 -182Q327 -187 327 -192Q327 -197 326 -202L348 -217Q350 -220 349 -224L329 -256Q328 -260 323 -259L299 -250Q292 -255 282 -259L279 -284Q278 -288 274 -288H237Q233 -288 232 -284L228 -259Q218 -254 212 -250L188 -259Q184 -261 182 -257L163 -224Q161 -220 164 -218L185 -202Q184 -192 185 -182L164 -167Q161 -164 163 -160L182 -128Q184 -124 188 -125L212 -135Q219 -129 228 -125L232 -100Q232 -98 233.5 -97Q235 -96 237 -97H275Q280 -97 280 -101L284 -126Q292 -130 300 -135L324 -125Q329 -125 330 -128L349 -161Q351 -165 348 -167ZM256 -160Q243 -160 233.5 -169.5Q224 -179 224 -192Q224 -205 233.5 -214.5Q243 -224 256 -224Q269 -224 278.5 -214.5Q288 -205 288 -192Q288 -179 278.5 -169.5Q269 -160 256 -160Z"/>
</svg>