<svg xmlns="http://www.w3.org/2000/svg" viewBox="0 -512 512 512">
	<path fill="#000000" d="M472 10L51 -411L24 -384L85 -323L50 -262Q48 -258 48.5 -254.5Q49 -251 52 -248L97 -213Q96 -201 96 -192Q96 -183 97 -171L52 -136Q49 -133 48.5 -129.5Q48 -126 50 -122L93 -48Q94 -45 98 -43.5Q102 -42 106 -44L159 -65Q177 -51 195 -44L203 12Q203 16 206 18.5Q209 21 213 21H299Q303 21 306 18.5Q309 16 309 12L317 -44Q332 -50 347 -61L445 37ZM256 -117Q225 -117 203 -139Q181 -161 181 -192Q181 -205 188 -220L284 -124Q270 -117 256 -117ZM250 -266L183 -334L195 -340L203 -396Q203 -400 206 -402.5Q209 -405 213 -405H299Q303 -405 306 -402.5Q309 -400 309 -396L317 -340Q335 -333 353 -319L406 -340Q410 -342 414 -340.5Q418 -339 419 -336L462 -262Q464 -258 463.5 -254.5Q463 -251 460 -248L415 -213Q416 -201 416 -192Q416 -183 415 -171L460 -136Q463 -133 463.5 -129.5Q464 -126 462 -122L437 -79L330 -186Q331 -188 331 -192Q331 -223 309 -245Q287 -267 256 -267Q252 -267 250 -266Z"/>
</svg>