<svg xmlns="http://www.w3.org/2000/svg" viewBox="0 -512 512 512">
	<path fill="#000000" d="M339 -54Q361 -54 376 -69.5Q391 -85 391 -106.5Q391 -128 376 -143.5Q361 -159 339 -159Q317 -159 302 -143.5Q287 -128 287 -106.5Q287 -85 302 -69.5Q317 -54 339 -54ZM450 -92L482 -67Q487 -63 483 -58L454 -6Q450 -1 444 -3L407 -18Q396 -9 382 -3L376 36Q376 39 374 41Q372 43 369 43H309Q303 43 302 36L296 -3Q283 -9 271 -18L234 -3Q231 -2 228.5 -3Q226 -4 225 -6L195 -58Q192 -63 197 -67L228 -92L227 -107L228 -121L197 -146Q192 -150 195 -156L225 -207Q226 -210 228.5 -211Q231 -212 234 -211L271 -195Q284 -205 296 -210L302 -250Q303 -256 309 -256H369Q372 -256 374 -254Q376 -252 376 -250L382 -210Q395 -205 407 -195L444 -211Q450 -213 454 -207L483 -156Q487 -150 482 -146L450 -121L451 -107ZM143 -276Q157 -276 166.5 -285.5Q176 -295 176 -309Q176 -323 166.5 -333Q157 -343 143 -343Q129 -343 119 -333Q109 -323 109 -309Q109 -295 119 -285.5Q129 -276 143 -276ZM214 -300L235 -284Q237 -281 235 -278L216 -245Q214 -241 210 -243L186 -252L171 -243L167 -217Q166 -213 162 -213H124Q119 -213 119 -217L115 -243L99 -252L75 -243Q71 -241 69 -245L50 -278Q48 -281 51 -284L71 -300V-309V-319L51 -335Q48 -337 50 -341L69 -374Q71 -378 75 -376L99 -367L115 -376L119 -401Q119 -405 124 -405H162Q166 -405 167 -401L171 -376L186 -367L210 -376Q214 -378 216 -374L235 -341Q237 -337 235 -335L214 -319L215 -309Z"/>
</svg>