<svg xmlns="http://www.w3.org/2000/svg" viewBox="0 -512 512 512">
	<path fill="#000000" d="M192 21Q183 21 177 15Q171 9 171 0V-64H85Q68 -64 55.5 -76.5Q43 -89 43 -107V-363Q43 -380 55.5 -392.5Q68 -405 85 -405H427Q444 -405 456.5 -392.5Q469 -380 469 -363V-107Q469 -89 456.5 -76.5Q444 -64 427 -64H297L218 15Q211 21 203 21ZM213 -107V-41L279 -107H427V-363H85V-107ZM338 -273L316 -252L272 -295L294 -317Q297 -320 302 -320Q307 -320 310 -317L338 -290Q341 -287 341 -282Q341 -277 338 -273ZM171 -194L260 -283L304 -239L215 -149H171Z"/>
</svg>