<svg xmlns="http://www.w3.org/2000/svg" viewBox="0 -512 512 512">
	<path fill="#000000" d="M331 -405Q371 -405 399 -377Q427 -349 427 -309Q427 -281 412 -258L478 -192L448 -162L382 -228Q359 -213 331 -213Q291 -213 263 -241Q235 -269 235 -309Q235 -349 263 -377Q291 -405 331 -405ZM331 -363Q309 -363 293 -347Q277 -331 277 -309Q277 -287 293 -271.5Q309 -256 331 -256Q353 -256 368.5 -271.5Q384 -287 384 -309Q384 -331 368.5 -347Q353 -363 331 -363ZM85 -363H203Q192 -335 192 -309Q192 -272 210.5 -240Q229 -208 261 -189.5Q293 -171 331 -171Q352 -171 372 -177L427 -123V-107Q427 -89 414.5 -76.5Q402 -64 384 -64H297L218 15Q211 21 203 21H192Q183 21 177 15Q171 9 171 0V-64H85Q68 -64 55.5 -76.5Q43 -89 43 -107V-320Q43 -338 55.5 -350.5Q68 -363 85 -363Z"/>
</svg>