<svg xmlns="http://www.w3.org/2000/svg" viewBox="0 -512 512 512">
	<path fill="#000000" d="M192 21Q183 21 177 15Q171 9 171 0V-64H85Q68 -64 55.5 -76.5Q43 -89 43 -107V-363Q43 -380 55.5 -392.5Q68 -405 85 -405H427Q444 -405 456.5 -392.5Q469 -380 469 -363V-107Q469 -89 456.5 -76.5Q444 -64 427 -64H297L218 15Q211 21 203 21ZM213 -107V-41L279 -107H427V-363H85V-107ZM341 -149H171V-171Q171 -190 203 -203Q229 -213 256 -213Q283 -213 309 -203Q341 -190 341 -171ZM256 -320Q274 -320 286.5 -307.5Q299 -295 299 -277.5Q299 -260 286.5 -247.5Q274 -235 256 -235Q238 -235 225.5 -247.5Q213 -260 213 -277.5Q213 -295 225.5 -307.5Q238 -320 256 -320Z"/>
</svg>