<svg xmlns="http://www.w3.org/2000/svg" viewBox="0 -512 512 512">
	<path fill="#000000" d="M341 -320Q350 -320 356.5 -314Q363 -308 363 -299Q363 -290 356.5 -283.5Q350 -277 341 -277Q332 -277 326 -283.5Q320 -290 320 -299Q320 -308 326 -314Q332 -320 341 -320ZM341 -384Q384 -384 419 -360.5Q454 -337 469 -299Q454 -261 419 -237Q384 -213 341 -213Q298 -213 263.5 -237Q229 -261 213 -299Q229 -337 263.5 -360.5Q298 -384 341 -384ZM341 -352Q319 -352 303.5 -336.5Q288 -321 288 -299Q288 -277 303.5 -261Q319 -245 341 -245Q363 -245 379 -261Q395 -277 395 -299Q395 -321 379 -336.5Q363 -352 341 -352ZM384 -176V-107H279L213 -41V-107H85V-320H176Q187 -344 203 -363H85Q68 -363 55.5 -350.5Q43 -338 43 -320V-107Q43 -89 55.5 -76.5Q68 -64 85 -64H171V0Q171 9 177 15Q183 21 192 21H203Q211 21 218 15L297 -64H384Q402 -64 414.5 -76.5Q427 -89 427 -107V-192Q407 -181 384 -176Z"/>
</svg>