<svg xmlns="http://www.w3.org/2000/svg" viewBox="0 -512 512 512">
	<path fill="#000000" d="M21 -373L49 -400L464 15L437 43L378 -17Q323 21 256 21Q214 21 174.5 5Q135 -11 105 -41Q75 -71 59 -110.5Q43 -150 43 -192Q43 -259 81 -314ZM149 -85L200 -194L112 -283Q85 -240 85 -193Q85 -146 108 -106.5Q131 -67 170.5 -44Q210 -21 257 -21Q304 -21 347 -48L258 -136ZM363 -299L312 -191L255 -248ZM256 -405Q298 -405 337.5 -389Q377 -373 407 -343Q437 -313 453 -273.5Q469 -234 469 -192Q469 -125 432 -71L401 -102Q427 -143 427 -192Q427 -238 404 -277.5Q381 -317 341.5 -340Q302 -363 256 -363Q207 -363 166 -337L135 -368Q189 -405 256 -405Z"/>
</svg>