<svg xmlns="http://www.w3.org/2000/svg" viewBox="0 -512 512 512">
	<path fill="#000000" d="M303 -145L128 -64L209 -239L384 -320ZM256 -405Q214 -405 174.5 -389Q135 -373 105 -343Q75 -313 59 -273.5Q43 -234 43 -192Q43 -150 59 -110.5Q75 -71 105 -41Q135 -11 174.5 5Q214 21 256 21Q298 21 337.5 5Q377 -11 407 -41Q437 -71 453 -110.5Q469 -150 469 -192Q469 -234 453 -273.5Q437 -313 407 -343Q377 -373 337.5 -389Q298 -405 256 -405ZM256 -215Q246 -215 239.5 -208.5Q233 -202 233 -192Q233 -182 239.5 -175.5Q246 -169 256 -169Q266 -169 272.5 -175.5Q279 -182 279 -192Q279 -202 272.5 -208.5Q266 -215 256 -215Z"/>
</svg>