<svg xmlns="http://www.w3.org/2000/svg" viewBox="0 -512 512 512">
	<path fill="#000000" d="M224 -292L193 -323L238 -395Q244 -405 256 -405Q268 -405 274 -395L461 -92Q469 -79 469 -64Q469 -56 467 -49L378 -138L384 -137L256 -343ZM472 10L445 37L409 1Q353 21 256 21Q133 21 80 -9Q43 -31 43 -64Q43 -79 51 -93L152 -256L24 -384L51 -411ZM128 -137Q180 -149 256 -149H258L183 -225ZM374 -33L303 -105Q279 -107 256 -107Q210 -107 170.5 -101Q131 -95 108 -85.5Q85 -76 85 -64Q85 -52 108 -42.5Q131 -33 170.5 -27Q210 -21 256 -21Q325 -21 374 -33Z"/>
</svg>