<svg xmlns="http://www.w3.org/2000/svg" viewBox="0 -512 512 512">
	<path fill="#000000" d="M384 -256H427V-363H469V-256Q469 -238 456.5 -225.5Q444 -213 427 -213H384V-171L320 -235L384 -299ZM299 -235Q299 -252 286.5 -264.5Q274 -277 256 -277Q238 -277 225.5 -264.5Q213 -252 213 -234.5Q213 -217 225.5 -204.5Q238 -192 256 -192Q274 -192 286.5 -204.5Q299 -217 299 -235ZM43 -213V-107H85V-213H128V-171L192 -235L128 -299V-256H85Q68 -256 55.5 -243.5Q43 -231 43 -213ZM320 -107L256 -171L192 -107H235V-64Q235 -46 247.5 -33.5Q260 -21 277 -21H384V-64H277V-107Z"/>
</svg>