<svg xmlns="http://www.w3.org/2000/svg" viewBox="0 -512 512 512">
	<path fill="#000000" d="M128 -299H384Q413 -299 437.5 -284.5Q462 -270 476.5 -245.5Q491 -221 491 -192Q491 -163 476.5 -138.5Q462 -114 437.5 -99.5Q413 -85 384 -85Q358 -85 336 -96.5Q314 -108 299 -128H213Q198 -108 176 -96.5Q154 -85 128 -85Q99 -85 74.5 -99.5Q50 -114 35.5 -138.5Q21 -163 21 -192Q21 -221 35.5 -245.5Q50 -270 74.5 -284.5Q99 -299 128 -299ZM421 -245Q410 -245 402.5 -237.5Q395 -230 395 -219Q395 -208 402.5 -200Q410 -192 421 -192Q432 -192 440 -200Q448 -208 448 -219Q448 -230 440 -237.5Q432 -245 421 -245ZM368 -192Q357 -192 349 -184Q341 -176 341 -165Q341 -154 349 -146.5Q357 -139 368 -139Q379 -139 387 -146.5Q395 -154 395 -165Q395 -176 387 -184Q379 -192 368 -192ZM107 -256V-213H64V-171H107V-128H149V-171H192V-213H149V-256Z"/>
</svg>