<svg xmlns="http://www.w3.org/2000/svg" viewBox="0 -512 512 512">
	<path fill="#000000" d="M85 -43H213V0H85Q68 0 55.5 -12.5Q43 -25 43 -43V-341Q43 -359 55.5 -371.5Q68 -384 85 -384H341L427 -299V-253L384 -211V-281L324 -341H85ZM299 -235V-320H107V-235ZM436 -186Q432 -189 427.5 -189Q423 -189 419 -186L398 -164L442 -121L463 -142Q466 -145 466 -150Q466 -155 463 -158ZM256 -23V21H300L429 -108L385 -152ZM299 -128Q299 -155 280 -173.5Q261 -192 234.5 -192Q208 -192 189.5 -173.5Q171 -155 171 -128Q171 -101 189.5 -82.5Q208 -64 235 -64H237L299 -125Z"/>
</svg>