<svg xmlns="http://www.w3.org/2000/svg" viewBox="0 -512 512 512">
	<path fill="#000000" d="M256 -405Q198 -405 149 -376.5Q100 -348 71.5 -299Q43 -250 43 -192Q43 -134 71.5 -85Q100 -36 149 -7.5Q198 21 256 21Q314 21 363 -7.5Q412 -36 440.5 -85Q469 -134 469 -192Q469 -250 440.5 -299Q412 -348 363 -376.5Q314 -405 256 -405ZM180 -140L151 -153Q160 -171 160 -191.5Q160 -212 151 -231L180 -244Q192 -218 192 -191Q192 -167 180 -140ZM246 -108L218 -122Q235 -157 235 -194Q235 -231 218 -262L246 -278Q267 -242 267 -194.5Q267 -147 246 -108ZM313 -78L284 -93Q309 -142 309 -192Q309 -242 284 -292L313 -306Q341 -249 341 -192Q341 -135 313 -78Z"/>
</svg>