<svg xmlns="http://www.w3.org/2000/svg" viewBox="0 -512 512 512">
	<path fill="#000000" d="M373 -299Q405 -299 432 -283Q459 -267 475 -240Q491 -213 491 -181Q491 -158 482 -136.5Q473 -115 456.5 -98.5Q440 -82 418.5 -73Q397 -64 373 -64Q346 -64 322.5 -75.5Q299 -87 283 -107H229Q213 -87 189.5 -75.5Q166 -64 139 -64Q115 -64 93.5 -73Q72 -82 55.5 -98.5Q39 -115 30 -136.5Q21 -158 21 -181.5Q21 -205 30 -226.5Q39 -248 55.5 -264.5Q72 -281 93.5 -290Q115 -299 139 -299ZM139 -256Q108 -256 86 -234Q64 -212 64 -181Q64 -150 86 -128.5Q108 -107 139 -107Q161 -107 179 -118.5Q197 -130 206 -149H306Q315 -130 333 -118.5Q351 -107 373 -107Q404 -107 426 -128.5Q448 -150 448 -181Q448 -212 426 -234Q404 -256 373 -256ZM123 -229H155V-197H187V-165H155V-133H123V-165H91V-197H123ZM357 -181Q366 -181 372.5 -175Q379 -169 379 -160Q379 -151 372.5 -145Q366 -139 357 -139Q348 -139 342 -145Q336 -151 336 -160Q336 -169 342 -175Q348 -181 357 -181ZM400 -224Q409 -224 415 -218Q421 -212 421 -203Q421 -194 415 -187.5Q409 -181 400 -181Q391 -181 385 -187.5Q379 -194 379 -203Q379 -212 385 -218Q391 -224 400 -224Z"/>
</svg>