<svg xmlns="http://www.w3.org/2000/svg" viewBox="0 -512 512 512">
	<path fill="#000000" d="M170 -107L107 -43Q95 -32 80 -32Q65 -32 54 -43Q43 -54 43 -69V-75L64 -232Q67 -269 94.5 -294.5Q122 -320 160 -320H352Q390 -320 417.5 -294.5Q445 -269 448 -232L469 -75V-69Q469 -54 458 -43Q447 -32 432 -32Q417 -32 405 -43L342 -107ZM149 -277V-235H107V-213H149V-171H171V-213H213V-235H171V-277ZM352 -277Q345 -277 340.5 -272.5Q336 -268 336 -261.5Q336 -255 340.5 -250Q345 -245 352 -245Q359 -245 363.5 -250Q368 -255 368 -261.5Q368 -268 363.5 -272.5Q359 -277 352 -277ZM315 -240Q308 -240 303.5 -235.5Q299 -231 299 -224Q299 -217 303.5 -212.5Q308 -208 314.5 -208Q321 -208 326 -212.5Q331 -217 331 -224Q331 -231 326 -235.5Q321 -240 315 -240ZM389 -240Q383 -240 378 -235.5Q373 -231 373 -224Q373 -217 378 -212.5Q383 -208 389.5 -208Q396 -208 400.5 -212.5Q405 -217 405 -224Q405 -231 400.5 -235.5Q396 -240 389 -240ZM352 -203Q345 -203 340.5 -198Q336 -193 336 -186.5Q336 -180 340.5 -175.5Q345 -171 352 -171Q359 -171 363.5 -175.5Q368 -180 368 -186.5Q368 -193 363.5 -198Q359 -203 352 -203Z"/>
</svg>