<svg xmlns="http://www.w3.org/2000/svg" viewBox="0 -512 512 512">
	<path fill="#000000" d="M149 21H192V64H149ZM235 21H277V64H235ZM320 21H363V64H320ZM363 -405H107Q89 -405 76.5 -392.5Q64 -380 64 -363V-64Q64 -46 76.5 -33.5Q89 -21 107 -21H405Q423 -21 435.5 -33.5Q448 -46 448 -64V-320ZM405 -64H107V-363H345L405 -302ZM256 -213Q229 -213 210.5 -194.5Q192 -176 192 -149.5Q192 -123 210.5 -104Q229 -85 256 -85Q283 -85 301.5 -104Q320 -123 320 -149.5Q320 -176 301.5 -194.5Q283 -213 256 -213ZM128 -341H320V-256H128Z"/>
</svg>