<svg xmlns="http://www.w3.org/2000/svg" viewBox="0 -512 512 512">
	<path fill="#000000" d="M427 -363H85Q68 -363 55.5 -350.5Q43 -338 43 -320V-64Q43 -46 55.5 -33.5Q68 -21 85 -21H427Q444 -21 456.5 -33.5Q469 -46 469 -64V-320Q469 -338 456.5 -350.5Q444 -363 427 -363ZM427 -64H85V-320H427ZM85 -448H427V-405H85ZM85 21H427V64H85ZM256 -192Q278 -192 293.5 -207.5Q309 -223 309 -245Q309 -267 293.5 -283Q278 -299 256 -299Q234 -299 218.5 -283Q203 -267 203 -245Q203 -223 218.5 -207.5Q234 -192 256 -192ZM256 -267Q265 -267 271 -260.5Q277 -254 277 -245.5Q277 -237 271 -230.5Q265 -224 256 -224Q247 -224 241 -230.5Q235 -237 235 -245.5Q235 -254 241 -260.5Q247 -267 256 -267ZM363 -107Q363 -127 343 -143Q327 -156 300 -164Q276 -171 256 -171Q236 -171 212 -164Q185 -156 169 -143Q149 -127 149 -107V-85H363ZM188 -117Q198 -126 218 -132.5Q238 -139 256 -139Q274 -139 294 -132.5Q314 -126 324 -117Z"/>
</svg>