<svg xmlns="http://www.w3.org/2000/svg" viewBox="0 -512 512 512">
	<path fill="#000000" d="M405 -21H107V-363H149V-299H363V-363H405ZM256 -405Q265 -405 271 -399Q277 -393 277 -384Q277 -375 271 -369Q265 -363 256 -363Q247 -363 241 -369Q235 -375 235 -384Q235 -393 241 -399Q247 -405 256 -405ZM405 -405H316Q309 -424 292.5 -436Q276 -448 256 -448Q236 -448 219.5 -436Q203 -424 196 -405H107Q89 -405 76.5 -392.5Q64 -380 64 -363V-21Q64 -4 76.5 8.5Q89 21 107 21H405Q423 21 435.5 8.5Q448 -4 448 -21V-363Q448 -380 435.5 -392.5Q423 -405 405 -405Z"/>
</svg>