<svg xmlns="http://www.w3.org/2000/svg" viewBox="0 -512 512 512">
	<path fill="#000000" d="M427 -448H85V-405H427ZM85 64H427V21H85ZM427 -363H85Q68 -363 55.5 -350.5Q43 -338 43 -320V-64Q43 -46 55.5 -33.5Q68 -21 85 -21H427Q444 -21 456.5 -33.5Q469 -46 469 -64V-320Q469 -338 456.5 -350.5Q444 -363 427 -363ZM256 -304Q276 -304 290 -290Q304 -276 304 -256Q304 -236 290 -222Q276 -208 256 -208Q236 -208 222 -222Q208 -236 208 -256Q208 -276 222 -290Q236 -304 256 -304ZM363 -85H149V-117Q149 -134 169 -147Q186 -158 213 -165Q236 -171 256 -171Q276 -171 299 -165Q326 -158 343 -147Q363 -134 363 -117Z"/>
</svg>