<svg xmlns="http://www.w3.org/2000/svg" viewBox="0 -512 512 512">
	<path fill="#000000" d="M21 -299H64V0H363V43H64Q46 43 33.5 30.5Q21 18 21 0ZM405 -427H149Q132 -427 119.5 -414.5Q107 -402 107 -384V-85Q107 -68 119.5 -55.5Q132 -43 149 -43H448Q466 -43 478.5 -55.5Q491 -68 491 -85V-341ZM448 -85H149V-384H388L448 -324ZM299 -235Q272 -235 253.5 -216Q235 -197 235 -170.5Q235 -144 253.5 -125.5Q272 -107 298.5 -107Q325 -107 344 -125.5Q363 -144 363 -170.5Q363 -197 344 -216Q325 -235 299 -235ZM171 -363H363V-277H171Z"/>
</svg>