<svg xmlns="http://www.w3.org/2000/svg" viewBox="0 -512 512 512">
	<path fill="#000000" d="M405 -384L277 -256L320 -213L469 -363V-384ZM256 -181Q252 -181 248.5 -184.5Q245 -188 245 -192Q245 -196 248.5 -199.5Q252 -203 256 -203Q260 -203 263.5 -199.5Q267 -196 267 -192Q267 -188 263.5 -184.5Q260 -181 256 -181ZM128 -21Q110 -21 97.5 -33.5Q85 -46 85 -64Q85 -82 97.5 -94.5Q110 -107 128 -107Q146 -107 158.5 -94.5Q171 -82 171 -64Q171 -46 158.5 -33.5Q146 -21 128 -21ZM128 -277Q110 -277 97.5 -289.5Q85 -302 85 -320Q85 -338 97.5 -350.5Q110 -363 128 -363Q146 -363 158.5 -350.5Q171 -338 171 -320Q171 -302 158.5 -289.5Q146 -277 128 -277ZM206 -285Q213 -302 213 -320Q213 -355 188 -380Q163 -405 128 -405Q93 -405 68 -380Q43 -355 43 -320Q43 -285 68 -260Q93 -235 128 -235Q146 -235 163 -242L213 -192L163 -142Q146 -149 128 -149Q93 -149 68 -124Q43 -99 43 -64Q43 -29 68 -4Q93 21 128 21Q163 21 188 -4Q213 -29 213 -64Q213 -82 206 -99L256 -149L405 0H469V-21Z"/>
</svg>