<svg xmlns="http://www.w3.org/2000/svg" viewBox="0 -512 512 512">
	<path fill="#000000" d="M358 43Q344 37 341 21Q341 17 342.5 12.5Q344 8 350 -3Q399 -91 397 -192Q399 -289 352 -375Q344 -391 340 -403Q342 -416 352 -423Q359 -426 367 -425.5Q375 -425 382 -421Q392 -408 397 -396Q432 -329 444 -256Q451 -198 446 -139Q436 -64 402 4Q391 25 384.5 34Q378 43 372 43ZM265 -4Q256 -7 251 -15Q246 -23 248 -33Q248 -34 255 -49L260 -59Q299 -133 292 -216Q287 -275 259 -328Q249 -348 247.5 -355Q246 -362 252.5 -370Q259 -378 269.5 -379Q280 -380 289 -373Q312 -340 325 -300Q346 -239 343 -175.5Q340 -112 313 -53Q300 -23 289 -12Q278 -1 265 -6ZM169 -52Q157 -57 154 -70Q154 -80 163 -97Q187 -140 187 -189.5Q187 -239 163 -282Q153 -302 152.5 -309.5Q152 -317 159.5 -325Q167 -333 177 -332Q187 -331 194 -324.5Q201 -318 210 -301Q238 -250 238.5 -191.5Q239 -133 210 -81Q202 -65 196 -59Q190 -53 182 -52Q174 -51 169 -53ZM79 -97Q68 -103 64 -114Q62 -120 64 -125.5Q66 -131 73 -142Q89 -164 87 -192Q90 -220 73 -243Q69 -249 64 -260Q62 -270 68 -278.5Q74 -287 85 -289Q94 -290 101 -286Q108 -282 116 -270Q139 -234 139 -192Q139 -150 116 -115Q100 -91 80 -97Z"/>
</svg>