<svg xmlns="http://www.w3.org/2000/svg" viewBox="0 -512 512 512">
	<path fill="#000000" d="M448 -198V-299L363 -384H107Q89 -384 76.5 -371.5Q64 -359 64 -341V-43Q64 -25 76.5 -12.5Q89 0 107 0H250Q240 -23 237 -47Q217 -53 204.5 -69.5Q192 -86 192 -107Q192 -134 210.5 -152.5Q229 -171 256 -171Q262 -171 275 -166Q296 -189 324 -201Q352 -213 384 -213Q421 -213 448 -198ZM320 -256H107V-341H320ZM463 -51V-73L486 -90Q491 -94 489 -96L467 -132Q467 -134 461 -134L435 -124Q422 -132 416 -134L412 -162Q412 -164 410.5 -165Q409 -166 407 -166H365Q358 -166 358 -162L354 -134L337 -124L311 -134Q307 -134 305 -132L284 -96Q284 -92 286 -90L309 -73V-51L286 -34Q282 -30 284 -28L305 9Q307 11 311 11L337 0Q345 7 354 11L358 38Q363 43 365 43H407Q409 43 410.5 41.5Q412 40 412 38L416 11L433 0L459 9Q463 9 465 6L486 -30Q488 -31 488 -32.5Q488 -34 486 -34ZM384 -32Q371 -32 361.5 -41.5Q352 -51 352 -64Q352 -77 361.5 -86.5Q371 -96 384 -96Q397 -96 406.5 -86.5Q416 -77 416 -64Q416 -51 406.5 -41.5Q397 -32 384 -32Z"/>
</svg>