<svg xmlns="http://www.w3.org/2000/svg" viewBox="0 -512 512 512">
	<path fill="#000000" d="M203 -320Q216 -320 225.5 -310.5Q235 -301 235 -288Q235 -275 225.5 -265.5Q216 -256 202.5 -256Q189 -256 180 -265.5Q171 -275 171 -288Q171 -301 180 -310.5Q189 -320 203 -320ZM245 -213Q232 -213 222.5 -204Q213 -195 213 -181.5Q213 -168 222.5 -158.5Q232 -149 245.5 -149Q259 -149 268 -158.5Q277 -168 277 -181.5Q277 -195 268 -204Q259 -213 245 -213ZM235 -107Q221 -107 212 -97.5Q203 -88 203 -75Q203 -58 217 -48Q175 -59 145 -92Q115 -125 109 -168Q107 -179 107 -200Q108 -188 117 -179.5Q126 -171 139 -171Q152 -171 161.5 -180Q171 -189 171 -202.5Q171 -216 161.5 -225.5Q152 -235 139 -235Q128 -235 119.5 -228.5Q111 -222 108 -212Q115 -261 150 -297Q185 -333 235 -340V-309Q235 -296 244 -286.5Q253 -277 267 -277H277V-267Q277 -253 286.5 -244Q296 -235 309 -235H341V-224Q341 -211 350.5 -201.5Q360 -192 373 -192H387L414 -219Q423 -228 436 -232Q433 -234 430 -234L384 -235V-256Q384 -269 373 -275Q368 -277 363 -277H320V-299Q320 -312 309 -317Q304 -320 299 -320H277V-363Q277 -376 267 -381Q261 -384 256 -384Q204 -384 160 -358Q116 -332 90 -288Q64 -244 64 -192Q64 -143 86.5 -101.5Q109 -60 148 -33.5Q187 -7 235 -1V-40L266 -71Q267 -73 267 -75Q267 -88 257.5 -97.5Q248 -107 235 -107ZM320 -139Q320 -133 322 -127L363 -169Q357 -171 352 -171Q339 -171 329.5 -161.5Q320 -152 320 -139ZM487 -161L459 -189Q456 -192 451.5 -192Q447 -192 444 -189L423 -168L467 -124L487 -145Q491 -148 491 -152.5Q491 -157 487 -161ZM277 -22V21H321L452 -109L408 -153Z"/>
</svg>