<svg xmlns="http://www.w3.org/2000/svg" viewBox="0 -512 512 512">
	<path fill="#000000" d="M181 -277Q168 -277 158.5 -286.5Q149 -296 149 -309.5Q149 -323 158.5 -332Q168 -341 181.5 -341Q195 -341 204 -332Q213 -323 213 -309.5Q213 -296 204 -286.5Q195 -277 181 -277ZM352 -192H320V-85L397 -39L413 -65L352 -101ZM491 -107Q491 -66 471 -31.5Q451 3 416.5 23Q382 43 341 43Q304 43 271.5 25.5Q239 8 218 -22Q170 -26 129.5 -52.5Q89 -79 66 -121.5Q43 -164 43 -213Q43 -265 68.5 -309.5Q94 -354 138.5 -379.5Q183 -405 235 -405H240Q247 -403 250 -399Q256 -393 256 -384V-341H277H283Q289 -339 293 -335Q299 -329 299 -320V-299H341L347 -298Q353 -296 357 -292Q363 -287 363 -277V-256H405L412 -255Q420 -252 424 -245Q426 -236 426 -230Q456 -209 473.5 -176.5Q491 -144 491 -107ZM195 -70Q181 -79 181 -96Q181 -110 193 -120Q195 -149 209 -175Q201 -179 196.5 -186.5Q192 -194 192 -203Q192 -216 201.5 -225.5Q211 -235 224.5 -235Q238 -235 248 -223Q280 -249 320 -254V-256H288Q275 -256 265.5 -265.5Q256 -275 256 -288V-299H245Q232 -299 222.5 -308Q213 -317 213 -331V-361Q164 -354 128.5 -318Q93 -282 87 -233Q90 -243 98.5 -249.5Q107 -256 117 -256Q131 -256 140 -246.5Q149 -237 149 -224Q149 -211 140 -201.5Q131 -192 118 -192Q105 -192 95.5 -200.5Q86 -209 85 -221Q85 -200 87 -189Q94 -147 123.5 -114Q153 -81 195 -70ZM448 -107Q448 -136 433.5 -160.5Q419 -185 394.5 -199Q370 -213 341 -213Q312 -213 287.5 -199Q263 -185 249 -160.5Q235 -136 235 -107Q235 -78 249 -53.5Q263 -29 287.5 -14.5Q312 0 341 0Q370 0 394.5 -14.5Q419 -29 433.5 -53.5Q448 -78 448 -107Z"/>
</svg>