<svg xmlns="http://www.w3.org/2000/svg" viewBox="0 -512 512 512">
	<path fill="#000000" d="M277 -203Q277 -189 268 -180Q259 -171 245.5 -171Q232 -171 222.5 -180Q213 -189 213 -202.5Q213 -216 222.5 -225.5Q232 -235 245.5 -235Q259 -235 268 -225.5Q277 -216 277 -203ZM235 -309Q235 -323 225.5 -332Q216 -341 202.5 -341Q189 -341 180 -332Q171 -323 171 -309.5Q171 -296 180 -286.5Q189 -277 202.5 -277Q216 -277 225.5 -286.5Q235 -296 235 -309ZM448 -213Q448 -161 422 -117Q396 -73 352 -47Q308 -21 256 -21Q204 -21 160 -47Q116 -73 90 -117Q64 -161 64 -213Q64 -265 90 -309.5Q116 -354 160 -379.5Q204 -405 256 -405H262Q268 -403 272 -399Q277 -393 277 -384V-341H299H304Q311 -339 314 -335Q320 -329 320 -320V-299H363L368 -298Q375 -296 378 -292Q384 -287 384 -277V-256H427L434 -255Q442 -252 445 -245Q448 -230 448 -213ZM405 -213H373Q360 -213 350.5 -222.5Q341 -232 341 -245V-256H309Q296 -256 286.5 -265.5Q277 -275 277 -288V-299H267Q253 -299 244 -308Q235 -317 235 -331V-361Q185 -354 150 -318Q115 -282 108 -233Q111 -243 119.5 -249.5Q128 -256 139 -256Q152 -256 161.5 -246.5Q171 -237 171 -224Q171 -211 161.5 -201.5Q152 -192 139 -192Q126 -192 117 -200.5Q108 -209 107 -221Q107 -200 109 -189Q115 -147 145 -114Q175 -81 217 -70Q203 -79 203 -96Q203 -109 212 -118.5Q221 -128 234.5 -128Q248 -128 257.5 -118.5Q267 -109 267 -97Q267 -85 259.5 -76Q252 -67 241 -65Q285 -61 323 -80Q361 -99 383 -134.5Q405 -170 405 -213ZM352 -192Q339 -192 329.5 -182.5Q320 -173 320 -160Q320 -147 329.5 -137.5Q339 -128 352 -128Q365 -128 374.5 -137.5Q384 -147 384 -160Q384 -173 374.5 -182.5Q365 -192 352 -192ZM149 64H192V21H149ZM320 64H363V21H320ZM235 64H277V21H235Z"/>
</svg>