<svg xmlns="http://www.w3.org/2000/svg" viewBox="0 -512 512 512">
	<path fill="#000000" d="M320 -138Q320 -138 320 -139Q320 -152 329.5 -161.5Q339 -171 352 -171Q361 -171 369 -166Q388 -171 405 -171Q426 -171 446 -164Q448 -178 448 -192Q448 -209 445 -224Q442 -231 434 -233Q430 -235 427 -235H384V-256Q384 -269 373 -275Q368 -277 363 -277H320V-299Q320 -312 309 -317Q304 -320 299 -320H277V-363Q277 -376 267 -381Q261 -384 256 -384Q204 -384 160 -358Q116 -332 90 -288Q64 -244 64 -192Q64 -140 90 -96Q116 -52 160 -26Q204 0 256 0Q270 0 284 -2Q277 -22 277 -43Q277 -71 288.5 -95.5Q300 -120 320 -138ZM139 -171Q125 -171 116 -180Q107 -189 107 -202.5Q107 -216 116 -225.5Q125 -235 138.5 -235Q152 -235 161.5 -225.5Q171 -216 171 -202.5Q171 -189 161.5 -180Q152 -171 139 -171ZM171 -288Q171 -301 180 -310.5Q189 -320 202.5 -320Q216 -320 225.5 -310.5Q235 -301 235 -288Q235 -275 225.5 -265.5Q216 -256 202.5 -256Q189 -256 180 -265.5Q171 -275 171 -288ZM235 -43Q221 -43 212 -52Q203 -61 203 -74.5Q203 -88 212 -97.5Q221 -107 234.5 -107Q248 -107 257.5 -97.5Q267 -88 267 -74.5Q267 -61 257.5 -52Q248 -43 235 -43ZM245 -149Q232 -149 222.5 -158.5Q213 -168 213 -181.5Q213 -195 222.5 -204Q232 -213 245.5 -213Q259 -213 268 -204Q277 -195 277 -181.5Q277 -168 268 -158.5Q259 -149 245 -149ZM491 -64V-21H320V-64Z"/>
</svg>