<svg xmlns="http://www.w3.org/2000/svg" viewBox="0 -512 512 512">
	<path fill="#000000" d="M384 -235H341V-256Q341 -269 331 -275Q325 -277 320 -277H277V-299Q277 -312 267 -317Q261 -320 256 -320H235V-363Q235 -376 224 -381Q219 -384 213 -384Q161 -384 117 -358.5Q73 -333 47 -288.5Q21 -244 21 -192Q21 -140 47 -95.5Q73 -51 117 -25.5Q161 0 213.5 0Q266 0 310 -25.5Q354 -51 379.5 -95.5Q405 -140 405 -192Q405 -213 403 -224Q399 -231 391 -233Q387 -235 384 -235ZM96 -171Q83 -171 73.5 -180.5Q64 -190 64 -202.5Q64 -215 73.5 -225Q83 -235 96 -235Q109 -235 118.5 -225Q128 -215 128 -202.5Q128 -190 118.5 -180.5Q109 -171 96 -171ZM128 -288Q128 -301 137.5 -310.5Q147 -320 160 -320Q173 -320 182.5 -310.5Q192 -301 192 -288Q192 -275 182.5 -265.5Q173 -256 160 -256Q147 -256 137.5 -265.5Q128 -275 128 -288ZM192 -43Q179 -43 169.5 -52.5Q160 -62 160 -74.5Q160 -87 169.5 -97Q179 -107 192 -107Q205 -107 214.5 -97Q224 -87 224 -74.5Q224 -62 214.5 -52.5Q205 -43 192 -43ZM203 -149Q190 -149 180.5 -159Q171 -169 171 -181.5Q171 -194 180.5 -203.5Q190 -213 202.5 -213Q215 -213 225 -203.5Q235 -194 235 -181.5Q235 -169 225 -159Q215 -149 203 -149ZM309 -107Q297 -107 287 -116.5Q277 -126 277 -138.5Q277 -151 287 -161Q297 -171 309.5 -171Q322 -171 331.5 -161Q341 -151 341 -138.5Q341 -126 331.5 -116.5Q322 -107 309 -107ZM448 -128H491V-85H448ZM491 -299V-171H448V-299Z"/>
</svg>