<svg xmlns="http://www.w3.org/2000/svg" viewBox="0 -512 512 512">
	<path fill="#000000" d="M445 -224Q442 -231 434 -233Q430 -235 427 -235H384V-256Q384 -269 373 -275Q368 -277 363 -277H320V-299Q320 -312 309 -317Q304 -320 299 -320H277V-363Q277 -376 267 -381Q261 -384 256 -384Q204 -384 160 -358Q116 -332 90 -288Q64 -244 64 -192Q64 -140 90 -96Q116 -52 160 -26Q204 0 256 0Q308 0 352 -26Q396 -52 422 -96Q448 -140 448 -192Q448 -209 445 -224ZM241 -44Q252 -46 259.5 -54.5Q267 -63 267 -75.5Q267 -88 257.5 -97.5Q248 -107 234.5 -107Q221 -107 212 -97.5Q203 -88 203 -75Q203 -58 217 -48Q175 -59 145 -92Q115 -125 109 -168Q107 -179 107 -200Q108 -188 117 -179.5Q126 -171 139 -171Q152 -171 161.5 -180Q171 -189 171 -202.5Q171 -216 161.5 -225.5Q152 -235 139 -235Q128 -235 119.5 -228.5Q111 -222 108 -212Q115 -261 150 -297Q185 -333 235 -340V-309Q235 -296 244 -286.5Q253 -277 267 -277H277V-267Q277 -253 286.5 -244Q296 -235 309 -235H341V-224Q341 -211 350.5 -201.5Q360 -192 373 -192H405Q405 -149 383 -113.5Q361 -78 323 -58.5Q285 -39 241 -44ZM203 -256Q189 -256 180 -265.5Q171 -275 171 -288Q171 -301 180 -310.5Q189 -320 202.5 -320Q216 -320 225.5 -310.5Q235 -301 235 -288Q235 -275 225.5 -265.5Q216 -256 203 -256ZM277 -181Q277 -168 268 -158.5Q259 -149 245.5 -149Q232 -149 222.5 -158.5Q213 -168 213 -181.5Q213 -195 222.5 -204Q232 -213 245.5 -213Q259 -213 268 -204Q277 -195 277 -181ZM384 -139Q384 -125 374.5 -116Q365 -107 352 -107Q339 -107 329.5 -116Q320 -125 320 -138.5Q320 -152 329.5 -161.5Q339 -171 352 -171Q365 -171 374.5 -161.5Q384 -152 384 -139Z"/>
</svg>