<svg xmlns="http://www.w3.org/2000/svg" viewBox="0 -512 512 512">
	<path fill="#000000" d="M395 -213Q423 -213 448 -197Q448 -209 445 -224Q442 -231 434 -233Q430 -235 427 -235H384V-256Q384 -269 373 -275Q368 -277 363 -277H320V-299Q320 -312 309 -317Q304 -320 299 -320H277V-363Q277 -376 267 -381Q261 -384 256 -384Q204 -384 160 -358Q116 -332 90 -288Q64 -244 64 -192Q64 -140 90 -96Q116 -52 160 -26Q204 0 256 0Q270 0 277 -1V-85Q277 -100 283.5 -112.5Q290 -125 300 -134Q306 -168 333 -190.5Q360 -213 395 -213ZM139 -171Q125 -171 116 -180Q107 -189 107 -202.5Q107 -216 116 -225.5Q125 -235 138.5 -235Q152 -235 161.5 -225.5Q171 -216 171 -202.5Q171 -189 161.5 -180Q152 -171 139 -171ZM171 -288Q171 -301 180 -310.5Q189 -320 202.5 -320Q216 -320 225.5 -310.5Q235 -301 235 -288Q235 -275 225.5 -265.5Q216 -256 202.5 -256Q189 -256 180 -265.5Q171 -275 171 -288ZM235 -43Q221 -43 212 -52Q203 -61 203 -74.5Q203 -88 212 -97.5Q221 -107 234.5 -107Q248 -107 257.5 -97.5Q267 -88 267 -74.5Q267 -61 257.5 -52Q248 -43 235 -43ZM245 -149Q232 -149 222.5 -158.5Q213 -168 213 -181.5Q213 -195 222.5 -204Q232 -213 245.5 -213Q259 -213 268 -204Q277 -195 277 -181.5Q277 -168 268 -158.5Q259 -149 245 -149ZM448 -107V-117Q448 -139 432.5 -155Q417 -171 395 -171Q373 -171 357 -155Q341 -139 341 -117V-107Q333 -107 326.5 -100.5Q320 -94 320 -85V0Q320 9 326.5 15Q333 21 341 21H448Q457 21 463 15Q469 9 469 0V-85Q469 -94 463 -100.5Q457 -107 448 -107ZM427 -107H363V-117Q363 -131 372 -140Q381 -149 394.5 -149Q408 -149 417.5 -140Q427 -131 427 -117Z"/>
</svg>