<svg xmlns="http://www.w3.org/2000/svg" viewBox="0 -512 512 512">
	<path fill="#000000" d="M277 -181Q277 -168 268 -158.5Q259 -149 245.5 -149Q232 -149 222.5 -158.5Q213 -168 213 -181.5Q213 -195 222.5 -204Q232 -213 245.5 -213Q259 -213 268 -204Q277 -195 277 -181ZM235 -288Q235 -301 225.5 -310.5Q216 -320 202.5 -320Q189 -320 180 -310.5Q171 -301 171 -288Q171 -275 180 -265.5Q189 -256 202.5 -256Q216 -256 225.5 -265.5Q235 -275 235 -288ZM320 -235H341V-224Q341 -211 350.5 -201.5Q360 -192 373 -192H405V-191Q428 -189 448 -181V-192Q448 -209 445 -224Q442 -231 434 -233Q430 -235 427 -235H384V-256Q384 -269 373 -275Q368 -277 363 -277H320V-299Q320 -312 309 -317Q304 -320 299 -320H277V-363Q277 -376 267 -381Q261 -384 256 -384Q204 -384 160 -358Q116 -332 90 -288Q64 -244 64 -192Q64 -140 90 -96Q116 -52 160 -26Q204 0 256 0H267Q259 -20 257 -43Q247 -43 241 -44Q249 -45 256 -52V-53Q256 -72 262 -92Q257 -99 250 -103Q243 -107 235 -107Q221 -107 212 -97.5Q203 -88 203 -75Q203 -58 217 -48Q175 -59 145 -92Q115 -125 109 -168Q107 -179 107 -200Q108 -188 117 -179.5Q126 -171 139 -171Q152 -171 161.5 -180Q171 -189 171 -202.5Q171 -216 161.5 -225.5Q152 -235 139 -235Q128 -235 119.5 -228.5Q111 -222 108 -212Q115 -261 150 -297Q185 -333 235 -340V-309Q235 -296 244 -286.5Q253 -277 267 -277H277V-267Q277 -253 286.5 -244Q296 -235 309 -235ZM469 -53V-139L444 -114Q419 -139 384 -139Q349 -139 324 -114Q299 -89 299 -53.5Q299 -18 324 7Q349 32 384 32Q411 32 432.5 17.5Q454 3 463 -21H427Q419 -11 408 -5.5Q397 0 384 0Q362 0 346.5 -15.5Q331 -31 331 -53Q331 -75 346.5 -91Q362 -107 384 -107Q406 -107 422 -91L384 -53Z"/>
</svg>