<svg xmlns="http://www.w3.org/2000/svg" viewBox="0 -512 512 512">
	<path fill="#000000" d="M352 -171Q361 -171 369 -166Q342 -157 320 -138V-139Q320 -152 329.5 -161.5Q339 -171 352 -171ZM341 -235V-224Q341 -211 350.5 -201.5Q360 -192 373 -192H405Q405 -182 404 -171H405Q426 -171 446 -164Q448 -178 448 -192Q448 -209 445 -224Q442 -231 434 -233Q430 -235 427 -235H384V-256Q384 -269 373 -275Q368 -277 363 -277H320V-299Q320 -312 309 -317Q304 -320 299 -320H277V-363Q277 -376 267 -381Q261 -384 256 -384Q204 -384 160 -358Q116 -332 90 -288Q64 -244 64 -192Q64 -140 90 -96Q116 -52 160 -26Q204 0 256 0Q270 0 284 -2Q277 -22 277 -43V-44Q262 -42 241 -44Q252 -46 259.5 -54.5Q267 -63 267 -75.5Q267 -88 257.5 -97.5Q248 -107 234.5 -107Q221 -107 212 -97.5Q203 -88 203 -75Q203 -58 217 -48Q175 -59 145 -92Q115 -125 109 -168Q107 -179 107 -200Q108 -188 117 -179.5Q126 -171 139 -171Q152 -171 161.5 -180Q171 -189 171 -202.5Q171 -216 161.5 -225.5Q152 -235 139 -235Q128 -235 119.5 -228.5Q111 -222 108 -212Q115 -261 150 -297Q185 -333 235 -340V-309Q235 -296 244 -286.5Q253 -277 267 -277H277V-267Q277 -253 286.5 -244Q296 -235 309 -235ZM245 -149Q259 -149 268 -158.5Q277 -168 277 -181.5Q277 -195 268 -204Q259 -213 245.5 -213Q232 -213 222.5 -204Q213 -195 213 -181.5Q213 -168 222.5 -158.5Q232 -149 245 -149ZM235 -288Q235 -301 225.5 -310.5Q216 -320 202.5 -320Q189 -320 180 -310.5Q171 -301 171 -288Q171 -275 180 -265.5Q189 -256 202.5 -256Q216 -256 225.5 -265.5Q235 -275 235 -288ZM427 -64V-128H384V-64H320V-21H384V43H427V-21H491V-64Z"/>
</svg>