<svg xmlns="http://www.w3.org/2000/svg" viewBox="0 -512 512 512">
	<path fill="#000000" d="M445 -245Q442 -252 434 -255L427 -256H384V-277Q384 -291 373 -296Q368 -299 363 -299H320V-320Q320 -333 309 -339Q304 -341 299 -341H277V-384Q277 -393 272 -399Q268 -403 262 -405H256Q204 -405 160 -379.5Q116 -354 90 -309.5Q64 -265 64 -213Q64 -161 90 -117Q116 -73 160 -47Q204 -21 256 -21Q308 -21 352 -47Q396 -73 422 -117Q448 -161 448 -213Q448 -230 445 -245ZM139 -192Q125 -192 116 -201.5Q107 -211 107 -224Q107 -237 116 -246.5Q125 -256 138.5 -256Q152 -256 161.5 -246.5Q171 -237 171 -224Q171 -211 161.5 -201.5Q152 -192 139 -192ZM171 -309Q171 -323 180 -332Q189 -341 202.5 -341Q216 -341 225.5 -332Q235 -323 235 -309.5Q235 -296 225.5 -286.5Q216 -277 202.5 -277Q189 -277 180 -286.5Q171 -296 171 -309ZM235 -64Q221 -64 212 -73.5Q203 -83 203 -96Q203 -109 212 -118.5Q221 -128 234.5 -128Q248 -128 257.5 -118.5Q267 -109 267 -96Q267 -83 257.5 -73.5Q248 -64 235 -64ZM245 -171Q232 -171 222.5 -180Q213 -189 213 -202.5Q213 -216 222.5 -225.5Q232 -235 245.5 -235Q259 -235 268 -225.5Q277 -216 277 -202.5Q277 -189 268 -180Q259 -171 245 -171ZM352 -128Q339 -128 329.5 -137.5Q320 -147 320 -160Q320 -173 329.5 -182.5Q339 -192 352 -192Q365 -192 374.5 -182.5Q384 -173 384 -160Q384 -147 374.5 -137.5Q365 -128 352 -128ZM149 21H192V64H149ZM235 21H277V64H235ZM320 21H363V64H320Z"/>
</svg>