<svg xmlns="http://www.w3.org/2000/svg" viewBox="0 -512 512 512">
	<path fill="#000000" d="M426 -230Q426 -236 424 -245Q420 -252 412 -255L405 -256H363V-277Q363 -291 352 -296Q347 -299 341 -299H299V-320Q299 -333 288 -339Q283 -341 277 -341Q277 -341 277 -341H256V-384Q256 -393 250 -399Q247 -403 240 -405H235Q183 -405 138.5 -379.5Q94 -354 68.5 -309.5Q43 -265 43 -213Q43 -164 66 -121.5Q89 -79 129.5 -52.5Q170 -26 218 -22Q239 8 271.5 25.5Q304 43 341 43Q382 43 416.5 23Q451 3 471 -31.5Q491 -66 491 -107Q491 -144 473.5 -176.5Q456 -209 426 -230ZM248 -223Q223 -203 209 -175Q201 -179 196.5 -186.5Q192 -194 192 -203Q192 -216 201.5 -225.5Q211 -235 224.5 -235Q238 -235 248 -223ZM117 -192Q104 -192 94.5 -201.5Q85 -211 85 -224Q85 -237 94.5 -246.5Q104 -256 117.5 -256Q131 -256 140 -246.5Q149 -237 149 -224Q149 -211 140 -201.5Q131 -192 117 -192ZM149 -309Q149 -323 158.5 -332Q168 -341 181.5 -341Q195 -341 204 -332Q213 -323 213 -309.5Q213 -296 204 -286.5Q195 -277 181.5 -277Q168 -277 158.5 -286.5Q149 -296 149 -309ZM181 -96Q181 -110 193 -120Q192 -116 192 -107Q192 -88 197 -68Q181 -79 181 -96ZM341 0Q312 0 287.5 -14.5Q263 -29 249 -53.5Q235 -78 235 -107Q235 -136 249 -160.5Q263 -185 287.5 -199Q312 -213 341 -213Q370 -213 394.5 -199Q419 -185 433.5 -160.5Q448 -136 448 -107Q448 -78 433.5 -53.5Q419 -29 394.5 -14.5Q370 0 341 0ZM352 -101L413 -65L397 -39L320 -85V-192H352Z"/>
</svg>