<svg xmlns="http://www.w3.org/2000/svg" viewBox="0 -512 512 512">
	<path fill="#000000" d="M256 -384Q204 -384 160 -358Q116 -332 90 -288Q64 -244 64 -192Q64 -140 90 -96Q116 -52 160 -26Q204 0 256 0Q308 0 352 -26Q396 -52 422 -96Q448 -140 448 -192Q448 -209 445 -224Q442 -231 434 -233Q430 -235 427 -235H384V-256Q384 -269 373 -275Q368 -277 363 -277H320V-299Q320 -312 309 -317Q304 -320 299 -320H277V-363Q277 -376 267 -381Q261 -384 256 -384ZM203 -320Q216 -320 225.5 -310.5Q235 -301 235 -288Q235 -275 225.5 -265.5Q216 -256 202.5 -256Q189 -256 180 -265.5Q171 -275 171 -288Q171 -301 180 -310.5Q189 -320 203 -320ZM139 -235Q152 -235 161.5 -225.5Q171 -216 171 -202.5Q171 -189 161.5 -180Q152 -171 138.5 -171Q125 -171 116 -180Q107 -189 107 -202.5Q107 -216 116 -225.5Q125 -235 139 -235ZM245 -213Q259 -213 268 -204Q277 -195 277 -181.5Q277 -168 268 -158.5Q259 -149 245.5 -149Q232 -149 222.5 -158.5Q213 -168 213 -181.5Q213 -195 222.5 -204Q232 -213 245 -213ZM352 -171Q365 -171 374.5 -161.5Q384 -152 384 -138.5Q384 -125 374.5 -116Q365 -107 352 -107Q339 -107 329.5 -116Q320 -125 320 -139Q320 -152 329.5 -161.5Q339 -171 352 -171ZM235 -107Q248 -107 257.5 -97.5Q267 -88 267 -74.5Q267 -61 257.5 -52Q248 -43 234.5 -43Q221 -43 212 -52Q203 -61 203 -74.5Q203 -88 212 -97.5Q221 -107 235 -107Z"/>
</svg>