<svg xmlns="http://www.w3.org/2000/svg" viewBox="0 -512 512 512">
	<path fill="#000000" d="M341 -139Q341 -126 331.5 -116.5Q322 -107 309.5 -107Q297 -107 287 -116.5Q277 -126 277 -138.5Q277 -151 287 -161Q297 -171 309.5 -171Q322 -171 331.5 -161Q341 -151 341 -139ZM403 -224Q405 -213 405 -192Q405 -140 379.5 -95.5Q354 -51 310 -25.5Q266 0 213.5 0Q161 0 117 -25.5Q73 -51 47 -95.5Q21 -140 21 -192Q21 -244 47 -288.5Q73 -333 117 -358.5Q161 -384 213 -384L219 -383Q225 -382 229 -378Q235 -372 235 -363V-320H256L262 -319Q268 -318 272 -314Q277 -308 277 -299V-277H320H326Q332 -275 336 -271Q341 -265 341 -256V-235H384L391 -233Q399 -231 403 -224ZM363 -192H331Q318 -192 308.5 -201.5Q299 -211 299 -224V-235H267Q254 -235 244.5 -244.5Q235 -254 235 -267V-277H224Q211 -277 201.5 -287Q192 -297 192 -309V-339Q143 -333 108 -297Q73 -261 66 -211Q68 -221 76.5 -228Q85 -235 97 -235Q109 -235 118.5 -225Q128 -215 128 -202.5Q128 -190 118.5 -180.5Q109 -171 96 -171Q83 -171 74.5 -179.5Q66 -188 64 -201Q64 -179 66 -169Q72 -126 102.5 -93Q133 -60 175 -49Q160 -60 160 -73.5Q160 -87 169.5 -97Q179 -107 192 -107Q205 -107 214.5 -97Q224 -87 224 -75.5Q224 -64 217 -55Q210 -46 198 -43Q242 -38 280 -57.5Q318 -77 340.5 -113Q363 -149 363 -192ZM203 -213Q190 -213 180.5 -203.5Q171 -194 171 -181.5Q171 -169 180.5 -159Q190 -149 202.5 -149Q215 -149 225 -159Q235 -169 235 -181.5Q235 -194 225 -203.5Q215 -213 203 -213ZM192 -288Q192 -301 182.5 -310.5Q173 -320 160 -320Q147 -320 137.5 -310.5Q128 -301 128 -288Q128 -275 137.5 -265.5Q147 -256 160 -256Q173 -256 182.5 -265.5Q192 -275 192 -288ZM448 -85H491V-128H448ZM448 -299V-171H491V-299Z"/>
</svg>