<svg xmlns="http://www.w3.org/2000/svg" viewBox="0 -512 512 512">
	<path fill="#000000" d="M297 -216Q302 -171 291 -149Q287 -141 279 -136Q271 -131 258 -131Q245 -131 235 -139Q230 -144 227 -150Q224 -156 224 -161H186Q186 -150 192.5 -137.5Q199 -125 208 -117Q223 -103 245 -99.5Q267 -96 288 -103Q309 -110 321 -125Q342 -152 342 -192Q342 -232 321 -259Q308 -275 287 -281.5Q266 -288 244 -284.5Q222 -281 207 -267Q197 -258 191.5 -245.5Q186 -233 186 -218H224Q224 -231 234 -242Q244 -253 259 -253Q281 -253 291 -235Q295 -226 297 -216ZM256 -405Q198 -405 149 -376.5Q100 -348 71.5 -299Q43 -250 43 -192Q46 -111 90 -56Q130 -6 194 12Q256 29 318 12Q382 -6 422 -56Q466 -111 469 -192Q469 -250 440.5 -299Q412 -348 363 -376.5Q314 -405 256 -405ZM85 -192Q88 -257 124 -301Q156 -340 206 -354.5Q256 -369 306 -354.5Q356 -340 388 -301Q424 -257 427 -192Q427 -146 404 -106.5Q381 -67 341.5 -44Q302 -21 256 -21Q210 -21 170.5 -44Q131 -67 108 -106.5Q85 -146 85 -192Z"/>
</svg>