<svg xmlns="http://www.w3.org/2000/svg" viewBox="0 -512 512 512">
	<path fill="#000000" d="M215 -216Q217 -226 221 -235Q231 -253 253 -253Q268 -253 278 -242Q288 -231 288 -218H326Q326 -233 320.5 -245.5Q315 -258 305 -267Q290 -281 268 -284.5Q246 -288 225 -281.5Q204 -275 191 -259Q170 -232 170 -192Q170 -152 191 -125Q203 -110 224 -103Q245 -96 267 -99.5Q289 -103 304 -117Q313 -125 319.5 -137.5Q326 -150 326 -161H288Q288 -156 285 -150Q282 -144 277 -139Q267 -131 254 -131Q241 -131 233 -136Q225 -141 221 -149Q210 -171 215 -216ZM256 -405Q198 -405 149 -376.5Q100 -348 71.5 -299Q43 -250 43 -192Q46 -111 90 -56Q131 -6 195 12Q256 29 318 12Q382 -6 422 -56Q466 -111 469 -192Q469 -250 440.5 -299Q412 -348 363 -376.5Q314 -405 256 -405ZM256 -21Q210 -21 170.5 -44Q131 -67 108 -106.5Q85 -146 85 -192Q88 -257 124 -301Q156 -340 206 -354.5Q256 -369 306 -354.5Q356 -340 388 -301Q424 -257 427 -192Q427 -146 404 -106.5Q381 -67 341.5 -44Q302 -21 256 -21Z"/>
</svg>