<svg xmlns="http://www.w3.org/2000/svg" viewBox="0 -512 512 512">
	<path fill="#000000" d="M471 11L51 -412L23 -384L154 -254Q149 -228 149 -213Q96 -235 43 -235Q82 -217 109 -175Q124 -150 145 -94Q160 -55 169 -37Q184 -9 203 5Q225 21 256 21Q293 21 318 0Q338 -17 354 -53L446 38ZM173 -235L194 -213H171ZM188 -192H215L235 -173V-156Q205 -181 188 -192ZM305 -38Q302 -59 291 -82Q279 -107 260 -128H279L324 -83Q318 -58 305 -38ZM235 -320V-282L260 -256H299V-277H256V-320H277V-341H256V-384Q278 -384 297 -358.5Q316 -333 328 -290Q340 -247 341 -196V-175L384 -132Q399 -169 416 -192Q438 -221 469 -235Q413 -235 363 -211Q361 -266 346.5 -310.5Q332 -355 308 -380Q284 -405 256 -405Q233 -405 212.5 -387.5Q192 -370 177 -339L196 -320ZM235 -378V-341H203Q220 -369 235 -378ZM320 -196L303 -213H320Z"/>
</svg>