<svg xmlns="http://www.w3.org/2000/svg" viewBox="0 -512 512 512">
	<path fill="#000000" d="M235 -192H188Q213 -176 235 -156ZM149 -213Q152 -267 167 -311Q182 -355 205 -380Q228 -405 256 -405Q284 -405 307.5 -379.5Q331 -354 345.5 -309.5Q360 -265 363 -211Q415 -235 469 -235Q431 -218 406 -177Q391 -152 371 -97Q356 -57 347 -39Q332 -10 312 4Q289 21 257 21Q225 21 203 5Q184 -9 169 -37Q161 -55 146 -94Q132 -131 123 -149Q109 -179 92 -199Q71 -223 43 -235Q96 -235 149 -213ZM235 -213V-256H176L171 -213ZM235 -277V-320H193Q186 -302 180 -277ZM235 -341V-378Q218 -367 203 -341ZM256 -384V-341H277V-320H256V-277H299V-256H256V-213H320V-192H256V-149H299V-128H261Q280 -105 291.5 -81.5Q303 -58 305 -38Q322 -65 331.5 -107Q341 -149 341 -198Q341 -247 329 -290Q317 -333 297.5 -358.5Q278 -384 256 -384Z"/>
</svg>