<svg xmlns="http://www.w3.org/2000/svg" viewBox="0 -512 512 512">
	<path fill="#000000" d="M85 -363H427Q444 -363 456.5 -350.5Q469 -338 469 -320V-64Q469 -46 456.5 -33.5Q444 -21 427 -21H85Q68 -21 55.5 -33.5Q43 -46 43 -64V-320Q43 -338 55.5 -350.5Q68 -363 85 -363ZM85 -320V-64H235V-320ZM427 -64V-320H400Q405 -310 404 -296Q403 -281 389 -261L339 -207H410V-181L300 -182L299 -203L332 -239Q365 -275 367 -278Q372 -289 372 -301Q371 -320 352 -320Q340 -320 334 -312Q330 -307 329 -299V-292H296L297 -301Q299 -311 304 -320H277V-64H332V-82L353 -83L358 -84Q364 -87 367 -91Q372 -97 372 -105Q373 -119 364 -124Q359 -126 352 -126Q345 -126 340 -124Q329 -119 329 -108H297L298 -115Q300 -123 304 -130Q310 -139 320 -145Q333 -152 352 -152Q371 -152 384 -145Q394 -140 399 -130Q403 -123 404 -115V-109V-101Q402 -93 398 -86Q392 -76 381 -72L392 -64ZM190 -107H158V-230L120 -218V-245L187 -269H190Z"/>
</svg>