<svg xmlns="http://www.w3.org/2000/svg" viewBox="0 -512 512 512">
	<path fill="#000000" d="M471 11L51 -412L23 -384L147 -260L145 -256Q132 -272 111 -279Q93 -285 71 -282Q47 -279 42.5 -267Q38 -255 56 -239Q74 -223 92 -219.5Q110 -216 128 -220V-192Q128 -172 135 -152Q142 -132 154 -115Q128 -90 128 -64Q128 -41 145.5 -21.5Q163 -2 192 9.5Q221 21 256 21Q296 21 328.5 6.5Q361 -8 375 -32L446 38ZM201 -209Q192 -203 192 -192.5Q192 -182 198 -176.5Q204 -171 214.5 -171Q225 -171 230 -179L260 -149H258Q221 -149 192 -137Q171 -158 171 -192Q171 -214 179 -228ZM341 -64Q341 -46 316 -33.5Q291 -21 256 -21Q221 -21 196 -33.5Q171 -46 171 -64Q171 -82 196 -94.5Q221 -107 256 -107Q287 -107 311 -96L341 -66ZM207 -309L166 -350Q185 -375 213 -384L211 -382Q203 -368 200 -354Q196 -330 207 -309ZM241 -275L207 -309Q232 -320 256 -320Q280 -320 305 -309Q321 -340 302 -378L299 -384Q328 -374 344 -351Q358 -333 360 -308Q361 -287 354 -273L367 -256Q380 -272 401 -279Q419 -285 441 -282Q465 -279 469.5 -267Q474 -255 456 -239Q438 -223 420 -219.5Q402 -216 384 -220V-192Q384 -168 373 -143L339 -177Q339 -179 340 -184.5Q341 -190 341 -192Q341 -227 316 -252Q291 -277 256 -277Q245 -277 241 -275ZM299 -53Q299 -49 296 -46Q293 -43 288 -43Q283 -43 280 -46Q277 -49 277 -53.5Q277 -58 280 -61Q283 -64 288 -64Q293 -64 296 -61Q299 -58 299 -53ZM235 -53Q235 -49 232 -46Q229 -43 224 -43Q219 -43 216 -46Q213 -49 213 -53.5Q213 -58 216 -61Q219 -64 224 -64Q229 -64 232 -61Q235 -58 235 -53Z"/>
</svg>