<svg xmlns="http://www.w3.org/2000/svg" viewBox="0 -512 512 512">
	<path fill="#000000" d="M224 -64Q228 -64 231.5 -61Q235 -58 235 -53.5Q235 -49 231.5 -46Q228 -43 224 -43Q220 -43 216.5 -46Q213 -49 213 -53.5Q213 -58 216.5 -61Q220 -64 224 -64ZM288 -64Q292 -64 295.5 -61Q299 -58 299 -53.5Q299 -49 295.5 -46Q292 -43 288 -43Q284 -43 280.5 -46Q277 -49 277 -53.5Q277 -58 280.5 -61Q284 -64 288 -64ZM213 -213Q222 -213 228.5 -207Q235 -201 235 -192Q235 -183 228.5 -177Q222 -171 213 -171Q204 -171 198 -177Q192 -183 192 -192Q192 -201 198 -207Q204 -213 213 -213ZM299 -213Q308 -213 314 -207Q320 -201 320 -192Q320 -183 314 -177Q308 -171 299 -171Q290 -171 283.5 -177Q277 -183 277 -192Q277 -201 283.5 -207Q290 -213 299 -213ZM384 -64Q384 -41 367 -21.5Q350 -2 320.5 9.5Q291 21 256 21Q221 21 191.5 9.5Q162 -2 145 -21.5Q128 -41 128 -64Q128 -92 154 -115Q128 -149 128 -192L131 -218Q112 -213 94 -218Q76 -223 58.5 -238.5Q41 -254 44.5 -266Q48 -278 70.5 -281.5Q93 -285 112 -279Q121 -277 130.5 -270.5Q140 -264 145 -257L158 -274Q150 -287 152 -308Q154 -332 168 -351Q184 -374 213 -384L211 -381Q204 -369 201 -354Q196 -331 206 -310Q230 -320 256 -320Q282 -320 306 -310Q316 -331 311 -354Q308 -369 301 -381L299 -384Q328 -374 344 -351Q358 -332 360 -308Q362 -287 354 -274L367 -257Q372 -264 381.5 -270.5Q391 -277 400 -279Q419 -285 441.5 -281.5Q464 -278 467.5 -266Q471 -254 453.5 -238.5Q436 -223 418 -218Q400 -213 381 -218L384 -192Q384 -149 358 -115Q384 -92 384 -64ZM256 -107Q221 -107 196 -94.5Q171 -82 171 -64Q171 -46 196 -33.5Q221 -21 256 -21Q291 -21 316 -33.5Q341 -46 341 -64Q341 -82 316 -94.5Q291 -107 256 -107ZM256 -149Q291 -149 321 -137Q341 -161 341 -192Q341 -227 316 -252Q291 -277 256 -277Q221 -277 196 -252Q171 -227 171 -192Q171 -161 191 -137Q221 -149 256 -149ZM301 -381Z"/>
</svg>