<svg xmlns="http://www.w3.org/2000/svg" viewBox="0 -512 512 512">
	<path fill="#000000" d="M192 -384V-341H149Q132 -341 119.5 -328.5Q107 -316 107 -299V-256H64V-213H107V-171H64V-128H107V-85Q107 -68 119.5 -55.5Q132 -43 149 -43H192V0H235V-43H277V0H320V-43H363Q380 -43 392.5 -55.5Q405 -68 405 -85V-128H448V-171H405V-213H448V-256H405V-299Q405 -316 392.5 -328.5Q380 -341 363 -341H320V-384H277V-341H235V-384ZM171 -256H245V-224H181V-208H224Q233 -208 239 -202Q245 -196 245 -187V-149Q245 -140 239 -134Q233 -128 224 -128H171Q162 -128 155.5 -134Q149 -140 149 -149V-235Q149 -244 155.5 -250Q162 -256 171 -256ZM267 -256H299V-213H331V-256H363V-128H331V-181H267ZM181 -176V-160H213V-176Z"/>
</svg>