<svg xmlns="http://www.w3.org/2000/svg" viewBox="0 -512 512 512">
	<path fill="#000000" d="M192 -384V-341H149Q132 -341 119.5 -328.5Q107 -316 107 -299V-256H64V-213H107V-171H64V-128H107V-85Q107 -68 119.5 -55.5Q132 -43 149 -43H192V0H235V-43H277V0H320V-43H363Q380 -43 392.5 -55.5Q405 -68 405 -85V-128H448V-171H405V-213H448V-256H405V-299Q405 -316 392.5 -328.5Q380 -341 363 -341H320V-384H277V-341H235V-384ZM149 -256H224Q233 -256 239 -250Q245 -244 245 -235V-149Q245 -140 239 -134Q233 -128 224 -128H149V-160H213V-176H181V-208H213V-224H149ZM267 -256H341Q350 -256 356.5 -250Q363 -244 363 -235V-197Q363 -188 356.5 -182Q350 -176 341 -176H299V-160H363V-128H267V-187Q267 -196 273 -202Q279 -208 288 -208H331V-224H267Z"/>
</svg>