<svg xmlns="http://www.w3.org/2000/svg" viewBox="0 -512 512 512">
	<path fill="#000000" d="M427 -320V-341Q427 -350 420.5 -356.5Q414 -363 405 -363H192V-384H128V-363H107V-320H128V-128H107V-171H64V-128H43V-85H64V0H107V-85H213V0H256V-85H277V-128H256V-171H213V-128H192V-320H363V-221Q355 -219 350 -212Q345 -205 345 -197Q345 -182 358 -175V-149H372Q377 -149 381 -145.5Q385 -142 385 -136.5Q385 -131 381 -127Q377 -123 370.5 -123Q364 -123 360.5 -128.5Q357 -134 352 -135.5Q347 -137 342.5 -134.5Q338 -132 336.5 -126.5Q335 -121 337 -116Q343 -107 352 -102Q361 -97 372 -97Q388 -97 399.5 -108.5Q411 -120 411 -136Q411 -149 403.5 -159Q396 -169 385 -173V-175Q398 -182 398 -197Q398 -212 384 -220V-320ZM171 -157L149 -135V-166L171 -187ZM171 -220L149 -198V-228L171 -250ZM149 -262V-292L171 -314V-284Z"/>
</svg>