<svg xmlns="http://www.w3.org/2000/svg" viewBox="0 -512 512 512">
	<path fill="#000000" d="M254 -227L225 -212Q221 -222 214 -226Q207 -230 202 -230Q173 -230 173 -192Q173 -175 180 -164.5Q187 -154 202 -154Q220 -154 228 -173L254 -159Q246 -144 231 -135Q216 -126 198 -126Q169 -126 151.5 -143.5Q134 -161 134 -191.5Q134 -222 152 -240Q170 -258 197 -258Q237 -258 254 -227ZM377 -227L349 -212Q344 -221 337.5 -225.5Q331 -230 324 -230Q296 -230 296 -192Q296 -176 303.5 -165Q311 -154 324 -154Q343 -154 351 -173L378 -159Q369 -144 354 -135Q339 -126 321 -126Q292 -126 275 -143.5Q258 -161 258 -191.5Q258 -222 275.5 -240Q293 -258 320 -258Q360 -258 377 -227ZM256 -373Q292 -373 325.5 -359.5Q359 -346 384.5 -320.5Q410 -295 423.5 -261.5Q437 -228 437 -192Q437 -156 423.5 -122.5Q410 -89 384.5 -63.5Q359 -38 325.5 -24.5Q292 -11 256 -11Q220 -11 186.5 -24.5Q153 -38 127.5 -63.5Q102 -89 88.5 -122.5Q75 -156 75 -192Q75 -228 88.5 -261.5Q102 -295 127.5 -320.5Q153 -346 186.5 -359.5Q220 -373 256 -373ZM256 -405Q214 -405 174.5 -389Q135 -373 105 -343Q75 -313 59 -273.5Q43 -234 43 -192Q43 -150 59 -110.5Q75 -71 105 -41Q135 -11 174.5 5Q214 21 256 21Q298 21 337.5 5Q377 -11 407 -41Q437 -71 453 -110.5Q469 -150 469 -192Q469 -234 453 -273.5Q437 -313 407 -343Q377 -373 337.5 -389Q298 -405 256 -405Z"/>
</svg>