<svg xmlns="http://www.w3.org/2000/svg" viewBox="0 -512 512 512">
	<path fill="#000000" d="M256 -405Q221 -405 187.5 -394Q154 -383 126 -361L156 -331Q189 -355 229 -361Q269 -367 308 -355Q347 -343 377 -313L407 -343Q376 -374 337 -389.5Q298 -405 256 -405ZM70 -363L43 -336L165 -213H128Q110 -213 97.5 -200.5Q85 -188 85 -171V0Q85 18 97.5 30.5Q110 43 128 43H384Q399 43 411 33L421 43L448 15ZM256 -320Q218 -320 187 -300L218 -269Q243 -280 270 -276Q297 -272 316 -253L346 -283Q328 -301 304.5 -310.5Q281 -320 256 -320ZM273 -213L337 -149H384V-103L427 -60V-171Q427 -188 414.5 -200.5Q402 -213 384 -213ZM128 -149H229L293 -85H128Z"/>
</svg>