<svg xmlns="http://www.w3.org/2000/svg" viewBox="0 -512 512 512">
	<path fill="#000000" d="M384 -320H128Q110 -320 97.5 -307.5Q85 -295 85 -277V-107Q85 -89 97.5 -76.5Q110 -64 128 -64H384Q402 -64 414.5 -76.5Q427 -89 427 -107V-277Q427 -295 414.5 -307.5Q402 -320 384 -320ZM384 -192H128V-256H384ZM43 -363H128V-405H43Q25 -405 12.5 -392.5Q0 -380 0 -363V-277H43ZM469 -405H384V-363H469V-277H512V-363Q512 -380 499.5 -392.5Q487 -405 469 -405ZM43 -107H0V-21Q0 -4 12.5 8.5Q25 21 43 21H128V-21H43ZM469 -21H384V21H469Q487 21 499.5 8.5Q512 -4 512 -21V-107H469Z"/>
</svg>