<svg xmlns="http://www.w3.org/2000/svg" viewBox="0 -512 512 512">
	<path fill="#000000" d="M384 -213H128Q110 -213 97.5 -200.5Q85 -188 85 -171V0Q85 18 97.5 30.5Q110 43 128 43H384Q402 43 414.5 30.5Q427 18 427 0V-171Q427 -188 414.5 -200.5Q402 -213 384 -213ZM384 0H128V-85H384ZM384 -128H128V-171H384ZM105 -343L135 -313Q168 -346 212 -357.5Q256 -369 300 -357.5Q344 -346 377 -313L407 -343Q366 -384 311 -398.5Q256 -413 201 -398.5Q146 -384 105 -343ZM166 -283L196 -253Q221 -278 256 -278Q291 -278 316 -253L346 -283Q322 -307 289 -315.5Q256 -324 223 -315.5Q190 -307 166 -283Z"/>
</svg>