<svg xmlns="http://www.w3.org/2000/svg" viewBox="0 -512 512 512">
	<path fill="#000000" d="M252 -213Q227 -187 218 -152Q209 -117 218 -82.5Q227 -48 252 -21H85Q68 -21 55.5 -33.5Q43 -46 43 -64V-320Q43 -338 55.5 -350.5Q68 -363 85 -363H427Q444 -363 456.5 -350.5Q469 -338 469 -320V-191Q460 -205 449.5 -216Q439 -227 427 -234V-277H85V-213ZM499 0L469 30L403 -36Q379 -21 352 -21Q312 -21 284 -49Q256 -77 256 -117Q256 -157 284 -185Q312 -213 352 -213Q392 -213 420 -185Q448 -157 448 -117Q448 -89 433 -66ZM405 -117Q405 -139 389.5 -155Q374 -171 352 -171Q330 -171 314.5 -155Q299 -139 299 -117Q299 -95 314.5 -79.5Q330 -64 352 -64Q374 -64 389.5 -79.5Q405 -95 405 -117Z"/>
</svg>