<svg xmlns="http://www.w3.org/2000/svg" viewBox="0 -512 512 512">
	<path fill="#000000" d="M427 -363H85Q68 -363 55.5 -350.5Q43 -338 43 -320V-64Q43 -46 55.5 -33.5Q68 -21 85 -21H249Q245 -39 245 -53Q245 -60 246 -64H85V-192H427V-185Q450 -178 469 -162V-320Q469 -338 456.5 -350.5Q444 -363 427 -363ZM427 -277H85V-320H427ZM444 -114L469 -139V-53H384L422 -91Q406 -107 384 -107Q362 -107 346.5 -91Q331 -75 331 -53Q331 -31 346.5 -15.5Q362 0 384 0Q397 0 408 -5.5Q419 -11 427 -21H463Q454 3 432.5 17.5Q411 32 384 32Q349 32 324 7Q299 -18 299 -53.5Q299 -89 324 -114Q349 -139 384 -139Q419 -139 444 -114Z"/>
</svg>