<svg xmlns="http://www.w3.org/2000/svg" viewBox="0 -512 512 512">
	<path fill="#000000" d="M395 -192Q364 -192 342 -170Q320 -148 320 -117Q320 -93 339 -57Q353 -31 375 -2L395 21L414 -2Q436 -31 450 -57Q469 -93 469 -117Q469 -148 447 -170Q425 -192 395 -192ZM395 -90Q384 -90 376.5 -97.5Q369 -105 369 -115.5Q369 -126 377 -133.5Q385 -141 394.5 -141Q404 -141 412 -133Q420 -125 421 -115.5Q422 -106 414 -98Q406 -90 395 -90ZM310 -21H85Q68 -21 55.5 -33.5Q43 -46 43 -64V-320Q43 -338 55.5 -350.5Q68 -363 85 -363H427Q444 -363 456.5 -350.5Q469 -338 469 -320V-207Q450 -223 427 -230V-277H85V-213H328Q305 -197 291 -171.5Q277 -146 277 -117Q277 -77 310 -21Z"/>
</svg>