<svg xmlns="http://www.w3.org/2000/svg" viewBox="0 -512 512 512">
	<path fill="#000000" d="M288 -64H85V-192H305Q322 -212 345 -223.5Q368 -235 395 -235Q435 -235 469 -207V-320Q469 -338 456.5 -350.5Q444 -363 427 -363H85Q68 -363 55.5 -350.5Q43 -338 43 -320V-64Q43 -46 55.5 -33.5Q68 -21 85 -21H311Q297 -43 288 -64ZM85 -320H427V-277H85ZM395 -192Q364 -192 342 -170Q320 -148 320 -117Q320 -93 339 -57Q353 -31 375 -2L395 21L414 -2Q436 -31 450 -57Q469 -93 469 -117Q469 -148 447 -170Q425 -192 395 -192ZM395 -90Q384 -90 376.5 -97.5Q369 -105 369 -115.5Q369 -126 377 -133.5Q385 -141 394.5 -141Q404 -141 412 -133Q420 -125 421 -115.5Q422 -106 414 -98Q406 -90 395 -90Z"/>
</svg>