<svg xmlns="http://www.w3.org/2000/svg" viewBox="0 -512 512 512">
	<path fill="#000000" d="M85 -64V-192H342Q376 -213 416 -213Q444 -213 469 -203V-320Q469 -338 456.5 -350.5Q444 -363 427 -363H85Q68 -363 55.5 -350.5Q43 -338 43 -320V-64Q43 -46 55.5 -33.5Q68 -21 85 -21H288Q280 -41 278 -64ZM85 -320H427V-277H85ZM491 -75Q491 -49 476 -28L453 -51Q459 -62 459 -75Q459 -97 443 -112.5Q427 -128 405 -128V-96L357 -144L405 -192V-160Q441 -160 466 -135Q491 -110 491 -75ZM405 -53L453 -5L405 43V11Q370 11 345 -14Q320 -39 320 -75Q320 -100 334 -122L358 -99Q352 -87 352 -75Q352 -53 367.5 -37Q383 -21 405 -21Z"/>
</svg>