<svg xmlns="http://www.w3.org/2000/svg" viewBox="0 -512 512 512">
	<path fill="#000000" d="M235 -192Q244 -205 254 -215Q281 -242 316.5 -251.5Q352 -261 387.5 -251.5Q423 -242 450 -215Q460 -205 469 -191V-320Q469 -338 456.5 -350.5Q444 -363 427 -363H85Q68 -363 55.5 -350.5Q43 -338 43 -320V-64Q43 -46 55.5 -33.5Q68 -21 85 -21H252Q234 -40 224 -64H85V-192ZM85 -320H427V-277H85ZM433 -66Q448 -89 448 -117Q448 -157 420 -185Q392 -213 352 -213Q312 -213 284 -185Q256 -157 256 -117Q256 -77 284 -49Q312 -21 352 -21Q379 -21 403 -36L469 30L499 0ZM352 -64Q330 -64 314.5 -79.5Q299 -95 299 -117Q299 -139 314.5 -155Q330 -171 352 -171Q374 -171 389.5 -155Q405 -139 405 -117Q405 -95 389.5 -79.5Q374 -64 352 -64Z"/>
</svg>