<svg xmlns="http://www.w3.org/2000/svg" viewBox="0 -512 512 512">
	<path fill="#000000" d="M465 -128V-160Q465 -182 446.5 -197.5Q428 -213 405 -213Q382 -213 364 -197.5Q346 -182 346 -160V-128Q336 -128 328 -120Q320 -112 320 -102V-28Q320 -17 328 -8.5Q336 0 346 0H463Q474 0 482.5 -8Q491 -16 491 -26V-100Q491 -111 483 -119.5Q475 -128 465 -128ZM437 -128H373V-160Q373 -172 382.5 -180Q392 -188 405.5 -188Q419 -188 428 -180Q437 -172 437 -160ZM278 -21H85Q68 -21 55.5 -33.5Q43 -46 43 -64V-320Q43 -338 55.5 -350.5Q68 -363 85 -363H427Q444 -363 456.5 -350.5Q469 -338 469 -320V-234Q449 -249 427 -254V-277H85V-213H321Q303 -189 303 -160V-155Q291 -145 284 -131Q277 -117 277 -102V-28Q277 -23 278 -21Z"/>
</svg>