<svg xmlns="http://www.w3.org/2000/svg" viewBox="0 -512 512 512">
	<path fill="#000000" d="M341 -149H373V-89L425 -59L409 -31L341 -71ZM512 -85Q512 -45 492 -10.5Q472 24 437.5 44Q403 64 363 64Q319 64 282.5 40.5Q246 17 228 -21H85Q68 -21 55.5 -33.5Q43 -46 43 -64V-320Q43 -338 55.5 -350.5Q68 -363 85 -363H427Q444 -363 456.5 -350.5Q469 -338 469 -320V-190Q490 -169 501 -142Q512 -115 512 -85ZM363 -192Q334 -192 309.5 -177.5Q285 -163 270.5 -138.5Q256 -114 256 -85Q256 -56 270.5 -31.5Q285 -7 309.5 7Q334 21 363 21Q392 21 416.5 7Q441 -7 455 -31.5Q469 -56 469 -85Q469 -114 455 -138.5Q441 -163 416.5 -177.5Q392 -192 363 -192ZM427 -235V-299H85V-235Z"/>
</svg>