<svg xmlns="http://www.w3.org/2000/svg" viewBox="0 -512 512 512">
	<path fill="#000000" d="M159 11Q106 -15 72 -63Q38 -111 32 -171H0Q5 -106 40.5 -52Q76 2 132.5 33Q189 64 255 64Q264 64 269 63L188 -18ZM257 -448Q248 -448 243 -447L324 -366L353 -395Q406 -369 440 -321Q474 -273 480 -213H512Q507 -278 471.5 -332Q436 -386 379.5 -417Q323 -448 257 -448ZM341 -149H384V-277Q384 -295 371.5 -307.5Q359 -320 341 -320H213V-277H341ZM171 -107V-363H128V-320H85V-277H128V-107Q128 -89 140.5 -76.5Q153 -64 171 -64H341V-21H384V-64H427V-107Z"/>
</svg>