<svg xmlns="http://www.w3.org/2000/svg" viewBox="0 -512 512 512">
	<path fill="#000000" d="M447 -213Q442 -257 418.5 -294Q395 -331 358 -354.5Q321 -378 277 -383V-427H235V-383Q198 -379 167 -362L199 -330Q227 -341 256 -341Q297 -341 331 -321Q365 -301 385 -267Q405 -233 405 -192Q405 -163 395 -135L427 -103Q443 -134 447 -171H491V-213ZM64 -357L108 -313Q71 -269 65 -213H21V-171H65Q70 -127 93.5 -90Q117 -53 154 -29.5Q191 -6 235 -1V43H277V-1Q333 -8 377 -44L421 0L448 -27L91 -384ZM347 -74Q307 -43 256 -43Q215 -43 181 -63Q147 -83 127 -117Q107 -151 107 -192Q107 -243 138 -283Z"/>
</svg>