<svg xmlns="http://www.w3.org/2000/svg" viewBox="0 -512 512 512">
	<path fill="#000000" d="M65 -171H21V-213H65Q70 -257 93.5 -294Q117 -331 154 -354.5Q191 -378 235 -383V-427H277V-383Q321 -378 358 -354.5Q395 -331 418.5 -294Q442 -257 447 -213H491V-171H447Q442 -127 418.5 -90Q395 -53 358 -29.5Q321 -6 277 -1V43H235V-1Q191 -6 154 -29.5Q117 -53 93.5 -90Q70 -127 65 -171ZM256 -341Q215 -341 181 -321Q147 -301 127 -267Q107 -233 107 -192Q107 -151 127 -117Q147 -83 181 -63Q215 -43 256 -43Q297 -43 331 -63Q365 -83 385 -117Q405 -151 405 -192Q405 -233 385 -267Q365 -301 331 -321Q297 -341 256 -341ZM237 -80H275V-117H237ZM256 -304Q225 -304 203 -282Q181 -260 181 -229H219Q219 -245 229.5 -256Q240 -267 256 -267Q272 -267 282.5 -256Q293 -245 293 -229Q293 -218 286 -210Q282 -204 270 -195Q254 -183 248 -174Q237 -158 237 -136H275Q275 -150 283 -161Q288 -168 302 -180.5Q316 -193 322 -200Q331 -213 331 -229Q331 -260 309 -282Q287 -304 256 -304Z"/>
</svg>