<svg xmlns="http://www.w3.org/2000/svg" viewBox="0 -512 512 512">
	<path fill="#000000" d="M380 -277Q371 -311 346.5 -335.5Q322 -360 288 -369V-405H224V-369Q190 -360 165.5 -335.5Q141 -311 132 -277H85V-213H132Q141 -180 165.5 -155Q190 -130 224 -122V21H288V-122Q322 -130 346.5 -155Q371 -180 380 -213H426V-277ZM257 -245L309 -213H336Q330 -197 317.5 -184.5Q305 -172 288 -165V-192L257 -244L256 -245L255 -244L224 -192V-165Q190 -179 176 -213H203L256 -245H255L203 -277H176Q182 -294 194.5 -306.5Q207 -319 224 -326V-299L255 -247L256 -245L257 -247L288 -299V-326Q305 -319 317.5 -306.5Q330 -294 336 -277H309L257 -245H256Z"/>
</svg>