<svg xmlns="http://www.w3.org/2000/svg" viewBox="0 -512 512 512">
	<path fill="#000000" d="M79 -253Q73 -259 65 -259Q52 -259 45.5 -246.5Q39 -234 49 -223Q87 -189 97 -175Q110 -158 110 -123Q110 -82 142 -60Q160 -46 181 -39V-122Q181 -152 161 -172ZM351 -171Q331 -151 331 -122V-38Q361 -49 382 -71.5Q403 -94 403 -123Q403 -159 415 -175Q418 -181 426 -188.5Q434 -196 442 -204L456 -217L463 -223Q469 -229 469 -238Q469 -247 463 -253Q457 -259 448 -259Q439 -259 433 -253ZM256 -21Q279 -21 299 -27V-103Q299 -122 286 -135.5Q273 -149 256 -149Q239 -149 226 -136Q213 -123 213 -105V-27Q233 -21 256 -21ZM192 -267Q192 -253 182.5 -244Q173 -235 160 -235Q147 -235 137.5 -244Q128 -253 128 -266.5Q128 -280 137.5 -289.5Q147 -299 160 -299Q173 -299 182.5 -289.5Q192 -280 192 -267ZM384 -267Q384 -253 374.5 -244Q365 -235 352 -235Q339 -235 329.5 -244Q320 -253 320 -266.5Q320 -280 329.5 -289.5Q339 -299 352 -299Q365 -299 374.5 -289.5Q384 -280 384 -267ZM288 -331Q288 -317 278.5 -308Q269 -299 256 -299Q243 -299 233.5 -308Q224 -317 224 -330.5Q224 -344 233.5 -353.5Q243 -363 256 -363Q269 -363 278.5 -353.5Q288 -344 288 -331ZM288 -213Q288 -200 278.5 -190.5Q269 -181 256 -181Q243 -181 233.5 -190.5Q224 -200 224 -213.5Q224 -227 233.5 -236Q243 -245 256 -245Q269 -245 278.5 -236Q288 -227 288 -213Z"/>
</svg>