<svg xmlns="http://www.w3.org/2000/svg" viewBox="0 -512 512 512">
	<path fill="#000000" d="M256 -405Q198 -405 149 -376.5Q100 -348 71.5 -299Q43 -250 43 -192Q43 -134 71.5 -85Q100 -36 149 -7.5Q198 21 256 21Q314 21 363 -7.5Q412 -36 440.5 -85Q469 -134 469 -192Q469 -250 440.5 -299Q412 -348 363 -376.5Q314 -405 256 -405ZM256 -21Q210 -21 170.5 -44Q131 -67 108 -106.5Q85 -146 85 -192Q85 -238 108 -277.5Q131 -317 170.5 -340Q210 -363 256 -363Q302 -363 341.5 -340Q381 -317 404 -277.5Q427 -238 427 -192Q427 -146 404 -106.5Q381 -67 341.5 -44Q302 -21 256 -21ZM171 -149L149 -277L213 -235L256 -299L299 -235L363 -277L341 -149ZM183 -107Q177 -107 174 -110Q171 -113 171 -119V-128H341V-119Q341 -113 338 -110Q335 -107 329 -107Z"/>
</svg>