<svg xmlns="http://www.w3.org/2000/svg" viewBox="0 -512 512 512">
	<path fill="#000000" d="M200 -269L245 -249L291 -269L270 -224L291 -179L245 -199L200 -179L221 -224ZM352 -395L375 -333L437 -309L375 -286L352 -224L329 -286L267 -309L329 -333ZM128 -43H149V-64Q149 -73 155.5 -79Q162 -85 171 -85H176Q139 -106 117.5 -143Q96 -180 96 -223.5Q96 -267 117.5 -304Q139 -341 176 -362.5Q213 -384 256 -384Q289 -384 319 -371L311 -350L281 -339Q269 -341 256 -341Q233 -341 211.5 -332Q190 -323 173.5 -306.5Q157 -290 148 -268.5Q139 -247 139 -224Q139 -192 154.5 -165Q170 -138 197 -122.5Q224 -107 255.5 -107Q287 -107 313 -121.5Q339 -136 355 -161Q371 -186 373 -216L393 -269L408 -274Q416 -250 416 -224Q416 -180 394.5 -143Q373 -106 336 -85H341Q350 -85 356.5 -79Q363 -73 363 -64V-43H384Q402 -43 414.5 -30.5Q427 -18 427 0V21H85V0Q85 -18 97.5 -30.5Q110 -43 128 -43Z"/>
</svg>