<svg xmlns="http://www.w3.org/2000/svg" viewBox="0 -512 512 512">
	<path fill="#000000" d="M363 21V-21H427V-85H469V-11Q469 2 459.5 11.5Q450 21 437 21ZM149 21H75Q62 21 52.5 11.5Q43 2 43 -11V-85H85V-21H149ZM363 -405H437Q450 -405 459.5 -395.5Q469 -386 469 -373V-299H427V-363H363ZM149 -405V-363H85V-299H43V-373Q43 -386 52.5 -395.5Q62 -405 75 -405ZM277 -80L363 -129V-227L277 -178ZM256 -215L341 -264L256 -314L171 -264ZM149 -129L235 -80V-178L149 -227ZM389 -286Q405 -276 405 -258V-123Q405 -105 389 -95L272 -27Q256 -17 240 -27L123 -95Q107 -105 107 -123V-258Q107 -276 123 -286L240 -354Q248 -358 256 -358Q264 -358 272 -354Z"/>
</svg>