<svg xmlns="http://www.w3.org/2000/svg" viewBox="0 -512 512 512">
	<path fill="#000000" d="M94 -384L64 -354L121 -297Q85 -250 85 -191.5Q85 -133 121 -87L64 -30L94 0L151 -57Q198 -21 256.5 -21Q315 -21 361 -57L418 0L448 -30L391 -87Q427 -134 427 -192.5Q427 -251 391 -297L448 -354L418 -384L361 -327Q314 -363 255.5 -363Q197 -363 151 -327ZM256 -320Q291 -320 320.5 -303Q350 -286 367 -256.5Q384 -227 384 -192Q384 -157 367 -127.5Q350 -98 320.5 -81Q291 -64 256 -64Q221 -64 191.5 -81Q162 -98 145 -127.5Q128 -157 128 -192Q128 -227 145 -256.5Q162 -286 191.5 -303Q221 -320 256 -320Z"/>
</svg>