<svg xmlns="http://www.w3.org/2000/svg" viewBox="0 -512 512 512">
	<path fill="#000000" d="M235 -85H277V-43H235ZM299 -85H341V-43H299ZM192 -363H235V-128Q235 -93 210 -68Q185 -43 149 -43H107Q80 -43 61.5 -61.5Q43 -80 43 -107V-192H85V-107Q85 -98 91.5 -91.5Q98 -85 107 -85H149Q167 -85 179.5 -97.5Q192 -110 192 -128ZM256 -363H299V-171H363V-277H405V-171Q405 -153 392.5 -140.5Q380 -128 363 -128H299Q281 -128 268.5 -140.5Q256 -153 256 -171ZM427 -235H469V-85Q469 -59 450.5 -40Q432 -21 405 -21H363V-64H405Q414 -64 420.5 -70Q427 -76 427 -85Z"/>
</svg>