<svg xmlns="http://www.w3.org/2000/svg" viewBox="0 -512 512 512">
	<path fill="#000000" d="M343 -201Q363 -223 363 -256Q363 -286 345 -308.5Q327 -331 299 -339L277 -341V-384H235V-341H149V-43H235V0H277V-43H299Q334 -43 359 -68Q384 -93 384 -128Q384 -151 373 -170Q362 -189 343 -201ZM320 -256Q320 -238 307.5 -225.5Q295 -213 277 -213V-299Q295 -299 307.5 -286.5Q320 -274 320 -256ZM192 -299H235V-213H192ZM192 -85V-171H235V-85ZM299 -85H277V-171H299Q316 -171 328.5 -158.5Q341 -146 341 -128Q341 -110 328.5 -97.5Q316 -85 299 -85Z"/>
</svg>