<svg xmlns="http://www.w3.org/2000/svg" viewBox="0 -512 512 512">
	<path fill="#000000" d="M149 -128H192Q192 -111 211 -98Q230 -85 256 -85Q282 -85 301 -98Q320 -111 320 -128Q320 -145 303 -154Q289 -162 251 -171Q219 -179 204 -185Q179 -195 166 -210Q149 -229 149 -256.5Q149 -284 170 -306.5Q191 -329 224 -337V-384H288V-337Q321 -329 342 -306.5Q363 -284 363 -256H320Q320 -273 301 -286Q282 -299 256 -299Q230 -299 211 -286Q192 -273 192 -256Q192 -239 209 -230Q223 -222 261 -213Q293 -205 308 -199Q333 -189 346 -174Q363 -155 363 -127.5Q363 -100 342 -77.5Q321 -55 288 -47V0H224V-47Q191 -55 170 -77.5Q149 -100 149 -128Z"/>
</svg>