<svg xmlns="http://www.w3.org/2000/svg" viewBox="0 -512 512 512">
	<path fill="#000000" d="M364 -201Q384 -225 384 -255.5Q384 -286 366 -308.5Q348 -331 320 -339V-384H277V-341H235V-384H192V-341H128V-299H171V-85H128V-43H192V0H235V-43H277V0H320V-43Q355 -43 380 -68Q405 -93 405 -128Q405 -151 394 -170.5Q383 -190 364 -201ZM213 -299H299Q316 -299 328.5 -286.5Q341 -274 341 -256Q341 -238 328.5 -225.5Q316 -213 299 -213H213ZM320 -85H213V-171H320Q338 -171 350.5 -158.5Q363 -146 363 -128Q363 -110 350.5 -97.5Q338 -85 320 -85Z"/>
</svg>