<svg xmlns="http://www.w3.org/2000/svg" viewBox="0 -512 512 512">
	<path fill="#000000" d="M256 -128H299Q299 -111 318 -98Q337 -85 363 -85Q389 -85 408 -98Q427 -111 427 -128Q427 -145 410 -154Q396 -162 358 -171Q326 -179 311 -185Q286 -195 272 -210Q256 -229 256 -256.5Q256 -284 277 -306.5Q298 -329 331 -337V-384H395V-337Q428 -329 448.5 -306.5Q469 -284 469 -256H427Q427 -273 408 -286Q389 -299 363 -299Q337 -299 318 -286Q299 -273 299 -256Q299 -239 316 -230Q329 -222 368 -213Q399 -205 414 -199Q440 -189 453 -174Q469 -155 469 -127.5Q469 -100 448.5 -77.5Q428 -55 395 -47V0H331V-47Q298 -55 277 -77.5Q256 -100 256 -128ZM43 -384H117Q141 -384 162.5 -375Q184 -366 200.5 -349.5Q217 -333 226 -311.5Q235 -290 235 -267Q235 -232 216.5 -203.5Q198 -175 168 -161L248 0H201L125 -149H85V0H43ZM117 -192Q148 -192 170 -214Q192 -236 192 -267Q192 -298 170 -319.5Q148 -341 117 -341H85V-192Z"/>
</svg>