<svg xmlns="http://www.w3.org/2000/svg" viewBox="0 -512 512 512">
	<path fill="#000000" d="M472 10L51 -411L24 -384L143 -265L139 -256H64L43 -213H129Q128 -206 128 -192Q128 -178 129 -171H64L43 -128H139Q159 -71 208.5 -35.5Q258 0 320 0Q357 0 393 -15L445 37ZM183 -171Q181 -182 181 -192Q181 -202 183 -213H194L237 -171ZM320 -53Q281 -53 248 -73.5Q215 -94 197 -128H280L351 -57Q334 -53 320 -53ZM260 -256H341L320 -213H303ZM224 -292L186 -330Q213 -355 247.5 -369.5Q282 -384 319 -384Q356 -384 389 -371Q422 -358 448 -335L410 -297Q371 -331 320 -331Q293 -331 268.5 -320.5Q244 -310 224 -292Z"/>
</svg>