<svg xmlns="http://www.w3.org/2000/svg" viewBox="0 -512 512 512">
	<path fill="#000000" d="M256 -405Q220 -405 186 -401Q134 -394 104 -377Q64 -356 64 -320V-64Q64 -28 104 -7Q134 10 186 17Q220 21 256 21Q292 21 326 17Q378 10 408 -7Q448 -28 448 -64V-320Q448 -356 408 -377Q378 -394 326 -401Q292 -405 256 -405ZM256 -235Q291 -235 324 -239Q375 -246 405 -261V-123Q375 -138 324 -145Q291 -149 256 -149Q221 -149 188 -145Q137 -138 107 -123V-261Q137 -246 188 -239Q221 -235 256 -235ZM256 -363Q297 -363 331 -357Q365 -351 385 -341.5Q405 -332 405 -320Q405 -308 385 -298.5Q365 -289 331 -283Q297 -277 256 -277Q215 -277 181 -283Q147 -289 127 -298.5Q107 -308 107 -320Q107 -332 127 -341.5Q147 -351 181 -357Q215 -363 256 -363ZM256 -21Q215 -21 181 -27Q147 -33 127 -42.5Q107 -52 107 -64Q107 -76 127 -85.5Q147 -95 181 -101Q215 -107 256 -107Q297 -107 331 -101Q365 -95 385 -85.5Q405 -76 405 -64Q405 -52 385 -42.5Q365 -33 331 -27Q297 -21 256 -21Z"/>
</svg>