<svg xmlns="http://www.w3.org/2000/svg" viewBox="0 -512 512 512">
	<path fill="#000000" d="M163 -353L129 -388Q180 -405 256 -405Q292 -405 326 -401Q378 -394 408 -377Q448 -356 448 -320V-68L385 -131Q396 -128 405 -123V-261Q362 -239 281 -235L239 -277H256Q297 -277 331 -283Q365 -289 385 -298.5Q405 -308 405 -320Q405 -332 385 -341.5Q365 -351 331 -357Q297 -363 256 -363Q205 -363 163 -353ZM472 10L445 37L403 -4Q373 11 323 17Q290 21 255 21Q220 21 186 17Q134 10 104 -7Q64 -28 64 -64V-320Q64 -329 68 -340L24 -384L51 -411ZM107 -123Q137 -138 188 -145Q221 -149 256 -149H258L165 -243Q130 -250 107 -261ZM371 -37L303 -105Q278 -107 256 -107Q215 -107 181 -101Q147 -95 127 -85.5Q107 -76 107 -64Q107 -52 127 -42.5Q147 -33 181 -27Q215 -21 256 -21Q326 -21 371 -37Z"/>
</svg>