<svg xmlns="http://www.w3.org/2000/svg" viewBox="0 -512 512 512">
	<path fill="#000000" d="M299 -373Q299 -360 289.5 -350.5Q280 -341 266.5 -341Q253 -341 244 -350.5Q235 -360 235 -373.5Q235 -387 244 -396Q253 -405 266.5 -405Q280 -405 289.5 -396Q299 -387 299 -373ZM181 -341Q168 -341 158.5 -332Q149 -323 149 -309.5Q149 -296 158.5 -286.5Q168 -277 181.5 -277Q195 -277 204 -286.5Q213 -296 213 -309.5Q213 -323 204 -332Q195 -341 181 -341ZM299 -192L282 -240H345L391 -263Q397 -266 399 -272Q401 -278 398.5 -284Q396 -290 389.5 -292.5Q383 -295 377 -292L359 -283L349 -301Q344 -311 334 -316.5Q324 -322 313 -319L260 -308Q249 -305 242 -296Q235 -287 235 -276V-261L183 -226Q179 -223 178 -220L159 -183L121 -164Q115 -161 113 -154.5Q111 -148 114 -142Q118 -133 128 -133Q132 -133 135 -135L183 -159L205 -203L235 -171Q227 -149 199 -120Q176 -98 141 -72Q116 -54 88 -36L64 -21L90 -10Q123 2 159 10Q209 21 256 21Q303 21 353 10Q389 2 422 -10L448 -21L419 -47Q384 -78 356 -110Q318 -154 299 -192ZM359 -211L353 -208H327L328 -205Q344 -173 373 -140L362 -213Z"/>
</svg>