<svg xmlns="http://www.w3.org/2000/svg" viewBox="0 -512 512 512">
	<path fill="#000000" d="M256 -427V-405L240 -419L166 -331L235 -288V-338L230 -341L256 -372V43H299V-166L340 -207Q378 -201 420 -218Q456 -233 483 -260L453 -290Q434 -270 402 -258Q367 -245 341 -250L299 -294V-427ZM363 -363Q345 -363 332.5 -350.5Q320 -338 320 -320Q320 -302 332.5 -289.5Q345 -277 362.5 -277Q380 -277 392.5 -289.5Q405 -302 405 -320Q405 -338 392.5 -350.5Q380 -363 363 -363ZM235 -282L151 -199Q121 -169 104 -142Q85 -112 65 -61L105 -46Q121 -86 135 -110Q147 -131 168 -153L197 -124L91 -18L121 12L235 -102Z"/>
</svg>