<svg xmlns="http://www.w3.org/2000/svg" viewBox="0 -512 512 512">
	<path fill="#000000" d="M381 -64L403 -43Q380 -23 341 -11.5Q302 0 256 0Q210 0 170.5 -11.5Q131 -23 108 -42.5Q85 -62 85 -85V-299Q85 -322 108 -341.5Q131 -361 170.5 -372.5Q210 -384 256 -384Q302 -384 341 -372.5Q380 -361 403 -341L381 -320L373 -311Q357 -323 330 -331Q297 -341 256 -341Q218 -341 186 -333Q160 -326 143 -314Q128 -305 128 -298.5Q128 -292 143 -283Q160 -272 186 -265Q218 -256 257 -256Q296 -256 329 -266L349 -245H288V-215Q271 -213 256 -213Q219 -213 185.5 -221Q152 -229 128 -242V-182Q149 -167 183 -158Q217 -149 256 -149Q271 -149 288 -151V-139H349L328 -117L331 -115Q294 -107 256 -107Q182 -107 128 -133V-85Q128 -79 143 -70Q160 -58 186 -51Q218 -43 256 -43Q296 -43 330 -53Q357 -60 373 -72ZM404 -297L373 -267L427 -213H320V-171H427L373 -117L404 -87L509 -192Z"/>
</svg>