<svg xmlns="http://www.w3.org/2000/svg" viewBox="0 -512 512 512">
	<path fill="#000000" d="M235 -44Q203 -46 176 -55Q154 -62 141 -71Q128 -80 128 -85V-133Q164 -115 213 -109Q213 -135 218 -152Q160 -159 128 -182V-242Q151 -229 183.5 -221.5Q216 -214 252 -213L254 -215Q289 -250 337.5 -255Q386 -260 427 -234V-299Q427 -322 404 -341.5Q381 -361 341.5 -372.5Q302 -384 256 -384Q210 -384 170.5 -372.5Q131 -361 108 -341.5Q85 -322 85 -299V-85Q85 -62 108 -42.5Q131 -23 170.5 -11.5Q210 0 256 0Q271 0 277 -1Q263 -10 254 -19Q242 -31 235 -44ZM256 -341Q294 -341 326 -333Q352 -326 369 -314Q384 -305 384 -298.5Q384 -292 369 -283Q352 -272 326 -265Q294 -256 256 -256Q218 -256 186 -265Q160 -272 143 -283Q128 -292 128 -298.5Q128 -305 143 -314Q160 -326 186 -333Q218 -341 256 -341ZM433 -66Q448 -89 448 -117Q448 -157 420 -185Q392 -213 352 -213Q312 -213 284 -185Q256 -157 256 -117Q256 -77 284 -49Q312 -21 352 -21Q379 -21 403 -36L469 30L499 0ZM352 -64Q330 -64 314.5 -79.5Q299 -95 299 -117Q299 -139 314.5 -155Q330 -171 352 -171Q374 -171 389.5 -155Q405 -139 405 -117Q405 -95 389.5 -79.5Q374 -64 352 -64Z"/>
</svg>