<svg xmlns="http://www.w3.org/2000/svg" viewBox="0 -512 512 512">
	<path fill="#000000" d="M405 -192V-160Q441 -160 466 -135Q491 -110 491 -75Q491 -49 476 -28L453 -51Q459 -62 459 -75Q459 -97 443 -112.5Q427 -128 405 -128V-96L357 -144ZM405 43V11Q370 11 345 -14Q320 -39 320 -75Q320 -100 334 -122L358 -99Q352 -87 352 -75Q352 -53 367.5 -37Q383 -21 405 -21V-53L453 -5ZM256 -384Q302 -384 341.5 -372.5Q381 -361 404 -341.5Q427 -322 427 -298.5Q427 -275 404 -255.5Q381 -236 341.5 -224.5Q302 -213 256 -213Q210 -213 170.5 -224.5Q131 -236 108 -255.5Q85 -275 85 -298.5Q85 -322 108 -341.5Q131 -361 170.5 -372.5Q210 -384 256 -384ZM85 -256Q85 -233 108 -213.5Q131 -194 170.5 -182.5Q210 -171 256 -171Q291 -171 323 -177Q291 -149 281 -108L256 -107Q210 -107 170.5 -118.5Q131 -130 108 -149.5Q85 -169 85 -192ZM427 -256V-213H403Q427 -233 427 -256ZM85 -149Q85 -126 108 -106.5Q131 -87 170.5 -75.5Q210 -64 256 -64L277 -65Q280 -32 298 -3L256 0Q210 0 170.5 -11.5Q131 -23 108 -42.5Q85 -62 85 -85Z"/>
</svg>