<svg xmlns="http://www.w3.org/2000/svg" viewBox="0 -512 512 512">
	<path fill="#000000" d="M256 -107Q279 -107 305 -111L367 -173Q346 -162 317 -155.5Q288 -149 256 -149Q217 -149 183 -158Q149 -167 128 -182V-242Q152 -229 185.5 -221Q219 -213 256 -213Q293 -213 326.5 -221Q360 -229 384 -242V-189L414 -219Q419 -224 427 -228V-299Q427 -322 404 -341.5Q381 -361 341.5 -372.5Q302 -384 256 -384Q210 -384 170.5 -372.5Q131 -361 108 -341.5Q85 -322 85 -299V-85Q85 -64 105 -45.5Q125 -27 159 -15Q193 -3 235 -1V-40L238 -44Q206 -45 178 -54Q155 -61 141 -71Q128 -80 128 -85V-133Q182 -107 256 -107ZM256 -341Q294 -341 326 -333Q352 -326 369 -314Q384 -305 384 -298.5Q384 -292 369 -283Q352 -272 326 -265Q294 -256 256 -256Q218 -256 186 -265Q160 -272 143 -283Q128 -292 128 -298.5Q128 -305 143 -314Q160 -326 186 -333Q218 -341 256 -341ZM408 -153L452 -109L321 21H277V-22ZM487 -145L467 -124L423 -168L444 -189Q447 -192 451.5 -192Q456 -192 459 -189L487 -161Q491 -157 491 -152.5Q491 -148 487 -145Z"/>
</svg>