<svg xmlns="http://www.w3.org/2000/svg" viewBox="0 -512 512 512">
	<path fill="#000000" d="M256 -107Q265 -107 282 -108Q288 -133 302 -153Q279 -149 256 -149Q217 -149 183 -158Q149 -167 128 -182V-242Q152 -229 185.5 -221Q219 -213 256 -213Q293 -213 326.5 -221Q360 -229 384 -242V-209Q401 -213 417 -213Q423 -213 427 -213V-299Q427 -322 404 -341.5Q381 -361 341.5 -372.5Q302 -384 256 -384Q210 -384 170.5 -372.5Q131 -361 108 -341.5Q85 -322 85 -299V-85Q85 -62 108 -42.5Q131 -23 170.5 -11.5Q210 0 256 0Q277 0 297 -3Q285 -22 281 -44Q273 -43 256 -43Q218 -43 186 -51Q160 -58 143 -70Q128 -79 128 -85V-133Q182 -107 256 -107ZM256 -341Q294 -341 326 -333Q352 -326 369 -314Q384 -305 384 -298.5Q384 -292 369 -283Q352 -272 326 -265Q294 -256 256 -256Q218 -256 186 -265Q160 -272 143 -283Q128 -292 128 -298.5Q128 -305 143 -314Q160 -326 186 -333Q218 -341 256 -341ZM491 -75Q491 -49 476 -28L453 -51Q459 -62 459 -75Q459 -97 443 -112.5Q427 -128 405 -128V-96L357 -144L405 -192V-160Q441 -160 466 -135Q491 -110 491 -75ZM405 -53L453 -5L405 43V11Q370 11 345 -14Q320 -39 320 -75Q320 -100 334 -122L358 -99Q352 -87 352 -75Q352 -53 367.5 -37Q383 -21 405 -21Z"/>
</svg>