<svg xmlns="http://www.w3.org/2000/svg" viewBox="0 -512 512 512">
	<path fill="#000000" d="M301 -215L151 -365Q193 -384 256 -384Q302 -384 341.5 -372.5Q381 -361 404 -341.5Q427 -322 427 -299Q427 -269 391.5 -246.5Q356 -224 301 -215ZM346 -171H363Q393 -171 416 -162Q427 -176 427 -192V-256Q427 -232 401.5 -211.5Q376 -191 335 -181ZM393 -124L486 -30Q491 -38 493 -41Q478 -73 452 -95Q426 -117 393 -124ZM471 11L444 38L431 26Q393 45 363 45Q320 45 284.5 21Q249 -3 235 -41Q254 -86 297 -109L265 -141Q250 -132 224 -107Q164 -113 124.5 -136.5Q85 -160 85 -192V-256Q85 -223 128.5 -199.5Q172 -176 237 -171L188 -220Q142 -231 113.5 -252.5Q85 -274 85 -299Q85 -305 90 -318L23 -384L51 -412ZM401 -6L378 -30Q375 -21 363 -21Q353 -21 347 -27Q341 -33 341 -43.5Q341 -54 350 -60L326 -83Q309 -66 309 -44Q309 -22 324.5 -6.5Q340 9 363 9Q374 10 384.5 6Q395 2 401 -6ZM188 -43L194 -58L196 -61Q198 -65 198 -68Q147 -78 116 -99.5Q85 -121 85 -149V-85Q85 -57 119 -34.5Q153 -12 207 -4Q199 -16 196 -28Z"/>
</svg>