<svg xmlns="http://www.w3.org/2000/svg" viewBox="0 -512 512 512">
	<path fill="#000000" d="M256 -43Q218 -43 186 -51Q160 -58 143 -70Q128 -79 128 -85V-133Q182 -107 256 -107L278 -108Q277 -111 277 -117Q277 -134 282 -151Q274 -149 256 -149Q217 -149 183 -158Q149 -167 128 -182V-242Q152 -229 185.5 -221Q219 -213 256 -213Q293 -213 326.5 -221Q360 -229 384 -242V-234Q388 -235 395 -235Q410 -235 427 -230V-299Q427 -322 404 -341.5Q381 -361 341.5 -372.5Q302 -384 256 -384Q210 -384 170.5 -372.5Q131 -361 108 -341.5Q85 -322 85 -299V-85Q85 -62 108 -42.5Q131 -23 170.5 -11.5Q210 0 256 0Q288 0 320 -6Q307 -25 297 -46Q276 -43 256 -43ZM256 -341Q294 -341 326 -333Q352 -326 369 -314Q384 -305 384 -298.5Q384 -292 369 -283Q352 -272 326 -265Q294 -256 256 -256Q218 -256 186 -265Q160 -272 143 -283Q128 -292 128 -298.5Q128 -305 143 -314Q160 -326 186 -333Q218 -341 256 -341ZM395 -192Q364 -192 342 -170Q320 -148 320 -117Q320 -93 339 -57Q353 -31 375 -2L395 21L414 -2Q436 -31 450 -57Q469 -93 469 -117Q469 -148 447 -170Q425 -192 395 -192ZM395 -90Q384 -90 376.5 -97.5Q369 -105 369 -115.5Q369 -126 377 -133.5Q385 -141 394.5 -141Q404 -141 412 -133Q420 -125 421 -115.5Q422 -106 414 -98Q406 -90 395 -90Z"/>
</svg>