<svg xmlns="http://www.w3.org/2000/svg" viewBox="0 -512 512 512">
	<path fill="#000000" d="M399 -185Q380 -204 355.5 -210Q331 -216 306 -209.5Q281 -203 262.5 -184.5Q244 -166 237.5 -141.5Q231 -117 237.5 -92.5Q244 -68 263 -49Q287 -26 320 -22Q353 -18 382 -36L448 30L478 0L412 -66Q430 -95 426 -128Q422 -161 399 -185ZM368 -80Q353 -64 331 -64Q309 -64 293 -79.5Q277 -95 277 -117Q277 -139 293 -155Q309 -171 331 -171Q353 -171 368.5 -155Q384 -139 384 -117Q384 -95 368 -80ZM233 -19Q211 -41 201 -69Q150 -77 117.5 -99.5Q85 -122 85 -149V-85Q85 -62 108 -42.5Q131 -23 170.5 -11.5Q210 0 256 0Q243 -9 233 -19ZM85 -256V-192Q85 -165 114.5 -143.5Q144 -122 192 -113V-117Q192 -147 204 -175Q152 -183 118.5 -205.5Q85 -228 85 -256ZM256 -384Q210 -384 170.5 -372.5Q131 -361 108 -341.5Q85 -322 85 -299Q85 -278 104.5 -259.5Q124 -241 157.5 -229Q191 -217 231 -213H233Q252 -234 277.5 -245Q303 -256 331.5 -256Q360 -256 387 -244Q403 -252 414 -266.5Q425 -281 427 -299Q427 -322 404 -341.5Q381 -361 341.5 -372.5Q302 -384 256 -384Z"/>
</svg>