<svg xmlns="http://www.w3.org/2000/svg" viewBox="0 -512 512 512">
	<path fill="#000000" d="M491 -43Q486 -34 484 -32L390 -126Q425 -118 451.5 -96Q478 -74 491 -43ZM256 -341Q294 -341 326 -333Q352 -326 369 -314Q384 -305 384 -299Q384 -293 369 -283Q353 -273 327 -266Q297 -257 260 -256L301 -215Q353 -222 384 -241V-181Q371 -173 363 -169Q395 -169 427 -156V-299Q427 -322 404 -341.5Q381 -361 341.5 -372.5Q302 -384 256 -384Q193 -384 151 -365L186 -331Q214 -341 256 -341ZM471 11L444 38L431 26Q393 45 363 45Q320 45 284.5 21Q249 -3 235 -41Q254 -86 297 -109L265 -141Q250 -132 224 -107Q167 -110 126 -132V-85Q126 -79 143 -69Q163 -57 190 -51L188 -43L205 -4Q153 -12 119 -34.5Q85 -57 85 -85V-299Q85 -305 90 -318L23 -384L51 -412ZM258 -149L186 -222Q159 -227 126 -243V-183Q146 -168 180 -159.5Q214 -151 254 -151Q255 -150 257 -150ZM401 -6L378 -30Q375 -21 363 -21Q353 -21 347 -27Q341 -33 341 -43.5Q341 -54 350 -60L326 -83Q309 -66 309 -44Q309 -22 324.5 -6.5Q340 9 363 9Q374 10 384.5 6Q395 2 401 -6Z"/>
</svg>