<svg xmlns="http://www.w3.org/2000/svg" viewBox="0 -512 512 512">
	<path fill="#000000" d="M128 -182V-242Q152 -229 185.5 -221Q219 -213 256 -213Q293 -213 326.5 -221Q360 -229 384 -242V-212L395 -213Q410 -213 427 -208V-299Q427 -322 404 -341.5Q381 -361 341.5 -372.5Q302 -384 256 -384Q210 -384 170.5 -372.5Q131 -361 108 -341.5Q85 -322 85 -299V-85Q85 -62 108 -42.5Q131 -23 170.5 -11.5Q210 0 256 0Q270 0 277 -1V-44Q271 -43 256 -43Q218 -43 186 -51Q160 -58 143 -70Q128 -79 128 -85V-133Q182 -107 256 -107Q265 -107 282 -108Q288 -124 300 -134Q302 -143 306 -154Q282 -149 256 -149Q217 -149 183 -158Q149 -167 128 -182ZM256 -341Q294 -341 326 -333Q352 -326 369 -314Q384 -305 384 -298.5Q384 -292 369 -283Q352 -272 326 -265Q294 -256 256 -256Q218 -256 186 -265Q160 -272 143 -283Q128 -292 128 -298.5Q128 -305 143 -314Q160 -326 186 -333Q218 -341 256 -341ZM448 -107V-117Q448 -139 432.5 -155Q417 -171 395 -171Q373 -171 357 -155Q341 -139 341 -117V-107Q333 -107 326.5 -100.5Q320 -94 320 -85V0Q320 9 326.5 15Q333 21 341 21H448Q457 21 463 15Q469 9 469 0V-85Q469 -94 463 -100.5Q457 -107 448 -107ZM427 -107H363V-117Q363 -131 372 -140Q381 -149 394.5 -149Q408 -149 417.5 -140Q427 -131 427 -117Z"/>
</svg>