<svg xmlns="http://www.w3.org/2000/svg" viewBox="0 -512 512 512">
	<path fill="#000000" d="M405 -171Q371 -171 342 -154Q313 -137 296 -109Q276 -107 256 -107Q210 -107 170.5 -118.5Q131 -130 108 -149.5Q85 -169 85 -192V-256Q85 -233 108 -213.5Q131 -194 170.5 -182.5Q210 -171 256 -171Q302 -171 341.5 -182.5Q381 -194 404 -213.5Q427 -233 427 -256V-192Q427 -181 421 -170Q416 -171 405 -171ZM256 -213Q302 -213 341.5 -224.5Q381 -236 404 -255.5Q427 -275 427 -298.5Q427 -322 404 -341.5Q381 -361 341.5 -372.5Q302 -384 256 -384Q210 -384 170.5 -372.5Q131 -361 108 -341.5Q85 -322 85 -298.5Q85 -275 108 -255.5Q131 -236 170.5 -224.5Q210 -213 256 -213ZM279 -65Q272 -64 256 -64Q210 -64 170.5 -75.5Q131 -87 108 -106.5Q85 -126 85 -149V-85Q85 -62 108 -42.5Q131 -23 170.5 -11.5Q210 0 256 0Q275 0 284 -1Q277 -22 277 -43Q277 -53 279 -65ZM427 -21V-107H384V-21H341L405 43L469 -21Z"/>
</svg>