<svg xmlns="http://www.w3.org/2000/svg" viewBox="0 -512 512 512">
	<path fill="#000000" d="M427 -169V-299Q427 -322 404 -341.5Q381 -361 341.5 -372.5Q302 -384 256 -384Q210 -384 170.5 -372.5Q131 -361 108 -341.5Q85 -322 85 -299V-85Q85 -62 108 -42.5Q131 -23 170.5 -11.5Q210 0 256 0Q275 0 284 -1Q277 -22 277 -43V-44Q271 -43 256 -43Q218 -43 186 -51Q160 -58 143 -70Q128 -79 128 -85V-133Q182 -107 256 -107Q276 -107 296 -109Q313 -137 342 -154Q371 -171 405 -171Q414 -171 427 -169ZM384 -182Q363 -167 329 -158Q295 -149 256 -149Q217 -149 183 -158Q149 -167 128 -182V-242Q152 -229 185.5 -221Q219 -213 256 -213Q293 -213 326.5 -221Q360 -229 384 -242ZM256 -256Q218 -256 186 -265Q160 -272 143 -283Q128 -292 128 -298.5Q128 -305 143 -314Q160 -326 186 -333Q218 -341 256 -341Q294 -341 326 -333Q352 -326 369 -314Q384 -305 384 -298.5Q384 -292 369 -283Q352 -272 326 -265Q294 -256 256 -256ZM469 -64V-21H384V21L320 -43L384 -107V-64Z"/>
</svg>