<svg xmlns="http://www.w3.org/2000/svg" viewBox="0 -512 512 512">
	<path fill="#000000" d="M85 -149V-85Q85 -64 105 -45.5Q125 -27 159 -15Q193 -3 235 0V-62L237 -64Q195 -67 160.5 -78.5Q126 -90 105.5 -109Q85 -128 85 -149ZM256 -171Q210 -171 170.5 -182.5Q131 -194 108 -213.5Q85 -233 85 -256V-192Q85 -169 108 -149.5Q131 -130 170.5 -118.5Q210 -107 256 -107H281L363 -189Q313 -171 256 -171ZM256 -384Q210 -384 170.5 -372.5Q131 -361 108 -341.5Q85 -322 85 -298.5Q85 -275 108 -255.5Q131 -236 170.5 -224.5Q210 -213 256 -213Q302 -213 341.5 -224.5Q381 -236 404 -255.5Q427 -275 427 -298.5Q427 -322 404 -341.5Q381 -361 341.5 -372.5Q302 -384 256 -384ZM448 -211Q443 -211 440 -207L418 -186L462 -143L483 -164Q487 -168 487 -172.5Q487 -177 483 -181L457 -207Q454 -211 449 -211ZM406 -173L277 -44V0H321L451 -129Z"/>
</svg>