<svg xmlns="http://www.w3.org/2000/svg" viewBox="0 -512 512 512">
	<path fill="#000000" d="M427 -190Q422 -190 418 -186L397 -164L442 -119L463 -141Q466 -144 466 -149.5Q466 -155 463 -158L435 -186Q431 -190 427 -190ZM386 -151L256 -23V21H301L431 -109ZM171 -320H128V-405H171ZM213 -107H171V-149H213ZM256 -320H213V-405H256ZM341 -405V-363H299V-405ZM427 -363H384V-405H427ZM213 -21V-64H171V-107H128V-149H85V-192H128V-320H85V-405H43V21H213ZM128 -21H85V-64H128ZM469 -235H384V-277H469ZM427 -320V-363H469V-320ZM384 -363V-277H299V-320H341V-363ZM213 -64V-107H256V-192H171V-277H256V-235H299V-192H341V-235H384V-211L322 -149H299V-126L237 -64Z"/>
</svg>