<svg xmlns="http://www.w3.org/2000/svg" viewBox="0 -512 512 512">
	<path fill="#000000" d="M194 -28L188 -43L192 -51Q164 -59 145 -70Q128 -80 128 -85V-132Q170 -113 226 -107Q248 -132 279 -149H256Q218 -149 183.5 -158Q149 -167 128 -181V-243Q154 -230 185 -222Q219 -213 256 -213Q334 -213 384 -243V-183Q371 -175 363 -171Q395 -171 427 -158V-299Q427 -322 404 -341.5Q381 -361 341.5 -372.5Q302 -384 256 -384Q210 -384 170.5 -372.5Q131 -361 108 -341.5Q85 -322 85 -299V-85Q85 -57 119 -34.5Q153 -12 207 -4Q203 -11 194 -28ZM256 -341Q294 -341 326 -333Q352 -326 369 -314Q384 -305 384 -298.5Q384 -292 369 -283Q352 -272 326 -265Q294 -256 256 -256Q218 -256 186 -265Q160 -272 143 -283Q128 -292 128 -298.5Q128 -305 143 -314Q160 -326 186 -333Q218 -341 256 -341ZM363 -64Q372 -64 378 -58Q384 -52 384 -42.5Q384 -33 378 -27Q372 -21 362.5 -21Q353 -21 347 -27Q341 -33 341 -42.5Q341 -52 347 -58Q353 -64 363 -64ZM363 -128Q320 -128 284.5 -104Q249 -80 235 -43Q249 -5 284.5 19Q320 43 362.5 43Q405 43 440.5 19Q476 -5 491 -43Q476 -80 440.5 -104Q405 -128 363 -128ZM363 11Q340 11 324.5 -4.5Q309 -20 309 -42.5Q309 -65 324.5 -80.5Q340 -96 362.5 -96Q385 -96 400.5 -80.5Q416 -65 416 -42.5Q416 -20 400.5 -4.5Q385 11 363 11Z"/>
</svg>