<svg xmlns="http://www.w3.org/2000/svg" viewBox="0 -512 512 512">
	<path fill="#000000" d="M352 -101L413 -65L397 -39L320 -85V-192H352ZM491 -107Q491 -66 471 -31.5Q451 3 416.5 23Q382 43 341 43Q304 43 271.5 25.5Q239 8 219 -21Q176 -24 140.5 -35.5Q105 -47 84.5 -66Q64 -85 64 -107V-171Q64 -141 100.5 -118Q137 -95 193 -88Q192 -100 192 -107Q192 -117 194 -131Q138 -138 101 -161Q64 -184 64 -213V-277Q64 -255 84.5 -236.5Q105 -218 140.5 -206Q176 -194 219 -192Q238 -220 267 -236Q249 -235 235 -235Q188 -235 149 -246.5Q110 -258 87 -277.5Q64 -297 64 -320Q64 -343 87 -362.5Q110 -382 149 -393.5Q188 -405 234.5 -405Q281 -405 320 -393.5Q359 -382 382 -362.5Q405 -343 405 -320Q405 -301 389.5 -284.5Q374 -268 347 -256Q371 -255 393 -246Q405 -262 405 -277V-241Q444 -223 467.5 -187Q491 -151 491 -107ZM448 -107Q448 -136 433.5 -160.5Q419 -185 394.5 -199Q370 -213 341 -213Q312 -213 287.5 -199Q263 -185 249 -160.5Q235 -136 235 -107Q235 -78 249 -53.5Q263 -29 287.5 -14.5Q312 0 341 0Q370 0 394.5 -14.5Q419 -29 433.5 -53.5Q448 -78 448 -107Z"/>
</svg>