<svg xmlns="http://www.w3.org/2000/svg" viewBox="0 -512 512 512">
	<path fill="#000000" d="M395 -192Q364 -192 342 -170Q320 -148 320 -117Q320 -93 339 -57Q353 -31 375 -2L395 21L414 -2Q436 -31 450 -57Q469 -93 469 -117Q469 -148 447 -170Q425 -192 395 -192ZM395 -90Q384 -90 376.5 -97.5Q369 -105 369 -115.5Q369 -126 377 -133.5Q385 -141 394.5 -141Q404 -141 412 -133Q420 -125 421 -115.5Q422 -106 414 -98Q406 -90 395 -90ZM85 -192V-256Q85 -233 108 -213.5Q131 -194 170.5 -182.5Q210 -171 256 -171Q274 -171 292 -173Q277 -146 277 -117Q277 -111 278 -108Q271 -107 256 -107Q210 -107 170.5 -118.5Q131 -130 108 -149.5Q85 -169 85 -192ZM85 -299Q85 -322 108 -341.5Q131 -361 170.5 -372.5Q210 -384 256 -384Q302 -384 341.5 -372.5Q381 -361 404 -341.5Q427 -322 427 -298.5Q427 -275 404 -255.5Q381 -236 341.5 -224.5Q302 -213 256 -213Q210 -213 170.5 -224.5Q131 -236 108 -255.5Q85 -275 85 -299ZM320 -6Q290 0 256 0Q210 0 170.5 -11.5Q131 -23 108 -42.5Q85 -62 85 -85V-149Q85 -126 108 -106.5Q131 -87 170.5 -75.5Q210 -64 256 -64Q270 -64 288 -65Q300 -36 320 -6Z"/>
</svg>