<svg xmlns="http://www.w3.org/2000/svg" viewBox="0 -512 512 512">
	<path fill="#000000" d="M341 -405V-363H299V-405ZM256 -405H213V-320H256ZM213 -149H171V-107H213ZM341 -363V-320H299V-277H384V-363ZM171 -405H128V-320H171ZM427 -405H384V-363H427ZM294 21H43V-405H85V-320H128V-192H85V-149H128V-107H171V-64H213V-21H256V-64H213V-107H256V-192H171V-277H256V-235H299V-192H341V-235H384V-192H469V-154Q439 -171 405 -171Q367 -171 335 -149H299V-113Q277 -81 277 -43Q277 -9 294 21ZM128 -64H85V-21H128ZM469 -277H384V-235H469ZM469 -320V-363H427V-320ZM450 -117L405 -73L361 -117L331 -87L375 -43L331 2L361 32L405 -13L450 32L480 2L435 -43L480 -87Z"/>
</svg>