<svg xmlns="http://www.w3.org/2000/svg" viewBox="0 -512 512 512">
	<path fill="#000000" d="M43 -405V21H469V-21H427V-64H469V-107H427V-149H469V-192H384V-235H341V-192H299V-235H256V-277H171V-192H256V-107H213V-64H256V-21H213V-64H171V-107H128V-149H85V-192H128V-320H85V-405ZM128 -320H171V-405H128ZM171 -107H213V-149H171ZM384 -235H469V-277H384ZM384 -277V-363H341V-320H299V-277ZM341 -363V-405H299V-363ZM384 -363H427V-405H384ZM427 -363V-320H469V-363ZM213 -405V-320H256V-405ZM299 -149H341V-107H384V-21H299ZM85 -64H128V-21H85Z"/>
</svg>