<svg xmlns="http://www.w3.org/2000/svg" viewBox="0 -512 512 512">
	<path fill="#000000" d="M189 -192L84 -87L53 -117L107 -171H0V-213H107L53 -267L84 -297ZM256 -384Q202 -384 158.5 -369Q115 -354 97 -329L107 -320L129 -297L128 -299Q128 -305 143 -314Q160 -326 186 -333Q218 -341 256 -341Q294 -341 326 -333Q352 -326 369 -314Q384 -305 384 -298.5Q384 -292 369 -283Q352 -272 326 -265Q294 -256 256 -256Q218 -256 185 -265Q160 -272 143 -283L209 -217Q233 -213 256 -213Q293 -213 326.5 -221Q360 -229 384 -242V-182Q363 -167 329 -158Q295 -149 256 -149Q226 -149 197 -155L162 -120Q206 -107 256 -107Q330 -107 384 -133V-85Q384 -79 369 -70Q352 -58 326 -51Q294 -43 256 -43Q218 -43 186 -51Q160 -58 143 -70Q128 -79 128 -85V-86L107 -64L97 -55Q116 -30 159 -15Q202 0 256 0Q302 0 341.5 -11.5Q381 -23 404 -42.5Q427 -62 427 -85V-299Q427 -322 404 -341.5Q381 -361 341.5 -372.5Q302 -384 256 -384Z"/>
</svg>