<svg xmlns="http://www.w3.org/2000/svg" viewBox="0 -512 512 512">
	<path fill="#000000" d="M407 -109Q427 -128 427 -149V-90ZM427 -256Q427 -232 402 -212Q377 -192 336 -181L382 -135Q403 -146 415 -161Q427 -176 427 -192ZM427 -299Q427 -322 404 -341.5Q381 -361 341.5 -372.5Q302 -384 256 -384Q198 -384 151 -366L300 -216Q355 -224 391 -246.5Q427 -269 427 -299ZM51 -411L24 -384L90 -318Q85 -308 85 -299Q85 -273 113 -252Q141 -231 187 -221L236 -171Q194 -174 159.5 -185.5Q125 -197 105 -215.5Q85 -234 85 -256V-192Q85 -169 108 -149.5Q131 -130 170.5 -118.5Q210 -107 256 -107Q276 -107 299 -109L334 -74Q298 -64 256 -64Q210 -64 170.5 -75.5Q131 -87 108 -106.5Q85 -126 85 -149V-85Q85 -62 108 -42.5Q131 -23 170.5 -11.5Q210 0 256 0Q292 0 324.5 -7Q357 -14 381 -27L445 37L472 10Z"/>
</svg>