<svg xmlns="http://www.w3.org/2000/svg" viewBox="0 -512 512 512">
	<path fill="#000000" d="M384 -299Q384 -275 361 -255.5Q338 -236 299 -224.5Q260 -213 213.5 -213Q167 -213 128 -224.5Q89 -236 66 -255.5Q43 -275 43 -298.5Q43 -322 66 -341.5Q89 -361 128 -372.5Q167 -384 213.5 -384Q260 -384 299 -372.5Q338 -361 361 -341.5Q384 -322 384 -299ZM213 -64Q167 -64 128 -75.5Q89 -87 66 -106.5Q43 -126 43 -149V-85Q43 -62 66 -42.5Q89 -23 128 -11.5Q167 0 213.5 0Q260 0 299 -11.5Q338 -23 361 -42.5Q384 -62 384 -85V-149Q384 -126 361 -106.5Q338 -87 299 -75.5Q260 -64 213 -64ZM213 -171Q167 -171 128 -182.5Q89 -194 66 -213.5Q43 -233 43 -256V-192Q43 -169 66 -149.5Q89 -130 128 -118.5Q167 -107 213.5 -107Q260 -107 299 -118.5Q338 -130 361 -149.5Q384 -169 384 -192V-256Q384 -233 361 -213.5Q338 -194 299 -182.5Q260 -171 213 -171ZM427 -85H469V-128H427ZM427 -299V-171H469V-299Z"/>
</svg>