<svg xmlns="http://www.w3.org/2000/svg" viewBox="0 -512 512 512">
	<path fill="#000000" d="M213 -384Q167 -384 128 -372.5Q89 -361 66 -341.5Q43 -322 43 -299V-85Q43 -62 66 -42.5Q89 -23 128 -11.5Q167 0 213.5 0Q260 0 299 -11.5Q338 -23 361 -42.5Q384 -62 384 -85V-299Q384 -322 361 -341.5Q338 -361 299 -372.5Q260 -384 213 -384ZM341 -85Q341 -79 326 -70Q309 -58 283 -51Q251 -43 213.5 -43Q176 -43 143 -51Q117 -58 100 -70Q85 -79 85 -85V-133Q139 -107 213 -107Q287 -107 341 -133ZM341 -182Q320 -167 286 -158Q252 -149 213.5 -149Q175 -149 140.5 -158Q106 -167 85 -182V-242Q109 -229 142.5 -221Q176 -213 213.5 -213Q251 -213 284 -221Q317 -229 341 -242ZM213 -256Q176 -256 143 -265Q117 -272 100 -283Q85 -292 85 -298.5Q85 -305 100 -314Q117 -326 143 -333Q176 -341 213.5 -341Q251 -341 283 -333Q309 -326 326 -314Q341 -305 341 -298.5Q341 -292 326 -283Q309 -272 283 -265Q251 -256 213 -256ZM469 -299V-171H427V-299ZM427 -128H469V-85H427Z"/>
</svg>