<svg xmlns="http://www.w3.org/2000/svg" viewBox="0 -512 512 512">
	<path fill="#000000" d="M85 -299Q85 -322 108 -341.5Q131 -361 170.5 -372.5Q210 -384 256 -384Q302 -384 341.5 -372.5Q381 -361 404 -341.5Q427 -322 427 -298.5Q427 -275 404 -255.5Q381 -236 341.5 -224.5Q302 -213 256 -213Q210 -213 170.5 -224.5Q131 -236 108 -255.5Q85 -275 85 -299ZM421 -170Q427 -181 427 -192V-256Q427 -233 404 -213.5Q381 -194 341.5 -182.5Q302 -171 256 -171Q210 -171 170.5 -182.5Q131 -194 108 -213.5Q85 -233 85 -256V-192Q85 -169 108 -149.5Q131 -130 170.5 -118.5Q210 -107 256 -107Q276 -107 296 -109Q313 -137 342 -154Q371 -171 405 -171Q416 -171 421 -170ZM279 -65Q272 -64 256 -64Q210 -64 170.5 -75.5Q131 -87 108 -106.5Q85 -126 85 -149V-85Q85 -62 108 -42.5Q131 -23 170.5 -11.5Q210 0 256 0Q275 0 284 -1Q277 -22 277 -43Q277 -53 279 -65ZM491 -43L427 -107V-64H341V-21H427V21Z"/>
</svg>