<svg xmlns="http://www.w3.org/2000/svg" viewBox="0 -512 512 512">
	<path fill="#000000" d="M256 -384Q202 -384 159 -369Q116 -354 97 -329L209 -217Q234 -213 256 -213Q302 -213 341.5 -224.5Q381 -236 404 -255.5Q427 -275 427 -298.5Q427 -322 404 -341.5Q381 -361 341.5 -372.5Q302 -384 256 -384ZM84 -297L53 -267L107 -213H0V-171H107L53 -117L84 -87L189 -192ZM427 -256Q427 -233 404 -213.5Q381 -194 341.5 -182.5Q302 -171 256 -171Q236 -171 215 -173L163 -121Q206 -107 256 -107Q302 -107 341.5 -118.5Q381 -130 404 -149.5Q427 -169 427 -192ZM427 -149Q427 -126 404 -106.5Q381 -87 341.5 -75.5Q302 -64 256 -64Q221 -64 189 -71Q157 -78 132 -91L97 -55Q115 -30 158.5 -15Q202 0 256 0Q302 0 341.5 -11.5Q381 -23 404 -42.5Q427 -62 427 -85Z"/>
</svg>