<svg xmlns="http://www.w3.org/2000/svg" viewBox="0 -512 512 512">
	<path fill="#000000" d="M43 -405H128V-448H43Q25 -448 12.5 -435.5Q0 -423 0 -405V-320H43ZM469 -448H384V-405H469V-320H512V-405Q512 -423 499.5 -435.5Q487 -448 469 -448ZM43 -64H0V21Q0 39 12.5 51.5Q25 64 43 64H128V21H43ZM469 21H384V64H469Q487 64 499.5 51.5Q512 39 512 21V-64H469ZM171 -320V-363H213V-320ZM213 -149V-192H256V-149ZM341 -363H384V-320H341ZM384 -320H427V-277H384ZM384 -149H427V-107H384ZM427 -192H341V-64H427V-21H85V-363H128V-320H171V-235H128V-192H171V-149H213V-107H256V-64H299V-107H256V-149H299V-235H213V-320H256V-363H299V-277H341V-235H427ZM171 -64V-107H128V-64Z"/>
</svg>