<svg xmlns="http://www.w3.org/2000/svg" viewBox="0 -512 512 512">
	<path fill="#000000" d="M256 -384Q210 -384 170.5 -372.5Q131 -361 108 -341.5Q85 -322 85 -298.5Q85 -275 108 -255.5Q131 -236 170.5 -224.5Q210 -213 256 -213Q302 -213 341.5 -224.5Q381 -236 404 -255.5Q427 -275 427 -298.5Q427 -322 404 -341.5Q381 -361 341.5 -372.5Q302 -384 256 -384ZM85 -256V-192Q85 -169 108 -149.5Q131 -130 170.5 -118.5Q210 -107 256 -107Q302 -107 341.5 -118.5Q381 -130 404 -149.5Q427 -169 427 -192V-256Q427 -233 404 -213.5Q381 -194 341.5 -182.5Q302 -171 256 -171Q210 -171 170.5 -182.5Q131 -194 108 -213.5Q85 -233 85 -256ZM85 -149V-85Q85 -62 108 -42.5Q131 -23 170.5 -11.5Q210 0 256 0Q302 0 341.5 -11.5Q381 -23 404 -42.5Q427 -62 427 -85V-149Q427 -126 404 -106.5Q381 -87 341.5 -75.5Q302 -64 256 -64Q210 -64 170.5 -75.5Q131 -87 108 -106.5Q85 -126 85 -149Z"/>
</svg>