<svg xmlns="http://www.w3.org/2000/svg" viewBox="0 -512 512 512">
	<path fill="#000000" d="M85 -192V-256Q85 -233 108 -213.5Q131 -194 170.5 -182.5Q210 -171 256 -171Q302 -171 341.5 -182.5Q381 -194 404 -213.5Q427 -233 427 -256V-192Q427 -180 416 -162Q393 -171 363 -171Q323 -171 286.5 -154.5Q250 -138 226 -109Q165 -114 125 -137Q85 -160 85 -192ZM256 -213Q302 -213 341.5 -224.5Q381 -236 404 -256Q427 -276 427 -299Q427 -322 404 -341.5Q381 -361 341.5 -372.5Q302 -384 256 -384Q210 -384 170.5 -372.5Q131 -361 108 -341.5Q85 -322 85 -299Q85 -276 108 -256Q131 -236 170.5 -224.5Q210 -213 256 -213ZM194 -28L188 -43L196 -61Q198 -65 198 -68Q147 -78 116 -99.5Q85 -121 85 -149V-85Q85 -57 119 -34.5Q153 -12 207 -4Q203 -11 194 -28ZM363 -64Q353 -64 347 -58Q341 -52 341 -42.5Q341 -33 347 -27Q353 -21 362.5 -21Q372 -21 378 -27Q384 -33 384 -42.5Q384 -52 378 -58Q372 -64 363 -64ZM491 -43Q476 -5 440.5 19Q405 43 362.5 43Q320 43 284.5 19Q249 -5 235 -43Q249 -80 284.5 -104Q320 -128 362.5 -128Q405 -128 440.5 -104Q476 -80 491 -43ZM416 -43Q416 -65 400.5 -80.5Q385 -96 362.5 -96Q340 -96 324.5 -80.5Q309 -65 309 -42.5Q309 -20 324.5 -4.5Q340 11 362.5 11Q385 11 400.5 -4.5Q416 -20 416 -43Z"/>
</svg>