<svg xmlns="http://www.w3.org/2000/svg" viewBox="0 -512 512 512">
	<path fill="#000000" d="M352 -101L413 -65L397 -39L320 -85V-192H352ZM491 -107Q491 -66 471 -31.5Q451 3 416.5 23Q382 43 341 43Q304 43 271.5 25.5Q239 8 219 -21Q176 -24 140.5 -35.5Q105 -47 84.5 -66Q64 -85 64 -107V-320Q64 -343 87 -362.5Q110 -382 149 -393.5Q188 -405 234.5 -405Q281 -405 320 -393.5Q359 -382 382 -362.5Q405 -343 405 -320V-241Q444 -223 467.5 -187Q491 -151 491 -107ZM363 -254V-264Q355 -259 346 -256Q352 -256 363 -254ZM107 -320Q107 -314 122 -304Q139 -293 165 -286Q197 -277 234.5 -277Q272 -277 305 -286Q331 -293 348 -304Q363 -314 363 -320Q363 -326 348 -336Q331 -347 305 -354Q272 -363 234.5 -363Q197 -363 165 -354Q139 -347 122 -336Q107 -326 107 -320ZM107 -204Q124 -191 150 -183Q176 -175 207 -172Q227 -213 268 -236Q250 -235 235 -235Q197 -235 164 -242.5Q131 -250 107 -264ZM198 -67Q192 -88 192 -107Q192 -118 194 -131Q143 -137 107 -154V-107Q107 -102 118 -94Q129 -86 148 -79Q170 -70 198 -67ZM448 -107Q448 -136 433.5 -160.5Q419 -185 394.5 -199Q370 -213 341 -213Q312 -213 287.5 -199Q263 -185 249 -160.5Q235 -136 235 -107Q235 -78 249 -53.5Q263 -29 287.5 -14.5Q312 0 341 0Q370 0 394.5 -14.5Q419 -29 433.5 -53.5Q448 -78 448 -107Z"/>
</svg>