<svg xmlns="http://www.w3.org/2000/svg" viewBox="0 -512 512 512">
	<path fill="#000000" d="M44 -171H468Q466 -149 460 -128H299V-85H363V-43H320V0H267V21H256Q202 21 155 -4.5Q108 -30 78.5 -73.5Q49 -117 44 -171ZM468 -213H44Q49 -267 78.5 -310.5Q108 -354 155 -379.5Q202 -405 256 -405Q307 -405 352 -382V-341H395V-299H427V-256H460Q466 -235 468 -213ZM256 -304Q256 -326 240.5 -341.5Q225 -357 203 -357Q181 -357 165 -341.5Q149 -326 149 -304Q149 -282 165 -266.5Q181 -251 203 -251Q225 -251 240.5 -266.5Q256 -282 256 -304Z"/>
</svg>