<svg xmlns="http://www.w3.org/2000/svg" viewBox="0 -512 512 512">
	<path fill="#000000" d="M44 -171H468Q463 -117 433.5 -73.5Q404 -30 357 -4.5Q310 21 256 21Q202 21 155 -4.5Q108 -30 78.5 -73.5Q49 -117 44 -171ZM468 -213H44Q49 -267 78.5 -310.5Q108 -354 155 -379.5Q202 -405 256 -405Q310 -405 357 -379.5Q404 -354 433.5 -310.5Q463 -267 468 -213ZM256 -304Q256 -326 240.5 -341.5Q225 -357 203 -357Q181 -357 165 -341.5Q149 -326 149 -304Q149 -282 165 -266.5Q181 -251 203 -251Q225 -251 240.5 -266.5Q256 -282 256 -304Z"/>
</svg>