<svg xmlns="http://www.w3.org/2000/svg" viewBox="0 -512 512 512">
	<path fill="#000000" d="M213 -299Q240 -299 258.5 -280Q277 -261 277 -235V-171Q277 -144 258.5 -125.5Q240 -107 213.5 -107Q187 -107 168 -125.5Q149 -144 149 -171V-235Q149 -261 168 -280Q187 -299 213 -299ZM213 -256Q204 -256 198 -250Q192 -244 192 -235V-171Q192 -162 198 -155.5Q204 -149 213 -149Q222 -149 228.5 -155.5Q235 -162 235 -171V-235Q235 -244 228.5 -250Q222 -256 213 -256ZM363 -299Q389 -299 408 -280Q427 -261 427 -235V-171Q427 -144 408 -125.5Q389 -107 362.5 -107Q336 -107 317.5 -125.5Q299 -144 299 -171V-235Q299 -261 317.5 -280Q336 -299 363 -299ZM363 -256Q354 -256 347.5 -250Q341 -244 341 -235V-171Q341 -162 347.5 -155.5Q354 -149 363 -149Q372 -149 378 -155.5Q384 -162 384 -171V-235Q384 -244 378 -250Q372 -256 363 -256ZM107 -149Q98 -149 91.5 -143Q85 -137 85 -128L107 -64H128V-128Q128 -137 122 -143Q116 -149 107 -149Z"/>
</svg>