<svg xmlns="http://www.w3.org/2000/svg" viewBox="0 -512 512 512">
	<path fill="#000000" d="M213 -299Q187 -299 168 -280Q149 -261 149 -235V-171Q149 -144 168 -125.5Q187 -107 213.5 -107Q240 -107 258.5 -125.5Q277 -144 277 -171V-235Q277 -261 258.5 -280Q240 -299 213 -299ZM235 -171Q235 -162 228.5 -155.5Q222 -149 213 -149Q204 -149 198 -155.5Q192 -162 192 -171V-235Q192 -244 198 -250Q204 -256 213 -256Q222 -256 228.5 -250Q235 -244 235 -235ZM363 -299Q336 -299 317.5 -280Q299 -261 299 -235V-171Q299 -144 317.5 -125.5Q336 -107 362.5 -107Q389 -107 408 -125.5Q427 -144 427 -171V-235Q427 -261 408 -280Q389 -299 363 -299ZM384 -171Q384 -162 378 -155.5Q372 -149 363 -149Q354 -149 347.5 -155.5Q341 -162 341 -171V-235Q341 -244 347.5 -250Q354 -256 363 -256Q372 -256 378 -250Q384 -244 384 -235ZM128 -128Q128 -119 122 -113Q116 -107 107 -107Q98 -107 91.5 -113Q85 -119 85 -128Q85 -137 91.5 -143Q98 -149 107 -149Q116 -149 122 -143Q128 -137 128 -128Z"/>
</svg>