<svg xmlns="http://www.w3.org/2000/svg" viewBox="0 -512 512 512">
	<path fill="#000000" d="M107 -171V-107H85L64 -171Q64 -180 70 -186Q76 -192 85 -192Q94 -192 100.5 -186Q107 -180 107 -171ZM320 -107V-149L256 -85L320 -21V-64H448V-107ZM256 -213Q256 -187 237.5 -168Q219 -149 192 -149Q165 -149 146.5 -168Q128 -187 128 -213V-277Q128 -304 146.5 -322.5Q165 -341 192 -341Q219 -341 237.5 -322.5Q256 -304 256 -277ZM213 -277Q213 -286 207 -292.5Q201 -299 192 -299Q183 -299 177 -292.5Q171 -286 171 -277V-213Q171 -204 177 -198Q183 -192 192 -192Q201 -192 207 -198Q213 -204 213 -213Z"/>
</svg>