<svg xmlns="http://www.w3.org/2000/svg" viewBox="0 -512 512 512">
	<path fill="#000000" d="M469 -85L405 -21V-64H277V-107H405V-149ZM192 -341Q219 -341 237.5 -322.5Q256 -304 256 -277V-213Q256 -187 237.5 -168Q219 -149 192 -149Q165 -149 146.5 -168Q128 -187 128 -213V-277Q128 -304 146.5 -322.5Q165 -341 192 -341ZM192 -299Q183 -299 177 -292.5Q171 -286 171 -277V-213Q171 -204 177 -198Q183 -192 192 -192Q201 -192 207 -198Q213 -204 213 -213V-277Q213 -286 207 -292.5Q201 -299 192 -299ZM341 -341Q368 -341 386.5 -322.5Q405 -304 405 -277V-213Q405 -187 386.5 -168Q368 -149 341.5 -149Q315 -149 296 -168Q277 -187 277 -213V-277Q277 -304 296 -322.5Q315 -341 341 -341ZM341 -299Q332 -299 326 -292.5Q320 -286 320 -277V-213Q320 -204 326 -198Q332 -192 341 -192Q350 -192 356.5 -198Q363 -204 363 -213V-277Q363 -286 356.5 -292.5Q350 -299 341 -299ZM85 -192Q94 -192 100.5 -186Q107 -180 107 -171Q107 -162 100.5 -155.5Q94 -149 85 -149Q76 -149 70 -155.5Q64 -162 64 -171Q64 -180 70 -186Q76 -192 85 -192Z"/>
</svg>