<svg xmlns="http://www.w3.org/2000/svg" viewBox="0 -512 512 512">
	<path fill="#000000" d="M192 -341Q165 -341 146.5 -322.5Q128 -304 128 -277V-213Q128 -187 146.5 -168Q165 -149 192 -149Q219 -149 237.5 -168Q256 -187 256 -213V-277Q256 -304 237.5 -322.5Q219 -341 192 -341ZM213 -213Q213 -204 207 -198Q201 -192 192 -192Q183 -192 177 -198Q171 -204 171 -213V-277Q171 -286 177 -292.5Q183 -299 192 -299Q201 -299 207 -292.5Q213 -286 213 -277ZM341 -149Q368 -149 386.5 -168Q405 -187 405 -213V-277Q405 -304 386.5 -322.5Q368 -341 341.5 -341Q315 -341 296 -322.5Q277 -304 277 -277V-213Q277 -187 296 -168Q315 -149 341 -149ZM320 -277Q320 -286 326 -292.5Q332 -299 341 -299Q350 -299 356.5 -292.5Q363 -286 363 -277V-213Q363 -204 356.5 -198Q350 -192 341 -192Q332 -192 326 -198Q320 -204 320 -213ZM405 -21V-64H277V-107H405V-149L469 -85ZM107 -171V-107H85L64 -171Q64 -180 70 -186Q76 -192 85 -192Q94 -192 100.5 -186Q107 -180 107 -171Z"/>
</svg>