<svg xmlns="http://www.w3.org/2000/svg" viewBox="0 -512 512 512">
	<path fill="#000000" d="M320 -171H352V-111L404 -80L388 -53L320 -92ZM491 -107Q491 -66 471 -31.5Q451 3 416.5 23Q382 43 341 43Q311 43 284 31.5Q257 20 237 0H171Q153 0 140.5 -12.5Q128 -25 128 -43V-299H384V-250Q431 -236 461 -196.5Q491 -157 491 -107ZM192 -107Q192 -147 212 -181.5Q232 -216 266.5 -236Q301 -256 341 -256H171V-43H206Q192 -73 192 -107ZM341 -213Q312 -213 287.5 -199Q263 -185 249 -160.5Q235 -136 235 -107Q235 -78 249 -53.5Q263 -29 287.5 -14.5Q312 0 341 0Q370 0 394.5 -14.5Q419 -29 433.5 -53.5Q448 -78 448 -107Q448 -136 433.5 -160.5Q419 -185 394.5 -199Q370 -213 341 -213ZM331 -363H405V-320H107V-363H181L203 -384H309Z"/>
</svg>