<svg xmlns="http://www.w3.org/2000/svg" viewBox="0 -512 512 512">
	<path fill="#000000" d="M192 -216L188 -211Q192 -202 192 -192Q192 -177 182 -165L277 -21H363V21H149V-21H227L140 -150Q126 -154 116.5 -165.5Q107 -177 107 -192Q107 -210 119.5 -222.5Q132 -235 149 -235H152L161 -247L24 -384L51 -411L472 10L445 37ZM391 -299L356 -245Q367 -238 380 -240.5Q393 -243 400 -254Q407 -265 404.5 -278Q402 -291 391 -299ZM204 -312L235 -281L256 -312Q252 -285 266.5 -258Q281 -231 308 -213L403 -355Q376 -373 345.5 -376Q315 -379 291 -365L231 -405L196 -352L220 -336Z"/>
</svg>