<svg xmlns="http://www.w3.org/2000/svg" viewBox="0 -512 512 512">
	<path fill="#000000" d="M64 -320H448Q457 -320 463 -313.5Q469 -307 469 -298.5Q469 -290 463 -283.5Q457 -277 448 -277V-43H405V-85H320V-43H277V-277H107V-43H64V-277Q55 -277 49 -283.5Q43 -290 43 -298.5Q43 -307 49 -313.5Q55 -320 64 -320ZM341 -224V-213H384V-224Q384 -228 381 -231.5Q378 -235 373 -235H352Q348 -235 344.5 -231.5Q341 -228 341 -224ZM341 -139V-128H384V-139Q384 -143 381 -146Q378 -149 373 -149H352Q348 -149 344.5 -146Q341 -143 341 -139Z"/>
</svg>