<svg xmlns="http://www.w3.org/2000/svg" viewBox="0 -512 512 512">
	<path fill="#000000" d="M469 -64H363Q354 -64 347.5 -70Q341 -76 341 -85V-299Q341 -308 347.5 -314Q354 -320 363 -320H469Q478 -320 484.5 -314Q491 -308 491 -299V-85Q491 -76 484.5 -70Q478 -64 469 -64ZM469 -277H363V-256H469ZM469 -235H363V-213H469ZM192 -128V-85H213V-64H107V-85H128V-128H43Q34 -128 27.5 -134Q21 -140 21 -149V-299Q21 -308 27.5 -314Q34 -320 43 -320H277Q286 -320 292.5 -314Q299 -308 299 -299V-149Q299 -140 292.5 -134Q286 -128 277 -128ZM256 -277H64V-171H256Z"/>
</svg>