<svg xmlns="http://www.w3.org/2000/svg" viewBox="0 -512 512 512">
	<path fill="#000000" d="M231 -405L196 -352L220 -336L152 -235H149Q132 -235 119.5 -222.5Q107 -210 107 -192Q107 -177 116.5 -165.5Q126 -154 140 -150L227 -21H149V21H363V-21H277L182 -165Q192 -177 192 -192Q192 -202 188 -211L256 -312Q252 -285 266.5 -258Q281 -231 308 -213L403 -355Q376 -373 345.5 -376Q315 -379 291 -365ZM391 -299L356 -245Q367 -238 380 -240.5Q393 -243 400 -254Q407 -265 404.5 -278Q402 -291 391 -299ZM463 -180L418 -225L433 -240L478 -195ZM491 -299H427V-320H491ZM341 -149V-213H363V-149Z"/>
</svg>