<svg xmlns="http://www.w3.org/2000/svg" viewBox="0 -512 512 512">
	<path fill="#000000" d="M107 -384H405Q423 -384 435.5 -371.5Q448 -359 448 -341V-43Q448 -25 435.5 -12.5Q423 0 405 0H107Q89 0 76.5 -12.5Q64 -25 64 -43V-341Q64 -359 76.5 -371.5Q89 -384 107 -384ZM320 -341V-43H405V-341ZM107 -341V-256H277V-341ZM107 -213V-171H149V-213ZM171 -213V-171H213V-213ZM235 -213V-171H277V-213ZM107 -149V-107H149V-149ZM171 -149V-107H213V-149ZM235 -149V-107H277V-149ZM235 -85V-43H277V-85ZM171 -85V-43H213V-85ZM107 -85V-43H149V-85Z"/>
</svg>