<svg xmlns="http://www.w3.org/2000/svg" viewBox="0 -512 512 512">
	<path fill="#000000" d="M64 -320H448V-363H64Q46 -363 33.5 -350.5Q21 -338 21 -320V-64Q21 -46 33.5 -33.5Q46 -21 64 -21H149V-64H64ZM277 -192H192V-154Q171 -135 171 -107Q171 -79 192 -59V-21H277V-59Q299 -79 299 -107Q299 -135 277 -154ZM235 -75Q221 -75 212 -84Q203 -93 203 -106.5Q203 -120 212 -129.5Q221 -139 234.5 -139Q248 -139 257.5 -129.5Q267 -120 267 -106.5Q267 -93 257.5 -84Q248 -75 235 -75ZM469 -277H341Q333 -277 326.5 -270.5Q320 -264 320 -256V-43Q320 -35 326.5 -28Q333 -21 341 -21H469Q477 -21 484 -28Q491 -35 491 -43V-256Q491 -264 484 -270.5Q477 -277 469 -277ZM448 -64H363V-235H448Z"/>
</svg>