<svg xmlns="http://www.w3.org/2000/svg" viewBox="0 -512 512 512">
	<path fill="#000000" d="M314 -399Q321 -405 329 -404.5Q337 -404 343 -398Q349 -392 349.5 -383.5Q350 -375 344 -369L277 -303L294 -283L335 -176Q338 -168 336 -159Q334 -150 328 -143L262 -77Q252 -68 239 -68Q226 -68 217 -77L118 -175Q110 -184 110 -197L99 -334H122Q131 -334 138 -328L141 -324L163 -250ZM163 21L43 -99L88 -144L209 -23ZM416 -352Q409 -344 402 -335Q386 -315 376 -297Q363 -272 363 -256Q363 -234 378.5 -218.5Q394 -203 416 -203Q438 -203 453.5 -218.5Q469 -234 469 -256Q469 -272 456 -297Q446 -315 430 -335Z"/>
</svg>