<svg xmlns="http://www.w3.org/2000/svg" viewBox="0 -512 512 512">
	<path fill="#000000" d="M299 -277Q290 -277 283.5 -283.5Q277 -290 277 -298.5Q277 -307 283.5 -313.5Q290 -320 298.5 -320Q307 -320 313.5 -313.5Q320 -307 320 -298.5Q320 -290 313.5 -283.5Q307 -277 299 -277ZM256 -192V-43H107V-192ZM273 -235H90Q79 -235 71.5 -227Q64 -219 64 -209V-26Q64 -15 71.5 -7.5Q79 0 90 0H273Q283 0 291 -7.5Q299 -15 299 -26V-209Q299 -219 291 -227Q283 -235 273 -235ZM422 -384H239Q229 -384 221 -376.5Q213 -369 213 -358V-277H256V-341H405V-192H341V-149H422Q433 -149 440.5 -157Q448 -165 448 -175V-358Q448 -369 440.5 -376.5Q433 -384 422 -384ZM363 -277Q354 -277 347.5 -283.5Q341 -290 341 -298.5Q341 -307 347.5 -313.5Q354 -320 362.5 -320Q371 -320 377.5 -313.5Q384 -307 384 -298.5Q384 -290 377.5 -283.5Q371 -277 363 -277ZM363 -213Q354 -213 347.5 -219.5Q341 -226 341 -234.5Q341 -243 347.5 -249.5Q354 -256 362.5 -256Q371 -256 377.5 -249.5Q384 -243 384 -234.5Q384 -226 377.5 -219.5Q371 -213 363 -213ZM149 -128Q141 -128 134.5 -134.5Q128 -141 128 -149.5Q128 -158 134.5 -164.5Q141 -171 149.5 -171Q158 -171 164.5 -164.5Q171 -158 171 -149.5Q171 -141 164.5 -134.5Q158 -128 149 -128ZM213 -64Q205 -64 198.5 -70.5Q192 -77 192 -85.5Q192 -94 198.5 -100.5Q205 -107 213.5 -107Q222 -107 228.5 -100.5Q235 -94 235 -85.5Q235 -77 228.5 -70.5Q222 -64 213 -64Z"/>
</svg>