<svg xmlns="http://www.w3.org/2000/svg" viewBox="0 -512 512 512">
	<path fill="#000000" d="M224 -107H192V-230L154 -218V-245L221 -269H224ZM300 -273Q323 -273 339 -257Q355 -241 355 -218V-162Q355 -139 339 -123Q323 -107 300 -107Q277 -107 261 -123Q245 -139 245 -162V-218Q245 -241 261 -257Q277 -273 300 -273ZM300 -242Q291 -242 284 -235.5Q277 -229 277 -220V-160Q277 -151 284 -144.5Q291 -138 300 -138Q309 -138 316 -144.5Q323 -151 323 -160V-220Q323 -229 316 -235.5Q309 -242 300 -242ZM256 -405Q239 -405 226 -393L55 -222Q43 -210 43 -192Q43 -174 55 -162L226 9Q238 21 256 21Q274 21 286 9L457 -162Q469 -174 469 -192Q469 -210 457 -222L286 -393Q273 -405 256 -405ZM256 -363L427 -192L256 -21L85 -192Z"/>
</svg>