<svg xmlns="http://www.w3.org/2000/svg" viewBox="0 -512 512 512">
	<path fill="#000000" d="M422 -384H239Q229 -384 221 -376.5Q213 -369 213 -358V-277H341V-149H422Q433 -149 440.5 -157Q448 -165 448 -175V-358Q448 -369 440.5 -376.5Q433 -384 422 -384ZM265 -306Q255 -306 247 -313.5Q239 -321 239 -332Q239 -343 247 -350.5Q255 -358 265.5 -358Q276 -358 284 -350.5Q292 -343 292 -332Q292 -321 284 -313.5Q276 -306 265 -306ZM396 -175Q385 -175 377.5 -182.5Q370 -190 369.5 -201Q369 -212 377 -220Q385 -228 395.5 -228Q406 -228 414 -220.5Q422 -213 422 -202Q422 -191 414.5 -183.5Q407 -176 396 -175ZM396 -306Q385 -306 377.5 -313.5Q370 -321 369.5 -332Q369 -343 377 -350.5Q385 -358 395.5 -358Q406 -358 414 -350.5Q422 -343 422 -332Q422 -321 414.5 -313.5Q407 -306 396 -306ZM90 -235H273Q283 -235 291 -227Q299 -219 299 -209V-26Q299 -15 291 -7.5Q283 0 273 0H90Q79 0 71.5 -7.5Q64 -15 64 -26V-209Q64 -219 71.5 -227Q79 -235 90 -235ZM181 -143Q171 -143 163 -135.5Q155 -128 155 -117.5Q155 -107 163 -99Q171 -91 181.5 -91Q192 -91 199.5 -99Q207 -107 207 -117.5Q207 -128 199.5 -135.5Q192 -143 181 -143ZM116 -209Q105 -209 97.5 -201Q90 -193 90 -182.5Q90 -172 97.5 -164.5Q105 -157 116 -157Q127 -157 134.5 -164.5Q142 -172 142 -183Q142 -193 134.5 -201Q127 -209 116 -209ZM246 -78Q236 -78 228 -70.5Q220 -63 220 -52.5Q220 -42 228 -34Q236 -26 246.5 -26Q257 -26 264.5 -33.5Q272 -41 272 -52Q272 -63 264.5 -70.5Q257 -78 247 -78Z"/>
</svg>