<svg xmlns="http://www.w3.org/2000/svg" viewBox="0 -512 512 512">
	<path fill="#000000" d="M128 -192H43Q43 -250 71.5 -299Q100 -348 149 -376.5Q198 -405 256 -405Q314 -405 363 -376.5Q412 -348 440.5 -299Q469 -250 469 -192Q469 -134 440.5 -85Q412 -36 363 -7.5Q314 21 256 21V-64H171V-149H256V-64Q291 -64 320.5 -81Q350 -98 367 -127.5Q384 -157 384 -192Q384 -227 367 -256.5Q350 -286 320.5 -303Q291 -320 256 -320Q221 -320 191.5 -303Q162 -286 145 -256.5Q128 -227 128 -192ZM171 -64V0H107V-64ZM64 -107H107V-64H64Z"/>
</svg>