<svg xmlns="http://www.w3.org/2000/svg" viewBox="0 -512 512 512">
	<path fill="#000000" d="M309 -227Q326 -227 337.5 -238.5Q349 -250 349 -266.5Q349 -283 337.5 -295Q326 -307 309.5 -307Q293 -307 281 -295Q269 -283 269 -266.5Q269 -250 281 -238.5Q293 -227 309 -227ZM309 -427Q353 -427 389.5 -405.5Q426 -384 447.5 -347Q469 -310 469 -267Q469 -233 455.5 -202.5Q442 -172 418 -149H201Q177 -172 163 -202.5Q149 -233 149 -267Q149 -310 170.5 -347Q192 -384 229 -405.5Q266 -427 309 -427ZM128 0V21H85V0H43V-128H469V0H427V21H384V0ZM85 -64V-43H277V-64ZM320 -85V-43H363V-85ZM405 -85Q396 -85 390 -79Q384 -73 384 -64Q384 -55 390 -49Q396 -43 405 -43Q414 -43 420.5 -49Q427 -55 427 -64Q427 -73 420.5 -79Q414 -85 405 -85Z"/>
</svg>