<svg xmlns="http://www.w3.org/2000/svg" viewBox="0 -512 512 512">
	<path fill="#000000" d="M213 -149Q196 -149 183.5 -161.5Q171 -174 171 -192Q171 -210 183.5 -222.5Q196 -235 213.5 -235Q231 -235 243.5 -222.5Q256 -210 256 -192Q256 -174 243.5 -161.5Q231 -149 213 -149ZM213 -363Q167 -363 128 -340Q89 -317 66 -277.5Q43 -238 43 -192Q43 -146 66 -106.5Q89 -67 128 -44Q167 -21 213 -21Q259 -21 298.5 -44Q338 -67 361 -106.5Q384 -146 384 -192Q384 -238 361 -277.5Q338 -317 298.5 -340Q259 -363 213 -363ZM427 -171H469V-299H427ZM427 -85H469V-128H427Z"/>
</svg>