<svg xmlns="http://www.w3.org/2000/svg" viewBox="0 -512 512 512">
	<path fill="#000000" d="M384 -405H128Q110 -405 97.5 -392.5Q85 -380 85 -363V-21Q85 -4 97.5 8.5Q110 21 128 21H384Q402 21 414.5 8.5Q427 -4 427 -21V-363Q427 -380 414.5 -392.5Q402 -405 384 -405ZM213 -363Q222 -363 228.5 -356.5Q235 -350 235 -341Q235 -332 228.5 -326Q222 -320 213 -320Q204 -320 198 -326Q192 -332 192 -341Q192 -350 198 -356.5Q204 -363 213 -363ZM149 -363Q158 -363 164.5 -356.5Q171 -350 171 -341Q171 -332 164.5 -326Q158 -320 149 -320Q140 -320 134 -326Q128 -332 128 -341Q128 -350 134 -356.5Q140 -363 149 -363ZM384 -21H128V-277H384ZM313 -121Q314 -98 297 -81Q280 -64 256 -64Q232 -64 215 -81Q198 -98 199.5 -121Q201 -144 213 -164Q225 -190 242 -213L256 -235Q313 -152 313 -121Z"/>
</svg>