<svg xmlns="http://www.w3.org/2000/svg" viewBox="0 -512 512 512">
	<path fill="#000000" d="M363 -171V-213H149V-171ZM405 -384Q423 -384 435.5 -371.5Q448 -359 448 -341V-43Q448 -25 435.5 -12.5Q423 0 405 0H107Q89 0 76.5 -12.5Q64 -25 64 -43V-341Q64 -359 76.5 -371.5Q89 -384 107 -384ZM256 -299Q247 -299 241 -292.5Q235 -286 235 -277Q235 -268 241 -262Q247 -256 256 -256Q265 -256 271 -262Q277 -268 277 -277Q277 -286 271 -292.5Q265 -299 256 -299ZM256 -128Q247 -128 241 -122Q235 -116 235 -107Q235 -98 241 -91.5Q247 -85 256 -85Q265 -85 271 -91.5Q277 -98 277 -107Q277 -116 271 -122Q265 -128 256 -128Z"/>
</svg>