<svg xmlns="http://www.w3.org/2000/svg" viewBox="0 -512 512 512">
	<path fill="#000000" d="M341 -384H85Q68 -384 55.5 -371.5Q43 -359 43 -341V-235Q43 -217 55.5 -204.5Q68 -192 85 -192H153Q159 -192 164.5 -188.5Q170 -185 173 -179Q178 -162 194 -154Q210 -146 227 -151Q247 -158 254 -179Q256 -185 261.5 -188.5Q267 -192 274 -192H341Q359 -192 371.5 -204.5Q384 -217 384 -235V-341Q384 -359 371.5 -371.5Q359 -384 341 -384ZM341 -235H242Q238 -243 230.5 -249Q223 -255 213 -256Q204 -255 196.5 -249Q189 -243 185 -235H85V-341H341ZM469 -405V-117Q469 -80 450.5 -48Q432 -16 400 2.5Q368 21 331 21Q303 21 278 10.5Q253 0 233 -19Q201 -11 171 -23Q141 -35 122 -61L163 -79Q177 -64 196.5 -60Q216 -56 235 -64Q241 -67 247 -71Q260 -81 267 -96Q274 -111 273 -128L313 -146Q320 -116 309.5 -87Q299 -58 275 -39Q300 -21 331 -21Q371 -21 399 -49Q427 -77 427 -117V-405Z"/>
</svg>