<svg xmlns="http://www.w3.org/2000/svg" viewBox="0 -512 512 512">
	<path fill="#000000" d="M469 -53Q469 -31 453.5 -15.5Q438 0 416 0Q394 0 378.5 -15.5Q363 -31 363 -53Q363 -70 371.5 -83Q380 -96 395 -102V-320H299V-291Q318 -282 329.5 -264Q341 -246 341 -224V21H43V-224Q43 -246 54.5 -264Q66 -282 85 -291V-320H43V-363H85V-373Q85 -387 94.5 -396Q104 -405 117.5 -405Q131 -405 140 -396Q149 -387 149 -373V-363H235V-373Q235 -387 244 -396Q253 -405 266.5 -405Q280 -405 289.5 -396Q299 -387 299 -373V-363H395Q412 -363 424.5 -350.5Q437 -338 437 -320V-102Q452 -96 460.5 -83Q469 -70 469 -53ZM235 -291V-320H149V-291Q169 -282 180.5 -264Q192 -246 192 -224Q192 -246 203.5 -264Q215 -282 235 -291Z"/>
</svg>