<svg xmlns="http://www.w3.org/2000/svg" viewBox="0 -512 512 512">
	<path fill="#000000" d="M341 -192Q341 -157 316 -132Q291 -107 256 -107Q221 -107 196 -132Q171 -157 171 -192Q171 -227 196 -252Q221 -277 256 -277Q291 -277 316 -252Q341 -227 341 -192ZM415 -280L385 -265L391 -256H427V-128H391Q375 -95 346 -73Q401 -55 420 -24Q404 -4 358.5 8.5Q313 21 256 21Q199 21 153.5 8.5Q108 -4 92 -24Q111 -55 166 -73Q137 -95 121 -128H85V-256H121Q144 -304 192 -327V-363H320V-327Q341 -317 359 -299L396 -317Q416 -328 422 -350Q427 -366 427 -405H469Q469 -375 467 -359Q464 -333 453 -315Q440 -292 415 -280ZM363 -192Q363 -221 348.5 -245.5Q334 -270 309.5 -284.5Q285 -299 256 -299Q227 -299 202.5 -284.5Q178 -270 163.5 -245.5Q149 -221 149 -192Q149 -163 163.5 -138.5Q178 -114 202.5 -99.5Q227 -85 256 -85Q285 -85 309.5 -99.5Q334 -114 348.5 -138.5Q363 -163 363 -192Z"/>
</svg>