<svg xmlns="http://www.w3.org/2000/svg" viewBox="0 -512 512 512">
	<path fill="#000000" d="M21 -171Q21 -188 33.5 -200.5Q46 -213 64 -213Q82 -213 94.5 -200.5Q107 -188 107 -170.5Q107 -153 94.5 -140.5Q82 -128 64 -128Q46 -128 33.5 -140.5Q21 -153 21 -171ZM190 -232L286 -258L270 -320L173 -294Q160 -291 153.5 -279.5Q147 -268 150.5 -255Q154 -242 165.5 -235.5Q177 -229 190 -232ZM437 -322L491 -384L469 -405L405 -341L363 -256L160 -195Q147 -192 138.5 -182Q130 -172 128 -159L112 -64L51 17L85 43L149 -43L174 -110L299 -149L405 -224Z"/>
</svg>