<svg xmlns="http://www.w3.org/2000/svg" viewBox="0 -512 512 512">
	<path fill="#000000" d="M405 -53Q405 -31 389.5 -15.5Q374 0 352 0Q330 0 314.5 -15.5Q299 -31 299 -53Q299 -70 307.5 -83Q316 -96 331 -102V-320H235V-291Q254 -282 265.5 -264Q277 -246 277 -224V21H128V-224Q128 -246 139.5 -264Q151 -282 171 -291V-320H128V-363H171V-373Q171 -387 180 -396Q189 -405 202.5 -405Q216 -405 225.5 -396Q235 -387 235 -373V-363H331Q348 -363 360.5 -350.5Q373 -338 373 -320V-102Q388 -96 396.5 -83Q405 -70 405 -53Z"/>
</svg>