<svg xmlns="http://www.w3.org/2000/svg" viewBox="0 -512 512 512">
	<path fill="#000000" d="M283 -337H284Q290 -343 299 -342.5Q308 -342 314 -335L362 -277H427Q435 -277 441.5 -271Q448 -265 448 -256Q448 -247 441.5 -241Q435 -235 427 -235H352Q341 -235 334 -244L302 -282L248 -232L311 -188Q320 -182 320 -171V-85Q320 -77 313.5 -70.5Q307 -64 298.5 -64Q290 -64 283.5 -70.5Q277 -77 277 -85V-160L208 -208Q193 -218 192 -236.5Q191 -255 205 -268ZM352 -341Q365 -341 374.5 -350.5Q384 -360 384 -373.5Q384 -387 374.5 -396Q365 -405 352 -405Q339 -405 329.5 -396Q320 -387 320 -373.5Q320 -360 329.5 -350.5Q339 -341 352 -341ZM128 -43H107Q80 -43 61.5 -24Q43 -5 43 21H128V-11H320V-43Z"/>
</svg>