<svg xmlns="http://www.w3.org/2000/svg" viewBox="0 -512 512 512">
	<path fill="#000000" d="M433 -370Q422 -372 403.5 -387Q385 -402 375 -404.5Q365 -407 341.5 -401Q318 -395 308 -397Q291 -403 273.5 -401Q256 -399 241 -390L239 -85L235 -64Q229 -38 243.5 -15.5Q258 7 283.5 12.5Q309 18 331.5 3.5Q354 -11 360 -36L364 -58L491 -335Q481 -350 465.5 -359Q450 -368 433 -370ZM318 -46Q316 -37 308.5 -32Q301 -27 292 -29Q283 -31 278 -38.5Q273 -46 275 -55L294 -139Q295 -147 302.5 -152Q310 -157 318.5 -156Q327 -155 332 -147.5Q337 -140 336 -131ZM207 7Q195 -13 192 -35L176 -107Q174 -115 178.5 -123Q183 -131 192 -133Q194 -133 197 -133V-375Q188 -375 171 -379Q146 -385 137 -383Q128 -381 110 -367Q90 -351 79 -349Q62 -347 46.5 -338Q31 -329 21 -314L148 -37L152 -15Q158 11 180.5 25Q203 39 228 33H231Q216 21 207 7Z"/>
</svg>