<svg xmlns="http://www.w3.org/2000/svg" viewBox="0 -512 512 512">
	<path fill="#000000" d="M456 -180H274Q260 -180 247 -174Q234 -168 226 -158Q218 -147 206 -140.5Q194 -134 179 -134Q156 -134 139 -151Q122 -168 122 -192Q122 -216 139 -232.5Q156 -249 179 -249Q194 -249 206 -243Q218 -237 226 -225V-226Q234 -215 247 -209Q260 -203 274 -203H454Q459 -203 463 -206Q469 -210 469 -220Q462 -265 431.5 -301.5Q401 -338 355.5 -359Q310 -380 257 -380Q209 -380 166 -362Q123 -344 93 -313Q85 -301 99 -300H216Q230 -300 243 -306Q256 -312 264 -322Q272 -333 284.5 -339.5Q297 -346 311 -346Q335 -346 352 -329Q369 -312 369 -288Q369 -264 352 -247Q335 -230 311 -230Q297 -230 284.5 -236.5Q272 -243 264 -255V-254Q256 -264 243 -270.5Q230 -277 216 -277H88H89L83 -276Q77 -275 71 -272Q63 -268 58 -261Q51 -251 47 -231Q43 -211 43 -192Q43 -152 58 -122Q64 -112 77 -108Q83 -107 89 -107H88H216Q230 -107 243 -113Q256 -119 264 -129Q272 -140 284.5 -146.5Q297 -153 311 -153Q335 -153 352 -136.5Q369 -120 369 -96Q369 -72 352 -55Q335 -38 311 -38Q297 -38 284.5 -44.5Q272 -51 264 -62V-61Q256 -72 243 -78Q230 -84 216 -84H99Q86 -82 92 -72Q122 -40 165 -22Q208 -4 257 -4Q310 -4 356 -25Q402 -46 432 -82.5Q462 -119 469 -164Q469 -172 465 -176Q461 -180 456 -180Z"/>
</svg>