<svg xmlns="http://www.w3.org/2000/svg" viewBox="0 -512 512 512">
	<path fill="#000000" d="M405 -128V-43H107V-128ZM427 -171H85Q76 -171 70 -164.5Q64 -158 64 -149V-21Q64 -12 70 -6Q76 0 85 0H427Q436 0 442 -6Q448 -12 448 -21V-149Q448 -158 442 -164.5Q436 -171 427 -171ZM149 -53Q136 -53 126.5 -62.5Q117 -72 117 -85.5Q117 -99 126.5 -108Q136 -117 149.5 -117Q163 -117 172 -108Q181 -99 181 -85.5Q181 -72 172 -62.5Q163 -53 149 -53ZM405 -341V-256H107V-341ZM427 -384H85Q76 -384 70 -378Q64 -372 64 -363V-235Q64 -226 70 -219.5Q76 -213 85 -213H427Q436 -213 442 -219.5Q448 -226 448 -235V-363Q448 -372 442 -378Q436 -384 427 -384ZM149 -267Q136 -267 126.5 -276Q117 -285 117 -298.5Q117 -312 126.5 -321.5Q136 -331 149.5 -331Q163 -331 172 -321.5Q181 -312 181 -298.5Q181 -285 172 -276Q163 -267 149 -267Z"/>
</svg>