<svg xmlns="http://www.w3.org/2000/svg" viewBox="0 -512 512 512">
	<path fill="#000000" d="M149 -256Q132 -256 119.5 -268.5Q107 -281 107 -298.5Q107 -316 119.5 -328.5Q132 -341 149.5 -341Q167 -341 179.5 -328.5Q192 -316 192 -298.5Q192 -281 179.5 -268.5Q167 -256 149 -256ZM427 -384H85Q76 -384 70 -378Q64 -372 64 -363V-235Q64 -226 70 -219.5Q76 -213 85 -213H427Q436 -213 442 -219.5Q448 -226 448 -235V-363Q448 -372 442 -378Q436 -384 427 -384ZM149 -43Q132 -43 119.5 -55.5Q107 -68 107 -85.5Q107 -103 119.5 -115.5Q132 -128 149.5 -128Q167 -128 179.5 -115.5Q192 -103 192 -85.5Q192 -68 179.5 -55.5Q167 -43 149 -43ZM427 -171H85Q76 -171 70 -164.5Q64 -158 64 -149V-21Q64 -12 70 -6Q76 0 85 0H427Q436 0 442 -6Q448 -12 448 -21V-149Q448 -158 442 -164.5Q436 -171 427 -171Z"/>
</svg>