<svg xmlns="http://www.w3.org/2000/svg" viewBox="0 -512 512 512">
	<path fill="#000000" d="M465 -229Q465 -229 465 -230Q452 -239 430 -239Q422 -239 412 -237Q410 -256 396 -271Q389 -278 382 -282L376 -286L372 -280Q363 -268 361 -255Q355 -229 368 -208Q361 -204 350 -202Q342 -200 337 -200H56Q50 -200 46.5 -196Q43 -192 43 -187Q43 -148 55 -115Q69 -77 98 -59Q130 -39 192 -39Q218 -39 244 -44Q280 -50 312 -68Q338 -84 358 -107Q384 -136 403 -185H407Q437 -185 455 -203Q463 -210 468 -221L469 -226ZM82 -208H120Q123 -208 123 -212V-245Q123 -249 120 -249H82Q79 -249 79 -245V-212Q79 -208 82 -208ZM134 -208H172Q175 -208 175 -212V-245Q175 -249 172 -249H134Q131 -249 131 -245V-212Q131 -208 134 -208ZM187 -208H224Q228 -208 228 -212V-245Q228 -249 224 -249H187Q183 -249 183 -245V-212Q183 -208 187 -208ZM239 -208H276Q280 -208 280 -212V-245Q280 -249 276 -249H239Q236 -249 236 -245V-212Q236 -208 239 -208ZM134 -256H172Q173 -256 174 -257Q175 -258 175 -260V-293Q175 -297 172 -297H134Q131 -297 131 -293V-260Q131 -256 134 -256ZM187 -256H224Q228 -256 228 -260V-293Q228 -297 224 -297H187Q183 -297 183 -293V-260Q183 -256 187 -256ZM239 -256H276Q280 -256 280 -260V-293Q280 -297 276 -297H239Q236 -297 236 -293V-260Q236 -256 239 -256ZM239 -305H276Q280 -305 280 -308V-341Q280 -345 276 -345H239Q236 -345 236 -341V-308Q236 -305 239 -305ZM291 -208H329Q332 -208 332 -212V-245Q332 -249 329 -249H291Q288 -249 288 -245V-212Q288 -208 291 -208Z"/>
</svg>