<svg xmlns="http://www.w3.org/2000/svg" viewBox="0 -512 512 512">
	<path fill="#000000" d="M299 -277L363 -213V0H320V-128H171L128 -64V0H85V-128L107 -149V-213L43 -277L64 -299L107 -256H149V-192Q149 -183 155.5 -177Q162 -171 171 -171H256Q265 -171 271 -177Q277 -183 277 -192V-256ZM405 -341V-384L320 -299L384 -235L405 -256L427 -235L469 -277ZM245 -245L96 -395Q92 -399 85.5 -399Q79 -399 75 -395Q70 -390 70 -384Q70 -378 75 -373L224 -224Q228 -220 234.5 -220Q241 -220 245 -224Q250 -228 250 -234.5Q250 -241 245 -245Z"/>
</svg>