<svg xmlns="http://www.w3.org/2000/svg" viewBox="0 -512 512 512">
	<path fill="#000000" d="M384 -363Q340 -363 313 -350Q286 -363 256 -363Q226 -363 199 -350Q172 -363 128 -363Q99 -363 72 -317Q50 -280 35 -224Q21 -175 21 -149Q21 -136 40 -125Q59 -114 88 -109Q99 -73 142.5 -48.5Q186 -24 245 -21V-113Q213 -133 213 -149Q213 -163 235 -168Q245 -171 256 -171L267 -170Q280 -168 288 -164Q299 -159 299 -149Q299 -133 267 -113V-21Q326 -24 369.5 -48.5Q413 -73 424 -109Q453 -114 472 -125Q491 -136 491 -149Q491 -175 477 -224Q462 -280 440 -317Q413 -363 384 -363ZM89 -152Q75 -155 64 -160Q67 -188 79 -226Q91 -260 105.5 -288Q120 -316 129 -320Q140 -320 156 -318H157Q128 -285 108 -231Q95 -194 89 -152ZM192 -192Q183 -192 177 -198Q171 -204 171 -213Q171 -222 177 -228.5Q183 -235 192 -235Q201 -235 207 -228.5Q213 -222 213 -213Q213 -204 207 -198Q201 -192 192 -192ZM320 -192Q311 -192 305 -198Q299 -204 299 -213Q299 -222 305 -228.5Q311 -235 320 -235Q329 -235 335 -228.5Q341 -222 341 -213Q341 -204 335 -198Q329 -192 320 -192ZM423 -152Q417 -194 404 -231Q384 -285 355 -318H356Q372 -320 383 -320Q392 -316 406.5 -288Q421 -260 433 -226Q445 -188 448 -160Q438 -155 423 -152Z"/>
</svg>