<svg xmlns="http://www.w3.org/2000/svg" viewBox="0 -512 512 512">
	<path fill="#000000" d="M255 -24Q239 -18 223 -25.5Q207 -33 200.5 -49.5Q194 -66 201.5 -82Q209 -98 226 -104Q243 -110 259 -102.5Q275 -95 281 -78.5Q287 -62 279.5 -46Q272 -30 255 -24ZM211 -144Q178 -132 163 -100Q148 -68 160 -34.5Q172 -1 204.5 13.5Q237 28 270 16Q303 4 318 -28Q333 -60 321 -93Q309 -126 276.5 -141Q244 -156 211 -144ZM340 -350L200 -299L229 -219L369 -270ZM433 -157L332 -120Q337 -111 340.5 -101Q344 -91 346 -80L448 -117ZM417 -265L237 -199L247 -171Q288 -168 318 -138L446 -185ZM43 -405V-363H109L185 -155Q193 -160 203.5 -164Q214 -168 225 -169L139 -405Z"/>
</svg>