<svg xmlns="http://www.w3.org/2000/svg" viewBox="0 -512 512 512">
	<path fill="#000000" d="M256 -299V-384H43V0H285Q277 -21 277 -43H256V-85H285Q290 -100 299 -113V-128H256V-171H299V-213H256V-256H427V-169Q449 -165 469 -153V-299ZM128 -43H85V-85H128ZM128 -128H85V-171H128ZM128 -213H85V-256H128ZM128 -299H85V-341H128ZM213 -43H171V-85H213ZM213 -128H171V-171H213ZM213 -213H171V-256H213ZM213 -299H171V-341H213ZM341 -171H384V-213H341ZM341 -213V-171H384V-213ZM341 -213V-171H384V-213ZM481 -88L435 -43L481 3L451 33L405 -13L360 33L330 3L375 -43L330 -88L360 -118L405 -73L451 -118Z"/>
</svg>