<svg xmlns="http://www.w3.org/2000/svg" viewBox="0 -512 512 512">
	<path fill="#000000" d="M448 -235Q448 -183 422 -138.5Q396 -94 352 -68.5Q308 -43 256 -43Q204 -43 160 -68.5Q116 -94 90 -138.5Q64 -183 64 -235V-255Q64 -264 70.5 -270.5Q77 -277 86 -277H427Q435 -277 441.5 -270.5Q448 -264 448 -256ZM107 -235Q107 -194 127 -160Q147 -126 181.5 -105.5Q216 -85 256 -85Q296 -85 330.5 -105.5Q365 -126 385 -160Q405 -194 405 -235ZM427 -320V-299H85V-320Q85 -328 91.5 -334.5Q98 -341 107 -341H213V-384H299V-341H405Q414 -341 420.5 -334.5Q427 -328 427 -320Z"/>
</svg>