<svg xmlns="http://www.w3.org/2000/svg" viewBox="0 -512 512 512">
	<path fill="#000000" d="M465 -85V-117Q465 -139 446.5 -155Q428 -171 405 -171Q382 -171 364 -155Q346 -139 346 -117V-85Q336 -85 328 -77Q320 -69 320 -60V15Q320 26 328 34.5Q336 43 346 43H463Q474 43 482.5 35Q491 27 491 17V-58Q491 -69 483 -77Q475 -85 465 -85ZM437 -85H373V-117Q373 -130 382.5 -137.5Q392 -145 405.5 -145Q419 -145 428 -137.5Q437 -130 437 -117ZM277 -213H320V-171H277ZM192 -171H149V-213H192ZM277 -43H256V-341H363V-204Q384 -213 405 -213V-341Q405 -359 392.5 -371.5Q380 -384 363 -384H107Q89 -384 76.5 -371.5Q64 -359 64 -341V-43H43V0H277ZM213 -43H107V-341H213Z"/>
</svg>