<svg xmlns="http://www.w3.org/2000/svg" viewBox="0 -512 512 512">
	<path fill="#000000" d="M139 -213Q179 -213 207 -241Q235 -269 235 -309Q235 -349 207 -377Q179 -405 139 -405Q99 -405 71 -377Q43 -349 43 -309Q43 -269 71 -241Q99 -213 139 -213ZM84 -341L171 -254Q157 -245 139 -245Q112 -245 93.5 -264Q75 -283 75 -309Q75 -327 84 -341ZM203 -309Q203 -291 194 -277L107 -364Q121 -373 139 -373Q165 -373 184 -354.5Q203 -336 203 -309ZM213 -192Q240 -210 256 -235V-43H405V-341H274Q268 -363 256 -384H405Q423 -384 435.5 -371.5Q448 -359 448 -341V-43H469V0H43V-43H213ZM341 -213H384V-171H341Z"/>
</svg>