<svg xmlns="http://www.w3.org/2000/svg" viewBox="0 -512 512 512">
	<path fill="#000000" d="M341 -213H384V-171H341ZM256 -384H405Q423 -384 435.5 -371.5Q448 -359 448 -341V-43H469V0H43V-43H213V-341Q213 -359 225.5 -371.5Q238 -384 256 -384ZM256 -341V-43H405V-341ZM132 -341H60V-352Q60 -367 70.5 -377.5Q81 -388 96 -388Q111 -388 121.5 -377.5Q132 -367 132 -352ZM149 -341V-352Q149 -374 133.5 -389.5Q118 -405 96 -405Q74 -405 58.5 -389.5Q43 -374 43 -352V-341Q34 -341 27.5 -335Q21 -329 21 -320V-235Q21 -226 27.5 -219.5Q34 -213 43 -213H149Q158 -213 164.5 -219.5Q171 -226 171 -235V-320Q171 -329 164.5 -335Q158 -341 149 -341Z"/>
</svg>