<svg xmlns="http://www.w3.org/2000/svg" viewBox="0 -512 512 512">
	<path fill="#000000" d="M256 -405Q298 -405 337.5 -389Q377 -373 407 -343Q437 -313 453 -273.5Q469 -234 469 -192Q469 -150 453 -110.5Q437 -71 407 -41Q377 -11 337.5 5Q298 21 256 21Q214 21 174.5 5Q135 -11 105 -41Q75 -71 59 -110.5Q43 -150 43 -192Q43 -234 59 -273.5Q75 -313 105 -343Q135 -373 174.5 -389Q214 -405 256 -405ZM256 -363Q210 -363 170.5 -340Q131 -317 108 -277.5Q85 -238 85 -192Q85 -146 108 -106.5Q131 -67 170.5 -44Q210 -21 256 -21Q302 -21 341.5 -44Q381 -67 404 -106.5Q427 -146 427 -192Q427 -238 404 -277.5Q381 -317 341.5 -340Q302 -363 256 -363ZM256 -224Q269 -224 278.5 -214.5Q288 -205 288 -192Q288 -179 278.5 -169.5Q269 -160 256 -160Q243 -160 233.5 -169.5Q224 -179 224 -192Q224 -205 233.5 -214.5Q243 -224 256 -224ZM160 -224Q173 -224 182.5 -214.5Q192 -205 192 -192Q192 -179 182.5 -169.5Q173 -160 160 -160Q147 -160 137.5 -169.5Q128 -179 128 -192Q128 -205 137.5 -214.5Q147 -224 160 -224ZM352 -224Q365 -224 374.5 -214.5Q384 -205 384 -192Q384 -179 374.5 -169.5Q365 -160 352 -160Q339 -160 329.5 -169.5Q320 -179 320 -192Q320 -205 329.5 -214.5Q339 -224 352 -224Z"/>
</svg>