<svg xmlns="http://www.w3.org/2000/svg" viewBox="0 -512 512 512">
	<path fill="#000000" d="M256 -405Q298 -405 337.5 -389Q377 -373 407 -343Q437 -313 453 -273.5Q469 -234 469 -192Q469 -150 453 -110.5Q437 -71 407 -41Q377 -11 337.5 5Q298 21 256 21Q214 21 174.5 5Q135 -11 105 -41Q75 -71 59 -110.5Q43 -150 43 -192Q43 -234 59 -273.5Q75 -313 105 -343Q135 -373 174.5 -389Q214 -405 256 -405ZM256 -224Q243 -224 233.5 -214.5Q224 -205 224 -192Q224 -179 233.5 -169.5Q243 -160 256 -160Q269 -160 278.5 -169.5Q288 -179 288 -192Q288 -205 278.5 -214.5Q269 -224 256 -224ZM139 -224Q125 -224 116 -214.5Q107 -205 107 -192Q107 -179 116 -169.5Q125 -160 138.5 -160Q152 -160 161.5 -169.5Q171 -179 171 -192Q171 -205 161.5 -214.5Q152 -224 139 -224ZM373 -224Q360 -224 350.5 -214.5Q341 -205 341 -192Q341 -179 350.5 -169.5Q360 -160 373.5 -160Q387 -160 396 -169.5Q405 -179 405 -192Q405 -205 396 -214.5Q387 -224 373 -224Z"/>
</svg>