<svg xmlns="http://www.w3.org/2000/svg" viewBox="0 -512 512 512">
	<path fill="#000000" d="M224 -192Q224 -205 233.5 -214.5Q243 -224 256 -224Q269 -224 278.5 -214.5Q288 -205 288 -192Q288 -179 278.5 -169.5Q269 -160 256 -160Q243 -160 233.5 -169.5Q224 -179 224 -192ZM224 -96Q224 -109 233.5 -118.5Q243 -128 256 -128Q269 -128 278.5 -118.5Q288 -109 288 -96Q288 -83 278.5 -73.5Q269 -64 256 -64Q243 -64 233.5 -73.5Q224 -83 224 -96ZM224 -288Q224 -301 233.5 -310.5Q243 -320 256 -320Q269 -320 278.5 -310.5Q288 -301 288 -288Q288 -275 278.5 -265.5Q269 -256 256 -256Q243 -256 233.5 -265.5Q224 -275 224 -288ZM256 -405Q298 -405 337.5 -389Q377 -373 407 -343Q437 -313 453 -273.5Q469 -234 469 -192Q469 -150 453 -110.5Q437 -71 407 -41Q377 -11 337.5 5Q298 21 256 21Q214 21 174.5 5Q135 -11 105 -41Q75 -71 59 -110.5Q43 -150 43 -192Q43 -234 59 -273.5Q75 -313 105 -343Q135 -373 174.5 -389Q214 -405 256 -405ZM256 -363Q210 -363 170.5 -340Q131 -317 108 -277.5Q85 -238 85 -192Q85 -146 108 -106.5Q131 -67 170.5 -44Q210 -21 256 -21Q302 -21 341.5 -44Q381 -67 404 -106.5Q427 -146 427 -192Q427 -238 404 -277.5Q381 -317 341.5 -340Q302 -363 256 -363Z"/>
</svg>