<svg xmlns="http://www.w3.org/2000/svg" viewBox="0 -512 512 512">
	<path fill="#000000" d="M43 -192Q43 -234 59 -273.5Q75 -313 105 -343Q135 -373 174.5 -389Q214 -405 256 -405Q298 -405 337.5 -389Q377 -373 407 -343Q437 -313 453 -273.5Q469 -234 469 -192Q469 -150 453 -110.5Q437 -71 407 -41Q377 -11 337.5 5Q298 21 256 21Q214 21 174.5 5Q135 -11 105 -41Q75 -71 59 -110.5Q43 -150 43 -192ZM224 -192Q224 -179 233.5 -169.5Q243 -160 256 -160Q269 -160 278.5 -169.5Q288 -179 288 -192Q288 -205 278.5 -214.5Q269 -224 256 -224Q243 -224 233.5 -214.5Q224 -205 224 -192ZM224 -75Q224 -61 233.5 -52Q243 -43 256 -43Q269 -43 278.5 -52Q288 -61 288 -74.5Q288 -88 278.5 -97.5Q269 -107 256 -107Q243 -107 233.5 -97.5Q224 -88 224 -75ZM224 -309Q224 -296 233.5 -286.5Q243 -277 256 -277Q269 -277 278.5 -286.5Q288 -296 288 -309.5Q288 -323 278.5 -332Q269 -341 256 -341Q243 -341 233.5 -332Q224 -323 224 -309Z"/>
</svg>