<svg xmlns="http://www.w3.org/2000/svg" viewBox="0 -512 512 512">
	<path fill="#000000" d="M256 -43Q274 -43 286.5 -30.5Q299 -18 299 0Q299 18 286.5 30.5Q274 43 256 43Q238 43 225.5 30.5Q213 18 213 0Q213 -18 225.5 -30.5Q238 -43 256 -43ZM256 -427Q274 -427 286.5 -414.5Q299 -402 299 -384Q299 -366 286.5 -353.5Q274 -341 256 -341Q238 -341 225.5 -353.5Q213 -366 213 -384Q213 -402 225.5 -414.5Q238 -427 256 -427ZM128 -107Q146 -107 158.5 -94.5Q171 -82 171 -64Q171 -46 158.5 -33.5Q146 -21 128 -21Q110 -21 97.5 -33.5Q85 -46 85 -64Q85 -82 97.5 -94.5Q110 -107 128 -107ZM64 -235Q82 -235 94.5 -222.5Q107 -210 107 -192Q107 -174 94.5 -161.5Q82 -149 64 -149Q46 -149 33.5 -161.5Q21 -174 21 -192Q21 -210 33.5 -222.5Q46 -235 64 -235ZM128 -363Q146 -363 158.5 -350.5Q171 -338 171 -320Q171 -302 158.5 -289.5Q146 -277 128 -277Q110 -277 97.5 -289.5Q85 -302 85 -320Q85 -338 97.5 -350.5Q110 -363 128 -363ZM384 -107Q402 -107 414.5 -94.5Q427 -82 427 -64Q427 -46 414.5 -33.5Q402 -21 384 -21Q366 -21 353.5 -33.5Q341 -46 341 -64Q341 -82 353.5 -94.5Q366 -107 384 -107ZM448 -235Q466 -235 478.5 -222.5Q491 -210 491 -192Q491 -174 478.5 -161.5Q466 -149 448 -149Q430 -149 417.5 -161.5Q405 -174 405 -192Q405 -210 417.5 -222.5Q430 -235 448 -235ZM384 -363Q402 -363 414.5 -350.5Q427 -338 427 -320Q427 -302 414.5 -289.5Q402 -277 384 -277Q366 -277 353.5 -289.5Q341 -302 341 -320Q341 -338 353.5 -350.5Q366 -363 384 -363Z"/>
</svg>