<svg xmlns="http://www.w3.org/2000/svg" viewBox="0 -512 512 512">
	<path fill="#000000" d="M341 -192Q341 -210 353.5 -222.5Q366 -235 384 -235Q402 -235 414.5 -222.5Q427 -210 427 -192Q427 -174 414.5 -161.5Q402 -149 384 -149Q366 -149 353.5 -161.5Q341 -174 341 -192ZM213 -192Q213 -210 225.5 -222.5Q238 -235 256 -235Q274 -235 286.5 -222.5Q299 -210 299 -192Q299 -174 286.5 -161.5Q274 -149 256 -149Q238 -149 225.5 -161.5Q213 -174 213 -192ZM85 -192Q85 -210 97.5 -222.5Q110 -235 128 -235Q146 -235 158.5 -222.5Q171 -210 171 -192Q171 -174 158.5 -161.5Q146 -149 128 -149Q110 -149 97.5 -161.5Q85 -174 85 -192Z"/>
</svg>