<svg xmlns="http://www.w3.org/2000/svg" viewBox="0 -512 512 512">
	<path fill="#000000" d="M256 -107Q274 -107 286.5 -94.5Q299 -82 299 -64Q299 -46 286.5 -33.5Q274 -21 256 -21Q238 -21 225.5 -33.5Q213 -46 213 -64Q213 -82 225.5 -94.5Q238 -107 256 -107ZM256 -235Q274 -235 286.5 -222.5Q299 -210 299 -192Q299 -174 286.5 -161.5Q274 -149 256 -149Q238 -149 225.5 -161.5Q213 -174 213 -192Q213 -210 225.5 -222.5Q238 -235 256 -235ZM256 -363Q274 -363 286.5 -350.5Q299 -338 299 -320Q299 -302 286.5 -289.5Q274 -277 256 -277Q238 -277 225.5 -289.5Q213 -302 213 -320Q213 -338 225.5 -350.5Q238 -363 256 -363ZM128 -107Q146 -107 158.5 -94.5Q171 -82 171 -64Q171 -46 158.5 -33.5Q146 -21 128 -21Q110 -21 97.5 -33.5Q85 -46 85 -64Q85 -82 97.5 -94.5Q110 -107 128 -107ZM128 -235Q146 -235 158.5 -222.5Q171 -210 171 -192Q171 -174 158.5 -161.5Q146 -149 128 -149Q110 -149 97.5 -161.5Q85 -174 85 -192Q85 -210 97.5 -222.5Q110 -235 128 -235ZM128 -363Q146 -363 158.5 -350.5Q171 -338 171 -320Q171 -302 158.5 -289.5Q146 -277 128 -277Q110 -277 97.5 -289.5Q85 -302 85 -320Q85 -338 97.5 -350.5Q110 -363 128 -363ZM384 -107Q402 -107 414.5 -94.5Q427 -82 427 -64Q427 -46 414.5 -33.5Q402 -21 384 -21Q366 -21 353.5 -33.5Q341 -46 341 -64Q341 -82 353.5 -94.5Q366 -107 384 -107ZM384 -235Q402 -235 414.5 -222.5Q427 -210 427 -192Q427 -174 414.5 -161.5Q402 -149 384 -149Q366 -149 353.5 -161.5Q341 -174 341 -192Q341 -210 353.5 -222.5Q366 -235 384 -235ZM384 -363Q402 -363 414.5 -350.5Q427 -338 427 -320Q427 -302 414.5 -289.5Q402 -277 384 -277Q366 -277 353.5 -289.5Q341 -302 341 -320Q341 -338 353.5 -350.5Q366 -363 384 -363Z"/>
</svg>