<svg xmlns="http://www.w3.org/2000/svg" viewBox="0 -512 512 512">
	<path fill="#000000" d="M173 -33Q138 -46 112.5 -75Q87 -104 79 -142L44 -308Q40 -326 49.5 -340.5Q59 -355 76 -359L285 -403Q303 -407 317.5 -397.5Q332 -388 335 -371L343 -335L436 -315Q453 -311 462.5 -296.5Q472 -282 468 -265L433 -98Q425 -58 398 -29Q371 0 333.5 12.5Q296 25 256 17Q206 6 173 -33ZM427 -273L218 -318L183 -150Q177 -122 186 -95.5Q195 -69 216 -50Q237 -31 265 -25Q293 -19 320 -28Q347 -37 366 -57.5Q385 -78 391 -107ZM341 -96Q331 -79 312.5 -70.5Q294 -62 274 -66.5Q254 -71 240 -86Q226 -101 224 -121ZM181 -338L85 -317L121 -150Q126 -128 139 -109Q136 -135 141 -160L150 -203Q135 -205 128 -217Q129 -227 136.5 -235Q144 -243 155 -245H160L177 -327Q178 -333 181 -338ZM321 -187Q326 -196 336 -200Q346 -204 357 -201.5Q368 -199 375.5 -191.5Q383 -184 384 -174Q379 -165 369 -161Q359 -157 348 -159.5Q337 -162 329.5 -169.5Q322 -177 321 -187ZM217 -209Q222 -218 231.5 -222Q241 -226 252 -223.5Q263 -221 270.5 -213.5Q278 -206 280 -196Q274 -187 264.5 -183Q255 -179 244 -181.5Q233 -184 225.5 -191.5Q218 -199 217 -209ZM255 -353L297 -345L294 -362Z"/>
</svg>