<svg xmlns="http://www.w3.org/2000/svg" viewBox="0 -512 512 512">
	<path fill="#000000" d="M469 -213H448L427 -256H293L341 -181H299L229 -256H85Q75 -256 59 -262.5Q43 -269 43 -276.5Q43 -284 53.5 -297Q64 -310 79 -319Q98 -331 116.5 -331Q135 -331 148 -325Q156 -322 168 -313Q182 -303 192 -299H448Q457 -299 463 -292.5Q469 -286 469 -277ZM229 -309L299 -384H341L293 -309ZM384 -213V-245H421L405 -213ZM64 -43Q55 -43 49 -49Q43 -55 43 -64Q43 -73 49 -79Q55 -85 64 -85Q99 -85 124 -60Q149 -35 149 0Q149 9 143 15Q137 21 128 21Q119 21 113 15Q107 9 107 0Q107 -18 94.5 -30.5Q82 -43 64 -43ZM235 0Q235 9 228.5 15Q222 21 213 21Q204 21 198 15Q192 9 192 0Q192 -35 175 -64.5Q158 -94 128.5 -111Q99 -128 64 -128Q55 -128 49 -134Q43 -140 43 -149Q43 -158 49 -164.5Q55 -171 64 -171Q110 -171 149.5 -148Q189 -125 212 -85.5Q235 -46 235 0Z"/>
</svg>