<svg xmlns="http://www.w3.org/2000/svg" viewBox="0 -512 512 512">
	<path fill="#000000" d="M363 -21Q354 -21 346 -25Q334 -31 326 -42Q318 -53 310 -75Q302 -97 288 -114Q279 -124 259 -139Q242 -153 233 -161Q220 -175 209 -193Q192 -224 192 -256Q192 -285 206 -309.5Q220 -334 244.5 -348.5Q269 -363 298.5 -363Q328 -363 352.5 -348.5Q377 -334 391 -309.5Q405 -285 405 -256H448Q448 -297 428 -331.5Q408 -366 374 -385.5Q340 -405 298.5 -405Q257 -405 223 -385.5Q189 -366 169 -331.5Q149 -297 149 -255.5Q149 -214 172 -173Q185 -149 203 -131Q214 -120 233 -106Q249 -93 255 -87Q265 -76 269 -62Q279 -33 292.5 -15Q306 3 328 14Q344 21 363 21Q398 21 423 -4Q448 -29 448 -64H405Q405 -46 392.5 -33.5Q380 -21 363 -21ZM163 -392L133 -422Q100 -390 82 -347Q64 -304 64 -256Q64 -208 82 -165Q100 -122 133 -90L163 -120Q136 -147 121.5 -182Q107 -217 107 -256Q107 -295 121.5 -330Q136 -365 163 -392ZM245 -256Q245 -234 261 -218.5Q277 -203 299 -203Q321 -203 336.5 -218.5Q352 -234 352 -256Q352 -278 336.5 -293.5Q321 -309 299 -309Q277 -309 261 -293.5Q245 -278 245 -256Z"/>
</svg>