<svg xmlns="http://www.w3.org/2000/svg" viewBox="0 -512 512 512">
	<path fill="#000000" d="M472 10L395 -67L301 -161L142 -320L51 -411L24 -384L54 -353Q43 -335 43 -320V-213Q43 -201 50.5 -186Q58 -171 71 -161Q87 -149 106.5 -149Q126 -149 149 -165V-21Q149 -13 155.5 -6.5Q162 0 171 0H192Q201 0 207 -6.5Q213 -13 213 -21V-194L309 -98V-21Q309 -13 315.5 -6.5Q322 0 331 0H373Q380 0 385.5 -4Q391 -8 393 -15L445 37ZM171 -230L126 -201Q113 -192 107 -192Q97 -192 90 -202Q85 -210 85 -213V-319Q85 -321 86 -322L171 -237ZM289 -228L236 -281Q241 -325 274 -354.5Q307 -384 352 -384Q384 -384 411 -368Q438 -352 453.5 -325.5Q469 -299 469 -267Q469 -222 439.5 -188.5Q410 -155 366 -150L313 -203Q331 -192 352 -192Q383 -192 405 -214Q427 -236 427 -267Q427 -298 405 -319.5Q383 -341 352 -341Q321 -341 299 -319.5Q277 -298 277 -267Q277 -246 289 -228Z"/>
</svg>