<svg xmlns="http://www.w3.org/2000/svg" viewBox="0 -512 512 512">
	<path fill="#000000" d="M107 -384Q87 -384 71 -372Q58 -362 50.5 -347Q43 -332 43 -320V-213Q43 -201 50.5 -186Q58 -171 71 -161Q87 -149 106.5 -149Q126 -149 149 -165V-21Q149 -13 155.5 -6.5Q162 0 171 0H192Q201 0 207 -6.5Q213 -13 213 -21V-277Q213 -298 195.5 -323.5Q178 -349 152.5 -366.5Q127 -384 107 -384ZM171 -230L126 -201Q113 -192 107 -192Q97 -192 90 -202Q85 -210 85 -213V-319Q85 -324 90 -331Q97 -341 106.5 -341Q116 -341 131.5 -329Q147 -317 159 -302Q171 -287 171 -277ZM352 -128Q374 -128 395 -135V-21Q395 -13 388.5 -6.5Q382 0 373 0H331Q322 0 315.5 -6.5Q309 -13 309 -21V-135Q330 -128 352 -128ZM352 -384Q320 -384 293 -368Q266 -352 250.5 -325.5Q235 -299 235 -267Q235 -235 250.5 -208Q266 -181 293 -165Q320 -149 352 -149Q384 -149 411 -165Q438 -181 453.5 -208Q469 -235 469 -267Q469 -299 453.5 -325.5Q438 -352 411 -368Q384 -384 352 -384ZM352 -192Q321 -192 299 -214Q277 -236 277 -267Q277 -298 299 -319.5Q321 -341 352 -341Q383 -341 405 -319.5Q427 -298 427 -267Q427 -236 405 -214Q383 -192 352 -192Z"/>
</svg>