<svg xmlns="http://www.w3.org/2000/svg" viewBox="0 -512 512 512">
	<path fill="#000000" d="M213 -249L247 -215L301 -161L472 10L445 37L393 -14Q391 -8 385.5 -4Q380 0 373 0H331Q322 0 315.5 -6.5Q309 -13 309 -21V-98L213 -194V-21Q213 -13 207 -6.5Q201 0 192 0H171Q162 0 155.5 -6.5Q149 -13 149 -21V-165Q126 -149 106.5 -149Q87 -149 71 -161Q58 -171 50.5 -186Q43 -201 43 -213V-320Q43 -335 54 -353L24 -384L51 -411L130 -332ZM469 -267Q469 -299 453.5 -325.5Q438 -352 411 -368Q384 -384 352 -384Q307 -384 274 -354.5Q241 -325 236 -281L366 -150Q410 -155 439.5 -188.5Q469 -222 469 -267Z"/>
</svg>