<svg xmlns="http://www.w3.org/2000/svg" viewBox="0 -512 512 512">
	<path fill="#000000" d="M213 -277V-21Q213 -13 207 -6.5Q201 0 192 0H171Q162 0 155.5 -6.5Q149 -13 149 -21V-165Q126 -149 106.5 -149Q87 -149 71 -161Q58 -171 50.5 -186Q43 -201 43 -213V-320Q43 -332 50.5 -347Q58 -362 71 -372Q87 -384 107 -384Q127 -384 152.5 -366.5Q178 -349 195.5 -323.5Q213 -298 213 -277ZM352 -384Q320 -384 293 -368Q266 -352 250.5 -325.5Q235 -299 235 -267Q235 -235 250.5 -208Q266 -181 293 -165Q320 -149 352 -149Q384 -149 411 -165Q438 -181 453.5 -208Q469 -235 469 -267Q469 -299 453.5 -325.5Q438 -352 411 -368Q384 -384 352 -384ZM309 -135V-21Q309 -13 315.5 -6.5Q322 0 331 0H373Q382 0 388.5 -6.5Q395 -13 395 -21V-135Q374 -128 352 -128Q330 -128 309 -135Z"/>
</svg>