<svg xmlns="http://www.w3.org/2000/svg" viewBox="0 -512 512 512">
	<path fill="#000000" d="M308 -109L339 -140L384 -94L429 -139L460 -109L414 -64L460 -19L429 12L384 -34L339 12L308 -19L354 -64L309 -109ZM107 -384H405Q423 -384 435.5 -371.5Q448 -359 448 -341V-175Q428 -187 405 -190V-341H337Q335 -325 323 -314Q311 -303 294 -303H252V-260Q252 -252 245.5 -245.5Q239 -239 230 -239H188V-196H316Q323 -196 328.5 -192.5Q334 -189 336 -183Q301 -169 279 -137.5Q257 -106 256 -68Q235 -68 222 -80.5Q209 -93 209 -111V-132L107 -228V-43H258Q261 -20 273 0H107Q89 0 76.5 -12.5Q64 -25 64 -43V-341Q64 -359 76.5 -371.5Q89 -384 107 -384Z"/>
</svg>