<svg xmlns="http://www.w3.org/2000/svg" viewBox="0 -512 512 512">
	<path fill="#000000" d="M107 -384Q89 -384 76.5 -371.5Q64 -359 64 -341V-43Q64 -25 76.5 -12.5Q89 0 107 0H405Q423 0 435.5 -12.5Q448 -25 448 -43V-341Q448 -359 435.5 -371.5Q423 -384 405 -384ZM337 -341H405V-81Q401 -94 387 -102.5Q373 -111 358 -111H337V-175Q337 -184 331 -190Q325 -196 316 -196H188V-239H230Q239 -239 245.5 -245.5Q252 -252 252 -260V-303H294Q311 -303 323 -314Q335 -325 337 -341ZM107 -228L209 -132V-111Q209 -93 221.5 -80.5Q234 -68 252 -68V-43H107Z"/>
</svg>