<svg xmlns="http://www.w3.org/2000/svg" viewBox="0 -512 512 512">
	<path fill="#000000" d="M308 -109L339 -140L384 -94L429 -139L460 -109L414 -64L460 -19L429 12L384 -34L339 12L308 -19L354 -64L309 -109ZM427 -192Q427 -245 397.5 -288Q368 -331 320 -350V-341Q320 -324 307.5 -311.5Q295 -299 277 -299H235V-256Q235 -247 228.5 -241Q222 -235 213 -235H171V-192H299Q307 -192 312.5 -187Q318 -182 320 -175Q291 -158 273.5 -128.5Q256 -99 256 -64Q256 -17 287 19L256 21Q198 21 149 -7.5Q100 -36 71.5 -85Q43 -134 43 -192Q43 -250 71.5 -299Q100 -348 149 -376.5Q198 -405 256 -405Q314 -405 363 -376.5Q412 -348 440.5 -299Q469 -250 469 -192L467 -161Q449 -177 427 -185ZM235 -23V-64Q217 -64 204.5 -76.5Q192 -89 192 -107V-128L90 -230Q85 -211 85 -192Q85 -149 105 -112.5Q125 -76 159 -52Q193 -28 235 -23Z"/>
</svg>