<svg xmlns="http://www.w3.org/2000/svg" viewBox="0 -512 512 512">
	<path fill="#000000" d="M382 -77Q378 -90 366.5 -98.5Q355 -107 341 -107H320V-171Q320 -180 314 -186Q308 -192 299 -192H171V-235H213Q222 -235 228.5 -241Q235 -247 235 -256V-299H277Q295 -299 307.5 -311.5Q320 -324 320 -341V-350Q368 -331 397.5 -288Q427 -245 427 -192Q427 -159 415 -129.5Q403 -100 382 -77ZM235 -23Q193 -28 159 -52Q125 -76 105 -112.5Q85 -149 85 -192Q85 -211 90 -230L192 -128V-107Q192 -89 204.5 -76.5Q217 -64 235 -64ZM256 -405Q214 -405 174.5 -389Q135 -373 105 -343Q75 -313 59 -273.5Q43 -234 43 -192Q43 -150 59 -110.5Q75 -71 105 -41Q135 -11 174.5 5Q214 21 256 21Q298 21 337.5 5Q377 -11 407 -41Q437 -71 453 -110.5Q469 -150 469 -192Q469 -234 453 -273.5Q437 -313 407 -343Q377 -373 337.5 -389Q298 -405 256 -405Z"/>
</svg>