<svg xmlns="http://www.w3.org/2000/svg" viewBox="0 -512 512 512">
	<path fill="#000000" d="M491 -357L448 -314V-43Q448 -25 435.5 -12.5Q423 0 405 0H134L91 43L64 15L463 -384ZM107 -384H409L367 -341H337Q335 -325 323 -314Q311 -303 294 -303H252V-260Q252 -252 245.5 -245.5Q239 -239 230 -239H188V-196H221L182 -157L107 -228V-81L64 -39V-341Q64 -359 76.5 -371.5Q89 -384 107 -384ZM252 -43V-68Q231 -68 218 -84L176 -43ZM337 -175V-111H358Q373 -111 387 -102.5Q401 -94 405 -81V-272L327 -193Q337 -187 337 -175Z"/>
</svg>