<svg xmlns="http://www.w3.org/2000/svg" viewBox="0 -512 512 512">
	<path fill="#000000" d="M448 -85H405V0H363V-85H320L384 -149ZM256 -64Q256 -99 273.5 -128Q291 -157 320 -175Q318 -183 312.5 -187.5Q307 -192 299 -192H171V-235H213Q223 -235 229 -240.5Q235 -246 235 -256V-299H277Q295 -299 307.5 -311.5Q320 -324 320 -341V-350Q368 -330 397.5 -287.5Q427 -245 427 -192V-186Q445 -180 467 -162Q469 -171 469 -192Q469 -250 440.5 -299Q412 -348 363 -376.5Q314 -405 256 -405Q198 -405 149 -376.5Q100 -348 71.5 -299Q43 -250 43 -192Q43 -134 71.5 -85Q100 -36 149 -7.5Q198 21 256 21Q277 21 286 19Q256 -17 256 -64ZM235 -23Q192 -29 158 -52.5Q124 -76 104.5 -112.5Q85 -149 85 -192Q85 -205 90 -230L192 -128V-107Q192 -89 204.5 -76.5Q217 -64 235 -64Z"/>
</svg>