<svg xmlns="http://www.w3.org/2000/svg" viewBox="0 -512 512 512">
	<path fill="#000000" d="M469 -336L437 -304Q469 -253 469 -192Q469 -150 453 -110.5Q437 -71 407 -41Q377 -11 337.5 5Q298 21 256 21Q195 21 144 -11L112 21L85 -6L442 -363ZM382 -77Q403 -100 415 -129.5Q427 -159 427 -192Q427 -235 406 -273L316 -183Q320 -177 320 -171V-107H341Q355 -107 366.5 -98.5Q378 -90 382 -77ZM235 -23V-64Q219 -64 208 -74L175 -42Q203 -27 235 -23ZM320 -350V-341Q320 -324 307.5 -311.5Q295 -299 277 -299H235V-256Q235 -247 228.5 -241Q222 -235 213 -235H171V-192H217L173 -147L90 -230Q85 -211 85 -192Q85 -137 117 -92L87 -62Q43 -119 43 -192Q43 -234 59 -273.5Q75 -313 105 -343Q135 -373 174.5 -389Q214 -405 256 -405Q329 -405 386 -361L356 -331Q339 -343 320 -350Z"/>
</svg>