<svg xmlns="http://www.w3.org/2000/svg" viewBox="0 -512 512 512">
	<path fill="#000000" d="M147 -312Q170 -355 196 -378Q226 -405 256 -405Q286 -405 316 -378Q342 -355 365 -312Q336 -305 320 -282Q301 -309 268.5 -314Q236 -319 209 -299Q199 -292 192 -282Q176 -305 147 -312ZM320 -63L256 -127L192 -63L128 -127L101 -100Q112 -57 141.5 -27Q171 3 212 15Q253 27 295.5 16Q338 5 369 -26Q400 -57 411 -100L384 -127ZM192 -108L256 -172L320 -108L384 -172L416 -140Q412 -215 380 -282Q361 -281 348.5 -267Q336 -253 336 -235H304Q304 -255 290 -269Q276 -283 256 -283Q236 -283 222 -269Q208 -255 208 -235H176Q176 -253 163.5 -267Q151 -281 132 -282Q100 -215 96 -140L128 -172Z"/>
</svg>