<svg xmlns="http://www.w3.org/2000/svg" viewBox="0 -512 512 512">
	<path fill="#000000" d="M472 10L51 -411L24 -384L130 -277Q114 -241 105 -204Q96 -167 96 -139Q96 -95 117.5 -58.5Q139 -22 176 -0.5Q213 21 256 21Q291 21 322 7Q353 -7 375 -32L445 37ZM256 -21Q224 -21 197 -37Q170 -53 154.5 -80Q139 -107 139 -139Q139 -183 163 -245L345 -63Q328 -43 305 -32Q282 -21 256 -21ZM200 -317L169 -347Q211 -405 256 -405Q297 -405 337 -356Q371 -313 394 -247Q416 -185 416 -139Q416 -122 412 -104L373 -143Q372 -183 352.5 -235.5Q333 -288 307 -324Q279 -363 256 -363Q243 -363 228.5 -350.5Q214 -338 200 -317Z"/>
</svg>