<svg xmlns="http://www.w3.org/2000/svg" viewBox="0 -512 512 512">
	<path fill="#000000" d="M256 -363Q280 -363 308 -323Q335 -286 354 -232.5Q373 -179 373 -139Q373 -107 357.5 -80Q342 -53 315 -37Q288 -21 256 -21Q224 -21 197 -37Q170 -53 154.5 -80Q139 -107 139 -139Q139 -179 158 -232.5Q177 -286 204 -323Q232 -363 256 -363ZM256 -405Q215 -405 175 -356Q141 -313 118 -247Q96 -185 96 -139Q96 -95 117.5 -58.5Q139 -22 176 -0.5Q213 21 256 21Q299 21 336 -0.5Q373 -22 394.5 -58.5Q416 -95 416 -139Q416 -185 394 -247Q371 -313 337 -356Q297 -405 256 -405Z"/>
</svg>