<svg xmlns="http://www.w3.org/2000/svg" viewBox="0 -512 512 512">
	<path fill="#000000" d="M444 -213Q438 -232 421 -244Q404 -256 384 -256Q364 -256 347.5 -244Q331 -232 324 -213H188Q181 -232 164.5 -244Q148 -256 128 -256Q108 -256 91 -244Q74 -232 68 -213H21V-171H68Q74 -152 91 -140Q108 -128 128 -128Q148 -128 164.5 -140Q181 -152 188 -171H324Q331 -152 347.5 -140Q364 -128 384 -128Q404 -128 421 -140Q438 -152 444 -171H491V-213ZM128 -171Q122 -171 116.5 -174.5Q111 -178 108.5 -184Q106 -190 107 -196.5Q108 -203 112.5 -207.5Q117 -212 123.5 -213Q130 -214 136 -211.5Q142 -209 145.5 -203.5Q149 -198 149 -192Q149 -183 143 -177Q137 -171 128 -171ZM384 -171Q375 -171 369 -177Q363 -183 363 -192Q363 -201 369 -207Q375 -213 384 -213Q393 -213 399 -207Q405 -201 405 -192Q405 -183 399 -177Q393 -171 384 -171Z"/>
</svg>