<svg xmlns="http://www.w3.org/2000/svg" viewBox="0 -512 512 512">
	<path fill="#000000" d="M21 -213H68Q74 -232 90.5 -244Q107 -256 127.5 -256Q148 -256 165 -244L308 -344L332 -309L190 -209Q192 -201 192 -192Q192 -165 173.5 -146.5Q155 -128 128 -128Q107 -128 90.5 -140Q74 -152 68 -171H21ZM491 -213V-171H444Q438 -152 421.5 -140Q405 -128 384 -128Q357 -128 338.5 -146.5Q320 -165 320 -192Q320 -219 338.5 -237.5Q357 -256 384 -256Q405 -256 421.5 -244Q438 -232 444 -213ZM128 -213Q119 -213 113 -207Q107 -201 107 -192Q107 -183 113 -177Q119 -171 128 -171Q137 -171 143 -177Q149 -183 149 -192Q149 -201 143 -207Q137 -213 128 -213ZM384 -213Q375 -213 369 -207Q363 -201 363 -192Q363 -183 369 -177Q375 -171 384 -171Q393 -171 399 -177Q405 -183 405 -192Q405 -201 399 -207Q393 -213 384 -213Z"/>
</svg>