<svg xmlns="http://www.w3.org/2000/svg" viewBox="0 -512 512 512">
	<path fill="#000000" d="M256 21Q229 21 206.5 -1.5Q184 -24 169 -65Q167 -69 168.5 -72Q170 -75 173.5 -76Q177 -77 180 -75.5Q183 -74 184 -71Q197 -35 216 -15Q235 5 256 5Q271 5 285.5 -5.5Q300 -16 312 -36Q314 -39 317 -40Q320 -41 323 -39Q326 -37 327 -33.5Q328 -30 326 -28Q312 -4 294 8.5Q276 21 256 21ZM339 -70Q338 -70 337 -70Q330 -73 332 -81Q346 -125 346 -181Q346 -243 328 -292.5Q310 -342 281 -360Q272 -346 256 -346Q244 -346 235 -354.5Q226 -363 226 -375.5Q226 -388 235 -396.5Q244 -405 256 -405Q268 -405 277 -396.5Q286 -388 286 -376Q320 -358 341.5 -304Q363 -250 363 -181Q363 -124 347 -76Q346 -70 339 -70ZM256 -389Q251 -389 247 -385Q243 -381 243 -375.5Q243 -370 247 -366.5Q251 -363 256.5 -363Q262 -363 266 -366.5Q270 -370 270 -375.5Q270 -381 266 -385Q262 -389 256 -389ZM87 -52Q75 -52 66 -61Q57 -70 57 -82Q57 -98 71 -107Q69 -146 105.5 -192Q142 -238 203 -273Q255 -302 305 -313Q308 -314 311 -312Q314 -310 315 -306.5Q316 -303 314 -300Q312 -297 309 -297Q260 -286 211 -258Q156 -227 121.5 -186Q87 -145 87 -112Q100 -112 108.5 -103Q117 -94 117 -82Q117 -70 108 -61Q99 -52 87 -52ZM87 -95Q82 -95 78 -91.5Q74 -88 74 -82.5Q74 -77 78 -73Q82 -69 87.5 -69Q93 -69 96.5 -73Q100 -77 100 -82.5Q100 -88 96.5 -91.5Q93 -95 87 -95ZM395 -161Q392 -161 389.5 -163Q387 -165 387 -168.5Q387 -172 389 -175Q414 -204 422 -230Q430 -256 419 -274Q404 -301 355 -302Q351 -302 349 -304.5Q347 -307 347 -310Q347 -313 349.5 -315.5Q352 -318 355 -318Q383 -318 403.5 -308.5Q424 -299 433 -283Q447 -260 438.5 -229Q430 -198 401 -164Q399 -161 395 -161ZM352 -45Q319 -45 280 -56.5Q241 -68 203 -90Q153 -119 117 -157Q115 -160 115 -163.5Q115 -167 117.5 -169Q120 -171 123.5 -171Q127 -171 129 -168Q163 -132 211 -105Q264 -74 316 -64.5Q368 -55 398 -70Q395 -77 395 -82Q395 -94 404 -103Q413 -112 425 -112Q437 -112 446 -103Q455 -94 455 -82Q455 -70 446 -61Q437 -52 425 -52Q416 -52 409 -57Q387 -45 352 -45ZM416 -72Q421 -69 426 -69Q431 -69 434.5 -73Q438 -77 438 -82.5Q438 -88 434.5 -91.5Q431 -95 425 -95Q419 -95 415.5 -91.5Q412 -88 412 -83Q412 -78 415 -74Q416 -73 416 -72ZM95 -192Q91 -192 88 -196Q74 -221 71.5 -243.5Q69 -266 79 -283Q92 -306 123.5 -314.5Q155 -323 199 -315Q202 -314 204 -311Q206 -308 205.5 -305Q205 -302 202 -300Q199 -298 196 -299Q158 -305 130.5 -299Q103 -293 93 -275Q86 -261 88 -243Q90 -225 102 -205Q104 -202 103 -198.5Q102 -195 99.5 -193.5Q97 -192 95 -192ZM260 -162Q252 -161 245.5 -165Q239 -169 237 -177Q235 -185 239.5 -192Q244 -199 252 -200.5Q260 -202 267 -197.5Q274 -193 275.5 -185Q277 -177 272.5 -170.5Q268 -164 260 -162Z"/>
</svg>