<svg xmlns="http://www.w3.org/2000/svg" viewBox="0 -512 512 512">
	<path fill="#000000" d="M405 -384H107Q89 -384 76.5 -371.5Q64 -359 64 -341V-43Q64 -25 76.5 -12.5Q89 0 107 0H405Q423 0 435.5 -12.5Q448 -25 448 -43V-341Q448 -359 435.5 -371.5Q423 -384 405 -384ZM181 -320Q192 -320 200 -312Q208 -304 208 -293Q208 -282 200 -274.5Q192 -267 181 -267Q170 -267 162.5 -274.5Q155 -282 155 -293Q155 -304 162.5 -312Q170 -320 181 -320ZM235 -149H213V-64H149V-149H128V-203Q128 -220 140.5 -232.5Q153 -245 171 -245H192Q210 -245 222.5 -232.5Q235 -220 235 -203ZM331 -85L277 -171H384ZM277 -213L331 -299L384 -213Z"/>
</svg>