<svg xmlns="http://www.w3.org/2000/svg" viewBox="0 -512 512 512">
	<path fill="#000000" d="M405 -341V-43H107V-341ZM405 -384H107Q89 -384 76.5 -371.5Q64 -359 64 -341V-43Q64 -25 76.5 -12.5Q89 0 107 0H405Q423 0 435.5 -12.5Q448 -25 448 -43V-341Q448 -359 435.5 -371.5Q423 -384 405 -384ZM213 -64V-149H235V-203Q235 -220 222.5 -232.5Q210 -245 192 -245H171Q153 -245 140.5 -232.5Q128 -220 128 -203V-149H149V-64ZM181 -267Q192 -267 200 -274.5Q208 -282 208 -293Q208 -304 200 -312Q192 -320 181 -320Q170 -320 162.5 -312Q155 -304 155 -293Q155 -282 162.5 -274.5Q170 -267 181 -267ZM384 -213L331 -299L277 -213ZM277 -171L331 -85L384 -171Z"/>
</svg>