<svg xmlns="http://www.w3.org/2000/svg" viewBox="0 -512 512 512">
	<path fill="#000000" d="M256 -320Q302 -320 341.5 -303Q381 -286 404 -256.5Q427 -227 427 -192Q427 -157 404 -127.5Q381 -98 341.5 -81Q302 -64 256 -64Q210 -64 170.5 -81Q131 -98 108 -127.5Q85 -157 85 -192Q85 -227 108 -256.5Q131 -286 170.5 -303Q210 -320 256 -320ZM256 -363Q198 -363 149 -340Q100 -317 71.5 -277.5Q43 -238 43 -192Q43 -146 71.5 -106.5Q100 -67 149 -44Q198 -21 256 -21Q314 -21 363 -44Q412 -67 440.5 -106.5Q469 -146 469 -192Q469 -238 440.5 -277.5Q412 -317 363 -340Q314 -363 256 -363Z"/>
</svg>