<svg xmlns="http://www.w3.org/2000/svg" viewBox="0 -512 512 512">
	<path fill="#000000" d="M267 -164Q261 -178 265 -192H64V-352L192 -267L320 -352V-316Q333 -322 350 -322Q352 -324 361 -329V-393Q362 -407 352.5 -417Q343 -427 329 -427H55Q41 -427 31 -417Q21 -407 21 -393V-183Q21 -169 31 -159Q41 -149 55 -149H275Q270 -155 267 -164ZM320 -384L192 -299L64 -384ZM482 -237Q479 -245 468 -253Q463 -256 461 -258Q459 -260 457 -266Q453 -279 446 -284Q439 -289 425 -289Q419 -289 416 -290Q413 -291 406 -296Q396 -303 387.5 -303Q379 -303 368 -295L361 -290Q358 -289 351 -289Q338 -289 331 -284.5Q324 -280 321 -269Q318 -261 316 -258.5Q314 -256 309 -252Q297 -244 294.5 -236.5Q292 -229 296 -217Q299 -210 299 -207Q299 -204 296 -197Q292 -185 294.5 -176.5Q297 -168 309 -161Q314 -158 315.5 -156Q317 -154 319 -148Q324 -134 331 -129Q338 -124 351 -124Q358 -124 361 -123.5Q364 -123 370 -118Q381 -111 389 -111Q397 -111 409 -119L416 -124Q419 -124 425 -124Q439 -124 446 -130Q453 -136 457 -148Q459 -154 461 -156Q463 -158 468 -162Q479 -170 482 -177.5Q485 -185 480 -197Q478 -204 478 -207Q478 -210 480 -217Q485 -229 482 -237ZM388 -141Q361 -141 342.5 -160Q324 -179 324 -204.5Q324 -230 343.5 -249.5Q363 -269 388.5 -269Q414 -269 433 -249.5Q452 -230 452 -204.5Q452 -179 433.5 -160Q415 -141 388 -141ZM420 -207Q420 -194 410.5 -184.5Q401 -175 388 -175Q375 -175 365.5 -184.5Q356 -194 356 -207Q356 -220 365.5 -229.5Q375 -239 388 -239Q401 -239 410.5 -229.5Q420 -220 420 -207ZM416 -83L405 -26L393 41L350 0L299 23L320 -98Q333 -92 350 -92Q361 -85 371 -81Q375 -79 388 -79Q402 -76 416 -83ZM484 -32L442 -47L450 -94L463 -100L465 -102Z"/>
</svg>