<svg xmlns="http://www.w3.org/2000/svg" viewBox="0 -512 512 512">
	<path fill="#000000" d="M64 -363Q46 -363 33.5 -350.5Q21 -338 21 -320V-64Q21 -46 33.5 -33.5Q46 -21 64 -21H288Q279 -42 277 -64H64V-277L235 -171L405 -277V-213H416Q432 -213 448 -209V-320Q448 -338 435.5 -350.5Q423 -363 405 -363ZM64 -320H405L235 -213ZM405 -192L357 -144L405 -96V-128Q427 -128 443 -112.5Q459 -97 459 -75Q459 -62 453 -51L476 -28Q491 -49 491 -75Q491 -110 466 -135Q441 -160 405 -160ZM334 -122Q320 -100 320 -75Q320 -39 345 -14Q370 11 405 11V43L453 -5L405 -53V-21Q383 -21 367.5 -37Q352 -53 352 -75Q352 -87 358 -99Z"/>
</svg>