<svg xmlns="http://www.w3.org/2000/svg" viewBox="0 -512 512 512">
	<path fill="#000000" d="M469 -331H192Q174 -331 161.5 -318.5Q149 -306 149 -288V-96Q149 -78 161.5 -65.5Q174 -53 192 -53H469Q487 -53 499.5 -65.5Q512 -78 512 -96V-288Q512 -306 499.5 -318.5Q487 -331 469 -331ZM469 -96H192V-252L331 -181L469 -252ZM331 -217L192 -288H469ZM107 -96Q107 -93 107 -88L108 -85H21Q13 -85 6.5 -91.5Q0 -98 0 -106.5Q0 -115 6.5 -121.5Q13 -128 21 -128H107ZM64 -299H108L107 -288V-256H64Q55 -256 49 -262.5Q43 -269 43 -277.5Q43 -286 49 -292.5Q55 -299 64 -299ZM21 -192Q21 -201 27.5 -207Q34 -213 43 -213H107V-171H43Q34 -171 27.5 -177Q21 -183 21 -192Z"/>
</svg>