<svg xmlns="http://www.w3.org/2000/svg" viewBox="0 -512 512 512">
	<path fill="#000000" d="M213 -256Q196 -256 183.5 -243Q171 -230 171 -212Q171 -194 183 -181L256 -107L329 -181Q341 -194 341 -212Q341 -230 328.5 -243Q316 -256 298.5 -256Q281 -256 269 -243L256 -230L244 -243Q231 -256 213 -256ZM427 -363Q444 -363 456.5 -350.5Q469 -338 469 -320V-64Q469 -46 456.5 -33.5Q444 -21 427 -21H85Q68 -21 55.5 -33.5Q43 -46 43 -64V-320Q43 -338 55.5 -350.5Q68 -363 85 -363ZM356 -276L427 -320H85L156 -276Q142 -263 135 -246L85 -277V-64H427V-277L377 -246Q370 -263 356 -276Z"/>
</svg>