<svg xmlns="http://www.w3.org/2000/svg" viewBox="0 -512 512 512">
	<path fill="#000000" d="M213 -256Q196 -256 183.5 -243Q171 -230 171 -212Q171 -194 183 -181L256 -107L329 -181Q341 -194 341 -212Q341 -230 328.5 -243Q316 -256 298.5 -256Q281 -256 269 -243L256 -230L244 -243Q231 -256 213 -256ZM256 -434L449 -314Q458 -308 463.5 -298.5Q469 -289 469 -277V-64Q469 -46 456.5 -33.5Q444 -21 427 -21H85Q68 -21 55.5 -33.5Q43 -46 43 -64V-277Q43 -289 48.5 -298.5Q54 -308 63 -314ZM85 -235V-64H427V-235L384 -208V-212Q384 -230 377 -246L427 -277L256 -384L85 -277L135 -246Q128 -230 128 -212V-208Z"/>
</svg>