<svg xmlns="http://www.w3.org/2000/svg" viewBox="0 -512 512 512">
	<path fill="#000000" d="M352 -213Q392 -213 420 -185Q448 -157 448 -117Q448 -89 433 -66L499 0L469 30L403 -36Q379 -21 352 -21Q312 -21 284 -49Q256 -77 256 -117Q256 -157 284 -185Q312 -213 352 -213ZM352 -171Q330 -171 314.5 -155Q299 -139 299 -117Q299 -95 314.5 -79.5Q330 -64 352 -64Q374 -64 389.5 -79.5Q405 -95 405 -117Q405 -139 389.5 -155Q374 -171 352 -171ZM224 -64H64V-277L227 -176Q243 -212 277 -234Q311 -256 352 -256Q364 -256 369 -255L405 -277V-245Q428 -236 448 -217V-320Q448 -338 435.5 -350.5Q423 -363 405 -363H64Q46 -363 33.5 -350.5Q21 -338 21 -320V-64Q21 -46 33.5 -33.5Q46 -21 64 -21H252Q234 -40 224 -64ZM405 -320L235 -213L64 -320Z"/>
</svg>