<svg xmlns="http://www.w3.org/2000/svg" viewBox="0 -512 512 512">
	<path fill="#000000" d="M256 -60Q256 -62 256 -64H85V-277L256 -171L427 -277V-204Q453 -192 469 -169V-320Q469 -338 456.5 -350.5Q444 -363 427 -363H85Q68 -363 55.5 -350.5Q43 -338 43 -320V-64Q43 -46 55.5 -33.5Q68 -21 85 -21H256ZM427 -320L256 -213L85 -320ZM444 -85V-117Q444 -139 425.5 -155Q407 -171 384 -171Q361 -171 342.5 -155Q324 -139 324 -117V-85Q315 -85 307 -77Q299 -69 299 -60V15Q299 26 306.5 34.5Q314 43 324 43H442Q453 43 461 35Q469 27 469 17V-58Q469 -69 461.5 -77Q454 -85 444 -85ZM416 -85H352V-117Q352 -130 361.5 -137.5Q371 -145 384 -145Q397 -145 406.5 -137.5Q416 -130 416 -117Z"/>
</svg>