<svg xmlns="http://www.w3.org/2000/svg" viewBox="0 -512 512 512">
	<path fill="#000000" d="M320 -64H491V-21H320ZM256 -405Q314 -405 363 -376.5Q412 -348 440.5 -299Q469 -250 469 -192Q469 -173 466 -155Q438 -171 405 -171Q367 -171 335 -149H147Q160 -116 189.5 -95.5Q219 -75 256 -75Q269 -75 282 -78Q277 -61 277 -43Q277 -10 293 18Q275 21 256 21Q198 21 149 -7.5Q100 -36 71.5 -85Q43 -134 43 -192Q43 -250 71.5 -299Q100 -348 149 -376.5Q198 -405 256 -405ZM331 -277Q317 -277 308 -268Q299 -259 299 -245.5Q299 -232 308 -222.5Q317 -213 330.5 -213Q344 -213 353.5 -222.5Q363 -232 363 -245.5Q363 -259 353.5 -268Q344 -277 331 -277ZM181 -277Q168 -277 158.5 -268Q149 -259 149 -245.5Q149 -232 158.5 -222.5Q168 -213 181.5 -213Q195 -213 204 -222.5Q213 -232 213 -245.5Q213 -259 204 -268Q195 -277 181 -277Z"/>
</svg>