<svg xmlns="http://www.w3.org/2000/svg" viewBox="0 -512 512 512">
	<path fill="#000000" d="M128 -213V-181H160V-149H192V-213ZM267 -320H235V-256H299V-288H267ZM209 -85Q242 -72 277 -78.5Q312 -85 337.5 -110.5Q363 -136 369.5 -171Q376 -206 363 -239ZM135 -313Q172 -349 223 -359Q274 -369 322 -349Q324 -371 336 -390Q276 -414 213.5 -401Q151 -388 105.5 -342.5Q60 -297 47 -234.5Q34 -172 58 -113Q77 -125 99 -127Q79 -174 89 -225Q99 -276 135 -313ZM377 -71Q340 -35 289 -25Q238 -15 190 -35Q188 -13 176 6Q236 30 298.5 17Q361 4 406.5 -41.5Q452 -87 465 -149.5Q478 -212 454 -271Q435 -259 413 -257Q433 -210 423 -159Q413 -108 377 -71ZM128 -213V-181H160V-149H192V-213ZM209 -85Q242 -72 277 -78.5Q312 -85 337.5 -110.5Q363 -136 369.5 -171Q376 -206 363 -239ZM267 -320H235V-256H299V-288H267ZM128 -213V-181H160V-149H192V-213ZM267 -320H235V-256H299V-288H267ZM209 -85Q242 -72 277 -78.5Q312 -85 337.5 -110.5Q363 -136 369.5 -171Q376 -206 363 -239ZM105 0Q88 0 75.5 -12.5Q63 -25 63 -42.5Q63 -60 75.5 -72.5Q88 -85 105 -85H148V-43Q148 -25 135.5 -11.5Q123 2 105 1ZM407 -385Q424 -385 436.5 -372.5Q449 -360 449 -342.5Q449 -325 436.5 -312.5Q424 -300 407 -300H364V-343Q364 -360 376.5 -372.5Q389 -385 407 -385Z"/>
</svg>