<svg xmlns="http://www.w3.org/2000/svg" viewBox="0 -512 512 512">
	<path fill="#000000" d="M256 -405Q198 -405 149 -376.5Q100 -348 71.5 -299Q43 -250 43 -192Q43 -134 71.5 -85Q100 -36 149 -7.5Q198 21 256 21Q314 21 363 -7.5Q412 -36 440.5 -85Q469 -134 469 -192Q469 -250 440.5 -299Q412 -348 363 -376.5Q314 -405 256 -405ZM256 -21Q210 -21 170.5 -44Q131 -67 108 -106.5Q85 -146 85 -192Q85 -238 108 -277.5Q131 -317 170.5 -340Q210 -363 256 -363Q302 -363 341.5 -340Q381 -317 404 -277.5Q427 -238 427 -192Q427 -146 404 -106.5Q381 -67 341.5 -44Q302 -21 256 -21ZM331 -213Q344 -213 353.5 -222.5Q363 -232 363 -245.5Q363 -259 353.5 -268Q344 -277 330.5 -277Q317 -277 308 -268Q299 -259 299 -245.5Q299 -232 308 -222.5Q317 -213 331 -213ZM181 -213Q195 -213 204 -222.5Q213 -232 213 -245.5Q213 -259 204 -268Q195 -277 181.5 -277Q168 -277 158.5 -268Q149 -259 149 -245.5Q149 -232 158.5 -222.5Q168 -213 181 -213ZM256 -160Q219 -160 189.5 -139.5Q160 -119 147 -85H365Q352 -119 322.5 -139.5Q293 -160 256 -160Z"/>
</svg>