<svg xmlns="http://www.w3.org/2000/svg" viewBox="0 -512 512 512">
	<path fill="#000000" d="M360 -118L405 -73L451 -118L481 -88L435 -43L481 3L451 33L405 -13L360 33L330 3L375 -43L330 -88ZM256 -75Q219 -75 189.5 -95.5Q160 -116 147 -149H335Q295 -123 282 -78Q269 -75 256 -75ZM181 -213Q168 -213 158.5 -222.5Q149 -232 149 -245.5Q149 -259 158.5 -268Q168 -277 181.5 -277Q195 -277 204 -268Q213 -259 213 -245.5Q213 -232 204 -222.5Q195 -213 181 -213ZM331 -213Q317 -213 308 -222.5Q299 -232 299 -245.5Q299 -259 308 -268Q317 -277 330.5 -277Q344 -277 353.5 -268Q363 -259 363 -245.5Q363 -232 353.5 -222.5Q344 -213 331 -213ZM256 -21L279 -23Q282 -1 293 18Q275 21 256 21Q198 21 149 -7.5Q100 -36 71.5 -85Q43 -134 43 -192Q43 -250 71.5 -299Q100 -348 149 -376.5Q198 -405 256 -405Q314 -405 363 -376.5Q412 -348 440.5 -299Q469 -250 469 -192Q469 -173 466 -155Q447 -166 425 -169L427 -192Q427 -238 404 -277.5Q381 -317 341.5 -340Q302 -363 256 -363Q210 -363 170.5 -340Q131 -317 108 -277.5Q85 -238 85 -192Q85 -146 108 -106.5Q131 -67 170.5 -44Q210 -21 256 -21Z"/>
</svg>