<svg xmlns="http://www.w3.org/2000/svg" viewBox="0 -512 512 512">
	<path fill="#000000" d="M403 -44L340 -107Q332 -116 332 -127Q332 -138 340 -146.5Q348 -155 359.5 -155Q371 -155 379 -146L403 -122L427 -147Q435 -155 446.5 -155Q458 -155 466.5 -146.5Q475 -138 475 -126.5Q475 -115 467 -107ZM372 -29Q344 -5 308.5 8Q273 21 235 21Q192 21 153 5Q114 -11 84 -41Q54 -71 37.5 -110.5Q21 -150 21 -192Q21 -234 37.5 -273.5Q54 -313 84 -343Q114 -373 153 -389Q192 -405 234.5 -405Q277 -405 316.5 -389Q356 -373 386 -343Q416 -313 432 -273.5Q448 -234 448 -192Q448 -188 447 -187Q423 -187 405 -169L403 -168L402 -169Q385 -187 360 -187Q335 -187 317.5 -169.5Q300 -152 300 -127Q300 -102 317 -85ZM277 -245Q277 -233 287 -223Q297 -213 309.5 -213Q322 -213 331.5 -223Q341 -233 341 -245.5Q341 -258 331.5 -267.5Q322 -277 309.5 -277Q297 -277 287 -267.5Q277 -258 277 -245ZM192 -245Q192 -258 182.5 -267.5Q173 -277 160 -277Q147 -277 137.5 -267.5Q128 -258 128 -245.5Q128 -233 137.5 -223Q147 -213 160 -213Q173 -213 182.5 -223Q192 -233 192 -245ZM276 -124L299 -147L253 -192L231 -169L253 -147L231 -124L253 -102L231 -79L253 -56L299 -102Z"/>
</svg>