<svg xmlns="http://www.w3.org/2000/svg" viewBox="0 -512 512 512">
	<path fill="#000000" d="M256 -405Q198 -405 149 -376.5Q100 -348 71.5 -299Q43 -250 43 -192Q43 -150 59 -110.5Q75 -71 105 -41Q135 -11 174.5 5Q214 21 256 21Q298 21 337.5 5Q377 -11 407 -41Q437 -71 453 -110.5Q469 -150 469 -192Q469 -234 453 -273.5Q437 -313 407 -343Q377 -373 337.5 -389Q298 -405 256 -405ZM331 -277Q344 -277 353.5 -268Q363 -259 363 -245.5Q363 -232 353.5 -222.5Q344 -213 330.5 -213Q317 -213 308 -222.5Q299 -232 299 -245.5Q299 -259 308 -268Q317 -277 331 -277ZM181 -277Q195 -277 204 -268Q213 -259 213 -245.5Q213 -232 204 -222.5Q195 -213 181.5 -213Q168 -213 158.5 -222.5Q149 -232 149 -245.5Q149 -259 158.5 -268Q168 -277 181 -277ZM256 -75Q219 -75 189.5 -95.5Q160 -116 147 -149H365Q352 -116 322.5 -95.5Q293 -75 256 -75Z"/>
</svg>