<svg xmlns="http://www.w3.org/2000/svg" viewBox="0 -512 512 512">
	<path fill="#000000" d="M256 -405Q198 -405 149 -376.5Q100 -348 71.5 -299Q43 -250 43 -192Q43 -134 71.5 -85Q100 -36 149 -7.5Q198 21 256 21Q298 21 337.5 5Q377 -11 407 -41Q437 -71 453 -110.5Q469 -150 469 -192Q469 -250 440.5 -299Q412 -348 363 -376.5Q314 -405 256 -405ZM189 -281L235 -236L212 -213L189 -236L167 -213L144 -236ZM256 -75Q219 -75 189.5 -95.5Q160 -116 147 -149H365Q352 -116 322.5 -95.5Q293 -75 256 -75ZM345 -213L323 -236L300 -213L277 -236L323 -281L368 -236Z"/>
</svg>