<svg xmlns="http://www.w3.org/2000/svg" viewBox="0 -512 512 512">
	<path fill="#000000" d="M256 -405Q214 -405 174.5 -389Q135 -373 105 -343Q75 -313 59 -273.5Q43 -234 43 -192Q43 -150 59 -110.5Q75 -71 105 -41Q135 -11 174.5 5Q214 21 256 21Q298 21 337.5 5Q377 -11 407 -41Q437 -71 453 -110.5Q469 -150 469 -192Q469 -234 453 -273.5Q437 -313 407 -343Q377 -373 337.5 -389Q298 -405 256 -405ZM256 -21Q210 -21 170.5 -44Q131 -67 108 -106.5Q85 -146 85 -192Q85 -238 108 -277.5Q131 -317 170.5 -340Q210 -363 256 -363Q302 -363 341.5 -340Q381 -317 404 -277.5Q427 -238 427 -192Q427 -146 404 -106.5Q381 -67 341.5 -44Q302 -21 256 -21ZM213 -245Q213 -233 203.5 -223Q194 -213 181.5 -213Q169 -213 159 -223Q149 -233 149 -245.5Q149 -258 159 -267.5Q169 -277 181.5 -277Q194 -277 203.5 -267.5Q213 -258 213 -245ZM256 -80Q229 -80 205 -90.5Q181 -101 167 -119L197 -149Q204 -138 220 -130.5Q236 -123 256 -123Q276 -123 292 -130.5Q308 -138 315 -149L345 -119Q331 -101 307 -90.5Q283 -80 256 -80ZM363 -235H277V-256H363Z"/>
</svg>