<svg xmlns="http://www.w3.org/2000/svg" viewBox="0 -512 512 512">
	<path fill="#000000" d="M427 -192Q427 -238 404 -277.5Q381 -317 341.5 -340Q302 -363 256 -363Q210 -363 170.5 -340Q131 -317 108 -277.5Q85 -238 85 -192Q85 -146 108 -106.5Q131 -67 170.5 -44Q210 -21 256 -21Q302 -21 341.5 -44Q381 -67 404 -106.5Q427 -146 427 -192ZM469 -192Q469 -150 453 -110.5Q437 -71 407 -41Q377 -11 337.5 5Q298 21 256 21Q214 21 174.5 5Q135 -11 105 -41Q75 -71 59 -110.5Q43 -150 43 -192Q43 -234 59 -273.5Q75 -313 105 -343Q135 -373 174.5 -389Q214 -405 256 -405Q298 -405 337.5 -389Q377 -373 407 -343Q437 -313 453 -273.5Q469 -234 469 -192ZM331 -277Q343 -277 353 -267.5Q363 -258 363 -245.5Q363 -233 353 -223Q343 -213 330.5 -213Q318 -213 308.5 -223Q299 -233 299 -245.5Q299 -258 308.5 -267.5Q318 -277 331 -277ZM213 -245Q213 -233 203.5 -223Q194 -213 181.5 -213Q169 -213 159 -223Q149 -233 149 -245.5Q149 -258 159 -267.5Q169 -277 181.5 -277Q194 -277 203.5 -267.5Q213 -258 213 -245ZM256 -149Q284 -149 307.5 -138.5Q331 -128 345 -111L315 -80Q308 -92 292 -99.5Q276 -107 256 -107Q236 -107 220 -99.5Q204 -92 197 -80L167 -111Q181 -128 204.5 -138.5Q228 -149 256 -149Z"/>
</svg>