<svg xmlns="http://www.w3.org/2000/svg" viewBox="0 -512 512 512">
	<path fill="#000000" d="M256 -405Q198 -405 149 -376.5Q100 -348 71.5 -299Q43 -250 43 -192Q43 -134 71.5 -85Q100 -36 149 -7.5Q198 21 256 21Q298 21 337.5 5Q377 -11 407 -41Q437 -71 453 -110.5Q469 -150 469 -192Q469 -250 440.5 -299Q412 -348 363 -376.5Q314 -405 256 -405ZM144 -260L167 -282L189 -260L212 -282L235 -260L212 -237L235 -215L212 -192L189 -215L167 -192L144 -215L167 -237ZM147 -75Q160 -108 189.5 -128.5Q219 -149 256 -149Q293 -149 322.5 -128.5Q352 -108 365 -75ZM368 -215L345 -192L323 -215L300 -192L277 -215L300 -237L277 -260L300 -282L323 -260L345 -282L368 -260L345 -237Z"/>
</svg>