<svg xmlns="http://www.w3.org/2000/svg" viewBox="0 -512 512 512">
	<path fill="#000000" d="M161 -21Q140 -21 125 -36.5Q110 -52 110 -73Q110 -89 126 -119Q139 -145 161 -175Q184 -145 197 -119Q213 -89 213 -73Q213 -52 198 -36.5Q183 -21 161 -21ZM256 -405Q214 -405 174.5 -389Q135 -373 105 -343Q75 -313 59 -273.5Q43 -234 43 -192Q43 -137 69 -89Q74 -113 92 -146Q85 -168 85 -192Q85 -238 108 -277.5Q131 -317 170.5 -340Q210 -363 256 -363Q302 -363 341.5 -340Q381 -317 404 -277.5Q427 -238 427 -192Q427 -146 404 -106.5Q381 -67 341.5 -44Q302 -21 256 -21Q246 -21 241 -22Q226 2 199 13Q227 21 256 21Q298 21 337.5 5Q377 -11 407 -41Q437 -71 453 -110.5Q469 -150 469 -192Q469 -234 453 -273.5Q437 -313 407 -343Q377 -373 337.5 -389Q298 -405 256 -405ZM256 -149Q243 -149 231 -147Q243 -125 249 -107H256Q276 -107 292 -99.5Q308 -92 315 -80L345 -111Q331 -128 307.5 -138.5Q284 -149 256 -149ZM331 -277Q318 -277 308.5 -267.5Q299 -258 299 -245.5Q299 -233 308.5 -223Q318 -213 330.5 -213Q343 -213 353 -223Q363 -233 363 -245.5Q363 -258 353 -267.5Q343 -277 331 -277ZM213 -245Q213 -258 203.5 -267.5Q194 -277 181.5 -277Q169 -277 159 -267.5Q149 -258 149 -245.5Q149 -233 159 -223Q169 -213 181.5 -213Q194 -213 203.5 -223Q213 -233 213 -245Z"/>
</svg>