<svg xmlns="http://www.w3.org/2000/svg" viewBox="0 -512 512 512">
	<path fill="#000000" d="M321 -257V-343Q322 -368 336 -390Q276 -414 213.5 -401Q151 -388 105.5 -342.5Q60 -297 47 -234.5Q34 -172 58 -113Q80 -127 105 -127H191V-41Q191 -16 177 6Q236 30 298.5 17Q361 4 406.5 -41.5Q452 -87 465 -149.5Q478 -212 454 -272Q432 -258 407 -257ZM235 -320H267V-288H299V-256H235ZM160 -149V-181H128V-213H192V-149ZM339 -109Q313 -83 277.5 -77Q242 -71 209 -85L363 -239Q377 -206 370.5 -170.5Q364 -135 339 -109ZM104 2Q87 2 74.5 -10.5Q62 -23 62 -41Q62 -59 74.5 -71.5Q87 -84 104 -84H147V-41Q147 -24 135 -11.5Q123 1 105 1ZM407 -385Q424 -385 436.5 -372.5Q449 -360 449 -342.5Q449 -325 436.5 -312.5Q424 -300 407 -300H364V-343Q364 -360 376.5 -372.5Q389 -385 407 -385Z"/>
</svg>