<svg xmlns="http://www.w3.org/2000/svg" viewBox="0 -512 512 512">
	<path fill="#000000" d="M110 -73Q110 -89 126 -119Q139 -145 161 -175Q184 -145 197 -119Q213 -89 213 -73Q213 -52 198 -36.5Q183 -21 161.5 -21Q140 -21 125 -36.5Q110 -52 110 -73ZM469 -192Q469 -150 453 -110.5Q437 -71 407 -41Q377 -11 337.5 5Q298 21 256 21Q228 21 199 13Q225 2 240.5 -21Q256 -44 256 -73Q256 -87 249 -107H256Q276 -107 292 -99.5Q308 -92 315 -80L345 -111Q331 -128 307.5 -138.5Q284 -149 256 -149Q243 -149 231 -147Q216 -173 196 -200L186 -213Q197 -215 205 -224.5Q213 -234 213 -246Q213 -258 203.5 -267.5Q194 -277 181.5 -277Q169 -277 159 -267.5Q149 -258 149 -245Q149 -240 152 -234L127 -200Q78 -133 69 -89Q43 -137 43 -192Q43 -234 59 -273.5Q75 -313 105 -343Q135 -373 174.5 -389Q214 -405 256 -405Q298 -405 337.5 -389Q377 -373 407 -343Q437 -313 453 -273.5Q469 -234 469 -192ZM363 -245Q363 -258 353 -267.5Q343 -277 330.5 -277Q318 -277 308.5 -267.5Q299 -258 299 -245.5Q299 -233 308.5 -223Q318 -213 330.5 -213Q343 -213 353 -223Q363 -233 363 -245Z"/>
</svg>