<svg xmlns="http://www.w3.org/2000/svg" viewBox="0 -512 512 512">
	<path fill="#000000" d="M156 -223L179 -245L156 -268L179 -291L224 -245L179 -200ZM96 -256Q97 -256 98 -256Q117 -304 160 -333.5Q203 -363 256 -363Q290 -363 321 -350Q352 -337 376 -314Q380 -332 393 -355Q365 -379 329.5 -392Q294 -405 256 -405Q205 -405 160.5 -382.5Q116 -360 86 -320.5Q56 -281 47 -232Q56 -243 69 -249.5Q82 -256 96 -256ZM448 -224Q436 -224 423 -229Q427 -210 427 -192Q427 -146 404 -106.5Q381 -67 341.5 -44Q302 -21 256 -21Q203 -21 160 -50.5Q117 -80 98 -128H96Q79 -128 64 -137Q54 -142 47 -151Q56 -103 86 -63.5Q116 -24 160.5 -1.5Q205 21 256 21Q314 21 363 -7.5Q412 -36 440.5 -85Q469 -134 469 -192Q469 -207 466 -227Q456 -224 448 -224ZM448 -384Q442 -376 437 -367Q424 -347 416 -331Q405 -309 405 -299Q405 -281 417.5 -268.5Q430 -256 448 -256Q466 -256 478.5 -268.5Q491 -281 491 -299Q491 -313 469 -350Q459 -369 448 -384ZM333 -291L288 -245L333 -200L356 -223L333 -245L356 -268ZM183 -85Q194 -105 213.5 -116.5Q233 -128 256 -128Q279 -128 298.5 -116.5Q318 -105 329 -85H365Q352 -119 322.5 -139.5Q293 -160 256 -160Q228 -160 204 -148L128 -192Q128 -200 124 -207.5Q120 -215 112 -220Q100 -226 87.5 -222.5Q75 -219 68.5 -207.5Q62 -196 65 -183.5Q68 -171 80 -164Q87 -160 96 -160Q105 -160 112 -164L175 -127Q157 -110 147 -85Z"/>
</svg>