<svg xmlns="http://www.w3.org/2000/svg" viewBox="0 -512 512 512">
	<path fill="#000000" d="M427 -192Q427 -244 398 -287Q369 -330 321 -349.5Q273 -369 222.5 -359Q172 -349 135.5 -312.5Q99 -276 89 -225.5Q79 -175 98.5 -127Q118 -79 161 -50Q204 -21 256 -21Q302 -21 341.5 -44Q381 -67 404 -106.5Q427 -146 427 -192ZM469 -192Q469 -134 440.5 -85Q412 -36 363 -7.5Q314 21 256 21Q198 21 149 -7.5Q100 -36 71.5 -85Q43 -134 43 -192Q43 -250 71.5 -299Q100 -348 149 -376.5Q198 -405 256 -405Q298 -405 337.5 -389Q377 -373 407 -343Q437 -313 453 -273.5Q469 -234 469 -192ZM331 -277Q344 -277 353.5 -268Q363 -259 363 -245.5Q363 -232 353.5 -222.5Q344 -213 330.5 -213Q317 -213 308 -222.5Q299 -232 299 -245Q299 -258 308.5 -267.5Q318 -277 331 -277ZM213 -245Q213 -232 204 -222.5Q195 -213 181.5 -213Q168 -213 158.5 -222.5Q149 -232 149 -245.5Q149 -259 158.5 -268Q168 -277 181 -277Q194 -277 203.5 -267.5Q213 -258 213 -245ZM363 -128H277Q254 -128 234.5 -116.5Q215 -105 203 -85L166 -107Q184 -136 213.5 -153.5Q243 -171 277 -171H363Z"/>
</svg>