<svg xmlns="http://www.w3.org/2000/svg" viewBox="0 -512 512 512">
	<path fill="#000000" d="M69 -294Q96 -345 146 -375Q196 -405 256 -405Q316 -405 366 -375Q416 -345 443 -294L427 -277H85ZM457 -265Q469 -228 469 -192Q469 -150 453 -110.5Q437 -71 407 -41Q377 -11 337.5 5Q298 21 256 21Q214 21 174.5 5Q135 -11 105 -41Q75 -71 59 -110.5Q43 -150 43 -192Q43 -228 55 -265L85 -235H107Q107 -214 133 -197Q157 -181 180.5 -181Q204 -181 222 -197Q240 -213 240 -235H272Q272 -213 290 -197Q308 -181 331.5 -181Q355 -181 379 -197Q405 -214 405 -235H427ZM345 -119L315 -149Q308 -138 292 -130.5Q276 -123 256 -123Q236 -123 220 -130.5Q204 -138 197 -149L167 -119Q181 -101 205 -90.5Q229 -80 256 -80Q283 -80 307 -90.5Q331 -101 345 -119Z"/>
</svg>