<svg xmlns="http://www.w3.org/2000/svg" viewBox="0 -512 512 512">
	<path fill="#000000" d="M256 -405Q214 -405 174.5 -389Q135 -373 105 -343Q75 -313 59 -273.5Q43 -234 43 -192Q43 -150 59 -110.5Q75 -71 105 -41Q135 -11 174.5 5Q214 21 256 21Q298 21 337.5 5Q377 -11 407 -41Q437 -71 453 -110.5Q469 -150 469 -192Q469 -234 453 -273.5Q437 -313 407 -343Q377 -373 337.5 -389Q298 -405 256 -405ZM149 -245V-277L213 -245Q213 -233 203.5 -223Q194 -213 181.5 -213Q169 -213 159 -223Q149 -233 149 -245ZM315 -80Q308 -92 292 -99.5Q276 -107 256 -107Q236 -107 220 -99.5Q204 -92 197 -80L167 -111Q181 -128 204.5 -138.5Q228 -149 256 -149Q284 -149 307.5 -138.5Q331 -128 345 -111ZM363 -245Q363 -233 353 -223Q343 -213 330.5 -213Q318 -213 308.5 -223Q299 -233 299 -245L363 -277Z"/>
</svg>