<svg xmlns="http://www.w3.org/2000/svg" viewBox="0 -512 512 512">
	<path fill="#000000" d="M192 -245Q192 -233 182.5 -223Q173 -213 160 -213Q147 -213 137.5 -223Q128 -233 128 -245.5Q128 -258 137.5 -267.5Q147 -277 160 -277Q173 -277 182.5 -267.5Q192 -258 192 -245ZM341 -245Q341 -233 331.5 -223Q322 -213 309.5 -213Q297 -213 287 -223Q277 -233 277 -245.5Q277 -258 287 -267.5Q297 -277 309.5 -277Q322 -277 331.5 -267.5Q341 -258 341 -245ZM299 -147L253 -192L231 -169L253 -147L231 -124L253 -102L231 -79L253 -56L299 -102L276 -124ZM359 -171Q341 -171 328.5 -158Q316 -145 316 -127Q316 -109 329 -96L403 -21L478 -96Q491 -109 491 -127Q491 -145 478 -158Q465 -171 447 -171Q429 -171 416 -158L403 -145L390 -158Q378 -171 359 -171ZM320 -44Q280 -21 234 -21Q188 -21 149 -44Q110 -67 87 -106.5Q64 -146 64 -192Q64 -238 87 -277.5Q110 -317 149 -340Q188 -363 233.5 -363Q279 -363 317 -341.5Q355 -320 378.5 -283.5Q402 -247 405 -203Q425 -213 447 -213Q442 -267 412 -310.5Q382 -354 335.5 -379.5Q289 -405 235 -405Q192 -405 153 -389Q114 -373 84 -343Q54 -313 37.5 -273.5Q21 -234 21 -192Q21 -150 37.5 -110.5Q54 -71 84 -41Q114 -11 153 5Q192 21 235 21Q298 21 351 -13Z"/>
</svg>