<svg xmlns="http://www.w3.org/2000/svg" viewBox="0 -512 512 512">
	<path fill="#000000" d="M32 -403Q60 -375 121 -357Q149 -380 183.5 -392.5Q218 -405 256 -405Q294 -405 328.5 -392.5Q363 -380 391 -357Q452 -375 480 -403Q479 -352 433 -311Q469 -258 469 -192Q469 -150 453 -110.5Q437 -71 407 -41Q377 -11 337.5 5Q298 21 256 21Q214 21 174.5 5Q135 -11 105 -41Q75 -71 59 -110.5Q43 -150 43 -192Q43 -258 79 -311Q33 -352 32 -403ZM427 -192Q427 -238 404 -277.5Q381 -317 341.5 -340Q302 -363 256 -363Q210 -363 170.5 -340Q131 -317 108 -277.5Q85 -238 85 -192Q85 -146 108 -106.5Q131 -67 170.5 -44Q210 -21 256 -21Q302 -21 341.5 -44Q381 -67 404 -106.5Q427 -146 427 -192ZM224 -235Q224 -222 214.5 -212.5Q205 -203 192 -203Q179 -203 169.5 -212.5Q160 -222 160 -235V-267ZM352 -235Q352 -222 342.5 -212.5Q333 -203 320 -203Q307 -203 297.5 -212.5Q288 -222 288 -235L352 -267ZM256 -80Q229 -80 205 -90.5Q181 -101 167 -119L197 -149Q204 -138 220 -130.5Q236 -123 256 -123Q276 -123 292 -130.5Q308 -138 315 -149L345 -119Q331 -101 307 -90.5Q283 -80 256 -80Z"/>
</svg>