<svg xmlns="http://www.w3.org/2000/svg" viewBox="0 -512 512 512">
	<path fill="#000000" d="M256 -405Q198 -405 149 -376.5Q100 -348 71.5 -299Q43 -250 43 -192Q43 -134 71.5 -85Q100 -36 149 -7.5Q198 21 256 21Q314 21 363 -7.5Q412 -36 440.5 -85Q469 -134 469 -192Q469 -234 453 -273.5Q437 -313 407 -343Q377 -373 337.5 -389Q298 -405 256 -405ZM181 -277Q195 -277 204 -268Q213 -259 213 -245.5Q213 -232 204 -222.5Q195 -213 181.5 -213Q168 -213 158.5 -222.5Q149 -232 149.5 -245Q150 -258 159 -267.5Q168 -277 181 -277ZM363 -107H277Q254 -107 234.5 -95.5Q215 -84 203 -64L166 -85Q184 -115 213.5 -132Q243 -149 277 -149H363ZM331 -213Q317 -213 308 -222.5Q299 -232 299 -245.5Q299 -259 308 -268Q317 -277 330.5 -277Q344 -277 353.5 -268Q363 -259 362.5 -245.5Q362 -232 353 -223Q344 -214 331 -213Z"/>
</svg>