<svg xmlns="http://www.w3.org/2000/svg" viewBox="0 -512 512 512">
	<path fill="#000000" d="M256 -405Q198 -405 149 -376.5Q100 -348 71.5 -299Q43 -250 43 -192Q43 -134 71.5 -85Q100 -36 149 -7.5Q198 21 256 21Q314 21 363 -7.5Q412 -36 440.5 -85Q469 -134 469 -192Q469 -250 440.5 -299Q412 -348 363 -376.5Q314 -405 256 -405ZM331 -277Q344 -277 353.5 -268Q363 -259 363 -245.5Q363 -232 353.5 -222.5Q344 -213 330.5 -213Q317 -213 308 -222.5Q299 -232 299 -245.5Q299 -259 308 -268Q317 -277 331 -277ZM181 -277Q195 -277 204 -268Q213 -259 213 -245.5Q213 -232 204 -222.5Q195 -213 181.5 -213Q168 -213 158.5 -222.5Q149 -232 149 -245.5Q149 -259 158.5 -268Q168 -277 181 -277ZM147 -85Q160 -119 189.5 -139.5Q219 -160 256 -160Q293 -160 322.5 -139.5Q352 -119 365 -85Z"/>
</svg>