<svg xmlns="http://www.w3.org/2000/svg" viewBox="0 -512 512 512">
	<path fill="#000000" d="M256 -405Q198 -405 149 -376.5Q100 -348 71.5 -299Q43 -250 43 -192Q43 -134 71.5 -85Q100 -36 149 -7.5Q198 21 256 21Q298 21 337.5 5Q377 -11 407 -41Q437 -71 453 -110.5Q469 -150 469 -192Q469 -250 440.5 -299Q412 -348 363 -376.5Q314 -405 256 -405ZM256 -21Q210 -21 170.5 -44Q131 -67 108 -106.5Q85 -146 85 -192Q85 -238 108 -277.5Q131 -317 170.5 -340Q210 -363 256 -363Q302 -363 341.5 -340Q381 -317 404 -277.5Q427 -238 427 -192Q427 -146 404 -106.5Q381 -67 341.5 -44Q302 -21 256 -21ZM345 -282L323 -260L300 -282L277 -260L300 -237L277 -215L300 -192L323 -215L345 -192L368 -215L345 -237L368 -260ZM167 -192L189 -215L212 -192L235 -215L212 -237L235 -260L212 -282L189 -260L167 -282L144 -260L167 -237L144 -215ZM256 -149Q219 -149 189.5 -128.5Q160 -108 147 -75H365Q352 -108 322.5 -128.5Q293 -149 256 -149Z"/>
</svg>