<svg xmlns="http://www.w3.org/2000/svg" viewBox="0 -512 512 512">
	<path fill="#000000" d="M427 -277H404L148 -21H85Q68 -21 55.5 -33.5Q43 -46 43 -64Q43 -82 55.5 -94.5Q68 -107 85 -107H113L149 -143V-235Q149 -243 155.5 -249.5Q162 -256 171 -256H192Q201 -256 207 -249.5Q213 -243 213 -235V-207L369 -363H427Q444 -363 456.5 -350.5Q469 -338 469 -320Q469 -302 456.5 -289.5Q444 -277 427 -277ZM181 -341Q195 -341 204 -332Q213 -323 213 -309.5Q213 -296 204 -286.5Q195 -277 181.5 -277Q168 -277 158.5 -286.5Q149 -296 149 -309.5Q149 -323 158.5 -332Q168 -341 181 -341ZM430 -114L313 4L274 -35L391 -153L352 -192H469V-75Z"/>
</svg>