<svg xmlns="http://www.w3.org/2000/svg" viewBox="0 -512 512 512">
	<path fill="#000000" d="M160 -43Q160 -30 150.5 -20.5Q141 -11 128 -11Q115 -11 105.5 -20.5Q96 -30 96 -42.5Q96 -55 105.5 -65Q115 -75 128 -75Q141 -75 150.5 -65Q160 -55 160 -43ZM384 -75Q371 -75 361.5 -65Q352 -55 352 -42.5Q352 -30 361.5 -20.5Q371 -11 384 -11Q397 -11 406.5 -20.5Q416 -30 416 -42.5Q416 -55 406.5 -65Q397 -75 384 -75ZM384 -128H378Q410 -154 429 -193.5Q448 -233 448 -277.5Q448 -322 429 -361.5Q410 -401 378 -427H134Q102 -401 83 -361.5Q64 -322 64 -277.5Q64 -233 83 -193.5Q102 -154 134 -128H128Q93 -128 68 -103Q43 -78 43 -42.5Q43 -7 68 18Q93 43 128 43H384Q419 43 444 18Q469 -7 469 -42.5Q469 -78 444 -103Q419 -128 384 -128ZM107 -277Q107 -307 118.5 -335Q130 -363 151 -384H361Q382 -363 393.5 -335Q405 -307 405 -277Q405 -236 385 -202Q365 -168 331 -148Q297 -128 256 -128Q215 -128 181 -148Q147 -168 127 -202Q107 -236 107 -277ZM384 0H128Q110 0 97.5 -12.5Q85 -25 85 -42.5Q85 -60 97.5 -72.5Q110 -85 128 -85H384Q402 -85 414.5 -72.5Q427 -60 427 -42.5Q427 -25 414.5 -12.5Q402 0 384 0ZM275 -335Q275 -324 283.5 -315.5Q292 -307 303 -307Q314 -307 322.5 -315.5Q331 -324 331 -335Q331 -346 322 -354.5Q313 -363 301.5 -363Q290 -363 282.5 -354.5Q275 -346 275 -335ZM183 -335Q183 -324 191.5 -315.5Q200 -307 211 -307Q222 -307 230.5 -315.5Q239 -324 239 -335Q239 -346 230.5 -354.5Q222 -363 210.5 -363Q199 -363 191 -355Q183 -347 183 -335ZM164 -235Q180 -235 190.5 -245.5Q201 -256 201 -270.5Q201 -285 190 -296Q179 -307 164 -307Q149 -307 138.5 -297Q128 -287 128 -272Q128 -257 139 -246Q150 -235 164 -235ZM247 -198Q247 -213 236.5 -224Q226 -235 211 -235Q196 -235 185.5 -224Q175 -213 175 -198Q175 -183 185.5 -172.5Q196 -162 211 -162Q226 -162 236.5 -172.5Q247 -183 247 -198ZM256 -235Q272 -235 282 -245.5Q292 -256 292 -270.5Q292 -285 281 -296Q270 -307 256 -307Q242 -307 231 -296Q220 -285 220 -271Q220 -257 231 -246Q242 -235 256 -235ZM339 -198Q339 -213 328 -224Q317 -235 302 -235Q287 -235 277 -224Q267 -213 267 -198Q267 -183 277.5 -172.5Q288 -162 303 -162Q318 -162 328.5 -172.5Q339 -183 339 -198ZM384 -271Q384 -285 373 -296Q362 -307 347 -307Q332 -307 321.5 -296.5Q311 -286 311 -270.5Q311 -255 322 -245Q333 -235 347.5 -235Q362 -235 373 -246Q384 -257 384 -271Z"/>
</svg>