<svg xmlns="http://www.w3.org/2000/svg" viewBox="0 -512 512 512">
	<path fill="#000000" d="M160 -21Q160 -9 150.5 1Q141 11 128 11Q115 11 105.5 1Q96 -9 96 -21.5Q96 -34 105.5 -43.5Q115 -53 128 -53Q141 -53 150.5 -43.5Q160 -34 160 -21ZM384 -53Q371 -53 361.5 -43.5Q352 -34 352 -21.5Q352 -9 361.5 1Q371 11 384 11Q397 11 406.5 1Q416 -9 416 -21.5Q416 -34 406.5 -43.5Q397 -53 384 -53ZM469 -21Q469 14 444 39Q419 64 384 64H128Q93 64 68 39Q43 14 43 -21.5Q43 -57 68 -82Q93 -107 128 -107H134Q102 -133 83 -172.5Q64 -212 64 -256Q64 -308 89.5 -352.5Q115 -397 159.5 -422.5Q204 -448 256 -448Q308 -448 352.5 -422.5Q397 -397 422.5 -352.5Q448 -308 448 -256Q448 -212 429 -172.5Q410 -133 378 -107H384Q419 -107 444 -82Q469 -57 469 -21ZM256 -107Q297 -107 331 -127Q365 -147 385 -181Q405 -215 405 -256Q405 -297 385 -331Q365 -365 331 -385Q297 -405 256 -405Q215 -405 181 -385Q147 -365 127 -331Q107 -297 107 -256Q107 -215 127 -181Q147 -147 181 -127Q215 -107 256 -107ZM427 -21Q427 -39 414.5 -51.5Q402 -64 384 -64H128Q110 -64 97.5 -51.5Q85 -39 85 -21.5Q85 -4 97.5 8.5Q110 21 128 21H384Q402 21 414.5 8.5Q427 -4 427 -21ZM275 -314Q275 -330 286.5 -341Q298 -352 314 -352Q330 -352 341 -341Q352 -330 352 -314Q352 -298 341 -286.5Q330 -275 314 -275Q298 -275 286.5 -286.5Q275 -298 275 -314ZM160 -314Q160 -330 171 -341Q182 -352 198 -352Q214 -352 225.5 -341Q237 -330 237 -314Q237 -298 225.5 -286.5Q214 -275 198 -275Q182 -275 171 -286.5Q160 -298 160 -314ZM198 -230Q198 -221 191.5 -214Q185 -207 175 -207Q165 -207 158 -214Q151 -221 151 -230.5Q151 -240 157.5 -248Q164 -256 174 -256Q184 -256 191 -248Q198 -240 198 -230ZM294 -177Q294 -161 283 -150Q272 -139 256 -139Q240 -139 229 -150Q218 -161 218 -177Q218 -193 229 -204Q240 -215 256 -215Q272 -215 283 -204Q294 -193 294 -177ZM363 -230Q363 -221 356 -214Q349 -207 339.5 -207Q330 -207 323 -214Q316 -221 316 -231Q316 -241 322.5 -248.5Q329 -256 339 -256Q349 -256 356 -248Q363 -240 363 -230Z"/>
</svg>