<svg xmlns="http://www.w3.org/2000/svg" viewBox="0 -512 512 512">
	<path fill="#000000" d="M160 -245Q138 -245 122.5 -229.5Q107 -214 107 -192Q107 -170 122.5 -154.5Q138 -139 160 -139Q182 -139 197.5 -154.5Q213 -170 213 -192Q213 -214 197.5 -229.5Q182 -245 160 -245ZM352 -245Q330 -245 314.5 -229.5Q299 -214 299 -192Q299 -170 314.5 -154.5Q330 -139 352 -139Q374 -139 389.5 -154.5Q405 -170 405 -192Q405 -214 389.5 -229.5Q374 -245 352 -245ZM256 -363Q302 -363 341.5 -340Q381 -317 404 -277.5Q427 -238 427 -192Q427 -146 404 -106.5Q381 -67 341.5 -44Q302 -21 256 -21Q210 -21 170.5 -44Q131 -67 108 -106.5Q85 -146 85 -192Q85 -238 108 -277.5Q131 -317 170.5 -340Q210 -363 256 -363ZM256 -405Q198 -405 149 -376.5Q100 -348 71.5 -299Q43 -250 43 -192Q43 -134 71.5 -85Q100 -36 149 -7.5Q198 21 256 21Q314 21 363 -7.5Q412 -36 440.5 -85Q469 -134 469 -192Q469 -250 440.5 -299Q412 -348 363 -376.5Q314 -405 256 -405ZM256 -341Q234 -341 218.5 -325.5Q203 -310 203 -288Q203 -266 218.5 -250.5Q234 -235 256 -235Q278 -235 293.5 -250.5Q309 -266 309 -288Q309 -310 293.5 -325.5Q278 -341 256 -341ZM288 -288Q288 -284 284 -275L271 -288L284 -301Q288 -292 288 -288ZM269 -316L256 -303L243 -316Q252 -320 256 -320Q260 -320 269 -316ZM228 -275Q224 -284 224 -288Q224 -292 228 -301L241 -288ZM243 -260L256 -273L269 -260Q260 -256 256 -256Q252 -256 243 -260ZM256 -149Q234 -149 218.5 -133.5Q203 -118 203 -96Q203 -74 218.5 -58.5Q234 -43 256 -43Q278 -43 293.5 -58.5Q309 -74 309 -96Q309 -118 293.5 -133.5Q278 -149 256 -149ZM288 -96Q288 -92 284 -83L271 -96L284 -109Q288 -100 288 -96ZM269 -124L256 -111L243 -124Q252 -128 256 -128Q260 -128 269 -124ZM228 -83Q224 -92 224 -96Q224 -100 228 -109L241 -96ZM243 -68L256 -81L269 -68Q260 -64 256 -64Q252 -64 243 -68Z"/>
</svg>