<svg xmlns="http://www.w3.org/2000/svg" viewBox="0 -512 512 512">
	<path fill="#000000" d="M277 -256Q277 -238 289.5 -225.5Q302 -213 320 -213Q338 -213 350.5 -225.5Q363 -238 363 -256Q363 -274 350.5 -286.5Q338 -299 320 -299Q302 -299 289.5 -286.5Q277 -274 277 -256ZM149 -256Q149 -238 161.5 -225.5Q174 -213 192 -213Q210 -213 222.5 -225.5Q235 -238 235 -256Q235 -274 222.5 -286.5Q210 -299 192 -299Q174 -299 161.5 -286.5Q149 -274 149 -256ZM192 -166Q192 -176 184 -184Q176 -192 166.5 -192Q157 -192 149 -184Q141 -176 141 -166.5Q141 -157 149 -149Q157 -141 166.5 -141Q176 -141 184 -148.5Q192 -156 192 -166ZM299 -107Q299 -124 286.5 -136.5Q274 -149 256 -149Q238 -149 225.5 -136.5Q213 -124 213 -106.5Q213 -89 225.5 -76.5Q238 -64 256 -64Q274 -64 286.5 -76.5Q299 -89 299 -107ZM256 -363Q302 -363 341.5 -340Q381 -317 404 -277.5Q427 -238 427 -192Q427 -146 404 -106.5Q381 -67 341.5 -44Q302 -21 256 -21Q210 -21 170.5 -44Q131 -67 108 -106.5Q85 -146 85 -192Q85 -238 108 -277.5Q131 -317 170.5 -340Q210 -363 256 -363ZM256 -405Q198 -405 149 -376.5Q100 -348 71.5 -299Q43 -250 43 -192Q43 -134 71.5 -85Q100 -36 149 -7.5Q198 21 256 21Q314 21 363 -7.5Q412 -36 440.5 -85Q469 -134 469 -192Q469 -250 440.5 -299Q412 -348 363 -376.5Q314 -405 256 -405ZM373 -166Q373 -177 365.5 -184.5Q358 -192 347.5 -192Q337 -192 329.5 -184Q322 -176 322 -166.5Q322 -157 330 -149Q338 -141 347.5 -140Q357 -139 365 -147Q373 -155 373 -166Z"/>
</svg>