<svg xmlns="http://www.w3.org/2000/svg" viewBox="0 -512 512 512">
	<path fill="#000000" d="M128 -256Q128 -265 134.5 -271Q141 -277 149.5 -277Q158 -277 164.5 -271Q171 -265 171 -256Q171 -247 164.5 -241Q158 -235 149.5 -235Q141 -235 134.5 -241Q128 -247 128 -256ZM363 -235Q371 -235 377.5 -241Q384 -247 384 -256Q384 -265 377.5 -271Q371 -277 362.5 -277Q354 -277 347.5 -271Q341 -265 341 -256Q341 -247 347.5 -241Q354 -235 363 -235ZM469 -236V-213Q469 -161 443.5 -117Q418 -73 373.5 -47Q329 -21 277 -21H235Q182 -21 138 -47Q94 -73 68.5 -117Q43 -161 43 -213V-236Q43 -271 60 -300Q77 -329 106 -346Q135 -363 169 -363H343Q377 -363 406 -346Q435 -329 452 -300Q469 -271 469 -236ZM309 -256Q309 -234 325 -218.5Q341 -203 363 -203Q385 -203 400.5 -218.5Q416 -234 416 -256Q416 -278 400.5 -293.5Q385 -309 363 -309Q341 -309 325 -293.5Q309 -278 309 -256ZM96 -256Q96 -234 111.5 -218.5Q127 -203 149 -203Q171 -203 187 -218.5Q203 -234 203 -256Q203 -278 187 -293.5Q171 -309 149 -309Q127 -309 111.5 -293.5Q96 -278 96 -256ZM192 -85Q192 -94 185.5 -100.5Q179 -107 170.5 -107Q162 -107 155.5 -100.5Q149 -94 149 -85.5Q149 -77 155.5 -70.5Q162 -64 170.5 -64Q179 -64 185.5 -70.5Q192 -77 192 -85ZM288 -85Q288 -99 278.5 -108Q269 -117 256 -117Q243 -117 233.5 -108Q224 -99 224 -85.5Q224 -72 233.5 -62.5Q243 -53 256 -53Q269 -53 278.5 -62.5Q288 -72 288 -85ZM363 -85Q363 -94 356.5 -100.5Q350 -107 341.5 -107Q333 -107 326.5 -100.5Q320 -94 320 -85.5Q320 -77 326.5 -70.5Q333 -64 341.5 -64Q350 -64 356.5 -70.5Q363 -77 363 -85ZM426 -199Q401 -171 363 -171Q327 -171 302 -196Q277 -221 277 -256Q277 -275 285 -291.5Q293 -308 307 -320H205Q219 -308 227 -291.5Q235 -275 235 -256Q235 -221 210 -196Q185 -171 149 -171Q131 -171 114.5 -178.5Q98 -186 86 -199Q91 -146 129 -108Q186 -149 256 -149Q326 -149 383 -108Q421 -146 426 -199Z"/>
</svg>