<svg xmlns="http://www.w3.org/2000/svg" viewBox="0 -512 512 512">
	<path fill="#000000" d="M395 -53Q403 -53 409.5 -47Q416 -41 416 -32Q416 -23 409.5 -17Q403 -11 395 -11H139Q130 -11 123.5 -17Q117 -23 117 -32Q117 -41 123.5 -47Q130 -53 139 -53ZM395 -85H139Q117 -85 101 -69.5Q85 -54 85 -32Q85 -10 101 5.5Q117 21 139 21H395Q417 21 432.5 5.5Q448 -10 448 -32Q448 -54 432.5 -69.5Q417 -85 395 -85ZM448 -213H384V-299H277L213 -213V-107H469ZM246 -213L288 -267H341V-213ZM208 -375L102 -405L43 -196Q37 -175 47.5 -156.5Q58 -138 79 -132L104 -125L174 -186L91 -209L131 -353L191 -336Q202 -330 216 -319Q234 -305 245 -291L267 -320H276Q260 -341 234 -359Q221 -368 209 -375Z"/>
</svg>