<svg xmlns="http://www.w3.org/2000/svg" viewBox="0 -512 512 512">
	<path fill="#000000" d="M285 -274Q270 -274 259.5 -284.5Q249 -295 249 -310Q249 -325 259.5 -335.5Q270 -346 285 -346Q300 -346 310.5 -335.5Q321 -325 321 -310Q321 -295 310.5 -284.5Q300 -274 285 -274ZM220 -23L93 -48L100 -84L189 -66L218 -212L185 -200V-139H149V-223L243 -263L257 -265Q276 -265 288 -247L306 -218Q317 -198 338 -186.5Q359 -175 384 -175V-139Q355 -139 329 -151Q303 -163 285 -183L274 -129L312 -93V43H276V-66L238 -102ZM448 43H405V-384H128V-104L85 -113V-427H448ZM128 43H85V-26L128 -17Z"/>
</svg>