<svg xmlns="http://www.w3.org/2000/svg" viewBox="0 -512 512 512">
	<path fill="#000000" d="M107 -384Q89 -384 76.5 -371.5Q64 -359 64 -341V-43Q64 -25 76.5 -12.5Q89 0 107 0H405Q423 0 435.5 -12.5Q448 -25 448 -43V-341Q448 -359 435.5 -371.5Q423 -384 405 -384ZM294 -320H328L352 -265L375 -320H410L389 -267Q365 -209 351 -185Q345 -176 334 -170.5Q323 -165 309 -165V-197Q322 -197 331 -211Q333 -213 336 -220V-221ZM137 -243L196 -184L256 -243L286 -213L227 -154L286 -94L256 -64L196 -124L137 -64L107 -94L166 -154L107 -213Z"/>
</svg>