<svg xmlns="http://www.w3.org/2000/svg" viewBox="0 -512 512 512">
	<path fill="#000000" d="M256 -256Q229 -256 210.5 -237.5Q192 -219 192 -192Q192 -165 210.5 -146.5Q229 -128 256 -128Q283 -128 301.5 -146.5Q320 -165 320 -192Q320 -219 301.5 -237.5Q283 -256 256 -256ZM256 -85Q227 -85 202.5 -99.5Q178 -114 163.5 -138.5Q149 -163 149 -192Q149 -221 163.5 -245.5Q178 -270 202.5 -284.5Q227 -299 256 -299Q285 -299 309.5 -284.5Q334 -270 348.5 -245.5Q363 -221 363 -192Q363 -163 348.5 -138.5Q334 -114 309.5 -99.5Q285 -85 256 -85ZM256 -352Q178 -352 114 -308Q50 -264 21 -192Q46 -128 99 -86.5Q152 -45 218.5 -35Q285 -25 348 -50Q397 -69 434 -106Q471 -143 491 -192Q462 -264 398 -308Q334 -352 256 -352ZM149 21H192V64H149ZM235 21H277V64H235ZM320 21H363V64H320Z"/>
</svg>