<svg xmlns="http://www.w3.org/2000/svg" viewBox="0 -512 512 512">
	<path fill="#000000" d="M256 -256Q283 -256 301.5 -237.5Q320 -219 320 -192Q320 -165 301.5 -146.5Q283 -128 256 -128Q229 -128 210.5 -146.5Q192 -165 192 -192Q192 -219 210.5 -237.5Q229 -256 256 -256ZM256 -352Q335 -352 399 -307.5Q463 -263 491 -192Q463 -121 399 -76.5Q335 -32 256 -32Q177 -32 113 -76.5Q49 -121 21 -192Q49 -263 113 -307.5Q177 -352 256 -352ZM68 -192Q94 -138 145 -106.5Q196 -75 256 -75Q316 -75 367 -106.5Q418 -138 444 -192Q418 -246 367 -277.5Q316 -309 256 -309Q196 -309 145 -277.5Q94 -246 68 -192Z"/>
</svg>