<svg xmlns="http://www.w3.org/2000/svg" viewBox="0 -512 512 512">
	<path fill="#000000" d="M256 -256Q229 -256 210.5 -237.5Q192 -219 192 -192Q192 -165 210.5 -146.5Q229 -128 256 -128Q283 -128 301.5 -146.5Q320 -165 320 -192Q320 -219 301.5 -237.5Q283 -256 256 -256ZM384 -53L422 -92Q404 -107 384 -107Q362 -107 346.5 -91.5Q331 -76 331 -53.5Q331 -31 346.5 -15.5Q362 0 384 0Q409 0 427 -21H463Q453 3 432 17.5Q411 32 384 32Q349 32 324 7Q299 -18 299 -53.5Q299 -89 324 -114Q349 -139 385 -139Q421 -139 444 -113L469 -139V-53ZM258 -32Q258 -32 257 -32H258Q178 -32 113.5 -76.5Q49 -121 21 -192Q49 -263 113 -307.5Q177 -352 256 -352Q335 -352 399 -307.5Q463 -263 491 -192L478 -164Q440 -192 395 -192Q384 -192 363 -188V-192Q363 -221 348.5 -245.5Q334 -270 309.5 -284.5Q285 -299 256 -299Q227 -299 202.5 -284.5Q178 -270 163.5 -245.5Q149 -221 149 -192Q149 -163 163.5 -138.5Q178 -114 202.5 -99.5Q227 -85 256 -85H260Q256 -64 256 -53Q256 -38 258 -32Z"/>
</svg>