<svg xmlns="http://www.w3.org/2000/svg" viewBox="0 -512 512 512">
	<path fill="#000000" d="M256 -256Q283 -256 301.5 -237.5Q320 -219 320 -192Q320 -165 301.5 -146.5Q283 -128 256 -128Q229 -128 210.5 -146.5Q192 -165 192 -192Q192 -219 210.5 -237.5Q229 -256 256 -256ZM256 -352Q334 -352 398 -308Q462 -264 491 -192Q466 -128 413 -86.5Q360 -45 293.5 -35Q227 -25 164 -50Q115 -69 78 -106Q41 -143 21 -192Q50 -264 114 -308Q178 -352 256 -352ZM68 -192Q93 -141 139.5 -110Q186 -79 241.5 -75Q297 -71 348 -96Q380 -111 404.5 -136Q429 -161 444 -192Q419 -243 372.5 -274Q326 -305 270.5 -309Q215 -313 164 -288Q132 -273 107.5 -248Q83 -223 68 -192ZM192 21H149V64H192ZM277 21H235V64H277ZM363 21H320V64H363Z"/>
</svg>