<svg xmlns="http://www.w3.org/2000/svg" viewBox="0 -512 512 512">
	<path fill="#000000" d="M43 -336L70 -363L427 -6L400 21L334 -44Q296 -32 256 -32Q177 -32 113 -76.5Q49 -121 21 -192Q43 -249 89 -289ZM256 -256Q283 -256 301.5 -237.5Q320 -219 320 -192Q320 -181 316 -171L235 -252Q245 -256 256 -256ZM256 -352Q335 -352 399 -307.5Q463 -263 491 -192Q464 -124 405 -81L375 -112Q420 -143 444 -192Q418 -246 367 -277.5Q316 -309 256 -309Q222 -309 189 -299L156 -331Q204 -352 256 -352ZM68 -192Q94 -138 145 -106.5Q196 -75 256 -75Q279 -75 299 -79L250 -128Q227 -130 210.5 -146.5Q194 -163 192 -186L119 -259Q87 -231 68 -192Z"/>
</svg>