<svg xmlns="http://www.w3.org/2000/svg" viewBox="0 -512 512 512">
	<path fill="#000000" d="M256 21Q214 21 174.5 5Q135 -11 105 -41Q75 -71 59 -110.5Q43 -150 43 -192Q43 -234 59 -273.5Q75 -313 105 -343Q135 -373 174.5 -389Q214 -405 256 -405Q298 -405 337.5 -389Q377 -373 407 -343Q437 -313 453 -273.5Q469 -234 469 -192Q469 -150 453 -110.5Q437 -71 407 -41Q377 -11 337.5 5Q298 21 256 21ZM256 -21Q302 -21 341.5 -44Q381 -67 404 -106.5Q427 -146 427 -192Q427 -238 404 -277.5Q381 -317 341.5 -340Q302 -363 256 -363Q210 -363 170.5 -340Q131 -317 108 -277.5Q85 -238 85 -192Q85 -146 108 -106.5Q131 -67 170.5 -44Q210 -21 256 -21ZM256 -213Q265 -213 271 -207Q277 -201 277 -192Q277 -183 271 -177Q265 -171 256 -171Q247 -171 241 -177Q235 -183 235 -192Q235 -201 241 -207Q247 -213 256 -213ZM256 -277Q298 -277 333 -254Q368 -231 384 -192Q370 -157 340.5 -135Q311 -113 274 -108Q237 -103 203 -117Q177 -128 158 -147.5Q139 -167 128 -192Q144 -231 179 -254Q214 -277 256 -277ZM256 -245Q234 -245 218.5 -229.5Q203 -214 203 -192Q203 -170 218.5 -154.5Q234 -139 256 -139Q278 -139 293.5 -154.5Q309 -170 309 -192Q309 -214 293.5 -229.5Q278 -245 256 -245Z"/>
</svg>