<svg xmlns="http://www.w3.org/2000/svg" viewBox="0 -512 512 512">
	<path fill="#000000" d="M256 -352Q177 -352 113 -307.5Q49 -263 21 -192Q49 -121 113 -76.5Q177 -32 256 -32H279Q277 -38 277 -53Q277 -65 281 -85L282 -90Q265 -85 256 -85Q227 -85 202.5 -99.5Q178 -114 163.5 -138.5Q149 -163 149 -192Q149 -221 163.5 -245.5Q178 -270 202.5 -284.5Q227 -299 256 -299Q285 -299 309.5 -284.5Q334 -270 348.5 -245.5Q363 -221 363 -192Q363 -179 361 -173Q390 -181 405 -181Q445 -181 476 -160Q482 -171 491 -192Q463 -263 399 -307.5Q335 -352 256 -352ZM256 -256Q229 -256 210.5 -237.5Q192 -219 192 -192Q192 -165 210.5 -146.5Q229 -128 256 -128Q283 -128 301.5 -146.5Q320 -165 320 -192Q320 -219 301.5 -237.5Q283 -256 256 -256ZM405 0V-43H320V-85H405V-128L469 -64Z"/>
</svg>