<svg xmlns="http://www.w3.org/2000/svg" viewBox="0 -512 512 512">
	<path fill="#000000" d="M256 -245Q234 -245 218.5 -229.5Q203 -214 203 -192Q203 -170 218.5 -154.5Q234 -139 256 -139Q278 -139 293.5 -154.5Q309 -170 309 -192Q309 -214 293.5 -229.5Q278 -245 256 -245ZM256 -171Q247 -171 241 -177Q235 -183 235 -192Q235 -201 241 -207Q247 -213 256 -213Q265 -213 271 -207Q277 -201 277 -192Q277 -183 271 -177Q265 -171 256 -171ZM256 -245Q234 -245 218.5 -229.5Q203 -214 203 -192Q203 -170 218.5 -154.5Q234 -139 256 -139Q278 -139 293.5 -154.5Q309 -170 309 -192Q309 -214 293.5 -229.5Q278 -245 256 -245ZM256 -171Q247 -171 241 -177Q235 -183 235 -192Q235 -201 241 -207Q247 -213 256 -213Q265 -213 271 -207Q277 -201 277 -192Q277 -183 271 -177Q265 -171 256 -171ZM256 -405Q214 -405 174.5 -389Q135 -373 105 -343Q75 -313 59 -273.5Q43 -234 43 -192Q43 -150 59 -110.5Q75 -71 105 -41Q135 -11 174.5 5Q214 21 256 21Q298 21 337.5 5Q377 -11 407 -41Q437 -71 453 -110.5Q469 -150 469 -192Q469 -234 453 -273.5Q437 -313 407 -343Q377 -373 337.5 -389Q298 -405 256 -405ZM256 -107Q214 -107 179 -130Q144 -153 128 -192Q142 -227 171.5 -249Q201 -271 238 -276Q275 -281 309 -267Q335 -256 354 -236.5Q373 -217 384 -192Q368 -153 333 -130Q298 -107 256 -107ZM256 -245Q234 -245 218.5 -229.5Q203 -214 203 -192Q203 -170 218.5 -154.5Q234 -139 256 -139Q278 -139 293.5 -154.5Q309 -170 309 -192Q309 -214 293.5 -229.5Q278 -245 256 -245ZM256 -171Q247 -171 241 -177Q235 -183 235 -192Q235 -201 241 -207Q247 -213 256 -213Q265 -213 271 -207Q277 -201 277 -192Q277 -183 271 -177Q265 -171 256 -171Z"/>
</svg>