<svg xmlns="http://www.w3.org/2000/svg" viewBox="0 -512 512 512">
	<path fill="#000000" d="M444 -85V-117Q444 -139 425.5 -155Q407 -171 384 -171Q361 -171 342.5 -155Q324 -139 324 -117V-85Q315 -85 307 -77Q299 -69 299 -60V15Q299 26 306.5 34.5Q314 43 324 43H442Q453 43 461 35Q469 27 469 17V-58Q469 -69 461.5 -77Q454 -85 444 -85ZM416 -85H352V-117Q352 -130 361.5 -137.5Q371 -145 384 -145Q397 -145 406.5 -137.5Q416 -130 416 -117ZM320 -192Q290 -169 284 -134Q271 -128 256 -128Q229 -128 210.5 -146.5Q192 -165 192 -192Q192 -219 210.5 -237.5Q229 -256 256 -256Q283 -256 301.5 -237.5Q320 -219 320 -192ZM256 -32Q177 -32 113 -76.5Q49 -121 21 -192Q49 -263 113 -307.5Q177 -352 256 -352Q335 -352 399 -307.5Q463 -263 491 -192Q489 -187 483.5 -176Q478 -165 476 -160Q462 -185 442 -196Q414 -249 364.5 -279Q315 -309 255 -309Q195 -309 144.5 -277.5Q94 -246 68 -192Q95 -138 146 -106.5Q197 -75 256 -75H258Q256 -70 256 -60Z"/>
</svg>