<svg xmlns="http://www.w3.org/2000/svg" viewBox="0 -512 512 512">
	<path fill="#000000" d="M256 -32Q177 -32 113 -76.5Q49 -121 21 -192Q49 -263 113 -307.5Q177 -352 256 -352Q335 -352 399 -307.5Q463 -263 491 -192Q489 -186 483 -175L480 -169Q472 -188 456.5 -203Q441 -218 420 -226Q391 -265 348 -287Q305 -309 256 -309Q195 -309 144.5 -277.5Q94 -246 68 -192Q95 -138 146 -106.5Q197 -75 256 -75H258Q256 -70 256 -60ZM256 -256Q229 -256 210.5 -237.5Q192 -219 192 -192Q192 -165 210.5 -146.5Q229 -128 256 -128Q269 -128 282 -134V-139Q282 -159 291.5 -177.5Q301 -196 318 -211Q311 -231 294.5 -243.5Q278 -256 256 -256ZM444 -85H352V-139Q352 -151 361.5 -158.5Q371 -166 384 -166Q397 -166 406.5 -158.5Q416 -151 416 -139V-128H444V-139Q444 -161 425.5 -176.5Q407 -192 384 -192Q361 -192 342.5 -176.5Q324 -161 324 -139V-85Q315 -85 307 -77Q299 -69 299 -60V15Q299 26 306.5 34.5Q314 43 324 43H442Q453 43 461 35Q469 27 469 17V-58Q469 -69 461.5 -77Q454 -85 444 -85Z"/>
</svg>