<svg xmlns="http://www.w3.org/2000/svg" viewBox="0 -512 512 512">
	<path fill="#000000" d="M256 -352Q178 -352 114 -308Q50 -264 21 -192Q50 -120 114 -76Q178 -32 256 -32H279Q277 -43 277 -54Q277 -65 279 -77H256Q196 -76 145 -107Q94 -138 68 -192Q94 -246 145 -278Q196 -310 256 -310Q316 -310 367 -278Q418 -246 444 -192L435 -177Q457 -173 476 -160Q485 -175 491 -192Q462 -264 398 -308Q334 -352 256 -352ZM256 -256Q229 -256 210.5 -237.5Q192 -219 192 -192Q192 -165 210.5 -146.5Q229 -128 256 -128Q283 -128 301.5 -146.5Q320 -165 320.5 -192Q321 -219 302 -238Q283 -257 256 -256ZM320 -75V-32H491V-75Z"/>
</svg>