<svg xmlns="http://www.w3.org/2000/svg" viewBox="0 -512 512 512">
	<path fill="#000000" d="M318 -211Q301 -198 291.5 -179Q282 -160 282 -139V-134Q269 -128 256 -128Q229 -128 210.5 -146.5Q192 -165 192 -192Q192 -219 210.5 -237.5Q229 -256 256 -256Q278 -256 294.5 -243.5Q311 -231 318 -211ZM256 -60Q256 -73 262 -85H256Q227 -85 202.5 -99.5Q178 -114 163.5 -138.5Q149 -163 149 -192Q149 -221 163.5 -245.5Q178 -270 202.5 -284.5Q227 -299 256 -299Q289 -299 316 -280Q343 -261 356 -230Q373 -235 384 -235Q417 -235 443.5 -216.5Q470 -198 480 -169Q482 -172 486 -181L491 -192Q463 -263 399 -307.5Q335 -352 256 -352Q177 -352 113 -307.5Q49 -263 21 -192Q49 -121 113 -76.5Q177 -32 256 -32ZM444 -85H352V-139Q352 -151 361.5 -158.5Q371 -166 384 -166Q397 -166 406.5 -158.5Q416 -151 416 -139V-128H444V-139Q444 -161 425.5 -176.5Q407 -192 384 -192Q361 -192 342.5 -176.5Q324 -161 324 -139V-85Q315 -85 307 -77Q299 -69 299 -60V15Q299 26 306.5 34.5Q314 43 324 43H442Q453 43 461 35Q469 27 469 17V-58Q469 -69 461.5 -77Q454 -85 444 -85Z"/>
</svg>