<svg xmlns="http://www.w3.org/2000/svg" viewBox="0 -512 512 512">
	<path fill="#000000" d="M256 -256Q283 -256 301.5 -237.5Q320 -219 320 -192Q320 -165 301.5 -146.5Q283 -128 256 -128Q229 -128 210.5 -146.5Q192 -165 192 -192Q192 -219 210.5 -237.5Q229 -256 256 -256ZM384 -53L422 -92Q404 -107 384 -107Q362 -107 346.5 -91.5Q331 -76 331 -53.5Q331 -31 346.5 -15.5Q362 0 384 0Q409 0 427 -21H463Q453 3 432 17.5Q411 32 384 32Q349 32 324 7Q299 -18 299 -53.5Q299 -89 324 -114Q349 -139 385 -139Q421 -139 444 -113L469 -139V-53ZM256 -53Q256 -68 258 -75H256Q195 -75 144.5 -106.5Q94 -138 68 -192Q94 -246 144.5 -277.5Q195 -309 256 -309Q317 -309 367.5 -277.5Q418 -246 444 -192Q442 -191 441 -188L439 -183Q459 -177 478 -164L491 -192Q463 -263 399 -307.5Q335 -352 256 -352Q177 -352 113 -307.5Q49 -263 21 -192Q49 -121 113 -76.5Q177 -32 256 -32H258Q256 -38 256 -53Z"/>
</svg>