<svg xmlns="http://www.w3.org/2000/svg" viewBox="0 -512 512 512">
	<path fill="#000000" d="M256 -352Q177 -352 113 -307.5Q49 -263 21 -192Q49 -121 113 -76.5Q177 -32 256 -32H279Q277 -38 277 -53Q277 -68 279 -77Q275 -77 267.5 -76Q260 -75 256 -75Q195 -75 144.5 -106.5Q94 -138 68 -192Q94 -246 144.5 -277.5Q195 -309 256 -309Q317 -309 367.5 -277.5Q418 -246 444 -192L441 -187Q437 -181 435 -177Q461 -170 476 -160Q482 -171 491 -192Q463 -263 399 -307.5Q335 -352 256 -352ZM256 -256Q229 -256 210.5 -237.5Q192 -219 192 -192Q192 -165 210.5 -146.5Q229 -128 256 -128Q283 -128 301.5 -146.5Q320 -165 320 -192Q320 -219 301.5 -237.5Q283 -256 256 -256ZM405 0V-43H320V-85H405V-128L469 -64Z"/>
</svg>