<svg xmlns="http://www.w3.org/2000/svg" viewBox="0 -512 512 512">
	<path fill="#000000" d="M393 -375L341 -352L393 -329L416 -277L439 -329L491 -352L439 -375L416 -427ZM256 -405Q198 -405 149 -376.5Q100 -348 71.5 -299Q43 -250 43 -192Q43 -134 71.5 -85Q100 -36 149 -7.5Q198 21 256 21Q314 21 363 -7.5Q412 -36 440.5 -85Q469 -134 469 -192Q469 -238 450 -280L424 -222Q427 -205 427 -192Q427 -146 404 -106.5Q381 -67 341.5 -44Q302 -21 256 -21Q210 -21 170.5 -44Q131 -67 108 -106.5Q85 -146 85 -192V-195Q127 -210 159 -241Q191 -272 208 -313Q238 -276 281.5 -255.5Q325 -235 373 -235Q388 -235 402 -237L370 -306L269 -352L344 -386Q302 -405 256 -405ZM192 -197Q181 -197 173 -189.5Q165 -182 165 -171Q165 -160 173 -152Q181 -144 192 -144Q203 -144 211 -152Q219 -160 219 -171Q219 -182 211 -189.5Q203 -197 192 -197ZM320 -197Q309 -197 301 -189.5Q293 -182 293 -171Q293 -160 301 -152Q309 -144 320 -144Q331 -144 339 -152Q347 -160 347 -171Q347 -182 339 -189.5Q331 -197 320 -197Z"/>
</svg>