<svg xmlns="http://www.w3.org/2000/svg" viewBox="0 -512 512 512">
	<path fill="#000000" d="M368 -171Q368 -160 360 -152Q352 -144 341 -144Q330 -144 322.5 -152Q315 -160 315 -171Q315 -182 322.5 -189.5Q330 -197 341 -197Q352 -197 360 -189.5Q368 -182 368 -171ZM469 -192Q469 -134 440.5 -85Q412 -36 363 -7.5Q314 21 256 21H43V-192Q43 -250 71.5 -299Q100 -348 149 -376.5Q198 -405 256 -405Q314 -405 363 -376.5Q412 -348 440.5 -299Q469 -250 469 -192ZM149 -64Q198 -21 256 -21Q302 -21 341.5 -44Q381 -67 404 -106.5Q427 -146 427 -192Q427 -216 420 -240Q396 -235 372 -235Q309 -235 256 -269L250 -251Q243 -230 234 -214Q221 -190 207 -179Q190 -165 171 -171Q161 -174 155 -167.5Q149 -161 149 -149Z"/>
</svg>