<svg xmlns="http://www.w3.org/2000/svg" viewBox="0 -512 512 512">
	<path fill="#000000" d="M420 -104Q405 -87 389 -87Q373 -87 364 -97Q358 -104 351 -121L317 -205L282 -119Q276 -104 271 -98Q262 -87 246.5 -87Q231 -87 221 -97Q216 -103 210 -118L152 -262H200L246 -146L281 -233Q287 -247 292 -253Q302 -264 317 -264Q332 -264 341 -253Q347 -247 353 -233L391 -139Q405 -160 411 -185.5Q417 -211 413.5 -237Q410 -263 397.5 -286Q385 -309 365.5 -326Q346 -343 321.5 -352Q297 -361 271 -361Q217 -362 171.5 -329Q126 -296 109 -244Q92 -192 109 -139.5Q126 -87 171 -54.5Q216 -22 271 -23Q295 -23 317 -29V16Q294 21 271 21Q202 21 145.5 -19.5Q89 -60 67.5 -126Q46 -192 67.5 -258Q89 -324 145 -364.5Q201 -405 271 -405Q322 -405 365 -380Q408 -355 433.5 -312Q459 -269 459 -218Q459 -155 420 -104Z"/>
</svg>