<svg xmlns="http://www.w3.org/2000/svg" viewBox="0 -512 512 512">
	<path fill="#000000" d="M293 -171Q293 -182 301 -189.5Q309 -197 320 -197Q331 -197 339 -189.5Q347 -182 347 -171Q347 -160 339 -152Q331 -144 320 -144Q309 -144 301 -152Q293 -160 293 -171ZM469 -192V21H43V-192Q43 -250 71.5 -299Q100 -348 149 -376.5Q198 -405 256 -405Q314 -405 363 -376.5Q412 -348 440.5 -299Q469 -250 469 -192ZM85 -192Q85 -146 108 -106.5Q131 -67 170.5 -44Q210 -21 256 -21Q302 -21 341.5 -44Q381 -67 404 -106.5Q427 -146 427 -192Q427 -216 420 -240Q396 -235 372 -235Q319 -235 273 -259Q227 -283 198 -325Q182 -287 153 -257Q124 -227 86 -210Q85 -204 85 -192ZM192 -144Q203 -144 211 -152Q219 -160 219 -171Q219 -182 211 -189.5Q203 -197 192 -197Q181 -197 173 -189.5Q165 -182 165 -171Q165 -160 173 -152Q181 -144 192 -144Z"/>
</svg>