<svg xmlns="http://www.w3.org/2000/svg" viewBox="0 -512 512 512">
	<path fill="#000000" d="M320 -192L265 -207Q254 -210 247 -207L192 -192V-213L241 -228Q254 -232 271 -228L320 -213ZM432 -320Q409 -320 392 -304Q375 -288 373 -265L268 -295Q262 -297 256 -297Q250 -297 244 -295L139 -265Q137 -288 120 -304Q103 -320 79.5 -320Q56 -320 38.5 -303Q21 -286 21 -261V-187Q21 -162 38.5 -145Q56 -128 80 -128H121Q140 -90 176 -66.5Q212 -43 256 -43Q300 -43 336 -66.5Q372 -90 391 -128H432Q456 -128 473.5 -145Q491 -162 491 -187V-261Q491 -286 473.5 -303Q456 -320 432 -320ZM107 -160H80Q69 -160 61 -168Q53 -176 53 -187V-261Q53 -272 61 -280Q69 -288 80 -288Q91 -288 99 -280Q107 -272 107 -261ZM363 -192Q363 -163 348.5 -138.5Q334 -114 309.5 -99.5Q285 -85 256 -85Q227 -85 202.5 -99.5Q178 -114 163.5 -138.5Q149 -163 149 -192V-224L256 -254L363 -224ZM459 -187Q459 -176 451 -168Q443 -160 432 -160H405V-261Q405 -272 413 -280Q421 -288 432 -288Q443 -288 451 -280Q459 -272 459 -261Z"/>
</svg>