<svg xmlns="http://www.w3.org/2000/svg" viewBox="0 -512 512 512">
	<path fill="#000000" d="M219 -171Q219 -160 211 -152Q203 -144 192 -144Q181 -144 173 -152Q165 -160 165 -171Q165 -182 173 -189.5Q181 -197 192 -197Q203 -197 211 -189.5Q219 -182 219 -171ZM320 -197Q309 -197 301 -189.5Q293 -182 293 -171Q293 -160 301 -152Q309 -144 320 -144Q331 -144 339 -152Q347 -160 347 -171Q347 -182 339 -189.5Q331 -197 320 -197ZM469 -192Q469 -150 453 -110.5Q437 -71 407 -41Q377 -11 337.5 5Q298 21 256 21Q214 21 174.5 5Q135 -11 105 -41Q75 -71 59 -110.5Q43 -150 43 -192Q43 -234 59 -273.5Q75 -313 105 -343Q135 -373 174.5 -389Q214 -405 256 -405Q298 -405 337.5 -389Q377 -373 407 -343Q437 -313 453 -273.5Q469 -234 469 -192ZM227 -360Q250 -322 289 -299.5Q328 -277 373 -277Q386 -277 402 -280Q379 -318 340.5 -340.5Q302 -363 256 -363Q243 -363 227 -360ZM94 -246Q122 -262 142 -286.5Q162 -311 172 -341Q145 -325 124.5 -300.5Q104 -276 94 -246ZM427 -192Q427 -216 420 -240Q396 -235 373 -235Q324 -235 281 -256Q238 -277 208 -313Q191 -272 159 -241.5Q127 -211 85 -195V-192Q85 -146 108 -106.5Q131 -67 170.5 -44Q210 -21 256 -21Q302 -21 341.5 -44Q381 -67 404 -106.5Q427 -146 427 -192Z"/>
</svg>