<svg xmlns="http://www.w3.org/2000/svg" viewBox="0 -512 512 512">
	<path fill="#000000" d="M256 -405Q198 -405 149 -376.5Q100 -348 71.5 -299Q43 -250 43 -192V21H469V-192Q469 -250 440.5 -299Q412 -348 363 -376.5Q314 -405 256 -405ZM256 -363Q302 -363 340.5 -340.5Q379 -318 402 -280Q386 -277 373 -277Q328 -277 289 -299.5Q250 -322 227 -360Q243 -363 256 -363ZM172 -341Q162 -311 142 -286.5Q122 -262 94 -246Q104 -276 124.5 -300.5Q145 -325 172 -341ZM85 -195Q127 -211 159 -241.5Q191 -272 208 -313Q238 -277 281 -256Q324 -235 373 -235Q396 -235 420 -240Q427 -216 427 -192Q427 -146 404 -106.5Q381 -67 341.5 -44Q302 -21 256 -21Q210 -21 170.5 -44Q131 -67 108 -106.5Q85 -146 85 -192ZM85 -21V-64Q104 -40 128 -21ZM427 -21H384Q408 -40 427 -64ZM293 -171Q293 -182 301 -189.5Q309 -197 320 -197Q331 -197 339 -189.5Q347 -182 347 -171Q347 -160 339 -152Q331 -144 320 -144Q309 -144 301 -152Q293 -160 293 -171ZM165 -171Q165 -182 173 -189.5Q181 -197 192 -197Q203 -197 211 -189.5Q219 -182 219 -171Q219 -160 211 -152Q203 -144 192 -144Q181 -144 173 -152Q165 -160 165 -171Z"/>
</svg>