<svg xmlns="http://www.w3.org/2000/svg" viewBox="0 -512 512 512">
	<path fill="#000000" d="M192 -197Q181 -197 173 -189.5Q165 -182 165 -171Q165 -160 173 -152Q181 -144 192 -144Q203 -144 211 -152Q219 -160 219 -171Q219 -182 211 -189.5Q203 -197 192 -197ZM320 -197Q309 -197 301 -189.5Q293 -182 293 -171Q293 -160 301 -152Q309 -144 320 -144Q331 -144 339 -152Q347 -160 347 -171Q347 -182 339 -189.5Q331 -197 320 -197ZM256 -405Q214 -405 174.5 -389Q135 -373 105 -343Q75 -313 59 -273.5Q43 -234 43 -192Q43 -150 59 -110.5Q75 -71 105 -41Q135 -11 174.5 5Q214 21 256 21Q298 21 337.5 5Q377 -11 407 -41Q437 -71 453 -110.5Q469 -150 469 -192Q469 -234 453 -273.5Q437 -313 407 -343Q377 -373 337.5 -389Q298 -405 256 -405ZM256 -21Q210 -21 170.5 -44Q131 -67 108 -106.5Q85 -146 85 -192Q84 -201 85 -210Q123 -227 152.5 -257Q182 -287 198 -325Q227 -282 273.5 -258.5Q320 -235 372 -235Q395 -235 420 -240Q433 -196 422 -151.5Q411 -107 380 -74Q349 -41 304 -28Q280 -21 256 -21ZM0 -405Q0 -423 12.5 -435.5Q25 -448 43 -448H128V-405H43V-320H0ZM512 21Q512 39 499.5 51.5Q487 64 469 64H384V21H469V-64H512ZM43 64Q25 64 12.5 51.5Q0 39 0 21V-64H43V21H128V64ZM469 -448Q487 -448 499.5 -435.5Q512 -423 512 -405V-320H469V-405H384V-448Z"/>
</svg>