<svg xmlns="http://www.w3.org/2000/svg" viewBox="0 -512 512 512">
	<path fill="#000000" d="M256 -405Q197 -405 148 -378Q99 -351 71 -304Q43 -257 43 -198Q43 -153 60.5 -113.5Q78 -74 110 -45Q115 -41 115 -33L116 5Q117 14 124.5 19Q132 24 141 20L183 1Q189 -1 194 0Q223 9 256 9Q315 9 364 -18Q413 -45 441 -92.5Q469 -140 469 -198.5Q469 -257 441 -304Q413 -351 364 -378Q315 -405 256 -405ZM384 -246L321 -147Q314 -135 300 -132.5Q286 -130 275 -139L225 -176Q222 -178 217.5 -178Q213 -178 210 -176L143 -124Q136 -119 129.5 -124.5Q123 -130 128 -138L191 -237Q198 -249 212 -251.5Q226 -254 237 -246L287 -208Q295 -203 302 -208L369 -260Q376 -265 382.5 -259.5Q389 -254 384 -246Z"/>
</svg>