<svg xmlns="http://www.w3.org/2000/svg" viewBox="0 -512 512 512">
	<path fill="#000000" d="M192 -197Q181 -197 173 -189.5Q165 -182 165 -171Q165 -160 173 -152Q181 -144 192 -144Q203 -144 211 -152Q219 -160 219 -171Q219 -182 211 -189.5Q203 -197 192 -197ZM320 -197Q309 -197 301 -189.5Q293 -182 293 -171Q293 -160 301 -152Q309 -144 320 -144Q331 -144 339 -152Q347 -160 347 -171Q347 -182 339 -189.5Q331 -197 320 -197ZM256 -405Q214 -405 174.5 -389Q135 -373 105 -343Q75 -313 59 -273.5Q43 -234 43 -192Q43 -150 59 -110.5Q75 -71 105 -41Q135 -11 174.5 5Q214 21 256 21Q298 21 337.5 5Q377 -11 407 -41Q437 -71 453 -110.5Q469 -150 469 -192Q469 -234 453 -273.5Q437 -313 407 -343Q377 -373 337.5 -389Q298 -405 256 -405ZM256 -21Q210 -21 170.5 -44Q131 -67 108 -106.5Q85 -146 85 -192Q85 -204 86 -210Q124 -227 153 -257Q182 -287 198 -325Q227 -283 273 -259Q319 -235 372 -235Q396 -235 420 -240Q427 -216 427 -192Q427 -146 404 -106.5Q381 -67 341.5 -44Q302 -21 256 -21Z"/>
</svg>