<svg xmlns="http://www.w3.org/2000/svg" viewBox="0 -512 512 512">
	<path fill="#000000" d="M256 -427Q234 -427 218.5 -411Q203 -395 203 -373Q203 -357 211.5 -344Q220 -331 235 -324V-299H149Q132 -299 119.5 -286.5Q107 -274 107 -256V-241Q92 -234 83.5 -221Q75 -208 75 -192Q75 -176 83.5 -163Q92 -150 107 -143V-128H85Q68 -128 55.5 -115.5Q43 -103 43 -85V-60Q28 -53 19.5 -40Q11 -27 11 -11Q11 11 26.5 27Q42 43 64 43Q86 43 101.5 27Q117 11 117 -11Q117 -27 108.5 -40Q100 -53 85 -60V-85H171V-60Q156 -53 147.5 -40Q139 -27 139 -11Q139 11 154.5 27Q170 43 192 43Q214 43 229.5 27Q245 11 245 -11Q245 -27 236.5 -40Q228 -53 213 -60V-85Q213 -103 200.5 -115.5Q188 -128 171 -128H149V-143Q164 -150 172.5 -163Q181 -176 181 -192Q181 -208 172.5 -221Q164 -234 149 -241V-256H363V-241Q348 -234 339.5 -221Q331 -208 331 -192Q331 -176 339.5 -163Q348 -150 363 -143V-128H341Q324 -128 311.5 -115.5Q299 -103 299 -85V-60Q284 -53 275.5 -40Q267 -27 267 -11Q267 11 282.5 27Q298 43 320 43Q342 43 357.5 27Q373 11 373 -11Q373 -27 364.5 -40Q356 -53 341 -60V-85H427V-60Q412 -53 403.5 -40Q395 -27 395 -11Q395 11 410.5 27Q426 43 448 43Q470 43 485.5 27Q501 11 501 -11Q501 -27 492.5 -40Q484 -53 469 -60V-85Q469 -103 456.5 -115.5Q444 -128 427 -128H405V-143Q420 -150 428.5 -163Q437 -176 437 -192Q437 -208 428.5 -221Q420 -234 405 -241V-256Q405 -274 392.5 -286.5Q380 -299 363 -299H277V-324Q292 -331 300.5 -344Q309 -357 309 -373Q309 -395 293.5 -411Q278 -427 256 -427ZM256 -395Q265 -395 271 -388.5Q277 -382 277 -373Q277 -364 271 -358Q265 -352 256 -352Q247 -352 241 -358Q235 -364 235 -373Q235 -382 241 -388.5Q247 -395 256 -395ZM128 -213Q137 -213 143 -207Q149 -201 149 -192Q149 -183 143 -177Q137 -171 128 -171Q119 -171 113 -177Q107 -183 107 -192Q107 -201 113 -207Q119 -213 128 -213ZM384 -213Q393 -213 399 -207Q405 -201 405 -192Q405 -183 399 -177Q393 -171 384 -171Q375 -171 369 -177Q363 -183 363 -192Q363 -201 369 -207Q375 -213 384 -213ZM64 -32Q73 -32 79 -26Q85 -20 85 -11Q85 -2 79 4.5Q73 11 64 11Q55 11 49 4.5Q43 -2 43 -11Q43 -20 49 -26Q55 -32 64 -32ZM192 -32Q201 -32 207 -26Q213 -20 213 -11Q213 -2 207 4.5Q201 11 192 11Q183 11 177 4.5Q171 -2 171 -11Q171 -20 177 -26Q183 -32 192 -32ZM320 -32Q329 -32 335 -26Q341 -20 341 -11Q341 -2 335 4.5Q329 11 320 11Q311 11 305 4.5Q299 -2 299 -11Q299 -20 305 -26Q311 -32 320 -32ZM448 -32Q457 -32 463 -26Q469 -20 469 -11Q469 -2 463 4.5Q457 11 448 11Q439 11 433 4.5Q427 -2 427 -11Q427 -20 433 -26Q439 -32 448 -32Z"/>
</svg>