<svg xmlns="http://www.w3.org/2000/svg" viewBox="0 -512 512 512">
	<path fill="#000000" d="M341 -149H373V-90L425 -60L407 -32L341 -70ZM448 -207Q446 -242 422 -259.5Q398 -277 360.5 -275Q323 -273 284 -252Q274 -265 258 -271Q267 -312 292 -324Q311 -334 320 -351Q329 -368 324 -385.5Q319 -403 300 -414Q279 -427 245 -427Q208 -427 189 -402Q171 -378 172.5 -340Q174 -302 194 -262Q181 -253 175 -237Q134 -246 122 -271Q113 -290 96.5 -298.5Q80 -307 62.5 -302.5Q45 -298 34 -279Q21 -258 21 -224Q21 -187 46 -168Q70 -150 108 -151Q146 -152 186 -173Q193 -163 211 -154Q202 -113 177 -100Q158 -92 149.5 -75Q141 -58 145.5 -40.5Q150 -23 169 -12Q190 0 224 0Q235 0 239 -2Q260 29 292.5 46.5Q325 64 363 64Q404 64 438 44Q472 24 492 -10Q512 -44 512 -85Q512 -123 494.5 -155Q477 -187 448 -207ZM235 -235Q244 -235 250 -229Q256 -223 256 -213.5Q256 -204 250 -198Q244 -192 234.5 -192Q225 -192 219 -198Q213 -204 213 -213.5Q213 -223 219 -229Q225 -235 235 -235ZM363 21Q333 21 308.5 7Q284 -7 270 -31.5Q256 -56 256 -85.5Q256 -115 270 -139.5Q284 -164 308.5 -178Q333 -192 362.5 -192Q392 -192 416.5 -178Q441 -164 455 -139.5Q469 -115 469 -85.5Q469 -56 455 -31.5Q441 -7 416.5 7Q392 21 363 21Z"/>
</svg>