<svg xmlns="http://www.w3.org/2000/svg" viewBox="0 -512 512 512">
	<path fill="#000000" d="M267 -405Q222 -405 204 -370Q186 -337 198 -289L320 -167Q356 -159 369 -134Q378 -115 395 -106.5Q412 -98 429.5 -103Q447 -108 458 -126Q470 -147 470 -181Q470 -218 446 -237Q422 -256 383.5 -254.5Q345 -253 306 -232Q296 -245 280 -251Q288 -291 315 -304Q333 -313 341.5 -330Q350 -347 345 -364.5Q340 -382 322 -393Q301 -405 267 -405ZM70 -363L43 -336L95 -283Q73 -283 59 -264Q43 -242 43 -203Q43 -166 67 -147Q91 -128 129 -129.5Q167 -131 206 -152Q216 -139 232 -132Q224 -93 198 -80Q179 -71 170.5 -54Q162 -37 167 -19.5Q172 -2 190 9Q211 21 246 21Q281 21 300 -1.5Q319 -24 319 -60L400 21L427 -6Z"/>
</svg>