<svg xmlns="http://www.w3.org/2000/svg" viewBox="0 -512 512 512">
	<path fill="#000000" d="M277 -43Q277 -87 305 -122Q300 -135 296 -142Q309 -153 315 -168Q333 -165 347 -156Q375 -171 406.5 -171Q438 -171 467 -155Q469 -169 469 -181Q469 -218 445 -237Q421 -256 383 -254.5Q345 -253 306 -232Q295 -245 280 -251Q288 -291 314 -304Q333 -313 341.5 -330Q350 -347 345 -364.5Q340 -382 322 -393Q301 -405 267 -405Q230 -405 211 -381Q192 -357 193.5 -319Q195 -281 216 -242Q203 -232 196 -216Q157 -224 144 -250Q134 -269 117.5 -277.5Q101 -286 83.5 -281Q66 -276 55 -258Q43 -237 43 -203Q43 -166 67 -147Q91 -128 128.5 -129.5Q166 -131 206 -152Q216 -139 232 -132Q224 -93 198 -80Q179 -71 170.5 -54Q162 -37 167 -19.5Q172 -2 190 9Q211 21 245 21Q271 21 288 9Q277 -17 277 -43ZM256 -171Q247 -171 241 -177Q235 -183 235 -192Q235 -201 241 -207Q247 -213 256 -213Q265 -213 271 -207Q277 -201 277 -192Q277 -183 271 -177Q265 -171 256 -171ZM481 -88L435 -43L481 3L451 33L405 -13L360 33L330 3L375 -43L330 -88L360 -118L405 -73L451 -118Z"/>
</svg>