<svg xmlns="http://www.w3.org/2000/svg" viewBox="0 -512 512 512">
	<path fill="#000000" d="M213 -213Q204 -213 198 -207Q192 -201 192 -192Q192 -183 198 -177Q204 -171 213 -171Q222 -171 228.5 -177Q235 -183 235 -192Q235 -201 228.5 -207Q222 -213 213 -213ZM224 -405Q258 -405 279 -393Q298 -382 302.5 -364.5Q307 -347 298.5 -330Q290 -313 272 -304Q245 -291 237 -251Q252 -245 263 -232Q302 -253 340 -254.5Q378 -256 402.5 -237Q427 -218 427 -181Q427 -147 414 -126Q404 -108 386.5 -103Q369 -98 352 -106.5Q335 -115 326 -134Q312 -160 272 -168Q266 -153 253 -142Q274 -103 275.5 -65Q277 -27 258 -3Q239 21 203 21Q169 21 148 9Q129 -2 124 -19.5Q119 -37 127.5 -54Q136 -71 155 -80Q181 -93 189 -132Q173 -139 163 -152Q124 -131 86 -129.5Q48 -128 24 -147Q0 -166 0 -203Q0 -237 12 -258Q23 -276 40.5 -281Q58 -286 75 -277.5Q92 -269 101 -250Q114 -224 154 -216Q160 -232 173 -242Q152 -281 150.5 -319Q149 -357 168 -381Q187 -405 224 -405ZM469 -171V-299H512V-171ZM469 -85V-128H512V-85Z"/>
</svg>