<svg xmlns="http://www.w3.org/2000/svg" viewBox="0 -512 512 512">
	<path fill="#000000" d="M256 -213Q247 -213 241 -207Q235 -201 235 -192Q235 -183 241 -177Q247 -171 256 -171Q265 -171 271 -177Q277 -183 277 -192Q277 -201 271 -207Q265 -213 256 -213ZM267 -405Q301 -405 322 -393Q340 -382 345 -364.5Q350 -347 341.5 -330Q333 -313 315 -304Q288 -291 280 -251Q296 -245 306 -232Q345 -253 383.5 -254.5Q422 -256 446 -237Q470 -218 470 -181Q470 -147 458 -126Q447 -108 429.5 -103Q412 -98 395 -106.5Q378 -115 369 -134Q355 -160 316 -168Q309 -153 296 -142Q317 -103 318.5 -65Q320 -27 301 -3Q282 21 245 21Q211 21 190 9Q172 -2 167 -19.5Q162 -37 170.5 -54Q179 -71 198 -80Q224 -93 232 -132Q216 -139 206 -152Q167 -131 129 -129.5Q91 -128 67 -147Q43 -166 43 -203Q43 -237 55 -258Q66 -276 83.5 -281Q101 -286 117.5 -277.5Q134 -269 144 -250Q157 -224 197 -216Q203 -232 216 -242Q195 -281 193.5 -319Q192 -357 211 -381Q230 -405 267 -405Z"/>
</svg>