<svg xmlns="http://www.w3.org/2000/svg" viewBox="0 -512 512 512">
	<path fill="#000000" d="M245 -384Q171 -384 113 -341.5Q55 -299 32 -230L83 -213Q99 -265 144.5 -298Q190 -331 245 -331Q307 -331 354 -290L299 -235H448V-384L393 -329Q361 -355 323.5 -369.5Q286 -384 245 -384ZM405 -149V-21Q405 -4 392.5 8.5Q380 21 363 21H320Q302 21 289.5 8.5Q277 -4 277 -21V-149Q277 -167 289.5 -179.5Q302 -192 320 -192H363Q380 -192 392.5 -179.5Q405 -167 405 -149ZM320 -149V-21H363V-149ZM149 -192Q132 -192 119.5 -179.5Q107 -167 107 -149V-21Q107 -4 119.5 8.5Q132 21 149 21H192Q210 21 222.5 8.5Q235 -4 235 -21V-64Q235 -82 222.5 -94.5Q210 -107 192 -107H149V-149H235V-192ZM149 -64H192V-21H149Z"/>
</svg>