<svg xmlns="http://www.w3.org/2000/svg" viewBox="0 -512 512 512">
	<path fill="#000000" d="M245 -384Q172 -384 113.5 -341Q55 -298 33 -230L83 -213Q100 -265 144.5 -298Q189 -331 245 -331Q307 -331 355 -291L299 -235H448V-384L393 -329Q362 -355 324.5 -369.5Q287 -384 245 -384ZM405 -149V-21Q405 -4 392.5 8.5Q380 21 363 21H320Q302 21 289.5 8.5Q277 -4 277 -21V-149Q277 -167 289.5 -179.5Q302 -192 320 -192H363Q380 -192 392.5 -179.5Q405 -167 405 -149ZM320 -149V-21H363V-149ZM235 -21Q235 -4 222.5 8.5Q210 21 192 21H107V-21H192V-64H149V-107H192V-149H107V-192H192Q210 -192 222.5 -179.5Q235 -167 235 -149V-117Q235 -104 225.5 -94.5Q216 -85 203 -85Q216 -85 225.5 -76Q235 -67 235 -53Z"/>
</svg>