<svg xmlns="http://www.w3.org/2000/svg" viewBox="0 -512 512 512">
	<path fill="#000000" d="M213 -192V21H171V-149H128V-192ZM384 -149V-21Q384 -4 371.5 8.5Q359 21 341 21H299Q281 21 268.5 8.5Q256 -4 256 -21V-149Q256 -167 268.5 -179.5Q281 -192 299 -192H341Q359 -192 371.5 -179.5Q384 -167 384 -149ZM299 -149V-21H341V-149ZM245 -384Q287 -384 324.5 -369.5Q362 -355 393 -329L448 -384V-235H299L355 -291Q307 -331 245 -331Q189 -331 144.5 -298Q100 -265 83 -213L33 -230Q55 -298 113.5 -341Q172 -384 245 -384Z"/>
</svg>