<svg xmlns="http://www.w3.org/2000/svg" viewBox="0 -512 512 512">
	<path fill="#000000" d="M448 0H64Q64 -18 76.5 -30.5Q89 -43 107 -43H405Q423 -43 435.5 -30.5Q448 -18 448 0ZM405 -299Q405 -318 397 -336Q388 -357 370 -370Q349 -384 320 -384Q291 -384 270 -370Q252 -357 243 -336Q235 -318 235 -299V-64H277V-299Q277 -313 284 -324Q295 -341 320 -341Q345 -341 356 -324Q363 -313 363 -299H352V-256H416V-299ZM149 -192Q141 -192 134.5 -185.5Q128 -179 128 -171V-149H64V-128H128V-64H171V-171Q171 -179 164.5 -185.5Q158 -192 149 -192ZM448 -149H384V-171Q384 -179 377.5 -185.5Q371 -192 362.5 -192Q354 -192 347.5 -185.5Q341 -179 341 -171V-64H384V-128H448Z"/>
</svg>