<svg xmlns="http://www.w3.org/2000/svg" viewBox="0 -512 512 512">
	<path fill="#000000" d="M427 -21Q427 -4 414.5 8.5Q402 21 384 21H85Q68 21 55.5 8.5Q43 -4 43 -21V-320Q43 -338 55.5 -350.5Q68 -363 85 -363H203Q192 -334 192 -309Q192 -272 210.5 -240Q229 -208 261 -189.5Q293 -171 331 -171Q358 -171 375 -179L427 -128ZM412 -258Q427 -284 427 -309Q427 -349 399 -377Q371 -405 331 -405Q291 -405 263 -377Q235 -349 235 -309Q235 -269 263 -241Q291 -213 331 -213Q356 -213 382 -228L448 -162L478 -192ZM331 -256Q308 -256 292.5 -271.5Q277 -287 277 -309.5Q277 -332 292.5 -347.5Q308 -363 330.5 -363Q353 -363 368.5 -347.5Q384 -332 384 -309.5Q384 -287 368.5 -271.5Q353 -256 331 -256Z"/>
</svg>