<svg xmlns="http://www.w3.org/2000/svg" viewBox="0 -512 512 512">
	<path fill="#000000" d="M331 -405Q291 -405 263 -377Q235 -349 235 -309Q235 -269 263 -241Q291 -213 331 -213Q356 -213 382 -228L448 -162L478 -192L412 -258Q427 -284 427 -309Q427 -349 399 -377Q371 -405 331 -405ZM85 -363Q68 -363 55.5 -350.5Q43 -338 43 -320V-21Q43 -4 55.5 8.5Q68 21 85 21H384Q402 21 414.5 8.5Q427 -4 427 -21V-128L384 -171V-21H85V-320H193Q194 -340 203 -363ZM331 -363Q353 -363 368.5 -347.5Q384 -332 384 -309.5Q384 -287 368.5 -271.5Q353 -256 330.5 -256Q308 -256 292.5 -271.5Q277 -287 277 -309.5Q277 -332 292.5 -347.5Q308 -363 331 -363Z"/>
</svg>