<svg xmlns="http://www.w3.org/2000/svg" viewBox="0 -512 512 512">
	<path fill="#000000" d="M256 -405Q198 -405 149 -376.5Q100 -348 71.5 -299Q43 -250 43 -192V-27Q43 -7 57 7Q71 21 91 21H256Q314 21 363 -7.5Q412 -36 440.5 -85Q469 -134 469 -192Q469 -250 440.5 -299Q412 -348 363 -376.5Q314 -405 256 -405ZM299 -317Q327 -317 348 -298.5Q369 -280 369 -252L368 -241Q368 -234 362 -229Q356 -224 348.5 -225Q341 -226 336.5 -232.5Q332 -239 333 -246V-252Q333 -267 323 -274.5Q313 -282 300 -282Q287 -282 277.5 -273Q268 -264 268 -252V-198H299Q310 -198 314.5 -189Q319 -180 314.5 -171Q310 -162 299 -162H268V-111Q265 -81 242 -60Q219 -39 187.5 -39Q156 -39 133 -62.5Q110 -86 110.5 -119Q111 -152 134.5 -175Q158 -198 192 -198H217V-162H191Q172 -161 158.5 -149Q145 -137 145 -118.5Q145 -100 158 -87.5Q171 -75 189 -75Q207 -75 219.5 -87Q232 -99 232 -118V-252L233 -260Q236 -284 255 -300.5Q274 -317 299 -317Z"/>
</svg>