<svg xmlns="http://www.w3.org/2000/svg" viewBox="0 -512 512 512">
	<path fill="#000000" d="M96 -76L119 -53L70 -5Q65 0 58.5 0Q52 0 47.5 -4.5Q43 -9 43 -16Q43 -23 47 -27ZM390 -332V-363L256 -228L122 -363V-332L241 -213L160 -132Q141 -146 117.5 -144Q94 -142 77 -125L168 -35Q185 -51 186.5 -74.5Q188 -98 175 -117ZM465 -27L416 -76L393 -53L442 -5Q447 0 453.5 0Q460 0 464.5 -4.5Q469 -9 469 -16Q469 -23 465 -27ZM352 -132L286 -198L271 -183L337 -117Q324 -98 325.5 -74.5Q327 -51 344 -35L435 -125Q418 -142 394.5 -144Q371 -146 352 -132Z"/>
</svg>