<svg xmlns="http://www.w3.org/2000/svg" viewBox="0 -512 512 512">
	<path fill="#000000" d="M256 -43Q270 -43 280.5 -35Q291 -27 296 -15Q314 -19 330 -26L292 -115Q275 -107 256 -107Q237 -107 220 -115L182 -26Q198 -19 216 -15Q221 -27 231.5 -35Q242 -43 256 -43ZM389 -69Q380 -82 380 -96Q380 -113 392.5 -126Q405 -139 423 -139L429 -138Q437 -164 437 -192Q437 -220 429 -245H423Q405 -245 392.5 -257.5Q380 -270 380 -288Q380 -303 389 -315Q350 -357 296 -369Q291 -357 280.5 -349Q270 -341 256 -341Q242 -341 231.5 -349Q221 -357 216 -369Q162 -357 123 -315Q132 -303 132 -288Q132 -270 119.5 -257.5Q107 -245 90 -245H83Q75 -220 75 -192.5Q75 -165 83 -138L90 -139Q107 -139 119.5 -126Q132 -113 132 -96.5Q132 -80 123 -69Q132 -59 145 -48L186 -144Q171 -165 171 -192Q171 -227 196 -252Q221 -277 256 -277Q291 -277 316 -252Q341 -227 341 -192Q341 -165 326 -144L367 -48Q378 -57 389 -69ZM256 43Q240 43 228 32.5Q216 22 213 6Q194 2 174 -7L153 43H107L137 -28Q119 -41 106 -56Q99 -53 90 -53Q72 -53 59.5 -65.5Q47 -78 47 -96Q47 -116 63 -129Q53 -160 53 -192Q53 -224 63 -254Q47 -267 47 -288Q47 -306 59.5 -318.5Q72 -331 90 -331Q97 -331 105 -327Q149 -377 213 -390Q216 -406 228 -416.5Q240 -427 256 -427Q272 -427 284 -416.5Q296 -406 299 -390Q362 -377 407 -328Q414 -331 423 -331Q440 -331 452.5 -318.5Q465 -306 465 -288Q465 -267 449 -255Q459 -224 459 -192Q459 -160 449 -129Q465 -116 465 -96Q465 -78 452.5 -65.5Q440 -53 423 -53Q414 -53 406 -56Q393 -41 375 -28L405 43H359L338 -7Q318 2 299 6Q296 22 284 32.5Q272 43 256 43Z"/>
</svg>