<svg xmlns="http://www.w3.org/2000/svg" viewBox="0 -512 512 512">
	<path fill="#000000" d="M235 -107Q235 -97 229 -91Q223 -85 213.5 -85Q204 -85 198 -91Q192 -97 192 -106.5Q192 -116 198 -122Q204 -128 213.5 -128Q223 -128 229 -122Q235 -116 235 -107ZM427 -277V-21Q427 -4 414.5 8.5Q402 21 384 21H128Q110 21 97.5 8.5Q85 -4 85 -21V-363Q85 -380 97.5 -392.5Q110 -405 128 -405H299ZM384 -128H273Q263 -154 239.5 -165Q216 -176 191 -166.5Q166 -157 155 -133Q144 -109 153.5 -85Q163 -61 187 -49Q211 -37 235 -47Q262 -56 273 -85H299V-43H341V-85H384ZM395 -256L277 -373V-256Z"/>
</svg>