<svg xmlns="http://www.w3.org/2000/svg" viewBox="0 -512 512 512">
	<path fill="#000000" d="M235 -75Q235 -112 253.5 -144Q272 -176 304 -194.5Q336 -213 373 -213Q398 -213 427 -203V-277L299 -405H128Q110 -405 97.5 -392.5Q85 -380 85 -363V-21Q85 -4 97.5 8.5Q110 21 128 21H273Q255 2 245 -23Q235 -48 235 -75ZM277 -373L395 -256H277ZM363 -192V-160Q398 -160 423 -135Q448 -110 448 -75Q448 -46 433 -28L410 -51Q416 -61 416 -75Q416 -97 400.5 -112.5Q385 -128 363 -128V-96L316 -143ZM363 43V11Q327 11 302 -14Q277 -39 277 -75Q277 -104 292 -122L316 -98Q309 -89 309 -75Q309 -52 324.5 -36.5Q340 -21 363 -21V-53L410 -6Z"/>
</svg>