<svg xmlns="http://www.w3.org/2000/svg" viewBox="0 -512 512 512">
	<path fill="#000000" d="M405 -384H107Q89 -384 76.5 -371.5Q64 -359 64 -341V-43Q64 -25 76.5 -12.5Q89 0 107 0H405Q423 0 435.5 -12.5Q448 -25 448 -43V-341Q448 -359 435.5 -371.5Q423 -384 405 -384ZM203 -203Q203 -190 193 -180.5Q183 -171 171 -171H149V-128H117V-256H171Q183 -256 193 -246.5Q203 -237 203 -224ZM309 -160Q309 -147 299.5 -137.5Q290 -128 277 -128H224V-256H277Q290 -256 299.5 -246.5Q309 -237 309 -224ZM395 -224H363V-203H395V-171H363V-128H331V-256H395ZM256 -224H277V-160H256ZM149 -224H171V-203H149Z"/>
</svg>