<svg xmlns="http://www.w3.org/2000/svg" viewBox="0 -512 512 512">
	<path fill="#000000" d="M299 -405H128Q110 -405 97.5 -392.5Q85 -380 85 -363V-21Q85 -4 97.5 8.5Q110 21 128 21H384Q402 21 414.5 8.5Q427 -4 427 -21V-277ZM128 -363H277L384 -256V-73L345 -112Q365 -144 361.5 -181.5Q358 -219 331 -246Q316 -261 296.5 -269Q277 -277 256 -277Q235 -277 215.5 -269Q196 -261 181 -246Q160 -226 153 -198.5Q146 -171 153 -143.5Q160 -116 181 -96Q196 -80 215.5 -72.5Q235 -65 256 -65Q288 -65 315 -82L375 -21H128ZM301 -126Q282 -107 256 -107Q230 -107 211 -126Q192 -145 192 -171Q192 -197 210.5 -216Q229 -235 256 -235Q283 -235 301.5 -216Q320 -197 320 -171Q320 -145 301 -126Z"/>
</svg>