<svg xmlns="http://www.w3.org/2000/svg" viewBox="0 -512 512 512">
	<path fill="#000000" d="M395 -235Q410 -235 427 -230V-277L299 -405H128Q110 -405 97.5 -392.5Q85 -380 85 -363V-21Q85 -4 97.5 8.5Q110 21 128 21H339Q314 -12 299 -42Q277 -85 277 -117Q277 -149 293 -176Q309 -203 336 -219Q363 -235 395 -235ZM277 -373L395 -256H277ZM395 -192Q364 -192 342 -170Q320 -148 320 -117Q320 -93 339 -57Q353 -31 375 -2L395 21L414 -2Q436 -31 450 -57Q469 -93 469 -117Q469 -148 447 -170Q425 -192 395 -192ZM395 -90Q384 -90 376.5 -97.5Q369 -105 369 -115.5Q369 -126 377 -133.5Q385 -141 394.5 -141Q404 -141 412 -133Q420 -125 421 -115.5Q422 -106 414 -98Q406 -90 395 -90Z"/>
</svg>