<svg xmlns="http://www.w3.org/2000/svg" viewBox="0 -512 512 512">
	<path fill="#000000" d="M384 -171Q361 -171 342.5 -155Q324 -139 324 -117V-85Q315 -85 307 -77Q299 -69 299 -60V15Q299 26 306.5 34.5Q314 43 324 43H442Q453 43 461 35Q469 27 469 17V-58Q469 -69 461.5 -77Q454 -85 444 -85V-117Q444 -139 425.5 -155Q407 -171 384 -171ZM384 -145Q397 -145 406.5 -137.5Q416 -130 416 -117V-85H352V-117Q352 -130 361.5 -137.5Q371 -145 384 -145ZM128 -405Q110 -405 97.5 -392.5Q85 -380 85 -363V-21Q85 -4 97.5 8.5Q110 21 128 21H256V-21H128V-363H277V-256H384V-213Q401 -213 427 -205V-277L299 -405Z"/>
</svg>