<svg xmlns="http://www.w3.org/2000/svg" viewBox="0 -512 512 512">
	<path fill="#000000" d="M299 -405H128Q110 -405 97.5 -392.5Q85 -380 85 -363V-21Q85 -4 97.5 8.5Q110 21 128 21H384Q402 21 414.5 8.5Q427 -4 427 -21V-277ZM235 -21H213Q194 -21 176 -30Q155 -39 142 -57Q128 -77 128 -106.5Q128 -136 142 -157Q155 -174 176 -184Q194 -192 213 -192H235V-149H213Q199 -149 188 -143Q171 -132 171 -106.5Q171 -81 189 -70Q200 -64 213 -64H235ZM320 -128V-85H192V-128ZM299 -21H277V-64H299Q313 -64 324 -71Q341 -82 341 -107.5Q341 -133 323 -143Q312 -149 299 -149H277V-192H299Q318 -192 336 -184Q357 -174 370 -157Q384 -136 384 -106.5Q384 -77 370 -57Q357 -39 336 -30Q318 -21 299 -21ZM277 -256V-373L395 -256Z"/>
</svg>