<svg xmlns="http://www.w3.org/2000/svg" viewBox="0 -512 512 512">
	<path fill="#000000" d="M128 -21L256 -149L278 -127Q281 -157 297 -181.5Q313 -206 339 -220.5Q365 -235 395 -235Q410 -235 427 -230V-277L299 -405H128Q110 -405 97.5 -392.5Q85 -380 85 -363V-21Q85 -4 97.5 8.5Q110 21 128 21H339Q320 -5 310 -21ZM277 -373L395 -256H277ZM171 -256Q188 -256 200.5 -243.5Q213 -231 213 -213.5Q213 -196 200.5 -183.5Q188 -171 170.5 -171Q153 -171 140.5 -183.5Q128 -196 128 -213.5Q128 -231 140.5 -243.5Q153 -256 171 -256ZM395 -192Q364 -192 342 -170Q320 -148 320 -117Q320 -93 339 -57Q353 -31 375 -2L395 21L414 -2Q436 -31 450 -57Q469 -93 469 -117Q469 -148 447 -170Q425 -192 395 -192ZM395 -90Q384 -90 376.5 -97.5Q369 -105 369 -115.5Q369 -126 377 -133.5Q385 -141 394.5 -141Q404 -141 412 -133Q420 -125 421 -115.5Q422 -106 414 -98Q406 -90 395 -90Z"/>
</svg>