<svg xmlns="http://www.w3.org/2000/svg" viewBox="0 -512 512 512">
	<path fill="#000000" d="M149 -43L256 -149L296 -109Q277 -78 277 -43ZM213 -224Q213 -237 204 -246.5Q195 -256 181.5 -256Q168 -256 158.5 -246.5Q149 -237 149 -224Q149 -211 158.5 -201.5Q168 -192 181.5 -192Q195 -192 204 -201.5Q213 -211 213 -224ZM279 -21H128V-363H277V-256H384V-169Q397 -171 405.5 -171Q414 -171 427 -169V-277L299 -405H128Q110 -405 97.5 -392.5Q85 -380 85 -363V-21Q85 -4 97.5 8.5Q110 21 128 21H295Q283 1 279 -21ZM384 -128V-64H320V-21H384V43H427V-21H491V-64H427V-128Z"/>
</svg>