<svg xmlns="http://www.w3.org/2000/svg" viewBox="0 -512 512 512">
	<path fill="#000000" d="M299 -405H128Q110 -405 97.5 -392.5Q85 -380 85 -363V-21Q85 -4 97.5 8.5Q110 21 128 21H384Q402 21 414.5 8.5Q427 -4 427 -21V-277ZM384 -21H128V-363H277V-256H384ZM277 -171Q277 -153 264.5 -140.5Q252 -128 234.5 -128Q217 -128 204.5 -140.5Q192 -153 192 -170.5Q192 -188 204.5 -200.5Q217 -213 234.5 -213Q252 -213 264.5 -200.5Q277 -188 277 -171ZM320 -64V-43H149V-64Q149 -83 181 -96Q208 -107 234.5 -107Q261 -107 288 -96Q320 -83 320 -64Z"/>
</svg>