<svg xmlns="http://www.w3.org/2000/svg" viewBox="0 -512 512 512">
	<path fill="#000000" d="M299 -405H128Q110 -405 97.5 -392.5Q85 -380 85 -363V-21Q85 -4 97.5 8.5Q110 21 128 21H384Q402 21 414.5 8.5Q427 -4 427 -21V-277ZM384 -21H128V-363H277V-256H384ZM235 -43H229Q213 -43 196 -49Q176 -58 164 -74Q149 -93 149 -122.5Q149 -152 164 -172Q176 -188 196 -196Q213 -203 229 -203H235V-171H229Q215 -171 202 -164Q181 -152 181 -122.5Q181 -93 203 -81Q215 -75 229 -75H235ZM299 -107H213V-139H299ZM277 -203H283Q299 -203 316 -196Q336 -188 348 -172Q363 -152 363 -122.5Q363 -93 348 -74Q336 -58 316 -49Q299 -43 283 -43H277V-75H283Q297 -75 310 -82Q331 -94 331 -123Q331 -152 309 -164Q297 -171 283 -171H277Z"/>
</svg>