<svg xmlns="http://www.w3.org/2000/svg" viewBox="0 -512 512 512">
	<path fill="#000000" d="M299 -171V-213L256 -192L213 -213V-171L171 -149L213 -128V-85L256 -107L299 -85V-128L341 -149ZM299 -405H149Q132 -405 119.5 -392.5Q107 -380 107 -363V-64Q107 -46 119.5 -33.5Q132 -21 149 -21H171V-64H149V-363H277V-277H363V-64H341V-21H363Q380 -21 392.5 -33.5Q405 -46 405 -64V-299ZM299 -171V-213L256 -192L213 -213V-171L171 -149L213 -128V-85L256 -107L299 -85V-128L341 -149ZM213 43L256 21L299 43V-64H213ZM299 -171V-213L256 -192L213 -213V-171L171 -149L213 -128V-85L256 -107L299 -85V-128L341 -149Z"/>
</svg>