<svg xmlns="http://www.w3.org/2000/svg" viewBox="0 -512 512 512">
	<path fill="#000000" d="M269 -186H226V-117H271Q280 -117 285.5 -120Q291 -123 297 -128Q305 -137 305 -151.5Q305 -166 297 -175Q286 -186 269 -186ZM299 -405H128Q110 -405 97.5 -392.5Q85 -380 85 -363V-21Q85 -4 97.5 8.5Q110 21 128 21H384Q402 21 414.5 8.5Q427 -4 427 -21V-277ZM324 -107Q314 -98 303.5 -95Q293 -92 273 -92H226V-21H192V-213H273Q293 -213 304.5 -209Q316 -205 325 -196Q334 -187 337.5 -176.5Q341 -166 341 -151Q341 -121 324 -107ZM277 -256V-373L395 -256Z"/>
</svg>