<svg xmlns="http://www.w3.org/2000/svg" viewBox="0 -512 512 512">
	<path fill="#000000" d="M299 -405H128Q110 -405 97.5 -392.5Q85 -380 85 -363V-21Q85 -4 97.5 8.5Q110 21 128 21H384Q402 21 414.5 8.5Q427 -4 427 -21V-277ZM384 -21H128V-363H277V-256H384ZM320 -171Q320 -157 312 -146Q307 -139 295 -128.5Q283 -118 279 -112Q272 -102 272 -90H240Q240 -110 249 -123Q255 -131 268 -141Q278 -149 282 -154Q288 -161 288 -171Q288 -184 278.5 -193.5Q269 -203 256 -203Q243 -203 233.5 -193.5Q224 -184 224 -171H192Q192 -197 210.5 -216Q229 -235 256 -235Q283 -235 301.5 -216Q320 -197 320 -171ZM272 -75V-43H240V-75Z"/>
</svg>