<svg xmlns="http://www.w3.org/2000/svg" viewBox="0 -512 512 512">
	<path fill="#000000" d="M192 -171Q192 -144 210.5 -125.5Q229 -107 256 -107Q283 -107 301.5 -125.5Q320 -144 320 -170.5Q320 -197 301.5 -216Q283 -235 256 -235Q229 -235 210.5 -216Q192 -197 192 -171ZM427 -30V-277L299 -405H128Q110 -405 97.5 -392.5Q85 -380 85 -363V-21Q85 -4 97.5 8.5Q110 21 128 21H384Q398 21 409 13L315 -82Q288 -64 256 -64Q235 -64 215.5 -72Q196 -80 181 -95Q166 -110 157.5 -129.5Q149 -149 149 -170.5Q149 -192 157.5 -211.5Q166 -231 181 -246Q196 -261 215.5 -269Q235 -277 256 -277Q285 -277 309.5 -263Q334 -249 348.5 -224.5Q363 -200 363 -171Q363 -139 345 -112Z"/>
</svg>