<svg xmlns="http://www.w3.org/2000/svg" viewBox="0 -512 512 512">
	<path fill="#000000" d="M405 -384H107Q89 -384 76.5 -371.5Q64 -359 64 -341V-43Q64 -25 76.5 -12.5Q89 0 107 0H405Q423 0 435.5 -12.5Q448 -25 448 -43V-341Q448 -359 435.5 -371.5Q423 -384 405 -384ZM192 -160Q192 -143 180 -135.5Q168 -128 149 -128Q130 -128 118.5 -135.5Q107 -143 107 -160V-192H139V-160H160V-256H192ZM299 -203Q299 -190 289 -180.5Q279 -171 267 -171H245V-128H213V-256H267Q279 -256 289 -246.5Q299 -237 299 -224ZM405 -224H352V-160H373V-192H405V-156Q405 -144 397.5 -136Q390 -128 378 -128H350Q338 -128 330 -136.5Q322 -145 322 -156V-226Q320 -238 327.5 -247Q335 -256 348 -256H375Q388 -256 395.5 -247.5Q403 -239 403 -228V-224ZM245 -224H267V-203H245Z"/>
</svg>