<svg xmlns="http://www.w3.org/2000/svg" viewBox="0 -512 512 512">
	<path fill="#000000" d="M299 -405L427 -277V-21Q427 -4 414.5 8.5Q402 21 384 21H128Q110 21 97.5 8.5Q85 -4 85 -21V-363Q85 -380 97.5 -392.5Q110 -405 128 -405ZM384 -21V-256H277V-363H128V-21ZM245 -235Q285 -235 313 -207Q341 -179 341 -139Q341 -99 313 -71Q285 -43 245 -43Q205 -43 177 -71Q149 -99 149 -139Q149 -179 177 -207Q205 -235 245 -235ZM245 -203Q227 -203 213 -194L300 -107Q309 -121 309 -139Q309 -165 290.5 -184Q272 -203 245 -203ZM181 -139Q181 -112 200 -93.5Q219 -75 245 -75Q263 -75 277 -84L190 -171Q181 -157 181 -139Z"/>
</svg>