<svg xmlns="http://www.w3.org/2000/svg" viewBox="0 -512 512 512">
	<path fill="#000000" d="M277 -256H395L277 -373ZM128 -405H299L427 -277V-21Q427 -4 414.5 8.5Q402 21 384 21H128Q110 21 97.5 8.5Q85 -4 85 -21V-363Q85 -380 97.5 -392.5Q110 -405 128 -405ZM224 -213Q184 -213 156 -185Q128 -157 128 -117Q128 -77 156 -49Q184 -21 224 -21Q264 -21 292 -49Q320 -77 320 -117Q320 -157 292 -185Q264 -213 224 -213ZM224 -181Q251 -181 269.5 -162.5Q288 -144 288 -117Q288 -99 279 -85L192 -172Q206 -181 224 -181ZM160 -117Q160 -135 169 -149L256 -62Q242 -53 224 -53Q197 -53 178.5 -72Q160 -91 160 -117Z"/>
</svg>