<svg xmlns="http://www.w3.org/2000/svg" viewBox="0 -512 512 512">
	<path fill="#000000" d="M279 -21H128L256 -149L296 -109Q317 -142 350 -158L384 -192V-169Q397 -171 405.5 -171Q414 -171 427 -169V-277L299 -405H128Q110 -405 97.5 -392.5Q85 -380 85 -363V-21Q85 -4 97.5 8.5Q110 21 128 21H295Q283 1 279 -21ZM277 -373L395 -256H277ZM171 -256Q188 -256 200.5 -243.5Q213 -231 213 -213.5Q213 -196 200.5 -183.5Q188 -171 170.5 -171Q153 -171 140.5 -183.5Q128 -196 128 -213.5Q128 -231 140.5 -243.5Q153 -256 171 -256ZM481 -88L435 -43L481 3L451 33L405 -13L360 33L330 3L375 -43L330 -88L360 -118L405 -73L451 -118Z"/>
</svg>