<svg xmlns="http://www.w3.org/2000/svg" viewBox="0 -512 512 512">
	<path fill="#000000" d="M299 -405H128Q110 -405 97.5 -392.5Q85 -380 85 -363V-21Q85 -4 97.5 8.5Q110 21 128 21H384Q402 21 414.5 8.5Q427 -4 427 -21V-277ZM384 -21H128V-363H277V-256H384ZM274 -128Q266 -150 246 -162Q226 -174 203 -170Q180 -166 164.5 -148Q149 -130 149 -106.5Q149 -83 164.5 -65.5Q180 -48 203 -44Q226 -40 246 -51.5Q266 -63 274 -85H299V-43H341V-85H363V-128ZM213 -85Q204 -85 198 -91.5Q192 -98 192 -107Q192 -116 198 -122Q204 -128 213 -128Q222 -128 228.5 -122Q235 -116 235 -107Q235 -98 228.5 -91.5Q222 -85 213 -85Z"/>
</svg>