<svg xmlns="http://www.w3.org/2000/svg" viewBox="0 -512 512 512">
	<path fill="#000000" d="M299 -405H128Q110 -405 97.5 -392.5Q85 -380 85 -363V-21Q85 -4 97.5 8.5Q110 21 128 21H384Q402 21 414.5 8.5Q427 -4 427 -21V-277ZM384 -21H128V-363H277V-256H384ZM192 -164Q219 -112 270 -85L296 -112Q302 -117 308 -115Q330 -108 351 -108Q356 -108 359.5 -104.5Q363 -101 363 -96V-54Q363 -50 359.5 -46.5Q356 -43 351 -43Q296 -43 250 -70Q204 -97 176.5 -143Q149 -189 149 -244Q149 -249 152.5 -252.5Q156 -256 161 -256H203Q208 -256 211.5 -252.5Q215 -249 215 -244Q215 -222 221 -202Q223 -195 218 -190Z"/>
</svg>