<svg xmlns="http://www.w3.org/2000/svg" viewBox="0 -512 512 512">
	<path fill="#000000" d="M299 -405H128Q110 -405 97.5 -392.5Q85 -380 85 -363V-21Q85 -4 97.5 8.5Q110 21 128 21H277Q264 13 253.5 2.5Q243 -8 235 -21H128V-363H277V-256H384V-231Q408 -226 427 -213V-277ZM433 -45Q447 -67 448 -92.5Q449 -118 437 -141Q425 -164 403 -177.5Q381 -191 355.5 -192Q330 -193 307 -181Q284 -169 270.5 -147.5Q257 -126 256 -100Q255 -74 267 -51.5Q279 -29 301.5 -14.5Q324 0 351.5 0Q379 0 403 -15L469 51L499 21ZM352 -43Q330 -43 314.5 -58.5Q299 -74 299 -96Q299 -118 314.5 -133.5Q330 -149 352 -149Q374 -149 389.5 -133.5Q405 -118 405 -96Q405 -74 389.5 -58.5Q374 -43 352 -43Z"/>
</svg>