<svg xmlns="http://www.w3.org/2000/svg" viewBox="0 -512 512 512">
	<path fill="#000000" d="M405 -384H107Q89 -384 76.5 -371.5Q64 -359 64 -341V-43Q64 -25 76.5 -12.5Q89 0 107 0H405Q423 0 435.5 -12.5Q448 -25 448 -43V-341Q448 -359 435.5 -371.5Q423 -384 405 -384ZM192 -203Q192 -190 182.5 -180.5Q173 -171 160 -171H139V-128H107V-256H160Q173 -256 182.5 -246.5Q192 -237 192 -224ZM299 -128H267L245 -181V-128H213V-256H245L267 -203V-256H299ZM405 -224H352V-160H373V-192H405V-156Q405 -144 397.5 -136Q390 -128 378 -128H350Q338 -128 330 -136.5Q322 -145 322 -156V-226Q320 -238 327.5 -247Q335 -256 348 -256H375Q388 -256 395.5 -247.5Q403 -239 403 -228V-224ZM139 -224H160V-203H139Z"/>
</svg>