<svg xmlns="http://www.w3.org/2000/svg" viewBox="0 -512 512 512">
	<path fill="#000000" d="M107 -384Q89 -384 76.5 -371.5Q64 -359 64 -341V-43Q64 -25 76.5 -12.5Q89 0 107 0H405Q423 0 435.5 -12.5Q448 -25 448 -43V-341Q448 -359 435.5 -371.5Q423 -384 405 -384ZM107 -341H405V-43H107ZM322 -280Q311 -290 298.5 -294.5Q286 -299 262 -299H171V-85H209V-162H262Q285 -162 298 -166Q311 -170 322 -180Q341 -196 341 -229Q341 -262 322 -280ZM290 -203Q279 -192 261 -192H209V-269H258Q278 -269 289.5 -257Q301 -245 301 -229Q301 -213 290 -203Z"/>
</svg>