<svg xmlns="http://www.w3.org/2000/svg" viewBox="0 -512 512 512">
	<path fill="#000000" d="M299 -405H128Q110 -405 97.5 -392.5Q85 -380 85 -363V-21Q85 -4 97.5 8.5Q110 21 128 21H384Q402 21 414.5 8.5Q427 -4 427 -21V-277ZM384 -21H128V-363H277L384 -256ZM363 -166Q363 -138 349 -114.5Q335 -91 312 -77.5Q289 -64 261 -64Q230 -64 205 -81Q180 -98 168 -125H203Q213 -111 228 -103Q243 -95 261 -95Q291 -95 311.5 -115.5Q332 -136 332 -165.5Q332 -195 311.5 -216Q291 -237 261 -237Q241 -237 224.5 -226.5Q208 -216 198 -198L231 -166H149V-247L176 -220Q190 -242 212 -254.5Q234 -267 261.5 -267Q289 -267 312 -253.5Q335 -240 349 -216.5Q363 -193 363 -166Z"/>
</svg>