<svg xmlns="http://www.w3.org/2000/svg" viewBox="0 -512 512 512">
	<path fill="#000000" d="M299 -405H128Q110 -405 97.5 -392.5Q85 -380 85 -363V-21Q85 -4 97.5 8.5Q110 21 128 21H384Q402 21 414.5 8.5Q427 -4 427 -21V-277ZM256 -64Q224 -64 197.5 -81.5Q171 -99 158 -128H195Q205 -113 221 -104.5Q237 -96 256 -96Q287 -96 309 -118Q331 -140 331 -171Q331 -202 309 -223.5Q287 -245 256 -245Q235 -245 217.5 -234Q200 -223 190 -205L224 -171H139V-256L166 -228Q181 -251 204.5 -264Q228 -277 256.5 -277Q285 -277 309.5 -263Q334 -249 348.5 -224.5Q363 -200 363 -171Q363 -142 348.5 -117.5Q334 -93 309.5 -78.5Q285 -64 256 -64Z"/>
</svg>