<svg xmlns="http://www.w3.org/2000/svg" viewBox="0 -512 512 512">
	<path fill="#000000" d="M277 -256H299V-213H235V-299H277ZM395 -256L349 -301L376 -328L427 -277V-235H384V-213H320V-256ZM277 -373V-405H256V-363H277V-320H235V-363H192V-405H171V-363H128V-341H85V-363Q85 -380 97.5 -392.5Q110 -405 128 -405H299L349 -355L322 -328ZM427 -21Q427 -4 414.5 8.5Q402 21 384 21H341V-21H384V-43H427ZM384 -128H427V-64H384ZM256 21V-21H320V21ZM171 21V-21H235V21ZM128 21Q110 21 97.5 8.5Q85 -4 85 -21V-64H128V-21H149V21ZM85 -149H128V-85H85ZM85 -235H128V-171H85ZM384 -213H427V-149H384ZM85 -320H128V-256H85Z"/>
</svg>