<svg xmlns="http://www.w3.org/2000/svg" viewBox="0 -512 512 512">
	<path fill="#000000" d="M128 -405Q110 -405 97.5 -392.5Q85 -380 85 -363V-21Q85 -4 97.5 8.5Q110 21 128 21H384Q402 21 414.5 8.5Q427 -4 427 -21V-277L299 -405ZM277 -373L395 -256H277ZM211 -251H237V-231Q248 -231 256 -223Q264 -215 264 -204V-160L262 -157L281 -124Q291 -141 291 -160H317Q317 -126 295 -99L331 -37V-11L308 -24L275 -81Q252 -66 224 -66Q196 -66 173 -81L140 -24L117 -11V-37L186 -157L184 -160V-204Q184 -215 192 -223Q200 -231 211 -231ZM224 -204Q213 -204 208.5 -193.5Q204 -183 212 -175.5Q220 -168 230.5 -172Q241 -176 241 -187Q241 -194 236 -199Q231 -204 224 -204ZM206 -138L187 -104Q204 -93 224 -93Q244 -93 261 -104L242 -138Q234 -130 224 -130Q214 -130 206 -138Z"/>
</svg>