<svg xmlns="http://www.w3.org/2000/svg" viewBox="0 -512 512 512">
	<path fill="#000000" d="M405 -384H107Q89 -384 76.5 -371.5Q64 -359 64 -341V-43Q64 -25 76.5 -12.5Q89 0 107 0H405Q423 0 435.5 -12.5Q448 -25 448 -43V-341Q448 -359 435.5 -371.5Q423 -384 405 -384ZM171 -128H139L128 -171L117 -128H85L101 -192L85 -256H117L128 -213L139 -256H171L155 -192ZM331 -128H299V-224H277V-149H245V-224H224V-128H192V-213Q192 -231 204.5 -243.5Q217 -256 235 -256H288Q306 -256 318.5 -243.5Q331 -231 331 -213ZM427 -128H363V-256H395V-160H427Z"/>
</svg>