<svg xmlns="http://www.w3.org/2000/svg" viewBox="0 -512 512 512">
	<path fill="#000000" d="M273 21H128Q110 21 97.5 8.5Q85 -4 85 -21V-363Q85 -380 97.5 -392.5Q110 -405 128 -405H299L427 -277V-203Q414 -209 384 -213V-256H277V-363H128V-21H245Q254 -2 273 21ZM363 -192L316 -145L363 -98V-128Q385 -128 400.5 -112.5Q416 -97 416 -75Q416 -61 410 -51L433 -28Q448 -50 448 -75Q448 -110 423 -135Q398 -160 363 -160ZM410 -4L363 -53V-21Q340 -21 324.5 -36.5Q309 -52 309 -75Q309 -89 316 -98L292 -122Q277 -99 277 -75Q277 -39 302 -14Q327 11 363 11V43Z"/>
</svg>