<svg xmlns="http://www.w3.org/2000/svg" viewBox="0 -512 512 512">
	<path fill="#000000" d="M181 -192Q168 -192 158.5 -201.5Q149 -211 149 -224Q149 -237 158.5 -246.5Q168 -256 181.5 -256Q195 -256 204 -246.5Q213 -237 213 -224Q213 -211 204 -201.5Q195 -192 181 -192ZM299 -43Q277 -85 277 -117Q277 -124 278 -127L256 -149L149 -43ZM128 -21V-363H277V-256H384V-234Q388 -235 395 -235Q410 -235 427 -230V-277L299 -405H128Q110 -405 97.5 -392.5Q85 -380 85 -363V-21Q85 -4 97.5 8.5Q110 21 128 21H339Q320 -5 310 -21ZM469 -117Q469 -83 432 -27Q413 1 395 21L375 -2Q353 -31 339 -57Q320 -93 320 -117Q320 -148 342 -170Q364 -192 394.5 -192Q425 -192 447 -170Q469 -148 469 -117ZM420 -115Q420 -125 412 -133Q404 -141 394.5 -141Q385 -141 377 -133.5Q369 -126 369 -115.5Q369 -105 376.5 -97.5Q384 -90 395 -90Q406 -90 414 -98Q422 -106 420 -115Z"/>
</svg>