<svg xmlns="http://www.w3.org/2000/svg" viewBox="0 -512 512 512">
	<path fill="#000000" d="M469 -58V17Q469 27 461 35Q453 43 442 43H324Q314 43 306.5 34.5Q299 26 299 15V-60Q299 -69 307 -77Q315 -85 324 -85V-139Q324 -161 342.5 -176.5Q361 -192 384 -192Q407 -192 425.5 -176.5Q444 -161 444 -139V-128H416V-139Q416 -151 406.5 -158.5Q397 -166 384 -166Q371 -166 361.5 -158.5Q352 -151 352 -139V-85H444Q454 -85 461.5 -77Q469 -69 469 -58ZM128 -405Q110 -405 97.5 -392.5Q85 -380 85 -363V-21Q85 -4 97.5 8.5Q110 21 128 21H256V-60Q256 -89 277 -107L280 -108Q282 -110 282 -111V-139Q282 -166 296.5 -188Q311 -210 334.5 -222.5Q358 -235 384 -235Q401 -235 427 -226V-277L299 -405ZM277 -373L395 -256H277Z"/>
</svg>