<svg xmlns="http://www.w3.org/2000/svg" viewBox="0 -512 512 512">
	<path fill="#000000" d="M128 -405Q110 -405 97.5 -392.5Q85 -380 85 -363V-21Q85 -4 97.5 8.5Q110 21 128 21H277Q265 1 260 -21H128V-363H277V-256H384V-192H395Q410 -192 427 -188V-277L299 -405ZM256 -64Q258 -87 267 -107H171V-64ZM295 -149Q315 -170 341 -181V-192H171V-149ZM384 -139Q419 -139 444 -114L469 -139V-53H384L422 -91Q406 -107 384 -107Q362 -107 346.5 -91Q331 -75 331 -53Q331 -31 346.5 -15.5Q362 0 384 0Q397 0 408 -5.5Q419 -11 427 -21H463Q454 3 432.5 17.5Q411 32 384 32Q349 32 324 7Q299 -18 299 -53.5Q299 -89 324 -114Q349 -139 384 -139Z"/>
</svg>