<svg xmlns="http://www.w3.org/2000/svg" viewBox="0 -512 512 512">
	<path fill="#000000" d="M405 -384H107Q89 -384 76.5 -371.5Q64 -359 64 -341V-43Q64 -25 76.5 -12.5Q89 0 107 0H405Q423 0 435.5 -12.5Q448 -25 448 -43V-341Q448 -359 435.5 -371.5Q423 -384 405 -384ZM213 -224H160V-160H181V-192H213V-156Q213 -144 205.5 -136Q198 -128 186 -128H156Q144 -128 136 -136.5Q128 -145 128 -156V-226Q128 -238 135.5 -247Q143 -256 156 -256H183Q197 -256 205 -247.5Q213 -239 213 -228ZM277 -128H245V-256H277ZM373 -224H341V-203H373V-171H341V-128H309V-256H373Z"/>
</svg>