<svg xmlns="http://www.w3.org/2000/svg" viewBox="0 -512 512 512">
	<path fill="#000000" d="M299 -405H128Q110 -405 97.5 -392.5Q85 -380 85 -363V-21Q85 -4 97.5 8.5Q110 21 128 21H384Q402 21 414.5 8.5Q427 -4 427 -21V-277ZM384 -21H128V-363H277V-256H384ZM324 -218Q316 -226 304.5 -230.5Q293 -235 273 -235H192V-43H226V-113H273Q293 -113 303.5 -116.5Q314 -120 324 -128Q341 -142 341 -173Q341 -188 337.5 -198Q334 -208 324 -218ZM297 -149Q291 -144 285.5 -141.5Q280 -139 271 -139H226V-207H269Q286 -207 297 -196Q305 -188 305 -173Q305 -158 297 -149Z"/>
</svg>