<svg xmlns="http://www.w3.org/2000/svg" viewBox="0 -512 512 512">
	<path fill="#000000" d="M363 -64Q372 -64 378 -58Q384 -52 384 -43Q384 -34 378 -27.5Q372 -21 363 -21Q354 -21 347.5 -27.5Q341 -34 341 -43Q341 -52 347.5 -58Q354 -64 363 -64ZM363 -128Q320 -128 285 -104.5Q250 -81 235 -43Q250 -5 285 19Q320 43 363 43Q406 43 440.5 19Q475 -5 491 -43Q475 -81 440.5 -104.5Q406 -128 363 -128ZM363 11Q341 11 325 -5Q309 -21 309 -43Q309 -65 325 -80.5Q341 -96 363 -96Q385 -96 400.5 -80.5Q416 -65 416 -43Q416 -21 400.5 -5Q385 11 363 11ZM198 -21H128V-363H277V-256H384V-169Q405 -167 427 -159V-277L299 -405H128Q110 -405 97.5 -392.5Q85 -380 85 -363V-21Q85 -4 97.5 8.5Q110 21 128 21H224Q208 3 198 -21Z"/>
</svg>