<svg xmlns="http://www.w3.org/2000/svg" viewBox="0 -512 512 512">
	<path fill="#000000" d="M75 -384H107V-410Q107 -417 112 -422Q117 -427 124 -427H218Q225 -427 230 -422Q235 -417 235 -410V-384H267Q280 -384 289.5 -374.5Q299 -365 299 -352V-341H469V-21H299V-11Q299 3 289.5 12Q280 21 267 21H75Q61 21 52 12Q43 3 43 -11V-352Q43 -365 52 -374.5Q61 -384 75 -384ZM384 -299V-256H427V-299ZM299 -299V-256H341V-299ZM213 -299V-256H256V-299ZM299 -107V-64H341V-107ZM384 -107V-64H427V-107ZM213 -107V-64H256V-107Z"/>
</svg>