<svg xmlns="http://www.w3.org/2000/svg" viewBox="0 -512 512 512">
	<path fill="#000000" d="M74 -341Q67 -341 60.5 -336Q54 -331 53 -322.5Q52 -314 57 -307L149 -189V-63L227 15Q233 21 242 21Q251 21 257 15Q263 9 263 0Q263 -9 257 -15L192 -81V-204L91 -333Q85 -341 74 -341ZM461 -379Q455 -384 448 -384H149Q142 -384 135.5 -379Q129 -374 128 -365Q127 -356 132 -349L235 -219V-109Q233 -99 241 -92L326 -6Q333 0 341.5 0Q350 0 357 -6.5Q364 -13 363 -24V-219L465 -349Q470 -356 469 -365Q468 -374 461 -379ZM320 -234V-73L277 -116V-233L193 -341H404Z"/>
</svg>