<svg xmlns="http://www.w3.org/2000/svg" viewBox="0 -512 512 512">
	<path fill="#000000" d="M486 -36L463 -53L464 -64Q464 -70 463 -75L486 -92Q489 -95 487 -99L465 -136Q464 -139 459 -139L432 -128Q422 -135 414 -138L410 -166Q410 -171 405 -171H363Q358 -171 357 -166L353 -138Q343 -134 335 -128L308 -139Q303 -139 302 -136L281 -99Q278 -95 282 -92L304 -75Q304 -69 304 -64Q304 -59 304 -53L282 -36Q278 -33 281 -29L302 8Q303 11 308 11L335 0Q345 7 353 10L357 38Q358 43 363 43H405Q410 43 410 38L415 10Q423 6 432 0L459 11Q464 11 466 8L487 -29Q489 -33 486 -36ZM384 -32Q371 -32 361.5 -41.5Q352 -51 352 -64Q352 -77 361.5 -86.5Q371 -96 384 -96Q397 -96 406.5 -86.5Q416 -77 416 -64Q416 -51 406.5 -41.5Q397 -32 384 -32ZM376 -379Q370 -384 363 -384H64Q57 -384 50.5 -379Q44 -374 43 -365Q42 -356 47 -349L149 -219V-109Q148 -99 156 -92L241 -6Q244 -3 249 -1Q235 -31 235 -64Q235 -93 246 -120.5Q257 -148 277 -169V-219L380 -349Q385 -356 384 -365Q383 -374 376 -379ZM235 -234V-73L192 -116V-233L108 -341H319Z"/>
</svg>