<svg xmlns="http://www.w3.org/2000/svg" viewBox="0 -512 512 512">
	<path fill="#000000" d="M235 -320Q256 -320 275.5 -312Q295 -304 310 -289L256 -235H384V-363L340 -319Q320 -340 292.5 -351.5Q265 -363 235 -363Q198 -363 166 -346Q134 -329 113 -299.5Q92 -270 87 -235H130Q138 -271 167 -295.5Q196 -320 235 -320ZM355 -125Q377 -155 382 -192H339Q332 -155 302.5 -131Q273 -107 235 -107Q213 -107 193.5 -115Q174 -123 159 -138L213 -192H85V-64L129 -108Q150 -87 177 -75.5Q204 -64 235 -64Q285 -64 323 -93L427 11L459 -21Z"/>
</svg>