<svg xmlns="http://www.w3.org/2000/svg" viewBox="0 -512 512 512">
	<path fill="#000000" d="M256 -235Q274 -235 286.5 -222.5Q299 -210 299 -192Q299 -174 286.5 -161.5Q274 -149 256 -149Q238 -149 225.5 -161.5Q213 -174 213 -192Q213 -210 225.5 -222.5Q238 -235 256 -235ZM256 -277Q221 -277 196 -252Q171 -227 171 -192Q171 -157 196 -132Q221 -107 256 -107Q291 -107 316 -132Q341 -157 341 -192Q341 -227 316 -252Q291 -277 256 -277ZM320 -85H192V-43H320ZM320 -21H192V21H320ZM134 -222L224 -311L196 -343L105 -252ZM90 -267L179 -356L151 -388L60 -297ZM320 -85H192V-43H320ZM286 -314L375 -224L450 -299L361 -388Z"/>
</svg>