<svg xmlns="http://www.w3.org/2000/svg" viewBox="0 -512 512 512">
	<path fill="#000000" d="M469 -299H427V-171H469ZM469 -128H427V-85H469ZM64 -128V-149H43V-192H64V-213H107V-128ZM363 -192V-213H320V-128H363V-149H384V-192ZM341 -320H296Q290 -342 273.5 -358.5Q257 -375 235 -381V-405H192V-381Q170 -375 153.5 -358.5Q137 -342 131 -320H85V-277H341ZM341 21H85Q85 4 97.5 -8.5Q110 -21 128 -21V-256H299V-21Q316 -21 328.5 -8.5Q341 4 341 21ZM171 -171Q171 -153 183.5 -140.5Q196 -128 213.5 -128Q231 -128 243.5 -140.5Q256 -153 256 -170.5Q256 -188 243.5 -200.5Q231 -213 213.5 -213Q196 -213 183.5 -200.5Q171 -188 171 -171Z"/>
</svg>