<svg xmlns="http://www.w3.org/2000/svg" viewBox="0 -512 512 512">
	<path fill="#000000" d="M198 -279Q198 -279 198 -279ZM146 -304Q146 -304 146 -304ZM454 -265Q447 -281 434.5 -297Q422 -313 411 -319Q428 -286 433 -254V-253Q423 -277 407 -299Q398 -313 377 -337Q348 -370 334 -391L327 -403Q324 -409 324 -412Q324 -412 323 -412Q290 -394 271 -360Q255 -333 250 -305Q228 -304 208 -294Q204 -292 205 -287Q206 -285 208 -284Q210 -283 212 -284Q230 -292 250 -294H256Q271 -294 287 -290L293 -288L304 -283L313 -278Q337 -263 350 -240Q340 -246 327 -250Q312 -254 299 -252Q326 -238 337.5 -210Q349 -182 342 -152.5Q335 -123 312 -105Q286 -85 248 -86Q235 -87 221 -92Q217 -93 214 -94L211 -96Q190 -107 176 -125Q162 -143 160 -166L163 -172Q166 -178 173 -184Q182 -192 194 -197Q210 -203 231 -203Q236 -203 246 -212.5Q256 -222 257 -226Q257 -227 246 -232Q215 -248 205 -257L190 -271L185 -275Q177 -301 184 -327Q157 -315 133 -288Q127 -295 126 -316Q125 -329 125 -341Q124 -341 118 -337Q107 -330 97 -320Q86 -308 77 -296Q55 -263 49 -231L48 -230Q46 -220 45 -211L43 -194V-185Q43 -127 71.5 -78Q100 -29 149 -0.5Q198 28 256 28Q308 28 353 5Q398 -18 428 -58.5Q458 -99 467 -149L468 -157Q475 -215 454 -265Z"/>
</svg>