<svg xmlns="http://www.w3.org/2000/svg" viewBox="0 -512 512 512">
	<path fill="#000000" d="M107 -128V-149H85V-192H107V-213H149V-128ZM405 -192V-213H363V-128H405V-149H427V-192ZM384 -320H338Q333 -342 316.5 -358.5Q300 -375 277 -381V-405H235V-381Q212 -375 195.5 -358.5Q179 -342 174 -320H128V-277H384ZM384 21H128Q128 4 140.5 -8.5Q153 -21 171 -21V-256H341V-21Q359 -21 371.5 -8.5Q384 4 384 21ZM213 -171Q213 -153 225.5 -140.5Q238 -128 256 -128Q274 -128 286.5 -140.5Q299 -153 299 -170.5Q299 -188 286.5 -200.5Q274 -213 256 -213Q238 -213 225.5 -200.5Q213 -188 213 -171Z"/>
</svg>