<svg xmlns="http://www.w3.org/2000/svg" viewBox="0 -512 512 512">
	<path fill="#000000" d="M280 -226Q289 -235 288 -248V-252Q287 -260 276 -269L274 -271Q269 -276 267 -278L262 -288Q258 -280 260 -269L261 -261Q263 -253 262 -247Q261 -241 256 -235.5Q251 -230 243 -228Q248 -223 255 -220.5Q262 -218 270 -221ZM43 21V-299Q43 -307 49.5 -313.5Q56 -320 64 -320H149V-405H363V-320H448Q456 -320 462.5 -313.5Q469 -307 469 -299V21H405V-85L404 -92Q401 -100 395 -107Q385 -116 369 -121Q349 -128 320 -128Q291 -128 271 -121Q255 -116 245 -107Q239 -100 236 -92L235 -85V21H171V-85H85V21ZM309 -285L302 -293L283 -309Q272 -319 270 -334Q268 -349 275 -363Q263 -360 252 -350Q234 -335 227.5 -312Q221 -289 230 -267V-263Q230 -260 227 -258.5Q224 -257 221 -260L220 -262Q212 -272 210.5 -285Q209 -298 215 -309Q203 -300 197 -285Q191 -270 192 -255L195 -241Q197 -232 202 -224Q209 -212 221 -204Q233 -196 247 -194Q283 -190 303 -209Q316 -221 320 -238Q324 -255 317 -271Z"/>
</svg>