<svg xmlns="http://www.w3.org/2000/svg" viewBox="0 -512 512 512">
	<path fill="#000000" d="M469 21H43V-21H469ZM469 -320H43V-384H469ZM427 -299V-43H363V-213L347 -219Q327 -225 307 -229Q280 -235 256 -235Q232 -235 205 -229Q185 -225 165 -219L149 -213V-43H85V-299ZM309 -135L317 -121Q324 -105 320 -88Q316 -71 303 -59Q292 -49 277.5 -45.5Q263 -42 248 -43.5Q233 -45 221 -53.5Q209 -62 202 -74Q197 -81 195 -90L192 -104Q191 -120 197 -135Q203 -150 215 -159Q209 -148 210.5 -134.5Q212 -121 220 -111L221 -109Q224 -107 227 -108.5Q230 -110 230 -113V-116Q221 -138 227.5 -161.5Q234 -185 252 -200Q263 -209 275 -212Q268 -199 270 -184Q272 -169 283 -159L302 -143ZM280 -76Q289 -85 288 -97V-101Q286 -110 276 -119Q269 -124 267 -128L262 -138Q258 -129 260 -118L261 -112Q263 -103 262 -97Q261 -91 256 -85.5Q251 -80 243 -78Q248 -73 255 -70.5Q262 -68 270 -70Z"/>
</svg>