<svg xmlns="http://www.w3.org/2000/svg" viewBox="0 -512 512 512">
	<path fill="#000000" d="M334 -209Q330 -214 321 -224L318 -227Q311 -232 298 -242Q281 -255 273 -262Q250 -285 245 -319.5Q240 -354 255 -384Q229 -378 202 -356Q160 -322 145.5 -269Q131 -216 151 -166Q153 -162 153 -159Q153 -151 145.5 -148Q138 -145 131 -151Q129 -152 128 -154Q110 -177 107 -207Q104 -237 116 -264Q90 -242 76 -208Q62 -174 64 -139Q67 -118 70 -107Q74 -90 85 -70Q103 -43 131 -24.5Q159 -6 191 -2Q228 3 260 -5Q296 -13 321 -36Q350 -63 359 -101.5Q368 -140 353 -177L351 -182Q346 -192 334 -209ZM267 -75Q256 -65 243 -62Q227 -56 209 -62Q193 -67 181 -79Q199 -84 211 -96Q223 -108 226 -123Q229 -135 223 -157L220 -171Q216 -195 224 -215Q232 -199 237.5 -192Q243 -185 256 -173.5Q269 -162 274 -155Q283 -145 285 -132Q287 -128 287 -123Q287 -110 281.5 -96.5Q276 -83 267 -75ZM448 -171H405V-299H448ZM448 -85H405V-128H448Z"/>
</svg>