<svg xmlns="http://www.w3.org/2000/svg" viewBox="0 -512 512 512">
	<path fill="#000000" d="M445 37L472 10L51 -411L24 -384L171 -237V-21Q153 -21 140.5 -8.5Q128 4 128 21H384Q384 4 371.5 -8.5Q359 -21 341 -21V-66ZM218 -190L275 -133Q266 -128 256 -128Q238 -128 225.5 -140.5Q213 -153 213 -171Q213 -181 218 -190ZM239 -277L180 -336Q188 -353 202.5 -364.5Q217 -376 235 -381V-405H277V-381Q300 -375 316.5 -358.5Q333 -342 338 -320H384V-277ZM405 -213V-192H427V-149H405V-128H388L363 -154V-213ZM107 -128V-149H85V-192H107V-213H149V-128ZM341 -175L260 -256H341Z"/>
</svg>