<svg xmlns="http://www.w3.org/2000/svg" viewBox="0 -512 512 512">
	<path fill="#000000" d="M377 -209Q373 -214 363 -224L360 -227Q354 -232 340 -242Q324 -255 316 -262Q292 -285 287 -319.5Q282 -354 298 -384Q272 -378 244 -356Q203 -322 188.5 -269Q174 -216 193 -166Q195 -162 195 -159Q195 -151 187.5 -148Q180 -145 174 -151Q172 -152 171 -154Q153 -177 150 -207Q147 -237 159 -264Q133 -242 119 -208Q105 -174 107 -139Q109 -118 113 -107Q117 -90 128 -70Q145 -43 173.5 -24.5Q202 -6 234 -2Q270 3 303 -5Q338 -13 363 -36Q393 -63 402 -101.5Q411 -140 396 -177L393 -182Q389 -192 377 -209ZM309 -75Q298 -65 286 -62Q269 -56 251 -62Q236 -67 224 -79Q242 -84 253.5 -96Q265 -108 269 -123Q272 -135 266 -157L263 -171Q259 -195 267 -215Q274 -199 280 -192Q286 -185 299 -173.5Q312 -162 317 -155Q325 -145 328 -132Q329 -128 329 -123Q330 -110 324.5 -96.5Q319 -83 309 -75Z"/>
</svg>