<svg xmlns="http://www.w3.org/2000/svg" viewBox="0 -512 512 512">
	<path fill="#000000" d="M256 -21L272 -85Q220 -89 178 -109Q136 -129 123 -158Q119 -141 114 -132Q104 -115 84 -110Q71 -107 43 -107Q59 -107 67 -129Q75 -148 75 -181.5Q75 -215 67 -234Q59 -256 43 -256Q71 -256 84 -253Q104 -248 114 -231Q119 -222 123 -204Q133 -227 161 -244.5Q189 -262 227 -271L192 -341Q235 -341 254 -340Q287 -337 306 -327Q322 -319 335 -303Q345 -291 356 -269Q405 -258 436 -234Q469 -210 469 -181Q469 -152 435 -127Q402 -104 352 -93Q319 -49 302 -36Q290 -26 278 -23Q270 -21 256 -21ZM363 -213Q354 -213 347.5 -207Q341 -201 341 -192Q341 -183 347.5 -177Q354 -171 363 -171Q372 -171 378 -177Q384 -183 384 -192Q384 -201 378 -207Q372 -213 363 -213Z"/>
</svg>