<svg xmlns="http://www.w3.org/2000/svg" viewBox="0 -512 512 512">
	<path fill="#000000" d="M128 -384Q138 -384 143.5 -378Q149 -372 149 -363V-343Q192 -363 235 -363Q258 -363 275 -355Q285 -350 300 -338Q311 -329 318 -325Q328 -320 341 -320Q381 -320 408 -341Q421 -352 427 -363V-192L422 -185Q416 -177 408 -171Q396 -161 382 -156Q363 -149 340.5 -149Q318 -149 301 -157Q291 -162 276 -174Q265 -183 258 -187Q248 -192 235 -192Q213 -192 194 -185Q180 -180 168 -171Q160 -164 154 -156L149 -149V0H107V-363Q107 -372 112.5 -378Q118 -384 128 -384ZM450 -117L405 -73L361 -117L331 -87L375 -43L331 2L361 32L405 -13L450 32L480 2L435 -43L480 -87Z"/>
</svg>