<svg xmlns="http://www.w3.org/2000/svg" viewBox="0 -512 512 512">
	<path fill="#000000" d="M128 -384Q137 -384 143 -378Q149 -372 149 -363V-344Q195 -363 235 -363Q258 -363 275 -355Q285 -350 300 -338Q311 -329 318 -325Q328 -320 341 -320Q381 -320 408 -341Q421 -352 427 -363V-192L422 -185Q416 -177 408 -171Q396 -161 382 -156Q363 -149 340.5 -149Q318 -149 301 -157Q291 -162 276 -174Q265 -183 258 -187Q248 -192 235 -192Q213 -192 194 -185Q180 -180 168 -171Q160 -164 154 -156L149 -149V0H107V-363Q107 -372 113 -378Q119 -384 128 -384ZM149 -293V-203L162 -211Q178 -220 194 -226Q216 -235 235 -235Q249 -235 263 -228Q272 -224 288 -213.5Q304 -203 313 -199Q327 -192 341 -192Q360 -192 371 -198Q379 -201 382 -208L384 -213V-288L371 -283Q355 -277 341 -277Q327 -277 313 -284Q304 -288 288 -298.5Q272 -309 263 -313Q249 -320 235 -320Q208 -320 176 -307Q160 -300 149 -293Z"/>
</svg>