<svg xmlns="http://www.w3.org/2000/svg" viewBox="0 -512 512 512">
	<path fill="#000000" d="M471 11L51 -412L23 -384L107 -301V0H149V-149L156 -158Q165 -169 177 -177Q195 -187 218 -190L446 38ZM149 -203V-258L186 -222Q164 -213 149 -203ZM201 -316L166 -350Q205 -363 235 -363Q258 -363 275 -355Q285 -350 300 -338Q311 -329 318 -325Q328 -320 341 -320Q381 -320 408 -341Q421 -352 427 -363V-192L421 -183Q412 -173 401 -166Q385 -155 365 -151L320 -196Q333 -192 341 -192Q360 -192 371 -198Q379 -201 382 -208L384 -213V-288L371 -283Q355 -277 341 -277Q327 -277 313 -284Q304 -288 288 -298.5Q272 -309 263 -313Q249 -320 235.5 -320Q222 -320 201 -316Z"/>
</svg>