<svg xmlns="http://www.w3.org/2000/svg" viewBox="0 -512 512 512">
	<path fill="#000000" d="M149 -213H21V-171H149ZM196 -282L150 -328L120 -298L166 -252ZM277 -427H235V-299H277ZM392 -298L362 -328L316 -282L346 -252ZM363 -213V-171H491V-213ZM256 -256Q229 -256 210.5 -237.5Q192 -219 192 -192Q192 -165 210.5 -146.5Q229 -128 256 -128Q283 -128 301.5 -146.5Q320 -165 320 -192Q320 -219 301.5 -237.5Q283 -256 256 -256ZM316 -102L362 -56L392 -86L346 -132ZM120 -86L150 -56L196 -102L166 -132ZM235 43H277V-85H235Z"/>
</svg>