<svg xmlns="http://www.w3.org/2000/svg" viewBox="0 -512 512 512">
	<path fill="#000000" d="M384 -149H427V-85H491V-43H427V21H384V-43H320V-85H384ZM128 21Q101 21 82.5 2.5Q64 -16 64 -43Q64 -62 75 -78L192 -281V-320Q183 -320 177 -326.5Q171 -333 171 -341V-363Q171 -380 183.5 -392.5Q196 -405 213 -405H299Q316 -405 328.5 -392.5Q341 -380 341 -363V-341Q341 -333 335 -326.5Q329 -320 320 -320V-281L373 -188Q341 -180 316.5 -156.5Q292 -133 283 -101L191 -193L111 -55Q107 -49 107 -43Q107 -34 113 -27.5Q119 -21 128 -21H285Q293 3 310 21ZM277 -235Q269 -235 262.5 -228.5Q256 -222 256 -213.5Q256 -205 262.5 -198.5Q269 -192 277.5 -192Q286 -192 292.5 -198.5Q299 -205 299 -213.5Q299 -222 292.5 -228.5Q286 -235 277 -235Z"/>
</svg>