<svg xmlns="http://www.w3.org/2000/svg" viewBox="0 -512 512 512">
	<path fill="#000000" d="M405 -128Q405 -87 385 -53Q365 -19 331 1Q297 21 256 21Q215 21 181 1Q147 -19 127 -53Q107 -87 107 -128Q107 -172 130.5 -208.5Q154 -245 192 -263V-341Q192 -350 198.5 -356.5Q205 -363 213 -363H224L203 -405H309L288 -363H299Q307 -363 313.5 -356.5Q320 -350 320 -341V-263Q358 -245 381.5 -208.5Q405 -172 405 -128ZM235 -320V-233Q198 -225 173.5 -195.5Q149 -166 149 -128L151 -109L192 -151L279 -64L361 -146Q356 -179 332.5 -202.5Q309 -226 277 -233V-320ZM279 -192Q288 -192 294 -185.5Q300 -179 300 -170.5Q300 -162 294 -155.5Q288 -149 279 -149Q270 -149 263.5 -155.5Q257 -162 257 -171Q257 -180 263.5 -186Q270 -192 279 -192Z"/>
</svg>