<svg xmlns="http://www.w3.org/2000/svg" viewBox="0 -512 512 512">
	<path fill="#000000" d="M330 -109L360 -140L405 -94L451 -139L481 -109L435 -64L481 -19L451 12L405 -34L360 11L330 -19L375 -64ZM107 -43Q107 -34 113 -27.5Q119 -21 128 -21H285Q293 3 310 21H128Q101 21 82.5 2.5Q64 -16 64 -43Q64 -62 75 -78L192 -281V-320Q183 -320 177 -326.5Q171 -333 171 -341V-363Q171 -380 183.5 -392.5Q196 -405 213 -405H299Q316 -405 328.5 -392.5Q341 -380 341 -363V-341Q341 -333 335 -326.5Q329 -320 320 -320V-281L373 -188Q352 -183 335 -171L277 -270V-363H235V-270L111 -55Q107 -49 107 -43Z"/>
</svg>