<svg xmlns="http://www.w3.org/2000/svg" viewBox="0 -512 512 512">
	<path fill="#000000" d="M405 -128Q405 -87 385 -53Q365 -19 331 1Q297 21 256 21Q215 21 181 1Q147 -19 127 -53Q107 -87 107 -128Q107 -172 130.5 -208.5Q154 -245 192 -263V-341Q192 -350 198.5 -356.5Q205 -363 213 -363H224L203 -405H309L288 -363H299Q307 -363 313.5 -356.5Q320 -350 320 -341V-263Q358 -245 381.5 -208.5Q405 -172 405 -128ZM235 -320V-233Q198 -225 173.5 -195.5Q149 -166 149 -128Q149 -99 163.5 -74.5Q178 -50 202.5 -35.5Q227 -21 256 -21Q285 -21 309.5 -35.5Q334 -50 348.5 -74.5Q363 -99 363 -128Q363 -166 338.5 -195.5Q314 -225 277 -233V-320Z"/>
</svg>