<svg xmlns="http://www.w3.org/2000/svg" viewBox="0 -512 512 512">
	<path fill="#000000" d="M107 -43Q107 -34 113 -27.5Q119 -21 128 -21H384Q393 -21 399 -27.5Q405 -34 405 -43Q405 -49 401 -55L277 -270V-363H235V-270L111 -55Q107 -49 107 -43ZM128 21Q101 21 82.5 2.5Q64 -16 64 -43Q64 -62 75 -77L192 -281V-320Q183 -320 177 -326Q171 -332 171 -341V-363Q171 -380 183.5 -392.5Q196 -405 213 -405H299Q316 -405 328.5 -392.5Q341 -380 341 -363V-341Q341 -332 335 -326Q329 -320 320 -320V-281L437 -77Q448 -62 448 -43Q448 -16 429.5 2.5Q411 21 384 21ZM277 -107L306 -135L347 -64H165L222 -162ZM267 -192Q271 -192 274 -189Q277 -186 277 -181.5Q277 -177 274 -174Q271 -171 266.5 -171Q262 -171 259 -174Q256 -177 256 -181.5Q256 -186 259 -189Q262 -192 267 -192Z"/>
</svg>