<svg xmlns="http://www.w3.org/2000/svg" viewBox="0 -512 512 512">
	<path fill="#000000" d="M341 -341Q332 -341 326 -335Q320 -329 320 -320Q320 -311 326 -305Q332 -299 341 -299Q350 -299 356.5 -305Q363 -311 363 -320Q363 -329 356.5 -335Q350 -341 341 -341ZM341 -405Q298 -405 263.5 -381.5Q229 -358 213 -320Q229 -282 263.5 -258.5Q298 -235 341 -235Q384 -235 419 -258.5Q454 -282 469 -320Q454 -358 419 -381.5Q384 -405 341 -405ZM341 -373Q363 -373 379 -357.5Q395 -342 395 -320Q395 -298 379 -282.5Q363 -267 341 -267Q319 -267 303.5 -282.5Q288 -298 288 -320Q288 -342 303.5 -357.5Q319 -373 341 -373ZM64 -405V-149H128V43L277 -213H192L216 -267Q193 -292 181 -320Q192 -347 212 -369Q232 -391 258 -405Z"/>
</svg>