<svg xmlns="http://www.w3.org/2000/svg" viewBox="0 -512 512 512">
	<path fill="#000000" d="M320 -85H363V-128H320ZM320 -341H363V-384H320ZM107 -299H64V-43Q64 -25 76.5 -12.5Q89 0 107 0H363V-43H107ZM405 -85Q423 -85 435.5 -97.5Q448 -110 448 -128H405ZM405 -256H448V-299H405ZM405 -171H448V-213H405ZM192 -85V-128H149Q149 -110 161.5 -97.5Q174 -85 192 -85ZM277 -384H235V-341H277ZM405 -384V-341H448Q448 -359 435.5 -371.5Q423 -384 405 -384ZM277 -128H235V-85H277ZM192 -384Q174 -384 161.5 -371.5Q149 -359 149 -341H192ZM192 -213H149V-171H192ZM192 -299H149V-256H192Z"/>
</svg>