<svg xmlns="http://www.w3.org/2000/svg" viewBox="0 -512 512 512">
	<path fill="#000000" d="M235 -320Q235 -329 241 -335Q247 -341 256 -341Q265 -341 271 -335Q277 -329 277 -320Q277 -311 271 -305Q265 -299 256 -299Q247 -299 241 -305Q235 -311 235 -320ZM171 -256Q179 -256 185.5 -262.5Q192 -269 192 -277.5Q192 -286 185.5 -292.5Q179 -299 170.5 -299Q162 -299 155.5 -292.5Q149 -286 149 -277.5Q149 -269 155.5 -262.5Q162 -256 171 -256ZM128 -341Q128 -350 121.5 -356.5Q115 -363 106.5 -363Q98 -363 91.5 -356.5Q85 -350 85 -341.5Q85 -333 91.5 -326.5Q98 -320 106.5 -320Q115 -320 121.5 -326.5Q128 -333 128 -341ZM192 -363Q201 -363 207 -369Q213 -375 213 -384Q213 -393 207 -399Q201 -405 192 -405Q183 -405 177 -399Q171 -393 171 -384Q171 -375 177 -369Q183 -363 192 -363ZM320 -363Q329 -363 335 -369Q341 -375 341 -384Q341 -393 335 -399Q329 -405 320 -405Q311 -405 305 -399Q299 -393 299 -384Q299 -375 305 -369Q311 -363 320 -363ZM405 -363Q397 -363 390.5 -356.5Q384 -350 384 -341.5Q384 -333 390.5 -326.5Q397 -320 405.5 -320Q414 -320 420.5 -326.5Q427 -333 427 -341.5Q427 -350 420.5 -356.5Q414 -363 405 -363ZM320 -277Q320 -269 326.5 -262.5Q333 -256 341.5 -256Q350 -256 356.5 -262.5Q363 -269 363 -277.5Q363 -286 356.5 -292.5Q350 -299 341.5 -299Q333 -299 326.5 -292.5Q320 -286 320 -277ZM395 -169Q395 -146 380 -128Q395 -109 395 -87Q395 -59 375 -39.5Q355 -20 327 -20H318Q310 -2 293.5 9.5Q277 21 256 21Q235 21 218.5 9.5Q202 -2 194 -20H185Q157 -20 137 -39.5Q117 -59 117 -87Q117 -110 132 -128Q117 -147 117 -169Q117 -197 137 -216.5Q157 -236 185 -236H194Q202 -254 218.5 -265.5Q235 -277 256 -277Q277 -277 293.5 -265.5Q310 -254 318 -236H327Q355 -236 375 -216.5Q395 -197 395 -169ZM160 -169Q160 -162 164 -156Q168 -150 174 -147L193 -139Q197 -162 216 -177L198 -189Q192 -193 185 -193Q175 -193 167.5 -186Q160 -179 160 -169ZM216 -79Q197 -94 193 -117L174 -109Q168 -106 164 -100Q160 -94 160 -87Q160 -77 167.5 -70Q175 -63 185 -63Q193 -63 199 -67ZM280 -45L278 -68Q267 -64 256 -64Q245 -64 235 -68L232 -45Q232 -35 239 -28Q246 -21 256 -21Q266 -21 273 -28Q280 -35 280 -45ZM280 -211Q280 -221 273 -228Q266 -235 256 -235Q246 -235 239 -228Q232 -221 232 -211L235 -188Q245 -192 256 -192Q267 -192 278 -188ZM352 -87Q352 -94 348 -100Q344 -106 338 -109L319 -118Q315 -94 296 -79L314 -67Q320 -63 327 -63Q337 -63 344.5 -70Q352 -77 352 -87ZM352 -169Q352 -179 344.5 -186Q337 -193 327 -193Q320 -193 313 -189L296 -177Q315 -162 319 -139L337 -147Q344 -150 348 -156Q352 -162 352 -169Z"/>
</svg>