<svg xmlns="http://www.w3.org/2000/svg" viewBox="0 -512 512 512">
	<path fill="#000000" d="M64 -171Q64 -119 90 -74.5Q116 -30 160 -4.5Q204 21 256 21Q256 -31 230 -75Q204 -119 160 -145Q116 -171 64 -171ZM116 -119Q147 -107 170 -84Q193 -61 204 -31Q173 -42 150 -65Q127 -88 116 -119ZM256 21Q308 21 352 -4.5Q396 -30 422 -74.5Q448 -119 448 -171Q396 -171 352 -145Q308 -119 282 -75Q256 -31 256 21ZM308 -31Q319 -61 342 -84.5Q365 -108 396 -119Q385 -88 361.5 -65Q338 -42 308 -31ZM256 -149Q281 -149 305 -159Q329 -169 347 -187Q365 -205 374.5 -228.5Q384 -252 384 -277V-384Q359 -384 338 -376Q320 -368 307 -354L256 -405L205 -354Q192 -368 174 -376Q153 -384 128 -384V-277Q128 -252 137.5 -228.5Q147 -205 165 -187Q183 -169 207 -159Q231 -149 256 -149ZM171 -328L204 -293L256 -345L308 -293L341 -328V-277Q341 -242 316 -217Q291 -192 256 -192Q221 -192 196 -217Q171 -242 171 -277Z"/>
</svg>