<svg xmlns="http://www.w3.org/2000/svg" viewBox="0 -512 512 512">
	<path fill="#000000" d="M64 -171Q64 -119 90 -74.5Q116 -30 160 -4.5Q204 21 256 21Q256 -31 230 -75Q204 -119 160 -145Q116 -171 64 -171ZM256 -331Q278 -331 293.5 -315Q309 -299 309 -277Q309 -255 293.5 -239.5Q278 -224 256 -224Q234 -224 218.5 -239.5Q203 -255 203 -277Q203 -299 218.5 -315Q234 -331 256 -331ZM119 -229Q119 -207 135 -191.5Q151 -176 173 -176Q189 -176 203 -185V-181Q203 -159 218.5 -143.5Q234 -128 256 -128Q278 -128 293.5 -143.5Q309 -159 309 -181V-185Q323 -176 339 -176Q361 -176 377 -191.5Q393 -207 393 -229Q393 -245 384.5 -258Q376 -271 362 -277Q376 -284 384.5 -297Q393 -310 393 -325Q393 -347 377 -363Q361 -379 339 -379Q322 -379 309 -369V-373Q309 -395 293.5 -411Q278 -427 256 -427Q234 -427 218.5 -411Q203 -395 203 -373V-369Q190 -379 173 -379Q151 -379 135 -363Q119 -347 119 -325Q119 -310 127.5 -297Q136 -284 150 -277Q136 -271 127.5 -258Q119 -245 119 -229ZM256 21Q308 21 352 -4.5Q396 -30 422 -74.5Q448 -119 448 -171Q396 -171 351.5 -145Q307 -119 281.5 -75Q256 -31 256 21Z"/>
</svg>