<svg xmlns="http://www.w3.org/2000/svg" viewBox="0 -512 512 512">
	<path fill="#000000" d="M395 -192Q426 -192 447.5 -214Q469 -236 469 -267Q469 -304 450.5 -336Q432 -368 400 -386.5Q368 -405 331 -405Q300 -405 278 -383.5Q256 -362 256 -331Q256 -362 234 -383.5Q212 -405 181 -405Q144 -405 112 -386.5Q80 -368 61.5 -336Q43 -304 43 -267Q43 -236 64.5 -214Q86 -192 117 -192Q86 -192 64.5 -170Q43 -148 43 -117Q43 -80 61.5 -48Q80 -16 112 2.5Q144 21 181 21Q212 21 234 -0.5Q256 -22 256 -53Q256 -22 278 -0.5Q300 21 331 21Q368 21 400 2.5Q432 -16 450.5 -48Q469 -80 469 -117Q469 -148 447.5 -170Q426 -192 395 -192ZM256 -107Q221 -107 196 -132Q171 -157 171 -192Q171 -227 196 -252Q221 -277 256 -277Q291 -277 316 -252Q341 -227 341 -192Q341 -157 316 -132Q291 -107 256 -107ZM309 -192Q309 -170 293.5 -154.5Q278 -139 256 -139Q234 -139 218.5 -154.5Q203 -170 203 -192Q203 -214 218.5 -229.5Q234 -245 256 -245Q278 -245 293.5 -229.5Q309 -214 309 -192Z"/>
</svg>