<svg xmlns="http://www.w3.org/2000/svg" viewBox="0 -512 512 512">
	<path fill="#000000" d="M185 -169Q157 -169 137 -188.5Q117 -208 117 -236Q117 -259 132 -277Q117 -296 117 -319Q117 -346 137 -365.5Q157 -385 185 -385H194Q202 -404 218.5 -415.5Q235 -427 256 -427Q277 -427 293.5 -415.5Q310 -404 318 -385H327Q355 -385 375 -365.5Q395 -346 395 -319Q395 -296 380 -277Q395 -258 395 -236Q395 -209 375 -189Q355 -169 327 -169L318 -170Q310 -151 293.5 -139.5Q277 -128 256 -128Q235 -128 218.5 -139.5Q202 -151 194 -170ZM256 -171Q266 -171 273 -177.5Q280 -184 280 -194L278 -217Q267 -213 256 -213Q245 -213 235 -217L232 -194Q232 -184 239 -177.5Q246 -171 256 -171ZM327 -212Q337 -212 344.5 -219Q352 -226 352 -236Q352 -243 348 -249Q344 -255 338 -258L319 -267Q315 -244 296 -228L314 -216Q320 -212 327 -212ZM313 -339L296 -327Q315 -311 319 -288L337 -297Q344 -300 348 -306Q352 -312 352 -319Q352 -329 344.5 -336Q337 -343 327 -343Q320 -343 313 -339ZM256 -384Q246 -384 239 -377Q232 -370 232 -361L235 -337Q245 -341 256 -341Q267 -341 278 -337L280 -361Q280 -370 273 -377Q266 -384 256 -384ZM185 -343Q175 -343 167.5 -336Q160 -329 160 -319Q160 -312 164 -306Q168 -300 174 -297L193 -288Q197 -311 216 -327L198 -339Q192 -343 185 -343ZM174 -258Q168 -255 164 -249Q160 -243 160 -236Q160 -226 167.5 -219Q175 -212 185 -212Q193 -212 199 -216L216 -228Q197 -243 193 -267ZM256 21Q204 21 160 -4.5Q116 -30 90 -74.5Q64 -119 64 -171Q116 -171 160 -145Q204 -119 230 -75Q256 -31 256 21Q256 -31 282 -75Q308 -119 352 -145Q396 -171 448 -171Q448 -119 422 -74.5Q396 -30 352 -4.5Q308 21 256 21ZM308 -31Q338 -42 361.5 -65Q385 -88 396 -119Q366 -107 342.5 -84Q319 -61 308 -31ZM116 -119Q127 -88 150.5 -65Q174 -42 204 -31Q193 -61 170 -84Q147 -107 116 -119Z"/>
</svg>