<svg xmlns="http://www.w3.org/2000/svg" viewBox="0 -512 512 512">
	<path fill="#000000" d="M393 -176Q393 -198 377 -213.5Q361 -229 339 -229Q322 -229 309 -220V-224Q309 -246 293.5 -261.5Q278 -277 256 -277Q234 -277 218.5 -261.5Q203 -246 203 -224V-220Q190 -229 173 -229Q151 -229 135 -213.5Q119 -198 119 -176Q119 -160 127.5 -147.5Q136 -135 150 -128Q136 -121 127.5 -108.5Q119 -96 119 -80Q119 -58 135 -42.5Q151 -27 173 -27Q189 -27 203 -36V-32Q203 -10 218.5 5.5Q234 21 256 21Q278 21 293.5 5.5Q309 -10 309 -32V-36Q323 -27 339 -27Q361 -27 377 -42.5Q393 -58 393 -80Q393 -96 384.5 -108.5Q376 -121 362 -128Q376 -135 384.5 -147.5Q393 -160 393 -176ZM256 -75Q234 -75 218.5 -90.5Q203 -106 203 -128Q203 -150 218.5 -165.5Q234 -181 256 -181Q278 -181 293.5 -165.5Q309 -150 309 -128Q309 -106 293.5 -90.5Q278 -75 256 -75ZM235 -320Q235 -329 241 -335Q247 -341 256 -341Q265 -341 271 -335Q277 -329 277 -320Q277 -311 271 -305Q265 -299 256 -299Q247 -299 241 -305Q235 -311 235 -320ZM149 -277Q149 -286 155.5 -292.5Q162 -299 170.5 -299Q179 -299 185.5 -292.5Q192 -286 192 -277.5Q192 -269 185.5 -262.5Q179 -256 170.5 -256Q162 -256 155.5 -262.5Q149 -269 149 -277ZM107 -320Q98 -320 91.5 -326.5Q85 -333 85 -341.5Q85 -350 91.5 -356.5Q98 -363 106.5 -363Q115 -363 121.5 -356.5Q128 -350 128 -341.5Q128 -333 121.5 -326.5Q115 -320 107 -320ZM171 -384Q171 -393 177 -399Q183 -405 192 -405Q201 -405 207 -399Q213 -393 213 -384Q213 -375 207 -369Q201 -363 192 -363Q183 -363 177 -369Q171 -375 171 -384ZM299 -384Q299 -393 305 -399Q311 -405 320 -405Q329 -405 335 -399Q341 -393 341 -384Q341 -375 335 -369Q329 -363 320 -363Q311 -363 305 -369Q299 -375 299 -384ZM427 -341Q427 -333 420.5 -326.5Q414 -320 405.5 -320Q397 -320 390.5 -326.5Q384 -333 384 -341.5Q384 -350 390.5 -356.5Q397 -363 405.5 -363Q414 -363 420.5 -356.5Q427 -350 427 -341ZM341 -299Q350 -299 356.5 -292.5Q363 -286 363 -277.5Q363 -269 356.5 -262.5Q350 -256 341.5 -256Q333 -256 326.5 -262.5Q320 -269 320 -277.5Q320 -286 326.5 -292.5Q333 -299 341 -299Z"/>
</svg>