<svg xmlns="http://www.w3.org/2000/svg" viewBox="0 -512 512 512">
	<path fill="#000000" d="M64 -171Q64 -119 90 -74.5Q116 -30 160 -4.5Q204 21 256 21Q256 -31 230 -75Q204 -119 160 -145Q116 -171 64 -171ZM256 21Q308 21 352 -4.5Q396 -30 422 -74.5Q448 -119 448 -171Q396 -171 352 -145Q308 -119 282 -75Q256 -31 256 21ZM384 -384V-277Q384 -252 374.5 -228.5Q365 -205 347 -187Q329 -169 305 -159Q281 -149 256 -149Q231 -149 207 -159Q183 -169 165 -187Q147 -205 137.5 -228.5Q128 -252 128 -277V-384Q153 -384 174 -376Q192 -368 205 -354L256 -405L307 -354Q320 -368 338 -376Q359 -384 384 -384Z"/>
</svg>