<svg xmlns="http://www.w3.org/2000/svg" viewBox="0 -512 512 512">
	<path fill="#000000" d="M405 -43H320V0H405Q423 0 435.5 -12.5Q448 -25 448 -43V-128H405ZM405 -384H320V-341H405V-256H448V-341Q448 -359 435.5 -371.5Q423 -384 405 -384ZM107 -341H192V-384H107Q89 -384 76.5 -371.5Q64 -359 64 -341V-256H107ZM107 -128H64V-43Q64 -25 76.5 -12.5Q89 0 107 0H192V-43H107ZM171 -299Q153 -299 140.5 -286.5Q128 -274 128 -256V-85H171V-171H213V-85H256V-256Q256 -274 243.5 -286.5Q231 -299 213 -299ZM171 -256H213V-213H171ZM277 -299V-85H320V-171H363V-213H320V-256H384V-299Z"/>
</svg>