<svg xmlns="http://www.w3.org/2000/svg" viewBox="0 -512 512 512">
	<path fill="#000000" d="M405 -43H320V0H405Q423 0 435.5 -12.5Q448 -25 448 -43V-128H405ZM405 -384H320V-341H405V-256H448V-341Q448 -359 435.5 -371.5Q423 -384 405 -384ZM107 -341H192V-384H107Q89 -384 76.5 -371.5Q64 -359 64 -341V-256H107ZM107 -128H64V-43Q64 -25 76.5 -12.5Q89 0 107 0H192V-43H107ZM149 -213H192V-171H149ZM235 -213H277V-171H235ZM320 -213H363V-171H320ZM149 -299H192V-256H149ZM235 -299H277V-256H235ZM320 -299H363V-256H320ZM149 -128H192V-85H149ZM235 -128H277V-85H235ZM320 -128H363V-85H320Z"/>
</svg>