<svg xmlns="http://www.w3.org/2000/svg" viewBox="0 -512 512 512">
	<path fill="#000000" d="M192 -363V-277H128V-363ZM85 -107V-171H43V-107ZM43 -192H85V-256H43ZM384 -277H469Q469 -295 456.5 -307.5Q444 -320 427 -320H384ZM469 -171H427V-107H469ZM427 -256V-192H469V-256ZM192 -21V-64H128V-21ZM107 -64H85V-85H43V-64Q43 -46 55.5 -33.5Q68 -21 85 -21H107ZM427 -85V-64H384V-21H427Q444 -21 456.5 -33.5Q469 -46 469 -64V-85ZM85 -277H107V-363H85Q68 -363 55.5 -350.5Q43 -338 43 -320V-277ZM363 -64H299V-21H363ZM277 -64H213V-21H277ZM363 -320H299V-277H363ZM213 -277H277V-320H256L213 -363Z"/>
</svg>