<svg xmlns="http://www.w3.org/2000/svg" viewBox="0 -512 512 512">
	<path fill="#000000" d="M192 -277Q165 -277 146.5 -259Q128 -241 128 -213.5Q128 -186 146.5 -167.5Q165 -149 192 -149Q213 -149 229 -161Q245 -173 252 -192H299V-149H341V-192H384V-235H252Q245 -254 229 -265.5Q213 -277 192 -277ZM192 -192Q182 -192 176.5 -198Q171 -204 171 -213.5Q171 -223 176.5 -229Q182 -235 192 -235Q202 -235 207.5 -229Q213 -223 213 -213.5Q213 -204 207.5 -198Q202 -192 192 -192ZM320 -21Q320 -30 314 -36.5Q308 -43 299 -43H277V-85H405Q423 -85 435.5 -97.5Q448 -110 448 -128V-299Q448 -316 435.5 -328.5Q423 -341 405 -341H277L235 -384H107Q89 -384 76.5 -371.5Q64 -359 64 -341V-128Q64 -110 76.5 -97.5Q89 -85 107 -85H235V-43H213Q204 -43 198 -36.5Q192 -30 192 -21H43V21H192Q192 30 198 36.5Q204 43 213 43H299Q308 43 314 36.5Q320 30 320 21H469V-21ZM107 -128V-299H405V-128Z"/>
</svg>