<svg xmlns="http://www.w3.org/2000/svg" viewBox="0 -512 512 512">
	<path fill="#000000" d="M128 -341Q110 -341 97.5 -328.5Q85 -316 85 -299V-128Q85 -110 97.5 -97.5Q110 -85 128 -85H235V-43H213Q204 -43 198 -37Q192 -31 192 -21H43V21H192Q192 31 198 37Q204 43 213 43H299Q308 43 314 37Q320 31 320 21H469V-21H320Q320 -31 314 -37Q308 -43 299 -43H277V-85H384Q402 -85 414.5 -97.5Q427 -110 427 -128V-256Q427 -274 414.5 -286.5Q402 -299 384 -299H256L213 -341ZM192 -256Q213 -256 229 -244.5Q245 -233 252 -213H384V-171H341V-128H299V-171H252Q245 -151 229 -139.5Q213 -128 192 -128Q165 -128 146.5 -146.5Q128 -165 128 -192Q128 -219 146.5 -237.5Q165 -256 192 -256ZM192 -213Q182 -213 176.5 -207.5Q171 -202 171 -192Q171 -182 176.5 -176.5Q182 -171 192 -171Q202 -171 207.5 -176.5Q213 -182 213 -192Q213 -202 207.5 -207.5Q202 -213 192 -213Z"/>
</svg>