<svg xmlns="http://www.w3.org/2000/svg" viewBox="0 -512 512 512">
	<path fill="#000000" d="M198 -21H85Q68 -21 55.5 -33.5Q43 -46 43 -64V-320Q43 -338 55.5 -350.5Q68 -363 85 -363H213L256 -320H427Q444 -320 456.5 -307.5Q469 -295 469 -277V-137Q422 -171 363 -171Q307 -171 261 -140Q215 -109 194 -58L188 -43L194 -28ZM491 -43Q476 -5 440.5 19Q405 43 362.5 43Q320 43 284.5 19Q249 -5 235 -43Q249 -80 284.5 -104Q320 -128 362.5 -128Q405 -128 440.5 -104Q476 -80 491 -43ZM416 -43Q416 -65 400.5 -80.5Q385 -96 362.5 -96Q340 -96 324.5 -80.5Q309 -65 309 -42.5Q309 -20 324.5 -4.5Q340 11 362.5 11Q385 11 400.5 -4.5Q416 -20 416 -43ZM363 -64Q353 -64 347 -58Q341 -52 341 -42.5Q341 -33 347 -27Q353 -21 362.5 -21Q372 -21 378 -27Q384 -33 384 -42.5Q384 -52 378 -58Q372 -64 363 -64Z"/>
</svg>