<svg xmlns="http://www.w3.org/2000/svg" viewBox="0 -512 512 512">
	<path fill="#000000" d="M213 -363L256 -320H427Q444 -320 456.5 -307.5Q469 -295 469 -277V-203Q449 -211 427 -213V-277H85V-64H277Q280 -41 288 -21H85Q68 -21 55.5 -33.5Q43 -46 43 -64V-320Q43 -338 55.5 -350.5Q68 -363 85 -363ZM405 -192V-160Q441 -160 466 -135Q491 -110 491 -75Q491 -49 476 -28L453 -51Q459 -62 459 -75Q459 -97 443 -112.5Q427 -128 405 -128V-96L357 -145Q362 -149 405 -192ZM405 43V11Q370 11 345 -14Q320 -39 320 -75Q320 -100 334 -122L358 -99Q352 -87 352 -75Q352 -53 367.5 -37Q383 -21 405 -21V-53L454 -5Q449 -1 405 43Z"/>
</svg>