<svg xmlns="http://www.w3.org/2000/svg" viewBox="0 -512 512 512">
	<path fill="#000000" d="M384 -139Q419 -139 444 -114L469 -139V-53H384L422 -91Q406 -107 384 -107Q362 -107 346.5 -91Q331 -75 331 -53Q331 -31 346.5 -15.5Q362 0 384 0Q397 0 408 -5.5Q419 -11 427 -21H463Q454 3 432.5 17.5Q411 32 384 32Q349 32 324 7Q299 -18 299 -53.5Q299 -89 324 -114Q349 -139 384 -139ZM213 -363L256 -320H427Q444 -320 456.5 -307.5Q469 -295 469 -277V-171Q435 -192 395 -192Q357 -192 325 -173.5Q293 -155 274.5 -123Q256 -91 256 -53Q256 -38 260 -21H85Q68 -21 55.5 -33.5Q43 -46 43 -64V-320Q43 -338 55.5 -350.5Q68 -363 85 -363Z"/>
</svg>