<svg xmlns="http://www.w3.org/2000/svg" viewBox="0 -512 512 512">
	<path fill="#000000" d="M395 -192Q425 -192 447 -170Q469 -148 469 -117Q469 -83 432 -27Q413 1 395 21L375 -2Q353 -31 339 -57Q320 -93 320 -117Q320 -148 342 -170Q364 -192 395 -192ZM395 -90Q406 -90 414 -98Q422 -106 421 -115.5Q420 -125 412 -133Q404 -141 394.5 -141Q385 -141 377 -133.5Q369 -126 369 -115.5Q369 -105 376.5 -97.5Q384 -90 395 -90ZM427 -277H85V-64H288Q297 -43 309 -21H85Q68 -21 55.5 -33.5Q43 -46 43 -64V-320Q43 -338 55.5 -350.5Q68 -363 85 -363H213L256 -320H427Q444 -320 456.5 -307.5Q469 -295 469 -277V-206Q450 -223 427 -230Z"/>
</svg>