<svg xmlns="http://www.w3.org/2000/svg" viewBox="0 -512 512 512">
	<path fill="#000000" d="M64 -363Q46 -363 33.5 -350.5Q21 -338 21 -320V-64Q21 -46 33.5 -33.5Q46 -21 64 -21H219Q240 9 272.5 26Q305 43 341 43Q382 43 416 22.5Q450 2 470.5 -32Q491 -66 491 -107Q491 -136 480 -163Q469 -190 448 -211V-277Q448 -295 435.5 -307.5Q423 -320 405 -320H235L192 -363ZM341 -213Q370 -213 394.5 -199Q419 -185 433.5 -160.5Q448 -136 448 -107Q448 -78 433.5 -53.5Q419 -29 394.5 -14.5Q370 0 341 0Q312 0 287.5 -14.5Q263 -29 249 -53.5Q235 -78 235 -107Q235 -136 249 -160.5Q263 -185 287.5 -199Q312 -213 341 -213ZM320 -192V-85L397 -39L413 -65L352 -101V-192Z"/>
</svg>