<svg xmlns="http://www.w3.org/2000/svg" viewBox="0 -512 512 512">
	<path fill="#000000" d="M427 -64H85V-277H427ZM427 -320H256L213 -363H85Q68 -363 55.5 -350.5Q43 -338 43 -320V-64Q43 -46 55.5 -33.5Q68 -21 85 -21H427Q444 -21 456.5 -33.5Q469 -46 469 -64V-277Q469 -295 456.5 -307.5Q444 -320 427 -320ZM405 -192V-213H373L384 -256H363L352 -213H309L320 -256H299L288 -213H256V-192H283L272 -149H235V-128H267L256 -85H277L288 -128H331L320 -85H341L352 -128H384V-149H357L368 -192ZM336 -149H293L304 -192H347Z"/>
</svg>