<svg xmlns="http://www.w3.org/2000/svg" viewBox="0 -512 512 512">
	<path fill="#000000" d="M278 -21H85Q68 -21 55.5 -33.5Q43 -46 43 -64V-320Q43 -338 55.5 -350.5Q68 -363 85 -363H213L256 -320H427Q444 -320 456.5 -307.5Q469 -295 469 -277V-75L447 -97L448 -107Q448 -136 433.5 -160.5Q419 -185 394.5 -199Q370 -213 341 -213Q312 -213 287.5 -199Q263 -185 249 -160.5Q235 -136 235 -107Q235 -81 246.5 -58.5Q258 -36 278 -21ZM488 4L400 -84Q407 -100 403 -118.5Q399 -137 385.5 -150.5Q372 -164 352 -167.5Q332 -171 314 -163L356 -121L327 -92L285 -134Q276 -116 279.5 -96.5Q283 -77 297 -63Q311 -49 329 -45Q347 -41 364 -48L451 40Q454 43 458 43Q462 43 465 40L487 18Q490 15 490.5 10.5Q491 6 488 4Z"/>
</svg>