<svg xmlns="http://www.w3.org/2000/svg" viewBox="0 -512 512 512">
	<path fill="#000000" d="M448 -211V-277Q448 -295 435.5 -307.5Q423 -320 405 -320H235L192 -363H64Q46 -363 33.5 -350.5Q21 -338 21 -320V-64Q21 -46 33.5 -33.5Q46 -21 64 -21H218Q237 8 270 25.5Q303 43 341 43Q382 43 416.5 23Q451 3 471 -31.5Q491 -66 491 -107Q491 -136 479.5 -163Q468 -190 448 -211ZM198 -64H64V-277H405V-241Q378 -256 341 -256Q300 -256 266 -236Q232 -216 212 -182Q192 -148 192 -107Q192 -83 198 -64ZM341 0Q312 0 287.5 -14Q263 -28 249 -52.5Q235 -77 235 -106.5Q235 -136 249 -160.5Q263 -185 287.5 -199Q312 -213 341.5 -213Q371 -213 395.5 -199Q420 -185 434 -160.5Q448 -136 448 -106.5Q448 -77 434 -52.5Q420 -28 395.5 -14Q371 0 341 0ZM363 -149H320V-192H363ZM363 -21H320V-128H363Z"/>
</svg>