<svg xmlns="http://www.w3.org/2000/svg" viewBox="0 -512 512 512">
	<path fill="#000000" d="M427 -64H85V-277H427ZM427 -320H256L213 -363H85Q68 -363 55.5 -350.5Q43 -338 43 -320V-64Q43 -46 55.5 -33.5Q68 -21 85 -21H427Q444 -21 456.5 -33.5Q469 -46 469 -64V-277Q469 -295 456.5 -307.5Q444 -320 427 -320ZM273 -192Q267 -211 250.5 -223Q234 -235 213 -235Q186 -235 167.5 -216.5Q149 -198 149 -170.5Q149 -143 167.5 -125Q186 -107 213 -107Q234 -107 250.5 -118.5Q267 -130 273 -149H320V-107H363V-149H405V-192ZM213 -149Q204 -149 198 -155Q192 -161 192 -170.5Q192 -180 198 -186Q204 -192 213.5 -192Q223 -192 229 -186Q235 -180 235 -170.5Q235 -161 229 -155Q223 -149 213 -149Z"/>
</svg>