<svg xmlns="http://www.w3.org/2000/svg" viewBox="0 -512 512 512">
	<path fill="#000000" d="M422 -405H90Q71 -405 57 -391Q43 -377 43 -358V-26Q43 -7 57 7Q71 21 90 21H422Q441 21 455 7Q469 -7 469 -26V-358Q469 -377 455 -391Q441 -405 422 -405ZM378 -135Q378 -130 371 -127Q341 -114 320 -114Q308 -114 289 -122Q267 -130 251 -130Q223 -130 187 -113L184 -112V-69Q184 -66 183 -65V-63Q181 -57 176 -53.5Q171 -50 164 -50Q157 -50 151 -55.5Q145 -61 145 -69V-277Q133 -287 133 -301.5Q133 -316 142.5 -325Q152 -334 165 -334Q178 -334 187.5 -325Q197 -316 197 -302Q197 -287 184 -277V-260L189 -262Q222 -276 248 -276Q263 -276 278 -272Q289 -269 306 -263Q312 -260 319 -260Q333 -260 359 -272Q368 -276 370.5 -276Q373 -276 375.5 -273.5Q378 -271 378 -268Z"/>
</svg>