<svg xmlns="http://www.w3.org/2000/svg" viewBox="0 -512 512 512">
	<path fill="#000000" d="M448 -325Q445 -327 439 -332L440 -333Q452 -345 452 -362.5Q452 -380 439.5 -392.5Q427 -405 409.5 -405Q392 -405 380 -393L364 -377Q342 -394 314 -392Q286 -390 267 -370L78 -181Q58 -162 56 -134Q54 -106 71 -84L55 -68Q43 -56 43 -38.5Q43 -21 55.5 -8.5Q68 4 85.5 4Q103 4 115 -8L116 -9L123 0Q145 21 176 21Q207 21 229 0L447 -219Q469 -241 469 -272Q469 -303 448 -325ZM102 -115Q97 -124 99 -134Q101 -144 108 -151L297 -340Q304 -347 314 -349Q324 -351 333 -346ZM417 -250L198 -31Q189 -21 176 -21Q163 -21 153.5 -30.5Q144 -40 144 -53.5Q144 -67 153 -76L372 -295Q381 -304 394.5 -304Q408 -304 417.5 -294.5Q427 -285 427 -272Q427 -259 417 -250Z"/>
</svg>