<svg xmlns="http://www.w3.org/2000/svg" viewBox="0 -512 512 512">
	<path fill="#000000" d="M149 -341V-128Q149 -110 136.5 -97.5Q124 -85 107 -85H85Q77 -85 70.5 -91.5Q64 -98 64 -107V-171H21V-107Q21 -80 40 -61.5Q59 -43 85 -43H107Q142 -43 167 -68Q192 -93 192 -128V-341ZM491 -163L464 -189Q440 -213 405 -213H363V-171H405Q423 -171 434 -159L442 -151L416 -137Q401 -128 384 -128H363Q354 -128 347.5 -134Q341 -140 341 -149V-320H299V-239L285 -253Q275 -265 259 -271Q243 -277 226 -277H213V-235H226Q247 -235 262 -220L299 -183V-149Q299 -131 286.5 -119Q274 -107 256 -107H213V-64H256Q277 -64 295 -74Q313 -84 324 -102Q339 -85 363 -85H384Q413 -85 437 -100L491 -130Z"/>
</svg>