<svg xmlns="http://www.w3.org/2000/svg" viewBox="0 -512 512 512">
	<path fill="#000000" d="M427 -235Q412 -260 387 -274.5Q362 -289 333 -290Q304 -291 277 -277V-384H235V-277Q208 -291 179 -290Q150 -289 125 -274.5Q100 -260 85 -235Q70 -212 78 -168Q85 -129 107 -83Q127 -40 151.5 -9.5Q176 21 192.5 21Q209 21 220 17Q227 14 236 8Q242 4 246 2Q250 0 256 0Q262 0 266 2Q270 4 276 8Q285 14 292 17Q303 21 319.5 21Q336 21 360.5 -9.5Q385 -40 405 -83Q427 -129 434 -168Q442 -212 427 -235ZM389 -163Q369 -83 314 -21Q307 -21 301 -27Q281 -43 256 -43Q231 -43 211 -27Q205 -21 198 -21Q142 -83 123 -162Q114 -187 121 -211Q130 -227 146 -237Q162 -247 181 -247Q200 -247 216 -239L235 -230H277L296 -239Q312 -247 331 -247Q350 -247 366 -237Q382 -227 391 -211Q398 -187 389 -163ZM235 -341Q201 -323 173 -319Q150 -315 131 -322Q116 -328 105 -339Q97 -348 91 -358L88 -367L94 -375Q103 -383 113 -388Q128 -395 144 -395Q164 -395 185 -383Q209 -370 235 -341Z"/>
</svg>