<svg xmlns="http://www.w3.org/2000/svg" viewBox="0 -512 512 512">
	<path fill="#000000" d="M254 -405Q213 -405 179 -383.5Q145 -362 125.5 -326.5Q106 -291 107 -250Q108 -209 129.5 -175.5Q151 -142 186 -124Q208 -113 221.5 -92Q235 -71 235 -47V-43Q235 -15 253 3Q271 21 299 21Q340 21 364 -13Q387 -44 397 -108Q405 -165 405 -256L404 -272Q402 -291 396 -309Q387 -334 373 -353Q354 -377 328 -390Q296 -405 254 -405ZM299 -21Q289 -21 283 -27Q277 -33 277 -43V-47Q277 -82 258 -113Q239 -144 207 -162Q181 -175 166 -199Q151 -223 149 -252Q149 -273 157 -294Q165 -315 179 -330.5Q193 -346 212.5 -354.5Q232 -363 252 -363Q299 -363 327 -339Q348 -321 357 -291Q363 -273 363 -256Q363 -158 352 -101Q344 -54 328 -35Q316 -21 299 -21ZM337 -286L177 -228Q171 -238 171 -255Q171 -272 181 -297L292 -337Q326 -320 337 -286ZM275 -126L335 -147Q333 -114 322 -77L294 -66Q294 -97 275 -126ZM341 -252Q341 -203 339 -183L254 -151Q234 -171 215 -179Q203 -186 192 -196Z"/>
</svg>