<svg xmlns="http://www.w3.org/2000/svg" viewBox="0 -512 512 512">
	<path fill="#000000" d="M471 11L51 -412L23 -384L181 -226L169 -209Q149 -190 149 -165.5Q149 -141 166 -124L188 -102Q196 -95 207.5 -90Q219 -85 230 -85Q253 -85 273 -102Q279 -109 292 -117L446 36ZM241 -132Q237 -128 229.5 -128Q222 -128 218 -132L196 -154Q192 -158 192 -166.5Q192 -175 198 -181L211 -196L258 -149Q255 -145 248 -138ZM243 -273L207 -309Q220 -355 265 -384Q300 -405 335 -405Q377 -405 407 -384Q444 -360 459.5 -322.5Q475 -285 467 -245.5Q459 -206 431 -177Q407 -153 373 -143L337 -179L340 -180Q343 -181 346 -181Q379 -185 401 -207Q416 -222 423 -241.5Q430 -261 427 -282Q423 -324 384 -350Q362 -363 334.5 -363Q307 -363 286 -348Q267 -337 256 -319Q245 -301 243 -279ZM188 -77L134 -26Q144 -6 128 11Q118 20 105.5 20Q93 20 84 11Q75 2 75 -11Q66 -11 53 -19Q44 -29 44 -41.5Q44 -54 53 -64Q70 -80 90 -70L143 -122Q145 -117 154 -109L175 -87Q179 -80 188 -77Z"/>
</svg>