<svg xmlns="http://www.w3.org/2000/svg" viewBox="0 -512 512 512">
	<path fill="#000000" d="M335 -363Q363 -363 384 -349Q421 -324 427 -281Q428 -260 421.5 -240.5Q415 -221 400 -207Q377 -184 345 -180Q282 -174 242 -133Q237 -128 230 -128Q223 -128 218 -133L197 -154Q192 -159 192 -166Q192 -173 199 -180Q238 -220 244 -280Q246 -301 257 -319Q268 -337 287 -349Q308 -363 335 -363ZM335 -405Q296 -405 264 -385Q236 -367 220.5 -340.5Q205 -314 202 -284Q197 -239 169 -210L168 -209Q150 -191 149.5 -166Q149 -141 167 -124L188 -103Q205 -85 230 -85Q255 -85 272 -103Q302 -133 349 -138Q396 -143 430 -176Q459 -206 466.5 -245.5Q474 -285 458.5 -323Q443 -361 407 -384Q375 -405 335 -405ZM134 -24Q138 -15 136.5 -5Q135 5 127 12Q118 21 105 21Q92 21 83 12Q74 3 73 -9Q61 -10 52 -19Q43 -28 43 -41Q43 -54 52 -63Q59 -71 69 -72.5Q79 -74 88 -70L141 -121H142Q148 -112 151 -109L173 -88Q180 -80 187 -77Z"/>
</svg>