<svg xmlns="http://www.w3.org/2000/svg" viewBox="0 -512 512 512">
	<path fill="#000000" d="M64 -384Q55 -384 49 -378Q43 -372 43 -363V-245Q43 -219 57.5 -197.5Q72 -176 96 -166V-32Q96 -19 105.5 -9.5Q115 0 128 0Q141 0 150.5 -9.5Q160 -19 160 -32V-166Q184 -176 198.5 -197.5Q213 -219 213 -245V-363Q213 -372 207 -378Q201 -384 192 -384Q183 -384 177 -378Q171 -372 171 -363V-277Q171 -273 167.5 -270Q164 -267 160 -267Q156 -267 152.5 -270Q149 -273 149 -277V-363Q149 -372 143 -378Q137 -384 128 -384Q119 -384 113 -378Q107 -372 107 -363V-277Q107 -273 103.5 -270Q100 -267 96 -267Q92 -267 88.5 -270Q85 -273 85 -277V-363Q85 -372 79 -378Q73 -384 64 -384ZM424 -384Q422 -384 417 -381L341 -336V-256H256V-213H277L299 0H427L448 -213H469V-256H384V-313L437 -345Q445 -349 447 -357Q449 -365 445 -373Q437 -386 424 -384Z"/>
</svg>