<svg xmlns="http://www.w3.org/2000/svg" viewBox="0 -512 512 512">
	<path fill="#000000" d="M160 -288Q187 -314 219.5 -332.5Q252 -351 285 -359Q334 -371 370 -356.5Q406 -342 420.5 -306Q435 -270 423 -221Q415 -188 396.5 -155.5Q378 -123 351.5 -96.5Q325 -70 292.5 -51.5Q260 -33 227 -25Q178 -13 142 -27.5Q106 -42 91.5 -78Q77 -114 89 -163Q97 -196 115.5 -228.5Q134 -261 160 -288ZM227 -208L219 -200L264 -155L272 -163ZM248 -229L240 -221L285 -176L293 -184ZM205 -186L198 -179L243 -134L250 -141ZM269 -250L262 -243L307 -197L315 -205ZM184 -165L177 -157L222 -112L229 -119ZM291 -271L283 -264L329 -219L336 -226Z"/>
</svg>