<svg xmlns="http://www.w3.org/2000/svg" viewBox="0 -512 512 512">
	<path fill="#000000" d="M288 -192Q275 -192 265.5 -182.5Q256 -173 256 -160Q256 -147 265.5 -137.5Q275 -128 288 -128Q301 -128 310.5 -137.5Q320 -147 320 -160Q320 -173 310.5 -182.5Q301 -192 288 -192ZM288 -384Q337 -384 379 -361Q421 -338 445 -299Q469 -260 469 -213Q469 -180 467 -163Q463 -135 450 -107Q420 -107 393 -92Q377 -84 351 -62Q326 -41 313 -34Q291 -21 267 -21Q233 -21 214 -46Q197 -68 193 -107H176L148 -15Q146 -7 139 -3Q132 1 125 0H64Q55 0 49 -6Q43 -12 43 -21Q43 -30 49 -36.5Q55 -43 64 -43V-107Q55 -107 49 -113Q43 -119 43 -128Q43 -137 49 -143Q55 -149 64 -149H144L154 -184Q137 -192 117 -192H108L107 -213Q107 -260 131 -299Q155 -338 197 -361Q239 -384 288 -384ZM107 -107V-43H112L131 -107Z"/>
</svg>