<svg xmlns="http://www.w3.org/2000/svg" viewBox="0 -512 512 512">
	<path fill="#000000" d="M341 -405Q354 -405 365 -398Q376 -391 381 -379Q386 -367 383.5 -354.5Q381 -342 371.5 -332.5Q362 -323 349.5 -320.5Q337 -318 325 -323Q313 -328 306 -339Q299 -350 299 -363Q299 -380 311.5 -392.5Q324 -405 341 -405ZM257 -384Q270 -384 279.5 -374.5Q289 -365 289 -352Q289 -339 279.5 -329.5Q270 -320 257 -320Q244 -320 234.5 -329.5Q225 -339 225 -352Q225 -365 234.5 -374.5Q244 -384 257 -384ZM194 -352Q203 -352 209 -346Q215 -340 215 -331Q215 -322 209 -315.5Q203 -309 194 -309Q185 -309 179 -315.5Q173 -322 173 -331Q173 -340 179 -346Q185 -352 194 -352ZM150 -320Q159 -320 165.5 -314Q172 -308 172 -299Q172 -290 165.5 -283.5Q159 -277 150 -277Q141 -277 135 -283.5Q129 -290 129 -299Q129 -308 135 -314Q141 -320 150 -320ZM310 -192Q334 -192 349.5 -209.5Q365 -227 363 -251Q360 -272 344 -285.5Q328 -299 307 -299H254Q211 -299 176.5 -272.5Q142 -246 131 -205Q126 -189 133 -175Q147 -145 146.5 -112.5Q146 -80 133 -52Q124 -33 134 -15Q148 6 170.5 15.5Q193 25 217 19Q235 15 249 3.5Q263 -8 270 -25Q277 -42 275 -60Q273 -78 263 -93.5Q253 -109 254 -128Q253 -144 259 -160Q272 -192 310 -192Z"/>
</svg>