<svg xmlns="http://www.w3.org/2000/svg" viewBox="0 -512 512 512">
	<path fill="#000000" d="M128 -363V-213H85Q68 -213 55.5 -200.5Q43 -188 43 -171V-85Q43 -59 61.5 -40Q80 -21 106.5 -21Q133 -21 152 -40Q171 -59 171 -85H213Q213 -59 232 -40Q251 -21 277.5 -21Q304 -21 322.5 -40Q341 -59 341 -85V-171L256 -363ZM363 -341V-43H469V-75H395V-341ZM160 -331H239L309 -171H160ZM107 -117Q120 -117 129.5 -108Q139 -99 139 -85.5Q139 -72 129.5 -62.5Q120 -53 106.5 -53Q93 -53 84 -62.5Q75 -72 75 -85.5Q75 -99 84 -108Q93 -117 107 -117ZM277 -117Q291 -117 300 -108Q309 -99 309 -85.5Q309 -72 300 -62.5Q291 -53 277.5 -53Q264 -53 254.5 -62.5Q245 -72 245 -85.5Q245 -99 254.5 -108Q264 -117 277 -117Z"/>
</svg>