<svg xmlns="http://www.w3.org/2000/svg" viewBox="0 -512 512 512">
	<path fill="#000000" d="M43 -299H128V-256H85V-128H128V-85H43ZM213 -299H469V-192Q450 -206 427 -211V-256H213V-128H304Q293 -128 285 -120Q277 -112 277 -101V-85H213V-43Q213 -34 219.5 -27.5Q226 -21 235 -21H277V21H224Q214 21 203 14.5Q192 8 192 0Q192 8 181 14.5Q170 21 160 21H107V-21H149Q158 -21 164.5 -27.5Q171 -34 171 -43V-341Q171 -350 164.5 -356.5Q158 -363 149 -363H107V-405H160Q170 -405 181 -398.5Q192 -392 192 -384Q192 -392 203 -398.5Q214 -405 224 -405H277V-363H235Q226 -363 219.5 -356.5Q213 -350 213 -341ZM465 -85Q475 -85 483 -77Q491 -69 491 -58V17Q491 27 482.5 35Q474 43 463 43H346Q336 43 328 34.5Q320 26 320 15V-60Q320 -69 328 -77Q336 -85 346 -85V-117Q346 -139 364 -155Q382 -171 405 -171Q428 -171 446.5 -155Q465 -139 465 -117ZM437 -85V-117Q437 -130 428 -137.5Q419 -145 405.5 -145Q392 -145 382.5 -137.5Q373 -130 373 -117V-85Z"/>
</svg>