<svg xmlns="http://www.w3.org/2000/svg" viewBox="0 -512 512 512">
	<path fill="#000000" d="M154 -239Q141 -263 146.5 -288Q152 -313 171 -332Q190 -351 215 -356Q249 -367 287.5 -360.5Q326 -354 350 -331Q376 -305 375 -267H311Q311 -270 310 -277L309 -284Q304 -301 284 -307Q271 -312 253 -310.5Q235 -309 224 -301Q202 -282 215 -261Q227 -244 256 -235H158L156 -237Q155 -239 154 -239ZM448 -171V-213H64V-171H269Q271 -170 275 -168.5Q279 -167 282 -166L285 -165Q296 -159 300 -156Q307 -151 309 -143Q314 -124 309 -115Q306 -108 300 -103Q295 -100 286 -96Q266 -90 246 -94Q226 -98 214 -111.5Q202 -125 203 -147H139Q137 -107 167 -79Q194 -52 235 -47Q276 -38 315.5 -51.5Q355 -65 371 -96Q389 -130 369 -173Z"/>
</svg>