<svg xmlns="http://www.w3.org/2000/svg" viewBox="0 -512 512 512">
	<path fill="#000000" d="M363 -299H469V-85H363V-43Q363 -34 369 -27.5Q375 -21 384 -21H427V21H373Q364 21 352.5 14.5Q341 8 341 0Q341 8 330 14.5Q319 21 309 21H256V-21H299Q308 -21 314 -27.5Q320 -34 320 -43V-341Q320 -350 314 -356.5Q308 -363 299 -363H256V-405H309Q319 -405 330 -398.5Q341 -392 341 -384Q341 -392 352.5 -398.5Q364 -405 373 -405H427V-363H384Q375 -363 369 -356.5Q363 -350 363 -341ZM43 -299H277V-256H85V-128H277V-85H43ZM427 -128V-256H363V-128Z"/>
</svg>