<svg xmlns="http://www.w3.org/2000/svg" viewBox="0 -512 512 512">
	<path fill="#000000" d="M428 -64Q425 -73 424 -83Q402 -61 372 -61Q346 -61 328.5 -75.5Q311 -90 311 -114Q311 -142 332.5 -157.5Q354 -173 393 -173H423V-187Q423 -203 413.5 -212Q404 -221 385 -221Q369 -221 357.5 -213Q346 -205 346 -194H315Q315 -208 324 -220.5Q333 -233 351 -240.5Q369 -248 387 -248Q418 -248 435.5 -232.5Q453 -217 454 -190V-107Q454 -81 460 -67V-64ZM377 -88Q391 -88 404 -95Q417 -102 423 -112V-146H399Q342 -146 342 -116Q342 -103 352 -95.5Q362 -88 377 -88ZM116 -156H203L160 -271ZM142 -320H178L279 -64H238L217 -119H103L82 -64H41Z"/>
</svg>