<svg xmlns="http://www.w3.org/2000/svg" viewBox="0 -512 512 512">
	<path fill="#000000" d="M448 -43V-85H171V-43ZM448 -171V-213H171V-171ZM171 -299H448V-341H171ZM85 -341V-299H128V-341ZM64 -341Q64 -350 70 -356.5Q76 -363 85 -363H128Q137 -363 143 -356.5Q149 -350 149 -341V-299Q149 -290 143 -283.5Q137 -277 128 -277H85Q76 -277 70 -283.5Q64 -290 64 -299ZM85 -213V-171H128V-213ZM64 -213Q64 -222 70 -228.5Q76 -235 85 -235H128Q137 -235 143 -228.5Q149 -222 149 -213V-171Q149 -162 143 -155.5Q137 -149 128 -149H85Q76 -149 70 -155.5Q64 -162 64 -171ZM85 -85V-43H128V-85ZM64 -85Q64 -94 70 -100.5Q76 -107 85 -107H128Q137 -107 143 -100.5Q149 -94 149 -85V-43Q149 -34 143 -27.5Q137 -21 128 -21H85Q76 -21 70 -27.5Q64 -34 64 -43Z"/>
</svg>