<svg xmlns="http://www.w3.org/2000/svg" viewBox="0 -512 512 512">
	<path fill="#000000" d="M256 -85Q291 -85 320.5 -102.5Q350 -120 367 -149.5Q384 -179 384 -213V-384H331V-213Q331 -182 309 -160.5Q287 -139 256 -139Q225 -139 203 -160.5Q181 -182 181 -213V-384H128V-213Q128 -179 145 -149.5Q162 -120 191.5 -102.5Q221 -85 256 -85ZM427 21Q392 21 369 -6Q360 -15 355 -18Q350 -21 341 -21Q332 -21 327.5 -18Q323 -15 314 -6Q290 21 256 21Q222 21 198 -6Q189 -15 184.5 -18Q180 -21 171 -21Q162 -21 157 -18Q152 -15 143 -6Q120 21 85 21V-21Q94 -21 99 -24Q104 -27 113 -36Q136 -64 170.5 -64Q205 -64 228 -36Q237 -27 242 -24Q247 -21 256 -21Q265 -21 270 -24Q275 -27 284 -36Q307 -64 341.5 -64Q376 -64 399 -36Q408 -27 413 -24Q418 -21 427 -21Z"/>
</svg>