<svg xmlns="http://www.w3.org/2000/svg" viewBox="0 -512 512 512">
	<path fill="#000000" d="M334 -354Q303 -373 266 -372Q240 -372 223 -360.5Q206 -349 206 -329Q206 -309 226 -296Q239 -287 277 -274Q323 -259 344 -242Q371 -219 371 -184Q371 -163 360.5 -145Q350 -127 333 -115Q354 -95 354 -65Q354 -23 320 1Q290 21 245 21Q198 23 157 -3L171 -35Q205 -12 246 -12Q274 -12 292 -24.5Q310 -37 310 -58Q310 -79 295 -92Q280 -105 240 -118Q190 -136 168 -153Q141 -175 141 -209Q142 -230 153.5 -248Q165 -266 183 -276Q162 -295 162 -324Q162 -361 192 -383Q222 -405 267 -405Q310 -405 346 -386ZM242 -162Q277 -151 307 -134Q318 -142 323.5 -153.5Q329 -165 329 -178Q329 -214 277 -232Q241 -244 207 -261Q195 -254 188 -241.5Q181 -229 181 -214Q181 -199 195 -186Q209 -173 242 -162Z"/>
</svg>