<svg xmlns="http://www.w3.org/2000/svg" viewBox="0 -512 512 512">
	<path fill="#000000" d="M157 -311L18 -173L157 -35L295 -173ZM79 -173L157 -251L235 -173L157 -95ZM413 -306Q386 -334 350.5 -348.5Q315 -363 277 -363V-432L187 -341L277 -251V-320Q307 -320 334 -309Q361 -298 383 -276Q412 -248 422 -209.5Q432 -171 422 -132.5Q412 -94 383 -65Q361 -44 334 -32.5Q307 -21 276.5 -21Q246 -21 217 -34L185 -3Q228 21 277 21Q315 21 350.5 7Q386 -7 413 -35Q450 -72 463 -121.5Q476 -171 463 -220.5Q450 -270 413 -306Z"/>
</svg>