<svg xmlns="http://www.w3.org/2000/svg" viewBox="0 -512 512 512">
	<path fill="#000000" d="M363 -299H469V-85H363V-43Q363 -34 369 -27.5Q375 -21 384 -21H427V21H373Q364 21 352.5 14.5Q341 8 341 0Q341 8 330 14.5Q319 21 309 21H256V-21H299Q308 -21 314 -27.5Q320 -34 320 -43V-341Q320 -350 314 -356.5Q308 -363 299 -363H256V-405H309Q319 -405 330 -398.5Q341 -392 341 -384Q341 -392 352.5 -398.5Q364 -405 373 -405H427V-363H384Q375 -363 369 -356.5Q363 -350 363 -341ZM43 -299H277V-256H85V-128H277V-85H43ZM427 -128V-256H363V-128ZM181 -192Q181 -205 172 -214.5Q163 -224 149.5 -224Q136 -224 126.5 -214.5Q117 -205 117 -192Q117 -179 126.5 -169.5Q136 -160 149.5 -160Q163 -160 172 -169.5Q181 -179 181 -192ZM277 -216Q268 -225 254.5 -224Q241 -223 232 -213.5Q223 -204 224 -190.5Q225 -177 234 -168.5Q243 -160 255.5 -160Q268 -160 277 -168Z"/>
</svg>