<svg xmlns="http://www.w3.org/2000/svg" viewBox="0 -512 512 512">
	<path fill="#000000" d="M160 -405Q128 -405 101 -389.5Q74 -374 58.5 -347Q43 -320 43 -288V-277H85V-288Q85 -319 107 -341Q129 -363 160 -363Q184 -363 202.5 -349.5Q221 -336 230 -315Q217 -320 203 -320Q181 -320 162.5 -308.5Q144 -297 135 -277L172 -256Q176 -265 184 -271Q192 -277 203 -277Q216 -277 225.5 -268Q235 -259 235 -245V-213H277V-245Q277 -259 286.5 -268Q296 -277 309 -277Q320 -277 328 -271Q336 -265 340 -256L377 -277Q368 -297 349.5 -308.5Q331 -320 309 -320Q295 -320 282 -315Q291 -336 309.5 -349.5Q328 -363 352 -363Q383 -363 405 -341Q427 -319 427 -288V-277H469V-288Q469 -311 460 -332.5Q451 -354 434.5 -370.5Q418 -387 396.5 -396Q375 -405 352 -405Q323 -405 297.5 -391.5Q272 -378 256 -355Q240 -378 214.5 -391.5Q189 -405 160 -405ZM128 -192V-149H158Q166 -131 180.5 -117Q195 -103 213 -95V-43H43L73 2Q79 11 88 16Q97 21 108 21H404Q415 21 424 16Q433 11 439 2L469 -43H299V-95Q317 -103 331.5 -117Q346 -131 354 -149H384V-192Z"/>
</svg>