<svg xmlns="http://www.w3.org/2000/svg" viewBox="0 -512 512 512">
	<path fill="#000000" d="M57 -405Q69 -406 100 -393Q125 -383 131 -380Q89 -354 62 -312Q46 -342 41 -363Q33 -390 43 -400Q48 -405 57 -405ZM445 -403Q458 -404 465 -398Q475 -388 464 -355Q455 -330 437 -298Q421 -271 413 -263Q405 -255 387 -261.5Q369 -268 352 -285Q335 -302 328.5 -320.5Q322 -339 330 -347Q335 -352 355 -364Q378 -378 400 -388Q428 -401 445 -403ZM256 -393Q296 -393 334 -378Q317 -367 313 -363Q298 -347 304 -320.5Q310 -294 335 -269Q351 -253 368.5 -244Q386 -235 401 -235Q419 -235 430 -247Q435 -251 446 -269Q463 -230 463 -187Q463 -130 435 -82.5Q407 -35 359.5 -7Q312 21 256 21Q200 21 152.5 -7Q105 -35 77 -82.5Q49 -130 49 -186.5Q49 -243 77 -290.5Q105 -338 152.5 -365.5Q200 -393 256 -393Z"/>
</svg>