<svg xmlns="http://www.w3.org/2000/svg" viewBox="0 -512 512 512">
	<path fill="#000000" d="M384 -128H128L43 -43V-384Q43 -393 49 -399Q55 -405 64 -405H384Q393 -405 399 -399Q405 -393 405 -384V-149Q405 -140 399 -134Q393 -128 384 -128ZM491 -256V43L405 -43H171Q162 -43 155.5 -49Q149 -55 149 -64V-85H448V-277H469Q478 -277 484.5 -271Q491 -265 491 -256ZM175 -363Q147 -363 130 -350Q113 -337 113 -312H155Q155 -321 161 -326Q167 -331 176 -331Q185 -331 190.5 -325Q196 -319 196 -309Q196 -299 191.5 -292Q187 -285 178 -279Q162 -268 155.5 -259.5Q149 -251 149 -235H192Q192 -245 195 -251Q198 -257 206 -262Q221 -270 230 -282Q239 -294 239 -309Q239 -334 221.5 -348.5Q204 -363 175 -363ZM149 -213V-171H192V-213ZM277 -171H320V-213H277ZM277 -363V-235H320V-363Z"/>
</svg>