<svg xmlns="http://www.w3.org/2000/svg" viewBox="0 -512 512 512">
	<path fill="#000000" d="M471 11L51 -412L23 -384L186 -222Q171 -186 162 -171Q130 -167 107.5 -143Q85 -119 85 -84.5Q85 -50 110 -25Q135 0 170 0Q205 0 228 -23Q213 -57 213 -85.5Q213 -114 228 -147Q218 -158 196 -166L211 -198L273 -137Q256 -113 256 -85Q256 -50 281 -25Q306 0 341 0Q370 0 390 -17L444 36ZM171 -117Q158 -117 148.5 -107.5Q139 -98 139 -85H117Q117 -108 132.5 -123.5Q148 -139 171 -139ZM309 -85H288Q288 -100 294 -113L311 -96Q309 -92 309 -85ZM427 -90L346 -171Q378 -169 401.5 -145.5Q425 -122 427 -90ZM241 -275L215 -301Q239 -371 239 -405L269 -407Q270 -403 271 -391L273 -375Q289 -378 313 -373Q348 -364 380 -339Q416 -313 423 -261Q426 -236 422 -215H414Q402 -215 390 -217Q372 -220 355 -227Q333 -236 314 -252L294 -271Q304 -234 318 -198L269 -247Q262 -269 254 -311Q245 -286 241 -275Z"/>
</svg>