<svg xmlns="http://www.w3.org/2000/svg" viewBox="0 -512 512 512">
	<path fill="#000000" d="M192 -109Q158 -112 130.5 -124.5Q103 -137 85 -158Q72 -158 61 -165.5Q50 -173 45 -185.5Q40 -198 44 -210Q48 -222 60 -230Q61 -279 101.5 -323.5Q142 -368 207 -390.5Q272 -413 333 -402Q394 -391 427 -354Q440 -354 451 -346.5Q462 -339 467 -326.5Q472 -314 468 -302Q464 -290 452 -282Q452 -256 439 -230Q396 -256 352 -256Q311 -256 275.5 -236.5Q240 -217 217.5 -183.5Q195 -150 192 -109ZM469 -96Q469 -65 453 -38Q437 -11 410 5Q383 21 352 21Q321 21 294 5Q267 -11 251 -38Q235 -65 235 -96Q235 -127 251 -154Q267 -181 294 -197Q321 -213 352 -213Q383 -213 410 -197Q437 -181 453 -154Q469 -127 469 -96ZM284 -64L333 -96L284 -128Q277 -112 277 -96Q277 -80 284 -64ZM341 -77L297 -47Q312 -29 341 -21ZM341 -169Q328 -167 316 -160.5Q304 -154 297 -143L341 -113ZM363 -115L407 -145Q392 -163 363 -171ZM407 -47L363 -77V-23Q376 -25 388 -31Q400 -37 407 -47ZM427 -96Q427 -112 420 -128L371 -96L420 -64Q427 -80 427 -96Z"/>
</svg>