<svg xmlns="http://www.w3.org/2000/svg" viewBox="0 -512 512 512">
	<path fill="#000000" d="M350 -98Q386 -134 398.5 -181.5Q411 -229 398.5 -276.5Q386 -324 350 -358L90 -98Q124 -62 171.5 -49.5Q219 -37 266.5 -49.5Q314 -62 350 -98ZM341 -299Q351 -299 357 -293Q363 -287 363 -277.5Q363 -268 357 -262Q351 -256 341.5 -256Q332 -256 326 -262Q320 -268 320 -277.5Q320 -287 326 -293Q332 -299 341 -299ZM341 -213Q351 -213 357 -207.5Q363 -202 363 -192Q363 -182 357 -176.5Q351 -171 341.5 -171Q332 -171 326 -176.5Q320 -182 320 -192Q320 -202 326 -207.5Q332 -213 341 -213ZM256 -213Q266 -213 271.5 -207.5Q277 -202 277 -192Q277 -182 271.5 -176.5Q266 -171 256 -171Q246 -171 240.5 -176.5Q235 -182 235 -192Q235 -202 240.5 -207.5Q246 -213 256 -213ZM256 -128Q266 -128 271.5 -122Q277 -116 277 -106.5Q277 -97 271.5 -91Q266 -85 256 -85Q246 -85 240.5 -91Q235 -97 235 -106.5Q235 -116 240.5 -122Q246 -128 256 -128ZM171 -85Q161 -85 155 -91Q149 -97 149 -106.5Q149 -116 155 -122Q161 -128 170.5 -128Q180 -128 186 -122Q192 -116 192 -106.5Q192 -97 186 -91Q180 -85 171 -85ZM397 -51Q349 -3 284.5 14Q220 31 155.5 14Q91 -3 43 -51L73 -81Q112 -41 165.5 -27Q219 -13 272 -27Q325 -41 365 -81Q405 -121 419 -174Q433 -227 419 -280Q405 -333 365 -373L397 -405Q444 -357 460.5 -292.5Q477 -228 460.5 -163.5Q444 -99 397 -51Z"/>
</svg>