<svg xmlns="http://www.w3.org/2000/svg" viewBox="0 -512 512 512">
	<path fill="#000000" d="M384 -107Q384 -72 367 -42.5Q350 -13 320.5 4Q291 21 256 21Q221 21 191.5 4Q162 -13 145 -42.5Q128 -72 128 -107Q128 -128 135 -145Q139 -155 149.5 -171Q160 -187 164 -197Q171 -213 171 -235.5Q171 -258 182 -278Q193 -298 213 -309Q226 -317 240 -319V-341Q240 -352 235 -357.5Q230 -363 213 -363V-395Q243 -395 257.5 -380Q272 -365 272 -341V-319Q287 -316 299 -309Q319 -298 330 -278Q341 -258 341 -235.5Q341 -213 348 -197Q352 -187 362.5 -171Q373 -155 377 -145Q384 -128 384 -107Z"/>
</svg>