<svg xmlns="http://www.w3.org/2000/svg" viewBox="0 -512 512 512">
	<path fill="#000000" d="M405 -192Q405 -214 392 -231Q379 -248 358 -253Q363 -265 363 -277Q363 -304 344 -322.5Q325 -341 299 -341Q286 -341 273 -336Q283 -392 307 -401L290 -427Q266 -416 253 -384Q243 -363 240 -335Q227 -341 213 -341Q187 -341 168 -322.5Q149 -304 149 -277Q149 -265 154 -253Q133 -248 120 -231Q107 -214 107 -192Q107 -170 120 -153Q133 -136 154 -131Q149 -119 149 -107Q149 -85 162.5 -68Q176 -51 197 -45Q192 -33 192 -21Q192 5 210.5 24Q229 43 256 43Q283 43 301.5 24Q320 5 320 -21Q320 -33 315 -45Q336 -51 349.5 -68Q363 -85 363 -107Q363 -119 358 -131Q379 -136 392 -153Q405 -170 405 -192ZM348 -237ZM299 -309Q312 -309 321.5 -300Q331 -291 331 -277.5Q331 -264 321.5 -254.5Q312 -245 298.5 -245Q285 -245 276 -254.5Q267 -264 267 -277.5Q267 -291 276 -300Q285 -309 299 -309ZM288 -192Q288 -179 278.5 -169.5Q269 -160 256 -160Q243 -160 233.5 -169.5Q224 -179 224 -192Q224 -205 233.5 -214.5Q243 -224 256 -224Q269 -224 278.5 -214.5Q288 -205 288 -192ZM213 -309Q227 -309 236 -300Q245 -291 245 -277.5Q245 -264 236 -254.5Q227 -245 213.5 -245Q200 -245 190.5 -254.5Q181 -264 181 -277.5Q181 -291 190.5 -300Q200 -309 213 -309ZM139 -192Q139 -205 148 -214.5Q157 -224 170.5 -224Q184 -224 193.5 -214.5Q203 -205 203 -192Q203 -179 193.5 -169.5Q184 -160 170.5 -160Q157 -160 148 -169.5Q139 -179 139 -192ZM181 -107Q181 -120 190.5 -129.5Q200 -139 213.5 -139Q227 -139 236 -129.5Q245 -120 245 -106.5Q245 -93 236 -84Q227 -75 213.5 -75Q200 -75 190.5 -84Q181 -93 181 -107ZM256 11Q243 11 233.5 1.5Q224 -8 224 -21.5Q224 -35 233.5 -44Q243 -53 256 -53Q269 -53 278.5 -44Q288 -35 288 -21.5Q288 -8 278.5 1.5Q269 11 256 11ZM299 -75Q285 -75 276 -84Q267 -93 267 -106.5Q267 -120 276 -129.5Q285 -139 298.5 -139Q312 -139 321.5 -129.5Q331 -120 331 -106.5Q331 -93 321.5 -84Q312 -75 299 -75ZM341 -160Q328 -160 318.5 -169.5Q309 -179 309 -192Q309 -205 318.5 -214.5Q328 -224 341.5 -224Q355 -224 364 -214.5Q373 -205 373 -192Q373 -179 364 -169.5Q355 -160 341 -160Z"/>
</svg>