<svg xmlns="http://www.w3.org/2000/svg" viewBox="0 -512 512 512">
	<path fill="#000000" d="M471 11L51 -412L23 -384L94 -314Q63 -277 60 -230Q48 -222 44 -210Q40 -198 45 -185.5Q50 -173 61 -165.5Q72 -158 85 -158Q103 -137 130.5 -124.5Q158 -112 192 -109Q195 -149 220 -188L252 -156Q235 -128 235 -96.5Q235 -65 251 -38Q267 -11 294 5Q321 21 352.5 21Q384 21 412 4L444 36ZM277 -96Q277 -110 284 -126L320 -90L284 -64Q277 -80 277 -96ZM297 -47L335 -73L341 -66V-21Q312 -29 297 -47ZM363 -23V-45L380 -28L376 -26Q368 -23 363 -23ZM427 -90V-96Q427 -112 420 -128L401 -115L386 -130L407 -145Q392 -163 363 -171V-154L311 -205Q337 -213 352 -213Q383 -213 410 -197Q437 -181 453 -154Q469 -127 469 -96Q469 -73 461 -55ZM277 -239L151 -365Q176 -380 207 -390Q272 -413 333 -402Q394 -391 427 -354Q440 -354 451 -346.5Q462 -339 467 -326.5Q472 -314 468 -302Q464 -290 452 -282Q452 -256 439 -230Q396 -256 352 -256Q315 -256 277 -239Z"/>
</svg>