<svg xmlns="http://www.w3.org/2000/svg" viewBox="0 -512 512 512">
	<path fill="#000000" d="M128 -384V-341H85Q68 -341 55.5 -328.5Q43 -316 43 -299V-85Q43 -68 55.5 -55.5Q68 -43 85 -43V-21Q85 -4 97.5 8.5Q110 21 128 21H149Q167 21 179.5 8.5Q192 -4 192 -21V-43H320V-21Q320 -4 332.5 8.5Q345 21 363 21H384Q402 21 414.5 8.5Q427 -4 427 -21V-43Q444 -43 456.5 -55.5Q469 -68 469 -85H235V-341H171V-384ZM341 -384V-341H277V-299H469Q469 -316 456.5 -328.5Q444 -341 427 -341H384V-384ZM149 -299V-213H192L128 -85V-171H85ZM277 -256V-213H469V-256ZM277 -171V-128H469V-171Z"/>
</svg>