<svg xmlns="http://www.w3.org/2000/svg" viewBox="0 -512 512 512">
	<path fill="#000000" d="M64 -405H128Q137 -405 143 -399L188 -355L205 -371Q218 -384 235 -384H363Q380 -384 393 -371L414 -350Q427 -337 427 -320V-43Q427 -25 414.5 -12.5Q402 0 384 0H171Q153 0 140.5 -12.5Q128 -25 128 -43V-277Q128 -294 141 -307L157 -324L119 -363H64ZM235 -341V-299H363V-341ZM243 -213L201 -256H171V-226L213 -183V-115L171 -73V-43H201L243 -85H311L354 -43H384V-73L341 -115V-183L384 -226V-256H354L311 -213ZM256 -171H299V-128H256Z"/>
</svg>