<svg xmlns="http://www.w3.org/2000/svg" viewBox="0 -512 512 512">
	<path fill="#000000" d="M265 -335Q247 -337 233.5 -325.5Q220 -314 219 -296L213 -235H273V-192H209L200 -84Q197 -49 170 -26Q143 -3 108 -6Q87 -8 70 -18.5Q53 -29 43 -46L75 -78Q80 -61 95.5 -53Q111 -45 128 -51Q140 -54 148.5 -64.5Q157 -75 158 -88L167 -192H103V-235H171L176 -300Q179 -335 206 -358Q233 -381 269 -378Q289 -376 306.5 -365.5Q324 -355 334 -338L302 -306Q298 -318 288 -326Q278 -334 265 -335ZM469 -157L439 -187L379 -127L319 -187L288 -157L349 -96L288 -36L319 -6L379 -66L439 -6L469 -36L409 -96Z"/>
</svg>