<svg xmlns="http://www.w3.org/2000/svg" viewBox="0 -512 512 512">
	<path fill="#000000" d="M181 -405Q159 -405 143.5 -389.5Q128 -374 128 -352Q128 -330 143.5 -314.5Q159 -299 181 -299Q203 -299 219 -314.5Q235 -330 235 -352Q235 -374 219 -389.5Q203 -405 181 -405ZM331 -405Q309 -405 293 -389.5Q277 -374 277 -352Q277 -330 293 -314.5Q309 -299 331 -299Q353 -299 368.5 -314.5Q384 -330 384 -352Q384 -374 368.5 -389.5Q353 -405 331 -405ZM235 -277V-235H107V-192H319Q312 -174 296.5 -153Q281 -132 259 -114Q228 -141 209 -171H160Q180 -128 227 -86L123 -3L149 30L260 -58L370 30L396 -3L293 -86Q354 -142 364 -192H405V-235H277V-277Z"/>
</svg>