<svg xmlns="http://www.w3.org/2000/svg" viewBox="0 -512 512 512">
	<path fill="#000000" d="M171 -341V-299H43V-256H255Q248 -238 232.5 -217Q217 -196 195 -178Q164 -205 145 -235H96Q116 -192 163 -150L59 -67L85 -34L196 -122L306 -34L332 -67L229 -150Q290 -206 300 -256H341V-299H213V-341ZM416 -320Q394 -320 378.5 -304.5Q363 -289 363 -267Q363 -245 378.5 -229Q394 -213 416 -213Q438 -213 453.5 -229Q469 -245 469 -267Q469 -289 453.5 -304.5Q438 -320 416 -320ZM415 -171Q393 -171 377.5 -155Q362 -139 362 -117Q362 -95 377.5 -79.5Q393 -64 415 -64Q437 -64 453 -79.5Q469 -95 469 -117Q469 -139 453 -155Q437 -171 415 -171Z"/>
</svg>