<svg xmlns="http://www.w3.org/2000/svg" viewBox="0 -512 512 512">
	<path fill="#000000" d="M448 -320H64Q46 -320 33.5 -307.5Q21 -295 21 -277V-107Q21 -89 33.5 -76.5Q46 -64 64 -64H448Q466 -64 478.5 -76.5Q491 -89 491 -107V-277Q491 -295 478.5 -307.5Q466 -320 448 -320ZM235 -171H171V-107H128V-171H64V-213H128V-277H171V-213H235ZM331 -128Q317 -128 308 -137.5Q299 -147 299 -160Q299 -173 308 -182.5Q317 -192 330.5 -192Q344 -192 353.5 -182.5Q363 -173 363 -160Q363 -147 353.5 -137.5Q344 -128 331 -128ZM416 -192Q403 -192 393.5 -201.5Q384 -211 384 -224Q384 -237 393.5 -246.5Q403 -256 416 -256Q429 -256 438.5 -246.5Q448 -237 448 -224Q448 -211 438.5 -201.5Q429 -192 416 -192Z"/>
</svg>