<svg xmlns="http://www.w3.org/2000/svg" viewBox="0 -512 512 512">
	<path fill="#000000" d="M128 -256H171V-213H213V-171H171V-128H128V-171H85V-213H128ZM395 -256Q408 -256 417.5 -246.5Q427 -237 427 -224Q427 -211 417.5 -201.5Q408 -192 394.5 -192Q381 -192 372 -201.5Q363 -211 363 -224Q363 -237 372 -246.5Q381 -256 395 -256ZM331 -192Q344 -192 353.5 -182.5Q363 -173 363 -160Q363 -147 353.5 -137.5Q344 -128 330.5 -128Q317 -128 308 -137.5Q299 -147 299 -160Q299 -173 308 -182.5Q317 -192 331 -192ZM363 -341Q403 -341 437.5 -321Q472 -301 492 -267Q512 -233 512 -192Q512 -151 492 -117Q472 -83 437.5 -63Q403 -43 363 -43Q332 -43 304.5 -54.5Q277 -66 256 -87Q235 -66 207.5 -54.5Q180 -43 149 -43Q109 -43 74.5 -63Q40 -83 20 -117Q0 -151 0 -192Q0 -233 20 -267Q40 -301 74.5 -321Q109 -341 149 -341ZM149 -299Q120 -299 95.5 -284.5Q71 -270 57 -245.5Q43 -221 43 -192Q43 -163 57 -138.5Q71 -114 95.5 -99.5Q120 -85 149 -85Q175 -85 197.5 -96.5Q220 -108 235 -128H277Q292 -108 314.5 -96.5Q337 -85 363 -85Q392 -85 416.5 -99.5Q441 -114 455 -138.5Q469 -163 469 -192Q469 -221 455 -245.5Q441 -270 416.5 -284.5Q392 -299 363 -299Z"/>
</svg>