<svg xmlns="http://www.w3.org/2000/svg" viewBox="0 -512 512 512">
	<path fill="#000000" d="M149 -320H363Q397 -320 426.5 -303Q456 -286 473.5 -256.5Q491 -227 491 -192Q491 -157 473.5 -127.5Q456 -98 426.5 -81Q397 -64 363 -64Q335 -64 310 -75.5Q285 -87 267 -107H245Q227 -87 202 -75.5Q177 -64 149 -64Q115 -64 85.5 -81Q56 -98 38.5 -127.5Q21 -157 21 -192Q21 -227 38.5 -256.5Q56 -286 85.5 -303Q115 -320 149 -320ZM128 -256V-213H85V-171H128V-128H171V-171H213V-213H171V-256ZM331 -192Q317 -192 308 -182.5Q299 -173 299 -160Q299 -147 308 -137.5Q317 -128 330.5 -128Q344 -128 353.5 -137.5Q363 -147 363 -160Q363 -173 353.5 -182.5Q344 -192 331 -192ZM395 -256Q381 -256 372 -246.5Q363 -237 363 -224Q363 -211 372 -201.5Q381 -192 394.5 -192Q408 -192 417.5 -201.5Q427 -211 427 -224Q427 -237 417.5 -246.5Q408 -256 395 -256Z"/>
</svg>