<svg xmlns="http://www.w3.org/2000/svg" viewBox="0 -512 512 512">
	<path fill="#000000" d="M85 -277H171V-363Q171 -380 183.5 -392.5Q196 -405 213 -405H299Q316 -405 328.5 -392.5Q341 -380 341 -363V-277H427Q444 -277 456.5 -264.5Q469 -252 469 -235V-149Q469 -132 456.5 -119.5Q444 -107 427 -107H341V-21Q341 -4 328.5 8.5Q316 21 299 21H213Q196 21 183.5 8.5Q171 -4 171 -21V-107H85Q68 -107 55.5 -119.5Q43 -132 43 -149V-235Q43 -252 55.5 -264.5Q68 -277 85 -277ZM85 -235V-149H213V-21H299V-149H427V-235H299V-363H213V-235Z"/>
</svg>