<svg xmlns="http://www.w3.org/2000/svg" viewBox="0 -512 512 512">
	<path fill="#000000" d="M107 -277Q142 -277 167 -252Q192 -227 192 -192Q192 -157 167 -132Q142 -107 106.5 -107Q71 -107 46 -132Q21 -157 21 -192Q21 -227 46 -252Q71 -277 107 -277ZM256 -427Q291 -427 316 -402Q341 -377 341 -341.5Q341 -306 316 -281Q291 -256 256 -256Q221 -256 196 -281Q171 -306 171 -341.5Q171 -377 196 -402Q221 -427 256 -427ZM256 -128Q291 -128 316 -103Q341 -78 341 -42.5Q341 -7 316 18Q291 43 256 43Q221 43 196 18Q171 -7 171 -42.5Q171 -78 196 -103Q221 -128 256 -128ZM405 -277Q441 -277 466 -252Q491 -227 491 -192Q491 -157 466 -132Q441 -107 405.5 -107Q370 -107 345 -132Q320 -157 320 -192Q320 -227 345 -252Q370 -277 405 -277Z"/>
</svg>