<svg xmlns="http://www.w3.org/2000/svg" viewBox="0 -512 512 512">
	<path fill="#000000" d="M448 -320H64Q46 -320 33.5 -307.5Q21 -295 21 -277V-107Q21 -89 33.5 -76.5Q46 -64 64 -64H448Q466 -64 478.5 -76.5Q491 -89 491 -107V-277Q491 -295 478.5 -307.5Q466 -320 448 -320ZM448 -107H64V-277H448ZM128 -128H171V-171H213V-213H171V-256H128V-213H85V-171H128ZM309 -192Q323 -192 332 -182.5Q341 -173 341 -160Q341 -147 332 -137.5Q323 -128 309.5 -128Q296 -128 286.5 -137.5Q277 -147 277 -160Q277 -173 286.5 -182.5Q296 -192 309 -192ZM395 -256Q408 -256 417.5 -246.5Q427 -237 427 -224Q427 -211 417.5 -201.5Q408 -192 394.5 -192Q381 -192 372 -201.5Q363 -211 363 -224Q363 -237 372 -246.5Q381 -256 395 -256Z"/>
</svg>