<svg xmlns="http://www.w3.org/2000/svg" viewBox="0 -512 512 512">
	<path fill="#000000" d="M448 -320H469V-363H448V-384H384V-363H128V-384H64V-363H43V-320H64V-21H43V21H149V-21H128V-320H235V-299H245V-221Q237 -219 232.5 -212Q228 -205 228 -197Q228 -182 241 -175V-149H254Q260 -149 264 -145.5Q268 -142 268 -136.5Q268 -131 264 -127Q260 -123 253.5 -123Q247 -123 243 -129Q240 -134 235 -135.5Q230 -137 225 -134.5Q220 -132 218.5 -126.5Q217 -121 220 -116Q225 -107 234.5 -102Q244 -97 254 -97Q271 -97 282 -108.5Q293 -120 293 -137Q293 -149 286 -159Q279 -169 267 -173V-175Q277 -180 280 -190Q283 -200 278 -209Q274 -216 267 -220V-299H277V-320H384V-21H363V21H469V-21H448ZM107 -122V-92L85 -70V-100ZM85 -21V-38L107 -59V-29L99 -21ZM85 -292L107 -314V-284L85 -262ZM85 -228L107 -250V-220L85 -198ZM85 -164L107 -186V-156L85 -134V-166ZM427 -122V-92L405 -70V-100ZM405 -21V-38L427 -59V-29L419 -21ZM405 -292L427 -314V-284L405 -262ZM405 -228L427 -250V-220L405 -198ZM405 -164L427 -186V-156L405 -134V-166Z"/>
</svg>