<svg xmlns="http://www.w3.org/2000/svg" viewBox="0 -512 512 512">
	<path fill="#000000" d="M21 -357L49 -384L448 15L421 43L378 0Q359 -2 346 -15.5Q333 -29 331 -47L299 -80V0H85V-293ZM422 -294Q437 -278 437 -256V-50L405 -81V-207Q395 -203 384 -203Q362 -203 346.5 -218.5Q331 -234 331 -256Q331 -273 340.5 -286.5Q350 -300 365 -306L320 -351L343 -373L422 -294ZM252 -235H256V-341H145L108 -379Q118 -384 128 -384H256Q274 -384 286.5 -371.5Q299 -359 299 -341V-192H320Q338 -192 350.5 -179.5Q363 -167 363 -149V-124ZM128 -235H144L128 -250ZM128 -192V-43H256V-122L186 -192ZM384 -235Q393 -235 399 -241Q405 -247 405 -256Q405 -265 399 -271Q393 -277 384 -277Q375 -277 369 -271Q363 -265 363 -256Q363 -247 369 -241Q375 -235 384 -235Z"/>
</svg>