<svg xmlns="http://www.w3.org/2000/svg" viewBox="0 -512 512 512">
	<path fill="#000000" d="M363 -53V-267Q363 -289 378 -304V-305L457 -384L480 -361L435 -316Q450 -311 459.5 -297.5Q469 -284 469 -267Q469 -256 465 -246Q461 -236 454 -229Q438 -213 416 -213Q405 -213 395 -218V-53Q395 -43 390.5 -33Q386 -23 378.5 -15.5Q371 -8 361.5 -4Q352 0 341 0Q319 0 303.5 -15.5Q288 -31 288 -53V-160H256V0H43V-341Q43 -359 55.5 -371.5Q68 -384 85 -384H213Q231 -384 243.5 -371.5Q256 -359 256 -341V-192H277Q295 -192 307.5 -179.5Q320 -167 320 -149V-53Q320 -45 326.5 -38.5Q333 -32 341.5 -32Q350 -32 356.5 -38.5Q363 -45 363 -53ZM213 -235V-341H85V-235ZM416 -245Q424 -245 430.5 -251.5Q437 -258 437 -266.5Q437 -275 430.5 -281.5Q424 -288 416 -288Q408 -288 401.5 -281.5Q395 -275 395 -267Q395 -259 401.5 -252Q408 -245 416 -245Z"/>
</svg>