<svg xmlns="http://www.w3.org/2000/svg" viewBox="0 -512 512 512">
	<path fill="#000000" d="M378 -304Q363 -289 363 -267V-53Q363 -44 356.5 -38Q350 -32 341 -32Q332 -32 326 -38Q320 -44 320 -53V-149Q320 -167 307.5 -179.5Q295 -192 277 -192H256V-341Q256 -359 243.5 -371.5Q231 -384 213 -384H85Q68 -384 55.5 -371.5Q43 -359 43 -341V0H256V-160H288V-53Q288 -31 303.5 -15.5Q319 0 341 0Q352 0 362 -4Q372 -8 379.5 -15.5Q387 -23 391 -33Q395 -43 395 -53V-218Q405 -213 416 -213Q438 -213 454 -229Q461 -236 465 -246Q469 -256 469 -267Q469 -284 459.5 -297.5Q450 -311 435 -316L480 -361L457 -384L378 -305ZM85 -235V-341H213V-235ZM431 -252Q425 -245 416 -245Q407 -245 401 -251.5Q395 -258 395 -267Q395 -276 401 -282Q407 -288 416 -288Q425 -288 431 -282Q437 -276 437 -267Q437 -258 431 -252ZM213 -192V-43H85V-192Z"/>
</svg>