<svg xmlns="http://www.w3.org/2000/svg" viewBox="0 -512 512 512">
	<path fill="#000000" d="M422 -294L343 -373L320 -351L365 -306Q350 -300 340.5 -286.5Q331 -273 331 -256Q331 -234 346.5 -218.5Q362 -203 384 -203Q395 -203 405 -207V-53Q405 -44 399 -38Q393 -32 384 -32Q375 -32 369 -38Q363 -44 363 -53V-149Q363 -167 350.5 -179.5Q338 -192 320 -192H299V-341Q299 -359 286.5 -371.5Q274 -384 256 -384H128Q110 -384 97.5 -371.5Q85 -359 85 -341V0H299V-160H331V-53Q331 -31 346.5 -15.5Q362 0 384 0Q406 0 421.5 -15.5Q437 -31 437 -53V-256Q437 -278 422 -294ZM256 -160V-43H128V-192H256ZM256 -235H128V-341H256ZM384 -235Q375 -235 369 -241Q363 -247 363 -256Q363 -265 369 -271Q375 -277 384 -277Q393 -277 399 -271Q405 -265 405 -256Q405 -247 399 -241Q393 -235 384 -235Z"/>
</svg>