<svg xmlns="http://www.w3.org/2000/svg" viewBox="0 -512 512 512">
	<path fill="#000000" d="M344 -260Q351 -252 356 -241L358 -237Q369 -210 362.5 -181.5Q356 -153 335 -133Q317 -116 291 -110Q267 -104 241 -108Q218 -111 197.5 -124.5Q177 -138 165 -158Q157 -173 154 -186Q151 -194 149 -209Q148 -235 158 -260Q168 -285 187 -301Q178 -281 180 -259Q182 -237 195 -220L198 -218Q202 -213 207.5 -215.5Q213 -218 213 -224L212 -229Q198 -266 208.5 -305Q219 -344 249 -369Q268 -384 287 -389Q276 -367 279.5 -341.5Q283 -316 301 -300Q306 -294 318 -285Q328 -278 332 -273ZM296 -161L295 -162Q303 -168 306.5 -177.5Q310 -187 310 -197L309 -204Q307 -213 301 -221Q298 -226 288.5 -234Q279 -242 274 -248.5Q269 -255 265 -265Q259 -250 262 -232L264 -222Q268 -206 267 -197Q264 -186 255.5 -177Q247 -168 233 -165Q242 -156 254.5 -152Q267 -148 279 -152Q288 -155 296 -161ZM235 -64V-43Q235 -34 241 -27.5Q247 -21 256 -21Q265 -21 271 -27.5Q277 -34 277 -43V-64H320V-43Q320 -34 326.5 -27.5Q333 -21 341.5 -21Q350 -21 356.5 -27.5Q363 -34 363 -43V-64Q382 -64 404 -51Q427 -38 427 -21V21H85V-21Q85 -38 109 -51Q130 -64 149 -64V-43Q149 -34 155.5 -27.5Q162 -21 170.5 -21Q179 -21 185.5 -27.5Q192 -34 192 -43V-64Z"/>
</svg>