<svg xmlns="http://www.w3.org/2000/svg" viewBox="0 -512 512 512">
	<path fill="#000000" d="M43 -363Q75 -298 85.5 -245Q96 -192 85.5 -139Q75 -86 43 -21H107Q175 -21 237 -57Q294 -89 354 -156Q363 -143 376.5 -135.5Q390 -128 405 -128Q432 -128 450.5 -146.5Q469 -165 469 -192Q469 -219 450.5 -237.5Q432 -256 405 -256Q390 -256 376.5 -248.5Q363 -241 354 -228Q294 -295 237 -327Q175 -363 107 -363ZM107 -320Q166 -320 221 -287Q272 -256 326 -192Q272 -128 221 -97Q166 -64 107 -64Q155 -192 107 -320ZM405 -213Q413 -213 420 -206.5Q427 -200 427 -192Q427 -184 420 -177.5Q413 -171 404.5 -171Q396 -171 390 -177Q384 -183 384 -191.5Q384 -200 390.5 -206.5Q397 -213 405 -213Z"/>
</svg>