<svg xmlns="http://www.w3.org/2000/svg" viewBox="0 -512 512 512">
	<path fill="#000000" d="M43 -363V-21H213Q268 -21 313 -53Q358 -85 375 -137Q393 -128 405 -128Q432 -128 450.5 -146.5Q469 -165 469 -192Q469 -219 450.5 -237.5Q432 -256 405 -256Q390 -256 375 -247Q358 -299 313 -331Q268 -363 213 -363ZM85 -320H213Q239 -320 262.5 -310.5Q286 -301 304 -283Q322 -265 331.5 -241Q341 -217 341 -192Q341 -167 331.5 -143Q322 -119 304 -101Q286 -83 262.5 -73.5Q239 -64 213 -64H85ZM405 -213Q413 -213 420 -206.5Q427 -200 427 -192Q427 -184 420 -177.5Q413 -171 404.5 -171Q396 -171 390 -177Q384 -183 384 -191.5Q384 -200 390.5 -206.5Q397 -213 405 -213Z"/>
</svg>