<svg xmlns="http://www.w3.org/2000/svg" viewBox="0 -512 512 512">
	<path fill="#000000" d="M256 -405Q298 -405 337.5 -389Q377 -373 407 -343Q437 -313 453 -273.5Q469 -234 469 -192Q469 -150 453 -110.5Q437 -71 407 -41Q377 -11 337.5 5Q298 21 256 21Q214 21 174.5 5Q135 -11 105 -41Q75 -71 59 -110.5Q43 -150 43 -192Q43 -234 59 -273.5Q75 -313 105 -343Q135 -373 174.5 -389Q214 -405 256 -405ZM256 -363Q197 -363 151 -326.5Q105 -290 91 -235L299 -27Q354 -41 390.5 -87Q427 -133 427 -192H315V-160H388Q380 -128 358 -102.5Q336 -77 305 -65L129 -241Q145 -280 179 -304Q213 -328 256 -328Q289 -328 318 -313Q347 -298 367 -271L393 -294Q369 -326 333 -344.5Q297 -363 256 -363ZM85 -192Q85 -146 108 -106.5Q131 -67 170.5 -44Q210 -21 256 -21Q258 -21 85 -192Z"/>
</svg>