<svg xmlns="http://www.w3.org/2000/svg" viewBox="0 -512 512 512">
	<path fill="#000000" d="M256 -405Q298 -405 337.5 -389Q377 -373 407 -343Q437 -313 453 -273.5Q469 -234 469 -192Q469 -150 453 -110.5Q437 -71 407 -41Q377 -11 337.5 5Q298 21 256 21Q214 21 174.5 5Q135 -11 105 -41Q75 -71 59 -110.5Q43 -150 43 -192Q43 -234 59 -273.5Q75 -313 105 -343Q135 -373 174.5 -389Q214 -405 256 -405ZM256 -363Q210 -363 170.5 -340Q131 -317 108 -277.5Q85 -238 85 -192Q85 -154 100 -121Q115 -88 143 -64Q165 -85 194.5 -96Q224 -107 256 -107Q320 -107 369 -64Q397 -88 412 -121Q427 -154 427 -192Q427 -238 404 -277.5Q381 -317 341.5 -340Q302 -363 256 -363ZM299 -320Q308 -320 314 -314Q320 -308 320 -299Q320 -290 314 -283.5Q308 -277 299 -277Q290 -277 283.5 -283.5Q277 -290 277 -299Q277 -308 283.5 -314Q290 -320 299 -320ZM213 -320Q222 -320 228.5 -314Q235 -308 235 -299Q235 -290 228.5 -283.5Q222 -277 213 -277Q204 -277 198 -283.5Q192 -290 192 -299Q192 -308 198 -314Q204 -320 213 -320ZM147 -257Q150 -257 155 -256L230 -225Q239 -232 250.5 -234Q262 -236 272 -231Q288 -225 295 -208.5Q302 -192 295.5 -176Q289 -160 272.5 -153Q256 -146 240 -153Q229 -157 222 -166Q215 -175 213 -186L139 -216Q131 -219 127.5 -227.5Q124 -236 127 -244Q130 -250 135.5 -253.5Q141 -257 147 -257ZM363 -256Q372 -256 378 -250Q384 -244 384 -235Q384 -226 378 -219.5Q372 -213 363 -213Q354 -213 347.5 -219.5Q341 -226 341 -235Q341 -244 347.5 -250Q354 -256 363 -256Z"/>
</svg>