<svg xmlns="http://www.w3.org/2000/svg" viewBox="0 -512 512 512">
	<path fill="#000000" d="M256 -405Q214 -405 174.5 -389Q135 -373 105 -343Q75 -313 59 -273.5Q43 -234 43 -192Q43 -150 59 -110.5Q75 -71 105 -41Q135 -11 174.5 5Q214 21 256 21Q298 21 337.5 5Q377 -11 407 -41Q437 -71 453 -110.5Q469 -150 469 -192Q469 -234 453 -273.5Q437 -313 407 -343Q377 -373 337.5 -389Q298 -405 256 -405ZM256 -363Q302 -363 341.5 -340Q381 -317 404 -277.5Q427 -238 427 -192Q427 -154 412 -121Q397 -88 369 -64Q347 -85 317.5 -96Q288 -107 256 -107Q192 -107 143 -64Q115 -88 100 -121Q85 -154 85 -192Q85 -238 108 -277.5Q131 -317 170.5 -340Q210 -363 256 -363ZM299 -322Q293 -322 287.5 -318.5Q282 -315 279 -308L250 -235Q238 -233 229.5 -225.5Q221 -218 216 -208Q210 -191 217 -175Q224 -159 240.5 -152.5Q257 -146 273 -153Q289 -160 296 -176Q300 -187 298 -198Q296 -209 289 -218L319 -293Q323 -301 319.5 -309Q316 -317 307 -321Q304 -322 299 -322ZM213 -320Q204 -320 198 -314Q192 -308 192 -299Q192 -290 198 -283.5Q204 -277 213 -277Q222 -277 228.5 -283.5Q235 -290 235 -299Q235 -308 228.5 -314Q222 -320 213 -320ZM149 -256Q140 -256 134 -250Q128 -244 128 -235Q128 -226 134 -219.5Q140 -213 149 -213Q158 -213 164.5 -219.5Q171 -226 171 -235Q171 -244 164.5 -250Q158 -256 149 -256ZM363 -256Q354 -256 347.5 -250Q341 -244 341 -235Q341 -226 347.5 -219.5Q354 -213 363 -213Q372 -213 378 -219.5Q384 -226 384 -235Q384 -244 378 -250Q372 -256 363 -256Z"/>
</svg>