<svg xmlns="http://www.w3.org/2000/svg" viewBox="0 -512 512 512">
	<path fill="#000000" d="M256 -405Q298 -405 337.5 -389Q377 -373 407 -343Q437 -313 453 -273.5Q469 -234 469 -192Q469 -150 453 -110.5Q437 -71 407 -41Q377 -11 337.5 5Q298 21 256 21Q214 21 174.5 5Q135 -11 105 -41Q75 -71 59 -110.5Q43 -150 43 -192Q43 -234 59 -273.5Q75 -313 105 -343Q135 -373 174.5 -389Q214 -405 256 -405ZM256 -363Q210 -363 170.5 -340Q131 -317 108 -277.5Q85 -238 85 -192Q85 -154 100 -121Q115 -88 143 -64Q165 -85 194.5 -96Q224 -107 256 -107Q320 -107 369 -64Q397 -88 412 -121Q427 -154 427 -192Q427 -238 404 -277.5Q381 -317 341.5 -340Q302 -363 256 -363ZM213 -322Q219 -322 224.5 -318.5Q230 -315 233 -308L262 -235Q274 -233 282.5 -225.5Q291 -218 296 -208Q302 -191 295 -175Q288 -159 271.5 -152.5Q255 -146 239 -153Q223 -160 216 -176Q212 -187 214 -198Q216 -209 223 -218L193 -293Q189 -301 192.5 -309Q196 -317 205 -321Q208 -322 213 -322ZM299 -320Q308 -320 314 -314Q320 -308 320 -299Q320 -290 314 -283.5Q308 -277 299 -277Q290 -277 283.5 -283.5Q277 -290 277 -299Q277 -308 283.5 -314Q290 -320 299 -320ZM363 -256Q372 -256 378 -250Q384 -244 384 -235Q384 -226 378 -219.5Q372 -213 363 -213Q354 -213 347.5 -219.5Q341 -226 341 -235Q341 -244 347.5 -250Q354 -256 363 -256ZM149 -256Q158 -256 164.5 -250Q171 -244 171 -235Q171 -226 164.5 -219.5Q158 -213 149 -213Q140 -213 134 -219.5Q128 -226 128 -235Q128 -244 134 -250Q140 -256 149 -256Z"/>
</svg>