<svg xmlns="http://www.w3.org/2000/svg" viewBox="0 -512 512 512">
	<path fill="#000000" d="M256 -405Q214 -405 174.5 -389Q135 -373 105 -343Q75 -313 59 -273.5Q43 -234 43 -192Q43 -150 59 -110.5Q75 -71 105 -41Q135 -11 174.5 5Q214 21 256 21Q298 21 337.5 5Q377 -11 407 -41Q437 -71 453 -110.5Q469 -150 469 -192Q469 -234 453 -273.5Q437 -313 407 -343Q377 -373 337.5 -389Q298 -405 256 -405ZM256 -363Q302 -363 341.5 -340Q381 -317 404 -277.5Q427 -238 427 -192Q427 -154 412 -121Q397 -88 369 -64Q347 -85 317.5 -96Q288 -107 256 -107Q192 -107 143 -64Q115 -88 100 -121Q85 -154 85 -192Q85 -238 108 -277.5Q131 -317 170.5 -340Q210 -363 256 -363ZM213 -320Q204 -320 198 -314Q192 -308 192 -299Q192 -290 198 -283.5Q204 -277 213 -277Q222 -277 228.5 -283.5Q235 -290 235 -299Q235 -308 228.5 -314Q222 -320 213 -320ZM299 -320Q290 -320 283.5 -314Q277 -308 277 -299Q277 -290 283.5 -283.5Q290 -277 299 -277Q308 -277 314 -283.5Q320 -290 320 -299Q320 -308 314 -314Q308 -320 299 -320ZM365 -257Q362 -257 357 -256L282 -225Q273 -232 261.5 -234Q250 -236 240 -231Q224 -225 217 -208.5Q210 -192 216.5 -176Q223 -160 239.5 -153Q256 -146 272 -153Q283 -157 290 -166Q297 -175 299 -186L373 -216Q381 -219 384.5 -227.5Q388 -236 385 -244Q382 -250 376.5 -253.5Q371 -257 365 -257ZM149 -256Q140 -256 134 -250Q128 -244 128 -235Q128 -226 134 -219.5Q140 -213 149 -213Q158 -213 164.5 -219.5Q171 -226 171 -235Q171 -244 164.5 -250Q158 -256 149 -256Z"/>
</svg>