<svg xmlns="http://www.w3.org/2000/svg" viewBox="0 -512 512 512">
	<path fill="#000000" d="M49 -15L254 -220L224 -250L209 -235Q202 -229 193.5 -229Q185 -229 179 -235L163 -250Q157 -257 157 -265.5Q157 -274 163 -281L284 -401Q290 -408 299 -408Q308 -408 314 -401L329 -386Q336 -380 336 -371Q336 -362 329 -356L314 -341L345 -311Q351 -317 359.5 -317Q368 -317 374.5 -311Q381 -305 381 -296Q381 -287 375 -281L405 -250L420 -266Q426 -272 435 -272Q444 -272 450 -266L465 -250Q471 -244 471 -235Q471 -226 465 -220L345 -100Q338 -93 329 -93Q320 -93 314 -100L299 -115Q293 -121 293 -130Q293 -139 299 -145L314 -160L284 -190L79 15Q73 21 64 21Q55 21 49 15Q43 9 43 0Q43 -9 49 -15ZM427 -43Q444 -43 456.5 -30.5Q469 -18 469 0V21H256V0Q256 -18 268.5 -30.5Q281 -43 299 -43Z"/>
</svg>