<svg xmlns="http://www.w3.org/2000/svg" viewBox="0 -512 512 512">
	<path fill="#000000" d="M418 -384H320V-427H491V-256H448V-354L345 -251Q363 -224 363 -192Q363 -154 338.5 -124.5Q314 -95 277 -87V-43H320V0H277V43H235V0H192V-43H235V-87Q198 -95 173.5 -124.5Q149 -154 149 -192Q149 -224 167 -250L142 -276L112 -246L82 -276L112 -306L64 -354V-277H21V-427H171V-384H94L142 -336L172 -367L203 -336L172 -306L197 -281Q223 -299 255.5 -299Q288 -299 315 -281ZM256 -256Q229 -256 210.5 -237.5Q192 -219 192 -192Q192 -165 210.5 -146.5Q229 -128 256 -128Q283 -128 301.5 -146.5Q320 -165 320 -192Q320 -219 301.5 -237.5Q283 -256 256 -256Z"/>
</svg>