<svg xmlns="http://www.w3.org/2000/svg" viewBox="0 -512 512 512">
	<path fill="#000000" d="M256 -363Q291 -363 320.5 -345.5Q350 -328 367 -298.5Q384 -269 384 -235Q384 -187 353.5 -151.5Q323 -116 277 -108V-64H320V-21H277V21H235V-21H192V-64H235V-108Q189 -116 158.5 -151.5Q128 -187 128 -235Q128 -269 145 -298.5Q162 -328 191.5 -345.5Q221 -363 256 -363ZM256 -320Q221 -320 196 -295Q171 -270 171 -234.5Q171 -199 196 -174Q221 -149 256 -149Q291 -149 316 -174Q341 -199 341 -234.5Q341 -270 316 -295Q291 -320 256 -320Z"/>
</svg>