<svg xmlns="http://www.w3.org/2000/svg" viewBox="0 -512 512 512">
	<path fill="#000000" d="M149 -384Q149 -359 160.5 -336.5Q172 -314 192 -299Q172 -284 160.5 -261.5Q149 -239 149 -213Q149 -175 173 -145.5Q197 -116 235 -109V-64H192V-21H235V21H277V-21H320V-64H277V-109Q315 -116 339 -145.5Q363 -175 363 -213Q363 -239 351.5 -261.5Q340 -284 320 -299Q340 -314 351.5 -336.5Q363 -359 363 -384H320Q320 -357 301.5 -338.5Q283 -320 256 -320Q229 -320 210.5 -338.5Q192 -357 192 -384ZM256 -277Q283 -277 301.5 -258.5Q320 -240 320 -213.5Q320 -187 301.5 -168Q283 -149 256 -149Q229 -149 210.5 -168Q192 -187 192 -213.5Q192 -240 210.5 -258.5Q229 -277 256 -277Z"/>
</svg>