<svg xmlns="http://www.w3.org/2000/svg" viewBox="0 -512 512 512">
	<path fill="#000000" d="M277 -384H235V-336L193 -360L172 -323L213 -299L172 -275L193 -237L235 -262V-190Q198 -182 173.5 -153Q149 -124 149 -85Q149 -56 163.5 -31.5Q178 -7 202.5 7Q227 21 256 21Q285 21 309.5 7Q334 -7 348.5 -31.5Q363 -56 363 -85Q363 -124 338.5 -153Q314 -182 277 -190V-262L319 -237L340 -275L299 -299L340 -323L319 -360L277 -336ZM256 -21Q230 -21 211 -40Q192 -59 192 -85.5Q192 -112 211 -130.5Q230 -149 256 -149Q282 -149 301 -130.5Q320 -112 320 -85.5Q320 -59 301 -40Q282 -21 256 -21Z"/>
</svg>