<svg xmlns="http://www.w3.org/2000/svg" viewBox="0 -512 512 512">
	<path fill="#000000" d="M375 -363H299V-405H448V-256H405V-333L324 -251Q341 -224 341 -192Q341 -154 317 -124.5Q293 -95 256 -87V-43H299V0H256V43H213V0H171V-43H213V-87Q177 -95 152.5 -124.5Q128 -154 128 -192Q128 -221 142.5 -245.5Q157 -270 181.5 -284.5Q206 -299 235 -299Q267 -299 293 -281ZM235 -256Q208 -256 189.5 -237.5Q171 -219 171 -192Q171 -165 189.5 -146.5Q208 -128 234.5 -128Q261 -128 280 -146.5Q299 -165 299 -192Q299 -219 280 -237.5Q261 -256 235 -256Z"/>
</svg>