<svg xmlns="http://www.w3.org/2000/svg" viewBox="0 -512 512 512">
	<path fill="#000000" d="M149 -405Q132 -405 119.5 -392.5Q107 -380 107 -363V-320H85Q68 -320 55.5 -307.5Q43 -295 43 -277V-21H85V0Q85 9 91.5 15Q98 21 107 21H128Q137 21 143 15Q149 9 149 0V-21H363V0Q363 9 369 15Q375 21 384 21H405Q414 21 420.5 15Q427 9 427 0V-21H469V-277Q469 -295 456.5 -307.5Q444 -320 427 -320H405V-363Q405 -380 392.5 -392.5Q380 -405 363 -405ZM299 -235V-277H427V-235ZM299 -149V-192H427V-149ZM149 -363H363V-320H149ZM149 -277V-192H192L128 -64V-149H85Z"/>
</svg>