<svg xmlns="http://www.w3.org/2000/svg" viewBox="0 -512 512 512">
	<path fill="#000000" d="M85 -405H43V-43Q43 -25 55.5 -12.5Q68 0 85 0H258Q256 -10 256 -21.5Q256 -33 258 -43H85ZM277 -85Q292 -105 314.5 -116.5Q337 -128 362.5 -128Q388 -128 410.5 -116.5Q433 -105 448 -85H469V-320Q469 -338 456.5 -350.5Q444 -363 427 -363H171Q153 -363 140.5 -350.5Q128 -338 128 -320V-85ZM427 -320V-277H299V-320ZM299 -235H427V-192H299ZM149 -213L213 -341V-256H256L192 -128V-213ZM302 -43Q299 -32 299 -21Q299 -10 302 0Q309 19 325.5 31Q342 43 363 43Q389 43 408 24Q427 5 427 -21.5Q427 -48 408 -66.5Q389 -85 363 -85Q342 -85 325.5 -73.5Q309 -62 302 -43Z"/>
</svg>