<svg xmlns="http://www.w3.org/2000/svg" viewBox="0 -512 512 512">
	<path fill="#000000" d="M405 -125V11Q405 24 395.5 33Q386 42 373 43H235Q222 43 213 33L109 -56L125 -73Q131 -79 140 -79H145L213 -43V-256Q213 -265 219.5 -271Q226 -277 235 -277Q244 -277 250 -271Q256 -265 256 -256V-299Q256 -308 262 -314Q268 -320 277 -320Q286 -320 292.5 -314Q299 -308 299 -299V-192L387 -153Q395 -149 400 -141.5Q405 -134 405 -125ZM320 -225V-251Q327 -257 332 -266Q341 -281 341 -299Q341 -325 322.5 -344Q304 -363 278.5 -363Q253 -363 234 -345L231 -342Q226 -338 223 -333Q220 -328 218 -322L216 -317Q196 -311 183.5 -294Q171 -277 171 -255.5Q171 -234 184 -217Q186 -214 191 -209L192 -208V-182Q172 -193 160.5 -212.5Q149 -232 149 -256.5Q149 -281 163 -302Q177 -323 199 -334Q210 -356 231 -370Q252 -384 277 -384Q313 -384 338 -359Q363 -334 363 -299Q363 -275 351.5 -255.5Q340 -236 320 -225Z"/>
</svg>