<svg xmlns="http://www.w3.org/2000/svg" viewBox="0 -512 512 512">
	<path fill="#000000" d="M405 -125V11Q405 24 395.5 33Q386 42 373 43H235Q222 43 213 33L109 -56L125 -73Q131 -79 140 -79H145L213 -43V-256Q213 -265 219.5 -271Q226 -277 235 -277Q244 -277 250 -271Q256 -265 256 -256V-299Q256 -308 262 -314Q268 -320 277 -320Q286 -320 292.5 -314Q299 -308 299 -299V-192L387 -153Q395 -149 400 -141.5Q405 -134 405 -125ZM277 -384Q313 -384 338 -359Q363 -334 363 -299Q363 -275 351.5 -255.5Q340 -236 320 -225V-251Q341 -270 341 -297.5Q341 -325 322.5 -344Q304 -363 277 -363Q256 -363 239 -350Q222 -337 216 -317Q196 -311 183.5 -294Q171 -277 171 -256Q171 -227 192 -208V-182Q172 -193 160.5 -212.5Q149 -232 149 -256.5Q149 -281 163 -302Q177 -323 199 -334Q210 -356 231 -370Q252 -384 277 -384ZM277 -427Q312 -427 341.5 -409.5Q371 -392 388 -362.5Q405 -333 405 -299Q405 -266 390 -238Q375 -210 349 -193L326 -204Q352 -217 368 -242.5Q384 -268 384 -298Q384 -328 369.5 -352.5Q355 -377 330.5 -391Q306 -405 277 -405Q248 -405 222.5 -390Q197 -375 184 -350Q158 -336 143 -311Q128 -286 128 -256Q128 -224 145.5 -197.5Q163 -171 192 -158V-135Q154 -149 130.5 -182Q107 -215 107 -256Q107 -290 123.5 -319Q140 -348 168 -365Q185 -393 214 -410Q243 -427 277 -427Z"/>
</svg>