<svg xmlns="http://www.w3.org/2000/svg" viewBox="0 -512 512 512">
	<path fill="#000000" d="M277 -256Q277 -265 283.5 -271Q290 -277 299 -277Q308 -277 314 -271Q320 -265 320 -256V-161L346 -158L451 -111Q460 -107 464.5 -99.5Q469 -92 469 -82V11Q469 24 459.5 33Q450 42 437 43H299Q286 43 277 33L173 -56L189 -73Q195 -79 204 -79H209L277 -43ZM299 -341Q321 -341 341 -329.5Q361 -318 372 -299Q390 -268 381 -234Q372 -200 341 -182V-208Q363 -227 363 -256Q363 -283 344 -301.5Q325 -320 298.5 -320Q272 -320 253.5 -301.5Q235 -283 235 -256Q235 -227 256 -208V-182Q236 -194 224.5 -213.5Q213 -233 213 -256Q213 -291 238 -316Q263 -341 299 -341ZM85 -256L149 -192H107V-128H64V-192H21ZM85 -299L21 -363H64V-427H107V-363H149ZM192 -149Q215 -149 235 -138V-112Q216 -128 190.5 -128Q165 -128 146.5 -109.5Q128 -91 128 -64Q128 -48 135 -34.5Q142 -21 154 -12L199 21H192Q157 21 132 -4Q107 -29 107 -64Q107 -99 132 -124Q157 -149 192 -149Z"/>
</svg>