<svg xmlns="http://www.w3.org/2000/svg" viewBox="0 -512 512 512">
	<path fill="#000000" d="M213 -256Q213 -265 219.5 -271Q226 -277 235 -277Q244 -277 250 -271Q256 -265 256 -256V-161L282 -158L387 -111Q396 -107 400.5 -99.5Q405 -92 405 -82V11Q405 24 395.5 33Q386 42 373 43H235Q222 43 213 33L109 -56L125 -73Q131 -79 140 -79H145L213 -43ZM192 -183V-256Q192 -274 204.5 -286.5Q217 -299 234.5 -299Q252 -299 264.5 -286.5Q277 -274 277 -256V-183Q297 -194 308.5 -213.5Q320 -233 320 -256Q320 -291 295 -316Q270 -341 234.5 -341Q199 -341 174 -316Q149 -291 149 -256Q149 -233 161 -213.5Q173 -194 192 -183Z"/>
</svg>