<svg xmlns="http://www.w3.org/2000/svg" viewBox="0 -512 512 512">
	<path fill="#000000" d="M427 -405H85Q68 -405 55.5 -392.5Q43 -380 43 -363V-21Q43 -4 55.5 8.5Q68 21 85 21H427Q444 21 456.5 8.5Q469 -4 469 -21V-363Q469 -380 456.5 -392.5Q444 -405 427 -405ZM235 -363Q270 -363 295 -338Q320 -313 320 -277Q320 -254 308.5 -234.5Q297 -215 277 -204V-230Q299 -249 299 -276.5Q299 -304 280 -322.5Q261 -341 234.5 -341Q208 -341 189.5 -322.5Q171 -304 171 -276.5Q171 -249 192 -230V-204Q172 -215 160.5 -234.5Q149 -254 149 -277Q149 -313 174 -338Q199 -363 235 -363ZM384 -53Q384 -40 374.5 -31Q365 -22 352 -21H235Q222 -21 213 -31L128 -120L144 -137Q150 -143 160 -143H164L213 -107V-277Q213 -286 219.5 -292.5Q226 -299 234.5 -299Q243 -299 249.5 -292.5Q256 -286 256 -277V-182L282 -179L366 -132Q374 -129 379 -121Q384 -113 384 -104Z"/>
</svg>