<svg xmlns="http://www.w3.org/2000/svg" viewBox="0 -512 512 512">
	<path fill="#000000" d="M429 -365L469 -405V-299H363L407 -343Q390 -365 349.5 -380Q309 -395 256 -395Q203 -395 162.5 -380Q122 -365 105 -343L149 -299H43V-405L83 -365Q107 -393 153 -410Q199 -427 256 -427Q313 -427 359 -410Q405 -393 429 -365ZM421 -101V-97L405 15Q403 27 394.5 35Q386 43 374 43H229Q216 43 207 33L101 -72L118 -89Q125 -96 135 -96H140L213 -80V-309Q213 -322 222.5 -331.5Q232 -341 245 -341Q258 -341 267.5 -331.5Q277 -322 277 -309V-181H294Q296 -181 302 -180L305 -179L402 -131Q421 -122 421 -101Z"/>
</svg>