<svg xmlns="http://www.w3.org/2000/svg" viewBox="0 -512 512 512">
	<path fill="#000000" d="M43 -378L70 -405L469 -6L442 21L381 -40L320 21L256 -43L192 21L128 -43L64 21V-213Q64 -273 98 -323ZM256 -405Q308 -405 352 -379.5Q396 -354 422 -309.5Q448 -265 448 -213V-81L335 -195Q347 -199 355 -210Q363 -221 363 -235Q363 -252 350.5 -264.5Q338 -277 320 -277Q306 -277 295.5 -269.5Q285 -262 280 -250L154 -376Q200 -405 256 -405ZM149 -235Q149 -217 161.5 -204.5Q174 -192 191 -192Q208 -192 219 -202L159 -262Q149 -250 149 -235Z"/>
</svg>