<svg xmlns="http://www.w3.org/2000/svg" viewBox="0 -512 512 512">
	<path fill="#000000" d="M177 -339L146 -370Q196 -405 256 -405Q308 -405 352 -379.5Q396 -354 422 -309.5Q448 -265 448 -213V-68L405 -111V-213Q405 -254 385 -288Q365 -322 330.5 -342.5Q296 -363 256 -363Q213 -363 177 -339ZM472 10L445 37L375 -33L320 21L256 -43L192 21L128 -43L64 21V-213Q64 -268 93 -315L24 -384L51 -411ZM344 -63L211 -197Q202 -192 192 -192Q174 -192 161.5 -204.5Q149 -217 149 -235Q149 -245 154 -254L124 -284Q107 -251 107 -213V-82L128 -103L192 -39L256 -103L320 -39ZM320 -277Q303 -277 291 -266Q279 -255 277 -239L324 -192Q340 -194 351.5 -206Q363 -218 363 -235Q363 -252 350.5 -264.5Q338 -277 320 -277Z"/>
</svg>