<svg xmlns="http://www.w3.org/2000/svg" viewBox="0 -512 512 512">
	<path fill="#000000" d="M256 -405Q204 -405 160 -379.5Q116 -354 90 -309.5Q64 -265 64 -213V21L128 -43L192 21L256 -43L320 21L384 -43L448 21V-213Q448 -265 422 -309.5Q396 -354 352 -379.5Q308 -405 256 -405ZM405 -82L384 -103L320 -39L256 -103L192 -39L128 -103L107 -82V-213Q107 -254 127 -288Q147 -322 181.5 -342.5Q216 -363 256 -363Q296 -363 330.5 -342.5Q365 -322 385 -288Q405 -254 405 -213ZM235 -235Q235 -217 222.5 -204.5Q210 -192 192 -192Q174 -192 161.5 -204.5Q149 -217 149 -234.5Q149 -252 161.5 -264.5Q174 -277 192 -277Q210 -277 222.5 -264.5Q235 -252 235 -235ZM363 -235Q363 -217 350.5 -204.5Q338 -192 320 -192Q302 -192 289.5 -204.5Q277 -217 277 -234.5Q277 -252 289.5 -264.5Q302 -277 320 -277Q338 -277 350.5 -264.5Q363 -252 363 -235Z"/>
</svg>