<svg xmlns="http://www.w3.org/2000/svg" viewBox="0 -512 512 512">
	<path fill="#000000" d="M448 -320H380Q384 -330 384 -341Q384 -368 365.5 -386.5Q347 -405 320 -405Q304 -405 290.5 -398Q277 -391 268 -379L256 -363L244 -379Q235 -391 221.5 -398Q208 -405 192 -405Q176 -405 162 -397.5Q148 -390 139 -377L171 -345Q173 -353 178.5 -358Q184 -363 192.5 -363Q201 -363 207 -356.5Q213 -350 213 -341.5Q213 -333 208 -327.5Q203 -322 196 -321L277 -239V-277H448V-235H282L324 -192H427V-90L469 -47V-192Q478 -192 484.5 -198.5Q491 -205 491 -213V-277Q491 -295 478.5 -307.5Q466 -320 448 -320ZM320 -320Q311 -320 305 -326.5Q299 -333 299 -341.5Q299 -350 305 -356.5Q311 -363 320 -363Q329 -363 335 -356.5Q341 -350 341 -341.5Q341 -333 335 -326.5Q329 -320 320 -320ZM24 -384L88 -320H64Q46 -320 33.5 -307.5Q21 -295 21 -277V-213Q21 -205 27.5 -198.5Q34 -192 43 -192V-21Q43 -4 55.5 8.5Q68 21 85 21H429L460 52L487 25L51 -411ZM277 -130L386 -21H277ZM235 -173V-21H85V-192H216ZM173 -235H64V-277H130Z"/>
</svg>