<svg xmlns="http://www.w3.org/2000/svg" viewBox="0 -512 512 512">
	<path fill="#000000" d="M469 -216L411 -250Q419 -257 425 -267Q438 -290 431 -315.5Q424 -341 401 -354Q388 -362 372.5 -362.5Q357 -363 343 -357L324 -349L322 -369Q320 -384 312 -397Q304 -410 290 -418Q267 -431 241.5 -424.5Q216 -418 203 -395Q198 -386 195 -374L137 -408Q121 -417 104 -412.5Q87 -408 79 -393L47 -337Q42 -329 44.5 -320.5Q47 -312 54 -308L181 -235H43V-21Q43 -4 55.5 8.5Q68 21 85 21H427Q444 21 456.5 8.5Q469 -4 469 -21V-131L485 -158Q494 -173 489.5 -190Q485 -207 469 -216ZM351 -309Q355 -317 363.5 -319.5Q372 -322 379.5 -317.5Q387 -313 389.5 -304.5Q392 -296 387.5 -288Q383 -280 374.5 -278Q366 -276 358.5 -280.5Q351 -285 348.5 -293Q346 -301 351 -309ZM300 -265L448 -179L427 -142L279 -228ZM235 -21H85V-192H235ZM242 -249L94 -334L115 -371L263 -286ZM248 -344Q240 -349 237.5 -357Q235 -365 239.5 -373Q244 -381 252.5 -383.5Q261 -386 269 -381.5Q277 -377 279 -368.5Q281 -360 276.5 -352Q272 -344 263.5 -342Q255 -340 248 -344ZM277 -21V-179L427 -93V-21Z"/>
</svg>