<svg xmlns="http://www.w3.org/2000/svg" viewBox="0 -512 512 512">
	<path fill="#000000" d="M24 -384L88 -319H64Q46 -319 33.5 -306.5Q21 -294 21 -276V-234Q21 -225 27.5 -218.5Q34 -212 43 -212H195L217 -191H43V-20Q43 -3 55.5 9.5Q68 22 85 22H427Q428 22 429 21L460 52L487 25L51 -411ZM235 -173L277 -130V-20H235ZM469 -191V-47L325 -191ZM448 -319H380Q389 -344 380 -365.5Q371 -387 350 -397.5Q329 -408 306.5 -404Q284 -400 268 -378L256 -362L244 -378Q225 -405 193 -406Q178 -406 163 -398.5Q148 -391 139 -378L172 -345Q173 -352 178.5 -357Q184 -362 192.5 -362Q201 -362 207 -355.5Q213 -349 213.5 -340.5Q214 -332 207.5 -326Q201 -320 196 -320L240 -276H277V-239L304 -212H469Q478 -212 484.5 -218.5Q491 -225 491 -234V-276Q491 -294 478.5 -306.5Q466 -319 448 -319ZM335 -325Q329 -319 320 -319Q311 -319 305 -325Q299 -331 299 -340Q299 -349 305 -355.5Q311 -362 320 -362Q329 -362 335 -355.5Q341 -349 341.5 -340.5Q342 -332 335 -325Z"/>
</svg>