<svg xmlns="http://www.w3.org/2000/svg" viewBox="0 -512 512 512">
	<path fill="#000000" d="M469 -192V-21Q469 -4 456.5 8.5Q444 21 427 21H85Q68 21 55.5 8.5Q43 -4 43 -21V-192Q34 -192 27.5 -198Q21 -204 21 -213V-277Q21 -295 33.5 -307.5Q46 -320 64 -320H132Q128 -330 128 -341Q128 -368 146.5 -386.5Q165 -405 192 -405Q208 -405 221.5 -398Q235 -391 244 -379L256 -363L268 -379Q277 -391 290.5 -398Q304 -405 320 -405Q347 -405 365.5 -386.5Q384 -368 384 -341Q384 -330 380 -320H448Q466 -320 478.5 -307.5Q491 -295 491 -277V-213Q491 -204 484.5 -198Q478 -192 469 -192ZM85 -21H235V-192H85ZM427 -21V-192H277V-21ZM192 -363Q183 -363 177 -356.5Q171 -350 171 -341Q171 -332 177 -326Q183 -320 192 -320Q201 -320 207 -326Q213 -332 213 -341Q213 -350 207 -356.5Q201 -363 192 -363ZM320 -363Q311 -363 305 -356.5Q299 -350 299 -341Q299 -332 305 -326Q311 -320 320 -320Q329 -320 335 -326Q341 -332 341 -341Q341 -350 335 -356.5Q329 -363 320 -363ZM64 -277V-235H235V-277ZM277 -277V-235H448V-277Z"/>
</svg>