<svg xmlns="http://www.w3.org/2000/svg" viewBox="0 -512 512 512">
	<path fill="#000000" d="M193 -407Q173 -407 155.5 -395Q138 -383 130.5 -363Q123 -343 132 -320H64Q46 -320 33.5 -307.5Q21 -295 21 -277V-235Q21 -226 27.5 -219.5Q34 -213 43 -213H235V-277H277V-213H469Q478 -213 484.5 -219.5Q491 -226 491 -235V-277Q491 -295 478.5 -307.5Q466 -320 448 -320H380Q389 -345 380 -366Q371 -387 350 -398Q329 -409 306.5 -404.5Q284 -400 268 -379L256 -363L244 -379Q225 -406 193 -407ZM192 -363Q201 -363 207 -356.5Q213 -350 213.5 -341.5Q214 -333 207.5 -326.5Q201 -320 192 -320Q183 -320 177 -326Q171 -332 171 -341Q171 -350 177 -356.5Q183 -363 192 -363ZM320 -363Q329 -363 335 -356.5Q341 -350 341.5 -341.5Q342 -333 335.5 -326.5Q329 -320 320 -320Q311 -320 305 -326Q299 -332 299 -341Q299 -350 305 -356.5Q311 -363 320 -363ZM43 -192V-21Q43 -4 55.5 8.5Q68 21 85 21H427Q444 21 456.5 8.5Q469 -4 469 -21V-192H277V-21H235V-192Z"/>
</svg>