<svg xmlns="http://www.w3.org/2000/svg" viewBox="0 -512 512 512">
	<path fill="#000000" d="M55 -222L179 -346L215 -309Q211 -296 216.5 -282.5Q222 -269 235 -262V-144Q225 -138 219 -128Q213 -118 213 -107Q213 -89 225.5 -76.5Q238 -64 256 -64Q274 -64 286.5 -76.5Q299 -89 299 -107Q299 -118 293 -128Q287 -138 277 -144V-247L321 -203Q320 -199 320 -192Q320 -174 332.5 -161.5Q345 -149 362.5 -149Q380 -149 392.5 -161.5Q405 -174 405 -192Q405 -210 392.5 -222.5Q380 -235 363 -235Q355 -235 352 -233L297 -288Q301 -303 294 -317.5Q287 -332 272.5 -337.5Q258 -343 245 -340L209 -376L226 -393Q238 -405 256 -405Q274 -405 286 -393L457 -222Q469 -210 469 -192Q469 -174 457 -162L286 9Q274 21 256 21Q238 21 226 9L55 -162Q43 -174 43 -192Q43 -210 55 -222Z"/>
</svg>