<svg xmlns="http://www.w3.org/2000/svg" viewBox="0 -512 512 512">
	<path fill="#000000" d="M256 -405Q214 -405 174.5 -389Q135 -373 105 -343Q75 -313 59 -273.5Q43 -234 43 -192Q43 -122 83.5 -66.5Q124 -11 189 11Q196 12 199.5 8.5Q203 5 203 0V-36Q166 -28 145 -46Q134 -54 131 -65Q127 -76 120 -84Q116 -90 111 -93L107 -96Q99 -102 99 -105Q99 -108 104 -108L109 -109Q122 -108 133 -97Q139 -92 141 -87Q154 -66 175 -64Q188 -63 204 -69Q206 -88 217 -98Q173 -103 151 -122Q120 -148 120 -203Q120 -236 142 -260Q138 -269 138 -280Q136 -298 144 -317H150Q158 -317 169 -313Q185 -307 203 -295Q228 -302 256 -302Q284 -302 309 -295Q335 -312 354 -316Q364 -318 368 -317Q376 -298 374 -280Q374 -269 370 -260Q392 -236 392 -203Q392 -147 361 -122Q338 -103 295 -98Q309 -85 309 -58V0Q309 5 312.5 8.5Q316 12 324 11Q388 -11 428.5 -66.5Q469 -122 469 -192Q469 -234 453 -273.5Q437 -313 407 -343Q377 -373 337.5 -389Q298 -405 256 -405Z"/>
</svg>