<svg xmlns="http://www.w3.org/2000/svg" viewBox="0 -512 512 512">
	<path fill="#000000" d="M180 -336L149 -367Q173 -384 203 -384Q236 -384 263 -363H299Q334 -363 359 -338Q384 -313 384 -277V-235H427Q435 -235 441.5 -228.5Q448 -222 448 -213V-68L405 -111V-192H363V-154L240 -276Q245 -277 256 -277H341Q341 -295 328.5 -307.5Q316 -320 299 -320H245Q238 -330 226.5 -335.5Q215 -341 203 -341Q191 -341 180 -336ZM472 10L445 37L386 -21H363V21H128V-149Q93 -149 68 -174Q43 -199 43 -235Q43 -260 57 -281.5Q71 -303 95 -313L24 -384L51 -411ZM183 -224L130 -277H128Q110 -277 97.5 -264.5Q85 -252 85 -234.5Q85 -217 97.5 -204.5Q110 -192 128 -192H138Q150 -194 160 -199Q174 -207 181 -221Z"/>
</svg>