<svg xmlns="http://www.w3.org/2000/svg" viewBox="0 -512 512 512">
	<path fill="#000000" d="M203 -384Q172 -384 147 -366Q122 -348 112 -318Q82 -313 62.5 -289Q43 -265 43 -235Q43 -199 68 -174Q93 -149 128 -149V21H363V-21H427Q435 -21 441.5 -27.5Q448 -34 448 -43V-213Q448 -222 441.5 -228.5Q435 -235 427 -235H384V-277Q384 -313 359 -338Q334 -363 299 -363H263Q236 -384 203 -384ZM203 -341Q215 -341 226.5 -335.5Q238 -330 245 -320H299Q316 -320 328.5 -307.5Q341 -295 341 -277H256Q227 -277 209 -261Q197 -251 181 -221Q170 -201 148 -195Q137 -191 128 -192Q110 -192 97.5 -204.5Q85 -217 85 -234.5Q85 -252 97.5 -264.5Q110 -277 128 -277H149V-288Q149 -310 165 -325.5Q181 -341 203 -341ZM363 -192H405V-64H363Z"/>
</svg>