<svg xmlns="http://www.w3.org/2000/svg" viewBox="0 -512 512 512">
	<path fill="#000000" d="M370 -392L340 -361Q361 -340 372.5 -313Q384 -286 384 -256Q384 -215 364 -181Q344 -147 309.5 -127Q275 -107 235 -107Q205 -107 177.5 -118Q150 -129 129 -150L99 -120Q122 -97 151.5 -83Q181 -69 213 -65V-21H128V21H341V-21H256V-65Q304 -71 343 -97.5Q382 -124 404.5 -166Q427 -208 427 -256Q427 -294 412 -329.5Q397 -365 370 -392ZM235 -373Q211 -373 189.5 -364Q168 -355 151.5 -338.5Q135 -322 126 -300.5Q117 -279 117 -256Q117 -233 126 -211.5Q135 -190 151.5 -173.5Q168 -157 189.5 -148Q211 -139 235 -139Q267 -139 293.5 -154.5Q320 -170 336 -197Q352 -224 352 -256Q352 -279 343 -300.5Q334 -322 317.5 -338.5Q301 -355 279.5 -364Q258 -373 235 -373ZM235 -331Q266 -331 287.5 -309Q309 -287 309 -256Q309 -225 287.5 -203Q266 -181 235 -181Q204 -181 182 -203Q160 -225 160 -256Q160 -287 182 -309Q204 -331 235 -331Z"/>
</svg>