<svg xmlns="http://www.w3.org/2000/svg" viewBox="0 -512 512 512">
	<path fill="#000000" d="M85 -384H427Q444 -384 456.5 -371.5Q469 -359 469 -341V-43Q469 -25 456.5 -12.5Q444 0 427 0H85Q68 0 55.5 -12.5Q43 -25 43 -43V-341Q43 -359 55.5 -371.5Q68 -384 85 -384ZM223 -330Q215 -330 209.5 -324Q204 -318 204 -310V-244Q204 -236 209.5 -230.5Q215 -225 223 -225H289Q297 -225 302.5 -230.5Q308 -236 308 -244V-310Q308 -318 302.5 -324Q297 -330 289 -330ZM236 -304H276Q278 -304 280 -302Q282 -300 282 -297V-258Q282 -255 280 -253Q278 -251 276 -251H236Q234 -251 232 -253Q230 -255 230 -258V-297Q230 -300 232 -302Q234 -304 236 -304ZM105 -330Q97 -330 91 -324Q85 -318 85 -310V-244Q85 -236 91 -230.5Q97 -225 105 -225H151V-251H118Q115 -251 113.5 -253Q112 -255 112 -258V-297Q112 -300 113.5 -302Q115 -304 118 -304H157Q160 -304 162 -302Q164 -300 164 -297V-218Q164 -216 162 -214Q160 -212 157 -212H85V-185H171Q179 -185 184.5 -191Q190 -197 190 -205V-310Q190 -318 184.5 -324Q179 -330 171 -330ZM341 -330Q333 -330 327.5 -324Q322 -318 322 -310V-244Q322 -236 327.5 -230.5Q333 -225 341 -225H387V-251H355Q352 -251 350 -253Q348 -255 348 -258V-297Q348 -300 350 -302Q352 -304 355 -304H394Q397 -304 398.5 -302Q400 -300 400 -297V-218Q400 -216 398.5 -214Q397 -212 394 -212H322V-185H407Q415 -185 421 -191Q427 -197 427 -205V-310Q427 -318 421 -324Q415 -330 407 -330ZM210 -159Q202 -159 196 -153.5Q190 -148 190 -140V-74Q190 -66 196 -60Q202 -54 210 -54H276Q284 -54 289.5 -60Q295 -66 295 -74V-140Q295 -148 289.5 -153.5Q284 -159 276 -159ZM223 -133H263Q266 -133 267.5 -131Q269 -129 269 -126V-87Q269 -84 267 -82Q265 -80 263 -80H223Q220 -80 218.5 -82Q217 -84 217 -87V-126Q217 -129 218.5 -131Q220 -133 223 -133ZM105 -159Q97 -159 91 -153.5Q85 -148 85 -140V-74Q85 -66 91 -60Q97 -54 105 -54H177V-80H118Q115 -80 113.5 -82Q112 -84 112 -87V-126Q112 -129 113.5 -131Q115 -133 118 -133H177V-159ZM328 -159Q320 -159 314 -153.5Q308 -148 308 -140V-54H335V-126Q335 -129 337 -131Q339 -133 341 -133H355V-54H381V-133H400V-54H427V-159Z"/>
</svg>