<svg xmlns="http://www.w3.org/2000/svg" viewBox="0 -512 512 512">
	<path fill="#000000" d="M424 -184L389 -341H405V-384H64V-299H21V-256H64V-180Q44 -162 32.5 -137.5Q21 -113 21 -85V-43H64Q64 -16 82.5 2.5Q101 21 128 21Q155 21 173.5 2.5Q192 -16 192 -43H320Q320 -16 338.5 2.5Q357 21 384 21Q411 21 429.5 2.5Q448 -16 448 -43H491V-85Q491 -118 472.5 -145Q454 -172 424 -184ZM128 -11Q115 -11 105.5 -20Q96 -29 96 -42.5Q96 -56 105.5 -65.5Q115 -75 128 -75Q141 -75 150.5 -65.5Q160 -56 160 -42.5Q160 -29 150.5 -20Q141 -11 128 -11ZM331 -192L307 -229L337 -249L314 -284L218 -220L241 -185L272 -205L296 -168L277 -149H218L107 -299V-341H346L379 -192ZM384 -11Q371 -11 361.5 -20Q352 -29 352 -42.5Q352 -56 361.5 -65.5Q371 -75 384 -75Q397 -75 406.5 -65.5Q416 -56 416 -42.5Q416 -29 406.5 -20Q397 -11 384 -11Z"/>
</svg>