<svg xmlns="http://www.w3.org/2000/svg" viewBox="0 -512 512 512">
	<path fill="#000000" d="M384 -235H277V-286L472 -319L467 -350L350 -331Q352 -336 352 -341Q352 -355 342.5 -364Q333 -373 320 -373Q307 -373 297.5 -364Q288 -355 288 -342.5Q288 -330 295 -321L277 -319V-341H235V-311L222 -309Q224 -315 224 -320Q224 -333 214.5 -342.5Q205 -352 192 -352Q179 -352 169.5 -342.5Q160 -333 160 -320Q160 -309 167 -300L40 -279L45 -247L235 -279V-235H128Q110 -235 97.5 -222.5Q85 -210 85 -192V-64Q85 -46 97.5 -33.5Q110 -21 128 -21H384Q402 -21 414.5 -33.5Q427 -46 427 -64V-192Q427 -210 414.5 -222.5Q402 -235 384 -235ZM128 -192H176V-107H128ZM208 -107V-192H304V-107ZM384 -107H336V-192H384Z"/>
</svg>