<svg xmlns="http://www.w3.org/2000/svg" viewBox="0 -512 512 512">
	<path fill="#000000" d="M363 -176Q346 -149 319 -133Q292 -117 261 -117Q228 -117 200 -135Q172 -153 155.5 -183.5Q139 -214 139 -250.5Q139 -287 155.5 -317.5Q172 -348 200 -366Q228 -384 261 -384Q292 -384 319 -368.5Q346 -353 363 -326V-384H384V-123Q384 -68 362 -39Q345 -15 310 -6Q287 0 245 0Q207 0 182 -24Q159 -47 152 -85H174Q180 -56 197 -39Q215 -21 245 -21H247Q281 -21 298 -25Q327 -32 343 -51Q363 -76 363 -123ZM261 -363Q234 -363 210.5 -348Q187 -333 173.5 -307Q160 -281 160 -250.5Q160 -220 173.5 -194.5Q187 -169 210.5 -154Q234 -139 261.5 -139Q289 -139 312 -154Q335 -169 349 -194.5Q363 -220 363 -250.5Q363 -281 349 -307Q335 -333 312 -348Q289 -363 261 -363Z"/>
</svg>