<svg xmlns="http://www.w3.org/2000/svg" viewBox="0 -512 512 512">
	<path fill="#000000" d="M390 -320Q406 -286 403.5 -247.5Q401 -209 383 -175Q369 -151 335 -108Q318 -86 309 -75Q289 -47 280 -26Q278 -22 274 -12L267 9Q265 15 263 18Q261 21 256 21Q251 21 247 16Q246 13 244 6Q234 -24 225 -39Q215 -58 194 -87ZM195 -268L124 -185Q132 -168 145 -149Q153 -138 171 -116L175 -110Q183 -101 188 -94L277 -199H276Q253 -191 230.5 -201.5Q208 -212 198 -235Q196 -240 195 -247Q193 -259 195 -268ZM140 -349Q115 -317 110 -274.5Q105 -232 120 -193L205 -294ZM303 -398L235 -316L236 -317Q257 -324 278.5 -316Q300 -308 311 -288Q316 -278 317 -269Q319 -257 317 -247L386 -328Q372 -353 351 -370.5Q330 -388 304 -397ZM211 -301L294 -400Q275 -405 256 -405Q225 -405 196 -392.5Q167 -380 146 -356Z"/>
</svg>