<svg xmlns="http://www.w3.org/2000/svg" viewBox="0 -512 512 512">
	<path fill="#000000" d="M491 -213H448V-256H405V-213H363V-171H405V-128H448V-171H491ZM171 -213V-162H256Q251 -139 234 -122Q210 -98 171 -98Q132 -98 105.5 -125.5Q79 -153 79 -192Q79 -231 105.5 -258.5Q132 -286 169.5 -286Q207 -286 230 -262L271 -301Q230 -341 171 -341Q130 -341 95.5 -321Q61 -301 41 -267Q21 -233 21 -192Q21 -151 41 -117Q61 -83 95.5 -63Q130 -43 171.5 -43Q213 -43 245.5 -61Q278 -79 296 -112Q314 -145 314 -188Q314 -205 311 -213Z"/>
</svg>