<svg xmlns="http://www.w3.org/2000/svg" viewBox="0 -512 512 512">
	<path fill="#000000" d="M85 -405H427Q444 -405 456.5 -392.5Q469 -380 469 -363V-78L370 21H85Q68 21 55.5 8.5Q43 -4 43 -21V-363Q43 -380 55.5 -392.5Q68 -405 85 -405ZM363 -85V-16L432 -85ZM213 -43H299V-64H320V-171Q340 -186 351.5 -208Q363 -230 363 -256Q363 -285 348.5 -309.5Q334 -334 309.5 -348.5Q285 -363 256 -363Q227 -363 202.5 -348.5Q178 -334 163.5 -309.5Q149 -285 149 -256Q149 -230 160.5 -208Q172 -186 192 -171V-64H213ZM299 -85H213V-128H299ZM256 -341Q291 -341 316 -316Q341 -291 341 -256Q341 -232 329.5 -212.5Q318 -193 299 -182V-149H213V-182Q194 -193 182.5 -212.5Q171 -232 171 -256Q171 -291 196 -316Q221 -341 256 -341Z"/>
</svg>