<svg xmlns="http://www.w3.org/2000/svg" viewBox="0 -512 512 512">
	<path fill="#000000" d="M149 -405Q115 -405 85.5 -388Q56 -371 38.5 -341.5Q21 -312 21 -277Q21 -252 31 -228.5Q41 -205 59 -187Q77 -169 100.5 -159Q124 -149 149.5 -149Q175 -149 198.5 -159Q222 -169 240 -187Q258 -205 267.5 -228.5Q277 -252 277 -277Q277 -312 260 -341.5Q243 -371 213.5 -388Q184 -405 149 -405ZM459 -320Q445 -320 436 -310.5Q427 -301 427 -288Q427 -275 436 -265.5Q445 -256 458.5 -256Q472 -256 481.5 -265.5Q491 -275 491 -288Q491 -301 481.5 -310.5Q472 -320 459 -320ZM363 -277Q336 -277 317.5 -258.5Q299 -240 299 -213.5Q299 -187 317.5 -168Q336 -149 362.5 -149Q389 -149 408 -168Q427 -187 427 -213.5Q427 -240 408 -258.5Q389 -277 363 -277ZM363 -128Q332 -128 310 -106Q288 -84 288 -53Q288 -22 310 -0.5Q332 21 363 21Q394 21 415.5 -0.5Q437 -22 437 -53Q437 -84 415.5 -106Q394 -128 363 -128Z"/>
</svg>