<svg xmlns="http://www.w3.org/2000/svg" viewBox="0 -512 512 512">
	<path fill="#000000" d="M455 -211H260V-153H399Q394 -96 351 -64Q313 -37 260 -37Q219 -37 184 -57Q149 -77 128 -112.5Q107 -148 107 -191.5Q107 -235 127.5 -270.5Q148 -306 183 -326.5Q218 -347 259.5 -347Q301 -347 337 -326Q355 -316 365 -305L405 -347L396 -356Q383 -367 367 -376Q346 -389 321 -396Q291 -405 258 -405Q199 -405 149 -375Q101 -346 72 -296.5Q43 -247 43 -192.5Q43 -138 71 -88.5Q99 -39 147 -10Q199 21 261 21Q318 21 363 -3Q408 -27 433.5 -71.5Q459 -116 459 -173Q459 -197 455 -211Z"/>
</svg>