<svg xmlns="http://www.w3.org/2000/svg" viewBox="0 -512 512 512">
	<path fill="#000000" d="M256 -21L330 -149Q341 -170 341 -192Q341 -211 333.5 -227.5Q326 -244 312 -256H414Q427 -225 427 -192Q427 -146 404 -106.5Q381 -67 341.5 -44Q302 -21 256 -21ZM85 -192Q85 -238 108 -277L182 -149Q194 -130 213.5 -118.5Q233 -107 256 -107Q269 -107 284 -112L232 -23Q191 -29 157.5 -53Q124 -77 104.5 -113.5Q85 -150 85 -192ZM320 -192Q320 -165 301.5 -146.5Q283 -128 256 -128Q229 -128 210.5 -146.5Q192 -165 192 -192Q192 -219 210.5 -237.5Q229 -256 256 -256Q283 -256 301.5 -237.5Q320 -219 320 -192ZM256 -363Q303 -363 342 -339.5Q381 -316 404 -277H256Q225 -277 201.5 -257.5Q178 -238 172 -209L122 -297Q145 -327 180.5 -345Q216 -363 256 -363ZM256 -405Q214 -405 174.5 -389Q135 -373 105 -343Q75 -313 59 -273.5Q43 -234 43 -192Q43 -150 59 -110.5Q75 -71 105 -41Q135 -11 174.5 5Q214 21 256 21Q298 21 337.5 5Q377 -11 407 -41Q437 -71 453 -110.5Q469 -150 469 -192Q469 -234 453 -273.5Q437 -313 407 -343Q377 -373 337.5 -389Q298 -405 256 -405Z"/>
</svg>