<svg xmlns="http://www.w3.org/2000/svg" viewBox="0 -512 512 512">
	<path fill="#000000" d="M338 -354V-34Q338 -9 353 6Q368 21 389 21Q410 21 424 8Q440 -7 440 -34V-352Q440 -376 425 -390.5Q410 -405 389.5 -405Q369 -405 353.5 -390Q338 -375 338 -354ZM205 -192V-34Q205 -9 220 6Q235 21 255.5 21Q276 21 291 8Q307 -7 307 -34V-190Q307 -213 292 -228Q277 -243 256.5 -243Q236 -243 220.5 -228Q205 -213 205 -192ZM123 -80Q144 -80 159 -65.5Q174 -51 174 -30Q174 -9 159 6Q144 21 123 21Q102 21 87 6Q72 -9 72 -30Q72 -51 87 -65.5Q102 -80 123 -80Z"/>
</svg>