<svg xmlns="http://www.w3.org/2000/svg" viewBox="0 -512 512 512">
	<path fill="#000000" d="M320 -192Q302 -192 289.5 -179.5Q277 -167 277 -149.5Q277 -132 289.5 -119.5Q302 -107 320 -107Q338 -107 350.5 -119.5Q363 -132 363 -149.5Q363 -167 350.5 -179.5Q338 -192 320 -192ZM256 -21Q210 -21 170.5 -44Q131 -67 108 -106.5Q85 -146 85 -192Q85 -238 108 -277.5Q131 -317 170.5 -340Q210 -363 256 -363Q302 -363 341.5 -340Q381 -317 404 -277.5Q427 -238 427 -192Q427 -146 404 -106.5Q381 -67 341.5 -44Q302 -21 256 -21ZM256 -405Q214 -405 174.5 -389Q135 -373 105 -343Q75 -313 59 -273.5Q43 -234 43 -192Q43 -150 59 -110.5Q75 -71 105 -41Q135 -11 174.5 5Q214 21 256 21Q298 21 337.5 5Q377 -11 407 -41Q437 -71 453 -110.5Q469 -150 469 -192Q469 -234 453 -273.5Q437 -313 407 -343Q377 -373 337.5 -389Q298 -405 256 -405ZM299 -256Q299 -274 286.5 -286.5Q274 -299 256 -299Q238 -299 225.5 -286.5Q213 -274 213 -256Q213 -238 225.5 -225.5Q238 -213 256 -213Q274 -213 286.5 -225.5Q299 -238 299 -256ZM192 -192Q174 -192 161.5 -179.5Q149 -167 149 -149.5Q149 -132 161.5 -119.5Q174 -107 192 -107Q210 -107 222.5 -119.5Q235 -132 235 -149.5Q235 -167 222.5 -179.5Q210 -192 192 -192Z"/>
</svg>