<svg xmlns="http://www.w3.org/2000/svg" viewBox="0 -512 512 512">
	<path fill="#000000" d="M491 -133Q491 -97 473 -66.5Q455 -36 424.5 -18Q394 0 357 0H155Q118 0 87.5 -18Q57 -36 39 -66.5Q21 -97 21 -133Q21 -167 37 -196Q53 -225 79 -243Q88 -283 114 -315Q140 -347 177 -365.5Q214 -384 256 -384Q298 -384 335 -365.5Q372 -347 398 -315Q424 -283 433 -243Q460 -225 475.5 -196Q491 -167 491 -133ZM355 -85Q376 -85 390.5 -100Q405 -115 405 -135.5Q405 -156 391 -171Q377 -186 357 -187V-197Q357 -225 343.5 -248Q330 -271 306.5 -285Q283 -299 256 -299Q234 -299 214 -289.5Q194 -280 180 -264Q228 -255 259 -216L203 -160Q196 -172 184 -179.5Q172 -187 157 -187Q136 -187 121.5 -172Q107 -157 107 -136.5Q107 -116 121 -101Q135 -86 155 -85Z"/>
</svg>