<svg xmlns="http://www.w3.org/2000/svg" viewBox="0 -512 512 512">
	<path fill="#000000" d="M363 -363Q392 -363 416.5 -348.5Q441 -334 455 -309.5Q469 -285 469 -256Q469 -234 461 -214.5Q453 -195 438 -180L256 1L74 -180Q59 -195 51 -214.5Q43 -234 43 -256Q43 -285 57 -309.5Q71 -334 95.5 -348.5Q120 -363 149 -363Q171 -363 190.5 -354.5Q210 -346 225 -332L256 -300L287 -332Q302 -346 321.5 -354.5Q341 -363 363 -363ZM333 -286L196 -149L256 -89L393 -226Q405 -238 405 -256Q405 -274 392.5 -286.5Q380 -299 362.5 -299Q345 -299 333 -286ZM179 -286Q167 -299 149.5 -299Q132 -299 119.5 -286.5Q107 -274 107 -256Q107 -238 119 -226L150 -195L211 -255Z"/>
</svg>