<svg xmlns="http://www.w3.org/2000/svg" viewBox="0 -512 512 512">
	<path fill="#000000" d="M442 -320H68Q58 -320 50.5 -312Q43 -304 43 -293V-70Q43 -59 50.5 -51Q58 -43 69 -43H171Q179 -43 186 -47.5Q193 -52 195 -60L225 -134Q229 -143 237.5 -149Q246 -155 256 -155Q266 -155 274.5 -149Q283 -143 287 -134L317 -60Q320 -52 326.5 -47.5Q333 -43 340 -43H442Q454 -43 461.5 -51Q469 -59 469 -70V-293Q469 -304 461.5 -312Q454 -320 442 -320ZM154 -137Q135 -137 121 -151.5Q107 -166 107 -186Q107 -206 120.5 -220.5Q134 -235 154 -235Q174 -235 187.5 -220.5Q201 -206 201 -186Q201 -166 187.5 -151.5Q174 -137 154 -137ZM358 -137Q338 -137 324.5 -151.5Q311 -166 311 -186Q311 -206 324.5 -220.5Q338 -235 357.5 -235Q377 -235 391 -220.5Q405 -206 405 -186Q405 -166 391 -151.5Q377 -137 358 -137Z"/>
</svg>