<svg xmlns="http://www.w3.org/2000/svg" viewBox="0 -512 512 512">
	<path fill="#000000" d="M256 -189Q227 -233 195 -252Q163 -271 139 -265.5Q115 -260 99 -239Q85 -221 85 -196V-192Q85 -166 93 -141Q94 -137 95 -137Q96 -137 97 -141Q101 -161 115.5 -170Q130 -179 153.5 -169.5Q177 -160 201 -129Q242 -74 297 -62Q368 -52 404 -107Q415 -129 419 -141Q422 -150 416 -143Q401 -123 376 -117Q351 -111 317 -129Q283 -147 256 -189ZM362 -274Q313 -348 254 -359Q208 -366 154 -327Q147 -322 147.5 -321.5Q148 -321 156 -325Q236 -364 310 -243Q326 -216 343.5 -201Q361 -186 377 -183Q393 -180 405 -184Q417 -188 427 -197Q427 -218 420 -239Q404 -235 392 -241Q380 -247 362 -274ZM256 -405Q343 -405 406 -342Q469 -279 469 -192Q469 -105 406 -42Q343 21 256 21Q169 21 106 -42Q43 -105 43 -192Q43 -279 106 -342Q169 -405 256 -405Z"/>
</svg>