<svg xmlns="http://www.w3.org/2000/svg" viewBox="0 -512 512 512">
	<path fill="#000000" d="M384 -43Q366 -43 353.5 -55.5Q341 -68 341 -85.5Q341 -103 353.5 -115.5Q366 -128 384 -128Q402 -128 414.5 -115.5Q427 -103 427 -85.5Q427 -68 414.5 -55.5Q402 -43 384 -43ZM384 -171Q349 -171 324 -146Q299 -121 299 -85.5Q299 -50 324 -25Q349 0 384 0Q419 0 444 -25Q469 -50 469 -85.5Q469 -121 444 -146Q419 -171 384 -171ZM256 -211Q239 -211 227 -199Q215 -187 215 -170.5Q215 -154 227 -142Q239 -130 256 -130Q273 -130 285 -142Q297 -154 297 -170.5Q297 -187 285 -199Q273 -211 256 -211ZM128 -43Q110 -43 97.5 -55.5Q85 -68 85 -85.5Q85 -103 97.5 -115.5Q110 -128 128 -128Q146 -128 158.5 -115.5Q171 -103 171 -85.5Q171 -68 158.5 -55.5Q146 -43 128 -43ZM128 -171Q93 -171 68 -146Q43 -121 43 -85.5Q43 -50 68 -25Q93 0 128 0Q163 0 188 -25Q213 -50 213 -85.5Q213 -121 188 -146Q163 -171 128 -171ZM256 -363Q274 -363 286.5 -350.5Q299 -338 299 -320Q299 -302 286.5 -289.5Q274 -277 256 -277Q238 -277 225.5 -289.5Q213 -302 213 -320Q213 -338 225.5 -350.5Q238 -363 256 -363ZM256 -235Q291 -235 316 -260Q341 -285 341 -320Q341 -355 316 -380Q291 -405 256 -405Q221 -405 196 -380Q171 -355 171 -320Q171 -285 196 -260Q221 -235 256 -235Z"/>
</svg>