<svg xmlns="http://www.w3.org/2000/svg" viewBox="0 -512 512 512">
	<path fill="#000000" d="M377 -294V-264Q377 -253 369.5 -245.5Q362 -238 350.5 -238Q339 -238 331.5 -245.5Q324 -253 324 -264V-294Q324 -305 331.5 -313Q339 -321 350.5 -321Q362 -321 369.5 -313Q377 -305 377 -294ZM283 -270V-115Q283 -104 275 -96Q267 -88 256 -88Q245 -88 237 -96Q229 -104 229 -115V-270Q229 -281 237 -288.5Q245 -296 256 -296Q267 -296 275 -288.5Q283 -281 283 -270ZM469 -207V-177Q469 -166 461.5 -158.5Q454 -151 443 -151Q432 -151 424 -158.5Q416 -166 416 -177V-207Q416 -218 424 -225.5Q432 -233 443 -233Q454 -233 461.5 -225.5Q469 -218 469 -207ZM96 -207V-177Q96 -166 88 -158.5Q80 -151 69 -151Q58 -151 50.5 -158.5Q43 -166 43 -177V-207Q43 -218 50.5 -225.5Q58 -233 69 -233Q80 -233 88 -225.5Q96 -218 96 -207ZM188 -120V-90Q188 -79 180.5 -71.5Q173 -64 161.5 -64Q150 -64 142.5 -71.5Q135 -79 135 -90V-120Q135 -131 142.5 -139Q150 -147 161.5 -147Q173 -147 180.5 -139Q188 -131 188 -120ZM283 -35V-5Q283 6 275 13.5Q267 21 256 21Q245 21 237 13.5Q229 6 229 -5V-35Q229 -46 237 -54Q245 -62 256 -62Q267 -62 275 -54Q283 -46 283 -35ZM283 -379V-349Q283 -338 275 -330Q267 -322 256 -322Q245 -322 237 -330Q229 -338 229 -349V-379Q229 -390 237 -397.5Q245 -405 256 -405Q267 -405 275 -397.5Q283 -390 283 -379ZM377 -185V-90Q377 -79 369.5 -71.5Q362 -64 350.5 -64Q339 -64 331.5 -71.5Q324 -79 324 -90V-185Q324 -196 331.5 -203.5Q339 -211 350.5 -211Q362 -211 369.5 -203.5Q377 -196 377 -185ZM188 -294V-199Q188 -188 180.5 -180.5Q173 -173 161.5 -173Q150 -173 142.5 -180.5Q135 -188 135 -199V-294Q135 -305 142.5 -313Q150 -321 161.5 -321Q173 -321 180.5 -313Q188 -305 188 -294Z"/>
</svg>