<svg xmlns="http://www.w3.org/2000/svg" viewBox="0 -512 512 512">
	<path fill="#000000" d="M355 -128H363Q394 -128 424 -140Q416 -94 389.5 -57.5Q363 -21 322.5 0Q282 21 235 21Q182 21 138 -4.5Q94 -30 68.5 -74Q43 -118 43 -171Q43 -218 64 -258.5Q85 -299 121.5 -325.5Q158 -352 204 -360Q192 -330 192 -299V-291Q154 -278 130.5 -245Q107 -212 107 -171Q107 -136 124 -106.5Q141 -77 170.5 -60Q200 -43 235 -43Q276 -43 309 -66.5Q342 -90 355 -128ZM363 -235Q389 -235 408 -253.5Q427 -272 427 -298.5Q427 -325 408 -344Q389 -363 362.5 -363Q336 -363 317.5 -344Q299 -325 299 -298.5Q299 -272 317.5 -253.5Q336 -235 363 -235ZM363 -427Q397 -427 426.5 -409.5Q456 -392 473.5 -362.5Q491 -333 491 -298.5Q491 -264 473.5 -234.5Q456 -205 426.5 -188Q397 -171 362.5 -171Q328 -171 298.5 -188Q269 -205 252 -234.5Q235 -264 235 -298.5Q235 -333 252 -362.5Q269 -392 298.5 -409.5Q328 -427 363 -427Z"/>
</svg>