<svg xmlns="http://www.w3.org/2000/svg" viewBox="0 -512 512 512">
	<path fill="#000000" d="M128 -405H384Q419 -405 444 -380Q469 -355 469 -320V-192H427V-320Q427 -338 414.5 -350.5Q402 -363 384 -363H128Q110 -363 97.5 -350.5Q85 -338 85 -320V-64Q85 -46 97.5 -33.5Q110 -21 128 -21H256V21H128Q93 21 68 -4Q43 -29 43 -64V-320Q43 -355 68 -380Q93 -405 128 -405ZM256 -277Q291 -277 316 -252Q341 -227 341 -192Q341 -157 316 -132Q291 -107 256 -107Q221 -107 196 -132Q171 -157 171 -192Q171 -227 196 -252Q221 -277 256 -277ZM384 -107Q402 -107 414.5 -94.5Q427 -82 427 -64Q427 -46 414.5 -33.5Q402 -21 384 -21Q366 -21 353.5 -33.5Q341 -46 341 -64Q341 -82 353.5 -94.5Q366 -107 384 -107Z"/>
</svg>