<svg xmlns="http://www.w3.org/2000/svg" viewBox="0 -512 512 512">
	<path fill="#000000" d="M427 -341H232L213 -405H85Q68 -405 55.5 -392.5Q43 -380 43 -363V-85Q43 -68 55.5 -55.5Q68 -43 85 -43H235L256 21H427Q444 21 456.5 8.5Q469 -4 469 -21V-299Q469 -316 456.5 -328.5Q444 -341 427 -341ZM153 -137Q117 -137 91.5 -162.5Q66 -188 66 -224Q66 -260 91.5 -285.5Q117 -311 152 -311Q187 -311 211 -288L213 -287L187 -262L185 -263Q172 -276 152 -276Q132 -276 117 -260.5Q102 -245 102 -224Q102 -203 117 -187.5Q132 -172 152.5 -172Q173 -172 185 -183Q195 -192 198 -204H151V-237H235L236 -235Q237 -230 237 -222Q237 -184 213.5 -160.5Q190 -137 153 -137ZM282 -173Q291 -155 307 -137L295 -126ZM298 -189H277L270 -212H355L353 -203Q348 -193 342 -182Q334 -167 322 -153Q308 -170 298 -189ZM448 -21Q448 -12 442 -6Q436 0 427 0H277L320 -43L303 -102L322 -121L380 -64L395 -80L337 -137Q368 -172 378 -212H405V-234H328V-256H305V-234H264L239 -320H427Q436 -320 442 -314Q448 -308 448 -299Z"/>
</svg>