<svg xmlns="http://www.w3.org/2000/svg" viewBox="0 -512 512 512">
	<path fill="#000000" d="M491 -405H21Q12 -405 6 -399Q0 -393 0 -384V0Q0 9 6 15Q12 21 21 21H491Q500 21 506 15Q512 9 512 0V-384Q512 -393 506 -399Q500 -405 491 -405ZM469 -21H427V-43H320V-21H43V-363H469ZM220 -241Q220 -256 230.5 -266.5Q241 -277 256 -277Q271 -277 281.5 -266.5Q292 -256 292 -241Q292 -226 281.5 -215Q271 -204 256 -204Q241 -204 230.5 -215Q220 -226 220 -241ZM122 -207Q122 -219 130 -227Q138 -235 149.5 -235Q161 -235 169 -227Q177 -219 177 -207.5Q177 -196 169 -188Q161 -180 149.5 -180Q138 -180 130 -188Q122 -196 122 -207ZM335 -207Q335 -219 343 -227Q351 -235 362.5 -235Q374 -235 382 -227Q390 -219 390 -207.5Q390 -196 382 -188Q374 -180 362.5 -180Q351 -180 343 -188Q335 -196 335 -207ZM427 -125V-107H85V-125Q85 -140 105 -150.5Q125 -161 149 -161Q167 -161 183 -155Q196 -166 215.5 -173Q235 -180 256 -180Q277 -180 296.5 -173Q316 -166 329 -155Q345 -161 363 -161Q387 -161 407 -150.5Q427 -140 427 -125Z"/>
</svg>