<svg xmlns="http://www.w3.org/2000/svg" viewBox="0 -512 512 512">
	<path fill="#000000" d="M107 -235Q89 -235 76.5 -222.5Q64 -210 64 -192Q64 -174 76.5 -161.5Q89 -149 106.5 -149Q124 -149 136.5 -161.5Q149 -174 149 -192Q149 -210 136.5 -222.5Q124 -235 107 -235ZM107 -107Q71 -107 46 -132Q21 -157 21 -192Q21 -227 46 -252Q71 -277 106.5 -277Q142 -277 167 -252Q192 -227 192 -192Q192 -157 167 -132Q142 -107 107 -107ZM224 -213H299V-277L384 -192L299 -107V-171H224ZM107 -320Q93 -320 79 -317Q110 -367 163 -397Q216 -427 278.5 -427Q341 -427 395 -395.5Q449 -364 480.5 -310Q512 -256 512 -192Q512 -128 480.5 -74Q449 -20 395 11.5Q341 43 278.5 43Q216 43 163 13Q110 -17 79 -67Q93 -64 107 -64Q132 -64 155 -73Q178 -49 210 -35Q242 -21 277 -21Q324 -21 363 -44Q402 -67 425 -106.5Q448 -146 448 -192Q448 -238 425 -277.5Q402 -317 363 -340Q324 -363 277 -363Q242 -363 210 -349Q178 -335 155 -311Q132 -320 107 -320Z"/>
</svg>