<svg xmlns="http://www.w3.org/2000/svg" viewBox="0 -512 512 512">
	<path fill="#000000" d="M235 -256H277V-213H235ZM192 -213H235V-171H192ZM277 -213H320V-171H277ZM320 -256H363V-213H320ZM149 -256H192V-213H149ZM405 -384H107Q89 -384 76.5 -371.5Q64 -359 64 -341V-43Q64 -25 76.5 -12.5Q89 0 107 0H405Q423 0 435.5 -12.5Q448 -25 448 -43V-341Q448 -359 435.5 -371.5Q423 -384 405 -384ZM192 -64H149V-107H192ZM277 -64H235V-107H277ZM363 -64H320V-107H363ZM405 -213H363V-171H405V-128H363V-171H320V-128H277V-171H235V-128H192V-171H149V-128H107V-171H149V-213H107V-341H405Z"/>
</svg>