<svg xmlns="http://www.w3.org/2000/svg" viewBox="0 -512 512 512">
	<path fill="#000000" d="M192 -171V-213H235V-171ZM235 -128V-171H277V-128ZM235 -213V-256H277V-213ZM192 -256V-299H235V-256ZM192 -85V-128H235V-85ZM64 -341V-43Q64 -25 76.5 -12.5Q89 0 107 0H405Q423 0 435.5 -12.5Q448 -25 448 -43V-341Q448 -359 435.5 -371.5Q423 -384 405 -384H107Q89 -384 76.5 -371.5Q64 -359 64 -341ZM384 -128V-85H341V-128ZM384 -213V-171H341V-213ZM384 -299V-256H341V-299ZM235 -341V-299H277V-341H320V-299H277V-256H320V-213H277V-171H320V-128H277V-85H320V-43H277V-85H235V-43H107V-341Z"/>
</svg>