<svg xmlns="http://www.w3.org/2000/svg" viewBox="0 -512 512 512">
	<path fill="#000000" d="M416 -85Q410 -85 408 -84L373 -154Q389 -170 389 -192Q389 -214 373.5 -229.5Q358 -245 336 -245Q331 -245 327 -244L293 -314Q309 -329 309 -351.5Q309 -374 293.5 -389.5Q278 -405 256 -405Q234 -405 218.5 -389.5Q203 -374 203 -351.5Q203 -329 219 -314L185 -244Q181 -245 176 -245Q154 -245 138.5 -229.5Q123 -214 123 -191.5Q123 -169 139 -154L104 -84Q102 -85 96 -85Q74 -85 58.5 -69.5Q43 -54 43 -32Q43 -10 58.5 5.5Q74 21 96 21Q118 21 133.5 5.5Q149 -10 149 -32.5Q149 -55 133 -70L168 -140Q171 -139 176 -139Q181 -139 184 -140L219 -70Q203 -55 203 -32.5Q203 -10 218.5 5.5Q234 21 256 21Q278 21 293.5 5.5Q309 -10 309 -32Q309 -54 293.5 -69.5Q278 -85 256 -85Q250 -85 248 -84L213 -154Q229 -170 229 -192Q229 -214 213 -230L248 -300Q250 -299 256 -299Q262 -299 264 -300L299 -230Q283 -215 283 -192.5Q283 -170 298.5 -154.5Q314 -139 336 -139Q341 -139 344 -140L379 -70Q363 -55 363 -32.5Q363 -10 378.5 5.5Q394 21 416 21Q438 21 453.5 5.5Q469 -10 469 -32Q469 -54 453.5 -69.5Q438 -85 416 -85ZM96 -11Q87 -11 81 -17Q75 -23 75 -32Q75 -41 81 -47Q87 -53 96 -53Q105 -53 111 -47Q117 -41 117 -32Q117 -23 111 -17Q105 -11 96 -11ZM277 -32Q277 -23 271 -17Q265 -11 256 -11Q247 -11 241 -17Q235 -23 235 -32Q235 -41 241 -47Q247 -53 256 -53Q265 -53 271 -47Q277 -41 277 -32ZM155 -192Q155 -201 161 -207Q167 -213 176 -213Q185 -213 191 -207Q197 -201 197 -192Q197 -183 191 -177Q185 -171 176 -171Q167 -171 161 -177Q155 -183 155 -192ZM235 -352Q235 -361 241 -367Q247 -373 256 -373Q265 -373 271 -367Q277 -361 277 -352Q277 -343 271 -337Q265 -331 256 -331Q247 -331 241 -337Q235 -343 235 -352ZM315 -192Q315 -201 321 -207Q327 -213 336 -213Q345 -213 351 -207Q357 -201 357 -192Q357 -183 351 -177Q345 -171 336 -171Q327 -171 321 -177Q315 -183 315 -192ZM416 -11Q407 -11 401 -17Q395 -23 395 -32Q395 -41 401 -47Q407 -53 416 -53Q425 -53 431 -47Q437 -41 437 -32Q437 -23 431 -17Q425 -11 416 -11Z"/>
</svg>