<svg xmlns="http://www.w3.org/2000/svg" viewBox="0 -512 512 512">
	<path fill="#000000" d="M256 -333L247 -335L128 -130Q136 -123 138 -113H374Q376 -123 384 -130L265 -335ZM141 -95L232 -41Q242 -51 256 -51Q270 -51 280 -41L371 -95ZM256 21Q241 21 230.5 10.5Q220 0 220 -15L222 -26L130 -81Q120 -68 104 -68Q88 -68 77.5 -78.5Q67 -89 67 -104Q67 -117 75 -126.5Q83 -136 94 -139V-248Q81 -250 72 -260Q63 -270 63 -284.5Q63 -299 73.5 -309.5Q84 -320 99 -320Q116 -320 127 -306L221 -360L220 -369Q220 -384 230.5 -394.5Q241 -405 256 -405Q271 -405 281.5 -394.5Q292 -384 292 -369L291 -360L385 -306Q396 -320 413 -320Q428 -320 438.5 -309.5Q449 -299 449 -284.5Q449 -270 440 -260Q431 -250 418 -248V-139Q429 -136 437 -126.5Q445 -117 445 -104Q445 -89 434.5 -78.5Q424 -68 408 -68Q392 -68 382 -81L290 -26L292 -15Q292 0 281.5 10.5Q271 21 256 21ZM230 -344L134 -289L135 -284Q135 -273 128.5 -264Q122 -255 112 -251L113 -139ZM282 -344L399 -139L400 -251Q390 -255 383.5 -264Q377 -273 377 -284L378 -289Z"/>
</svg>