<svg xmlns="http://www.w3.org/2000/svg" viewBox="0 -512 512 512">
	<path fill="#000000" d="M256 -21H43V-64H165Q153 -109 120.5 -142Q88 -175 43 -186Q65 -192 85 -192Q132 -192 171 -169Q210 -146 233 -107Q256 -68 256 -21ZM469 -186Q447 -192 427 -192Q381 -192 341.5 -169Q302 -146 280 -108Q290 -85 294.5 -63.5Q299 -42 299 -21H469V-64H346Q359 -109 391.5 -142Q424 -175 469 -186ZM334 -213Q346 -246 368.5 -273.5Q391 -301 421 -320Q376 -318 338 -295Q300 -272 278 -233.5Q256 -195 256 -149Q287 -190 334 -213ZM244 -259Q230 -294 204 -321Q178 -348 143 -363Q166 -332 179 -295.5Q192 -259 192 -220L191 -207Q203 -200 217 -189Q224 -225 244 -259Z"/>
</svg>