<svg xmlns="http://www.w3.org/2000/svg" viewBox="0 -512 512 512">
	<path fill="#000000" d="M0 -389L27 -416L480 37L453 64L410 21H85Q68 21 55.5 8.5Q43 -4 43 -21V-346ZM213 -363V-284L171 -327V-363H135L92 -405H427Q444 -405 456.5 -392.5Q469 -380 469 -363V-28L427 -70V-107H391L348 -149H427V-235H341V-156L299 -199V-235H263L220 -277H299V-363ZM341 -363V-277H427V-363ZM341 -21H368L341 -48ZM85 -277H112L85 -304ZM213 -149H240L213 -176ZM299 -21V-90L282 -107H213V-21ZM171 -21V-107H85V-21ZM171 -149V-218L154 -235H85V-149Z"/>
</svg>