<svg xmlns="http://www.w3.org/2000/svg" viewBox="0 -512 512 512">
	<path fill="#000000" d="M418 -384H469V-341H435L345 -251Q333 -269 315 -281ZM256 -277Q291 -277 316 -252Q341 -227 341 -192Q341 -163 323.5 -140Q306 -117 277 -109V-107Q277 -78 263 -53.5Q249 -29 224.5 -14.5Q200 0 171 0Q149 0 129.5 -8Q110 -16 95 -31Q80 -46 72 -65.5Q64 -85 64 -106.5Q64 -128 72 -147.5Q80 -167 95 -182Q110 -197 129.5 -205Q149 -213 171 -213H173Q181 -242 204 -259.5Q227 -277 256 -277ZM256 -224Q243 -224 233.5 -214.5Q224 -205 224 -192Q224 -179 233.5 -169.5Q243 -160 256 -160Q269 -160 278.5 -169.5Q288 -179 288 -192Q288 -205 278.5 -214.5Q269 -224 256 -224ZM148 -144L133 -129L193 -69L208 -84Z"/>
</svg>