<svg xmlns="http://www.w3.org/2000/svg" viewBox="0 -512 512 512">
	<path fill="#000000" d="M448 -171Q448 -119 422 -74.5Q396 -30 352 -4.5Q308 21 256 21Q204 21 160 -4.5Q116 -30 90 -74.5Q64 -119 64 -171L65 -353Q153 -405 256 -405Q359 -405 448 -355ZM277 -23Q313 -28 342.5 -49Q372 -70 388.5 -102Q405 -134 405 -171V-329Q335 -363 256 -363Q177 -363 105 -327L107 -171Q107 -134 124 -102Q141 -70 170 -49Q199 -28 235 -23V-64H277ZM235 -107H171L128 -171L192 -149H213L235 -171H277L299 -149H320L384 -171L341 -107H277L256 -128ZM128 -255Q149 -276 181 -276Q213 -276 235 -255Q213 -235 181 -235Q149 -235 128 -255ZM277 -255Q299 -276 330.5 -276Q362 -276 384 -255Q362 -235 330.5 -235Q299 -235 277 -255Z"/>
</svg>