<svg xmlns="http://www.w3.org/2000/svg" viewBox="0 -512 512 512">
	<path fill="#000000" d="M213 -176Q289 -191 363 -213V-363L324 -374Q279 -386 241 -394Q188 -405 160 -405Q116 -405 83 -376Q50 -347 44 -303Q38 -259 63 -222.5Q88 -186 131 -175L149 -43H171Q172 -27 180 -14Q188 -1 202.5 7.5Q217 16 225.5 31Q234 46 235 64H256Q256 42 245 22Q234 2 215 -10Q203 -20 198 -25Q192 -33 192 -43H213ZM85 -288Q85 -319 107 -341Q129 -363 160 -363Q242 -355 320 -331V-245Q242 -221 160 -213Q129 -213 107 -235Q85 -257 85 -288ZM469 -256Q444 -255 422 -268Q404 -278 384 -277V-299Q409 -299 431 -287Q449 -277 469 -277ZM469 -320Q449 -319 431 -330Q409 -342 384 -341V-320Q404 -321 422 -310Q444 -298 469 -299ZM469 -235Q449 -234 431 -244Q409 -257 384 -256V-235Q404 -235 422 -225Q444 -213 469 -213ZM192 -288Q192 -275 182.5 -265.5Q173 -256 160 -256Q147 -256 137.5 -265.5Q128 -275 128 -288Q128 -301 137.5 -310.5Q147 -320 160 -320Q173 -320 182.5 -310.5Q192 -301 192 -288Z"/>
</svg>