<svg xmlns="http://www.w3.org/2000/svg" viewBox="0 -512 512 512">
	<path fill="#000000" d="M139 -320Q170 -320 194 -291Q213 -310 235 -317V-363Q235 -380 247.5 -392.5Q260 -405 277 -405H320V-363H277V-317Q299 -310 318 -291Q342 -320 373 -320Q400 -320 422 -298.5Q444 -277 456.5 -240Q469 -203 469 -160Q469 -117 456.5 -80Q444 -43 422 -21.5Q400 0 373 0Q342 0 318 -29Q291 0 256 0Q221 0 194 -29Q170 0 139 0Q112 0 90 -21.5Q68 -43 55.5 -80Q43 -117 43 -160Q43 -203 55.5 -240Q68 -277 90 -298.5Q112 -320 139 -320ZM192 -235L165 -187H219ZM320 -235L293 -187H347ZM171 -85H213L235 -107L256 -85H299L320 -107L341 -85L373 -149L297 -136L277 -107L256 -128H213L192 -107L171 -128L128 -149Z"/>
</svg>