<svg xmlns="http://www.w3.org/2000/svg" viewBox="0 -512 512 512">
	<path fill="#000000" d="M472 10L51 -411L24 -384L149 -258V-226Q138 -237 123 -240L107 -245Q93 -249 80.5 -244Q68 -239 60 -227Q54 -218 53.5 -207Q53 -196 57 -186L112 -48Q132 2 177 33Q222 64 277 64Q317 64 351 47.5Q385 31 409 1L445 37ZM277 21Q236 21 201.5 -2Q167 -25 151 -64L96 -204L107 -201Q123 -197 128 -181L149 -128H192V-216L379 -29Q361 -6 334.5 7.5Q308 21 277 21ZM192 -324L151 -365Q156 -383 170 -394Q184 -405 203 -405Q211 -405 214 -404Q218 -423 232.5 -435.5Q247 -448 267 -448Q283 -448 296.5 -438.5Q310 -429 316 -414Q323 -416 331 -416Q353 -416 368.5 -400.5Q384 -385 384 -363V-351Q387 -352 395 -352Q417 -352 432.5 -336.5Q448 -321 448 -299V-107Q448 -89 444 -72L405 -111V-299Q405 -303 402 -306Q399 -309 394.5 -309Q390 -309 387 -306Q384 -303 384 -299V-192H341V-363Q341 -367 338 -370Q335 -373 330.5 -373Q326 -373 323 -370Q320 -367 320 -363V-196L277 -239V-395Q277 -399 274 -402Q271 -405 266.5 -405Q262 -405 259 -402Q256 -399 256 -395V-260L213 -303V-352Q213 -356 210 -359.5Q207 -363 202.5 -363Q198 -363 195 -359.5Q192 -356 192 -352Z"/>
</svg>