<svg xmlns="http://www.w3.org/2000/svg" viewBox="0 -512 512 512">
	<path fill="#000000" d="M448 -299Q448 -321 432.5 -336.5Q417 -352 395 -352Q387 -352 384 -351V-363Q384 -385 368.5 -400.5Q353 -416 331 -416Q323 -416 316 -414Q310 -429 296.5 -438.5Q283 -448 267 -448Q247 -448 232.5 -435.5Q218 -423 214 -404Q211 -405 203 -405Q181 -405 165 -389.5Q149 -374 149 -352V-226Q138 -237 123 -240L107 -245Q93 -249 80.5 -244Q68 -239 60 -227Q54 -218 53.5 -207Q53 -196 57 -186L112 -48Q132 2 177 33Q222 64 277 64Q324 64 363 41Q402 18 425 -21Q448 -60 448 -107ZM405 -107Q405 -72 388 -42.5Q371 -13 341.5 4Q312 21 277 21Q236 21 201.5 -2Q167 -25 151 -64L96 -204L107 -201Q123 -197 128 -181L149 -128H192V-352Q192 -356 195 -359.5Q198 -363 202.5 -363Q207 -363 210 -359.5Q213 -356 213 -352V-192H256V-395Q256 -399 259 -402Q262 -405 266.5 -405Q271 -405 274 -402Q277 -399 277 -395V-192H320V-363Q320 -367 323 -370Q326 -373 330.5 -373Q335 -373 338 -370Q341 -367 341 -363V-192H384V-299Q384 -303 387 -306Q390 -309 394.5 -309Q399 -309 402 -306Q405 -303 405 -299Z"/>
</svg>