<svg xmlns="http://www.w3.org/2000/svg" viewBox="0 -512 512 512">
	<path fill="#000000" d="M395 -277Q387 -277 384 -276V-352Q384 -374 368.5 -389.5Q353 -405 331 -405Q323 -405 319 -404Q316 -423 301 -435.5Q286 -448 267 -448Q250 -448 236.5 -438.5Q223 -429 217 -414Q210 -416 203 -416Q181 -416 165 -400.5Q149 -385 149 -363V-351Q146 -352 139 -352Q117 -352 101 -336.5Q85 -321 85 -299V-117Q85 -68 109.5 -26.5Q134 15 175.5 39.5Q217 64 266.5 64Q316 64 357.5 39.5Q399 15 423.5 -26.5Q448 -68 448 -117V-224Q448 -246 432.5 -261.5Q417 -277 395 -277ZM405 -117Q405 -80 386.5 -48Q368 -16 336 2.5Q304 21 266.5 21Q229 21 197 2.5Q165 -16 146.5 -48Q128 -80 128 -117V-299Q128 -303 131 -306Q134 -309 138.5 -309Q143 -309 146 -306Q149 -303 149 -299V-192H192V-363Q192 -367 195 -370Q198 -373 202.5 -373Q207 -373 210 -370Q213 -367 213 -363V-213H256V-395Q256 -399 259 -402Q262 -405 266.5 -405Q271 -405 274 -402Q277 -399 277 -395V-213H320V-352Q320 -356 323 -359.5Q326 -363 330.5 -363Q335 -363 338 -359.5Q341 -356 341 -352V-162Q313 -149 295 -122.5Q277 -96 277 -64H320Q320 -91 338.5 -109.5Q357 -128 384 -128V-224Q384 -228 387 -231.5Q390 -235 394.5 -235Q399 -235 402 -231.5Q405 -228 405 -224Z"/>
</svg>