<svg xmlns="http://www.w3.org/2000/svg" viewBox="0 -512 512 512">
	<path fill="#000000" d="M472 10L51 -411L24 -384L63 -344Q53 -340 53 -331L43 -196Q41 -164 54 -134.5Q67 -105 93 -85Q92 -115 102 -142L145 -263L170 -238L132 -131Q118 -94 128 -55Q138 -16 169 10Q195 34 229.5 40.5Q264 47 297 36Q330 25 353 -2L378 -30L445 37ZM107 -238L96 -243L100 -307L127 -280ZM205 -155L195 -163L208 -199L227 -180ZM319 -198L396 -285Q402 -292 410.5 -292.5Q419 -293 425.5 -287.5Q432 -282 432.5 -273.5Q433 -265 427 -258L348 -169ZM423 -229Q429 -236 437.5 -236.5Q446 -237 452 -231.5Q458 -226 458.5 -217.5Q459 -209 454 -203L388 -128L359 -157ZM463 -156Q469 -151 469.5 -142.5Q470 -134 464 -128L429 -87L400 -116L433 -154Q439 -161 447.5 -161.5Q456 -162 463 -156ZM332 -299Q337 -305 345.5 -305.5Q354 -306 360.5 -300.5Q367 -295 367.5 -286.5Q368 -278 363 -272L307 -209L278 -238ZM249 -268L298 -368Q301 -376 309.5 -378.5Q318 -381 325.5 -377.5Q333 -374 335.5 -366Q338 -358 335 -350L326 -333Q316 -329 308 -320L256 -261ZM194 -323L163 -353L191 -411Q195 -419 203 -421.5Q211 -424 218.5 -420.5Q226 -417 229 -409Q232 -401 228 -393ZM206 -310L257 -415Q261 -423 269 -425.5Q277 -428 284.5 -424.5Q292 -421 295 -413Q298 -405 294 -397L236 -280Z"/>
</svg>