<svg xmlns="http://www.w3.org/2000/svg" viewBox="0 -512 512 512">
	<path fill="#000000" d="M235 -320H299L369 -390Q375 -397 384 -397Q393 -397 399 -390L454 -335Q460 -329 460 -320Q460 -311 454 -305L405 -256H235V-213Q235 -204 228.5 -198Q222 -192 213 -192Q204 -192 198 -198Q192 -204 192 -213V-277Q192 -295 204.5 -307.5Q217 -320 235 -320ZM107 -213V-128L58 -79Q52 -73 52 -64Q52 -55 58 -49L113 6Q119 12 128 12Q137 12 143 6L235 -85H320Q329 -85 335 -91.5Q341 -98 341 -107V-128H363Q372 -128 378 -134Q384 -140 384 -149V-171H405Q414 -171 420.5 -177Q427 -183 427 -192V-213H277V-192Q277 -174 264.5 -161.5Q252 -149 235 -149H192Q174 -149 161.5 -161.5Q149 -174 149 -192V-256Z"/>
</svg>