<svg xmlns="http://www.w3.org/2000/svg" viewBox="0 -512 512 512">
	<path fill="#000000" d="M463 -262Q481 -280 479 -303Q476 -321 463 -335L399 -399Q381 -417 358 -415Q340 -412 326 -399L290 -363H235Q206 -363 186 -349Q169 -337 159 -317L64 -222V-137L49 -122Q31 -104 33 -81Q36 -63 49 -49L113 15Q129 31 148 31Q159 31 169 26.5Q179 22 186 15L243 -43H320Q345 -43 362 -57Q376 -68 381 -87Q398 -92 410 -104Q419 -115 424 -130Q447 -136 459 -156Q469 -173 469 -192V-256H457ZM427 -192Q427 -183 422 -177Q417 -171 405 -171H384V-149Q384 -141 379 -134.5Q374 -128 363 -128H341V-107Q341 -98 336.5 -91.5Q332 -85 320 -85H226L156 -15Q149 -9 143 -15L79 -79Q73 -85 79 -92L107 -119V-205L149 -247V-213Q149 -190 164 -172Q181 -149 213 -149Q245 -149 263 -172Q277 -190 277 -213H427ZM433 -292L397 -256H235V-213Q235 -205 230 -198.5Q225 -192 213.5 -192Q202 -192 197 -198.5Q192 -205 192 -213V-277Q192 -291 199 -302Q210 -320 235 -320H307L356 -369Q363 -375 369 -369L433 -305Q439 -299 433 -292Z"/>
</svg>