<svg xmlns="http://www.w3.org/2000/svg" viewBox="0 -512 512 512">
	<path fill="#000000" d="M472 10L51 -411L24 -384L68 -339Q64 -332 64 -325V-107Q64 -60 87 -21Q110 18 149 41Q188 64 234.5 64Q281 64 321 40Q361 16 383 -24L445 37ZM117 -192V-290L139 -269V-192ZM213 -192H192V-216L213 -194ZM341 -175L288 -228V-379Q288 -390 296 -397.5Q304 -405 315 -405Q326 -405 333.5 -397.5Q341 -390 341 -379ZM416 -101L366 -150L387 -203Q395 -222 414 -228L431 -234Q444 -238 453 -228Q462 -218 457 -205ZM192 -324L139 -378V-389Q139 -400 146.5 -408Q154 -416 165 -416Q176 -416 184 -408Q192 -400 192 -389ZM267 -250L213 -303V-421Q213 -432 221 -440Q229 -448 240 -448Q251 -448 259 -440Q267 -432 267 -421Z"/>
</svg>