<svg xmlns="http://www.w3.org/2000/svg" viewBox="0 -512 512 512">
	<path fill="#000000" d="M150 -342L75 -267Q40 -232 27.5 -185.5Q15 -139 27.5 -92Q40 -45 75 -10.5Q110 24 156.5 36.5Q203 49 249.5 36.5Q296 24 331 -11L459 -139Q475 -154 475 -176.5Q475 -199 459 -214Q456 -218 451 -221L459 -229Q475 -245 475 -267Q475 -289 459 -305Q455 -309 448 -314Q454 -329 451 -345Q448 -361 436 -373Q423 -386 403.5 -388Q384 -390 368 -379Q365 -384 361 -388Q345 -403 323 -403Q301 -403 285 -388L232 -334Q229 -338 225 -342Q210 -358 187.5 -358Q165 -358 150 -342ZM180 -312Q183 -315 187.5 -315Q192 -315 195 -312Q198 -309 198 -304.5Q198 -300 195 -297L127 -229Q146 -210 146 -183.5Q146 -157 127 -139L157 -109Q180 -131 186.5 -162.5Q193 -194 181 -223L316 -357Q319 -361 323.5 -361Q328 -361 331 -357.5Q334 -354 334 -349.5Q334 -345 331 -342L233 -244L263 -214L391 -342Q394 -345 398.5 -345Q403 -345 406 -342Q409 -339 409 -334.5Q409 -330 406 -327L278 -199L308 -169L414 -274Q417 -278 421.5 -278Q426 -278 429 -274.5Q432 -271 432 -266.5Q432 -262 429 -259L308 -139L338 -108L414 -184Q417 -187 421.5 -187Q426 -187 429 -184Q432 -181 432 -176.5Q432 -172 429 -169L301 -41Q274 -14 238.5 -4.5Q203 5 167 -4.5Q131 -14 104.5 -40.5Q78 -67 68.5 -103Q59 -139 68.5 -174.5Q78 -210 105 -237ZM491 -85Q491 -51 473.5 -21.5Q456 8 426.5 25.5Q397 43 363 43V11Q403 11 431 -17Q459 -45 459 -85ZM21 -299Q21 -333 38.5 -362.5Q56 -392 85.5 -409.5Q115 -427 149 -427V-395Q109 -395 81 -367Q53 -339 53 -299Z"/>
</svg>