<svg xmlns="http://www.w3.org/2000/svg" viewBox="0 -512 512 512">
	<path fill="#000000" d="M432 -304Q403 -333 363 -339.5Q323 -346 286 -329L266 -349Q260 -355 251 -355Q242 -355 236 -349L234 -347Q232 -363 220 -373.5Q208 -384 191 -384Q174 -384 161.5 -371.5Q149 -359 149 -341Q149 -337 150 -336Q140 -330 134 -320Q128 -310 128 -299Q128 -285 137 -273Q128 -266 128 -256V-227Q90 -214 66.5 -181Q43 -148 43 -107Q43 -72 60 -42.5Q77 -13 106.5 4Q136 21 170.5 21Q205 21 234.5 4Q264 -13 281.5 -42.5Q299 -72 299 -107Q299 -148 275 -181Q251 -214 213 -227V-256Q213 -266 204 -273Q213 -285 213 -299Q213 -303 213 -304Q216 -306 222 -312H223Q238 -304 247 -289Q256 -274 256 -256V-254L264 -249Q271 -264 281 -274Q306 -299 341.5 -299Q377 -299 402 -274Q427 -249 427 -213.5Q427 -178 402 -153Q377 -128 340 -128Q341 -121 341 -107Q341 -98 340 -85Q366 -85 389.5 -94.5Q413 -104 432 -123Q456 -147 465 -180Q474 -213 465 -246Q456 -279 432 -304ZM192 -363Q201 -363 207 -356.5Q213 -350 213 -340.5Q213 -331 204 -324Q192 -341 171 -341Q171 -350 177 -356.5Q183 -363 192 -363ZM158 -316Q171 -299 192 -299Q192 -290 185.5 -283.5Q179 -277 170.5 -277Q162 -277 155.5 -283.5Q149 -290 149 -299.5Q149 -309 158 -316ZM256 -107Q256 -71 231 -46Q206 -21 170.5 -21Q135 -21 110 -46Q85 -71 85 -106.5Q85 -142 110 -167Q135 -192 170.5 -192Q206 -192 231 -167Q256 -142 256 -107Z"/>
</svg>