<svg xmlns="http://www.w3.org/2000/svg" viewBox="0 -512 512 512">
	<path fill="#000000" d="M284 -37L404 -158L450 -112L329 8ZM352 -211L286 -276Q282 -280 277 -282L253 -374Q251 -383 243.5 -387.5Q236 -392 227.5 -389.5Q219 -387 214.5 -379.5Q210 -372 212 -364L235 -277L185 -380Q181 -388 173 -391Q165 -394 157 -390Q149 -386 146 -378Q143 -370 147 -362L183 -286L111 -357Q104 -364 95.5 -364Q87 -364 80.5 -357.5Q74 -351 74 -342Q74 -333 81 -327L160 -248L122 -233L81 -205L72 -193Q63 -179 62 -173Q61 -167 70 -141L80 -115Q82 -110 87 -106.5Q92 -103 99 -103Q108 -103 114 -109Q120 -115 120 -124Q120 -126 119 -129V-130L107 -167L133 -188L175 -185Q195 -167 200 -152Q204 -139 198 -129Q194 -122 186 -116L178 -112L104 -90L101 -87Q94 -81 94 -71L95 -48L232 -59Q244 -58 254 -67L352 -165Q361 -174 361 -188Q361 -202 352 -211Z"/>
</svg>