<svg xmlns="http://www.w3.org/2000/svg" viewBox="0 -512 512 512">
	<path fill="#000000" d="M416 -171Q395 -171 378 -160.5Q361 -150 351 -132L282 -188L234 -171L211 -207L239 -199L296 -245L276 -270L233 -234L170 -256Q155 -261 143 -253Q132 -246 129 -234.5Q126 -223 131 -212Q124 -213 117 -213Q77 -213 49 -185Q21 -157 21 -117Q21 -77 49 -49Q77 -21 117 -21Q157 -21 185 -49Q213 -77 213 -117L212 -125L277 -149L341 -96Q341 -65 363 -43Q385 -21 416 -21Q447 -21 469 -43Q491 -65 491 -96Q491 -127 469 -149Q447 -171 416 -171ZM117 -53Q91 -53 72 -72Q53 -91 53 -117.5Q53 -144 72 -162.5Q91 -181 117.5 -181Q144 -181 162.5 -162.5Q181 -144 181 -117.5Q181 -91 162.5 -72Q144 -53 117 -53ZM416 -53Q398 -53 385.5 -65.5Q373 -78 373 -96Q373 -114 385.5 -126.5Q398 -139 416 -139Q434 -139 446.5 -126.5Q459 -114 459 -96Q459 -78 446.5 -65.5Q434 -53 416 -53ZM137 -287Q128 -296 128 -309Q128 -322 137.5 -331Q147 -340 160 -340Q173 -340 182.5 -331Q192 -322 192 -309Q192 -296 182.5 -286.5Q173 -277 160 -277Q147 -277 137 -287Z"/>
</svg>