<svg xmlns="http://www.w3.org/2000/svg" viewBox="0 -512 512 512">
	<path fill="#000000" d="M169 10Q138 -16 128 -55Q118 -94 132 -131L177 -258Q181 -268 191 -269Q201 -270 207 -261L213 -249Q221 -236 216 -221L195 -163L205 -155L332 -299Q337 -305 345.5 -305.5Q354 -306 360.5 -300.5Q367 -295 367.5 -286.5Q368 -278 363 -272L268 -164L280 -154L396 -285Q402 -292 410.5 -292.5Q419 -293 425.5 -287.5Q432 -282 432.5 -273.5Q433 -265 427 -258L311 -127L323 -116L423 -229Q429 -236 437.5 -236.5Q446 -237 452 -231Q458 -225 458.5 -217Q459 -209 454 -203L354 -89L366 -78L433 -154Q439 -161 447.5 -161.5Q456 -162 462.5 -156.5Q469 -151 469.5 -142.5Q470 -134 464 -128L353 -2Q330 25 297 36Q264 47 229.5 40.5Q195 34 169 10ZM247 -251L308 -320Q316 -329 326 -333L335 -350Q338 -358 335.5 -366Q333 -374 325.5 -377.5Q318 -381 309.5 -378.5Q301 -376 298 -368L244 -258ZM235 -277V-276L294 -397Q298 -405 295 -413Q292 -421 284.5 -424.5Q277 -428 269 -425.5Q261 -423 257 -415L201 -300Q223 -296 235 -277ZM102 -142L147 -269Q151 -281 160.5 -289Q170 -297 182 -299L228 -393Q232 -401 229 -409Q226 -417 218.5 -420.5Q211 -424 203 -421.5Q195 -419 191 -411L107 -238L96 -243L100 -305Q102 -320 91 -332L81 -341Q73 -348 63.5 -344.5Q54 -341 53 -331L43 -196Q41 -164 54 -134.5Q67 -105 93 -85Q92 -115 102 -142Z"/>
</svg>