<svg xmlns="http://www.w3.org/2000/svg" viewBox="0 -512 512 512">
	<path fill="#000000" d="M277 64Q225 64 182 34.5Q139 5 119 -43L55 -205Q50 -218 59 -228Q68 -238 81 -234L98 -228Q117 -222 125 -203L155 -128H171V-379Q171 -390 178.5 -397.5Q186 -405 197 -405Q208 -405 216 -397.5Q224 -390 224 -379V-192H245V-421Q245 -432 253 -440Q261 -448 272 -448Q283 -448 291 -440Q299 -432 299 -421V-192H320V-389Q320 -400 328 -408Q336 -416 347 -416Q358 -416 365.5 -408Q373 -400 373 -389V-192H395V-325Q395 -336 402.5 -344Q410 -352 421 -352Q432 -352 440 -344Q448 -336 448 -325V-107Q448 -60 425 -21Q402 18 363 41Q324 64 277 64Z"/>
</svg>