<svg xmlns="http://www.w3.org/2000/svg" viewBox="0 -512 512 512">
	<path fill="#000000" d="M149 -43H320V21H149ZM361 -427Q353 -428 345.5 -423Q338 -418 336 -410L315 -287L299 -289L289 -288L265 -410Q263 -418 255.5 -423Q248 -428 239.5 -426.5Q231 -425 226 -417.5Q221 -410 223 -401L249 -275L167 -239Q159 -236 154 -228Q149 -220 149 -210V-117Q149 -105 159 -95Q169 -85 181 -85H320Q332 -85 341 -95L352 -103L357 -108Q363 -115 363 -120V-171L362 -177Q361 -186 357 -192Q352 -202 344 -207L378 -401Q380 -410 375 -417.5Q370 -425 361 -427Z"/>
</svg>