<svg xmlns="http://www.w3.org/2000/svg" viewBox="0 -512 512 512">
	<path fill="#000000" d="M421 -277Q410 -277 402.5 -269.5Q395 -262 395 -251V-128H384Q358 -128 339 -109Q320 -90 320 -64H299Q299 -96 320.5 -120.5Q342 -145 373 -149V-379Q373 -390 365.5 -397.5Q358 -405 347 -405Q336 -405 328 -397.5Q320 -390 320 -379V-213H299V-421Q299 -432 291 -440Q283 -448 272 -448Q261 -448 253 -440Q245 -432 245 -421V-213H224V-389Q224 -400 216 -408Q208 -416 197 -416Q186 -416 178.5 -408Q171 -400 171 -389V-192H149V-325Q149 -336 141.5 -344Q134 -352 123 -352Q112 -352 104 -344Q96 -336 96 -325V-112Q96 -64 119.5 -23.5Q143 17 183.5 40.5Q224 64 272 64Q320 64 360.5 40.5Q401 17 424.5 -23.5Q448 -64 448 -112V-251Q448 -262 440 -269.5Q432 -277 421 -277Z"/>
</svg>