<svg xmlns="http://www.w3.org/2000/svg" viewBox="0 -512 512 512">
	<path fill="#000000" d="M64 -107V-325Q64 -336 72 -344Q80 -352 91 -352Q102 -352 109.5 -344Q117 -336 117 -325V-192H139V-389Q139 -400 146.5 -408Q154 -416 165 -416Q176 -416 184 -408Q192 -400 192 -389V-192H213V-421Q213 -432 221 -440Q229 -448 240 -448Q251 -448 259 -440Q267 -432 267 -421V-192H288V-379Q288 -390 296 -397.5Q304 -405 315 -405Q326 -405 333.5 -397.5Q341 -390 341 -379V-128H357L387 -203Q395 -222 414 -228L431 -234Q444 -238 453 -228Q462 -218 457 -205L393 -43Q373 5 330 34.5Q287 64 235 64Q188 64 149 41Q110 18 87 -21Q64 -60 64 -107Z"/>
</svg>