<svg xmlns="http://www.w3.org/2000/svg" viewBox="0 -512 512 512">
	<path fill="#000000" d="M427 -85Q445 -85 457.5 -72.5Q470 -60 470 -43L299 21L149 -21V-213H191L346 -156Q363 -149 363 -132Q363 -122 355.5 -114.5Q348 -107 337 -107H277L240 -121L233 -101L277 -85ZM341 -379Q364 -405 399 -405Q428 -405 448 -384Q468 -363 469 -335Q469 -313 448 -282.5Q427 -252 406 -231.5Q385 -211 341 -171Q297 -211 276 -231.5Q255 -252 234 -282.5Q213 -313 213 -335Q213 -364 234 -384Q255 -404 284 -405Q318 -405 341 -379ZM21 -213H107V21H21Z"/>
</svg>