<svg xmlns="http://www.w3.org/2000/svg" viewBox="0 -512 512 512">
	<path fill="#000000" d="M244 -242Q245 -238 245 -235V-123Q245 -107 234 -95L175 -29L102 -102L128 -128L188 -387Q190 -395 196.5 -400Q203 -405 212 -405Q221 -405 228 -398Q235 -391 235 -382V-276Q229 -277 224 -277Q206 -277 193.5 -264.5Q181 -252 181 -235V-171Q181 -166 184.5 -163Q188 -160 192 -160Q196 -160 199.5 -163Q203 -166 203 -171V-235Q203 -243 209 -249.5Q215 -256 224 -256Q229 -256 235 -253Q238 -251 241 -247ZM43 -43L128 21L153 -6L79 -79ZM384 -128L324 -387Q322 -395 315.5 -400Q309 -405 300 -405Q291 -405 284 -398Q277 -391 277 -382V-276Q283 -277 288 -277Q306 -277 318.5 -264.5Q331 -252 331 -235V-171Q331 -166 327.5 -163Q324 -160 320 -160Q316 -160 312.5 -163Q309 -166 309 -171V-235Q309 -243 303 -249.5Q297 -256 288 -256Q283 -256 277 -253Q274 -251 271 -247L268 -242Q267 -238 267 -235V-123Q267 -107 278 -95L337 -29L410 -102ZM433 -79L359 -6L384 21L469 -43Z"/>
</svg>