<svg xmlns="http://www.w3.org/2000/svg" viewBox="0 -512 512 512">
	<path fill="#000000" d="M64 -107Q64 -60 87 -21Q110 18 149 41Q188 64 235 64Q290 64 335 33Q380 2 400 -48L455 -186Q459 -196 458.5 -207Q458 -218 452 -227Q444 -239 431.5 -244Q419 -249 405 -245L389 -240Q374 -237 363 -226V-352Q363 -374 347 -389.5Q331 -405 309 -405Q301 -405 298 -404Q294 -423 279.5 -435.5Q265 -448 245 -448Q229 -448 215.5 -438.5Q202 -429 196 -414Q189 -416 181 -416Q159 -416 143.5 -400.5Q128 -385 128 -363V-351Q125 -352 117 -352Q95 -352 79.5 -336.5Q64 -321 64 -299ZM107 -299Q107 -303 110 -306Q113 -309 117.5 -309Q122 -309 125 -306Q128 -303 128 -299V-192H171V-363Q171 -367 174 -370Q177 -373 181.5 -373Q186 -373 189 -370Q192 -367 192 -363V-192H235V-395Q235 -399 238 -402Q241 -405 245.5 -405Q250 -405 253 -402Q256 -399 256 -395V-192H299V-352Q299 -356 302 -359.5Q305 -363 309.5 -363Q314 -363 317 -359.5Q320 -356 320 -352V-128H363L384 -181Q389 -197 405 -201L416 -204L361 -64Q345 -25 310.5 -2Q276 21 235 21Q200 21 170.5 4Q141 -13 124 -42.5Q107 -72 107 -107Z"/>
</svg>