<svg xmlns="http://www.w3.org/2000/svg" viewBox="0 -512 512 512">
	<path fill="#000000" d="M491 -85Q491 -51 473.5 -21.5Q456 8 426.5 25.5Q397 43 363 43V11Q403 11 431 -17Q459 -45 459 -85ZM21 -299Q21 -333 38.5 -362.5Q56 -392 85.5 -409.5Q115 -427 149 -427V-395Q109 -395 81 -367Q53 -339 53 -299ZM171 -356L73 -258Q39 -224 27 -178.5Q15 -133 27 -88Q39 -43 73 -9Q107 25 152 37Q197 49 242.5 37Q288 25 322 -9L473 -160Q480 -168 480 -178.5Q480 -189 472.5 -197Q465 -205 454 -205Q443 -205 435 -197L340 -103L325 -118L465 -258Q473 -266 473 -277Q473 -288 465 -295.5Q457 -303 446 -303Q435 -303 427 -295L303 -171L288 -186L435 -333Q442 -341 442 -352Q442 -363 434.5 -371Q427 -379 416 -379Q405 -379 397 -371L250 -224L235 -239L352 -356Q360 -364 360 -375Q360 -386 352 -393.5Q344 -401 333 -401Q322 -401 314 -394L152 -231Q171 -206 169.5 -173.5Q168 -141 145 -118L129 -134Q148 -152 148 -178.5Q148 -205 129 -224L122 -231L209 -318Q217 -326 217 -337Q217 -348 209 -356Q201 -364 190 -364Q179 -364 171 -356Z"/>
</svg>