<svg xmlns="http://www.w3.org/2000/svg" viewBox="0 -512 512 512">
	<path fill="#000000" d="M149 -43H320V21H149ZM345 -192L277 -227Q272 -227 269 -224L262 -217L275 -166L254 -161L229 -267L197 -252L220 -161L199 -156L177 -243L167 -239Q159 -236 154 -228Q149 -220 149 -210V-117Q149 -105 159 -95Q169 -85 181 -85H320Q332 -85 341 -95L352 -103L357 -108Q363 -115 363 -120V-156L362 -162Q361 -171 357 -177Q353 -187 345 -192ZM361 -427Q353 -428 345.5 -423Q338 -418 336 -410L313 -278L308 -279Q304 -281 300 -281L291 -280L265 -410Q263 -418 255.5 -423Q248 -428 239.5 -426.5Q231 -425 226 -417.5Q221 -410 223 -401L249 -275L256 -242Q266 -249 277 -249H284L348 -214L378 -401Q380 -410 375 -417.5Q370 -425 361 -427Z"/>
</svg>