<svg xmlns="http://www.w3.org/2000/svg" viewBox="0 -512 512 512">
	<path fill="#000000" d="M472 10L51 -411L24 -384L76 -332Q64 -317 64 -299V-107Q64 -60 87 -21Q110 18 149 41Q188 64 234.5 64Q281 64 321.5 41Q362 18 387 -21L445 37ZM235 21Q200 21 170.5 4Q141 -13 124 -42.5Q107 -72 107 -107V-301L128 -280V-192H171V-237L192 -216V-192H216L355 -52Q338 -19 305.5 1Q273 21 235 21ZM171 -346L132 -384Q139 -398 152 -407Q165 -416 181 -416Q189 -416 196 -414Q202 -429 215.5 -438.5Q229 -448 245 -448Q265 -448 279.5 -435.5Q294 -423 298 -404Q301 -405 309 -405Q331 -405 347 -389.5Q363 -374 363 -352V-226Q374 -237 389 -240L405 -245Q419 -249 431.5 -244Q444 -239 452 -227Q458 -218 458.5 -207Q459 -196 455 -186L420 -97L387 -129L416 -204L405 -201Q389 -197 384 -181L370 -146L320 -196V-352Q320 -356 317 -359.5Q314 -363 309.5 -363Q305 -363 302 -359.5Q299 -356 299 -352V-218L256 -260V-395Q256 -399 253 -402Q250 -405 245.5 -405Q241 -405 238 -402Q235 -399 235 -395V-282L192 -324V-363Q192 -367 189 -370Q186 -373 181.5 -373Q177 -373 174 -370Q171 -367 171 -363Z"/>
</svg>