<svg xmlns="http://www.w3.org/2000/svg" viewBox="0 -512 512 512">
	<path fill="#000000" d="M338 -225Q360 -208 374 -183.5Q388 -159 392 -131Q397 -105 392 -79.5Q387 -54 373 -32L337 -53Q351 -78 351 -107Q350 -141 330 -169L196 63L159 42L223 -69L186 -90L154 -35L117 -56L227 -246Q193 -283 187 -332Q181 -381 207 -425L244 -403Q233 -384 230 -363.5Q227 -343 232.5 -322.5Q238 -302 250.5 -285Q263 -268 282 -257ZM341 -341Q324 -341 311.5 -328.5Q299 -316 299 -298.5Q299 -281 311.5 -268.5Q324 -256 341.5 -256Q359 -256 371.5 -268.5Q384 -281 384 -298.5Q384 -316 371.5 -328.5Q359 -341 341 -341ZM288 -427Q275 -427 265.5 -417.5Q256 -408 256 -394.5Q256 -381 265.5 -372Q275 -363 288 -363Q301 -363 310.5 -372Q320 -381 320 -394.5Q320 -408 310.5 -417.5Q301 -427 288 -427Z"/>
</svg>