<svg xmlns="http://www.w3.org/2000/svg" viewBox="0 -512 512 512">
	<path fill="#000000" d="M363 -341L376 -312L405 -299L376 -285L363 -256L349 -285L320 -299L349 -312ZM427 -149Q444 -149 456.5 -161.5Q469 -174 469 -192Q469 -207 448 -243Q437 -262 427 -277L416 -260Q403 -240 395 -225Q384 -202 384 -192Q384 -174 396.5 -161.5Q409 -149 427 -149ZM235 -318V-363H277Q295 -363 310 -353L341 -384Q312 -405 277 -405H160V-363H192V-318Q164 -311 142.5 -292Q121 -273 112 -245H158Q167 -260 181.5 -268.5Q196 -277 213 -277Q239 -277 257.5 -259Q276 -241 277 -215L320 -199V-213Q320 -252 295.5 -281Q271 -310 235 -318ZM469 -43V-21L299 32L149 -9V21H21V-213H191L323 -164Q341 -158 352 -142Q363 -126 363 -107H405Q432 -107 450.5 -88Q469 -69 469 -43ZM107 -21V-171H64V-21ZM425 -52Q422 -57 416.5 -60.5Q411 -64 405 -64H291Q273 -64 257 -69L207 -86L220 -127L271 -110Q275 -109 298 -107H320Q320 -113 316.5 -117.5Q313 -122 308 -124L184 -171H149V-53L298 -13Z"/>
</svg>