<svg xmlns="http://www.w3.org/2000/svg" viewBox="0 -512 512 512">
	<path fill="#000000" d="M64 -251V-112Q64 -64 87.5 -23.5Q111 17 151.5 40.5Q192 64 240 64Q288 64 328.5 40.5Q369 17 392.5 -23.5Q416 -64 416 -112V-325Q416 -336 408 -344Q400 -352 389 -352Q378 -352 370.5 -344Q363 -336 363 -325V-192H341V-389Q341 -400 333.5 -408Q326 -416 315 -416Q304 -416 296 -408Q288 -400 288 -389V-213H267V-421Q267 -432 259 -440Q251 -448 240 -448Q229 -448 221 -440Q213 -432 213 -421V-213H192V-379Q192 -390 184 -397.5Q176 -405 165 -405Q154 -405 146.5 -397.5Q139 -390 139 -379V-149Q170 -145 191.5 -120.5Q213 -96 213 -64H192Q192 -90 173 -109Q154 -128 128 -128H117V-251Q117 -262 109.5 -269.5Q102 -277 91 -277Q80 -277 72 -269.5Q64 -262 64 -251Z"/>
</svg>