<svg xmlns="http://www.w3.org/2000/svg" viewBox="0 -512 512 512">
	<path fill="#000000" d="M445 37L409 1Q385 31 351 47.5Q317 64 277 64Q225 64 182 34.5Q139 5 119 -43L55 -205Q50 -218 59 -228Q68 -238 81 -234L98 -228Q117 -222 125 -203L155 -128H171V-237L24 -384L51 -411L472 10ZM299 -421Q299 -432 291 -440Q283 -448 272 -448Q261 -448 253 -440Q245 -432 245 -421V-271L299 -218ZM448 -107V-325Q448 -336 440 -344Q432 -352 421 -352Q410 -352 402.5 -344Q395 -336 395 -325V-192H373V-389Q373 -400 365.5 -408Q358 -416 347 -416Q336 -416 328 -408Q320 -400 320 -389V-196L444 -72Q448 -89 448 -107ZM224 -379Q224 -390 216 -397.5Q208 -405 197 -405Q186 -405 178.5 -397.5Q171 -390 171 -379V-346L224 -292Z"/>
</svg>