<svg xmlns="http://www.w3.org/2000/svg" viewBox="0 -512 512 512">
	<path fill="#000000" d="M256 -363Q225 -363 203 -341Q181 -319 181 -288H224Q224 -301 233.5 -310.5Q243 -320 256 -320Q269 -320 278.5 -310.5Q288 -301 288 -288Q288 -275 278.5 -265.5Q269 -256 256 -256Q247 -256 241 -249.5Q235 -243 235 -235V-197L51 -60Q46 -56 44 -49Q42 -42 44 -35.5Q46 -29 51.5 -25Q57 -21 64 -21H448Q455 -21 460.5 -25Q466 -29 468 -35.5Q470 -42 468 -49Q466 -56 461 -60L277 -197V-217Q301 -224 316 -243.5Q331 -263 331 -288Q331 -319 309 -341Q287 -363 256 -363ZM256 -160L384 -64H128Z"/>
</svg>