<svg xmlns="http://www.w3.org/2000/svg" viewBox="0 -512 512 512">
	<path fill="#000000" d="M256 -256Q247 -256 241 -250Q235 -244 235 -235Q235 -226 241 -219.5Q247 -213 256 -213Q265 -213 271 -219.5Q277 -226 277 -235Q277 -244 271 -250Q265 -256 256 -256ZM256 -256Q247 -256 241 -250Q235 -244 235 -235Q235 -226 241 -219.5Q247 -213 256 -213Q265 -213 271 -219.5Q277 -226 277 -235Q277 -244 271 -250Q265 -256 256 -256ZM384 -405H128Q110 -405 97.5 -392.5Q85 -380 85 -363V-169Q96 -171 107 -171Q129 -171 149 -163Q130 -191 127.5 -224.5Q125 -258 139 -288.5Q153 -319 181 -339Q209 -359 242 -362Q275 -365 306 -352Q337 -339 357.5 -312Q378 -285 382 -251.5Q386 -218 374 -187Q362 -156 335 -135L294 -186Q290 -194 281.5 -196.5Q273 -199 265 -194L247 -183Q239 -179 236.5 -170.5Q234 -162 239 -154L258 -107Q235 -107 213 -115Q234 -84 235 -47Q236 -10 217 21H384Q402 21 414.5 8.5Q427 -4 427 -21V-363Q427 -380 414.5 -392.5Q402 -405 384 -405ZM311 -30L258 -165L276 -176L366 -62ZM256 -213Q265 -213 271 -219.5Q277 -226 277 -235Q277 -244 271 -250Q265 -256 256 -256Q247 -256 241 -250Q235 -244 235 -235Q235 -226 241 -219.5Q247 -213 256 -213ZM192 -21H128V43H85V-21H21V-64H85V-128H128V-64H192Z"/>
</svg>