<svg xmlns="http://www.w3.org/2000/svg" viewBox="0 -512 512 512">
	<path fill="#000000" d="M408 -194Q408 -200 408 -207Q408 -243 399.5 -278.5Q391 -314 376.5 -337Q362 -360 347 -360Q337 -360 324 -355Q317 -352 301.5 -344.5Q286 -337 279 -334Q266 -329 256 -329Q246 -329 233 -334Q225 -337 210 -344.5Q195 -352 187 -355Q175 -360 164 -360Q150 -360 135.5 -337.5Q121 -315 112.5 -279.5Q104 -244 104 -207V-194Q180 -177 257 -177Q334 -177 408 -194ZM74 -60Q163 -33 256 -33Q349 -33 438 -60Q452 -65 460.5 -77Q469 -89 469 -103Q469 -117 460.5 -129.5Q452 -142 439 -146Q351 -118 256 -118Q161 -118 73 -146Q60 -142 51.5 -130Q43 -118 43 -103Q43 -88 51.5 -76.5Q60 -65 74 -60Z"/>
</svg>