<svg xmlns="http://www.w3.org/2000/svg" viewBox="0 -512 512 512">
	<path fill="#000000" d="M154 -64Q143 -64 135.5 -71.5Q128 -79 128 -90V-192Q128 -227 145 -256.5Q162 -286 191.5 -303Q221 -320 256 -320Q291 -320 320.5 -303Q350 -286 367 -256.5Q384 -227 384 -192V-90Q384 -79 376.5 -71.5Q369 -64 358 -64H299V-149H341V-192Q341 -227 316 -252Q291 -277 256 -277Q221 -277 196 -252Q171 -227 171 -192V-149H213V-64ZM405 -384H107Q89 -384 76.5 -371.5Q64 -359 64 -341V-43Q64 -25 76.5 -12.5Q89 0 107 0H405Q423 0 435.5 -12.5Q448 -25 448 -43V-341Q448 -359 435.5 -371.5Q423 -384 405 -384Z"/>
</svg>