<svg xmlns="http://www.w3.org/2000/svg" viewBox="0 -512 512 512">
	<path fill="#000000" d="M277 -384Q318 -384 352.5 -364Q387 -344 407 -310Q427 -276 427 -235Q427 -190 403.5 -154Q380 -118 341 -100V0H192V-64H171Q153 -64 140.5 -76.5Q128 -89 128 -107V-171H96Q89 -171 86 -177Q83 -183 87 -188L128 -241Q130 -281 150.5 -313.5Q171 -346 204 -365Q237 -384 277 -384ZM277 -427Q229 -427 187.5 -405Q146 -383 119.5 -344.5Q93 -306 87 -258L53 -213Q44 -201 43 -186Q42 -171 49 -158Q63 -133 85 -130V-107Q85 -77 103 -54.5Q121 -32 149 -23V43H384V-75Q424 -102 446.5 -144Q469 -186 469 -235Q469 -287 443.5 -331Q418 -375 374 -401Q330 -427 277 -427ZM213 -235Q204 -235 198 -240.5Q192 -246 192 -256Q192 -266 198 -271.5Q204 -277 213.5 -277Q223 -277 229 -271.5Q235 -266 235 -256Q235 -246 229 -240.5Q223 -235 213 -235ZM277 -235Q268 -235 262 -240.5Q256 -246 256 -256Q256 -266 262 -271.5Q268 -277 277.5 -277Q287 -277 293 -271.5Q299 -266 299 -256Q299 -246 293 -240.5Q287 -235 277 -235ZM341 -235Q333 -235 326.5 -241Q320 -247 320 -256Q320 -265 326.5 -271Q333 -277 341.5 -277Q350 -277 356.5 -271Q363 -265 363 -256Q363 -247 356.5 -241Q350 -235 341 -235Z"/>
</svg>