<svg xmlns="http://www.w3.org/2000/svg" viewBox="0 -512 512 512">
	<path fill="#000000" d="M277 -384Q318 -384 352.5 -364Q387 -344 407 -309.5Q427 -275 427 -235Q427 -191 403.5 -154.5Q380 -118 341 -100V0H192V-64H171Q153 -64 140.5 -76.5Q128 -89 128 -107V-171H96Q89 -171 86 -177Q83 -183 87 -188L128 -242Q130 -281 150.5 -313.5Q171 -346 204.5 -365Q238 -384 277 -384ZM277 -427Q229 -427 187.5 -404.5Q146 -382 119 -343.5Q92 -305 87 -258L53 -213H52Q43 -201 42 -186Q41 -171 48 -157Q60 -134 85 -129V-107Q85 -77 103.5 -54Q122 -31 149 -24V43H384V-75Q424 -101 446.5 -143.5Q469 -186 469 -235Q469 -287 443.5 -331Q418 -375 373.5 -401Q329 -427 277 -427ZM370 -250L328 -239L359 -208Q364 -202 364 -194Q364 -186 358.5 -180.5Q353 -175 345 -175Q337 -175 332 -180L301 -211L289 -169Q288 -162 281 -158Q274 -154 266.5 -156Q259 -158 255 -165Q251 -172 253 -179L264 -221L222 -210Q214 -208 207 -212Q200 -216 198 -223.5Q196 -231 200 -238Q204 -245 212 -247L254 -258L223 -289Q218 -294 218 -302Q218 -310 223.5 -316Q229 -322 237 -322Q245 -322 250 -316L281 -285L292 -327Q294 -335 301 -339Q308 -343 315.5 -341Q323 -339 327 -332Q331 -325 329 -317L318 -275L360 -287Q368 -289 374.5 -285Q381 -281 383 -273Q385 -265 381 -258.5Q377 -252 370 -250Z"/>
</svg>