<svg xmlns="http://www.w3.org/2000/svg" viewBox="0 -512 512 512">
	<path fill="#000000" d="M277 -384Q318 -384 352.5 -364Q387 -344 407 -309.5Q427 -275 427 -235Q427 -191 403.5 -154.5Q380 -118 341 -100V0H192V-64H171Q153 -64 140.5 -76.5Q128 -89 128 -107V-171H96Q89 -171 86 -177Q83 -183 87 -188L128 -242Q130 -281 150.5 -313.5Q171 -346 204.5 -365Q238 -384 277 -384ZM277 -427Q229 -427 187.5 -404.5Q146 -382 119 -343.5Q92 -305 87 -258L53 -213H52Q43 -201 42 -186Q41 -171 48 -157Q60 -134 85 -129V-107Q85 -77 103.5 -54Q122 -31 149 -24V43H384V-75Q424 -101 446.5 -143.5Q469 -186 469 -235Q469 -287 443.5 -331Q418 -375 373.5 -401Q329 -427 277 -427ZM299 -128V-160Q263 -160 238 -185Q213 -210 213 -245Q213 -271 228 -292L251 -269Q245 -258 245 -245Q245 -223 261 -207.5Q277 -192 299 -192V-224L347 -176ZM370 -198L346 -221Q352 -233 352 -245Q352 -267 336.5 -283Q321 -299 299 -299V-267L251 -315L299 -363V-331Q334 -331 359 -306Q384 -281 384 -245Q384 -220 370 -198Z"/>
</svg>