<svg xmlns="http://www.w3.org/2000/svg" viewBox="0 -512 512 512">
	<path fill="#000000" d="M277 -384Q238 -384 204.5 -365Q171 -346 150.5 -313.5Q130 -281 128 -242L87 -188Q83 -183 86 -177Q89 -171 96 -171H128V-107Q128 -89 140.5 -76.5Q153 -64 171 -64H192V0H341V-100Q380 -118 403.5 -154.5Q427 -191 427 -235Q427 -275 407 -309.5Q387 -344 352.5 -364Q318 -384 277 -384ZM213 -213Q205 -213 198.5 -219.5Q192 -226 192 -234.5Q192 -243 198.5 -249.5Q205 -256 213.5 -256Q222 -256 228.5 -249.5Q235 -243 235 -234.5Q235 -226 228.5 -219.5Q222 -213 213 -213ZM277 -213Q269 -213 262.5 -219.5Q256 -226 256 -234.5Q256 -243 262.5 -249.5Q269 -256 277.5 -256Q286 -256 292.5 -249.5Q299 -243 299 -234.5Q299 -226 292.5 -219.5Q286 -213 277 -213ZM341 -213Q333 -213 326.5 -219.5Q320 -226 320 -234.5Q320 -243 326.5 -249.5Q333 -256 341.5 -256Q350 -256 356.5 -249.5Q363 -243 363 -234.5Q363 -226 356.5 -219.5Q350 -213 341 -213Z"/>
</svg>