<svg xmlns="http://www.w3.org/2000/svg" viewBox="0 -512 512 512">
	<path fill="#000000" d="M43 -64H192V-317Q164 -310 146 -287Q128 -264 128 -235V-213H171V-85H128Q110 -85 97.5 -97.5Q85 -110 85 -128V-235Q85 -269 102.5 -298.5Q120 -328 149.5 -345.5Q179 -363 213 -363H235Q269 -363 298.5 -345.5Q328 -328 345.5 -298.5Q363 -269 363 -235V-192H384V-256H427V-192Q427 -174 414.5 -161.5Q402 -149 384 -149H363V-128Q363 -110 350.5 -97.5Q338 -85 320 -85H277V-213H320V-235Q320 -264 302 -287Q284 -310 256 -317V-64H469V-21H43Z"/>
</svg>