<svg xmlns="http://www.w3.org/2000/svg" viewBox="0 -512 512 512">
	<path fill="#000000" d="M277 -384Q318 -384 352.5 -364Q387 -344 407 -310Q427 -276 427 -235Q427 -190 403.5 -154Q380 -118 341 -100V0H192V-64H171Q153 -64 140.5 -76.5Q128 -89 128 -107V-171H96Q89 -171 86 -177Q83 -183 87 -188L128 -241Q130 -281 150.5 -313.5Q171 -346 204 -365Q237 -384 277 -384ZM277 -427Q229 -427 187.5 -405Q146 -383 119.5 -344.5Q93 -306 87 -258L53 -213Q44 -202 42 -187Q40 -172 47 -158Q60 -134 85 -128V-107Q85 -77 103 -54.5Q121 -32 149 -23V43H384V-75Q424 -100 446.5 -142.5Q469 -185 469 -235Q469 -287 443.5 -331Q418 -375 374 -401Q330 -427 277 -427ZM363 -235H192V-277H363Z"/>
</svg>