<svg xmlns="http://www.w3.org/2000/svg" viewBox="0 -512 512 512">
	<path fill="#000000" d="M277 -384Q318 -384 352.5 -364Q387 -344 407 -309.5Q427 -275 427 -235Q427 -191 403.5 -154.5Q380 -118 341 -100V0H192V-64H171Q153 -64 140.5 -76.5Q128 -89 128 -107V-171H96Q89 -171 86 -177Q83 -183 87 -188L128 -242Q130 -281 150.5 -313.5Q171 -346 204.5 -365Q238 -384 277 -384ZM277 -427Q229 -427 187.5 -404.5Q146 -382 119 -343.5Q92 -305 87 -258L53 -213H52Q43 -201 42 -186Q41 -171 48 -157Q60 -134 85 -129V-107Q85 -77 103.5 -54Q122 -31 149 -24V43H384V-75Q424 -101 446.5 -143.5Q469 -186 469 -235Q469 -287 443.5 -331Q418 -375 373.5 -401Q329 -427 277 -427ZM363 -260Q363 -237 343 -213Q330 -197 290 -161L277 -149L265 -161Q225 -197 212 -213Q192 -237 192 -260Q192 -279 205.5 -292.5Q219 -306 238 -307H239Q262 -307 277 -289Q293 -307 316 -307Q335 -307 349 -293.5Q363 -280 363 -260Z"/>
</svg>