<svg xmlns="http://www.w3.org/2000/svg" viewBox="0 -512 512 512">
	<path fill="#000000" d="M171 -320Q136 -320 106.5 -303Q77 -286 60 -256.5Q43 -227 43 -192V-90Q43 -79 50.5 -71.5Q58 -64 68 -64H128V-149H85V-192Q85 -227 110 -252Q135 -277 170.5 -277Q206 -277 231 -252Q256 -227 256 -192V-149H213V-64H273Q284 -64 291.5 -71.5Q299 -79 299 -90V-192Q299 -227 281.5 -256.5Q264 -286 234.5 -303Q205 -320 171 -320ZM405 -299V-218L356 -267L341 -252L401 -192L341 -132L356 -117L405 -166V-85H416L477 -146L431 -192L477 -238L416 -299ZM427 -258L447 -238L427 -218ZM427 -166L447 -146L427 -126Z"/>
</svg>