<svg xmlns="http://www.w3.org/2000/svg" viewBox="0 -512 512 512">
	<path fill="#000000" d="M277 -384Q238 -384 204.5 -365Q171 -346 150.5 -313.5Q130 -281 128 -242L87 -188Q83 -183 86 -177Q89 -171 96 -171H128V-107Q128 -89 140.5 -76.5Q153 -64 171 -64H192V0H341V-100Q380 -118 403.5 -154.5Q427 -191 427 -235Q427 -275 407 -309.5Q387 -344 352.5 -364Q318 -384 277 -384ZM299 -149H256V-171H299ZM333 -245Q324 -231 309 -222V-192H245V-222Q222 -236 215.5 -261.5Q209 -287 222 -309.5Q235 -332 261 -339Q287 -346 309.5 -333Q332 -320 339 -294.5Q346 -269 333 -245Z"/>
</svg>