<svg xmlns="http://www.w3.org/2000/svg" viewBox="0 -512 512 512">
	<path fill="#000000" d="M277 -384Q238 -384 204.5 -365Q171 -346 150.5 -313.5Q130 -281 128 -242L87 -188Q83 -183 86 -177Q89 -171 96 -171H128V-107Q128 -89 140.5 -76.5Q153 -64 171 -64H192V0H341V-100Q380 -118 403.5 -154.5Q427 -191 427 -235Q427 -275 407 -309.5Q387 -344 352.5 -364Q318 -384 277 -384ZM299 -149H256V-192H299ZM336 -260Q327 -248 312 -240Q304 -235 301.5 -229.5Q299 -224 299 -213H256Q256 -230 262.5 -238.5Q269 -247 285 -258Q294 -263 298.5 -270.5Q303 -278 303 -288Q303 -298 297 -304Q291 -310 282 -310Q273 -310 267.5 -305Q262 -300 261 -290H220V-291Q220 -316 237 -328.5Q254 -341 282.5 -341Q311 -341 328 -326.5Q345 -312 345 -288Q345 -273 336 -260Z"/>
</svg>