<svg xmlns="http://www.w3.org/2000/svg" viewBox="0 -512 512 512">
	<path fill="#000000" d="M256 -427Q308 -427 352 -401Q396 -375 422 -331Q448 -287 448 -235V-85Q448 -66 437 -50L320 -167V-192H405V-235Q405 -275 385 -309.5Q365 -344 331 -364Q297 -384 256 -384Q225 -384 197 -372Q169 -360 148 -338L118 -369Q145 -396 180.5 -411.5Q216 -427 256 -427ZM59 -373L437 5L410 32L357 -21H320V-58L192 -186V-21H128Q101 -21 82.5 -40Q64 -59 64 -85V-235Q64 -270 76 -302L32 -346ZM110 -268Q107 -251 107 -235V-192H186Z"/>
</svg>