<svg xmlns="http://www.w3.org/2000/svg" viewBox="0 -512 512 512">
	<path fill="#000000" d="M277 -384Q238 -384 204.5 -365Q171 -346 150.5 -313.5Q130 -281 128 -242L87 -188Q83 -183 86 -177Q89 -171 96 -171H128V-107Q128 -89 140.5 -76.5Q153 -64 171 -64H192V0H341V-100Q380 -118 403.5 -154.5Q427 -191 427 -235Q427 -275 407 -309.5Q387 -344 352.5 -364Q318 -384 277 -384ZM364 -244L322 -233L353 -202Q358 -196 358 -188Q358 -180 352.5 -174.5Q347 -169 339 -169Q331 -169 326 -175L295 -205L284 -164Q282 -156 275 -152Q268 -148 260.5 -150Q253 -152 249 -159Q245 -166 247 -173L258 -215L216 -204Q208 -202 201.5 -206Q195 -210 193 -217.5Q191 -225 195 -232Q199 -239 206 -241L248 -252L217 -283Q212 -289 212 -296.5Q212 -304 217.5 -310Q223 -316 231 -316Q239 -316 244 -310L275 -279L287 -321Q288 -329 295 -333Q302 -337 309.5 -335Q317 -333 321 -326Q325 -319 323 -311L312 -269L354 -281Q362 -283 369 -279Q376 -275 378 -267Q380 -259 376 -252.5Q372 -246 364 -244Z"/>
</svg>