<svg xmlns="http://www.w3.org/2000/svg" viewBox="0 -512 512 512">
	<path fill="#000000" d="M32 -346L76 -302Q64 -270 64 -235V-21Q64 5 82.5 24Q101 43 128 43H256V0H107V-21H192V-186L320 -58V-21H357L410 32L437 5L59 -373ZM256 -427Q216 -427 180.5 -411.5Q145 -396 118 -369L148 -338Q169 -360 197 -372Q225 -384 256 -384Q297 -384 331 -364Q365 -344 385 -309.5Q405 -275 405 -235V-192H320V-167L437 -50Q448 -66 448 -85V-235Q448 -287 422 -331Q396 -375 352 -401Q308 -427 256 -427ZM107 -192V-235Q107 -251 110 -268L186 -192Z"/>
</svg>