<svg xmlns="http://www.w3.org/2000/svg" viewBox="0 -512 512 512">
	<path fill="#000000" d="M277 -384Q238 -384 204.5 -365Q171 -346 150.5 -313.5Q130 -281 128 -242L87 -188Q83 -183 86 -177Q89 -171 96 -171H128V-107Q128 -89 140.5 -76.5Q153 -64 171 -64H192V0H341V-100Q380 -118 403.5 -154.5Q427 -191 427 -235Q427 -275 407 -309.5Q387 -344 352.5 -364Q318 -384 277 -384ZM277 -128V-160Q242 -160 217 -185Q192 -210 192 -245Q192 -271 206 -292L230 -269Q224 -258 224 -245Q224 -223 239.5 -207.5Q255 -192 277 -192V-224L325 -176ZM348 -198L325 -221Q331 -233 331 -245Q331 -267 315 -283Q299 -299 277 -299V-267L229 -315L277 -363V-331Q313 -331 338 -306Q363 -281 363 -245Q363 -220 348 -198Z"/>
</svg>