<svg xmlns="http://www.w3.org/2000/svg" viewBox="0 -512 512 512">
	<path fill="#000000" d="M277 -384Q318 -384 352.5 -364Q387 -344 407 -309.5Q427 -275 427 -235Q427 -191 403.5 -154.5Q380 -118 341 -100V0H192V-64H171Q153 -64 140.5 -76.5Q128 -89 128 -107V-171H96Q89 -171 86 -177Q83 -183 87 -188L128 -242Q130 -281 150.5 -313.5Q171 -346 204.5 -365Q238 -384 277 -384ZM277 -427Q229 -427 187.5 -404.5Q146 -382 119 -343.5Q92 -305 87 -258L53 -213Q44 -202 42.5 -187Q41 -172 48 -158Q60 -134 85 -129V-107Q85 -77 103.5 -54Q122 -31 149 -24V43H384V-75Q424 -102 446.5 -144Q469 -186 469 -235Q469 -287 443.5 -331Q418 -375 373.5 -401Q329 -427 277 -427ZM343 -247V-256Q343 -261 342 -264L361 -278Q363 -279 363 -284L345 -313Q344 -315 342.5 -315.5Q341 -316 339 -315L318 -306Q313 -312 304 -315L301 -337Q300 -341 296 -341H262Q258 -341 258 -337L255 -315Q247 -312 241 -306L219 -315Q216 -317 214 -313L197 -284Q195 -279 198 -278L216 -264L215 -256L216 -247L198 -233Q195 -232 197 -228L214 -198Q215 -196 219 -196L240 -205Q247 -200 255 -197L258 -174Q258 -171 262 -171H296Q300 -171 301 -174L304 -197Q314 -201 318 -205L339 -196Q344 -196 345 -198L363 -228Q363 -232 361 -233ZM279 -225Q267 -225 258 -234Q249 -243 249 -256Q249 -269 258 -277.5Q267 -286 279.5 -286Q292 -286 301 -277.5Q310 -269 310 -256Q310 -243 301 -234Q292 -225 279 -225Z"/>
</svg>