<svg xmlns="http://www.w3.org/2000/svg" viewBox="0 -512 512 512">
	<path fill="#000000" d="M51 -411L24 -384L68 -340Q43 -308 43 -267Q43 -228 66 -189Q86 -155 129 -111Q156 -83 225 -21L256 7L339 -68L427 21L454 -6ZM258 -52L256 -50L254 -52Q190 -110 165 -135Q125 -175 106 -204Q85 -237 85 -267Q85 -291 98 -309L309 -99ZM177 -339L135 -381Q148 -384 160 -384Q188 -384 213 -372Q238 -360 256 -340Q274 -360 299 -372Q324 -384 352 -384Q384 -384 411 -368.5Q438 -353 453.5 -326Q469 -299 469 -267Q469 -231 449 -195Q432 -162 394 -122L364 -152Q395 -186 410 -212Q427 -241 427 -267Q427 -299 405.5 -320Q384 -341 352 -341Q330 -341 310 -329.5Q290 -318 280 -299H232Q224 -314 209.5 -324.5Q195 -335 177 -339Z"/>
</svg>