<svg xmlns="http://www.w3.org/2000/svg" viewBox="0 -512 512 512">
	<path fill="#000000" d="M352 -341Q328 -341 307.5 -328Q287 -315 277 -294V-70Q357 -142 386 -177Q427 -227 427 -267Q427 -299 405.5 -320Q384 -341 352 -341ZM352 -384Q384 -384 411 -368.5Q438 -353 453.5 -326Q469 -299 469 -267Q469 -228 446 -189Q426 -155 383 -111Q356 -83 287 -21L256 7L225 -21Q156 -83 129 -111Q86 -155 66 -189Q43 -228 43 -267Q43 -299 58.5 -326Q74 -353 101 -368.5Q128 -384 160 -384Q188 -384 213 -372Q238 -360 256 -340Q274 -360 299 -372Q324 -384 352 -384Z"/>
</svg>