<svg xmlns="http://www.w3.org/2000/svg" viewBox="0 -512 512 512">
	<path fill="#000000" d="M256 -405Q198 -405 149 -376.5Q100 -348 71.5 -299Q43 -250 43 -192Q43 -150 59 -110.5Q75 -71 105 -41Q135 -11 174.5 5Q214 21 256 21Q298 21 337.5 5Q377 -11 407 -41Q437 -71 453 -110.5Q469 -150 469 -192Q469 -234 453 -273.5Q437 -313 407 -343Q377 -373 337.5 -389Q298 -405 256 -405ZM208 -281Q222 -281 234.5 -275Q247 -269 256 -259Q265 -269 277.5 -275Q290 -281 304 -281Q329 -281 346 -264Q363 -247 363 -223Q363 -195 338 -165Q322 -145 272 -100L256 -85L240 -100Q190 -145 174 -165Q149 -195 149 -223Q149 -247 166 -264Q183 -281 208 -281Z"/>
</svg>