<svg xmlns="http://www.w3.org/2000/svg" viewBox="0 -512 512 512">
	<path fill="#000000" d="M258 -52L256 -50L254 -52Q190 -110 165 -135Q125 -175 106 -204Q85 -237 85 -267Q85 -299 106.5 -320Q128 -341 160 -341Q185 -341 206.5 -327Q228 -313 236 -291H276Q284 -313 305.5 -327Q327 -341 352 -341Q384 -341 405.5 -320Q427 -299 427 -267Q427 -237 406 -204Q387 -175 347 -135Q322 -110 258 -52ZM352 -384Q324 -384 299 -372Q274 -360 256 -340Q238 -360 213 -372Q188 -384 160 -384Q128 -384 101 -368.5Q74 -353 58.5 -326Q43 -299 43 -267Q43 -228 66 -189Q86 -155 129 -111Q156 -83 225 -21L256 7L287 -21Q356 -83 383 -111Q426 -155 446 -189Q469 -228 469 -267Q469 -299 453.5 -326Q438 -353 411 -368.5Q384 -384 352 -384Z"/>
</svg>