<svg xmlns="http://www.w3.org/2000/svg" viewBox="0 -512 512 512">
	<path fill="#000000" d="M412 -130Q427 -156 427 -181Q427 -221 399 -249Q371 -277 331 -277Q291 -277 263 -249Q235 -221 235 -181Q235 -141 263 -113Q291 -85 331 -85Q356 -85 382 -100L444 -38L474 -68ZM331 -128Q308 -128 292.5 -143.5Q277 -159 277 -181.5Q277 -204 292.5 -219.5Q308 -235 330.5 -235Q353 -235 368.5 -219.5Q384 -204 384 -181.5Q384 -159 368.5 -143.5Q353 -128 331 -128ZM314 -45Q309 -41 301 -33L288 -21L256 6L224 -21Q156 -83 129 -111Q85 -154 66 -189Q43 -228 43 -267Q43 -299 58.5 -326Q74 -353 100.5 -368.5Q127 -384 160 -384Q187 -384 212.5 -372Q238 -360 256 -339Q274 -360 299.5 -372Q325 -384 352 -384Q385 -384 411.5 -368.5Q438 -353 453.5 -326Q469 -299 469 -267Q469 -246 463 -224Q448 -266 412 -293Q376 -320 331 -320Q293 -320 261 -301.5Q229 -283 210.5 -251Q192 -219 192 -181Q192 -147 208 -117Q224 -87 252 -68Q280 -49 314 -45Z"/>
</svg>