<svg xmlns="http://www.w3.org/2000/svg" viewBox="0 -512 512 512">
	<path fill="#000000" d="M256 2L224 30Q139 -46 106 -79Q56 -128 35 -164Q11 -204 11 -243Q11 -279 32 -311V-299Q32 -251 59 -204Q83 -163 135 -110Q169 -76 256 2ZM290 -85Q294 -89 303 -97Q362 -151 385 -174Q422 -211 440 -239Q460 -271 461 -299Q461 -331 439.5 -352Q418 -373 386 -373Q361 -373 339 -359Q317 -345 309 -322H269Q259 -345 237.5 -359Q216 -373 192 -373Q160 -373 138.5 -352Q117 -331 117 -299Q117 -269 138 -236Q157 -207 197 -168Q222 -142 286 -85L288 -83ZM384 -416Q417 -416 443.5 -400.5Q470 -385 485.5 -358Q501 -331 501 -299Q501 -261 477 -221Q456 -186 406 -136Q374 -104 288 -26Q203 -101 170 -134Q120 -184 99 -220Q75 -260 75 -299Q75 -331 90.5 -358Q106 -385 132.5 -400.5Q159 -416 192 -416Q219 -416 244.5 -404Q270 -392 288 -371Q306 -392 331.5 -404Q357 -416 384 -416Z"/>
</svg>