<svg xmlns="http://www.w3.org/2000/svg" viewBox="0 -512 512 512">
	<path fill="#000000" d="M270 -6L256 7L225 -21Q156 -83 129 -111Q86 -155 66 -189Q43 -228 43 -267Q43 -299 58.5 -326Q74 -353 101 -368.5Q128 -384 160 -384Q188 -384 213 -372Q238 -360 256 -340Q274 -360 299 -372Q324 -384 352 -384Q384 -384 411 -368.5Q438 -353 453.5 -326Q469 -299 469 -267Q469 -224 440 -179Q419 -189 397 -191Q427 -232 427 -267Q427 -299 405.5 -320Q384 -341 352 -341Q327 -341 305.5 -327Q284 -313 276 -291H236Q228 -313 206.5 -327Q185 -341 160 -341Q128 -341 106.5 -320Q85 -299 85 -267Q85 -237 106 -204Q125 -175 165 -135Q190 -110 254 -52L256 -50L257 -51Q259 -27 270 -6ZM299 -85V-43H469V-85Z"/>
</svg>