<svg xmlns="http://www.w3.org/2000/svg" viewBox="0 -512 512 512">
	<path fill="#000000" d="M160 -363Q128 -363 101 -347Q74 -331 58.5 -304Q43 -277 43 -245Q43 -231 47 -213H134L161 -285Q165 -294 173 -297Q181 -300 189 -297Q197 -294 201 -285L245 -171L258 -201Q260 -206 265.5 -209.5Q271 -213 277 -213H465Q469 -231 469 -245Q469 -277 453.5 -304Q438 -331 411 -347Q384 -363 352 -363Q323 -363 297.5 -349.5Q272 -336 256 -313Q240 -336 214.5 -349.5Q189 -363 160 -363ZM64 -181Q55 -181 49 -175Q43 -169 43 -160Q43 -151 49 -145Q55 -139 64 -139H116L235 -21Q247 -11 251.5 -8.5Q256 -6 260.5 -8.5Q265 -11 277 -21L396 -139H448Q457 -139 463 -145Q469 -151 469 -160Q469 -169 463 -175Q457 -181 448 -181H286L266 -132Q262 -122 253.5 -118.5Q245 -115 237 -119Q229 -123 225 -132L181 -245L161 -196Q158 -189 153 -185Q148 -181 141 -181Z"/>
</svg>