<svg xmlns="http://www.w3.org/2000/svg" viewBox="0 -512 512 512">
	<path fill="#000000" d="M405 -384H107Q89 -384 76.5 -371.5Q64 -359 64 -341V-43Q64 -25 76.5 -12.5Q89 0 107 0H405Q423 0 435.5 -12.5Q448 -25 448 -43V-341Q448 -359 435.5 -371.5Q423 -384 405 -384ZM405 -43H107V-341H405ZM256 -64Q291 -64 320.5 -81Q350 -98 367 -127.5Q384 -157 384 -192Q384 -227 367 -256.5Q350 -286 320.5 -303Q291 -320 256 -320Q221 -320 191.5 -303Q162 -286 145 -256.5Q128 -227 128 -192Q128 -157 145 -127.5Q162 -98 191.5 -81Q221 -64 256 -64ZM240 -108Q223 -111 208 -122L240 -154ZM272 -108V-153L304 -121Q289 -111 272 -108ZM327 -144L295 -176H340Q337 -159 327 -144ZM340 -208H295L327 -240Q337 -225 340 -208ZM272 -276Q289 -273 304 -262L272 -230ZM256 -213Q265 -213 271 -207Q277 -201 277 -192Q277 -183 271 -177Q265 -171 256 -171Q247 -171 241 -177Q235 -183 235 -192Q235 -201 241 -207Q247 -213 256 -213ZM240 -276V-231L208 -263Q223 -273 240 -276ZM185 -240L217 -208H172Q175 -225 185 -240ZM217 -176L185 -144Q176 -158 172 -176Z"/>
</svg>