<svg xmlns="http://www.w3.org/2000/svg" viewBox="0 -512 512 512">
	<path fill="#000000" d="M405 -85Q429 -85 447 -100Q469 -117 469 -149Q469 -181 447 -199Q429 -213 405 -213H363V-256H405Q437 -256 455 -278Q469 -296 469 -320Q469 -352 447 -370Q429 -384 405 -384H363V-405H341V-384H171V-405H149V-384H43V-341H149V-299H107Q83 -299 65 -284Q43 -267 43 -235Q43 -203 65 -185Q83 -171 107 -171H149V-128H107Q83 -128 65 -114Q43 -96 43 -64Q43 -32 65 -14Q83 0 107 0H149V21H171V0H341V21H363V0H469V-43H363V-85ZM405 -171Q414 -171 420.5 -166Q427 -161 427 -149.5Q427 -138 420.5 -133Q414 -128 405 -128H363V-171ZM341 -213H171V-256H341ZM405 -341Q414 -341 420.5 -336.5Q427 -332 427 -320Q427 -311 422 -305Q417 -299 405 -299H363V-341ZM171 -341H341V-299H171ZM107 -213Q98 -213 91.5 -218Q85 -223 85 -234.5Q85 -246 91.5 -251Q98 -256 107 -256H149V-213ZM171 -171H341V-128H171ZM107 -43Q98 -43 91.5 -47.5Q85 -52 85 -64Q85 -76 91.5 -80.5Q98 -85 107 -85H149V-43ZM341 -43H171V-85H341Z"/>
</svg>