<svg xmlns="http://www.w3.org/2000/svg" viewBox="0 -512 512 512">
	<path fill="#000000" d="M64 -384H363V-341H64ZM491 -320V-224L315 -188Q320 -174 320 -160Q320 -138 308.5 -120Q297 -102 277 -93V-43H341V0H85Q59 0 40 -18.5Q21 -37 21 -64V-85H64V-64Q64 -55 70 -49Q76 -43 85 -43H107V-91Q78 -101 60.5 -125.5Q43 -150 43 -181Q43 -221 71 -249Q99 -277 139 -277H192V-320H235V-277H448V-320ZM235 -43V-85H149V-43ZM160 -235Q138 -235 122.5 -222.5Q107 -210 107 -192Q107 -174 122.5 -161.5Q138 -149 160 -149Q182 -149 197.5 -161.5Q213 -174 213 -192Q213 -210 197.5 -222.5Q182 -235 160 -235Z"/>
</svg>