<svg xmlns="http://www.w3.org/2000/svg" viewBox="0 -512 512 512">
	<path fill="#000000" d="M235 -64H277V-107H235ZM256 -320Q221 -320 196 -295Q171 -270 171 -235H213Q213 -252 225.5 -264.5Q238 -277 256 -277Q274 -277 286.5 -264.5Q299 -252 299 -235Q299 -222 291 -212Q286 -206 272 -195Q254 -181 247 -171Q235 -153 235 -128H277Q277 -143 287 -156Q292 -164 308 -178Q324 -192 331 -201Q341 -216 341 -235Q341 -270 316 -295Q291 -320 256 -320ZM405 -341V-43H107V-341ZM405 -384H107Q89 -384 76.5 -371.5Q64 -359 64 -341V-43Q64 -25 76.5 -12.5Q89 0 107 0H405Q423 0 435.5 -12.5Q448 -25 448 -43V-341Q448 -359 435.5 -371.5Q423 -384 405 -384Z"/>
</svg>