<svg xmlns="http://www.w3.org/2000/svg" viewBox="0 -512 512 512">
	<path fill="#000000" d="M235 -64H277V-107H235ZM256 -320Q221 -320 196 -295Q171 -270 171 -235H213Q213 -252 225.5 -264.5Q238 -277 256 -277Q274 -277 286.5 -264.5Q299 -252 299 -235Q299 -222 291 -212Q286 -206 272 -196Q254 -182 247 -171Q235 -154 235 -128H277Q277 -144 287 -157Q293 -165 309 -179Q325 -193 331 -202Q341 -216 341 -235Q341 -270 316 -295Q291 -320 256 -320ZM107 -384H405Q423 -384 435.5 -371.5Q448 -359 448 -341V-43Q448 -25 435.5 -12.5Q423 0 405 0H107Q89 0 76.5 -12.5Q64 -25 64 -43V-341Q64 -359 76.5 -371.5Q89 -384 107 -384Z"/>
</svg>