<svg xmlns="http://www.w3.org/2000/svg" viewBox="0 -512 512 512">
	<path fill="#000000" d="M427 -107V-363H171V-107ZM469 -107Q469 -89 456.5 -76.5Q444 -64 427 -64H171Q153 -64 140.5 -76.5Q128 -89 128 -107V-363Q128 -380 140.5 -392.5Q153 -405 171 -405H427Q444 -405 456.5 -392.5Q469 -380 469 -363ZM341 -21V21H85Q68 21 55.5 8.5Q43 -4 43 -21V-299H85V-21ZM303 -341Q274 -341 257.5 -328Q241 -315 241 -290H282Q282 -299 288 -305Q297 -309 303 -309Q314 -309 320 -303Q326 -297 326 -287Q326 -277 322 -269Q321 -266 314 -260L309 -256Q291 -245 288 -237Q277 -231 277 -213H320Q320 -226 322 -228Q326 -235 333 -239Q347 -246 356 -258Q367 -276 367 -288Q367 -313 350 -326Q335 -341 303 -341ZM277 -192V-149H320V-192Z"/>
</svg>