<svg xmlns="http://www.w3.org/2000/svg" viewBox="0 -512 512 512">
	<path fill="#000000" d="M320 -21Q320 -30 314 -36.5Q308 -43 299 -43H277V-85H363Q380 -85 392.5 -97.5Q405 -110 405 -128V-341Q405 -359 392.5 -371.5Q380 -384 363 -384H149Q132 -384 119.5 -371.5Q107 -359 107 -341V-128Q107 -110 119.5 -97.5Q132 -85 149 -85H235V-43H213Q204 -43 198 -36.5Q192 -30 192 -21H43V21H192Q192 30 198 36.5Q204 43 213 43H299Q308 43 314 36.5Q320 30 320 21H469V-21ZM149 -128V-341H363V-128ZM255 -320Q231 -320 215 -309Q200 -297 200 -275H201H237Q237 -283 242 -287.5Q247 -292 255.5 -292Q264 -292 269 -286.5Q274 -281 274 -272Q274 -263 269.5 -257Q265 -251 258 -245Q244 -237 238 -229Q232 -221 232 -206H270Q270 -215 272.5 -220.5Q275 -226 282 -230Q296 -237 304 -248Q312 -259 312 -273Q312 -295 296.5 -307.5Q281 -320 255 -320ZM232 -187V-149H270V-187Z"/>
</svg>