<svg xmlns="http://www.w3.org/2000/svg" viewBox="0 -512 512 512">
	<path fill="#000000" d="M321 -208L302 -188Q289 -175 284 -164Q277 -150 277 -128H235V-139Q235 -174 260 -199L286 -226Q299 -238 299 -256Q299 -274 286.5 -286.5Q274 -299 256 -299Q238 -299 225.5 -286.5Q213 -274 213 -256H171Q171 -291 196 -316Q221 -341 256 -341Q291 -341 316 -316Q341 -291 341 -256Q341 -228 321 -208ZM277 -43H235V-85H277ZM256 -405Q214 -405 174.5 -389Q135 -373 105 -343Q75 -313 59 -273.5Q43 -234 43 -192Q43 -150 59 -110.5Q75 -71 105 -41Q135 -11 174.5 5Q214 21 256 21Q298 21 337.5 5Q377 -11 407 -41Q437 -71 453 -110.5Q469 -150 469 -192Q469 -250 440.5 -299Q412 -348 363 -376.5Q314 -405 256 -405Z"/>
</svg>