<svg xmlns="http://www.w3.org/2000/svg" viewBox="0 -512 512 512">
	<path fill="#000000" d="M363 -384Q380 -384 392.5 -371.5Q405 -359 405 -341V-128Q405 -110 392.5 -97.5Q380 -85 363 -85H277V-43H299Q308 -43 314 -36.5Q320 -30 320 -21H469V21H320Q320 30 314 36.5Q308 43 299 43H213Q204 43 198 36.5Q192 30 192 21H43V-21H192Q192 -30 198 -36.5Q204 -43 213 -43H235V-85H149Q132 -85 119.5 -97.5Q107 -110 107 -128V-341Q107 -359 119.5 -371.5Q132 -384 149 -384ZM260 -341Q232 -341 215 -328.5Q198 -316 199 -291V-290H240Q240 -300 246 -305Q252 -310 261 -310Q270 -310 276 -304Q282 -298 282 -288Q282 -278 277 -270.5Q272 -263 264 -258Q247 -247 241 -238.5Q235 -230 235 -213H277Q277 -224 280 -229.5Q283 -235 291 -240Q306 -248 315 -260.5Q324 -273 324 -288Q324 -312 307 -326.5Q290 -341 260 -341ZM235 -192V-149H277V-192Z"/>
</svg>