<svg xmlns="http://www.w3.org/2000/svg" viewBox="0 -512 512 512">
	<path fill="#000000" d="M341 -21V21H85Q68 21 55.5 8.5Q43 -4 43 -21V-299H85V-21ZM427 -405H171Q153 -405 140.5 -392.5Q128 -380 128 -363V-107Q128 -89 140.5 -76.5Q153 -64 171 -64H427Q444 -64 456.5 -76.5Q469 -89 469 -107V-363Q469 -380 456.5 -392.5Q444 -405 427 -405ZM320 -149H277V-192H320ZM358 -260Q349 -248 335 -241L330 -237Q326 -233 324 -230Q320 -226 320 -213H277Q277 -229 284 -239.5Q291 -250 305 -258Q315 -265 318 -271Q322 -275 322 -287Q322 -299 315.5 -305Q309 -311 299 -311Q292 -311 284 -307Q277 -301 277 -292H237Q237 -319 254 -331Q279 -341 303 -341Q335 -341 350 -326Q367 -309 367 -288Q367 -277 358 -260Z"/>
</svg>