<svg xmlns="http://www.w3.org/2000/svg" viewBox="0 -512 512 512">
	<path fill="#000000" d="M373 -263H405V43H373V-179Q348 -184 325 -198Q302 -212 286 -230L272 -165L320 -118V43H277V-85L230 -132L190 43H144L211 -297Q215 -313 226.5 -321Q238 -329 250 -329Q262 -329 272.5 -323Q283 -317 290 -307L312 -272Q322 -255 337.5 -243Q353 -231 373 -224ZM182 -322L158 -327Q140 -332 125 -321.5Q110 -311 107 -293L89 -208Q88 -198 93 -191Q98 -184 107 -182L154 -173ZM277 -427Q260 -427 247.5 -414.5Q235 -402 235 -384Q235 -366 247.5 -353.5Q260 -341 277.5 -341Q295 -341 307.5 -353.5Q320 -366 320 -384Q320 -402 307.5 -414.5Q295 -427 277 -427Z"/>
</svg>