<svg xmlns="http://www.w3.org/2000/svg" viewBox="0 -512 512 512">
	<path fill="#000000" d="M288 -277H256V-171L347 -116L363 -142L288 -187ZM277 -384Q225 -384 181 -358Q137 -332 111 -288Q85 -244 85 -192H21L106 -106L192 -192H128Q128 -233 148 -267Q168 -301 202.5 -321Q237 -341 277 -341Q307 -341 334.5 -330Q362 -319 383 -298Q404 -277 415.5 -249.5Q427 -222 427 -192Q427 -151 406.5 -117Q386 -83 352 -63Q318 -43 277 -43Q247 -43 220 -54.5Q193 -66 172 -87L142 -56Q168 -30 203 -15Q238 0 277 0Q329 0 373.5 -26Q418 -52 443.5 -96Q469 -140 469 -192Q469 -244 443.5 -288Q418 -332 373.5 -358Q329 -384 277 -384Z"/>
</svg>