<svg xmlns="http://www.w3.org/2000/svg" viewBox="0 -512 512 512">
	<path fill="#000000" d="M256 -341Q198 -341 149 -331Q100 -321 71.5 -304Q43 -287 43 -266.5Q43 -246 71.5 -229Q100 -212 149 -202Q198 -192 256 -192Q314 -192 363 -202Q412 -212 440.5 -229Q469 -246 469 -266.5Q469 -287 440.5 -304Q412 -321 363 -331Q314 -341 256 -341ZM43 -197V-96Q43 -76 71.5 -58.5Q100 -41 149 -31Q198 -21 256 -21Q314 -21 363 -31Q412 -41 440.5 -58.5Q469 -76 469 -96V-197Q449 -183 421 -174Q352 -149 256 -149Q160 -149 91 -174Q63 -183 43 -197Z"/>
</svg>