<svg xmlns="http://www.w3.org/2000/svg" viewBox="0 -512 512 512">
	<path fill="#000000" d="M51 -298Q52 -340 80.5 -368Q109 -396 149 -396V-427Q113 -427 83 -410Q53 -393 36.5 -363.5Q20 -334 21 -298ZM149 -333V-363Q121 -362 102.5 -344Q84 -326 84 -298H115Q117 -312 126.5 -321.5Q136 -331 149 -333ZM363 -396Q403 -396 431.5 -368Q460 -340 461 -298H491Q492 -334 475.5 -363.5Q459 -393 429 -410Q399 -427 363 -427ZM363 -363V-333Q376 -331 385.5 -321.5Q395 -312 397 -298H428Q428 -326 409.5 -344Q391 -362 363 -363ZM405 -21V-192H469L256 -384L43 -192H107V-21ZM256 -326L363 -230V-64H149V-230Z"/>
</svg>