<svg xmlns="http://www.w3.org/2000/svg" viewBox="0 -512 512 512">
	<path fill="#000000" d="M405 -277Q423 -277 435.5 -264.5Q448 -252 448 -235V-90Q469 -71 469 -43.5Q469 -16 450.5 2.5Q432 21 405.5 21Q379 21 360 2.5Q341 -16 341 -43.5Q341 -71 363 -90V-235Q363 -252 375.5 -264.5Q388 -277 405 -277ZM405 -256Q397 -256 390.5 -249.5Q384 -243 384 -235V-213H427V-235Q427 -243 420.5 -249.5Q414 -256 405 -256ZM107 -21V-192H43L256 -384L350 -300Q336 -288 328 -271Q320 -254 320 -235V-107Q299 -79 299 -43L301 -21Z"/>
</svg>