<svg xmlns="http://www.w3.org/2000/svg" viewBox="0 -512 512 512">
	<path fill="#000000" d="M331 -213L309 -235L181 -107L203 -85ZM227 -227Q219 -235 208 -235Q197 -235 189 -227Q181 -219 181 -208Q181 -197 189 -189Q197 -181 208 -181Q219 -181 227 -189Q235 -197 235 -208Q235 -219 227 -227ZM323 -131Q315 -139 304 -139Q293 -139 285 -131Q277 -123 277 -112Q277 -101 285 -93Q293 -85 304 -85Q315 -85 323 -93Q331 -101 331 -112Q331 -123 323 -131ZM405 -192V-21H107V-192H43L256 -384L469 -192ZM363 -230L256 -326L149 -230V-64H363Z"/>
</svg>