<svg xmlns="http://www.w3.org/2000/svg" viewBox="0 -512 512 512">
	<path fill="#000000" d="M465 -171H427V0H277V-71L337 -131L352 -128Q371 -128 384 -141Q397 -154 397 -172.5Q397 -191 384 -204.5Q371 -218 352 -218Q333 -218 320 -204.5Q307 -191 307 -173L309 -158L277 -125V-242Q288 -248 294.5 -258.5Q301 -269 301 -282Q301 -300 288 -313Q275 -326 256 -326Q237 -326 224 -313Q211 -300 211 -282Q211 -269 217.5 -258.5Q224 -248 235 -242V-125L203 -158L205 -173Q205 -191 192 -204.5Q179 -218 160 -218Q141 -218 128 -204.5Q115 -191 115 -172.5Q115 -154 128 -141Q141 -128 160 -128L175 -131L235 -71V0H85V-171H48Q39 -171 36 -171Q30 -172 30.5 -176Q31 -180 49 -198L235 -384Q242 -391 245 -394Q251 -398 256 -398Q261 -398 267 -394Q270 -391 277 -384L363 -299V-320H405V-256L465 -197Q482 -179 482 -175.5Q482 -172 478 -171.5Q474 -171 465 -171ZM160 -192Q168 -192 173.5 -186.5Q179 -181 179 -173Q179 -165 173.5 -159.5Q168 -154 160 -154Q152 -154 146.5 -159.5Q141 -165 141 -173Q141 -181 146.5 -186.5Q152 -192 160 -192ZM352 -192Q360 -192 365.5 -186.5Q371 -181 371 -173Q371 -165 365.5 -159.5Q360 -154 352 -154Q344 -154 338.5 -159.5Q333 -165 333 -173Q333 -181 338.5 -186.5Q344 -192 352 -192ZM256 -301Q264 -301 269.5 -295.5Q275 -290 275 -282Q275 -274 269.5 -268Q264 -262 256 -262Q248 -262 242.5 -268Q237 -274 237 -282Q237 -290 242.5 -295.5Q248 -301 256 -301Z"/>
</svg>