<svg xmlns="http://www.w3.org/2000/svg" viewBox="0 -512 512 512">
	<path fill="#000000" d="M352 -101L413 -65L397 -39L320 -85V-192H352ZM491 -107Q491 -66 471 -31.5Q451 3 416.5 23Q382 43 341 43Q304 43 272 25.5Q240 8 219 -21H85V-192H21L235 -384L384 -250Q431 -236 461 -196.5Q491 -157 491 -107ZM198 -64Q192 -86 192 -107Q192 -162 227.5 -203Q263 -244 316 -254L235 -327L128 -231V-64ZM448 -107Q448 -136 433.5 -160.5Q419 -185 394.5 -199Q370 -213 341 -213Q312 -213 287.5 -199Q263 -185 249 -160.5Q235 -136 235 -107Q235 -78 249 -53.5Q263 -29 287.5 -14.5Q312 0 341 0Q370 0 394.5 -14.5Q419 -29 433.5 -53.5Q448 -78 448 -107Z"/>
</svg>