<svg xmlns="http://www.w3.org/2000/svg" viewBox="0 -512 512 512">
	<path fill="#000000" d="M398 -43Q383 -43 371 -39Q364 -36 354 -30Q346 -26 342 -24Q335 -21 327.5 -21Q320 -21 313 -24Q309 -26 301 -30Q290 -36 283 -39Q271 -43 256 -43Q241 -43 229 -39Q222 -36 212 -30Q204 -26 200 -24Q193 -21 185 -21Q177 -21 170 -24Q166 -26 158 -30Q148 -36 141 -39Q129 -43 114 -43Q99 -43 87 -39Q80 -36 70 -30Q62 -26 58 -24Q51 -21 43 -21V21Q58 21 70 17Q77 15 87 9Q95 4 99 3Q106 0 114 0Q122 0 129 3Q133 4 141 9Q151 15 158 17Q170 21 185 21Q200 21 212 17Q219 15 229 9Q237 4 241 3Q248 0 256 0Q264 0 271 3Q275 4 283 9Q293 15 300 17Q312 21 327 21Q342 21 354 17Q361 15 371 9Q379 4 384 3Q390 0 398 0Q406 0 413 3Q417 4 425 9Q435 15 442 17Q454 21 469 21V-21Q461 -21 455 -24Q450 -26 443 -30Q432 -36 425 -39Q414 -43 398 -43ZM185 -75Q201 -75 212 -79Q219 -81 229 -87Q237 -92 241 -93Q248 -96 256 -96Q264 -96 271 -93Q275 -92 283 -87Q293 -81 300 -79Q312 -75 327.5 -75Q343 -75 354 -79Q361 -81 372 -87Q379 -92 383 -93Q390 -96 398 -96Q406 -96 413 -93Q417 -92 425 -87Q435 -81 442 -79Q454 -75 469 -75V-117Q462 -117 455 -120Q451 -122 443 -126L437 -129L395 -290L439 -272L455 -311L209 -405L43 -200L76 -174L106 -212L126 -138Q122 -139 114 -139Q98 -139 87 -135Q80 -132 69 -126Q62 -122 57 -120Q51 -117 43 -117V-75Q58 -75 70 -79Q77 -81 88 -87Q95 -92 100 -93Q107 -96 114.5 -96Q122 -96 129 -93Q133 -92 141 -87Q151 -81 158 -79Q170 -75 185 -75ZM300 -231L330 -117Q321 -117 313 -120Q309 -121 300 -126Q290 -132 283 -135Q271 -139 256 -139Q246 -139 236 -137L217 -209Z"/>
</svg>