<svg xmlns="http://www.w3.org/2000/svg" viewBox="0 -512 512 512">
	<path fill="#000000" d="M256 -384L43 -192H107V-21H405V-192H469ZM256 -267Q293 -267 326 -253Q359 -239 384 -215L358 -189Q339 -209 312.5 -220Q286 -231 256 -231Q226 -231 199.5 -220Q173 -209 154 -189L128 -215Q153 -239 186 -253Q219 -267 256 -267ZM256 -196Q278 -196 298 -187.5Q318 -179 333 -164L307 -139Q286 -160 256 -160Q226 -160 205 -139L179 -164Q194 -179 214 -187.5Q234 -196 256 -196ZM256 -124Q271 -124 281.5 -114Q292 -104 292 -89Q292 -74 281.5 -63.5Q271 -53 256 -53Q241 -53 230.5 -63.5Q220 -74 220 -89Q220 -104 230.5 -114Q241 -124 256 -124Z"/>
</svg>