<svg xmlns="http://www.w3.org/2000/svg" viewBox="0 -512 512 512">
	<path fill="#000000" d="M140 -405Q139 -363 111 -335Q83 -307 42 -307V-277Q79 -276 109 -293Q139 -310 155.5 -340Q172 -370 171 -405ZM42 -371V-340Q71 -342 89 -360Q107 -378 107 -405H77Q75 -392 65.5 -382.5Q56 -373 42 -371ZM470 -307Q429 -307 401 -335Q373 -363 372 -405H341Q340 -370 356.5 -340Q373 -310 403 -293Q433 -276 470 -277ZM470 -340V-371Q456 -373 446.5 -382.5Q437 -392 435 -405H405Q405 -378 423 -360Q441 -342 470 -340ZM405 -21V-192H469L256 -384L43 -192H107V-21ZM256 -326L363 -230V-64H149V-230Z"/>
</svg>