<svg xmlns="http://www.w3.org/2000/svg" viewBox="0 -512 512 512">
	<path fill="#000000" d="M412 -45Q427 -68 427 -96Q427 -136 399 -164Q371 -192 331 -192Q291 -192 263 -164Q235 -136 235 -96Q235 -56 263 -28Q291 0 331 0Q358 0 381 -15L448 51L478 21ZM331 -43Q309 -43 293 -58.5Q277 -74 277 -96Q277 -118 293 -133.5Q309 -149 331 -149Q353 -149 368.5 -133.5Q384 -118 384 -96Q384 -74 368.5 -58.5Q353 -43 331 -43ZM107 -21V-192H43L256 -384L469 -192H431Q411 -212 385.5 -223.5Q360 -235 331 -235Q293 -235 261 -216Q229 -197 210.5 -165.5Q192 -134 192 -96Q192 -55 214 -21Z"/>
</svg>