<svg xmlns="http://www.w3.org/2000/svg" viewBox="0 -512 512 512">
	<path fill="#000000" d="M277 -238V-209L320 -167V-238Q354 -246 372 -276.5Q390 -307 381 -341.5Q372 -376 342 -394Q312 -412 277.5 -403Q243 -394 225 -363.5Q207 -333 216 -299Q222 -276 238.5 -259.5Q255 -243 277 -238ZM299 -363Q316 -363 328.5 -350.5Q341 -338 341 -320Q341 -302 328.5 -289.5Q316 -277 298.5 -277Q281 -277 268.5 -289.5Q256 -302 256 -320Q256 -338 268.5 -350.5Q281 -363 299 -363ZM400 21L317 -61Q310 -33 290.5 -12.5Q271 8 243.5 16Q216 24 188 17Q153 9 130 -20Q107 -49 107 -85V-192L213 -85H149Q149 -59 168 -40Q187 -21 213.5 -21Q240 -21 258.5 -40Q277 -59 277 -85V-101L43 -336L70 -363L427 -6Z"/>
</svg>