<svg xmlns="http://www.w3.org/2000/svg" viewBox="0 -512 512 512">
	<path fill="#000000" d="M384 -320Q384 -291 366 -268Q348 -245 320 -238V-85Q320 -64 312 -44.5Q304 -25 289 -10Q274 5 254.5 13Q235 21 213 21Q184 21 159.5 7Q135 -7 121 -31.5Q107 -56 107 -85V-192L213 -85H149Q149 -59 168 -40Q187 -21 213.5 -21Q240 -21 258.5 -40Q277 -59 277 -85V-238Q249 -245 231 -268Q213 -291 213 -321Q213 -356 238 -380.5Q263 -405 298.5 -405Q334 -405 359 -380Q384 -355 384 -320ZM299 -277Q316 -277 328.5 -289.5Q341 -302 341 -320Q341 -338 328.5 -350.5Q316 -363 298.5 -363Q281 -363 268.5 -350.5Q256 -338 256 -320Q256 -302 268.5 -289.5Q281 -277 299 -277Z"/>
</svg>