<svg xmlns="http://www.w3.org/2000/svg" viewBox="0 -512 512 512">
	<path fill="#000000" d="M256 -235H194Q199 -291 216.5 -327Q234 -363 256 -363Q278 -363 295.5 -327Q313 -291 318 -235H361Q356 -283 341 -322Q326 -361 303.5 -383Q281 -405 256 -405Q231 -405 208.5 -383Q186 -361 171 -322Q156 -283 151 -235H85L171 -149ZM256 -21Q236 -21 219.5 -51.5Q203 -82 196 -130L171 -104L156 -119Q167 -57 194.5 -18Q222 21 256 21Q281 21 303.5 -1Q326 -23 341 -62Q356 -101 361 -149H318Q313 -93 295.5 -57Q278 -21 256 -21ZM469 -213H277L235 -171H469ZM43 -171H107L64 -213H43Z"/>
</svg>