<svg xmlns="http://www.w3.org/2000/svg" viewBox="0 -512 512 512">
	<path fill="#000000" d="M256 -149L171 -235L85 -149H151Q156 -101 171 -62Q186 -23 208.5 -1Q231 21 256 21Q281 21 303.5 -1Q326 -23 341 -62Q356 -101 361 -149H318Q313 -93 295.5 -57Q278 -21 256 -21Q234 -21 216.5 -57Q199 -93 194 -149ZM256 -363Q278 -363 295.5 -327Q313 -291 318 -235H361Q356 -283 341 -322Q326 -361 303.5 -383Q281 -405 256 -405Q222 -405 194.5 -366Q167 -327 156 -265L171 -280L196 -254Q203 -302 219.5 -332.5Q236 -363 256 -363ZM469 -171V-213H235L277 -171ZM43 -171H64L107 -213H43Z"/>
</svg>