<svg xmlns="http://www.w3.org/2000/svg" viewBox="0 -512 512 512">
	<path fill="#000000" d="M213 -373Q213 -387 222.5 -396Q232 -405 245.5 -405Q259 -405 268 -396Q277 -387 277 -373.5Q277 -360 268 -350.5Q259 -341 245.5 -341Q232 -341 222.5 -350.5Q213 -360 213 -373ZM469 -277V-203L447 -195Q445 -176 430 -162.5Q415 -149 395 -149H393Q389 -128 373 -111V21H320V-85H315Q310 -85 301 -87L207 -102L183 -60L199 21H145L128 -59Q127 -70 131 -77L153 -116Q137 -125 127.5 -140.5Q118 -156 117 -175Q116 -169 117 -160V-153Q119 -133 118.5 -121.5Q118 -110 113 -99Q108 -88 101 -80Q89 -66 71 -57L57 -71L58 -75Q65 -92 65 -99Q67 -109 63 -119L52 -143Q41 -168 43 -188Q43 -203 51 -218.5Q59 -234 72 -243Q99 -261 129 -254Q145 -251 160 -240Q172 -245 187 -245H192V-275Q192 -291 202 -304Q212 -317 227 -319Q247 -323 262 -310Q277 -297 277 -277V-245H309V-256Q309 -291 334 -316Q359 -341 395 -341H469L450 -313Q459 -307 464 -297.5Q469 -288 469 -277ZM427 -209L404 -244Q402 -248 398.5 -247Q395 -246 395 -242V-171Q408 -171 417.5 -180Q427 -189 427 -203Z"/>
</svg>