<svg xmlns="http://www.w3.org/2000/svg" viewBox="0 -512 512 512">
	<path fill="#000000" d="M405 -363H427V-427H341V-363L352 -337Q365 -306 373 -274Q384 -230 384 -192Q384 -125 352 -85Q318 -43 256 -43Q194 -43 160 -85Q128 -125 128 -192Q128 -230 139 -274Q147 -306 160 -337L171 -363V-427H85V-363H107L97 -347Q85 -327 75 -304Q61 -271 53 -237Q43 -193 43 -149Q43 -98 74 -52Q104 -9 153.5 17Q203 43 256 43Q309 43 358.5 17Q408 -9 438 -52Q469 -98 469 -149Q469 -229 437 -304Q421 -341 405 -363ZM85 -171Q76 -171 70 -176.5Q64 -182 64 -192Q64 -202 70 -207.5Q76 -213 85.5 -213Q95 -213 101 -207.5Q107 -202 107 -192Q107 -182 101 -176.5Q95 -171 85 -171ZM128 -43Q118 -43 112.5 -48.5Q107 -54 107 -64Q107 -74 112.5 -79.5Q118 -85 128 -85Q138 -85 143.5 -79.5Q149 -74 149 -64Q149 -54 143.5 -48.5Q138 -43 128 -43ZM256 21Q246 21 240.5 15.5Q235 10 235 0Q235 -10 240.5 -15.5Q246 -21 256 -21Q266 -21 271.5 -15.5Q277 -10 277 0Q277 10 271.5 15.5Q266 21 256 21ZM384 -43Q374 -43 368.5 -48.5Q363 -54 363 -64Q363 -74 368.5 -79.5Q374 -85 384 -85Q394 -85 399.5 -79.5Q405 -74 405 -64Q405 -54 399.5 -48.5Q394 -43 384 -43ZM427 -171Q417 -171 411 -176.5Q405 -182 405 -192Q405 -202 411 -207.5Q417 -213 426.5 -213Q436 -213 442 -207.5Q448 -202 448 -192Q448 -182 442 -176.5Q436 -171 427 -171Z"/>
</svg>