<svg xmlns="http://www.w3.org/2000/svg" viewBox="0 -512 512 512">
	<path fill="#000000" d="M277 -405V-363Q320 -357 354 -333.5Q388 -310 407.5 -273.5Q427 -237 427 -194Q427 -144 399.5 -101.5Q372 -59 326 -38L277 -85V21H384L358 -4Q409 -32 439 -82Q469 -132 469 -192Q469 -246 443.5 -293Q418 -340 374 -370Q330 -400 277 -405ZM235 -405Q204 -402 175 -390Q146 -378 122 -358L151 -329Q190 -356 235 -363ZM90 -326Q70 -302 58 -273Q46 -244 43 -213H85Q92 -258 119 -297ZM43 -171Q46 -140 58 -111Q70 -82 90 -58L119 -87Q92 -126 85 -171ZM151 -55L122 -26Q146 -6 175 6Q204 18 235 21V-21Q190 -28 151 -55ZM256 -277V-235H320V-213H299Q281 -213 268.5 -200.5Q256 -188 256 -171V-107H363V-149H299V-171H320Q338 -171 350.5 -183.5Q363 -196 363 -213V-235Q363 -252 350.5 -264.5Q338 -277 320 -277ZM149 -277V-235H171V-107H213V-277Z"/>
</svg>