<svg xmlns="http://www.w3.org/2000/svg" viewBox="0 -512 512 512">
	<path fill="#000000" d="M277 -404V-361Q319 -356 353 -332Q387 -308 407 -271.5Q427 -235 427 -192Q427 -141 399 -99Q371 -57 326 -37L277 -85V21H384L358 -5Q409 -32 439 -82.5Q469 -133 469 -192Q469 -246 443.5 -293Q418 -340 374.5 -369.5Q331 -399 277 -404ZM235 -405Q171 -399 121 -358L151 -328Q188 -356 235 -363ZM90 -327Q49 -277 43 -213H85Q92 -260 120 -297ZM128 -277V-235H192V-213H171Q153 -213 140.5 -200.5Q128 -188 128 -171V-107H235V-149H171V-171H192Q210 -171 222.5 -183.5Q235 -196 235 -213V-235Q235 -252 222.5 -264.5Q210 -277 192 -277ZM256 -277V-171H320V-107H363V-171H384V-213H363V-277H320V-213H299V-277ZM43 -171Q49 -107 90 -57L120 -87Q92 -124 85 -171ZM152 -56L121 -26Q171 15 235 21V-21Q188 -28 152 -56Z"/>
</svg>