<svg xmlns="http://www.w3.org/2000/svg" viewBox="0 -512 512 512">
	<path fill="#000000" d="M448 -309Q421 -309 402.5 -291Q384 -273 384 -245V-241L341 -226Q332 -246 313.5 -259Q295 -272 273 -275V-322Q293 -327 306.5 -344.5Q320 -362 320 -384Q320 -411 301.5 -429.5Q283 -448 256 -448Q229 -448 210.5 -429.5Q192 -411 192 -384Q192 -362 205.5 -344.5Q219 -327 239 -322V-275Q218 -272 200 -259Q182 -246 171 -226L128 -241V-245Q128 -273 109.5 -291Q91 -309 64 -309Q37 -309 18.5 -291Q0 -273 0 -245.5Q0 -218 18.5 -199.5Q37 -181 64 -181Q81 -181 95 -189.5Q109 -198 117 -211L160 -196Q157 -175 163 -154Q169 -133 183 -117L154 -79Q141 -85 128 -85Q101 -85 82.5 -67Q64 -49 64 -21.5Q64 6 82.5 24.5Q101 43 128 43Q155 43 173.5 24.5Q192 6 192 -21Q192 -44 179 -60L209 -98Q231 -85 256 -85Q281 -85 303 -98L333 -60Q320 -44 320 -21Q320 6 338.5 24.5Q357 43 384 43Q411 43 429.5 24.5Q448 6 448 -21.5Q448 -49 429.5 -67Q411 -85 384 -85Q368 -85 358 -79L329 -117Q343 -133 349 -154Q355 -175 352 -196L395 -211Q403 -198 417.5 -189.5Q432 -181 448 -181Q475 -181 493.5 -199.5Q512 -218 512 -245.5Q512 -273 493.5 -291Q475 -309 448 -309ZM64 -224Q56 -224 49.5 -230Q43 -236 43 -245.5Q43 -255 49.5 -261Q56 -267 64 -267Q72 -267 78.5 -261Q85 -255 85 -245.5Q85 -236 78.5 -230Q72 -224 64 -224ZM128 0Q119 0 113 -6.5Q107 -13 107 -21.5Q107 -30 113 -36.5Q119 -43 128 -43Q137 -43 143 -36.5Q149 -30 149 -21.5Q149 -13 143 -6.5Q137 0 128 0ZM235 -384Q235 -392 241 -398.5Q247 -405 256 -405Q265 -405 271 -398.5Q277 -392 277 -384Q277 -376 271 -369.5Q265 -363 256 -363Q247 -363 241 -369.5Q235 -376 235 -384ZM256 -128Q234 -128 218.5 -143.5Q203 -159 203 -181.5Q203 -204 218.5 -219.5Q234 -235 256 -235Q278 -235 293.5 -219.5Q309 -204 309 -181.5Q309 -159 293.5 -143.5Q278 -128 256 -128ZM384 -43Q392 -43 398.5 -36Q405 -29 405 -21Q405 -13 398.5 -6.5Q392 0 384 0Q376 0 369.5 -6.5Q363 -13 363 -21Q363 -29 369.5 -36Q376 -43 384 -43ZM448 -224Q440 -224 433.5 -230Q427 -236 427 -245.5Q427 -255 433.5 -261Q440 -267 448 -267Q456 -267 462.5 -261Q469 -255 469 -245.5Q469 -236 462.5 -230Q456 -224 448 -224Z"/>
</svg>