<svg xmlns="http://www.w3.org/2000/svg" viewBox="0 -512 512 512">
	<path fill="#000000" d="M179 -60Q192 -44 192 -21Q192 6 173.5 24.5Q155 43 128 43Q101 43 82.5 24.5Q64 6 64 -21.5Q64 -49 82.5 -67Q101 -85 128 -85Q141 -85 154 -79L183 -117Q169 -133 163 -154Q157 -175 160 -196L117 -211Q109 -198 95 -189.5Q81 -181 64 -181Q37 -181 18.5 -199.5Q0 -218 0 -245.5Q0 -273 18.5 -291Q37 -309 64 -309Q91 -309 109.5 -291Q128 -273 128 -245V-241L171 -226Q180 -246 198.5 -259Q217 -272 239 -275V-322Q219 -327 205.5 -344.5Q192 -362 192 -384Q192 -411 210.5 -429.5Q229 -448 256 -448Q283 -448 301.5 -429.5Q320 -411 320 -384Q320 -362 306.5 -344.5Q293 -327 273 -322V-275Q295 -272 313.5 -259Q332 -246 341 -226L384 -241V-245Q384 -273 402.5 -291Q421 -309 448 -309Q475 -309 493.5 -291Q512 -273 512 -245.5Q512 -218 493.5 -199.5Q475 -181 448 -181Q431 -181 417 -189.5Q403 -198 395 -211L352 -196Q355 -175 349 -154Q343 -133 329 -117L358 -79Q371 -85 384 -85Q411 -85 429.5 -67Q448 -49 448 -21.5Q448 6 429.5 24.5Q411 43 384 43Q357 43 338.5 24.5Q320 6 320 -21Q320 -44 333 -60L303 -98Q281 -85 256 -85Q231 -85 209 -98Z"/>
</svg>