<svg xmlns="http://www.w3.org/2000/svg" viewBox="0 -512 512 512">
	<path fill="#000000" d="M365 -265V-316Q375 -321 381.5 -330Q388 -339 388 -350V-352Q388 -368 377 -379Q366 -390 350 -390H348Q332 -390 320.5 -379Q309 -368 309 -352V-350Q309 -339 315.5 -330Q322 -321 333 -316V-265Q303 -261 279 -241L139 -350Q143 -368 133.5 -384Q124 -400 106 -403.5Q88 -407 73 -398.5Q58 -390 53.5 -373Q49 -356 58.5 -339.5Q68 -323 85 -318Q106 -314 119 -322L256 -215Q237 -186 237 -152Q237 -118 258 -90L215 -47Q213 -47 210 -48Q207 -49 205 -49Q190 -49 179.5 -38Q169 -27 169 -13Q169 1 179.5 11Q190 21 204.5 21Q219 21 230 10Q241 -1 241 -15Q241 -21 239 -26L279 -66Q304 -48 333.5 -44.5Q363 -41 390 -52Q417 -63 435 -87.5Q453 -112 456.5 -141.5Q460 -171 449 -198Q438 -225 415 -243.5Q392 -262 365 -265ZM348 -98Q324 -98 307 -115Q290 -132 290 -156Q290 -180 307 -196.5Q324 -213 348 -213Q372 -213 388.5 -196.5Q405 -180 405 -156Q405 -132 388.5 -115Q372 -98 348 -98Z"/>
</svg>