<svg xmlns="http://www.w3.org/2000/svg" viewBox="0 -512 512 512">
	<path fill="#000000" d="M171 -363Q171 -380 183.5 -392.5Q196 -405 213.5 -405Q231 -405 243.5 -392.5Q256 -380 256 -362.5Q256 -345 243.5 -332.5Q231 -320 213.5 -320Q196 -320 183.5 -332.5Q171 -345 171 -363ZM441 11L309 -217Q289 -217 270 -229Q251 -241 241 -260L225 -294Q220 -305 210 -310.5Q200 -316 190 -316Q180 -316 171 -311L64 -251V-157H104V-228L133 -244L126 -211Q123 -194 123 -177V-72L72 -3L104 21L163 -59L167 -128L203 -78V21H242V-108L203 -164V-177Q203 -196 205 -205L212 -231Q223 -215 242 -200Q256 -189 270.5 -184Q285 -179 306 -180L422 21Z"/>
</svg>