<svg xmlns="http://www.w3.org/2000/svg" viewBox="0 -512 512 512">
	<path fill="#000000" d="M149 -405Q132 -405 119.5 -392.5Q107 -380 107 -362.5Q107 -345 119.5 -332.5Q132 -320 149.5 -320Q167 -320 179.5 -332.5Q192 -345 192 -362.5Q192 -380 179.5 -392.5Q167 -405 149 -405ZM107 -299Q89 -299 76.5 -286.5Q64 -274 64 -256V-128H107V21H213V-201L267 -107H319L341 -135V21H427V-85H448V-149Q448 -167 435.5 -179.5Q423 -192 405 -192H352Q333 -192 321 -177.5Q309 -163 299 -149H292L213 -285Q210 -290 201 -294.5Q192 -299 181 -299ZM384 -277Q371 -277 361.5 -268Q352 -259 352 -245.5Q352 -232 361.5 -222.5Q371 -213 384 -213Q397 -213 406.5 -222.5Q416 -232 416 -245.5Q416 -259 406.5 -268Q397 -277 384 -277Z"/>
</svg>