<svg xmlns="http://www.w3.org/2000/svg" viewBox="0 -512 512 512">
	<path fill="#000000" d="M341 -363Q341 -380 353.5 -392.5Q366 -405 384 -405Q402 -405 414.5 -392.5Q427 -380 427 -362.5Q427 -345 414.5 -332.5Q402 -320 384 -320Q366 -320 353.5 -332.5Q341 -345 341 -363ZM443 -286Q415 -299 384 -299Q363 -299 343 -293Q363 -274 363 -247V-235H469V-247Q469 -260 462 -270.5Q455 -281 443 -286ZM128 -320Q146 -320 158.5 -332.5Q171 -345 171 -362.5Q171 -380 158.5 -392.5Q146 -405 128 -405Q110 -405 97.5 -392.5Q85 -380 85 -362.5Q85 -345 97.5 -332.5Q110 -320 128 -320ZM169 -293Q149 -299 128 -299Q97 -299 69 -286Q57 -281 50 -270.5Q43 -260 43 -247V-235H149V-247Q149 -274 169 -293ZM213 -363Q213 -380 225.5 -392.5Q238 -405 256 -405Q274 -405 286.5 -392.5Q299 -380 299 -362.5Q299 -345 286.5 -332.5Q274 -320 256 -320Q238 -320 225.5 -332.5Q213 -345 213 -363ZM341 -235H171V-247Q171 -260 178 -270.5Q185 -281 197 -286Q225 -299 256 -299Q287 -299 315 -286Q327 -281 334 -270.5Q341 -260 341 -247ZM320 -107Q320 -124 332.5 -136.5Q345 -149 362.5 -149Q380 -149 392.5 -136.5Q405 -124 405 -106.5Q405 -89 392.5 -76.5Q380 -64 362.5 -64Q345 -64 332.5 -76.5Q320 -89 320 -107ZM448 21H277V9Q277 -4 284.5 -14.5Q292 -25 303 -30Q332 -43 363 -43Q394 -43 422 -30Q434 -25 441 -14.5Q448 -4 448 9ZM107 -107Q107 -124 119.5 -136.5Q132 -149 149.5 -149Q167 -149 179.5 -136.5Q192 -124 192 -106.5Q192 -89 179.5 -76.5Q167 -64 149.5 -64Q132 -64 119.5 -76.5Q107 -89 107 -107ZM235 21H64V9Q64 -4 71 -14.5Q78 -25 90 -30Q118 -43 149 -43Q180 -43 209 -30Q220 -25 227.5 -14.5Q235 -4 235 9ZM272 -171V-213H240V-171H192L256 -107L320 -171Z"/>
</svg>