<svg xmlns="http://www.w3.org/2000/svg" viewBox="0 -512 512 512">
	<path fill="#000000" d="M149 -405Q168 -405 180 -392.5Q192 -380 192.5 -362.5Q193 -345 180 -332Q167 -319 149.5 -319.5Q132 -320 119.5 -332Q107 -344 107 -362Q107 -380 119.5 -392.5Q132 -405 149 -405ZM117 -299H181Q199 -299 211.5 -286.5Q224 -274 224 -256V-139H192V21H107V-139H75V-256Q75 -274 87.5 -286.5Q100 -299 117 -299ZM405 -277H448L384 -363L320 -277H363V-107H320L384 -21L448 -107H405ZM469 -405H299V-363H469ZM469 -21H299V21H469Z"/>
</svg>