<svg xmlns="http://www.w3.org/2000/svg" viewBox="0 -512 512 512">
	<path fill="#000000" d="M107 -427Q107 -383 130 -346.5Q153 -310 192 -292V21H235V-128H277V21H320V-292Q359 -310 382 -346.5Q405 -383 405 -427H363Q363 -398 348.5 -373.5Q334 -349 309.5 -334.5Q285 -320 256 -320Q227 -320 202.5 -334.5Q178 -349 163.5 -373.5Q149 -398 149 -427ZM256 -427Q238 -427 225.5 -414.5Q213 -402 213 -384Q213 -366 225.5 -353.5Q238 -341 256 -341Q274 -341 286.5 -353.5Q299 -366 299 -384Q299 -402 286.5 -414.5Q274 -427 256 -427Z"/>
</svg>