<svg xmlns="http://www.w3.org/2000/svg" viewBox="0 -512 512 512">
	<path fill="#000000" d="M149 -405Q168 -405 180 -392.5Q192 -380 192.5 -362.5Q193 -345 180 -332Q167 -319 149.5 -319.5Q132 -320 119.5 -332Q107 -344 107 -362Q107 -380 119.5 -392.5Q132 -405 149 -405ZM117 -299H181Q199 -299 211.5 -286.5Q224 -274 224 -256V-139H192V21H107V-139H75V-256Q75 -274 87.5 -286.5Q100 -299 117 -299ZM448 -277H320V-235H448ZM448 -213H384V-171H448ZM448 -405H320V-363H448ZM448 -341H384V-299H448ZM448 -149H320V-107H448ZM448 -21H320V21H448ZM448 -85H384V-43H448Z"/>
</svg>