<svg xmlns="http://www.w3.org/2000/svg" viewBox="0 -512 512 512">
	<path fill="#000000" d="M107 -320Q89 -320 76.5 -307.5Q64 -295 64 -277.5Q64 -260 76.5 -247.5Q89 -235 106.5 -235Q124 -235 136.5 -247.5Q149 -260 149 -277.5Q149 -295 136.5 -307.5Q124 -320 107 -320ZM256 -363Q238 -363 225.5 -350.5Q213 -338 213 -320Q213 -302 225.5 -289.5Q238 -277 256 -277Q274 -277 286.5 -289.5Q299 -302 299 -320Q299 -338 286.5 -350.5Q274 -363 256 -363ZM405 -405Q388 -405 375.5 -392.5Q363 -380 363 -362.5Q363 -345 375.5 -332.5Q388 -320 405.5 -320Q423 -320 435.5 -332.5Q448 -345 448 -362.5Q448 -380 435.5 -392.5Q423 -405 405 -405ZM75 -213Q61 -213 52 -204Q43 -195 43 -181V-85H64V21H149V-85H171V-181Q171 -195 161.5 -204Q152 -213 139 -213ZM224 -256Q211 -256 201.5 -246.5Q192 -237 192 -224V-128H213V-21H299V-128H320V-224Q320 -237 310.5 -246.5Q301 -256 288 -256ZM373 -299Q360 -299 350.5 -289.5Q341 -280 341 -267V-171H363V-64H448V-171H469V-267Q469 -280 460 -289.5Q451 -299 437 -299Z"/>
</svg>