<svg xmlns="http://www.w3.org/2000/svg" viewBox="0 -512 512 512">
	<path fill="#000000" d="M160 -405Q178 -405 190.5 -392.5Q203 -380 203 -362.5Q203 -345 190.5 -332.5Q178 -320 160 -320Q142 -320 129.5 -332.5Q117 -345 117 -362.5Q117 -380 129.5 -392.5Q142 -405 160 -405ZM128 21V-107H64L119 -269Q124 -282 135 -290.5Q146 -299 160 -299Q174 -299 185.5 -290.5Q197 -282 201 -269L256 -107H192V21ZM309 -192Q309 -210 321.5 -222.5Q334 -235 352 -235Q370 -235 382.5 -222.5Q395 -210 395 -192Q395 -174 382.5 -161.5Q370 -149 352 -149Q334 -149 321.5 -161.5Q309 -174 309 -192ZM288 -128H416V-43H384V21H320V-43H288Z"/>
</svg>