<svg xmlns="http://www.w3.org/2000/svg" viewBox="0 -512 512 512">
	<path fill="#000000" d="M341 -363Q341 -380 353.5 -392.5Q366 -405 384 -405Q402 -405 414.5 -392.5Q427 -380 427 -362.5Q427 -345 414.5 -332.5Q402 -320 384 -320Q366 -320 353.5 -332.5Q341 -345 341 -363ZM427 -107H480L427 -269Q422 -282 411 -290.5Q400 -299 386 -299H384Q370 -299 359 -290.5Q348 -282 343 -269L324 -213Q342 -204 352.5 -186.5Q363 -169 363 -147V21H427ZM267 -203Q279 -203 289 -212.5Q299 -222 299 -234.5Q299 -247 289 -257Q279 -267 266.5 -267Q254 -267 244.5 -257Q235 -247 235 -234.5Q235 -222 244.5 -212.5Q254 -203 267 -203ZM107 -320Q124 -320 136.5 -332.5Q149 -345 149 -362.5Q149 -380 136.5 -392.5Q124 -405 106.5 -405Q89 -405 76.5 -392.5Q64 -380 64 -362.5Q64 -345 76.5 -332.5Q89 -320 107 -320ZM299 21V-64H320V-149Q320 -162 310.5 -171.5Q301 -181 288 -181H245Q233 -181 223 -171.5Q213 -162 213 -149V-64H235V21ZM149 21V-107H203L149 -269Q144 -282 133.5 -290.5Q123 -299 109 -299H107Q93 -299 82 -290.5Q71 -282 66 -269L32 -107H85V21Z"/>
</svg>