<svg xmlns="http://www.w3.org/2000/svg" viewBox="0 -512 512 512">
	<path fill="#000000" d="M160 -405Q178 -405 190.5 -392.5Q203 -380 203 -362.5Q203 -345 190.5 -332.5Q178 -320 160 -320Q142 -320 129.5 -332.5Q117 -345 117 -362.5Q117 -380 129.5 -392.5Q142 -405 160 -405ZM128 -299H192Q210 -299 222.5 -286.5Q235 -274 235 -256V-139H203V21H117V-139H85V-256Q85 -274 97.5 -286.5Q110 -299 128 -299ZM309 -192Q309 -210 321.5 -222.5Q334 -235 352 -235Q370 -235 382.5 -222.5Q395 -210 395 -192Q395 -174 382.5 -161.5Q370 -149 352 -149Q334 -149 321.5 -161.5Q309 -174 309 -192ZM320 -128H384L416 -43H384V21H320V-43H288Z"/>
</svg>