<svg xmlns="http://www.w3.org/2000/svg" viewBox="0 -512 512 512">
	<path fill="#000000" d="M427 -85Q444 -85 456.5 -97.5Q469 -110 469 -128V-363Q469 -380 456.5 -392.5Q444 -405 427 -405H203Q213 -384 213 -363H427V-128H235V-85ZM320 -299V-256H192V21H149V-107H107V21H64V-149H32V-256Q32 -274 44.5 -286.5Q57 -299 75 -299ZM171 -363Q171 -345 158.5 -332.5Q146 -320 128 -320Q110 -320 97.5 -332.5Q85 -345 85 -362.5Q85 -380 97.5 -392.5Q110 -405 128 -405Q146 -405 158.5 -392.5Q171 -380 171 -363ZM363 -320H405V-149H363ZM299 -235H341V-149H299ZM235 -235H277V-149H235Z"/>
</svg>