<svg xmlns="http://www.w3.org/2000/svg" viewBox="0 -512 512 512">
	<path fill="#000000" d="M341 -363Q341 -380 353.5 -392.5Q366 -405 384 -405Q402 -405 414.5 -392.5Q427 -380 427 -362.5Q427 -345 414.5 -332.5Q402 -320 384 -320Q366 -320 353.5 -332.5Q341 -345 341 -363ZM427 21V-107H480L427 -269Q422 -282 411 -290.5Q400 -299 386 -299H384Q370 -299 359 -290.5Q348 -282 343 -269L324 -213Q342 -204 352.5 -186.5Q363 -169 363 -147V21ZM267 -203Q279 -203 289 -212.5Q299 -222 299 -234.5Q299 -247 289 -257Q279 -267 266.5 -267Q254 -267 244.5 -257Q235 -247 235 -234.5Q235 -222 244.5 -212.5Q254 -203 267 -203ZM117 -320Q135 -320 147.5 -332.5Q160 -345 160 -362.5Q160 -380 147.5 -392.5Q135 -405 117.5 -405Q100 -405 87.5 -392.5Q75 -380 75 -362.5Q75 -345 87.5 -332.5Q100 -320 117 -320ZM160 21V-128H192V-256Q192 -274 179.5 -286.5Q167 -299 149 -299H85Q68 -299 55.5 -286.5Q43 -274 43 -256V-128H75V21ZM299 21V-64H320V-149Q320 -162 310.5 -171.5Q301 -181 288 -181H245Q233 -181 223 -171.5Q213 -162 213 -149V-64H235V21Z"/>
</svg>