<svg xmlns="http://www.w3.org/2000/svg" viewBox="0 -512 512 512">
	<path fill="#000000" d="M363 -85H320V43H277V-85H232L199 -44L250 6L220 36L169 -14Q158 -25 157 -41.5Q156 -58 166 -71L177 -85H149L192 -171V-235Q172 -219 160.5 -197Q149 -175 149 -149H107Q107 -179 118 -206.5Q129 -234 150 -255Q171 -276 198.5 -287.5Q226 -299 256 -299Q277 -299 296.5 -307Q316 -315 331 -330Q346 -345 354.5 -364.5Q363 -384 363 -405H405Q405 -362 382 -325.5Q359 -289 320 -271V-171ZM299 -363Q299 -350 291.5 -339Q284 -328 272 -323Q260 -318 247.5 -320.5Q235 -323 226 -332.5Q217 -342 214.5 -354.5Q212 -367 216.5 -379Q221 -391 232 -398Q243 -405 256 -405Q274 -405 286.5 -392.5Q299 -380 299 -363Z"/>
</svg>