<svg xmlns="http://www.w3.org/2000/svg" viewBox="0 -512 512 512">
	<path fill="#000000" d="M384 -187V21H364V-187Q364 -190 361 -194Q358 -197 354 -197Q350 -197 347 -194Q344 -191 344 -187V-167H325V-181Q302 -187 284.5 -200Q267 -213 255 -231L248 -205Q245 -196 245 -177V-164L285 -108V21H245V-78L209 -128L206 -59L146 21L115 -3L166 -72V-177Q166 -194 169 -211L176 -244L146 -228V-157H107V-251L213 -311Q223 -316 233 -316Q243 -316 252.5 -310.5Q262 -305 268 -294L284 -260Q293 -241 312 -229Q331 -217 355 -217Q366 -217 375 -208.5Q384 -200 384 -187ZM256 -405Q274 -405 286.5 -392.5Q299 -380 299 -362.5Q299 -345 286.5 -332.5Q274 -320 256 -320Q238 -320 225.5 -332.5Q213 -345 213 -362.5Q213 -380 225.5 -392.5Q238 -405 256 -405Z"/>
</svg>