<svg xmlns="http://www.w3.org/2000/svg" viewBox="0 -512 512 512">
	<path fill="#000000" d="M235 -149H192Q192 -201 218 -245.5Q244 -290 288 -315.5Q332 -341 384 -341V-299Q343 -299 309 -279Q275 -259 255 -224.5Q235 -190 235 -149ZM384 -213V-256Q355 -256 330.5 -241.5Q306 -227 291.5 -202.5Q277 -178 277 -149H320Q320 -176 338.5 -194.5Q357 -213 384 -213ZM149 -363Q149 -380 136.5 -392.5Q124 -405 106.5 -405Q89 -405 76.5 -392.5Q64 -380 64 -362.5Q64 -345 76.5 -332.5Q89 -320 106.5 -320Q124 -320 136.5 -332.5Q149 -345 149 -363ZM244 -352H202Q198 -329 180 -314Q162 -299 139 -299H75Q61 -299 52 -289.5Q43 -280 43 -267V-213H171V-262Q201 -271 221 -295.5Q241 -320 244 -352ZM405 -85Q423 -85 435.5 -97.5Q448 -110 448 -128Q448 -146 435.5 -158.5Q423 -171 405.5 -171Q388 -171 375.5 -158.5Q363 -146 363 -128Q363 -110 375.5 -97.5Q388 -85 405 -85ZM437 -64H373Q350 -64 332 -79Q314 -94 310 -117H268Q271 -86 291 -61Q311 -36 341 -27V21H469V-32Q469 -45 460 -54.5Q451 -64 437 -64Z"/>
</svg>