<svg xmlns="http://www.w3.org/2000/svg" viewBox="0 -512 512 512">
	<path fill="#000000" d="M160 -405Q178 -405 190.5 -392.5Q203 -380 203 -362.5Q203 -345 190.5 -332.5Q178 -320 160 -320Q142 -320 129.5 -332.5Q117 -345 117 -362.5Q117 -380 129.5 -392.5Q142 -405 160 -405ZM128 21V-107H64L119 -269Q124 -282 135 -290.5Q146 -299 160 -299Q174 -299 185.5 -290.5Q197 -282 201 -269L256 -107L311 -269Q316 -282 327 -290.5Q338 -299 352 -299Q366 -299 377.5 -290.5Q389 -282 393 -269L448 -107H384V21H320V-107H192V21ZM352 -405Q370 -405 382.5 -392.5Q395 -380 395 -362.5Q395 -345 382.5 -332.5Q370 -320 352 -320Q334 -320 321.5 -332.5Q309 -345 309 -362.5Q309 -380 321.5 -392.5Q334 -405 352 -405Z"/>
</svg>