<svg xmlns="http://www.w3.org/2000/svg" viewBox="0 -512 512 512">
	<path fill="#000000" d="M267 -203Q279 -203 289 -212.5Q299 -222 299 -234.5Q299 -247 289 -257Q279 -267 266.5 -267Q254 -267 244.5 -257Q235 -247 235 -234.5Q235 -222 244.5 -212.5Q254 -203 267 -203ZM117 -320Q135 -320 147.5 -332.5Q160 -345 160 -362.5Q160 -380 147.5 -392.5Q135 -405 117.5 -405Q100 -405 87.5 -392.5Q75 -380 75 -362.5Q75 -345 87.5 -332.5Q100 -320 117 -320ZM160 21V-128H192V-256Q192 -274 179.5 -286.5Q167 -299 149 -299H85Q68 -299 55.5 -286.5Q43 -274 43 -256V-128H75V21ZM299 21V-64H320V-149Q320 -162 310.5 -171.5Q301 -181 288 -181H245Q233 -181 223 -171.5Q213 -162 213 -149V-64H235V21ZM395 -320Q412 -320 424.5 -332.5Q437 -345 437 -362.5Q437 -380 424.5 -392.5Q412 -405 394.5 -405Q377 -405 364.5 -392.5Q352 -380 352 -362.5Q352 -345 364.5 -332.5Q377 -320 395 -320ZM469 -256V-128H437V21H363V-149Q363 -172 351 -189.5Q339 -207 320 -215V-256Q320 -274 332.5 -286.5Q345 -299 363 -299H427Q444 -299 456.5 -286.5Q469 -274 469 -256Z"/>
</svg>