<svg xmlns="http://www.w3.org/2000/svg" viewBox="0 -512 512 512">
	<path fill="#000000" d="M361 -61Q340 -61 340 -115Q341 -157 354 -232Q364 -285 380 -349L393 -403H331L317 -351Q300 -289 289 -233H236Q238 -265 237 -288Q236 -356 212 -383Q192 -406 160 -400Q134 -395 111 -374Q83 -350 63 -309.5Q43 -269 43 -235H71L75 -248Q81 -265 89 -279Q99 -298 113 -309Q130 -323 151 -323Q172 -323 171 -269Q171 -227 157 -152Q147 -99 132 -35L118 19H180L189 -9Q200 -43 209 -79Q221 -129 228 -175H279Q275 -138 276 -92Q277 -25 301 2Q321 23 353 16Q379 10 402 -11Q430 -35 450 -80Q469 -122 469 -149H440Q440 -147 436 -135Q431 -118 423 -104Q412 -86 398 -75Q381 -61 361 -61Z"/>
</svg>