<svg xmlns="http://www.w3.org/2000/svg" viewBox="0 -512 512 512">
	<path fill="#000000" d="M472 10L51 -411L24 -384L64 -344V0H408L445 37ZM256 -64Q221 -64 191.5 -81Q162 -98 145 -127.5Q128 -157 128 -193Q128 -229 148 -260L180 -228Q173 -215 172 -203H205L226 -181H172Q174 -165 183 -149H258L280 -128H200Q225 -107 256 -107Q274 -107 292 -115L324 -84Q293 -64 256 -64ZM256 -277Q287 -277 312 -256H260L240 -276Q249 -277 256 -277ZM206 -310L132 -384H448V-68L374 -142Q384 -166 384 -192Q384 -227 367 -256.5Q350 -286 320.5 -303Q291 -320 256 -320Q230 -320 206 -310ZM340 -203H314L282 -235H329Q338 -219 340 -203Z"/>
</svg>