<svg xmlns="http://www.w3.org/2000/svg" viewBox="0 -512 512 512">
	<path fill="#000000" d="M183 -149Q174 -165 172 -181H340Q339 -166 330 -149ZM256 -107Q225 -107 200 -128H312Q287 -107 256 -107ZM256 -277Q287 -277 312 -256H200Q225 -277 256 -277ZM183 -235H329Q338 -219 340 -203H172Q174 -219 183 -235ZM64 -384V0H448V-384ZM256 -64Q221 -64 191.5 -81Q162 -98 145 -127.5Q128 -157 128 -192Q128 -227 145 -256.5Q162 -286 191.5 -303Q221 -320 256 -320Q291 -320 320.5 -303Q350 -286 367 -256.5Q384 -227 384 -192Q384 -157 367 -127.5Q350 -98 320.5 -81Q291 -64 256 -64Z"/>
</svg>