<svg xmlns="http://www.w3.org/2000/svg" viewBox="0 -512 512 512">
	<path fill="#000000" d="M365 -372Q351 -372 339.5 -364Q328 -356 324 -342L307 -288Q295 -288 284 -283L245 -325L217 -356Q204 -345 203 -327Q202 -309 214 -296L253 -254Q250 -249 248.5 -243.5Q247 -238 246 -232L148 -210Q152 -193 167 -183.5Q182 -174 199 -178L255 -190Q261 -180 271 -173L241 -78Q258 -73 273.5 -81Q289 -89 294 -106L312 -160Q324 -160 335 -165L402 -92Q415 -104 415.5 -121.5Q416 -139 404 -152L366 -194Q369 -199 370.5 -204.5Q372 -210 373 -216L470 -238Q466 -255 451.5 -264.5Q437 -274 419 -270L364 -258Q357 -268 348 -275L378 -370Q372 -372 365 -372ZM311 -256Q315 -256 319 -255Q332 -251 338 -239Q344 -227 340 -214.5Q336 -202 324 -196Q312 -190 299.5 -193.5Q287 -197 281 -209Q275 -221 279 -234Q282 -244 291 -250Q300 -256 310 -256ZM171 -156Q130 -128 85 -128H43V-85H85Q129 -85 171 -107Q194 -94 222 -89L235 -131Q201 -135 171 -156ZM436 -128Q438 -104 425 -85H469V-128ZM171 -71Q130 -43 85 -43H43V0H85Q129 0 171 -21Q211 -1 256 -1Q301 -1 341 -21Q383 0 427 0H469V-43H427Q382 -43 341 -71Q302 -44 256 -44Q210 -44 171 -71Z"/>
</svg>