<svg xmlns="http://www.w3.org/2000/svg" viewBox="0 -512 512 512">
	<path fill="#000000" d="M299 -43Q309 -22 324 0H107Q89 0 76.5 -12.5Q64 -25 64 -43V-341Q64 -359 76.5 -371.5Q89 -384 107 -384H405Q423 -384 435.5 -371.5Q448 -359 448 -341V-221Q428 -232 405 -234V-341H107V-43ZM298 -186L239 -110L197 -161L139 -85H282Q277 -103 277 -117Q277 -153 299 -184ZM469 -117Q469 -83 432 -27Q413 1 395 21L375 -2Q353 -31 339 -57Q320 -93 320 -117Q320 -148 342 -170Q364 -192 394.5 -192Q425 -192 447 -170Q469 -148 469 -117ZM420 -115Q420 -125 412 -133Q404 -141 394.5 -141Q385 -141 377 -133.5Q369 -126 369 -115.5Q369 -105 376.5 -97.5Q384 -90 395 -90Q406 -90 414 -98Q422 -106 420 -115Z"/>
</svg>