<svg xmlns="http://www.w3.org/2000/svg" viewBox="0 -512 512 512">
	<path fill="#000000" d="M363 -192Q363 -226 344.5 -252Q326 -278 297 -290.5Q268 -303 237 -297Q205 -292 180.5 -267.5Q156 -243 151 -211Q145 -180 157.5 -151Q170 -122 195 -104Q222 -85 256 -85Q285 -85 309.5 -99.5Q334 -114 348.5 -138.5Q363 -163 363 -192ZM256 -128Q229 -128 211 -147Q193 -166 192 -192Q191 -218 210.5 -237.5Q230 -257 256 -256Q282 -255 301 -237Q320 -219 320 -192Q320 -165 301.5 -146.5Q283 -128 256 -128ZM107 -128H64V-43Q64 -25 76.5 -12.5Q89 0 107 0H192V-43H107ZM107 -341H192V-384H107Q89 -384 76.5 -371.5Q64 -359 64 -341V-256H107ZM405 -384H320V-341H405V-256H448V-341Q448 -359 435.5 -371.5Q423 -384 405 -384ZM405 -43H320V0H405Q423 0 435.5 -12.5Q448 -25 448 -43V-128H405Z"/>
</svg>