<svg xmlns="http://www.w3.org/2000/svg" viewBox="0 -512 512 512">
	<path fill="#000000" d="M256 -107Q221 -107 196 -132Q171 -157 171 -192Q171 -227 196 -252Q221 -277 256 -277Q291 -277 316 -252Q341 -227 341 -192Q341 -157 316 -132Q291 -107 256 -107ZM399 -183Q391 -188 381 -192Q391 -196 399 -201Q429 -218 446 -247.5Q463 -277 463 -311Q434 -328 399.5 -328.5Q365 -329 335 -311Q327 -307 318 -300Q320 -310 320 -320Q320 -355 302.5 -384.5Q285 -414 256 -431Q227 -414 209.5 -384.5Q192 -355 192 -320Q192 -310 194 -300Q185 -307 177 -311Q147 -329 112.5 -328.5Q78 -328 49 -311Q49 -278 66 -248Q83 -218 113 -201Q120 -197 131 -192Q122 -189 113 -184Q83 -166 66 -136.5Q49 -107 49 -73Q78 -56 112.5 -56Q147 -56 177 -73Q185 -77 194 -84Q192 -74 192 -64Q192 -29 209.5 0.5Q227 30 256 47Q285 30 302.5 0.5Q320 -29 320 -64Q320 -74 318 -84Q326 -78 335 -73Q365 -55 399.5 -55.5Q434 -56 463 -73Q463 -107 446 -136.5Q429 -166 399 -183Z"/>
</svg>