<svg xmlns="http://www.w3.org/2000/svg" viewBox="0 -512 512 512">
	<path fill="#000000" d="M256 -277Q219 -277 195 -252Q171 -227 170.5 -192.5Q170 -158 196 -132Q222 -106 256.5 -106.5Q291 -107 316 -131Q341 -155 341 -191Q341 -227 316 -252Q291 -277 256 -277ZM107 -128H64V-43Q64 -25 76.5 -12.5Q89 0 107 0H192V-43H107ZM107 -341H192V-384H107Q89 -384 76.5 -371.5Q64 -359 64 -341V-256H107ZM405 -384H320V-341H405V-256H448V-341Q448 -359 435.5 -371.5Q423 -384 405 -384ZM405 -43H320V0H405Q423 0 435.5 -12.5Q448 -25 448 -43V-128H405Z"/>
</svg>