<svg xmlns="http://www.w3.org/2000/svg" viewBox="0 -512 512 512">
	<path fill="#000000" d="M448 -128H491V-85H448ZM448 -213H491V-171H448ZM491 -43H448V0Q464 0 477.5 -13.5Q491 -27 491 -43ZM277 -384H320V-341H277ZM448 -299H491V-256H448ZM448 -384V-341H491Q491 -357 477.5 -370.5Q464 -384 448 -384ZM21 -299H64V-256H21ZM363 -384H405V-341H363ZM363 -43H405V0H363ZM64 -384Q48 -384 34.5 -370.5Q21 -357 21 -341H64ZM192 -384H235V-341H192ZM107 -384H149V-341H107ZM21 -213V-43Q21 -25 33.5 -12.5Q46 0 64 0H320V-213ZM64 -43L117 -111L156 -65L209 -134L277 -43Z"/>
</svg>