<svg xmlns="http://www.w3.org/2000/svg" viewBox="0 -512 512 512">
	<path fill="#000000" d="M139 -21Q90 -21 55.5 -55.5Q21 -90 21 -139Q21 -180 47 -212Q73 -244 112 -253Q125 -301 164.5 -332Q204 -363 256 -363Q320 -363 362.5 -319Q405 -275 405 -213Q445 -209 468 -180Q491 -151 491 -117Q491 -78 463 -49.5Q435 -21 395 -21ZM139 -64H395Q417 -64 432.5 -79.5Q448 -95 448 -117.5Q448 -140 432.5 -155.5Q417 -171 395 -171H363V-213Q363 -257 331.5 -288.5Q300 -320 256 -320Q223 -320 197 -301.5Q171 -283 158 -255Q199 -247 227.5 -215Q256 -183 256 -139H213Q213 -170 191.5 -191.5Q170 -213 139 -213Q108 -213 86 -191.5Q64 -170 64 -139Q64 -108 86 -86Q108 -64 139 -64Z"/>
</svg>