<svg xmlns="http://www.w3.org/2000/svg" viewBox="0 -512 512 512">
	<path fill="#000000" d="M313 -165Q293 -151 279.5 -130.5Q266 -110 260 -85H139L197 -161L239 -110L298 -186ZM107 -43V-341H405V-191Q429 -189 448 -181V-341Q448 -359 435.5 -371.5Q423 -384 405 -384H107Q89 -384 76.5 -371.5Q64 -359 64 -341V-43Q64 -25 76.5 -12.5Q89 0 107 0H267Q259 -19 257 -43ZM469 -53V-139L444 -114Q419 -139 384 -139Q349 -139 324 -114Q299 -89 299 -53.5Q299 -18 324 7Q349 32 384 32Q411 32 432.5 17.5Q454 3 463 -21H427Q419 -11 408 -5.5Q397 0 384 0Q362 0 346.5 -15.5Q331 -31 331 -53Q331 -75 346.5 -91Q362 -107 384 -107Q406 -107 422 -91L384 -53Z"/>
</svg>