<svg xmlns="http://www.w3.org/2000/svg" viewBox="0 -512 512 512">
	<path fill="#000000" d="M107 -128H64V-43Q64 -25 76.5 -12.5Q89 0 107 0H192V-43H107ZM107 -341H192V-384H107Q89 -384 76.5 -371.5Q64 -359 64 -341V-256H107ZM405 -384H320V-341H405V-256H448V-341Q448 -359 435.5 -371.5Q423 -384 405 -384ZM405 -43H320V0H405Q423 0 435.5 -12.5Q448 -25 448 -43V-128H405ZM256 -277Q221 -277 196 -252Q171 -227 171 -192Q171 -157 196 -132Q221 -107 256 -107Q291 -107 316 -132Q341 -157 341 -192Q341 -227 316 -252Q291 -277 256 -277ZM256 -149Q238 -149 225.5 -161.5Q213 -174 213 -192Q213 -210 225.5 -222.5Q238 -235 256 -235Q274 -235 286.5 -222.5Q299 -210 299 -192Q299 -174 286.5 -161.5Q274 -149 256 -149Z"/>
</svg>