<svg xmlns="http://www.w3.org/2000/svg" viewBox="0 -512 512 512">
	<path fill="#000000" d="M331 -256Q353 -256 368.5 -271.5Q384 -287 384 -309Q384 -331 368.5 -347Q353 -363 330.5 -363Q308 -363 292.5 -347.5Q277 -332 277 -309.5Q277 -287 293 -271.5Q309 -256 331 -256ZM412 -258L478 -192L448 -162L381 -228Q357 -213 330 -213Q290 -213 262.5 -241Q235 -269 235 -309Q235 -349 263 -377Q291 -405 331 -405Q371 -405 399 -377.5Q427 -350 427 -309Q427 -282 412 -258ZM352 -64H117L176 -139L218 -89L276 -164ZM384 -171L427 -128V-21Q427 -4 414 8.5Q401 21 384 21H85Q69 21 56 8Q43 -5 43 -21V-320Q43 -337 55.5 -350Q68 -363 85 -363H203Q193 -342 192 -320H85V-21H384Z"/>
</svg>