<svg xmlns="http://www.w3.org/2000/svg" viewBox="0 -512 512 512">
	<path fill="#000000" d="M181 -160L107 -64H278Q280 -30 299 0H107Q89 0 76.5 -12.5Q64 -25 64 -43V-341Q64 -359 76.5 -371.5Q89 -384 107 -384H405Q423 -384 435.5 -371.5Q448 -359 448 -341V-209Q431 -213 416 -213Q389 -213 364.5 -203.5Q340 -194 321 -176L309 -192L235 -96ZM405 -21Q383 -21 367.5 -37Q352 -53 352 -75Q352 -87 358 -99L334 -122Q320 -100 320 -75Q320 -39 345 -14Q370 11 405 11V43L453 -5L405 -53ZM405 -160V-192L357 -144L405 -96V-128Q427 -128 443 -112.5Q459 -97 459 -75Q459 -62 453 -51L476 -28Q491 -49 491 -75Q491 -110 466 -135Q441 -160 405 -160Z"/>
</svg>