<svg xmlns="http://www.w3.org/2000/svg" viewBox="0 -512 512 512">
	<path fill="#000000" d="M256 -256Q229 -256 210.5 -237.5Q192 -219 192 -192Q192 -165 210.5 -146.5Q229 -128 256 -128Q283 -128 301.5 -146.5Q320 -165 320 -192Q320 -219 301.5 -237.5Q283 -256 256 -256ZM405 -43H320V0H405Q423 0 435.5 -12.5Q448 -25 448 -43V-128H405ZM405 -384H320V-341H405V-256H448V-341Q448 -359 435.5 -371.5Q423 -384 405 -384ZM107 -341H192V-384H107Q89 -384 76.5 -371.5Q64 -359 64 -341V-256H107ZM107 -128H64V-43Q64 -25 76.5 -12.5Q89 0 107 0H192V-43H107Z"/>
</svg>