<svg xmlns="http://www.w3.org/2000/svg" viewBox="0 -512 512 512">
	<path fill="#000000" d="M465 -107V-139Q465 -161 446.5 -176.5Q428 -192 405 -192Q382 -192 364 -176.5Q346 -161 346 -139V-107Q336 -107 328 -99Q320 -91 320 -81V-6Q320 5 328 13Q336 21 346 21H463Q474 21 482.5 13.5Q491 6 491 -4V-79Q491 -90 483 -98.5Q475 -107 465 -107ZM437 -107H373V-139Q373 -151 382.5 -158.5Q392 -166 405.5 -166Q419 -166 428 -158.5Q437 -151 437 -139ZM107 -384Q89 -384 76.5 -371.5Q64 -359 64 -341V-43Q64 -25 76.5 -12.5Q89 0 107 0H278Q277 -2 277 -6V-43H107V-341H405V-235Q426 -235 448 -226V-341Q448 -359 435.5 -371.5Q423 -384 405 -384ZM298 -186L239 -110L197 -161L139 -85H277Q280 -111 298 -129L303 -132V-139Q303 -155 309 -171Z"/>
</svg>