<svg xmlns="http://www.w3.org/2000/svg" viewBox="0 -512 512 512">
	<path fill="#000000" d="M405 -384Q423 -384 435.5 -371.5Q448 -359 448 -341V-213H405V-171H363V-128H320V-85H277V-43H235V0H107Q89 0 76.5 -12.5Q64 -25 64 -43V-341Q64 -359 76.5 -371.5Q89 -384 107 -384ZM448 -128V-43Q448 -25 435.5 -12.5Q423 0 405 0H320V-43H363V-85H405V-128ZM405 -267Q405 -271 402 -274Q399 -277 395 -277H117Q113 -277 110 -274Q107 -271 107 -267V-117Q107 -113 110 -110Q113 -107 117 -107H235V-128H277V-171H320V-213H363V-256H405Z"/>
</svg>