<svg xmlns="http://www.w3.org/2000/svg" viewBox="0 -512 512 512">
	<path fill="#000000" d="M405 -277V-341H107V-277H192Q192 -251 210.5 -232Q229 -213 256 -213Q283 -213 301.5 -232Q320 -251 320 -277ZM405 -384Q423 -384 435.5 -371.5Q448 -359 448 -341V-192Q448 -174 435.5 -161.5Q423 -149 405 -149H107Q89 -149 76.5 -161.5Q64 -174 64 -192V-341Q64 -359 76.5 -371.5Q89 -384 107 -384ZM64 -128H192Q192 -101 210.5 -82.5Q229 -64 256 -64Q283 -64 301.5 -82.5Q320 -101 320 -128H448V-43Q448 -25 435.5 -12.5Q423 0 405 0H107Q89 0 76.5 -12.5Q64 -25 64 -43Z"/>
</svg>