<svg xmlns="http://www.w3.org/2000/svg" viewBox="0 -512 512 512">
	<path fill="#000000" d="M405 -384Q423 -384 435.5 -371.5Q448 -359 448 -341V-192Q448 -174 435.5 -161.5Q423 -149 405 -149H107Q89 -149 76.5 -161.5Q64 -174 64 -192V-341Q64 -359 76.5 -371.5Q89 -384 107 -384ZM107 -235V-192H201Q180 -210 173 -235ZM405 -192V-235H339Q332 -210 311 -192ZM405 -277V-341H107V-277H213V-256Q213 -239 226 -226Q239 -213 256 -213Q273 -213 286 -226Q299 -239 299 -256V-277ZM448 -43Q448 -25 435.5 -12.5Q423 0 405 0H107Q89 0 76.5 -12.5Q64 -25 64 -43V-128H213V-107Q213 -90 226 -77Q239 -64 256 -64Q273 -64 286 -77Q299 -90 299 -107V-128H448ZM107 -85V-43H201Q180 -61 173 -85ZM405 -43V-85H339Q332 -61 311 -43Z"/>
</svg>