<svg xmlns="http://www.w3.org/2000/svg" viewBox="0 -512 512 512">
	<path fill="#000000" d="M472 10L51 -411L24 -384L87 -321Q43 -264 43 -192Q43 -134 71.5 -85Q100 -36 149 -7.5Q198 21 256 21Q328 21 385 -23L445 37ZM191 -217H178L181 -226ZM132 -203H205L219 -188H132ZM318 -78Q299 -78 285.5 -91Q272 -104 270 -122Q256 -132 242 -123Q240 -104 226.5 -91Q213 -78 193.5 -78Q174 -78 159.5 -92.5Q145 -107 145 -127Q145 -147 159.5 -161Q174 -175 194 -175Q211 -175 224 -164.5Q237 -154 241 -138Q255 -144 270 -138L284 -124Q285 -111 294 -102Q303 -93 315 -92L328 -80Q322 -78 318 -78ZM212 -304L143 -373Q195 -405 256 -405Q314 -405 363 -376.5Q412 -348 440.5 -299Q469 -250 469 -192Q469 -131 437 -79L328 -188H380V-203H314L299 -217H334L302 -301Q299 -306 294.5 -308Q290 -310 285 -309L256 -299L227 -309H226Q218 -311 212 -304ZM228 -127Q228 -112 218 -102Q208 -92 193.5 -92Q179 -92 169 -102Q159 -112 159 -126.5Q159 -141 169 -151Q179 -161 193.5 -161Q208 -161 218 -151Q228 -141 228 -127Z"/>
</svg>