<svg xmlns="http://www.w3.org/2000/svg" viewBox="0 -512 512 512">
	<path fill="#000000" d="M472 10L51 -411L24 -384L135 -273L128 -256H152L184 -224H43V-192H216L288 -120Q285 -113 282 -105Q255 -116 230 -105Q223 -133 200 -152Q177 -171 148 -171Q113 -171 88.5 -146Q64 -121 64 -85.5Q64 -50 88.5 -25Q113 0 147 0Q181 0 205 -22.5Q229 -45 231 -79Q240 -85 250 -86Q266 -88 281 -78Q284 -45 307.5 -22.5Q331 0 364 0Q383 0 399 -8L445 37ZM148 -24Q123 -24 105.5 -42Q88 -60 88 -85.5Q88 -111 105.5 -128.5Q123 -146 148 -146Q173 -146 190.5 -128.5Q208 -111 208 -85.5Q208 -60 190.5 -42Q173 -24 148 -24ZM364 -24Q339 -24 321.5 -42Q304 -60 304 -85Q304 -93 306 -101L381 -27Q372 -24 364 -24ZM469 -192H324L292 -224H469ZM364 -171Q399 -171 423.5 -146Q448 -121 448 -85Q448 -78 447 -70L423 -93Q421 -114 406 -128.5Q391 -143 371 -146L348 -169Q356 -171 364 -171ZM260 -256L165 -352L180 -391Q183 -399 191 -403Q199 -407 207 -404L256 -388L303 -404Q312 -407 320 -403.5Q328 -400 332 -392L384 -256Z"/>
</svg>