<svg xmlns="http://www.w3.org/2000/svg" viewBox="0 -512 512 512">
	<path fill="#000000" d="M491 -405Q428 -405 367 -377Q312 -405 256 -405Q200 -405 145 -377Q84 -405 21 -405V-363Q60 -363 100 -349Q81 -335 77 -329Q64 -316 64 -299V-64Q64 -29 89 -4Q114 21 149.5 21Q185 21 210 -4Q235 -29 235 -64V-299Q235 -318 220 -331Q208 -341 192 -351Q225 -363 256 -363Q287 -363 320 -351Q304 -341 292 -331Q277 -318 277 -299V-64Q277 -29 302 -4Q327 21 362.5 21Q398 21 423 -4Q448 -29 448 -64V-299Q448 -316 435 -329Q431 -335 412 -349Q452 -363 491 -363ZM192 -299V-64Q192 -46 179.5 -33.5Q167 -21 149.5 -21Q132 -21 119.5 -33.5Q107 -46 107 -64V-299L117 -308Q131 -319 147 -329Q175 -313 192 -299ZM405 -299V-64Q405 -46 392.5 -33.5Q380 -21 362.5 -21Q345 -21 332.5 -33.5Q320 -46 320 -64V-299L332 -308Q348 -319 365 -329Q390 -313 405 -299Z"/>
</svg>