<svg xmlns="http://www.w3.org/2000/svg" viewBox="0 -512 512 512">
	<path fill="#000000" d="M397 -307Q428 -307 454.5 -291.5Q481 -276 496.5 -249.5Q512 -223 512 -192Q512 -161 496.5 -134.5Q481 -108 454.5 -92.5Q428 -77 397 -77Q349 -77 315 -111L256 -163L196 -110Q180 -94 159 -85.5Q138 -77 115 -77Q84 -77 57.5 -92.5Q31 -108 15.5 -134.5Q0 -161 0 -192Q0 -223 15.5 -249.5Q31 -276 57.5 -291.5Q84 -307 115 -307Q138 -307 159 -298Q180 -289 197 -273L256 -221L316 -274Q332 -290 353 -298.5Q374 -307 397 -307ZM166 -141L224 -192L167 -242Q145 -264 115 -264Q85 -264 64 -243Q43 -222 43 -192Q43 -162 64 -141Q85 -120 115 -120Q145 -120 166 -141ZM346 -243L288 -192L345 -142Q367 -120 397 -120Q427 -120 448 -141Q469 -162 469 -192Q469 -222 448 -243Q427 -264 397 -264Q367 -264 346 -243Z"/>
</svg>