<svg xmlns="http://www.w3.org/2000/svg" viewBox="0 -512 512 512">
	<path fill="#000000" d="M262 -292Q269 -299 277 -299Q285 -299 292 -292.5Q299 -286 299 -277.5Q299 -269 292.5 -262.5Q286 -256 277.5 -256Q269 -256 262.5 -262.5Q256 -269 256 -277Q256 -285 262 -292ZM209 -193Q222 -202 234 -211Q262 -230 272 -231Q282 -232 284 -222Q285 -217 283 -205L273 -165Q257 -107 258.5 -102Q260 -97 268 -100Q272 -102 283 -109L288 -113Q289 -113 291 -111L294 -106Q294 -105 292 -104L259 -81Q245 -72 235 -71Q218 -69 221 -93Q226 -120 237 -160Q244 -188 244 -194Q243 -203 230 -194L214 -184Q212 -183 211.5 -183Q211 -183 210 -185L208 -188Q207 -190 207 -190.5Q207 -191 209 -193ZM107 -384H405Q423 -384 435.5 -371.5Q448 -359 448 -341V-43Q448 -25 435.5 -12.5Q423 0 405 0H107Q89 0 76.5 -12.5Q64 -25 64 -43V-341Q64 -359 76.5 -371.5Q89 -384 107 -384ZM405 -43V-341H107V-43Z"/>
</svg>