<svg xmlns="http://www.w3.org/2000/svg" viewBox="0 -512 512 512">
	<path fill="#000000" d="M107 -384H405Q423 -384 435.5 -371.5Q448 -359 448 -341V-43Q448 -25 435.5 -12.5Q423 0 405 0H107Q89 0 76.5 -12.5Q64 -25 64 -43V-341Q64 -359 76.5 -371.5Q89 -384 107 -384ZM262 -292Q256 -285 256 -277Q256 -269 262.5 -262.5Q269 -256 277.5 -256Q286 -256 292.5 -262.5Q299 -269 299 -277.5Q299 -286 292 -292.5Q285 -299 277 -299Q269 -299 262 -292ZM209 -193Q207 -191 207 -190.5Q207 -190 208 -188L210 -185Q211 -183 211.5 -183Q212 -183 214 -184L230 -194Q243 -203 244 -194Q244 -188 237 -160Q226 -120 221 -93Q218 -69 235 -71Q245 -72 259 -81L292 -104Q294 -105 294 -106L291 -111Q289 -114 287 -112L283 -109Q272 -102 268 -100Q260 -97 258.5 -102Q257 -107 273 -165Q279 -187 283 -203V-205Q285 -217 284 -222Q282 -232 272 -231Q262 -230 234 -211Q221 -202 209 -193Z"/>
</svg>