<svg xmlns="http://www.w3.org/2000/svg" viewBox="0 -512 512 512">
	<path fill="#000000" d="M262 -292Q269 -299 277 -299Q285 -299 292 -292.5Q299 -286 299 -277.5Q299 -269 292.5 -262.5Q286 -256 277.5 -256Q269 -256 262.5 -262.5Q256 -269 256 -277Q256 -285 262 -292ZM209 -193Q222 -202 234 -211Q262 -230 272 -231Q282 -232 284 -222Q285 -217 283 -205L273 -165Q257 -107 258.5 -102Q260 -97 268 -100Q272 -102 283 -109L288 -113Q289 -113 291 -111L294 -106Q294 -105 292 -104L259 -81Q245 -72 235 -71Q218 -69 221 -93Q226 -120 237 -160Q244 -188 244 -194Q243 -203 230 -194L214 -184Q212 -183 211.5 -183Q211 -183 210 -185L208 -188Q207 -190 207 -190.5Q207 -191 209 -193ZM469 -192Q469 -134 440.5 -85Q412 -36 363 -7.5Q314 21 256 21Q198 21 149 -7.5Q100 -36 71.5 -85Q43 -134 43 -192Q43 -250 71.5 -299Q100 -348 149 -376.5Q198 -405 256 -405Q314 -405 363 -376.5Q412 -348 440.5 -299Q469 -250 469 -192ZM427 -192Q427 -238 404 -277.5Q381 -317 341.5 -340Q302 -363 256 -363Q210 -363 170.5 -340Q131 -317 108 -277.5Q85 -238 85 -192Q85 -146 108 -106.5Q131 -67 170.5 -44Q210 -21 256 -21Q302 -21 341.5 -44Q381 -67 404 -106.5Q427 -146 427 -192Z"/>
</svg>