<svg xmlns="http://www.w3.org/2000/svg" viewBox="0 -512 512 512">
	<path fill="#000000" d="M471 11L51 -412L23 -384L87 -320Q66 -294 54.5 -261Q43 -228 43 -192Q43 -134 71.5 -85Q100 -36 149 -7.5Q198 21 256 21Q292 21 325 9.5Q358 -2 384 -23L444 36ZM256 -21Q210 -21 170.5 -44Q131 -67 108 -106.5Q85 -146 85 -192Q85 -244 117 -290L235 -173V-85H277V-130L354 -53Q308 -21 256 -21ZM175 -341L143 -373Q200 -405 257 -405Q314 -405 363 -376.5Q412 -348 440.5 -299Q469 -250 469 -193Q469 -136 437 -79L405 -111Q427 -150 427 -192Q427 -238 404 -277.5Q381 -317 341.5 -340Q302 -363 256 -363Q214 -363 175 -341ZM235 -299H277V-256H235Z"/>
</svg>