<svg xmlns="http://www.w3.org/2000/svg" viewBox="0 -512 512 512">
	<path fill="#000000" d="M166 -405H346Q379 -405 407.5 -388.5Q436 -372 452.5 -343.5Q469 -315 469 -282V-102Q469 -69 452.5 -40.5Q436 -12 407.5 4.5Q379 21 346 21H166Q133 21 104.5 4.5Q76 -12 59.5 -40.5Q43 -69 43 -102V-282Q43 -315 59.5 -343.5Q76 -372 104.5 -388.5Q133 -405 166 -405ZM162 -363Q130 -363 107.5 -340.5Q85 -318 85 -286V-98Q85 -66 107.5 -43.5Q130 -21 162 -21H350Q382 -21 404.5 -43.5Q427 -66 427 -98V-286Q427 -318 404.5 -340.5Q382 -363 350 -363ZM368 -331Q379 -331 387 -323Q395 -315 395 -304Q395 -293 387 -285Q379 -277 368 -277Q357 -277 349 -285Q341 -293 341 -304Q341 -315 349 -323Q357 -331 368 -331ZM256 -299Q285 -299 309.5 -284.5Q334 -270 348.5 -245.5Q363 -221 363 -192Q363 -163 348.5 -138.5Q334 -114 309.5 -99.5Q285 -85 256 -85Q227 -85 202.5 -99.5Q178 -114 163.5 -138.5Q149 -163 149 -192Q149 -221 163.5 -245.5Q178 -270 202.5 -284.5Q227 -299 256 -299ZM256 -256Q229 -256 210.5 -237.5Q192 -219 192 -192Q192 -165 210.5 -146.5Q229 -128 256 -128Q283 -128 301.5 -146.5Q320 -165 320 -192Q320 -219 301.5 -237.5Q283 -256 256 -256Z"/>
</svg>