<svg xmlns="http://www.w3.org/2000/svg" viewBox="0 -512 512 512">
	<path fill="#000000" d="M363 -256H149V-299H363ZM320 -171V-92L388 -53L404 -80L352 -111V-171ZM192 21L232 -5Q253 17 281 30Q309 43 341 43Q382 43 416.5 23Q451 3 471 -31.5Q491 -66 491 -107Q491 -137 479.5 -164Q468 -191 448 -211V-384H64V21L128 -21ZM192 -30L128 -73L107 -58V-341H405V-242Q375 -256 341 -256Q311 -256 284 -245Q257 -234 237 -213H149V-171H206Q192 -140 192 -105.5Q192 -71 208 -40ZM341 0Q312 0 287.5 -14.5Q263 -29 249 -53.5Q235 -78 235 -107Q235 -136 249 -160.5Q263 -185 287.5 -199Q312 -213 341 -213Q370 -213 394.5 -199Q419 -185 433.5 -160.5Q448 -136 448 -107Q448 -78 433.5 -53.5Q419 -29 394.5 -14.5Q370 0 341 0Z"/>
</svg>