<svg xmlns="http://www.w3.org/2000/svg" viewBox="0 -512 512 512">
	<path fill="#000000" d="M320 -92V-171H352V-111L404 -80L388 -53ZM64 21V-384H448V-211Q468 -191 479.5 -164Q491 -137 491 -107Q491 -66 471 -31.5Q451 3 416.5 23Q382 43 341 43Q309 43 281 30Q253 17 232 -5L192 21L128 -21ZM206 -171Q218 -196 237 -213H149V-171ZM363 -256V-299H149V-256ZM341 0Q370 0 394.5 -14.5Q419 -29 433.5 -53.5Q448 -78 448 -107Q448 -136 433.5 -160.5Q419 -185 394.5 -199Q370 -213 341 -213Q312 -213 287.5 -199Q263 -185 249 -160.5Q235 -136 235 -107Q235 -78 249 -53.5Q263 -29 287.5 -14.5Q312 0 341 0Z"/>
</svg>