<svg xmlns="http://www.w3.org/2000/svg" viewBox="0 -512 512 512">
	<path fill="#000000" d="M384 -256H235V-213H384ZM235 -171H341V-128H235ZM469 0L416 -36L363 0L309 -36L256 0L203 -36L149 0V-341H469ZM427 -95V-299H192V-95L256 -51L309 -87L363 -51ZM64 -299Q54 -299 48.5 -293Q43 -287 43 -277.5Q43 -268 48.5 -262Q54 -256 64 -256H107V-299ZM43 -213Q33 -213 27 -207.5Q21 -202 21 -192Q21 -182 27 -176.5Q33 -171 43 -171H107V-213ZM21 -128Q12 -128 6 -122Q0 -116 0 -106.5Q0 -97 6 -91Q12 -85 21 -85H107V-128Z"/>
</svg>