<svg xmlns="http://www.w3.org/2000/svg" viewBox="0 -512 512 512">
	<path fill="#000000" d="M256 -405Q241 -405 224 -403V-345Q240 -348 256 -348Q272 -348 288 -345V-403Q272 -405 256 -405ZM209 -400Q163 -389 125.5 -359Q88 -329 66.5 -285.5Q45 -242 45 -192Q45 -134 73.5 -85Q102 -36 150.5 -7.5Q199 21 256 21Q313 21 361.5 -7.5Q410 -36 438.5 -85Q467 -134 467 -192Q467 -242 445.5 -285.5Q424 -329 386.5 -359Q349 -389 303 -400V-341Q351 -326 382 -285Q413 -244 413 -192Q413 -150 391.5 -114Q370 -78 334 -57Q298 -36 256 -36Q214 -36 178 -57Q142 -78 121 -114Q100 -150 100 -192Q100 -244 130.5 -285Q161 -326 209 -341ZM256 -332Q239 -332 224 -328V-58Q240 -55 256.5 -55Q273 -55 288 -58V-328Q273 -332 256 -332Z"/>
</svg>