<svg xmlns="http://www.w3.org/2000/svg" viewBox="0 -512 512 512">
	<path fill="#000000" d="M448 -320Q421 -320 402.5 -301.5Q384 -283 384 -256V-171Q384 -162 377.5 -155.5Q371 -149 363 -149V-235Q363 -261 344 -280Q325 -299 299 -299H213Q187 -299 168 -280Q149 -261 149 -235H192Q192 -243 198.5 -249.5Q205 -256 213 -256H299Q307 -256 313.5 -249.5Q320 -243 320 -235V-213H128Q93 -213 68 -188Q43 -163 43 -128V-64H363V-107Q389 -107 408 -125.5Q427 -144 427 -171V-256Q427 -265 433 -271Q439 -277 448 -277H469V-320ZM320 -107H85V-128Q85 -146 97.5 -158.5Q110 -171 128 -171H320Z"/>
</svg>