<svg xmlns="http://www.w3.org/2000/svg" viewBox="0 -512 512 512">
	<path fill="#000000" d="M320 -122V-171H235L320 -256H256L320 -320H277L341 -384L405 -320H363L427 -256H363L448 -171H363V-112Q397 -100 420 -82Q443 -64 448 -43Q393 -47 341 -64Q299 -43 256 -43Q236 -43 213 -48.5Q190 -54 171 -64Q119 -47 64 -43Q70 -66 97 -85.5Q124 -105 166 -116.5Q208 -128 256 -128Q289 -128 320 -122ZM171 -43Q161 -40 152 -37Q128 -31 104 -27Q71 -21 43 -21V21Q71 21 104 16Q128 12 152 6L171 0L183 6Q199 12 215 16Q237 21 256 21Q275 21 297 16Q313 12 329 6L341 0L360 6Q384 12 408 16Q441 21 469 21V-21Q429 -21 381 -32Q357 -37 341 -43L329 -37Q313 -31 297 -27Q275 -21 256 -21Q229 -21 197 -32Q181 -37 171 -43Z"/>
</svg>