<svg xmlns="http://www.w3.org/2000/svg" viewBox="0 -512 512 512">
	<path fill="#000000" d="M299 -427H213Q177 -427 152 -420Q132 -415 120 -405Q112 -399 108 -391L107 -384V-128L108 -121Q112 -113 120 -107Q132 -97 152 -92Q177 -85 213 -85V-43H235V-21Q235 2 249 20Q267 43 299 43H384V0H299Q287 0 282 -6.5Q277 -13 277 -21V-43H299V-85Q335 -85 360 -92Q380 -97 392 -107Q400 -113 404 -121L405 -128V-384L404 -391Q400 -399 392 -405Q380 -415 360 -420Q335 -427 299 -427ZM363 -192H299V-213H363ZM363 -341H299V-320H363V-277H299V-256H363V-235H149V-373Q167 -384 213 -384H299Q345 -384 363 -373Z"/>
</svg>