<svg xmlns="http://www.w3.org/2000/svg" viewBox="0 -512 512 512">
	<path fill="#000000" d="M405 -171V-299H427V-363H85V-299H107V-171H43Q43 -155 51 -144Q59 -133 75 -129V-21Q75 -12 81 -6Q87 0 96 0H117Q126 0 132.5 -6Q139 -12 139 -21V-43H373V-21Q373 -12 379.5 -6Q386 0 395 0H416Q425 0 431 -6Q437 -12 437 -21V-129Q453 -133 461 -144Q469 -155 469 -171ZM171 -128Q157 -128 148 -137.5Q139 -147 139 -160Q139 -173 148 -182.5Q157 -192 170.5 -192Q184 -192 193.5 -182.5Q203 -173 203 -160Q203 -147 193.5 -137.5Q184 -128 171 -128ZM341 -128Q328 -128 318.5 -137.5Q309 -147 309 -160Q309 -173 318.5 -182.5Q328 -192 341.5 -192Q355 -192 364 -182.5Q373 -173 373 -160Q373 -147 364 -137.5Q355 -128 341 -128ZM373 -224Q321 -235 256 -235Q189 -235 139 -224V-299H373Z"/>
</svg>