<svg xmlns="http://www.w3.org/2000/svg" viewBox="0 -512 512 512">
	<path fill="#000000" d="M416 -139Q407 -140 400.5 -133.5Q394 -127 395 -117Q395 -111 389.5 -108Q384 -105 378.5 -108Q373 -111 373 -117V-166L410 -177Q421 -183 428.5 -193Q436 -203 437 -215Q437 -272 413 -316Q389 -358 347.5 -381.5Q306 -405 256 -405Q206 -405 164.5 -381.5Q123 -358 99 -316Q75 -272 75 -215Q76 -203 83.5 -192.5Q91 -182 102 -177L139 -166V-117Q139 -113 135.5 -110Q132 -107 128 -107Q124 -107 120.5 -110Q117 -113 117 -117Q118 -127 111.5 -133.5Q105 -140 96 -139Q87 -140 80.5 -133.5Q74 -127 75 -117Q74 -95 89.5 -79Q105 -63 128 -63Q151 -63 166.5 -79Q182 -95 181 -117V-156H203V-34Q203 -27 197.5 -24.5Q192 -22 186.5 -24.5Q181 -27 181 -34Q182 -43 175.5 -50Q169 -57 160 -55Q151 -57 144.5 -50Q138 -43 139 -34Q137 -11 153 5.5Q169 22 192 22Q215 22 230.5 6.5Q246 -9 245 -32V-149H267V-32Q266 -9 281.5 6.5Q297 22 320 22Q343 22 358.5 6.5Q374 -9 373 -32Q373 -45 362.5 -50.5Q352 -56 341.5 -50.5Q331 -45 331 -32Q331 -25 325.5 -22.5Q320 -20 314.5 -22.5Q309 -25 309 -32V-154H331V-115Q331 -93 346.5 -78Q362 -63 384.5 -63Q407 -63 422.5 -79Q438 -95 437 -117Q438 -127 431.5 -133.5Q425 -140 416 -139ZM226 -348Q202 -342 182 -328Q162 -314 149 -292Q147 -289 142.5 -288Q138 -287 134.5 -290Q131 -293 130.5 -297.5Q130 -302 132 -305Q148 -329 171 -345.5Q194 -362 222 -369Q226 -369 229.5 -367Q233 -365 234.5 -360.5Q236 -356 233.5 -352.5Q231 -349 226 -348Z"/>
</svg>