<svg xmlns="http://www.w3.org/2000/svg" viewBox="0 -512 512 512">
	<path fill="#000000" d="M256 -363Q296 -363 327.5 -344.5Q359 -326 377 -293Q395 -260 395 -218Q328 -192 256 -192Q184 -192 117 -218Q117 -260 135 -293Q153 -326 184.5 -344.5Q216 -363 256 -363ZM256 -405Q206 -405 164.5 -381.5Q123 -358 99 -316Q75 -272 75 -215Q76 -203 83.5 -192.5Q91 -182 102 -177L139 -166V-117Q139 -113 135.5 -110Q132 -107 128 -107Q124 -107 120.5 -110Q117 -113 117 -117Q118 -127 111.5 -133.5Q105 -140 96 -139Q87 -140 80.5 -133.5Q74 -127 75 -117Q74 -96 89 -80Q104 -64 126 -64H128Q151 -63 166.5 -79Q182 -95 181 -117V-156H203V-34Q203 -27 197.5 -24.5Q192 -22 186.5 -24.5Q181 -27 181 -34Q182 -43 175.5 -50Q169 -57 160 -55Q151 -57 144.5 -50Q138 -43 139 -34Q137 -12 152 4.5Q167 21 190 21H192Q215 22 230.5 6.5Q246 -9 245 -32V-149H267V-32Q266 -9 281.5 6.5Q297 22 320 21H322Q344 21 359 5.5Q374 -10 373 -32Q373 -45 362.5 -50.5Q352 -56 341.5 -50.5Q331 -45 331 -32Q331 -25 325.5 -22.5Q320 -20 314.5 -22.5Q309 -25 309 -32V-154H331V-115Q331 -93 346.5 -78Q362 -63 384 -64H386Q408 -64 423 -80Q438 -96 437 -117Q437 -131 426.5 -136Q416 -141 405.5 -136Q395 -131 395 -117Q395 -111 389.5 -108Q384 -105 378.5 -108Q373 -111 373 -117V-166L410 -177Q421 -183 428.5 -193Q436 -203 437 -215Q437 -272 413 -316Q389 -358 347.5 -381.5Q306 -405 256 -405ZM256 -316Q232 -309 212.5 -295Q193 -281 179 -260Q175 -255 169 -256Q163 -257 160.5 -262.5Q158 -268 162 -273Q178 -297 201 -313.5Q224 -330 252 -337Q256 -338 260 -335.5Q264 -333 265 -329Q268 -320 256 -316Z"/>
</svg>