<svg xmlns="http://www.w3.org/2000/svg" viewBox="0 -512 512 512">
	<path fill="#000000" d="M488 -226Q466 -207 438 -202.5Q410 -198 383 -207.5Q356 -217 337.5 -239Q319 -261 314.5 -289.5Q310 -318 319.5 -344.5Q329 -371 351 -389L362 -397Q335 -368 333.5 -327.5Q332 -287 358 -256Q384 -225 424 -219.5Q464 -214 498 -235ZM450 -139Q417 -111 375 -103.5Q333 -96 293 -110.5Q253 -125 225 -158.5Q197 -192 190 -233.5Q183 -275 197 -315.5Q211 -356 244 -384L264 -398Q239 -369 229.5 -332Q220 -295 228 -257Q236 -219 261.5 -189Q287 -159 322.5 -144.5Q358 -130 396.5 -132.5Q435 -135 467 -155ZM426 -35Q379 5 320.5 15Q262 25 205.5 4.5Q149 -16 110 -62.5Q71 -109 61 -168Q51 -227 71 -283Q91 -339 138 -378L162 -395Q125 -355 111 -302.5Q97 -250 108 -196.5Q119 -143 155 -100Q191 -57 242 -36.5Q293 -16 347 -20.5Q401 -25 447 -55Z"/>
</svg>