<svg xmlns="http://www.w3.org/2000/svg" viewBox="0 -512 512 512">
	<path fill="#000000" d="M370 -156Q370 -135 354.5 -120.5Q339 -106 317 -106Q300 -106 281 -119Q270 -128 251 -148L245 -154L244 -156Q230 -171 221 -177Q207 -187 196 -187Q182 -187 172 -178Q162 -169 162 -156Q162 -143 172 -133.5Q182 -124 196 -124Q207 -124 215 -130Q220 -132 226 -139L228 -141Q231 -144 235 -144Q239 -144 241.5 -141.5Q244 -139 244 -135.5Q244 -132 242 -129L240 -127Q232 -118 225 -114Q212 -106 196 -106Q174 -106 159 -120.5Q144 -135 144 -156Q144 -177 159.5 -191.5Q175 -206 196 -206Q214 -206 232 -192Q243 -184 263 -163L268 -158L269 -156Q283 -141 293 -134Q306 -124 317 -124Q331 -124 341 -133.5Q351 -143 351 -156Q351 -169 341 -178Q331 -187 317 -187Q307 -187 298 -182Q293 -179 287 -172L285 -171Q283 -168 279 -167.5Q275 -167 272 -170Q269 -173 269 -176.5Q269 -180 272 -183L273 -184Q281 -193 289 -198Q301 -206 317 -206Q339 -206 354.5 -191.5Q370 -177 370 -156ZM469 -131Q469 -95 443 -69Q417 -43 381 -43H134Q97 -43 70.5 -69.5Q44 -96 44 -133Q44 -155 54.5 -175Q65 -195 83 -207Q82 -213 82 -220Q82 -246 101 -265Q120 -284 147 -284Q163 -284 177 -277Q195 -307 225 -324Q255 -341 290 -341Q325 -341 355 -323.5Q385 -306 402.5 -276.5Q420 -247 420 -212V-210Q443 -199 456 -177.5Q469 -156 469 -131ZM451 -131Q451 -153 439 -170.5Q427 -188 407 -196Q401 -199 401 -205L402 -212Q402 -242 387 -267.5Q372 -293 346.5 -308Q321 -323 289.5 -323Q258 -323 230.5 -305.5Q203 -288 189 -260Q188 -256 183.5 -254.5Q179 -253 175 -256Q163 -266 147 -266Q128 -266 114 -252.5Q100 -239 100 -220Q100 -212 102.5 -205.5Q105 -199 98 -195Q82 -185 72.5 -169Q63 -153 63 -133Q63 -104 84 -83Q105 -62 134 -61H380Q410 -61 430.5 -81.5Q451 -102 451 -131Z"/>
</svg>