<svg xmlns="http://www.w3.org/2000/svg" viewBox="0 -512 512 512">
	<path fill="#000000" d="M448 -352V-224Q448 -213 440.5 -203.5Q433 -194 422 -192V-79Q422 -62 416 -46Q407 -25 391 -13Q371 2 341 2H309Q325 -14 331 -30H341Q370 -30 382 -51Q388 -63 388 -77V-192Q377 -194 370 -202.5Q363 -211 363 -224V-352Q363 -365 372.5 -374.5Q382 -384 395 -384H416Q429 -384 438.5 -374.5Q448 -365 448 -352ZM316 -60Q316 -35 298.5 -17.5Q281 0 256 0H171Q141 0 121 -15Q105 -27 96 -48Q90 -64 90 -81V-192Q79 -194 71.5 -203.5Q64 -213 64 -224V-352Q64 -365 73.5 -374.5Q83 -384 96 -384H117Q130 -384 139.5 -374.5Q149 -365 149 -352V-224Q149 -213 142 -203.5Q135 -194 124 -192V-79Q124 -64 130 -52Q142 -32 171 -32H205Q198 -45 198 -58V-271Q198 -295 215.5 -313Q233 -331 258.5 -331Q284 -331 300 -314Q316 -297 316 -271ZM282 -273Q282 -283 274.5 -291Q267 -299 256 -299Q245 -299 237.5 -291Q230 -283 230 -273V-60Q230 -49 238 -41.5Q246 -34 256 -34Q266 -34 274 -42Q282 -50 282 -60Z"/>
</svg>