<svg xmlns="http://www.w3.org/2000/svg" viewBox="0 -512 512 512">
	<path fill="#000000" d="M239 -222Q271 -190 316 -190L318 -145Q257 -145 209 -190L194 -205L145 -154L192 -109V19H149V-92L122 -117V-70L32 21L2 -9L79 -85L53 -160Q48 -177 66 -192L137 -262Q148 -277 166 -277Q180 -277 190 -271ZM512 -194H469V-267L431 -282L450 -188L471 -77L491 17H446L407 -154L363 -111V17H320V-143L365 -186L352 -250Q329 -226 307 -215Q276 -219 254 -241Q303 -250 326 -290L348 -324Q357 -340 371.5 -344.5Q386 -349 403 -341L512 -294ZM243 -354Q261 -354 273.5 -341.5Q286 -329 286 -311.5Q286 -294 273.5 -281.5Q261 -269 243.5 -269Q226 -269 213.5 -281.5Q201 -294 201 -311.5Q201 -329 213.5 -341.5Q226 -354 243 -354ZM352 -442Q370 -442 382.5 -429.5Q395 -417 395 -399Q395 -381 382.5 -368.5Q370 -356 352 -356Q334 -356 321.5 -368.5Q309 -381 309 -399Q309 -417 321.5 -429.5Q334 -442 352 -442Z"/>
</svg>