<svg xmlns="http://www.w3.org/2000/svg" viewBox="0 -512 512 512">
	<path fill="#000000" d="M405 -213L341 -277L297 -233Q254 -256 203 -256Q145 -256 97 -226Q85 -240 85 -256Q85 -275 101 -291Q117 -307 144 -316Q171 -325 203 -325Q250 -325 284 -306L327 -349Q302 -366 270 -375Q238 -384 203 -384Q153 -384 111.5 -367Q70 -350 45.5 -320.5Q21 -291 21 -256Q21 -217 52 -185Q21 -145 21 -96V-21Q21 -4 33.5 8.5Q46 21 64 21H341Q359 21 371.5 8.5Q384 -4 384 -21V-96Q384 -136 363 -171ZM107 -75V-21H64V-75Q64 -112 82.5 -144Q101 -176 133 -194.5Q165 -213 203 -213Q211 -213 224 -211Q174 -204 140.5 -165Q107 -126 107 -75ZM491 -292Q491 -266 475 -243Q459 -220 435 -214L405 -243H421Q436 -243 447.5 -260Q459 -277 459 -294Q459 -311 447 -324.5Q435 -338 419 -338V-370Q448 -370 469.5 -346Q491 -322 491 -292ZM377 -304Q355 -325 355 -355Q355 -385 376 -406Q397 -427 427 -427V-395Q411 -395 399 -383Q387 -371 387 -355Q387 -339 399 -327.5Q411 -316 427 -316V-284Q401 -284 380 -269L357 -292Q366 -299 377 -304Z"/>
</svg>