<svg xmlns="http://www.w3.org/2000/svg" viewBox="0 -512 512 512">
	<path fill="#000000" d="M346 -220L358 -271Q362 -282 362 -295Q363 -316 352 -333Q332 -363 277 -363H235Q180 -363 160 -333Q144 -309 153 -272L166 -220Q148 -202 138 -178.5Q128 -155 128 -128Q128 -95 143.5 -67Q159 -39 186 -21H326Q353 -39 368.5 -67Q384 -95 384 -128Q384 -155 374 -178.5Q364 -202 346 -220ZM205 -245L194 -282L193 -292Q192 -302 196 -307Q203 -320 235 -320H277Q307 -320 318 -309Q322 -304 321 -294L320 -286L309 -245Q281 -256 255.5 -256Q230 -256 205 -245Z"/>
</svg>