<svg xmlns="http://www.w3.org/2000/svg" viewBox="0 -512 512 512">
	<path fill="#000000" d="M203 -384Q153 -384 111.5 -366.5Q70 -349 45.5 -320Q21 -291 21 -256Q21 -219 51 -186Q21 -146 21 -96V-21Q21 -4 33.5 8.5Q46 21 64 21H341Q359 21 371.5 8.5Q384 -4 384 -21V-96Q384 -137 363 -171L405 -213L341 -277L297 -233Q253 -256 203 -256Q174 -256 146.5 -248Q119 -240 98 -226Q85 -239 85 -257Q85 -275 101 -290.5Q117 -306 144 -315Q171 -324 203 -324Q252 -324 284 -305L326 -348Q303 -365 270.5 -374.5Q238 -384 203 -384ZM203 -213Q218 -213 224 -211Q174 -203 140.5 -165Q107 -127 107 -75V-21H64V-75Q64 -112 82.5 -144Q101 -176 133 -194.5Q165 -213 203 -213ZM448 -171V-299H491V-171ZM448 -85V-128H491V-85Z"/>
</svg>