<svg xmlns="http://www.w3.org/2000/svg" viewBox="0 -512 512 512">
	<path fill="#000000" d="M471 11L51 -412L23 -384L100 -307Q85 -281 85 -256Q85 -219 115 -186Q85 -146 85 -96V-21Q85 -4 97.5 8.5Q110 21 128 21H405Q412 21 425 17L444 36ZM175 -233L162 -226Q149 -239 149 -256V-258ZM128 -21V-96Q128 -125 150.5 -154.5Q173 -184 207 -201L233 -175Q203 -165 187 -142.5Q171 -120 171 -85V-64H213V-85Q213 -107 217 -122Q224 -148 243 -164L386 -21ZM361 -233L405 -277L469 -213L427 -171Q448 -137 448 -96V-68L403 -113Q397 -142 371.5 -168Q346 -194 311 -205L260 -256Q311 -259 361 -233ZM203 -314L158 -358Q209 -384 267 -384Q339 -384 390 -348L348 -305Q331 -315 310 -320.5Q289 -326 267 -326Q228 -326 203 -314Z"/>
</svg>