<svg xmlns="http://www.w3.org/2000/svg" viewBox="0 -512 512 512">
	<path fill="#000000" d="M471 11L51 -412L23 -384L100 -307Q85 -281 85 -256Q85 -219 115 -186Q85 -146 85 -96V-21Q85 -4 97.5 8.5Q110 21 128 21H405Q412 21 425 17L444 36ZM175 -233L162 -226Q149 -239 149 -256V-258ZM171 -75V-21H128V-75Q128 -116 149.5 -149.5Q171 -183 207 -201L224 -183Q199 -164 185 -135.5Q171 -107 171 -75ZM361 -233L405 -277L469 -213L427 -171Q448 -137 448 -96V-68L260 -256H267Q317 -256 361 -233ZM203 -314L158 -358Q209 -384 267 -384Q302 -384 334.5 -374.5Q367 -365 390 -348L348 -305Q316 -324 267 -324Q227 -324 203 -314Z"/>
</svg>