<svg xmlns="http://www.w3.org/2000/svg" viewBox="0 -512 512 512">
	<path fill="#000000" d="M160 -384Q120 -384 92 -356Q64 -328 64 -288Q64 -248 92 -220Q120 -192 160 -192Q192 -192 216 -209.5Q240 -227 250 -256H320V-192H384V-256H448V-320H250Q240 -349 216 -366.5Q192 -384 160 -384ZM160 -320Q173 -320 182.5 -310.5Q192 -301 192 -288Q192 -275 182.5 -265.5Q173 -256 160 -256Q147 -256 137.5 -265.5Q128 -275 128 -288Q128 -301 137.5 -310.5Q147 -320 160 -320ZM256 -149L233 -94L171 -87L218 -47L203 13L256 -19L307 13L294 -47L341 -87L279 -92Z"/>
</svg>