<svg xmlns="http://www.w3.org/2000/svg" viewBox="0 -512 512 512">
	<path fill="#000000" d="M160 -384Q120 -384 92 -356Q64 -328 64 -288Q64 -248 92 -220Q120 -192 160 -192Q192 -192 216 -209.5Q240 -227 250 -256H320V-192H384V-256H448V-320H250Q240 -349 216 -366.5Q192 -384 160 -384ZM160 -320Q173 -320 182.5 -310.5Q192 -301 192 -288Q192 -275 182.5 -265.5Q173 -256 160 -256Q147 -256 137.5 -265.5Q128 -275 128 -288Q128 -301 137.5 -310.5Q147 -320 160 -320ZM213 -149Q194 -149 176 -141Q155 -131 143 -114Q128 -93 128 -64Q128 -35 143 -14Q155 3 176 13Q194 21 213 21H235V-21H213Q200 -21 190 -27Q171 -38 171 -63.5Q171 -89 188 -100Q199 -107 213 -107H235V-149ZM277 -149V-107H299Q312 -107 322 -101Q341 -90 341 -64.5Q341 -39 324 -28Q313 -21 299 -21H277V21H299Q318 21 336 13Q357 3 369 -14Q384 -35 384 -64Q384 -93 369 -114Q357 -131 336 -141Q318 -149 299 -149ZM192 -85V-43H320V-85Z"/>
</svg>