<svg xmlns="http://www.w3.org/2000/svg" viewBox="0 -512 512 512">
	<path fill="#000000" d="M270 -156Q255 -141 235 -134V43H171V0H107V-64H171V-134Q142 -144 124.5 -168.5Q107 -193 107 -224Q107 -264 135 -292Q163 -320 203 -320H205Q189 -288 193 -254Q183 -251 177 -242.5Q171 -234 171 -224Q171 -211 180 -201.5Q189 -192 203 -192Q209 -192 217 -195Q237 -168 270 -156ZM442 -33L383 -9L367 -48L308 -23L283 -82L342 -107L315 -171Q285 -169 259 -185Q233 -201 221 -229Q205 -266 220.5 -303Q236 -340 272 -355Q278 -358 288 -360Q277 -380 257 -392.5Q237 -405 213 -405Q178 -405 153 -380Q128 -355 128 -320V-315Q118 -306 110 -295Q107 -309 107 -320Q107 -349 121 -373.5Q135 -398 159.5 -412.5Q184 -427 213 -427Q242 -427 266.5 -412.5Q291 -398 305.5 -373.5Q320 -349 320 -320Q320 -298 311.5 -278.5Q303 -259 287 -244Q294 -237 303 -235Q312 -233 322 -237Q334 -242 339 -254.5Q344 -267 339 -279Q338 -282 336 -285Q341 -303 341 -320Q341 -340 335 -359Q356 -353 372.5 -338.5Q389 -324 398 -304Q410 -275 403 -245.5Q396 -216 373 -196ZM277 -265Q289 -278 295 -295Q286 -291 281.5 -282.5Q277 -274 277 -265Z"/>
</svg>