<svg xmlns="http://www.w3.org/2000/svg" viewBox="0 -512 512 512">
	<path fill="#000000" d="M469 -64V21H384V-43H320V-107H256L208 -155Q190 -149 171 -149Q145 -149 121.5 -159Q98 -169 80 -187Q62 -205 52.5 -228.5Q43 -252 43 -277Q43 -312 60 -341.5Q77 -371 106.5 -388Q136 -405 170.5 -405Q205 -405 234.5 -388Q264 -371 281.5 -341.5Q299 -312 299 -277Q299 -258 293 -240ZM149 -341Q132 -341 119.5 -328.5Q107 -316 107 -298.5Q107 -281 119.5 -268.5Q132 -256 149.5 -256Q167 -256 179.5 -268.5Q192 -281 192 -298.5Q192 -316 179.5 -328.5Q167 -341 149 -341Z"/>
</svg>