<svg xmlns="http://www.w3.org/2000/svg" viewBox="0 -512 512 512">
	<path fill="#000000" d="M105 -322L134 -292Q167 -325 211 -336.5Q255 -348 299 -336.5Q343 -325 375 -292L405 -322Q365 -363 310.5 -377.5Q256 -392 200.5 -377.5Q145 -363 105 -322ZM166 -260L196 -230Q222 -256 257 -256Q292 -256 318 -230L348 -260Q323 -285 289.5 -294Q256 -303 223.5 -294Q191 -285 166 -260ZM252 -128Q243 -152 223.5 -168.5Q204 -185 179 -190Q154 -195 130 -185.5Q106 -176 89 -156.5Q72 -137 66.5 -112.5Q61 -88 70 -64Q85 -27 120.5 -9.5Q156 8 192 -6Q213 -14 228 -29.5Q243 -45 250 -64H320V0H384V-64H448V-128ZM160 -64Q147 -64 137.5 -73.5Q128 -83 128 -96Q128 -109 137.5 -118.5Q147 -128 160 -128Q173 -128 182.5 -118.5Q192 -109 192 -96Q192 -83 182.5 -73.5Q173 -64 160 -64Z"/>
</svg>