<svg xmlns="http://www.w3.org/2000/svg" viewBox="0 -512 512 512">
	<path fill="#000000" d="M160 -384Q192 -384 216 -366.5Q240 -349 250 -320H448V-256H384V-192H320V-256H250Q240 -227 215 -209.5Q190 -192 160 -192Q120 -192 92 -220Q64 -248 64 -288Q64 -328 92 -356Q120 -384 160 -384ZM160 -320Q147 -320 137.5 -310.5Q128 -301 128 -288Q128 -275 137.5 -265.5Q147 -256 160 -256Q173 -256 182.5 -265.5Q192 -275 192 -288Q192 -301 182.5 -310.5Q173 -320 160 -320ZM311 -149L341 -119L286 -64L341 -9L311 21L256 -34L201 21L171 -9L226 -64L171 -119L201 -149L256 -94Z"/>
</svg>