<svg xmlns="http://www.w3.org/2000/svg" viewBox="0 -512 512 512">
	<path fill="#000000" d="M270 -156Q258 -145 245 -139V0L203 43L160 0L203 -36L171 -64L203 -92L160 -128V-139Q136 -151 121.5 -173.5Q107 -196 107 -224Q107 -264 135 -292Q163 -320 203 -320H205L203 -316Q194 -297 193 -276Q183 -272 177 -264Q171 -256 171 -245Q171 -232 180 -222.5Q189 -213 203 -213H205Q215 -193 232 -178.5Q249 -164 270 -156ZM341 -320Q341 -340 335 -359Q357 -353 374 -337.5Q391 -322 400 -300Q409 -273 403 -246.5Q397 -220 379 -201L427 -71L401 -16L346 -42L373 -90L334 -105L355 -142L302 -162L299 -172Q272 -175 250.5 -191.5Q229 -208 219.5 -233Q210 -258 214.5 -283.5Q219 -309 235.5 -328.5Q252 -348 276 -357L288 -360Q277 -380 257 -392.5Q237 -405 213 -405Q178 -405 153 -380Q128 -355 128 -320Q128 -316 129 -314Q117 -305 110 -295Q107 -309 107 -320Q107 -349 121 -373.5Q135 -398 159.5 -412.5Q184 -427 213 -427Q242 -427 266.5 -412.5Q291 -398 305.5 -373.5Q320 -349 320 -320Q320 -284 297 -255Q326 -257 336 -289Q342 -305 341 -320ZM273 -275Q275 -271 279 -266Q298 -288 299 -318L292 -316Q280 -311 274 -299Q268 -287 273 -275Z"/>
</svg>