<svg xmlns="http://www.w3.org/2000/svg" viewBox="0 -512 512 512">
	<path fill="#000000" d="M160 -405Q192 -405 216 -387.5Q240 -370 250 -341H448V-277H384V-213H320V-277H250Q240 -249 215 -231Q190 -213 160 -213Q120 -213 92 -241Q64 -269 64 -309Q64 -349 92 -377Q120 -405 160 -405ZM160 -341Q147 -341 137.5 -331.5Q128 -322 128 -309.5Q128 -297 137.5 -287Q147 -277 160 -277Q173 -277 182.5 -287Q192 -297 192 -309.5Q192 -322 182.5 -331.5Q173 -341 160 -341ZM160 -171Q192 -171 216 -153.5Q240 -136 250 -107H448V-43H427V21H384V-43H341V21H277V-43H250Q240 -14 215 3.5Q190 21 160 21Q120 21 92 -7Q64 -35 64 -75Q64 -115 92 -143Q120 -171 160 -171ZM160 -107Q147 -107 137.5 -97Q128 -87 128 -74.5Q128 -62 137.5 -52.5Q147 -43 160 -43Q173 -43 182.5 -52.5Q192 -62 192 -74.5Q192 -87 182.5 -97Q173 -107 160 -107Z"/>
</svg>