<svg xmlns="http://www.w3.org/2000/svg" viewBox="0 -512 512 512">
	<path fill="#000000" d="M405 -235H363V-277H405ZM405 -171H363V-213H405ZM341 -235H299V-277H341ZM341 -171H299V-213H341ZM341 -85H171V-128H341ZM149 -235H107V-277H149ZM149 -171H107V-213H149ZM171 -213H213V-171H171ZM171 -277H213V-235H171ZM235 -213H277V-171H235ZM235 -277H277V-235H235ZM427 -341H85Q68 -341 55.5 -328.5Q43 -316 43 -299V-85Q43 -68 55.5 -55.5Q68 -43 85 -43H427Q444 -43 456.5 -55.5Q469 -68 469 -85V-299Q469 -316 456.5 -328.5Q444 -341 427 -341ZM149 21H192V64H149ZM235 21H277V64H235ZM320 21H363V64H320Z"/>
</svg>