<svg xmlns="http://www.w3.org/2000/svg" viewBox="0 -512 512 512">
	<path fill="#000000" d="M256 43L341 -43H171ZM85 -384Q68 -384 55.5 -371.5Q43 -359 43 -341V-128Q43 -110 55.5 -97.5Q68 -85 85 -85H427Q444 -85 456.5 -97.5Q469 -110 469 -128V-341Q469 -359 456.5 -371.5Q444 -384 427 -384ZM85 -341H427V-128H85ZM107 -320V-277H149V-320ZM171 -320V-277H213V-320ZM235 -320V-277H277V-320ZM299 -320V-277H341V-320ZM363 -320V-277H405V-320ZM107 -256V-213H149V-256ZM171 -256V-213H213V-256ZM235 -256V-213H277V-256ZM299 -256V-213H341V-256ZM363 -256V-213H405V-256ZM171 -192V-149H341V-192Z"/>
</svg>