<svg xmlns="http://www.w3.org/2000/svg" viewBox="0 -512 512 512">
	<path fill="#000000" d="M21 -357L53 -326Q43 -314 43 -299V-85Q43 -68 55.5 -55.5Q68 -43 85 -43H336L400 21L427 -6L49 -384ZM85 -85V-293L107 -272V-235H144L171 -208V-171H208L229 -149H171V-107H272L293 -85ZM107 -213H149V-171H107ZM363 -213H405V-171H363ZM405 -235H363V-277H405ZM299 -213H341V-171H316L299 -188ZM277 -235H252L235 -252V-277H277ZM469 -299V-85Q469 -72 461.5 -61Q454 -50 442 -45L402 -85H427V-299H188L146 -341H427Q444 -341 456.5 -328.5Q469 -316 469 -299ZM341 -235H299V-277H341Z"/>
</svg>