<svg xmlns="http://www.w3.org/2000/svg" viewBox="0 -512 512 512">
	<path fill="#000000" d="M21 -299H149V-256H64V-213H149V-171H64V-128H149V-85H21ZM235 -299H320V-256H235V-213H277Q295 -213 307.5 -200.5Q320 -188 320 -171V-128Q320 -110 307.5 -97.5Q295 -85 277 -85H192V-128H277V-171H235Q217 -171 204.5 -183.5Q192 -196 192 -213V-256Q192 -274 204.5 -286.5Q217 -299 235 -299ZM405 -299H448Q466 -299 478.5 -286.5Q491 -274 491 -256V-235H448V-256H405V-128H448V-149H491V-128Q491 -110 478.5 -97.5Q466 -85 448 -85H405Q388 -85 375.5 -97.5Q363 -110 363 -128V-256Q363 -274 375.5 -286.5Q388 -299 405 -299Z"/>
</svg>