<svg xmlns="http://www.w3.org/2000/svg" viewBox="0 -512 512 512">
	<path fill="#000000" d="M128 -107H384V-64H128ZM128 -171V-128H43V-171ZM149 -128V-171H213V-128ZM235 -128V-171H277V-128ZM299 -128V-171H363V-128ZM384 -128V-171H469V-128ZM43 -235H107V-192H43ZM405 -192V-235H469V-192ZM384 -192H341V-235H384ZM171 -192H128V-235H171ZM256 -192H192V-235H256ZM320 -192H277V-235H320ZM43 -256V-299H85V-256ZM107 -256V-299H149V-256ZM171 -256V-299H213V-256ZM235 -256V-299H277V-256ZM299 -256V-299H341V-256ZM363 -256V-299H469V-256Z"/>
</svg>