<svg xmlns="http://www.w3.org/2000/svg" viewBox="0 -512 512 512">
	<path fill="#000000" d="M21 -357L49 -384L427 -6L400 21L336 -43H85Q68 -43 55.5 -55.5Q43 -68 43 -85V-299Q43 -314 52 -326ZM405 -235V-277H363V-235ZM405 -171V-213H363V-171ZM341 -235V-277H299V-235ZM341 -171V-213H299V-188L252 -235H277V-277H235V-252L145 -341H427Q444 -341 456.5 -328.5Q469 -316 469 -299V-85Q469 -72 461.5 -61Q454 -50 442 -45L316 -171ZM171 -128V-85H293L250 -128ZM107 -235H144L107 -272ZM149 -171V-213H107V-171ZM171 -171H208L171 -208Z"/>
</svg>