<svg xmlns="http://www.w3.org/2000/svg" viewBox="0 -512 512 512">
	<path fill="#000000" d="M85 -341Q68 -341 55.5 -328.5Q43 -316 43 -299V-85Q43 -68 55.5 -55.5Q68 -43 85 -43H427Q444 -43 456.5 -55.5Q469 -68 469 -85V-299Q469 -316 456.5 -328.5Q444 -341 427 -341ZM85 -299H427V-85H85ZM107 -277V-235H149V-277ZM171 -277V-235H213V-277ZM235 -277V-235H277V-277ZM299 -277V-235H341V-277ZM363 -277V-235H405V-277ZM107 -213V-171H149V-213ZM171 -213V-171H213V-213ZM235 -213V-171H277V-213ZM299 -213V-171H341V-213ZM363 -213V-171H405V-213ZM171 -149V-107H341V-149Z"/>
</svg>