<svg xmlns="http://www.w3.org/2000/svg" viewBox="0 -512 512 512">
	<path fill="#000000" d="M412 -230L373 -192L412 -154Q432 -134 438.5 -107.5Q445 -81 438.5 -54.5Q432 -28 412 -8.5Q392 11 365.5 18Q339 25 312.5 18Q286 11 266 -9L252 -23Q238 -2 215.5 9.5Q193 21 166 21Q139 21 115.5 7.5Q92 -6 78 -29.5Q64 -53 64 -81V-303Q64 -331 78 -354.5Q92 -378 115.5 -391.5Q139 -405 166 -405Q193 -405 215 -393.5Q237 -382 252 -361L266 -375Q286 -395 312.5 -402Q339 -409 365.5 -402Q392 -395 412 -375.5Q432 -356 438.5 -329.5Q445 -303 438.5 -276.5Q432 -250 412 -230Z"/>
</svg>