<svg xmlns="http://www.w3.org/2000/svg" viewBox="0 -512 512 512">
	<path fill="#000000" d="M405 -384Q377 -384 358 -376Q322 -360 305 -318Q297 -320 277 -320H235Q215 -320 207 -318Q190 -360 154 -376Q135 -384 107 -384Q92 -384 75 -375Q52 -362 39 -337Q21 -305 21 -256Q21 -205 52 -177Q73 -158 107 -151V-128Q107 -93 124 -64Q141 -35 170.5 -17.5Q200 0 235 0H277Q312 0 341.5 -17.5Q371 -35 388 -64Q405 -93 405 -128V-151Q439 -158 460 -177Q491 -205 491 -256Q491 -305 473 -337Q460 -362 437 -375Q420 -384 405 -384ZM107 -192V-183Q86 -189 78 -206Q72 -220 76.5 -236.5Q81 -253 92 -262Q88 -267 75 -263Q69 -262 66.5 -262Q64 -262 64 -265Q64 -271 84 -282Q97 -288 109 -292Q106 -298 90 -301Q83 -302 80 -303Q77 -304 77 -307Q77 -313 93 -318Q109 -323 124 -320Q144 -316 158 -305Q134 -283 121 -256Q107 -226 107 -192ZM181 -128Q161 -128 153 -144Q145 -160 153 -176Q161 -192 181 -192Q201 -192 209 -176Q217 -160 209 -144Q201 -128 181 -128ZM267 -64H245Q234 -64 227.5 -73Q221 -82 226 -92L241 -156Q244 -166 258 -171Q269 -171 275 -156L290 -92Q292 -82 285 -73Q278 -64 267 -64ZM331 -128Q311 -128 303 -144Q295 -160 303 -176Q311 -192 331 -192Q351 -192 359 -176Q367 -160 359 -144Q351 -128 331 -128ZM420 -265Q431 -256 435.5 -239Q440 -222 434 -208Q426 -192 405 -186Q407 -220 393 -252Q379 -284 354 -305Q368 -316 388 -320Q404 -323 419.5 -318.5Q435 -314 435 -307Q435 -304 431.5 -303Q428 -302 421 -301Q406 -299 403 -294L413 -289Q448 -273 448 -265Q448 -262 445.5 -262Q443 -262 438 -264Q425 -268 420 -265Z"/>
</svg>