<svg xmlns="http://www.w3.org/2000/svg" viewBox="0 -512 512 512">
	<path fill="#000000" d="M341 -85H107V-299H341L417 -192ZM376 -323Q370 -332 361 -336.5Q352 -341 341 -341H107Q89 -341 76.5 -328.5Q64 -316 64 -299V-85Q64 -68 76.5 -55.5Q89 -43 107 -43H341Q352 -43 361 -47.5Q370 -52 376 -61L469 -192ZM294 -277L320 -252L175 -107L149 -132ZM180 -277Q193 -277 202 -268Q211 -259 211 -246.5Q211 -234 202 -225Q193 -216 180.5 -216Q168 -216 159 -225Q150 -234 150 -246.5Q150 -259 159 -268Q168 -277 180 -277ZM289 -168Q302 -168 310.5 -159Q319 -150 319 -137.5Q319 -125 310.5 -116Q302 -107 289.5 -107Q277 -107 268 -116Q259 -125 259 -137.5Q259 -150 268 -159Q277 -168 289 -168Z"/>
</svg>