<svg xmlns="http://www.w3.org/2000/svg" viewBox="0 -512 512 512">
	<path fill="#000000" d="M256 -341Q280 -341 302 -335L337 -396Q341 -403 349.5 -405.5Q358 -408 366 -403.5Q374 -399 376 -390.5Q378 -382 373 -374L341 -319Q381 -295 404 -256H108Q131 -295 171 -319L139 -374Q134 -382 136 -390.5Q138 -399 146 -403.5Q154 -408 162.5 -405.5Q171 -403 175 -396L210 -335Q232 -341 256 -341ZM427 -171Q427 -127 406.5 -89.5Q386 -52 350.5 -28.5Q315 -5 272 -1V-224H418Q427 -198 427 -171ZM85 -171Q85 -198 94 -224H240V-1Q197 -5 161.5 -28.5Q126 -52 105.5 -89.5Q85 -127 85 -171Z"/>
</svg>