<svg xmlns="http://www.w3.org/2000/svg" viewBox="0 -512 512 512">
	<path fill="#000000" d="M85 -427Q68 -427 55.5 -414.5Q43 -402 43 -384V-299Q43 -281 55.5 -268.5Q68 -256 85 -256H21V-213H277V-256H213Q231 -256 243.5 -268.5Q256 -281 256 -299V-384Q256 -402 243.5 -414.5Q231 -427 213 -427ZM85 -384H213V-299H85ZM64 -171V-64V-21H213V-64H107V-171ZM299 -171Q281 -171 268.5 -158.5Q256 -146 256 -128V-43Q256 -25 268.5 -12.5Q281 0 299 0H235V43H491V0H427Q444 0 456.5 -12.5Q469 -25 469 -43V-128Q469 -146 456.5 -158.5Q444 -171 427 -171ZM299 -128H427V-43H299Z"/>
</svg>