<svg xmlns="http://www.w3.org/2000/svg" viewBox="0 -512 512 512">
	<path fill="#000000" d="M427 -405H85Q68 -405 55.5 -392.5Q43 -380 43 -363V-21Q43 -4 55.5 8.5Q68 21 85 21H427Q444 21 456.5 8.5Q469 -4 469 -21V-363Q469 -380 456.5 -392.5Q444 -405 427 -405ZM427 -256Q427 -227 412.5 -202.5Q398 -178 373.5 -163.5Q349 -149 320 -149Q291 -149 266.5 -163.5Q242 -178 227.5 -202.5Q213 -227 213 -256Q213 -285 227.5 -309.5Q242 -334 266.5 -348.5Q291 -363 320 -363Q349 -363 373.5 -348.5Q398 -334 412.5 -309.5Q427 -285 427 -256ZM85 -363H171V-149H85ZM85 -21V-107H171V-21ZM427 -21H213V-107H427Z"/>
</svg>