<svg xmlns="http://www.w3.org/2000/svg" viewBox="0 -512 512 512">
	<path fill="#000000" d="M85 -405H427Q444 -405 456.5 -392.5Q469 -380 469 -363V-235H213V-21H310Q316 -12 322 -3Q331 10 340 21H85Q68 21 55.5 8.5Q43 -4 43 -21V-363Q43 -380 55.5 -392.5Q68 -405 85 -405ZM171 -363H85V-149H171ZM85 -107V-21H171V-107ZM213 -277H427V-363H213ZM395 21Q391 17 387 12Q377 0 368 -13L361 -21Q320 -80 320 -117Q320 -148 342 -170Q364 -192 395 -192Q411 -192 427 -185Q446 -175 457.5 -157Q469 -139 469 -117Q469 -78 422 -13Q413 0 403 12ZM369 -115Q369 -105 376.5 -97.5Q384 -90 395 -90Q406 -90 414 -98Q422 -106 421 -115.5Q420 -125 412 -133Q404 -141 394.5 -141Q385 -141 377 -133.5Q369 -126 369 -115Z"/>
</svg>