<svg xmlns="http://www.w3.org/2000/svg" viewBox="0 -512 512 512">
	<path fill="#000000" d="M224 -107L233 -55Q225 -51 206.5 -47Q188 -43 163 -43Q93 -44 57 -84.5Q21 -125 21 -188Q23 -261 65 -301Q107 -341 169 -341Q193 -341 210.5 -337Q228 -333 236 -329L224 -276L201 -283Q189 -286 172 -286Q135 -286 110.5 -262.5Q86 -239 85 -191Q85 -148 108 -123Q131 -98 172 -98L201 -100Q213 -103 224 -107ZM235 -213H277V-256H320V-213H363V-171H320V-128H277V-171H235ZM384 -213H427V-256H469V-213H512V-171H469V-128H427V-171H384Z"/>
</svg>