<svg xmlns="http://www.w3.org/2000/svg" viewBox="0 -512 512 512">
	<path fill="#000000" d="M408 -288Q434 -288 451.5 -270Q469 -252 469 -227V-146Q469 -121 451.5 -103Q434 -85 408 -85H256Q256 -79 260.5 -72Q265 -65 271 -65H363V-29Q363 -4 345 14Q327 32 302 32H210Q185 32 167 14Q149 -4 149 -29V-109Q149 -134 167 -152Q185 -170 210 -170H322Q348 -170 365.5 -188Q383 -206 383 -231V-288ZM317 -36Q310 -36 306 -31.5Q302 -27 302 -18Q302 -9 306 -5.5Q310 -2 316.5 -2Q323 -2 327.5 -6.5Q332 -11 332 -17Q332 -27 328 -31.5Q324 -36 317 -36ZM104 -75Q78 -75 60.5 -92.5Q43 -110 43 -136V-216Q43 -242 60.5 -259.5Q78 -277 104 -277H256Q256 -284 251.5 -291Q247 -298 241 -298H149V-334Q149 -359 167 -377Q185 -395 210 -395H302Q327 -395 345 -377Q363 -359 363 -334V-254Q363 -228 345 -210.5Q327 -193 302 -193H190Q164 -193 146.5 -175Q129 -157 129 -132V-75ZM195 -326Q202 -326 206 -331Q210 -336 210 -345Q210 -354 206 -357Q202 -360 195 -360Q188 -360 184 -357Q180 -354 180 -345Q180 -336 184 -331Q188 -326 195 -326Z"/>
</svg>