<svg xmlns="http://www.w3.org/2000/svg" viewBox="0 -512 512 512">
	<path fill="#000000" d="M365 -27Q326 -5 276.5 -4Q227 -3 176 -25Q134 -43 100 -72.5Q66 -102 43 -139Q62 -123 92 -109Q145 -84 196 -84.5Q247 -85 286 -109Q200 -175 107 -295Q100 -302 88 -320L83 -327Q139 -286 198 -237Q219 -219 220 -220.5Q221 -222 203 -246Q166 -300 135 -348Q200 -283 275 -226Q312 -198 336 -183L344 -179Q347 -187 349 -195Q362 -240 349.5 -289.5Q337 -339 305 -383Q353 -354 387 -310Q421 -266 434 -216.5Q447 -167 435 -122Q434 -117 434 -114Q448 -97 456 -78Q464 -62 467 -45Q470 -31 469.5 -20Q469 -9 467 -4Q465 1 463 -2Q446 -36 413 -38Q393 -39 365 -27Z"/>
</svg>