<svg xmlns="http://www.w3.org/2000/svg" viewBox="0 -512 512 512">
	<path fill="#000000" d="M361 -279L412 -192L362 -105L348 -128L380 -181Q386 -192 380 -202L348 -256ZM361 -308Q360 -308 359 -307L332 -259Q330 -257 332 -254L367 -194Q368 -192 367 -189L332 -130Q331 -128 332 -125L359 -78Q360 -76 361 -76Q362 -76 363 -77L427 -187Q429 -192 427 -196L363 -307Q363 -308 361 -308ZM467 -199L368 -372Q363 -379 355 -379H155Q147 -379 143 -372L43 -199Q39 -192 43 -185L143 -12Q147 -5 155 -5H355Q363 -5 368 -12L467 -185Q472 -192 467 -199ZM156 -364H344L251 -199H148L232 -345Q233 -346 232 -347.5Q231 -349 230 -349H175Q173 -349 171 -346L86 -199H61ZM132 -182L208 -51H181L100 -192L181 -333H208L130 -199Q128 -192 131 -185ZM156 -20L61 -185H86L171 -38Q173 -35 175 -35H230Q231 -35 232 -36.5Q233 -38 232 -39L148 -185H251L345 -20ZM358 -27L264 -192L358 -358L454 -192Z"/>
</svg>