<svg xmlns="http://www.w3.org/2000/svg" viewBox="0 -512 512 512">
	<path fill="#000000" d="M439 -64H73Q61 -64 52 -73Q43 -82 43 -94V-290Q43 -302 52 -311Q61 -320 73 -320H439Q451 -320 460 -311Q469 -302 469 -290V-94Q469 -82 460 -73Q451 -64 439 -64ZM73 -300Q69 -300 66 -297Q63 -294 63 -290V-94Q63 -90 66 -87Q69 -84 73 -84H439Q443 -84 446 -87Q449 -90 449 -94V-290Q449 -294 446 -297Q443 -300 439 -300ZM104 -124V-260H145L186 -210L227 -260H268V-124H227V-202L186 -152L145 -202V-124ZM361 -124L299 -190H340V-260H381V-190H422Z"/>
</svg>