<svg xmlns="http://www.w3.org/2000/svg" viewBox="0 -512 512 512">
	<path fill="#000000" d="M245 -107L254 -55Q246 -51 227.5 -47Q209 -43 185 -43Q114 -44 78.5 -84.5Q43 -125 43 -188Q44 -261 86 -301Q128 -341 191 -341Q214 -341 232 -337Q250 -333 258 -329L245 -276L223 -283Q210 -286 193 -286Q156 -286 132 -262.5Q108 -239 107 -191Q107 -148 130 -123Q153 -98 193 -98L222 -100Q235 -103 245 -107ZM296 -43L309 -128H277L285 -171H317L323 -213H291L299 -256H331L344 -341H386L373 -256H395L408 -341H450L437 -256H469L462 -213H430L423 -171H455L448 -128H416L403 -43H360L373 -128H352L339 -43ZM359 -171H381L387 -213H366Z"/>
</svg>