<svg xmlns="http://www.w3.org/2000/svg" viewBox="0 -512 512 512">
	<path fill="#000000" d="M463 -309Q463 -308 463 -307V-215Q463 -211 460 -210L383 -165V-78Q383 -74 380 -72L218 21H213L212 20L52 -72Q49 -74 49 -78V-354L50 -356L132 -404Q136 -406 139 -404L220 -358L222 -356L223 -181L289 -219L290 -309L291 -311L373 -359Q376 -361 380 -359L461 -312L462 -311ZM450 -219V-295L383 -257V-181ZM370 -81V-158L223 -74V3ZM62 -341V-81L209 3V-74L132 -117Q132 -117 132 -118L130 -119L129 -303ZM136 -391L69 -352L136 -314L203 -352ZM209 -173V-341L142 -303V-135ZM376 -346L309 -307L376 -269L443 -307ZM370 -257L303 -295V-219L370 -181ZM216 -85L363 -169L296 -208L149 -123Z"/>
</svg>