<svg xmlns="http://www.w3.org/2000/svg" viewBox="0 -512 512 512">
	<path fill="#000000" d="M469 -256Q469 -297 440.5 -331Q412 -365 363 -385Q314 -405 256 -405Q198 -405 149 -385Q100 -365 71.5 -331Q43 -297 43 -256V-255Q43 -226 58.5 -199.5Q74 -173 102 -153Q115 -143 130 -135Q128 -127 128 -117Q128 -98 137.5 -81Q147 -64 164 -53Q158 -36 158 -19Q159 7 177 22Q214 53 268 36Q273 34 285 30Q301 23 311 20Q328 15 346 15Q377 13 417 20L425 21L430 20Q436 18 440 15Q446 10 447 1Q448 -8 443 -14Q439 -18 433 -21L427 -22L405 -25Q377 -28 350 -28Q330 -27 307 -22Q294 -18 271 -10Q246 -1 235 0Q219 3 210 -7Q194 -24 205 -43Q232 -43 252.5 -61.5Q273 -80 277 -107Q294 -109 309 -111Q377 -124 421.5 -162Q466 -200 469 -250ZM427 -256Q427 -236 416 -218Q405 -200 384 -185Q363 -170 333.5 -160.5Q304 -151 270 -150Q261 -169 243 -180.5Q225 -192 203 -192Q173 -192 151 -172Q136 -179 123 -189H124Q86 -218 85 -255V-256Q85 -285 108 -309.5Q131 -334 170.5 -348.5Q210 -363 256 -363Q302 -363 341.5 -348.5Q381 -334 404 -309.5Q427 -285 427 -256ZM235 -116Q234 -112 233 -108Q230 -98 221.5 -91.5Q213 -85 203 -85Q189 -85 180 -94.5Q171 -104 171 -117V-119Q171 -132 180.5 -140.5Q190 -149 203 -149Q216 -149 225.5 -140Q235 -131 235 -117Z"/>
</svg>