<svg xmlns="http://www.w3.org/2000/svg" viewBox="0 -512 512 512">
	<path fill="#000000" d="M299 -192Q299 -210 311.5 -222.5Q324 -235 341.5 -235Q359 -235 371.5 -222.5Q384 -210 384 -192Q384 -174 371.5 -161.5Q359 -149 341.5 -149Q324 -149 311.5 -161.5Q299 -174 299 -192ZM171 -192Q171 -210 183.5 -222.5Q196 -235 213.5 -235Q231 -235 243.5 -222.5Q256 -210 256 -192Q256 -174 243.5 -161.5Q231 -149 213.5 -149Q196 -149 183.5 -161.5Q171 -174 171 -192ZM43 -192Q43 -210 55.5 -222.5Q68 -235 85.5 -235Q103 -235 115.5 -222.5Q128 -210 128 -192Q128 -174 115.5 -161.5Q103 -149 85.5 -149Q68 -149 55.5 -161.5Q43 -174 43 -192ZM469 -341H427V-43H469Z"/>
</svg>