<svg xmlns="http://www.w3.org/2000/svg" viewBox="0 -512 512 512">
	<path fill="#000000" d="M256 -405Q198 -405 149 -376.5Q100 -348 71.5 -299Q43 -250 43 -192Q43 -134 71.5 -85Q100 -36 149 -7.5Q198 21 256 21Q314 21 363 -7.5Q412 -36 440.5 -85Q469 -134 469 -192Q469 -250 440.5 -299Q412 -348 363 -376.5Q314 -405 256 -405ZM256 -363Q303 -363 341.5 -340Q380 -317 403 -277H109Q132 -317 170.5 -340Q209 -363 256 -363ZM256 -21Q209 -21 170.5 -44Q132 -67 109 -107H403Q380 -67 341.5 -44Q303 -21 256 -21ZM92 -149Q85 -169 85 -192Q85 -215 92 -235H422Q429 -215 429 -192Q429 -169 422 -149Z"/>
</svg>