<svg xmlns="http://www.w3.org/2000/svg" viewBox="0 -512 512 512">
	<path fill="#000000" d="M213 -384L171 -107H341L299 -384ZM245 -325Q252 -325 256.5 -320.5Q261 -316 261 -309.5Q261 -303 256.5 -298Q252 -293 245.5 -293Q239 -293 234 -298Q229 -303 229 -309.5Q229 -316 234 -320.5Q239 -325 245 -325ZM267 -267Q276 -267 282 -260.5Q288 -254 288 -245Q288 -236 282 -230Q276 -224 267 -224Q258 -224 251.5 -230Q245 -236 245 -245Q245 -254 251.5 -260.5Q258 -267 267 -267ZM245 -192Q259 -192 268 -182.5Q277 -173 277 -160Q277 -147 268 -137.5Q259 -128 245.5 -128Q232 -128 222.5 -137.5Q213 -147 213 -160Q213 -173 222.5 -182.5Q232 -192 245 -192ZM171 -85L213 -43L171 0H341L299 -43L341 -85Z"/>
</svg>