<svg xmlns="http://www.w3.org/2000/svg" viewBox="0 -512 512 512">
	<path fill="#000000" d="M412 -45Q427 -68 427 -96Q427 -136 399 -164Q371 -192 331 -192Q291 -192 263 -164Q235 -136 235 -96Q235 -56 263 -28Q291 0 331 0Q358 0 381 -15L448 51L478 21ZM331 -43Q309 -43 293 -58.5Q277 -74 277 -96Q277 -118 293 -133.5Q309 -149 331 -149Q353 -149 368.5 -133.5Q384 -118 384 -96Q384 -74 368.5 -58.5Q353 -43 331 -43ZM205 -38L64 -148L99 -175L192 -102V-96Q192 -66 205 -38ZM203 -148L64 -256L256 -405L448 -256L398 -217Q375 -230 349 -233L378 -256L256 -351L134 -256L225 -185Q210 -168 203 -148Z"/>
</svg>