<svg xmlns="http://www.w3.org/2000/svg" viewBox="0 -512 512 512">
	<path fill="#000000" d="M172 -99Q172 -100 172 -100Q186 -136 197 -154Q214 -184 238 -203Q267 -225 309 -235L292 -233Q271 -230 252 -222Q225 -212 205 -193Q180 -170 168 -136L163 -142Q158 -149 154 -156Q149 -167 149 -176Q149 -188 157 -203Q166 -221 181 -233Q199 -248 224 -253Q249 -258 273 -261Q313 -266 331 -271Q358 -278 363 -288L358 -269Q352 -246 344 -224Q332 -194 317 -170Q297 -141 274 -126Q246 -107 213 -107Q208 -107 199 -110L189 -85L169 -92ZM256 -363Q302 -363 341.5 -340Q381 -317 404 -277.5Q427 -238 427 -192Q427 -146 404 -106.5Q381 -67 341.5 -44Q302 -21 256 -21Q210 -21 170.5 -44Q131 -67 108 -106.5Q85 -146 85 -192Q85 -238 108 -277.5Q131 -317 170.5 -340Q210 -363 256 -363ZM256 -405Q198 -405 149 -376.5Q100 -348 71.5 -299Q43 -250 43 -192Q43 -134 71.5 -85Q100 -36 149 -7.5Q198 21 256 21Q314 21 363 -7.5Q412 -36 440.5 -85Q469 -134 469 -192Q469 -250 440.5 -299Q412 -348 363 -376.5Q314 -405 256 -405Z"/>
</svg>