<svg xmlns="http://www.w3.org/2000/svg" viewBox="0 -512 512 512">
	<path fill="#000000" d="M256 -405Q198 -405 149 -376.5Q100 -348 71.5 -299Q43 -250 43 -192Q43 -134 71.5 -85Q100 -36 149 -7.5Q198 21 256 21Q314 21 363 -7.5Q412 -36 440.5 -85Q469 -134 469 -192Q469 -250 440.5 -299Q412 -348 363 -376.5Q314 -405 256 -405ZM205 -81Q198 -81 188 -85L176 -55L151 -64L155 -72Q172 -116 184 -138Q205 -174 234 -196Q269 -223 320 -235L306 -234Q289 -232 272 -227Q248 -220 228 -209Q203 -195 184 -174Q162 -149 150 -116L145 -123Q138 -132 134 -140Q128 -153 128 -164Q128 -179 137 -197Q148 -218 166 -233Q188 -251 218 -257Q231 -260 259 -264L276 -267Q325 -273 345 -278Q378 -286 384 -299L379 -276Q372 -248 361 -222Q347 -186 329 -158Q306 -123 278 -104Q244 -81 205 -81Z"/>
</svg>