<svg xmlns="http://www.w3.org/2000/svg" viewBox="0 -512 512 512">
	<path fill="#000000" d="M128 -384H64V-320Q91 -320 109.5 -338.5Q128 -357 128 -384ZM299 -384H256Q256 -332 230 -288Q204 -244 160 -218Q116 -192 64 -192V-149Q128 -149 182 -181Q236 -213 267.5 -266.5Q299 -320 299 -384ZM213 -384H171Q171 -355 156.5 -330.5Q142 -306 117.5 -291.5Q93 -277 64 -277V-235Q105 -235 139 -255Q173 -275 193 -309Q213 -343 213 -384ZM213 0H256Q256 -52 282 -96Q308 -140 352 -166Q396 -192 448 -192V-235Q384 -235 330 -203.5Q276 -172 244.5 -118Q213 -64 213 0ZM384 0H448V-64Q421 -64 402.5 -45.5Q384 -27 384 0ZM299 0H341Q341 -29 355.5 -53.5Q370 -78 394.5 -92.5Q419 -107 448 -107V-149Q407 -149 373 -129Q339 -109 319 -75Q299 -41 299 0Z"/>
</svg>