<svg xmlns="http://www.w3.org/2000/svg" viewBox="0 -512 512 512">
	<path fill="#000000" d="M472 10L51 -411L24 -384L55 -352L43 -301L129 -279L194 -214L133 -190L246 -161L276 -132L99 -176L79 -93L394 -14L445 37ZM166 -93L125 -103L135 -145L177 -135ZM249 -72L208 -83L218 -124L259 -114ZM331 -52L290 -62L300 -104L305 -102L336 -72ZM421 -95L469 -83L462 -54ZM338 -178L303 -213L379 -194ZM222 -322L217 -300L273 -243L413 -208L433 -291L156 -361L185 -332ZM346 -291L387 -281L377 -239L335 -249ZM263 -312L304 -301L294 -260L253 -270Z"/>
</svg>