<svg xmlns="http://www.w3.org/2000/svg" viewBox="0 -512 512 512">
	<path fill="#000000" d="M256 -144L227 -171Q175 -218 107 -231V-83Q189 -72 256 -22Q323 -72 405 -83V-231Q337 -218 285 -171ZM405 -274Q426 -277 448 -277V-43Q393 -43 344 -23Q295 -3 256 33Q217 -3 168 -23Q119 -43 64 -43V-277Q86 -277 107 -274Q192 -261 256 -202Q320 -261 405 -274ZM256 -320Q264 -320 270.5 -326.5Q277 -333 277 -341.5Q277 -350 270.5 -356.5Q264 -363 256 -363Q248 -363 241.5 -356Q235 -349 235 -341Q235 -333 241.5 -326.5Q248 -320 256 -320ZM301 -296Q282 -277 256 -277Q230 -277 211 -296Q192 -315 192 -341.5Q192 -368 211 -386.5Q230 -405 256 -405Q282 -405 301 -386.5Q320 -368 320 -341.5Q320 -315 301 -296Z"/>
</svg>