<svg xmlns="http://www.w3.org/2000/svg" viewBox="0 -512 512 512">
	<path fill="#000000" d="M192 -235Q192 -261 211 -279.5Q230 -298 256 -298Q282 -298 301 -279.5Q320 -261 320 -234.5Q320 -208 301 -189.5Q282 -171 256 -171Q230 -171 211 -189.5Q192 -208 192 -235ZM256 -43L341 -21V-87Q302 -63 256 -63Q210 -63 171 -87V-21ZM256 -363Q231 -363 207 -353.5Q183 -344 165 -326Q147 -308 137.5 -284Q128 -260 128 -234.5Q128 -209 137.5 -185.5Q147 -162 165 -144Q183 -126 206.5 -116Q230 -106 256 -106Q282 -106 305.5 -116Q329 -126 347 -144Q365 -162 374.5 -185.5Q384 -209 384 -234.5Q384 -260 374.5 -284Q365 -308 347 -326Q329 -344 305 -353.5Q281 -363 256 -363ZM427 -235Q426 -204 415 -175Q404 -146 384 -122V43L256 0L128 43V-122Q107 -145 96 -174.5Q85 -204 85 -235Q85 -269 98 -300Q111 -331 135 -355.5Q159 -380 190.5 -393Q222 -406 256 -406Q290 -406 321.5 -393Q353 -380 377 -355.5Q401 -331 414 -300Q427 -269 427 -235Z"/>
</svg>