<svg xmlns="http://www.w3.org/2000/svg" viewBox="0 -512 512 512">
	<path fill="#000000" d="M422 -119Q437 -154 437 -192Q437 -230 422 -265L364 -238Q373 -216 373 -192Q373 -168 364 -146ZM329 -358Q294 -373 256 -373Q218 -373 183 -358L210 -300Q232 -309 256 -309Q280 -309 303 -300ZM90 -265Q75 -230 75 -192Q75 -154 90 -119L148 -146Q139 -168 139 -192Q139 -216 148 -239ZM183 -26Q218 -11 256 -11Q294 -11 329 -26L303 -84Q280 -75 256 -75Q232 -75 210 -84ZM256 -405Q298 -405 337.5 -389Q377 -373 407 -343Q437 -313 453 -273.5Q469 -234 469 -192Q469 -150 453 -110.5Q437 -71 407 -41Q377 -11 337.5 5Q298 21 256 21Q214 21 174.5 5Q135 -11 105 -41Q75 -71 59 -110.5Q43 -150 43 -192Q43 -234 59 -273.5Q75 -313 105 -343Q135 -373 174.5 -389Q214 -405 256 -405ZM256 -277Q221 -277 196 -252Q171 -227 171 -192Q171 -157 196 -132Q221 -107 256 -107Q291 -107 316 -132Q341 -157 341 -192Q341 -227 316 -252Q291 -277 256 -277Z"/>
</svg>