<svg xmlns="http://www.w3.org/2000/svg" viewBox="0 -512 512 512">
	<path fill="#000000" d="M427 -213H491V-171H427ZM21 -213H85V-171H21ZM277 -427V-363H235V-427ZM105 -373L150 -328L120 -298L75 -343ZM362 -328L407 -373L437 -343L392 -298ZM256 -320Q291 -320 320.5 -303Q350 -286 367 -256.5Q384 -227 384 -192Q384 -157 366.5 -127.5Q349 -98 320 -81V-43Q320 -34 314 -27.5Q308 -21 299 -21H213Q204 -21 198 -27.5Q192 -34 192 -43V-81Q163 -98 145.5 -127.5Q128 -157 128 -192Q128 -227 145 -256.5Q162 -286 191.5 -303Q221 -320 256 -320ZM299 0V21Q299 30 292.5 36.5Q286 43 277 43H235Q226 43 219.5 36.5Q213 30 213 21V0ZM235 -64H277V-109Q305 -117 323 -139.5Q341 -162 341 -192Q341 -227 316 -252Q291 -277 256 -277Q221 -277 196 -252Q171 -227 171 -192Q171 -162 189 -139.5Q207 -117 235 -109Z"/>
</svg>