<svg xmlns="http://www.w3.org/2000/svg" viewBox="0 -512 512 512">
	<path fill="#000000" d="M330 -237L296 -220L264 -252L310 -275Q315 -277 320 -277Q330 -277 336.5 -269.5Q343 -262 341 -252Q339 -242 330 -237ZM239 -277L330 -322Q339 -327 340.5 -337Q342 -347 336 -355Q330 -363 320 -363Q315 -363 310 -361L207 -309ZM445 37L343 -64H171Q162 -64 155.5 -70Q149 -76 149 -85V-149H171V-192Q171 -206 186 -213L192 -216L24 -384L51 -411L472 10ZM258 -149L224 -184L213 -179V-149ZM192 0Q192 9 198.5 15Q205 21 213 21H299Q308 21 314 15Q320 9 320 0V-21H192ZM192 -341Q196 -341 202 -343L244 -365Q254 -370 255.5 -380Q257 -390 251 -397.5Q245 -405 235 -405Q229 -405 225 -403L182 -382Q172 -376 170.5 -366.5Q169 -357 175.5 -349Q182 -341 192 -341Z"/>
</svg>