<svg xmlns="http://www.w3.org/2000/svg" viewBox="0 -512 512 512">
	<path fill="#000000" d="M149 -329L119 -299L75 -343L105 -373ZM21 -171H85V-213H21ZM277 -427H235V-363H277ZM384 -192Q384 -157 366.5 -127Q349 -97 320 -81V-43Q320 -33 314 -27Q308 -21 299 -21H213Q204 -21 198 -27Q192 -33 192 -43V-81Q163 -97 145.5 -127Q128 -157 128 -192Q128 -227 145.5 -256Q163 -285 192 -302.5Q221 -320 256 -320Q291 -320 320 -302.5Q349 -285 366.5 -256Q384 -227 384 -192ZM341 -192Q341 -227 316 -252Q291 -277 256 -277Q221 -277 196 -252Q171 -227 171 -192Q171 -173 178.5 -156.5Q186 -140 200 -128H312Q326 -140 333.5 -156.5Q341 -173 341 -192ZM213 21Q213 31 219 37Q225 43 235 43H277Q287 43 293 37Q299 31 299 21V0H213ZM427 -213V-171H491V-213ZM407 -373L363 -329L393 -299L437 -343Z"/>
</svg>