<svg xmlns="http://www.w3.org/2000/svg" viewBox="0 -512 512 512">
	<path fill="#000000" d="M149 -43Q149 -32 153 -21H128Q119 -21 113 -27.5Q107 -34 107 -43V-64H149ZM213 -43Q213 -34 219.5 -27.5Q226 -21 235 -21H277Q286 -21 292.5 -27.5Q299 -34 299 -43V-64H213ZM85 -107Q85 -98 91.5 -91.5Q98 -85 107 -85H149V-131Q129 -151 118 -178Q107 -205 107 -235Q106 -268 121 -299Q93 -296 72 -278Q51 -260 45 -232.5Q39 -205 50 -179.5Q61 -154 85 -140ZM363 -43Q363 -32 359 -21H384Q393 -21 399 -27.5Q405 -34 405 -43V-64H363ZM363 -235Q363 -209 351.5 -186.5Q340 -164 320 -149V-107Q320 -98 314 -91.5Q308 -85 299 -85H213Q204 -85 198 -91.5Q192 -98 192 -107V-149Q162 -172 152.5 -208.5Q143 -245 159 -279Q175 -313 208.5 -330Q242 -347 278.5 -339Q315 -331 339 -301.5Q363 -272 363 -235ZM320 -235Q320 -259 304 -277.5Q288 -296 263.5 -298.5Q239 -301 219 -287Q199 -273 193.5 -249Q188 -225 200 -204Q212 -183 235 -175V-128H277V-175Q296 -181 308 -197.5Q320 -214 320 -235ZM391 -299Q406 -268 405 -235Q405 -205 394 -178Q383 -151 363 -131V-85H405Q414 -85 420.5 -91.5Q427 -98 427 -107V-140Q451 -154 462 -179.5Q473 -205 467 -232.5Q461 -260 440 -278Q419 -296 391 -299Z"/>
</svg>