<svg xmlns="http://www.w3.org/2000/svg" viewBox="0 -512 512 512">
	<path fill="#000000" d="M299 -353Q299 -382 277 -404Q281 -405 288 -405Q310 -405 325.5 -389.5Q341 -374 341 -352V-149H363V-124L299 -188ZM213 -352Q213 -356 216.5 -359.5Q220 -363 224 -363Q228 -363 231.5 -359.5Q235 -356 235 -352V-252L277 -209V-352Q277 -374 261.5 -389.5Q246 -405 224 -405Q202 -405 186.5 -389.5Q171 -374 171 -352V-316L213 -273ZM192 0Q192 9 198.5 15Q205 21 213 21H299Q307 21 313.5 15Q320 9 320 0V-21H192ZM427 -6L400 21L314 -64H171Q162 -64 155.5 -70.5Q149 -77 149 -85V-149H171V-208L43 -336L70 -363Z"/>
</svg>