<svg xmlns="http://www.w3.org/2000/svg" viewBox="0 -512 512 512">
	<path fill="#000000" d="M445 37L386 -21H359Q363 -32 363 -43V-45L315 -93Q308 -85 299 -85H213Q205 -85 198.5 -91.5Q192 -98 192 -107V-149Q167 -168 156.5 -197Q146 -226 152 -256L117 -290Q107 -262 107 -233.5Q107 -205 118 -178Q129 -151 149 -131V-85H107Q98 -85 91.5 -91.5Q85 -98 85 -107V-140Q67 -150 56 -168Q45 -186 43 -207Q40 -239 59.5 -264.5Q79 -290 111 -297L24 -384L51 -411L472 10ZM320 -320Q292 -341 257.5 -341Q223 -341 195 -321L343 -173Q359 -196 362 -224Q365 -252 354 -277.5Q343 -303 320 -320ZM422 -94Q427 -100 427 -107V-140Q457 -158 466.5 -192Q476 -226 458 -256Q447 -274 429.5 -285.5Q412 -297 391 -299Q405 -268 405 -235Q405 -183 373 -143ZM213 -43Q213 -34 219.5 -27.5Q226 -21 235 -21H277Q286 -21 292.5 -27.5Q299 -34 299 -43V-64H213ZM149 -64H107V-43Q107 -34 113 -27.5Q119 -21 128 -21H153Q149 -32 149 -43Z"/>
</svg>