<svg xmlns="http://www.w3.org/2000/svg" viewBox="0 -512 512 512">
	<path fill="#000000" d="M445 37L357 -51Q350 -43 341 -43H256Q247 -43 241 -49Q235 -55 235 -64V-107Q209 -126 198.5 -155Q188 -184 194 -213L160 -248Q148 -219 149 -192Q148 -171 155 -149H149Q140 -149 134 -155.5Q128 -162 128 -171V-213Q106 -229 95 -255Q81 -287 88 -320L24 -384L51 -411L472 10ZM290 -341Q278 -368 255 -384.5Q232 -401 204 -404Q176 -407 149 -396Q140 -392 131 -385L206 -310Q244 -339 290 -341ZM385 -131Q401 -154 404 -181.5Q407 -209 396 -234.5Q385 -260 363 -277Q334 -298 299.5 -298.5Q265 -299 237 -279ZM256 0Q256 9 262 15Q268 21 277 21H320Q329 21 335 15Q341 9 341 0V-21H256ZM149 -128V-107Q149 -98 155 -91.5Q161 -85 171 -85H192V-88Q175 -104 163 -128Z"/>
</svg>