<svg xmlns="http://www.w3.org/2000/svg" viewBox="0 -512 512 512">
	<path fill="#000000" d="M235 -405Q229 -405 225 -403L182 -382Q172 -376 170.5 -366.5Q169 -357 175.5 -349Q182 -341 192 -341Q196 -341 202 -343L244 -365Q254 -370 255.5 -380Q257 -390 251 -397.5Q245 -405 235 -405ZM320 -363Q315 -363 310 -361L182 -297Q172 -291 170.5 -281Q169 -271 175.5 -263.5Q182 -256 192 -256Q196 -256 202 -258L330 -322Q339 -327 340.5 -337Q342 -347 336 -355Q330 -363 320 -363ZM320 -277Q315 -277 310 -275L186 -213Q171 -206 171 -192V-149H149V-85Q149 -76 155.5 -70Q162 -64 171 -64H341Q350 -64 356.5 -70.5Q363 -77 363 -85V-149H341V-171Q341 -180 335 -186Q329 -192 320 -192Q311 -192 305 -185.5Q299 -179 299 -171V-149H213V-179L330 -237Q339 -242 341 -252Q343 -262 336.5 -269.5Q330 -277 320 -277ZM192 -21V0Q192 9 198.5 15Q205 21 213 21H299Q308 21 314 15Q320 9 320 0V-21Z"/>
</svg>