<svg xmlns="http://www.w3.org/2000/svg" viewBox="0 -512 512 512">
	<path fill="#000000" d="M256 -405Q221 -405 190.5 -390Q160 -375 139 -348L169 -318Q184 -338 207 -350.5Q230 -363 256 -363Q285 -363 309.5 -348.5Q334 -334 348.5 -309.5Q363 -285 363 -256Q363 -230 350.5 -207Q338 -184 318 -169L348 -139Q375 -160 390 -190.5Q405 -221 405 -256Q405 -297 385 -331Q365 -365 331 -385Q297 -405 256 -405ZM70 -363L43 -336L108 -271Q107 -266 107 -256Q107 -219 124 -186.5Q141 -154 171 -134V-85Q171 -76 177 -70Q183 -64 192 -64H314L400 21L427 -6ZM154 -224L272 -107H213V-158Q192 -168 176.5 -185Q161 -202 154 -224ZM192 -21V0Q192 9 198 15Q204 21 213 21H299Q308 21 314 15Q320 9 320 0V-21Z"/>
</svg>