<svg xmlns="http://www.w3.org/2000/svg" viewBox="0 -512 512 512">
	<path fill="#000000" d="M363 -107V-64Q363 -55 356.5 -49Q350 -43 341 -43H256Q247 -43 241 -49Q235 -55 235 -64V-107Q211 -124 200 -150Q189 -176 192.5 -204.5Q196 -233 213.5 -256Q231 -279 257 -290Q283 -301 311 -298Q339 -295 362.5 -277.5Q386 -260 397 -234Q408 -208 404.5 -179.5Q401 -151 384 -128Q374 -116 363 -107ZM341 -21H256V0Q256 9 262 15Q268 21 277 21H320Q329 21 335 15Q341 9 341 0ZM163 -128H149V-107Q149 -98 155 -91.5Q161 -85 171 -85H192V-88Q175 -105 163 -128ZM290 -341Q278 -368 255 -384.5Q232 -401 204 -404Q176 -407 149.5 -395.5Q123 -384 106.5 -361Q90 -338 86.5 -310Q83 -282 94.5 -255.5Q106 -229 128 -213V-171Q128 -162 134 -155.5Q140 -149 149 -149H155Q148 -171 149 -192Q149 -231 167.5 -264.5Q186 -298 218.5 -318.5Q251 -339 290 -341Z"/>
</svg>