<svg xmlns="http://www.w3.org/2000/svg" viewBox="0 -512 512 512">
	<path fill="#000000" d="M256 0Q256 9 262.5 15Q269 21 277 21H320Q329 21 335 15Q341 9 341 0V-21H256ZM299 -299Q270 -299 245.5 -284.5Q221 -270 206.5 -245.5Q192 -221 192 -192Q192 -167 203.5 -144.5Q215 -122 235 -107V-64Q235 -55 241 -49Q247 -43 256 -43H341Q350 -43 356.5 -49Q363 -55 363 -64V-107Q386 -124 397 -150Q408 -176 404.5 -204.5Q401 -233 384 -256Q369 -276 346.5 -287.5Q324 -299 299 -299ZM320 -132V-85H277V-132Q252 -141 240.5 -165Q229 -189 238 -213.5Q247 -238 271 -249.5Q295 -261 320 -252.5Q345 -244 356.5 -220Q368 -196 359 -171Q354 -157 344 -147Q334 -137 320 -132ZM164 -128H149V-107Q149 -98 155.5 -91.5Q162 -85 171 -85H192V-88Q174 -107 164 -128ZM290 -341Q279 -368 256 -384.5Q233 -401 204.5 -404Q176 -407 149.5 -395.5Q123 -384 106.5 -361Q90 -338 86.5 -310Q83 -282 94.5 -256Q106 -230 128 -213V-171Q128 -162 134.5 -155.5Q141 -149 149 -149H156Q149 -170 149 -192Q149 -231 168 -264.5Q187 -298 219 -318.5Q251 -339 290 -341Z"/>
</svg>