<svg xmlns="http://www.w3.org/2000/svg" viewBox="0 -512 512 512">
	<path fill="#000000" d="M128 0Q128 9 134.5 15Q141 21 149 21H235Q243 21 249.5 15Q256 9 256 0V-21H128ZM277 -100V-85Q277 -77 271 -70.5Q265 -64 256 -64H128Q119 -64 113 -70.5Q107 -77 107 -85V-134Q77 -154 60 -186.5Q43 -219 43 -256Q43 -297 63 -331Q83 -365 117 -385Q151 -405 192 -405Q244 -405 285 -373Q243 -356 217.5 -318.5Q192 -281 192 -235Q192 -191 215.5 -154.5Q239 -118 277 -100ZM446 -236L416 -255L386 -235L395 -270L366 -292L402 -294L414 -329L428 -295L463 -294L436 -271ZM414 -171Q394 -147 365.5 -139Q337 -131 308.5 -139.5Q280 -148 261 -172Q238 -201 239 -236.5Q240 -272 262 -299.5Q284 -327 320 -334Q326 -335 329.5 -330.5Q333 -326 331 -321Q323 -300 325 -277.5Q327 -255 338.5 -235Q350 -215 368 -202.5Q386 -190 408 -187Q413 -186 415 -180.5Q417 -175 414 -171Z"/>
</svg>