<svg xmlns="http://www.w3.org/2000/svg" viewBox="0 -512 512 512">
	<path fill="#000000" d="M472 10L51 -411L24 -384L88 -319Q81 -286 95 -255Q106 -230 128 -213V-171Q128 -162 134.5 -155.5Q141 -149 149 -149H156Q149 -170 149 -192Q149 -220 160 -247L194 -213Q192 -200 192 -192Q192 -167 203.5 -144.5Q215 -122 235 -107V-64Q235 -55 241 -49Q247 -43 256 -43H341Q351 -43 357 -50L445 37ZM240 -168L275 -133Q250 -143 240 -168ZM320 -85H277V-130L320 -88ZM207 -309L131 -385Q140 -392 149 -396Q176 -408 204.5 -404.5Q233 -401 256 -384.5Q279 -368 290 -341Q243 -338 207 -309ZM237 -279Q265 -299 299 -299Q324 -299 346.5 -287.5Q369 -276 384 -256Q405 -228 405 -193.5Q405 -159 385 -131L355 -162L359 -171Q368 -196 356.5 -220Q345 -244 319 -253Q293 -262 268 -248ZM164 -128Q174 -107 192 -88V-85H171Q162 -85 155.5 -91.5Q149 -98 149 -107V-128ZM256 -21H341V0Q341 9 335 15Q329 21 320 21H277Q269 21 262.5 15Q256 9 256 0Z"/>
</svg>