<svg xmlns="http://www.w3.org/2000/svg" viewBox="0 -512 512 512">
	<path fill="#000000" d="M192 -21H320V0Q320 9 313.5 15Q307 21 299 21H213Q205 21 198.5 15Q192 9 192 0ZM405 -256Q405 -219 388 -186.5Q371 -154 341 -134V-85Q341 -77 335 -70.5Q329 -64 320 -64H192Q183 -64 177 -70.5Q171 -77 171 -85V-134Q141 -154 124 -186.5Q107 -219 107 -256Q107 -297 127 -331Q147 -365 181 -385Q215 -405 256 -405Q297 -405 331 -385Q365 -365 385 -331Q405 -297 405 -256ZM314 -271Q308 -277 299 -277Q290 -277 284 -271L256 -243L228 -271Q222 -277 213 -277Q204 -277 198 -271Q192 -265 192 -256Q192 -247 198 -241L235 -205V-107H277V-205L314 -241Q320 -247 320 -256Q320 -265 314 -271Z"/>
</svg>