<svg xmlns="http://www.w3.org/2000/svg" viewBox="0 -512 512 512">
	<path fill="#000000" d="M21 -213H85V-171H21ZM407 -373L363 -329L393 -299L437 -343ZM235 -427H277V-363H235ZM105 -373L75 -343L119 -299L149 -329ZM213 21Q213 31 219 37Q225 43 235 43H277Q287 43 293 37Q299 31 299 21V0H213ZM256 -320Q221 -320 192 -302.5Q163 -285 145.5 -256Q128 -227 128 -192Q128 -157 145.5 -127Q163 -97 192 -81V-43Q192 -33 198 -27Q204 -21 213 -21H299Q308 -21 314 -27Q320 -33 320 -43V-81Q349 -97 366.5 -127Q384 -157 384 -192Q384 -227 366.5 -256Q349 -285 320 -302.5Q291 -320 256 -320ZM277 -109V-85H235V-109Q207 -115 189 -138.5Q171 -162 171 -192Q171 -227 196 -252Q221 -277 256 -277Q291 -277 316 -252Q341 -227 341 -192Q341 -162 323 -139.5Q305 -117 277 -109ZM427 -213H491V-171H427Z"/>
</svg>