<svg xmlns="http://www.w3.org/2000/svg" viewBox="0 -512 512 512">
	<path fill="#000000" d="M256 -405Q297 -405 331 -385Q365 -365 385 -331Q405 -297 405 -256Q405 -219 388 -186.5Q371 -154 341 -134V-85Q341 -76 335 -70Q329 -64 320 -64H192Q183 -64 177 -70Q171 -76 171 -85V-134Q141 -154 124 -186.5Q107 -219 107 -256Q107 -297 127 -331Q147 -365 181 -385Q215 -405 256 -405ZM192 0V-21H320V0Q320 9 314 15Q308 21 299 21H213Q204 21 198 15Q192 9 192 0ZM256 -363Q227 -363 202.5 -348.5Q178 -334 163.5 -309.5Q149 -285 149 -256Q149 -224 167 -197.5Q185 -171 213 -158V-107H299V-158Q327 -171 345 -197.5Q363 -224 363 -256Q363 -285 348.5 -309.5Q334 -334 309.5 -348.5Q285 -363 256 -363Z"/>
</svg>