<svg xmlns="http://www.w3.org/2000/svg" viewBox="0 -512 512 512">
	<path fill="#000000" d="M320 -149V-107Q320 -98 314 -91.5Q308 -85 299 -85H213Q204 -85 198 -91.5Q192 -98 192 -107V-149Q164 -170 154 -203Q144 -236 155 -268.5Q166 -301 194 -321Q222 -341 256 -341Q290 -341 318 -321Q346 -301 357 -268.5Q368 -236 358 -203Q348 -170 320 -149ZM299 -64H213V-43Q213 -34 219.5 -27.5Q226 -21 235 -21H277Q286 -21 292.5 -27.5Q299 -34 299 -43ZM149 -43V-64H107V-43Q107 -34 113 -27.5Q119 -21 128 -21H153Q149 -32 149 -43ZM107 -235Q106 -268 121 -299Q93 -296 72 -278Q51 -260 45 -232.5Q39 -205 50 -179.5Q61 -154 85 -140V-107Q85 -98 91.5 -91.5Q98 -85 107 -85H149V-131Q129 -151 118 -178Q107 -205 107 -235ZM363 -64V-43Q363 -32 359 -21H384Q393 -21 399 -27.5Q405 -34 405 -43V-64ZM391 -299Q406 -268 405 -235Q405 -205 394 -178Q383 -151 363 -131V-85H405Q414 -85 420.5 -91.5Q427 -98 427 -107V-140Q451 -154 462 -179.5Q473 -205 467 -232.5Q461 -260 440 -278Q419 -296 391 -299Z"/>
</svg>