<svg xmlns="http://www.w3.org/2000/svg" viewBox="0 -512 512 512">
	<path fill="#000000" d="M224 -405Q246 -405 261.5 -389.5Q277 -374 277 -352V-149H299V-353Q299 -382 277 -404Q281 -405 288 -405Q310 -405 325.5 -389.5Q341 -374 341 -352V-149H363V-85Q363 -77 356.5 -70.5Q350 -64 341 -64H171Q162 -64 155.5 -70.5Q149 -77 149 -85V-149H171V-352Q171 -374 186.5 -389.5Q202 -405 224 -405ZM224 -363Q220 -363 216.5 -359.5Q213 -356 213 -352V-149H235V-352Q235 -356 231.5 -359.5Q228 -363 224 -363ZM192 -21H320V0Q320 9 313.5 15Q307 21 299 21H213Q205 21 198.5 15Q192 9 192 0Z"/>
</svg>