<svg xmlns="http://www.w3.org/2000/svg" viewBox="0 -512 512 512">
	<path fill="#000000" d="M149 -329L119 -299L75 -343L105 -373ZM277 -427H235V-363H277ZM21 -171H85V-213H21ZM213 21Q213 31 219 37Q225 43 235 43H277Q287 43 293 37Q299 31 299 21V0H213ZM407 -373L363 -329L393 -299L437 -343ZM384 -192Q384 -157 366.5 -127Q349 -97 320 -81V-43Q320 -33 314 -27Q308 -21 299 -21H213Q204 -21 198 -27Q192 -33 192 -43V-81Q163 -97 145.5 -127Q128 -157 128 -192Q128 -227 145.5 -256Q163 -285 192 -302.5Q221 -320 256 -320Q291 -320 320 -302.5Q349 -285 366.5 -256Q384 -227 384 -192ZM174 -213H338Q331 -241 308 -259Q285 -277 256 -277Q227 -277 204 -259Q181 -241 174 -213ZM427 -213V-171H491V-213Z"/>
</svg>