<svg xmlns="http://www.w3.org/2000/svg" viewBox="0 -512 512 512">
	<path fill="#000000" d="M256 -405Q215 -405 181 -385Q147 -365 127 -331Q107 -297 107 -256Q107 -219 124 -186.5Q141 -154 171 -134V-85Q171 -77 177 -70.5Q183 -64 192 -64H320Q329 -64 335 -70.5Q341 -77 341 -85V-134Q371 -154 388 -186.5Q405 -219 405 -256Q405 -297 385 -331Q365 -365 331 -385Q297 -405 256 -405ZM299 -158V-107H277V-205L314 -241Q320 -247 320 -256Q320 -265 314 -271Q308 -277 299 -277Q290 -277 284 -271L256 -243L228 -271Q222 -277 213 -277Q204 -277 198 -271Q192 -265 192 -256Q192 -247 198 -241L235 -205V-107H213V-158Q185 -171 167 -197.5Q149 -224 149 -256Q149 -285 163.5 -309.5Q178 -334 202.5 -348.5Q227 -363 256 -363Q285 -363 309.5 -348.5Q334 -334 348.5 -309.5Q363 -285 363 -256Q363 -224 345 -197.5Q327 -171 299 -158ZM192 -21H320V0Q320 9 313.5 15Q307 21 299 21H213Q205 21 198.5 15Q192 9 192 0Z"/>
</svg>