<svg xmlns="http://www.w3.org/2000/svg" viewBox="0 -512 512 512">
	<path fill="#000000" d="M213 -405Q254 -405 288.5 -385Q323 -365 343 -331Q363 -297 363 -256Q363 -218 345.5 -186Q328 -154 299 -134V-85Q299 -76 293 -70Q287 -64 277 -64H149Q140 -64 134 -70Q128 -76 128 -85V-134Q99 -154 81.5 -186Q64 -218 64 -256Q64 -297 84 -331Q104 -365 138 -385Q172 -405 213 -405ZM149 0V-21H277V0Q277 10 271.5 15.5Q266 21 256 21H171Q161 21 155 15.5Q149 10 149 0ZM213 -363Q184 -363 159.5 -348.5Q135 -334 121 -309.5Q107 -285 107 -256Q107 -223 124 -197Q141 -171 171 -158V-107H256V-158Q285 -171 302.5 -197Q320 -223 320 -256Q320 -285 306 -309.5Q292 -334 267.5 -348.5Q243 -363 213 -363ZM405 -192V-299H448V-171H405ZM405 -85V-128H448V-85Z"/>
</svg>