<svg xmlns="http://www.w3.org/2000/svg" viewBox="0 -512 512 512">
	<path fill="#000000" d="M128 -21H256V0Q256 9 249.5 15Q243 21 235 21H149Q141 21 134.5 15Q128 9 128 0ZM235 -130V-107H149V-158Q121 -171 103 -197.5Q85 -224 85 -256Q85 -285 99.5 -309.5Q114 -334 138.5 -348.5Q163 -363 191 -363Q219 -363 244 -348Q261 -363 285 -373Q244 -405 192 -405Q151 -405 117 -385Q83 -365 63 -331Q43 -297 43 -256Q43 -219 60 -186.5Q77 -154 107 -134V-85Q107 -77 113 -70.5Q119 -64 128 -64H256Q265 -64 271 -70.5Q277 -77 277 -85V-100Q252 -112 235 -130ZM446 -236L436 -271L463 -294L428 -295L414 -329L402 -294L366 -292L395 -270L386 -235L416 -255ZM408 -187Q386 -190 368 -202.5Q350 -215 338.5 -235Q327 -255 325 -277.5Q323 -300 331 -321Q333 -326 329.5 -330.5Q326 -335 320 -334Q284 -327 262 -299.5Q240 -272 239 -236.5Q238 -201 261 -172Q280 -148 308.5 -139.5Q337 -131 365.5 -139Q394 -147 414 -171Q417 -175 415 -180.5Q413 -186 408 -187Z"/>
</svg>