<svg xmlns="http://www.w3.org/2000/svg" viewBox="0 -512 512 512">
	<path fill="#000000" d="M192 -405Q151 -405 117 -385Q83 -365 63 -331Q43 -297 43 -256Q43 -219 60 -186.5Q77 -154 107 -134V-85Q107 -77 113 -70.5Q119 -64 128 -64H256Q265 -64 271 -70.5Q277 -77 277 -85V-134Q307 -154 324 -186.5Q341 -219 341 -256Q341 -297 321 -331Q301 -365 267 -385Q233 -405 192 -405ZM128 0Q128 9 134.5 15Q141 21 149 21H235Q243 21 249.5 15Q256 9 256 0V-21H128ZM405 -171H363L294 21H335L350 -21H418L433 21H474ZM359 -50L384 -128L409 -50Z"/>
</svg>