<svg xmlns="http://www.w3.org/2000/svg" viewBox="0 -512 512 512">
	<path fill="#000000" d="M256 -299Q198 -299 149 -283Q100 -267 71.5 -240Q43 -213 43 -181Q43 -149 71.5 -122.5Q100 -96 149 -80Q198 -64 256 -64Q314 -64 363 -80Q412 -96 440.5 -122.5Q469 -149 469 -181Q469 -213 440.5 -240Q412 -267 363 -283Q314 -299 256 -299ZM352 -235Q352 -230 340 -222Q328 -214 308 -208Q284 -202 256 -202Q228 -202 204 -208Q184 -214 172 -222Q160 -230 160 -234Q160 -238 169 -244Q209 -256 256 -256Q303 -256 343 -244Q352 -238 352 -235ZM256 -107Q207 -107 165 -119Q129 -130 107 -147.5Q85 -165 85 -181Q85 -192 96.5 -204.5Q108 -217 129 -228Q133 -204 169.5 -187Q206 -170 256 -170Q306 -170 342.5 -187Q379 -204 383 -228Q404 -217 415.5 -204.5Q427 -192 427 -181Q427 -165 405 -147.5Q383 -130 347 -119Q305 -107 256 -107Z"/>
</svg>