<svg xmlns="http://www.w3.org/2000/svg" viewBox="0 -512 512 512">
	<path fill="#000000" d="M171 -405Q212 -405 246 -385Q280 -365 300 -331Q320 -297 320 -256Q320 -218 302.5 -186Q285 -154 256 -134V-85Q256 -76 250 -70Q244 -64 235 -64H107Q97 -64 91 -70Q85 -76 85 -85V-134Q56 -154 38.5 -186Q21 -218 21 -256Q21 -297 41 -331Q61 -365 95.5 -385Q130 -405 171 -405ZM107 0V-21H235V0Q235 10 229 15.5Q223 21 213 21H128Q118 21 112.5 15.5Q107 10 107 0ZM171 -363Q141 -363 116.5 -348.5Q92 -334 78 -309.5Q64 -285 64 -256Q64 -223 81.5 -197Q99 -171 128 -158V-107H213V-158Q243 -171 260 -197Q277 -223 277 -256Q277 -285 263 -309.5Q249 -334 224.5 -348.5Q200 -363 171 -363ZM437 -139V-107H405V-139ZM395 -245H363V-256Q363 -283 381 -301.5Q399 -320 426.5 -320Q454 -320 472.5 -301.5Q491 -283 491 -256Q491 -240 483.5 -226.5Q476 -213 463 -205L457 -201Q437 -188 437 -164V-160H405V-164Q405 -184 414.5 -200.5Q424 -217 439 -226L446 -230Q459 -240 459 -256Q459 -269 449 -278.5Q439 -288 426.5 -288Q414 -288 404.5 -278.5Q395 -269 395 -256Z"/>
</svg>