<svg xmlns="http://www.w3.org/2000/svg" viewBox="0 -512 512 512">
	<path fill="#000000" d="M171 -405Q130 -405 95.5 -385Q61 -365 41 -331Q21 -297 21 -256Q21 -218 38.5 -186Q56 -154 85 -134V-85Q85 -76 91 -70Q97 -64 107 -64H235Q244 -64 250 -70Q256 -76 256 -85V-134Q285 -156 302.5 -188Q320 -220 320 -256Q320 -297 300 -331Q280 -365 246 -385Q212 -405 171 -405ZM107 0Q107 10 112.5 15.5Q118 21 128 21H213Q223 21 229 15.5Q235 10 235 0V-21H107ZM437 -139V-107H405V-139ZM395 -245H363V-256Q363 -283 381 -301.5Q399 -320 426.5 -320Q454 -320 472.5 -301.5Q491 -283 491 -256Q491 -240 483.5 -226.5Q476 -213 463 -205L457 -201Q437 -188 437 -164V-160H405V-164Q405 -184 414.5 -200.5Q424 -217 439 -226L446 -230Q459 -240 459 -256Q459 -269 449 -278.5Q439 -288 426.5 -288Q414 -288 404.5 -278.5Q395 -269 395 -256Z"/>
</svg>