<svg xmlns="http://www.w3.org/2000/svg" viewBox="0 -512 512 512">
	<path fill="#000000" d="M469 -299H427V-405H384V-355L256 -301L128 -355V-405H85V-299H43V-256H86Q90 -220 117.5 -195.5Q145 -171 181 -171Q204 -171 223.5 -180.5Q243 -190 256 -207Q270 -190 289 -180.5Q308 -171 331 -171Q367 -171 394.5 -195.5Q422 -220 426 -256H469ZM181 -213Q159 -213 143.5 -229Q128 -245 128 -267V-309L235 -263Q233 -242 217.5 -227.5Q202 -213 181 -213ZM384 -267Q384 -245 368.5 -229Q353 -213 331.5 -213Q310 -213 294.5 -227.5Q279 -242 277 -263L384 -309ZM43 -128V-85H64Q111 -85 146.5 -54.5Q182 -24 190 21H322Q330 -24 365.5 -54.5Q401 -85 448 -85H469V-128ZM290 -21H222Q207 -58 177 -85H335Q305 -58 290 -21Z"/>
</svg>