<svg xmlns="http://www.w3.org/2000/svg" viewBox="0 -512 512 512">
	<path fill="#000000" d="M405 -384Q423 -384 435.5 -371.5Q448 -359 448 -341V-43Q448 -25 435.5 -12.5Q423 0 405 0H107Q89 0 76.5 -12.5Q64 -25 64 -43V-341Q64 -359 76.5 -371.5Q89 -384 107 -384ZM395 -53V-166Q395 -195 374.5 -215.5Q354 -236 325 -236Q311 -236 297 -228Q283 -220 276 -208V-232H216V-53H276V-159Q276 -171 284.5 -179.5Q293 -188 305.5 -188Q318 -188 326.5 -179.5Q335 -171 335 -159V-53ZM147 -265Q162 -265 172.5 -275.5Q183 -286 183 -301Q183 -316 172.5 -326.5Q162 -337 147 -337Q132 -337 121.5 -326.5Q111 -316 111 -301Q111 -286 121.5 -275.5Q132 -265 147 -265ZM176 -53V-232H117V-53Z"/>
</svg>