<svg xmlns="http://www.w3.org/2000/svg" viewBox="0 -512 512 512">
	<path fill="#000000" d="M149 -299H235V-256H149Q123 -256 104 -237.5Q85 -219 85 -192Q85 -165 104 -146.5Q123 -128 149 -128H235V-85H149Q120 -85 95.5 -99.5Q71 -114 57 -138.5Q43 -163 43 -192Q43 -221 57 -245.5Q71 -270 95.5 -284.5Q120 -299 149 -299ZM363 -299Q392 -299 416.5 -284.5Q441 -270 455 -245.5Q469 -221 469 -192H427Q427 -219 408 -237.5Q389 -256 363 -256H277V-299ZM171 -213H341V-171H171ZM363 -192H405V-128H469V-85H405V-21H363V-85H299V-128H363Z"/>
</svg>