<svg xmlns="http://www.w3.org/2000/svg" viewBox="0 -512 512 512">
	<path fill="#000000" d="M405 -384H107Q89 -384 76.5 -371.5Q64 -359 64 -341V-43Q64 -25 76.5 -12.5Q89 0 107 0H405Q423 0 435.5 -12.5Q448 -25 448 -43V-341Q448 -359 435.5 -371.5Q423 -384 405 -384ZM405 -43H107V-341H405ZM297 -233Q318 -212 318 -182.5Q318 -153 297 -132L250 -85Q230 -64 200 -64Q170 -64 149 -85Q128 -106 128 -135.5Q128 -165 149 -186L178 -215V-203Q178 -186 183 -172L184 -169L175 -160Q165 -150 165 -136Q165 -122 175 -111.5Q185 -101 199.5 -101Q214 -101 224 -111L271 -158Q281 -169 281 -182.5Q281 -196 271 -207Q265 -212 265 -220Q265 -228 270.5 -233.5Q276 -239 284 -239Q292 -239 297 -233ZM384 -248Q384 -219 363 -198L334 -169V-181Q334 -198 329 -212L328 -215L337 -224Q347 -234 347 -248Q347 -262 337 -272.5Q327 -283 312.5 -282.5Q298 -282 288 -273L241 -226Q231 -215 231 -201.5Q231 -188 241 -177Q247 -172 247 -164Q247 -156 241.5 -150.5Q236 -145 228 -145Q220 -145 215 -151Q194 -172 194 -201.5Q194 -231 215 -252L262 -299Q283 -320 312.5 -320Q342 -320 363 -299Q384 -278 384 -248Z"/>
</svg>