<svg xmlns="http://www.w3.org/2000/svg" viewBox="0 -512 512 512">
	<path fill="#000000" d="M226 -162Q232 -156 232 -147Q232 -138 226 -131.5Q220 -125 211 -125Q202 -125 196 -132Q175 -152 168 -179.5Q161 -207 168 -234.5Q175 -262 196 -282L271 -358Q292 -378 319.5 -385.5Q347 -393 374.5 -385.5Q402 -378 422 -358Q442 -338 449.5 -310.5Q457 -283 449.5 -255.5Q442 -228 422 -207L390 -175Q391 -202 382 -227L392 -237Q411 -256 411 -282.5Q411 -309 392 -328Q373 -347 346.5 -347Q320 -347 301 -328L226 -252Q207 -234 207 -207.5Q207 -181 226 -162ZM286 -252Q292 -259 301 -259Q310 -259 316 -252Q337 -232 344 -204.5Q351 -177 344 -149.5Q337 -122 316 -102L241 -26Q220 -6 192.5 1.5Q165 9 137.5 1.5Q110 -6 90 -26Q70 -46 62.5 -73.5Q55 -101 62.5 -128.5Q70 -156 90 -177L122 -209Q121 -182 130 -157L120 -147Q101 -128 101 -101.5Q101 -75 120 -56Q139 -37 165.5 -37Q192 -37 211 -56L286 -132Q305 -150 305 -176.5Q305 -203 286 -222Q280 -228 280 -237Q280 -246 286 -252Z"/>
</svg>