<svg xmlns="http://www.w3.org/2000/svg" viewBox="0 -512 512 512">
	<path fill="#000000" d="M363 -299H277V-258H363Q390 -258 409.5 -238.5Q429 -219 429 -192Q429 -169 415 -151.5Q401 -134 380 -128L411 -97Q437 -111 453 -136Q469 -161 469 -191Q469 -221 455 -245.5Q441 -270 416.5 -284.5Q392 -299 363 -299ZM341 -213H295L337 -171H341ZM43 -357L109 -291Q79 -279 61 -252Q43 -225 43 -192Q43 -163 57 -138.5Q71 -114 95.5 -99.5Q120 -85 149 -85H235V-126H149Q122 -126 102.5 -145.5Q83 -165 83 -191Q83 -217 100 -236Q117 -255 142 -257L186 -213H171V-171H229L277 -122V-85H314L400 0L427 -27L70 -384Z"/>
</svg>