<svg xmlns="http://www.w3.org/2000/svg" viewBox="0 -512 512 512">
	<path fill="#000000" d="M491 -107V-117Q491 -139 475 -155Q459 -171 437 -171Q415 -171 399.5 -155Q384 -139 384 -117V-107Q375 -107 369 -100.5Q363 -94 363 -85V0Q363 9 369 15Q375 21 384 21H491Q500 21 506 15Q512 9 512 0V-85Q512 -94 506 -100.5Q500 -107 491 -107ZM469 -107H405V-117Q405 -131 414.5 -140Q424 -149 437.5 -149Q451 -149 460 -140Q469 -131 469 -117ZM149 -258H235V-299H149Q120 -299 95.5 -284.5Q71 -270 57 -245.5Q43 -221 43 -192Q43 -163 57 -138.5Q71 -114 95.5 -99.5Q120 -85 149 -85H235V-126H149Q122 -126 102.5 -145.5Q83 -165 83 -192Q83 -219 102.5 -238.5Q122 -258 149 -258ZM171 -213V-171H341V-213ZM277 -126V-85H320V-126ZM363 -299H277V-258H363Q384 -258 401.5 -245.5Q419 -233 425 -213Q431 -214 437 -213H467Q460 -251 430.5 -275Q401 -299 363 -299Z"/>
</svg>