<svg xmlns="http://www.w3.org/2000/svg" viewBox="0 -512 512 512">
	<path fill="#000000" d="M174 -389Q214 -405 256 -405Q298 -405 337.5 -389Q377 -373 407 -343Q437 -313 453 -273.5Q469 -234 469 -192Q469 -150 453 -110.5Q437 -71 407 -41Q377 -11 337.5 5Q298 21 256 21Q214 21 174.5 5Q135 -11 105 -41Q75 -71 59 -110.5Q43 -150 43 -192Q43 -234 59 -273.5Q75 -313 105 -343Q135 -373 174 -389ZM213 -107H235V-149H213Q200 -149 189 -155Q171 -166 171 -191.5Q171 -217 188 -228Q199 -235 213 -235H235V-277H213Q194 -277 176 -269Q155 -260 142 -242Q128 -221 128 -192Q128 -163 142 -142Q155 -124 176 -115Q194 -107 213 -107ZM277 -107H299Q318 -107 336 -115Q357 -124 370 -142Q384 -163 384 -192Q384 -221 370 -242Q357 -260 336 -269Q318 -277 299 -277H277V-235H299Q312 -235 323 -229Q341 -218 341 -192.5Q341 -167 324 -156Q313 -149 299 -149H277ZM192 -171H320V-213H192Z"/>
</svg>