<svg xmlns="http://www.w3.org/2000/svg" viewBox="0 -512 512 512">
	<path fill="#000000" d="M43 -379V-303H75Q91 -303 97 -292Q102 -284 102 -266V-131Q102 -97 120.5 -68Q139 -39 170 -22Q201 -5 239 -5H425Q443 -5 456 -15.5Q469 -26 469 -43V-252Q469 -286 451 -315Q433 -344 401.5 -361Q370 -378 333 -378ZM141 -332H179V-140Q179 -121 190 -107.5Q201 -94 217 -94H344Q364 -94 377.5 -105.5Q391 -117 391 -134V-236Q391 -245 384.5 -252Q378 -259 368 -259Q358 -259 351.5 -252Q345 -245 345 -236V-148H305V-236Q305 -245 298.5 -252Q292 -259 282.5 -259Q273 -259 266 -252Q259 -245 259 -236V-148H220V-236Q220 -262 238 -280.5Q256 -299 281.5 -299Q307 -299 325 -281Q343 -299 368.5 -299Q394 -299 412.5 -280Q431 -261 431 -236V-127Q428 -99 408 -79Q384 -55 352 -55H210Q185 -57 164 -78Q141 -101 141 -132Z"/>
</svg>