<svg xmlns="http://www.w3.org/2000/svg" viewBox="0 -512 512 512">
	<path fill="#000000" d="M64 -149Q64 -129 75.5 -112.5Q87 -96 107 -90V-21H64V21H192V-21H149V-90Q169 -96 180.5 -112.5Q192 -129 192 -149V-320H64ZM107 -277H149V-213H107ZM439 -267L418 -273Q413 -275 409 -280.5Q405 -286 405 -292V-384Q405 -392 398.5 -398.5Q392 -405 384 -405H320Q311 -405 305 -398.5Q299 -392 299 -384V-292Q299 -286 294.5 -280Q290 -274 284 -271L265 -265Q251 -260 243 -249Q235 -238 235 -224V-21Q235 -4 247.5 8.5Q260 21 277 21H427Q444 21 456.5 8.5Q469 -4 469 -21V-226Q469 -239 461 -250.5Q453 -262 439 -267ZM341 -363H363V-341H341ZM277 -226L297 -233Q317 -239 329 -255Q341 -271 341 -292V-299H363V-292Q363 -272 374.5 -255.5Q386 -239 405 -233L427 -226V-192H277ZM427 -21H277V-64H427Z"/>
</svg>