<svg xmlns="http://www.w3.org/2000/svg" viewBox="0 -512 512 512">
	<path fill="#000000" d="M299 -192L213 -277V-213H43V-171H213V-107ZM469 -192Q469 -140 445.5 -94.5Q422 -49 381 -19Q340 11 288.5 19Q237 27 188.5 10.5Q140 -6 104 -42Q68 -78 52 -128H98Q113 -91 143 -64.5Q173 -38 211 -27.5Q249 -17 288.5 -24.5Q328 -32 359.5 -56.5Q391 -81 409 -116.5Q427 -152 427 -192Q427 -232 409 -267.5Q391 -303 359.5 -327.5Q328 -352 288.5 -359.5Q249 -367 211 -356.5Q173 -346 143 -319.5Q113 -293 98 -256H52Q68 -306 104 -342Q140 -378 188.5 -394.5Q237 -411 288.5 -403Q340 -395 381 -365Q422 -335 445.5 -289.5Q469 -244 469 -192Z"/>
</svg>