<svg xmlns="http://www.w3.org/2000/svg" viewBox="0 -512 512 512">
	<path fill="#000000" d="M181 -405Q141 -405 113 -377Q85 -349 85 -309V-299Q68 -299 55.5 -286.5Q43 -274 43 -256V-64Q43 -46 55.5 -33.5Q68 -21 85 -21H186Q209 -1 238.5 10Q268 21 299 21Q345 21 384 -2Q423 -25 446 -64Q469 -103 469 -149.5Q469 -196 446 -235Q423 -274 384 -297Q345 -320 299 -320Q288 -320 277 -318Q273 -355 245.5 -380Q218 -405 181 -405ZM181 -363Q203 -363 219 -347Q235 -331 235 -309V-299H128V-309Q128 -331 143.5 -347Q159 -363 181 -363ZM299 -277Q324 -277 347.5 -267.5Q371 -258 389 -240Q407 -222 417 -198.5Q427 -175 427 -149Q427 -115 409.5 -85.5Q392 -56 362.5 -38.5Q333 -21 298.5 -21Q264 -21 234.5 -38.5Q205 -56 188 -85.5Q171 -115 171 -149.5Q171 -184 188 -213.5Q205 -243 234.5 -260Q264 -277 299 -277ZM277 -235V-128L355 -81L372 -109L309 -146V-235Z"/>
</svg>