<svg xmlns="http://www.w3.org/2000/svg" viewBox="0 -512 512 512">
	<path fill="#000000" d="M149 -384Q185 -384 210 -359Q235 -334 235 -299Q235 -269 217 -246Q199 -223 171 -216V-168Q182 -165 193 -159L289 -255Q277 -275 277 -299Q277 -334 302 -359Q327 -384 362.5 -384Q398 -384 423 -359Q448 -334 448 -298.5Q448 -263 423 -238Q398 -213 363 -213Q339 -213 320 -225L223 -128Q235 -109 235 -85Q235 -50 210 -25Q185 0 149.5 0Q114 0 89 -25Q64 -50 64 -85Q64 -115 82 -138Q100 -161 128 -168V-216Q100 -223 82 -246Q64 -269 64 -299Q64 -334 89 -359Q114 -384 149 -384ZM363 -171Q398 -171 423 -146Q448 -121 448 -85.5Q448 -50 423 -25Q398 0 362.5 0Q327 0 302 -25Q277 -50 277 -85.5Q277 -121 302 -146Q327 -171 363 -171ZM363 -128Q345 -128 332.5 -115.5Q320 -103 320 -85.5Q320 -68 332.5 -55.5Q345 -43 362.5 -43Q380 -43 392.5 -55.5Q405 -68 405 -85.5Q405 -103 392.5 -115.5Q380 -128 363 -128Z"/>
</svg>