<svg xmlns="http://www.w3.org/2000/svg" viewBox="0 -512 512 512">
	<path fill="#000000" d="M203 -213Q215 -213 225 -203.5Q235 -194 235 -181.5Q235 -169 225 -159Q215 -149 202.5 -149Q190 -149 180.5 -159Q171 -169 171 -181.5Q171 -194 180.5 -203.5Q190 -213 203 -213ZM309 -43Q297 -43 287 -52.5Q277 -62 277 -74.5Q277 -87 287 -97Q297 -107 309.5 -107Q322 -107 331.5 -97Q341 -87 341 -74.5Q341 -62 331.5 -52.5Q322 -43 309 -43ZM196 -38L166 -68L318 -220L348 -190ZM384 -277H363V-320Q363 -349 348.5 -373.5Q334 -398 309.5 -412.5Q285 -427 256 -427Q227 -427 202.5 -412.5Q178 -398 163.5 -373.5Q149 -349 149 -320H192Q192 -347 210.5 -365.5Q229 -384 256 -384Q283 -384 301.5 -365.5Q320 -347 320 -320V-277H128Q110 -277 97.5 -264.5Q85 -252 85 -235V-21Q85 -4 97.5 8.5Q110 21 128 21H384Q402 21 414.5 8.5Q427 -4 427 -21V-235Q427 -252 414.5 -264.5Q402 -277 384 -277ZM384 -21H128V-235H384Z"/>
</svg>