<svg xmlns="http://www.w3.org/2000/svg" viewBox="0 -512 512 512">
	<path fill="#000000" d="M160 -213Q173 -213 182.5 -203.5Q192 -194 192 -181.5Q192 -169 182.5 -159Q173 -149 160 -149Q147 -149 137.5 -159Q128 -169 128 -181.5Q128 -194 137.5 -203.5Q147 -213 160 -213ZM267 -43Q254 -43 244.5 -52.5Q235 -62 235 -74.5Q235 -87 244.5 -97Q254 -107 266.5 -107Q279 -107 289 -97Q299 -87 299 -74.5Q299 -62 289 -52.5Q279 -43 267 -43ZM154 -38L124 -68L275 -220L305 -190ZM384 -427Q355 -427 330.5 -412.5Q306 -398 291.5 -373.5Q277 -349 277 -320V-277H85Q68 -277 55.5 -264.5Q43 -252 43 -235V-21Q43 -4 55.5 8.5Q68 21 85 21H341Q359 21 371.5 8.5Q384 -4 384 -21V-235Q384 -252 371.5 -264.5Q359 -277 341 -277H320V-320Q320 -347 338.5 -365.5Q357 -384 384 -384Q411 -384 429.5 -365.5Q448 -347 448 -320V-277H491V-320Q491 -349 476.5 -373.5Q462 -398 437.5 -412.5Q413 -427 384 -427ZM341 -235V-21H85V-235Z"/>
</svg>