<svg xmlns="http://www.w3.org/2000/svg" viewBox="0 -512 512 512">
	<path fill="#000000" d="M341 -21V-235H85V-21ZM341 -277Q359 -277 371.5 -264.5Q384 -252 384 -235V-21Q384 -4 371.5 8.5Q359 21 341 21H85Q68 21 55.5 8.5Q43 -4 43 -21V-235Q43 -252 55.5 -264.5Q68 -277 85 -277H277V-320Q277 -347 259 -365.5Q241 -384 213.5 -384Q186 -384 167.5 -365.5Q149 -347 149 -320H107Q107 -349 121 -373.5Q135 -398 159.5 -412.5Q184 -427 213.5 -427Q243 -427 267.5 -412.5Q292 -398 306 -373.5Q320 -349 320 -320V-277ZM213 -85Q196 -85 183.5 -97.5Q171 -110 171 -128Q171 -146 183.5 -158.5Q196 -171 213.5 -171Q231 -171 243.5 -158.5Q256 -146 256 -128Q256 -110 243.5 -97.5Q231 -85 213 -85ZM469 -299H427V-171H469ZM469 -128H427V-85H469Z"/>
</svg>