<svg xmlns="http://www.w3.org/2000/svg" viewBox="0 -512 512 512">
	<path fill="#000000" d="M269 -405Q327 -405 376.5 -376.5Q426 -348 454.5 -299Q483 -250 483 -192Q483 -134 454.5 -85Q426 -36 376.5 -7.5Q327 21 269 21Q214 21 167 -5Q120 -31 91 -76L125 -103Q148 -65 186 -43Q224 -21 270 -21Q316 -21 355 -44Q394 -67 417 -106.5Q440 -146 440 -192Q440 -238 417 -277.5Q394 -317 355 -340Q316 -363 270 -363Q227 -363 190 -343Q153 -323 129.5 -289Q106 -255 100 -213H159L80 -134L0 -213H57Q63 -267 92.5 -310.5Q122 -354 168.5 -379.5Q215 -405 269 -405ZM333 -230Q341 -229 346.5 -223.5Q352 -218 352 -210V-112Q352 -104 346 -98Q340 -92 332 -92H214Q206 -92 200.5 -98Q195 -104 195 -112V-210Q195 -218 200.5 -223.5Q206 -229 214 -230V-251Q214 -276 231.5 -293Q249 -310 273.5 -310Q298 -310 315.5 -293Q333 -276 333 -251ZM273 -280Q261 -280 252.5 -271.5Q244 -263 244 -251V-230H303V-251Q303 -263 294 -271.5Q285 -280 273 -280Z"/>
</svg>