<svg xmlns="http://www.w3.org/2000/svg" viewBox="0 -512 512 512">
	<path fill="#000000" d="M213 -171Q231 -171 243.5 -158.5Q256 -146 256 -128Q256 -110 243.5 -97.5Q231 -85 213.5 -85Q196 -85 183.5 -97.5Q171 -110 171 -128Q171 -146 183.5 -158.5Q196 -171 213 -171ZM384 -427Q355 -427 330.5 -412.5Q306 -398 291.5 -373.5Q277 -349 277 -320V-277H85Q68 -277 55.5 -264.5Q43 -252 43 -235V-21Q43 -4 55.5 8.5Q68 21 85 21H341Q359 21 371.5 8.5Q384 -4 384 -21V-235Q384 -252 371.5 -264.5Q359 -277 341 -277H320V-320Q320 -347 338.5 -365.5Q357 -384 384 -384Q411 -384 429.5 -365.5Q448 -347 448 -320V-277H491V-320Q491 -349 476.5 -373.5Q462 -398 437.5 -412.5Q413 -427 384 -427ZM341 -235V-21H85V-235Z"/>
</svg>