<svg xmlns="http://www.w3.org/2000/svg" viewBox="0 -512 512 512">
	<path fill="#000000" d="M256 -405Q221 -405 191.5 -388Q162 -371 145 -341.5Q128 -312 128 -277V-107Q128 -72 145 -42.5Q162 -13 191.5 4Q221 21 256 21Q291 21 320.5 4Q350 -13 367 -42.5Q384 -72 384 -107V-277Q384 -312 367 -341.5Q350 -371 320.5 -388Q291 -405 256 -405ZM171 -320H213V-277H171ZM235 -320H277V-277H235ZM299 -320H341V-277H299ZM171 -256H213V-213H171ZM235 -256H277V-213H235ZM299 -256H341V-213H299ZM171 -192H213V-149H171ZM235 -192H277V-149H235ZM299 -192H341V-149H299ZM256 -107Q274 -107 286.5 -94.5Q299 -82 299 -64Q299 -46 286.5 -33.5Q274 -21 256 -21Q238 -21 225.5 -33.5Q213 -46 213 -64Q213 -82 225.5 -94.5Q238 -107 256 -107Z"/>
</svg>