<svg xmlns="http://www.w3.org/2000/svg" viewBox="0 -512 512 512">
	<path fill="#000000" d="M256 -405Q198 -405 149 -376.5Q100 -348 71.5 -299Q43 -250 43 -192Q43 -134 71.5 -85Q100 -36 149 -7.5Q198 21 256 21Q314 21 363 -7.5Q412 -36 440.5 -85Q469 -134 469 -192Q469 -250 440.5 -299Q412 -348 363 -376.5Q314 -405 256 -405ZM201 -30Q149 -48 117 -92.5Q85 -137 85 -192Q85 -247 117 -291.5Q149 -336 201 -354Q160 -278 160 -192Q160 -106 201 -30ZM256 -21Q230 -59 216 -102.5Q202 -146 202 -192Q202 -238 216 -281.5Q230 -325 256 -363Q282 -325 296 -281.5Q310 -238 310 -192Q310 -146 296 -102.5Q282 -59 256 -21ZM311 -30Q352 -106 352 -192Q352 -278 311 -354Q363 -336 395 -291.5Q427 -247 427 -192Q427 -137 395.5 -92Q364 -47 311 -30Z"/>
</svg>