<svg xmlns="http://www.w3.org/2000/svg" viewBox="0 -512 512 512">
	<path fill="#000000" d="M256 -320Q192 -320 138 -288.5Q84 -257 52.5 -203Q21 -149 21 -85H64Q64 -137 90 -181.5Q116 -226 160 -251.5Q204 -277 256 -277Q308 -277 352 -251.5Q396 -226 422 -181.5Q448 -137 448 -85H491Q491 -149 459.5 -203Q428 -257 374 -288.5Q320 -320 256 -320ZM256 -235Q216 -235 181.5 -214.5Q147 -194 127 -160Q107 -126 107 -85H149Q149 -114 163.5 -138.5Q178 -163 202.5 -177.5Q227 -192 256 -192Q285 -192 309.5 -177.5Q334 -163 348.5 -138.5Q363 -114 363 -85H405Q405 -126 385 -160Q365 -194 330.5 -214.5Q296 -235 256 -235Z"/>
</svg>