<svg xmlns="http://www.w3.org/2000/svg" viewBox="0 -512 512 512">
	<path fill="#000000" d="M330 -382Q323 -386 314 -383Q305 -380 301 -372Q299 -368 299 -363V-307L284 -323Q277 -329 277 -337V-427H235V-338Q235 -329 228 -323L213 -307V-363Q213 -372 207 -378Q201 -384 192 -384Q187 -384 182 -382Q120 -351 81.5 -277Q43 -203 43 -112Q43 -50 64 7Q67 15 75 19Q83 23 92 20L203 -41Q213 -47 213 -60V-247L241 -275Q247 -281 256 -281Q265 -281 271 -275L299 -247V-60Q299 -48 309 -41L418 19Q426 23 434.5 20.5Q443 18 447 10L448 7Q469 -50 469 -112Q469 -203 430.5 -277Q392 -351 330 -382Z"/>
</svg>