<svg xmlns="http://www.w3.org/2000/svg" viewBox="0 -512 512 512">
	<path fill="#000000" d="M425 -250Q427 -259 427 -266.5Q427 -274 425 -283L491 -267ZM313 -172L331 -103L348 -172Q339 -171 330.5 -171Q322 -171 313 -172ZM250 -216L145 -111L130 -126L21 -18L82 43L190 -66L175 -81L280 -186Q261 -197 250 -216ZM347 -361L331 -427L314 -361Q323 -363 330.5 -363Q338 -363 347 -361ZM171 -267L236 -250Q235 -259 235 -266.5Q235 -274 236 -283ZM397 -234Q405 -250 405 -267Q405 -284 397 -300L448 -384L364 -333Q348 -341 331 -341Q314 -341 298 -333L213 -384L264 -300Q256 -284 256 -267Q256 -236 278 -214Q300 -192 331 -192Q348 -192 364 -200L448 -149Z"/>
</svg>