<svg xmlns="http://www.w3.org/2000/svg" viewBox="0 -512 512 512">
	<path fill="#000000" d="M373 -256Q351 -256 335.5 -271.5Q320 -287 320 -309Q320 -331 335.5 -347Q351 -363 373 -363Q395 -363 411 -347Q427 -331 427 -309Q427 -287 411 -271.5Q395 -256 373 -256ZM308 -274L43 -9L73 21L338 -244Q319 -255 308 -274ZM277 -341L291 -371L320 -384L291 -397L277 -427L264 -397L235 -384L264 -371ZM448 -341L461 -371L491 -384L461 -397L448 -427L435 -397L405 -384L435 -371ZM448 -256L435 -227L405 -213L435 -200L448 -171L461 -200L491 -213L461 -227Z"/>
</svg>