<svg xmlns="http://www.w3.org/2000/svg" viewBox="0 -512 512 512">
	<path fill="#000000" d="M331 -149H314L308 -155Q341 -194 341 -245Q341 -283 322.5 -315Q304 -347 272 -365.5Q240 -384 202.5 -384Q165 -384 133 -365.5Q101 -347 82.5 -315Q64 -283 64 -245.5Q64 -208 82.5 -176Q101 -144 133 -125.5Q165 -107 203 -107Q254 -107 293 -140L299 -134V-117L405 -11L437 -43ZM203 -149Q163 -149 135 -177Q107 -205 107 -245Q107 -285 135 -313Q163 -341 203 -341Q243 -341 271 -313Q299 -285 299 -245Q299 -205 271 -177Q243 -149 203 -149ZM149 -256H256V-235H149Z"/>
</svg>