<svg xmlns="http://www.w3.org/2000/svg" viewBox="0 -512 512 512">
	<path fill="#000000" d="M203 -384Q240 -384 272 -365.5Q304 -347 322.5 -315Q341 -283 341 -245Q341 -194 308 -155L314 -149H331L437 -43L405 -11L299 -117V-134L293 -140Q254 -107 203 -107Q165 -107 133 -125.5Q101 -144 82.5 -176Q64 -208 64 -245.5Q64 -283 82.5 -315Q101 -347 133 -365.5Q165 -384 203 -384ZM203 -341Q163 -341 135 -313Q107 -285 107 -245Q107 -205 135 -177Q163 -149 203 -149Q243 -149 271 -177Q299 -205 299 -245Q299 -285 271 -313Q243 -341 203 -341Z"/>
</svg>