<svg xmlns="http://www.w3.org/2000/svg" viewBox="0 -512 512 512">
	<path fill="#000000" d="M363 21V-21H427V-85H469V-11Q469 2 459.5 11.5Q450 21 437 21ZM149 21H75Q62 21 52.5 11.5Q43 2 43 -11V-85H85V-21H149ZM363 -405H437Q450 -405 459.5 -395.5Q469 -386 469 -373V-299H427V-363H363ZM149 -405V-363H85V-299H43V-373Q43 -386 52.5 -395.5Q62 -405 75 -405ZM224 -320Q264 -320 292 -292Q320 -264 320 -224Q320 -196 305 -173L375 -103L345 -73L275 -143Q252 -128 224 -128Q184 -128 156 -156Q128 -184 128 -224Q128 -264 156 -292Q184 -320 224 -320ZM224 -277Q202 -277 186.5 -261.5Q171 -246 171 -224Q171 -202 186.5 -186.5Q202 -171 224 -171Q246 -171 261.5 -186.5Q277 -202 277 -224Q277 -246 261.5 -261.5Q246 -277 224 -277Z"/>
</svg>