<svg xmlns="http://www.w3.org/2000/svg" viewBox="0 -512 512 512">
	<path fill="#000000" d="M384 -107H372L354 -124Q384 -164 384 -213Q384 -254 364 -288.5Q344 -323 309.5 -343Q275 -363 235 -363Q185 -363 145 -333Q112 -308 97 -271.5Q82 -235 86.5 -195.5Q91 -156 115 -123.5Q139 -91 176 -76Q213 -61 252.5 -65.5Q292 -70 324 -94L341 -77V-64L448 43L491 0ZM235 -107Q206 -107 181.5 -121Q157 -135 142.5 -159.5Q128 -184 128 -213Q128 -242 142.5 -266.5Q157 -291 181.5 -305.5Q206 -320 235 -320Q264 -320 288.5 -305.5Q313 -291 327 -266.5Q341 -242 341 -213Q341 -184 327 -159.5Q313 -135 288.5 -121Q264 -107 235 -107ZM64 -320L21 -277V-427H171L128 -384H64ZM448 -427V-277L405 -320V-384H341L299 -427ZM128 -43L171 0H21V-149L64 -107V-43Z"/>
</svg>