<svg xmlns="http://www.w3.org/2000/svg" viewBox="0 -512 512 512">
	<path fill="#000000" d="M299 -213H427V-128H384V-171H299ZM384 -363H171Q142 -363 117.5 -348.5Q93 -334 78.5 -309.5Q64 -285 64 -256V-64H21V-21H448Q466 -21 478.5 -33.5Q491 -46 491 -64V-256Q491 -285 476.5 -309.5Q462 -334 437.5 -348.5Q413 -363 384 -363ZM235 -64H107V-256Q107 -283 125.5 -301.5Q144 -320 170.5 -320Q197 -320 216 -301.5Q235 -283 235 -256ZM448 -64H277V-256Q277 -292 256 -320H384Q411 -320 429.5 -301.5Q448 -283 448 -256Z"/>
</svg>