<svg xmlns="http://www.w3.org/2000/svg" viewBox="0 -512 512 512">
	<path fill="#000000" d="M256 -405Q216 -405 181.5 -385Q147 -365 127 -330.5Q107 -296 107 -257Q107 -218 130 -165Q149 -124 181 -75Q205 -41 233 -6L256 21L279 -6Q307 -41 331 -75Q363 -124 382 -165Q405 -217 405 -256.5Q405 -296 385 -330.5Q365 -365 330.5 -385Q296 -405 256 -405ZM256 -363Q274 -363 286.5 -350.5Q299 -338 299 -320Q299 -302 286.5 -289.5Q274 -277 256 -277Q238 -277 225.5 -289.5Q213 -302 213 -320Q213 -338 225.5 -350.5Q238 -363 256 -363ZM256 -149Q230 -149 207.5 -161.5Q185 -174 171 -195Q171 -214 203 -228Q230 -239 256 -239Q282 -239 309 -228Q341 -214 341 -195Q327 -174 304.5 -161.5Q282 -149 256 -149Z"/>
</svg>