<svg xmlns="http://www.w3.org/2000/svg" viewBox="0 -512 512 512">
	<path fill="#000000" d="M256 -21Q210 -21 170.5 -44Q131 -67 108 -106.5Q85 -146 85 -192Q85 -238 108 -277.5Q131 -317 170.5 -340Q210 -363 256 -363Q302 -363 341.5 -340Q381 -317 404 -277.5Q427 -238 427 -192Q427 -146 404 -106.5Q381 -67 341.5 -44Q302 -21 256 -21ZM256 -405Q214 -405 174.5 -389Q135 -373 105 -343Q75 -313 59 -273.5Q43 -234 43 -192Q43 -150 59 -110.5Q75 -71 105 -41Q135 -11 174.5 5Q214 21 256 21Q298 21 337.5 5Q377 -11 407 -41Q437 -71 453 -110.5Q469 -150 469 -192Q469 -234 453 -273.5Q437 -313 407 -343Q377 -373 337.5 -389Q298 -405 256 -405ZM256 -181Q243 -181 233.5 -190.5Q224 -200 224 -213.5Q224 -227 233.5 -236Q243 -245 256 -245Q269 -245 278.5 -236Q288 -227 288 -213.5Q288 -200 278.5 -190.5Q269 -181 256 -181ZM256 -294Q222 -294 198.5 -270.5Q175 -247 175 -213Q175 -191 188 -165Q198 -143 215 -120Q228 -103 243 -87L256 -75L269 -87Q284 -103 297 -120Q314 -143 324 -165Q337 -191 337 -213Q337 -247 313.5 -270.5Q290 -294 256 -294Z"/>
</svg>