<svg xmlns="http://www.w3.org/2000/svg" viewBox="0 -512 512 512">
	<path fill="#000000" d="M384 -128Q411 -128 429.5 -109.5Q448 -91 448 -64Q448 -37 429.5 -18.5Q411 0 384 0Q363 0 346.5 -12Q330 -24 324 -43H299V-85H324Q330 -104 346.5 -116Q363 -128 384 -128ZM384 -85Q375 -85 369 -79Q363 -73 363 -64Q363 -55 369 -49Q375 -43 384 -43Q393 -43 399 -49Q405 -55 405 -64Q405 -73 399 -79Q393 -85 384 -85ZM384 -277Q397 -277 406 -286Q415 -295 415 -307.5Q415 -320 406 -329Q397 -338 384 -338Q371 -338 362 -329Q353 -320 353 -307.5Q353 -295 362 -286Q371 -277 384 -277ZM384 -393Q419 -393 444 -368Q469 -343 469 -308Q469 -268 427 -205Q405 -173 384 -149L362 -176Q337 -209 321 -238Q299 -279 299 -308Q299 -343 324 -368Q349 -393 384 -393ZM188 -85H213V-43H188Q182 -24 165.5 -12Q149 0 128 0Q101 0 82.5 -18.5Q64 -37 64 -64Q64 -85 76 -101.5Q88 -118 107 -124V-149H149V-124Q163 -120 173.5 -109.5Q184 -99 188 -85ZM128 -85Q119 -85 113 -79Q107 -73 107 -64Q107 -55 113 -49Q119 -43 128 -43Q137 -43 143 -49Q149 -55 149 -64Q149 -73 143 -79Q137 -85 128 -85ZM128 -384Q155 -384 173.5 -365.5Q192 -347 192 -320Q192 -299 180 -282.5Q168 -266 149 -260V-235H107V-260Q88 -266 76 -282.5Q64 -299 64 -320Q64 -347 82.5 -365.5Q101 -384 128 -384ZM128 -341Q119 -341 113 -335Q107 -329 107 -320Q107 -311 113 -305Q119 -299 128 -299Q137 -299 143 -305Q149 -311 149 -320Q149 -329 143 -335Q137 -341 128 -341ZM235 -43V-85H277V-43ZM149 -171H107V-213H149Z"/>
</svg>