<svg xmlns="http://www.w3.org/2000/svg" viewBox="0 -512 512 512">
	<path fill="#000000" d="M256 -405Q297 -405 331 -385Q365 -365 385 -331Q405 -297 405 -256Q405 -207 367 -135Q339 -83 295 -26Q273 3 256 21L233 -6Q205 -41 181 -76Q149 -124 130 -166Q107 -218 107 -256Q107 -297 127 -331Q147 -365 181 -385Q215 -405 256 -405ZM256 -363Q227 -363 202.5 -348.5Q178 -334 163.5 -309.5Q149 -285 149 -256Q149 -239 153 -225Q160 -198 181 -162Q207 -114 256 -49Q305 -114 331 -162Q352 -198 359 -225Q363 -239 363 -256Q363 -285 348.5 -309.5Q334 -334 309.5 -348.5Q285 -363 256 -363ZM256 -203L307 -171L294 -230L341 -271L279 -275L256 -333L233 -277L171 -271L218 -230L203 -171Z"/>
</svg>