<svg xmlns="http://www.w3.org/2000/svg" viewBox="0 -512 512 512">
	<path fill="#000000" d="M320 -203Q298 -203 282.5 -218.5Q267 -234 267 -256Q267 -278 282.5 -293.5Q298 -309 320 -309Q342 -309 357.5 -293.5Q373 -278 373 -256Q373 -234 357.5 -218.5Q342 -203 320 -203ZM171 -256Q171 -218 194 -165Q213 -124 245 -75Q269 -41 297 -6L320 21L343 -6Q371 -41 395 -75Q427 -124 446 -165Q469 -218 469 -257.5Q469 -297 449 -331Q429 -365 395 -385Q361 -405 320 -405Q279 -405 245 -385Q211 -365 191 -331Q171 -297 171 -256ZM128 -299L21 -192L128 -85Z"/>
</svg>