<svg xmlns="http://www.w3.org/2000/svg" viewBox="0 -512 512 512">
	<path fill="#000000" d="M245 -256Q245 -278 261 -293.5Q277 -309 299 -309Q316 -309 330 -299Q344 -289 349 -273Q352 -264 352 -256Q352 -234 336.5 -218.5Q321 -203 299 -203Q281 -203 267.5 -212.5Q254 -222 248 -238Q245 -247 245 -256ZM107 -256Q107 -197 160 -108Q189 -61 232 -7L235 -4L213 21L190 -6Q162 -41 139 -75Q106 -124 87 -165Q64 -217 64 -256Q64 -306 94 -345.5Q124 -385 171 -399Q141 -372 124 -335Q107 -298 107 -256ZM299 -405Q339 -405 373.5 -385Q408 -365 428 -331Q448 -297 448 -256Q448 -206 409 -134Q382 -83 337 -26Q315 3 299 21L275 -6Q247 -41 224 -75Q191 -124 173 -165Q149 -217 149 -257Q149 -297 169.5 -331Q190 -365 224 -385Q258 -405 299 -405ZM299 -363Q270 -363 245.5 -348.5Q221 -334 206.5 -309.5Q192 -285 192 -256Q192 -239 196 -225Q203 -198 224 -161Q250 -114 299 -49Q347 -114 374 -161Q394 -198 401 -225Q405 -239 405 -256Q405 -285 391 -309.5Q377 -334 352.5 -348.5Q328 -363 299 -363Z"/>
</svg>