<svg xmlns="http://www.w3.org/2000/svg" viewBox="0 -512 512 512">
	<path fill="#000000" d="M256 -405Q291 -405 320.5 -388Q350 -371 367 -342Q384 -313 384 -279.5Q384 -246 364 -201Q348 -166 320 -125Q300 -95 276 -66L256 -43L236 -66Q212 -95 192 -125Q164 -166 148 -201Q128 -246 128 -279.5Q128 -313 145 -342Q162 -371 191.5 -388Q221 -405 256 -405ZM256 -320Q238 -320 225.5 -307.5Q213 -295 213 -277.5Q213 -260 225.5 -247.5Q238 -235 256 -235Q274 -235 286.5 -247.5Q299 -260 299 -277.5Q299 -295 286.5 -307.5Q274 -320 256 -320ZM427 -43Q427 -19 404 0.5Q381 20 341.5 31.5Q302 43 256 43Q210 43 170.5 31.5Q131 20 108 0.5Q85 -19 85 -43Q85 -63 103 -80.5Q121 -98 152 -110L165 -91Q148 -84 138 -74Q128 -64 128 -53Q128 -39 145 -26.5Q162 -14 191.5 -7Q221 0 256 0Q291 0 320.5 -7Q350 -14 367 -26.5Q384 -39 384 -53Q384 -64 374 -74Q364 -84 347 -91L360 -110Q391 -98 409 -80.5Q427 -63 427 -43Z"/>
</svg>