<svg xmlns="http://www.w3.org/2000/svg" viewBox="0 -512 512 512">
	<path fill="#000000" d="M299 -203Q321 -203 336.5 -218.5Q352 -234 352 -256Q352 -278 336.5 -293.5Q321 -309 299 -309Q277 -309 261 -293.5Q245 -278 245 -256Q245 -234 261 -218.5Q277 -203 299 -203ZM299 -405Q339 -405 373.5 -385Q408 -365 428 -331Q448 -297 448 -256Q448 -206 409 -134Q382 -83 337 -26Q315 3 299 21L275 -6Q247 -41 224 -75Q191 -124 173 -165Q149 -217 149 -257Q149 -297 169.5 -331Q190 -365 224 -385Q258 -405 299 -405ZM107 -256Q107 -197 160 -108Q189 -61 232 -7L235 -4L213 21L190 -6Q162 -41 139 -75Q106 -124 87 -165Q64 -217 64 -256Q64 -306 94 -345.5Q124 -385 171 -399Q141 -372 124 -335Q107 -298 107 -256Z"/>
</svg>