<svg xmlns="http://www.w3.org/2000/svg" viewBox="0 -512 512 512">
	<path fill="#000000" d="M256 -363Q285 -363 309.5 -348.5Q334 -334 348.5 -309.5Q363 -285 363 -256Q363 -214 326 -149Q299 -100 256 -45Q213 -100 186 -149Q149 -214 149 -256Q149 -285 163.5 -309.5Q178 -334 202.5 -348.5Q227 -363 256 -363ZM256 -405Q215 -405 181 -385Q147 -365 127 -331Q107 -297 107 -256Q107 -218 130 -166Q149 -124 181 -76Q205 -41 233 -6L256 21L279 -6Q307 -41 331 -76Q363 -124 382 -166Q405 -218 405 -256Q405 -297 385 -331Q365 -365 331 -385Q297 -405 256 -405ZM241 -149L346 -256L316 -286L241 -209L207 -243L177 -213Z"/>
</svg>