<svg xmlns="http://www.w3.org/2000/svg" viewBox="0 -512 512 512">
	<path fill="#000000" d="M256 -427Q210 -427 170.5 -404Q131 -381 108 -341.5Q85 -302 85 -256Q85 -203 124 -129Q152 -76 197 -17Q221 15 240 36L256 53L272 36Q291 15 315 -17Q360 -76 388 -129Q427 -203 427 -256Q427 -302 404 -341.5Q381 -381 341.5 -404Q302 -427 256 -427ZM256 -11Q209 -68 175 -126Q128 -206 128 -256Q128 -291 145 -320.5Q162 -350 191.5 -367Q221 -384 256 -384Q291 -384 320.5 -367Q350 -350 367 -320.5Q384 -291 384 -256Q384 -203 334 -120Q302 -67 256 -11ZM237 -149H275V-112H237ZM256 -341Q225 -341 203 -319.5Q181 -298 181 -267H219Q219 -282 230 -293Q241 -304 256 -304Q271 -304 282 -293Q293 -282 293 -267Q293 -256 286 -247Q282 -242 270 -232Q254 -220 248 -211Q237 -196 237 -173H275Q275 -187 283 -198Q288 -205 302 -217.5Q316 -230 322 -238Q331 -251 331 -267Q331 -298 309 -319.5Q287 -341 256 -341Z"/>
</svg>