<svg xmlns="http://www.w3.org/2000/svg" viewBox="0 -512 512 512">
	<path fill="#000000" d="M331 -192Q371 -192 399 -164Q427 -136 427 -96Q427 -68 412 -45L478 21L448 51L381 -15Q358 0 331 0Q291 0 263 -28Q235 -56 235 -96Q235 -136 263 -164Q291 -192 331 -192ZM331 -149Q309 -149 293 -133.5Q277 -118 277 -96Q277 -74 293 -58.5Q309 -43 331 -43Q353 -43 368.5 -58.5Q384 -74 384 -96Q384 -118 368.5 -133.5Q353 -149 331 -149ZM299 -318L171 -363V-109L192 -102V-96Q192 -76 198 -57L171 -66L57 -22L53 -21Q49 -21 46 -24.5Q43 -28 43 -32V-355Q43 -362 50 -365L171 -405L299 -361L413 -405H416Q420 -405 423.5 -402Q427 -399 427 -395V-196Q408 -214 383 -224.5Q358 -235 331 -235Q315 -235 299 -231Z"/>
</svg>