<svg xmlns="http://www.w3.org/2000/svg" viewBox="0 -512 512 512">
	<path fill="#000000" d="M256 -203Q234 -203 218.5 -218.5Q203 -234 203 -256Q203 -278 218.5 -293.5Q234 -309 256 -309Q278 -309 293.5 -293.5Q309 -278 309 -256Q309 -234 293.5 -218.5Q278 -203 256 -203ZM256 -405Q215 -405 181 -385Q147 -365 127 -331Q107 -297 107 -257Q107 -217 130 -165Q149 -124 181 -75Q205 -41 233 -6L256 21L279 -6Q307 -41 331 -75Q363 -124 382 -165Q405 -217 405 -257Q405 -297 385 -331Q365 -365 331 -385Q297 -405 256 -405Z"/>
</svg>