<svg xmlns="http://www.w3.org/2000/svg" viewBox="0 -512 512 512">
	<path fill="#000000" d="M427 -28L70 -384L43 -356L111 -288Q107 -267 107 -256Q107 -218 130 -166Q149 -124 181 -76Q205 -41 233 -6L256 21L279 -6Q306 -39 329 -73L401 0ZM256 -49Q191 -137 166 -190Q149 -225 149 -250L294 -105Q287 -93 269 -67ZM179 -329L149 -358Q169 -381 196.5 -393Q224 -405 256 -405Q297 -405 331 -385Q365 -365 385 -331Q405 -297 405 -256Q405 -208 369 -139L337 -171Q354 -204 359 -228Q363 -241 363 -256Q363 -285 348.5 -309.5Q334 -334 309.5 -348.5Q285 -363 256 -363Q234 -363 214 -354Q194 -345 179 -329ZM256 -309Q278 -309 293.5 -293.5Q309 -278 309 -255.5Q309 -233 292 -215L218 -290Q224 -299 234 -304Q244 -309 256 -309Z"/>
</svg>