<svg xmlns="http://www.w3.org/2000/svg" viewBox="0 -512 512 512">
	<path fill="#000000" d="M256 -363Q291 -363 316 -338Q341 -313 341 -277Q341 -246 314 -195Q291 -153 256 -109Q220 -156 198 -196Q171 -247 171 -277Q171 -313 196 -338Q221 -363 256 -363ZM256 -405Q221 -405 192 -388Q163 -371 145.5 -341.5Q128 -312 128 -277Q128 -217 192 -124Q224 -77 256 -43L276 -66Q300 -95 320 -125Q348 -166 364 -201Q384 -245 384 -277Q384 -312 366.5 -341.5Q349 -371 320 -388Q291 -405 256 -405ZM256 -320Q238 -320 225.5 -307.5Q213 -295 213 -277.5Q213 -260 225.5 -247.5Q238 -235 256 -235Q274 -235 286.5 -247.5Q299 -260 299 -277.5Q299 -295 286.5 -307.5Q274 -320 256 -320ZM427 -43Q427 -20 404 0Q381 20 341.5 31.5Q302 43 256 43Q210 43 170.5 31.5Q131 20 108 0Q85 -20 85 -43Q85 -63 102.5 -80.5Q120 -98 151 -111L164 -92Q128 -74 128 -53Q128 -39 145 -26.5Q162 -14 191.5 -7Q221 0 256 0Q291 0 320.5 -7Q350 -14 367 -26.5Q384 -39 384 -53Q384 -74 346 -92L358 -111Q391 -98 409 -80.5Q427 -63 427 -43Z"/>
</svg>