<svg xmlns="http://www.w3.org/2000/svg" viewBox="0 -512 512 512">
	<path fill="#000000" d="M256 -405Q216 -405 181.5 -385Q147 -365 127 -330.5Q107 -296 107 -257Q107 -218 130 -165Q149 -124 181 -75Q205 -41 233 -6L256 21L279 -6Q307 -41 331 -75Q363 -124 382 -165Q405 -217 405 -256.5Q405 -296 385 -330.5Q365 -365 330.5 -385Q296 -405 256 -405ZM275 -112H237V-149H275ZM275 -173H237Q237 -196 248 -211Q254 -220 270 -232Q282 -242 286 -247Q293 -256 293 -267Q293 -282 282 -293Q271 -304 256 -304Q241 -304 230 -293Q219 -282 219 -267H181Q181 -298 203 -319.5Q225 -341 256 -341Q287 -341 309 -319.5Q331 -298 331 -267Q331 -251 322 -238Q316 -230 302 -217.5Q288 -205 283 -198Q275 -187 275 -173Z"/>
</svg>