<svg xmlns="http://www.w3.org/2000/svg" viewBox="0 -512 512 512">
	<path fill="#000000" d="M192 -405Q152 -405 117.5 -385Q83 -365 63 -330.5Q43 -296 43 -257Q43 -218 66 -165Q85 -124 117 -75Q141 -41 169 -6L192 21L215 -6Q243 -41 267 -75Q299 -124 318 -165Q341 -217 341 -257Q341 -297 321 -331Q301 -365 267 -385Q233 -405 192 -405ZM192 -309Q214 -309 229.5 -293.5Q245 -278 245 -256Q245 -234 229.5 -218.5Q214 -203 192 -203Q170 -203 154.5 -218.5Q139 -234 139 -256Q139 -278 154.5 -293.5Q170 -309 192 -309ZM354 -146L324 -116L375 -64L324 -13L354 17L405 -34L457 17L487 -13L435 -64L487 -116L457 -146L405 -94Z"/>
</svg>