<svg xmlns="http://www.w3.org/2000/svg" viewBox="0 -512 512 512">
	<path fill="#000000" d="M139 -275Q124 -275 114 -285Q104 -295 104 -309.5Q104 -324 114 -334Q124 -344 138.5 -344Q153 -344 163 -334Q173 -324 173 -309Q173 -295 163 -285Q153 -275 139 -275ZM139 -405Q99 -405 71 -377Q43 -349 43 -309Q43 -264 91 -193Q115 -158 139 -131L154 -149Q172 -171 187 -193Q208 -224 220 -251Q235 -285 235 -309Q235 -349 207 -377Q179 -405 139 -405ZM373 -275Q359 -275 349 -285Q339 -295 339 -309.5Q339 -324 349 -334Q359 -344 373.5 -344Q388 -344 398 -334Q408 -324 408 -309.5Q408 -295 398 -285Q388 -275 373 -275ZM373 -405Q333 -405 305 -377Q277 -349 277 -309Q277 -264 325 -193Q349 -158 373 -131L388 -149Q406 -171 421 -193Q442 -224 454 -251Q469 -285 469 -309Q469 -349 441 -377Q413 -405 373 -405ZM373 -107Q353 -107 336.5 -95Q320 -83 313 -64H199Q190 -89 166 -100.5Q142 -112 117 -103Q92 -94 80.5 -70Q69 -46 78 -21Q87 4 111 15Q135 26 160 18Q173 13 183.5 2.5Q194 -8 199 -21H313Q322 4 346 15.5Q370 27 395 18Q420 9 431.5 -15Q443 -39 434 -64Q427 -83 410.5 -95Q394 -107 373 -107ZM373 -11Q360 -11 350.5 -20Q341 -29 341 -42.5Q341 -56 350.5 -65.5Q360 -75 373.5 -75Q387 -75 396 -65.5Q405 -56 405 -42.5Q405 -29 396 -20Q387 -11 373 -11Z"/>
</svg>