<svg xmlns="http://www.w3.org/2000/svg" viewBox="0 -512 512 512">
	<path fill="#000000" d="M192 -203Q214 -203 229.5 -218.5Q245 -234 245 -256Q245 -278 229.5 -293.5Q214 -309 192 -309Q170 -309 154.5 -293.5Q139 -278 139 -256Q139 -234 154.5 -218.5Q170 -203 192 -203ZM192 -405Q233 -405 267 -385Q301 -365 321 -331Q341 -297 341 -256Q341 -206 303 -134Q275 -83 231 -26Q209 3 192 21L169 -6Q141 -41 117 -75Q85 -124 66 -165Q43 -217 43 -257Q43 -297 63 -331Q83 -365 117 -385Q151 -405 192 -405ZM320 -85H384V-149H427V-85H491V-43H427V21H384V-43H320Z"/>
</svg>