<svg xmlns="http://www.w3.org/2000/svg" viewBox="0 -512 512 512">
	<path fill="#000000" d="M192 -309Q214 -309 229.5 -293.5Q245 -278 245 -256Q245 -234 229.5 -218.5Q214 -203 192 -203Q170 -203 154.5 -218.5Q139 -234 139 -256Q139 -278 154.5 -293.5Q170 -309 192 -309ZM192 -405Q233 -405 267 -385Q301 -365 321 -331Q341 -297 341 -256Q341 -206 303 -134Q275 -83 231 -26Q209 3 192 21L169 -6Q141 -41 117 -75Q85 -124 66 -165Q43 -217 43 -257Q43 -297 63 -331Q83 -365 117 -385Q151 -405 192 -405ZM192 -363Q163 -363 138.5 -348.5Q114 -334 99.5 -309.5Q85 -285 85 -256Q85 -239 89 -225Q96 -198 117 -161Q143 -114 192 -49Q241 -114 267 -161Q288 -198 295 -225Q299 -239 299 -256Q299 -285 284.5 -309.5Q270 -334 245.5 -348.5Q221 -363 192 -363ZM384 -85L491 -192L384 -299Z"/>
</svg>