<svg xmlns="http://www.w3.org/2000/svg" viewBox="0 -512 512 512">
	<path fill="#000000" d="M256 -405Q298 -405 337.5 -389Q377 -373 407 -343Q437 -313 453 -273.5Q469 -234 469 -192Q469 -150 453 -110.5Q437 -71 407 -41Q377 -11 337.5 5Q298 21 256 21Q214 21 174.5 5Q135 -11 105 -41Q75 -71 59 -110.5Q43 -150 43 -192Q43 -234 59 -273.5Q75 -313 105 -343Q135 -373 174.5 -389Q214 -405 256 -405ZM357 -140Q377 -160 383.5 -187Q390 -214 382.5 -241.5Q375 -269 354 -290Q333 -311 305.5 -318.5Q278 -326 251 -319.5Q224 -313 204 -293Q179 -268 165 -231Q154 -201 151 -164Q149 -138 152 -112L154 -90L176 -88Q202 -85 228 -88Q265 -90 295 -101Q332 -115 357 -140ZM281 -280L301 -237L344 -217L301 -196L281 -153L260 -196L217 -217L260 -237Z"/>
</svg>