<svg xmlns="http://www.w3.org/2000/svg" viewBox="0 -512 512 512">
	<path fill="#000000" d="M427 -363V-256L395 -288L117 -11L75 -53L352 -331L320 -363ZM363 -21Q336 -21 317.5 -40Q299 -59 299 -85V-128Q299 -155 317.5 -173.5Q336 -192 362.5 -192Q389 -192 408 -173.5Q427 -155 427 -128V-85Q427 -59 408 -40Q389 -21 363 -21ZM363 -149Q354 -149 347.5 -143Q341 -137 341 -128V-85Q341 -76 347.5 -70Q354 -64 363 -64Q372 -64 378 -70Q384 -76 384 -85V-128Q384 -137 378 -143Q372 -149 363 -149ZM149 -192Q123 -192 104 -210.5Q85 -229 85 -256V-299Q85 -325 104 -344Q123 -363 149.5 -363Q176 -363 194.5 -344Q213 -325 213 -299V-256Q213 -229 194.5 -210.5Q176 -192 149 -192ZM149 -320Q140 -320 134 -314Q128 -308 128 -299V-256Q128 -247 134 -241Q140 -235 149 -235Q158 -235 164.5 -241Q171 -247 171 -256V-299Q171 -308 164.5 -314Q158 -320 149 -320Z"/>
</svg>