<svg xmlns="http://www.w3.org/2000/svg" viewBox="0 -512 512 512">
	<path fill="#000000" d="M448 -192Q448 -257 405 -312V-72Q448 -125 448 -192ZM376 -43H136Q156 -26 192 -13Q228 0 256 0Q284 0 319.5 -13Q355 -26 376 -43ZM235 -85L149 -256V-85ZM363 -256L277 -85H363ZM256 -138L336 -299H176ZM376 -341Q323 -384 256 -384Q189 -384 136 -341ZM107 -72V-312Q64 -257 64 -191Q64 -125 107 -72ZM491 -192Q491 -94 422.5 -25.5Q354 43 256.5 43Q159 43 90 -25.5Q21 -94 21 -191.5Q21 -289 90 -358Q159 -427 256.5 -427Q354 -427 422.5 -358Q491 -289 491 -192Z"/>
</svg>