<svg xmlns="http://www.w3.org/2000/svg" viewBox="0 -512 512 512">
	<path fill="#000000" d="M85 -299Q68 -299 55.5 -286.5Q43 -274 43 -256V-128Q43 -110 55.5 -97.5Q68 -85 85 -85H128Q146 -85 158.5 -97.5Q171 -110 171 -128V-149H128V-128H85V-256H128V-235H171V-256Q171 -274 158.5 -286.5Q146 -299 128 -299ZM235 -299Q217 -299 204.5 -286.5Q192 -274 192 -256V-128Q192 -110 204.5 -97.5Q217 -85 235 -85H277Q295 -85 307.5 -97.5Q320 -110 320 -128V-256Q320 -274 307.5 -286.5Q295 -299 277 -299ZM235 -256H277V-128H235ZM384 -299Q366 -299 353.5 -286.5Q341 -274 341 -256V-213Q341 -196 353.5 -183.5Q366 -171 384 -171H427V-128H341V-85H427Q444 -85 456.5 -97.5Q469 -110 469 -128V-171Q469 -188 456.5 -200.5Q444 -213 427 -213H384V-256H469V-299Z"/>
</svg>