<svg xmlns="http://www.w3.org/2000/svg" viewBox="0 -512 512 512">
	<path fill="#000000" d="M427 -24V21L388 -4L286 -196Q307 -202 324 -217ZM320 -299Q320 -272 301.5 -253.5Q283 -235 256 -235H247L124 -4L85 21V-24L209 -256Q191 -276 192.5 -302.5Q194 -329 213 -346Q232 -363 256 -363V-405Q265 -405 271 -399Q277 -393 277 -384V-359Q297 -352 308.5 -335.5Q320 -319 320 -299ZM277 -299Q277 -308 271 -314Q265 -320 256 -320Q247 -320 241 -314Q235 -308 235 -299Q235 -290 241 -283.5Q247 -277 256 -277Q265 -277 271 -283.5Q277 -290 277 -299Z"/>
</svg>