<svg xmlns="http://www.w3.org/2000/svg" viewBox="0 -512 512 512">
	<path fill="#000000" d="M319 -32L256 -69L193 -32L210 -103L155 -151L227 -157L256 -224L285 -157L357 -151L302 -103ZM427 -405H85V-363L189 -285Q152 -269 126.5 -239Q101 -209 91 -171Q81 -133 89 -94Q97 -55 121 -23.5Q145 8 180.5 25.5Q216 43 256 43Q296 43 331.5 25.5Q367 8 391 -23.5Q415 -55 423 -94Q431 -133 421 -171Q411 -209 385.5 -239Q360 -269 323 -285L427 -363ZM384 -128Q384 -95 368 -66.5Q352 -38 325 -20Q298 -2 264.5 0Q231 2 201.5 -12Q172 -26 152.5 -52Q133 -78 129 -111Q125 -144 137 -174.5Q149 -205 173.5 -226Q198 -247 231 -253Q256 -259 281 -253Q326 -244 355 -209Q384 -174 384 -128ZM269 -299H243L157 -363H356Z"/>
</svg>