<svg xmlns="http://www.w3.org/2000/svg" viewBox="0 -512 512 512">
	<path fill="#000000" d="M405 -43V-128H363V-43H320L384 21L448 -43ZM258 -43H235V0H192V-43H149Q132 -43 119.5 -55.5Q107 -68 107 -85V-128H64V-171H107V-213H64V-256H107V-299Q107 -316 119.5 -328.5Q132 -341 149 -341H192V-384H235V-341H277V-384H320V-341H363Q380 -341 392.5 -328.5Q405 -316 405 -299V-256H448V-213H405V-190Q399 -192 384 -192Q369 -192 363 -190V-299H149V-85H258Q256 -79 256 -64Q256 -49 258 -43ZM192 -128H273Q290 -158 320 -175V-256H192ZM235 -213H277V-171H235Z"/>
</svg>