<svg xmlns="http://www.w3.org/2000/svg" viewBox="0 -512 512 512">
	<path fill="#000000" d="M448 -213V-320L405 -341V-213H363V-320L320 -341V-213H277V-384L235 -405V-213H192V-320L149 -341V-213H107V-320L64 -341V-213Q55 -213 49 -207Q43 -201 43 -192Q43 -183 49 -177Q55 -171 64 -171H91Q105 -133 136 -105Q176 -70 235 -65V-21H213Q196 -21 183.5 -8.5Q171 4 171 21H341Q341 4 328.5 -8.5Q316 -21 299 -21H277V-65Q336 -71 376 -106Q408 -133 421 -171H448Q457 -171 463 -177Q469 -183 469 -192Q469 -201 463 -207Q457 -213 448 -213ZM235 -108Q197 -112 170 -133Q150 -148 138 -171H235ZM277 -108V-171H374Q362 -148 342 -133Q315 -112 277 -108Z"/>
</svg>