<svg xmlns="http://www.w3.org/2000/svg" viewBox="0 -512 512 512">
	<path fill="#000000" d="M64 -299Q54 -299 48.5 -293Q43 -287 43 -277.5Q43 -268 48.5 -262Q54 -256 64 -256H107V-299ZM43 -213Q33 -213 27 -207.5Q21 -202 21 -192Q21 -182 27 -176.5Q33 -171 43 -171H107V-213ZM21 -128Q12 -128 6 -122Q0 -116 0 -106.5Q0 -97 6 -91Q12 -85 21 -85H107V-128ZM427 -341H192Q174 -341 161.5 -328.5Q149 -316 149 -299V0L235 -85H427Q444 -85 456.5 -97.5Q469 -110 469 -128V-299Q469 -316 456.5 -328.5Q444 -341 427 -341Z"/>
</svg>