<svg xmlns="http://www.w3.org/2000/svg" viewBox="0 -512 512 512">
	<path fill="#000000" d="M437 -448Q415 -448 399.5 -432.5Q384 -417 384 -395V-384Q375 -384 369 -378Q363 -372 363 -363V-277Q363 -268 369 -262Q375 -256 384 -256H491Q500 -256 506 -262Q512 -268 512 -277V-363Q512 -372 506 -378Q500 -384 491 -384V-395Q491 -417 475 -432.5Q459 -448 437 -448ZM437 -427Q451 -427 460 -417.5Q469 -408 469 -395V-384H405V-395Q405 -408 414.5 -417.5Q424 -427 437 -427ZM85 -405Q68 -405 55.5 -392.5Q43 -380 43 -363V21L128 -64H427Q444 -64 456.5 -76.5Q469 -89 469 -107V-213H363Q345 -213 332.5 -225.5Q320 -238 320 -256V-405Z"/>
</svg>