<svg xmlns="http://www.w3.org/2000/svg" viewBox="0 -512 512 512">
	<path fill="#000000" d="M469 -183V-363Q469 -380 456.5 -392.5Q444 -405 427 -405H85Q68 -405 55.5 -392.5Q43 -380 43 -363V21L128 -64H198Q212 -17 251.5 13Q291 43 341 43Q382 43 416 23Q450 3 470.5 -31.5Q491 -66 491 -107Q491 -148 469 -183ZM128 -320H384V-277H128ZM341 -256Q312 -256 285 -244.5Q258 -233 237 -213H128V-256ZM128 -192H219Q205 -172 198 -149H128ZM341 -3Q313 -3 289.5 -17Q266 -31 252 -55Q238 -79 238 -107Q238 -135 252 -158.5Q266 -182 289.5 -196Q313 -210 341 -210Q369 -210 393 -196Q417 -182 431 -158.5Q445 -135 445 -107Q445 -79 431 -55Q417 -31 393 -17Q369 -3 341 -3ZM352 -111L404 -80L388 -53L320 -92V-171H352Z"/>
</svg>