<svg xmlns="http://www.w3.org/2000/svg" viewBox="0 -512 512 512">
	<path fill="#000000" d="M427 -405H85Q68 -405 55.5 -392.5Q43 -380 43 -363V21L128 -64H427Q444 -64 456.5 -76.5Q469 -89 469 -107V-363Q469 -380 456.5 -392.5Q444 -405 427 -405ZM277 -149H235V-192H277ZM316 -256Q309 -247 292 -239Q284 -234 282 -228Q279 -225 278 -222Q277 -219 277 -213H235Q235 -227 241 -237Q249 -244 265 -254Q273 -257 277.5 -265Q282 -273 282 -280.5Q282 -288 275.5 -294.5Q269 -301 258 -301Q252 -301 243 -297Q237 -293 237 -284H194Q198 -307 213 -320Q227 -331 258 -331Q289 -331 305.5 -317.5Q322 -304 322 -282Q325 -269 316 -256Z"/>
</svg>