<svg xmlns="http://www.w3.org/2000/svg" viewBox="0 -512 512 512">
	<path fill="#000000" d="M341 -363H320V-405H277V-363H235V-405H192V-363H171Q135 -363 110 -338Q85 -313 85 -277V-64Q85 -29 110 -4Q135 21 171 21H341Q377 21 402 -4Q427 -29 427 -64V-277Q427 -313 402 -338Q377 -363 341 -363ZM384 -64Q384 -46 371.5 -33.5Q359 -21 341 -21H171Q153 -21 140.5 -33.5Q128 -46 128 -64V-277Q128 -295 140.5 -307.5Q153 -320 171 -320H341Q359 -320 371.5 -307.5Q384 -295 384 -277ZM203 -116Q203 -95 218.5 -79.5Q234 -64 256 -64Q278 -64 293.5 -79.5Q309 -95 309 -116Q309 -130 302 -142Q297 -150 274 -177L256 -197L239 -178Q215 -150 210 -142Q203 -130 203 -116ZM171 -277H341V-235H171Z"/>
</svg>