<svg xmlns="http://www.w3.org/2000/svg" viewBox="0 -512 512 512">
	<path fill="#000000" d="M60 -384L420 -47L421 -44Q423 -40 422.5 -36Q422 -32 418 -28Q412 -22 404 -23Q400 -24 397 -26ZM167 -350L446 -93L448 -90Q449 -87 448.5 -83Q448 -79 444 -74.5Q440 -70 435.5 -69.5Q431 -69 427 -71L424 -73ZM92 -277L371 -21L372 -18Q374 -14 373.5 -10Q373 -6 369 -2Q365 2 360.5 2.5Q356 3 352 2L349 0ZM257 -321L452 -141L454 -137Q455 -132 451 -128Q447 -124 441 -125Q439 -126 437 -127ZM116 -194L311 -14L313 -10Q314 -5 310 -1Q306 3 301 2Q298 1 296 0ZM349 -279L438 -198L439 -196Q439 -193 437 -190.5Q435 -188 431 -191ZM161 -105L250 -23L251 -21Q252 -19 249.5 -16.5Q247 -14 243 -17Z"/>
</svg>