<svg xmlns="http://www.w3.org/2000/svg" viewBox="0 -512 512 512">
	<path fill="#000000" d="M448 -213Q448 -265 422 -309.5Q396 -354 352 -379.5Q308 -405 256 -405Q204 -405 160 -379.5Q116 -354 90 -309.5Q64 -265 64 -213Q64 -151 99.5 -101.5Q135 -52 192 -32V21H235V-23Q242 -21 256 -21Q270 -21 277 -23V21H320V-32Q377 -52 412.5 -101.5Q448 -151 448 -213ZM256 -64Q216 -64 181.5 -84Q147 -104 127 -138.5Q107 -173 107 -213.5Q107 -254 127 -288Q147 -322 181.5 -342.5Q216 -363 256 -363Q296 -363 330.5 -342.5Q365 -322 385 -288Q405 -254 405 -213.5Q405 -173 385 -138.5Q365 -104 330.5 -84Q296 -64 256 -64ZM171 -299H341V-256H171ZM272 -235L208 -171L235 -144L208 -117L240 -85L304 -149L277 -176L304 -203Z"/>
</svg>