<svg xmlns="http://www.w3.org/2000/svg" viewBox="0 -512 512 512">
	<path fill="#000000" d="M309 -392Q338 -392 367 -389L381 -387L402 -383Q413 -381 425 -377.5Q437 -374 447 -369.5Q457 -365 463 -359Q469 -353 469 -345V-39Q469 -31 463 -25Q457 -19 447 -14.5Q437 -10 425 -6.5Q413 -3 402 -1L381 3L366 5Q338 8 309.5 8Q281 8 252 5L238 3L217 -1Q205 -3 193 -6.5Q181 -10 171.5 -14.5Q162 -19 155.5 -25Q149 -31 149 -39V-85H60Q53 -85 48 -90.5Q43 -96 43 -103V-281Q43 -288 48 -293.5Q53 -299 60 -299H149V-345Q149 -353 155.5 -359Q162 -365 171.5 -369.5Q181 -374 193 -377.5Q205 -381 217 -383L238 -387L252 -389Q281 -392 309 -392ZM309 -365Q296 -365 279 -364.5Q262 -364 245 -361.5Q228 -359 212 -355Q196 -351 183 -345Q196 -339 212 -335.5Q228 -332 245 -329.5Q262 -327 278.5 -326Q295 -325 309 -325Q323 -325 339.5 -326Q356 -327 373 -329.5Q390 -332 406.5 -335.5Q423 -339 436 -345Q423 -351 407 -355Q391 -359 373.5 -361.5Q356 -364 339.5 -364.5Q323 -365 309 -365ZM127 -154H172L182 -122H218L167 -262H132L81 -122H116ZM443 -43V-107Q429 -100 412 -96Q395 -92 377 -89.5Q359 -87 341.5 -86Q324 -85 309 -85Q294 -85 279 -86Q264 -87 249 -89Q244 -85 238 -85H176V-43Q182 -38 192.5 -34.5Q203 -31 215 -28Q227 -25 240.5 -23Q254 -21 267 -20Q280 -19 291 -19H309H328Q339 -19 351.5 -20Q364 -21 377.5 -23Q391 -25 403.5 -28Q416 -31 426.5 -34.5Q437 -38 443 -43ZM443 -136V-213Q429 -207 412 -203Q395 -199 377 -196.5Q359 -194 341.5 -193Q324 -192 310 -192Q296 -192 283 -193L256 -195V-115Q269 -113 282.5 -112.5Q296 -112 309 -112H328L352 -114Q364 -115 377.5 -117Q391 -119 403.5 -121.5Q416 -124 426 -127.5Q436 -131 443 -136ZM443 -243V-320Q429 -313 412 -309Q395 -305 377 -303Q359 -301 341.5 -300Q324 -299 309.5 -299Q295 -299 277.5 -300Q260 -301 242 -303Q224 -305 207 -309Q190 -313 176 -320V-299H238Q245 -299 250.5 -293.5Q256 -288 256 -281V-221Q269 -220 282.5 -219.5Q296 -219 309 -219H328L352 -221Q364 -222 377.5 -223.5Q391 -225 403.5 -228Q416 -231 426 -234.5Q436 -238 443 -243ZM135 -181L149 -224L163 -181Z"/>
</svg>