<svg xmlns="http://www.w3.org/2000/svg" viewBox="0 -512 512 512">
	<path fill="#000000" d="M305 -213Q305 -182 289.5 -157.5Q274 -133 247.5 -119Q221 -105 192 -105Q163 -105 136.5 -119Q110 -133 94.5 -157.5Q79 -182 79 -213H43Q43 -178 60 -147Q77 -116 106.5 -95.5Q136 -75 171 -70V0H213V-70Q248 -75 277.5 -95.5Q307 -116 324 -147Q341 -178 341 -213ZM166 -343Q166 -354 173.5 -361.5Q181 -369 192 -369Q203 -369 210.5 -361.5Q218 -354 218 -343L217 -211Q217 -201 210 -193.5Q203 -186 192 -186Q181 -186 173.5 -193.5Q166 -201 166 -211ZM192 -149Q219 -149 237.5 -168Q256 -187 256 -213V-341Q256 -368 237.5 -386.5Q219 -405 192 -405Q165 -405 146.5 -386.5Q128 -368 128 -341V-213Q128 -187 146.5 -168Q165 -149 192 -149ZM437 -139V-107H405V-139ZM395 -245H363V-256Q363 -283 381.5 -301.5Q400 -320 426.5 -320Q453 -320 472 -301.5Q491 -283 491 -256Q491 -241 483.5 -227Q476 -213 463 -205L457 -201Q437 -187 437 -164V-160H405V-164Q405 -183 414 -200Q423 -217 439 -227L445 -231Q459 -240 459 -256Q459 -269 449.5 -278.5Q440 -288 426.5 -288Q413 -288 404 -278.5Q395 -269 395 -256Z"/>
</svg>