<svg xmlns="http://www.w3.org/2000/svg" viewBox="0 -512 512 512">
	<path fill="#000000" d="M369 -213Q369 -182 353.5 -157.5Q338 -133 311.5 -119Q285 -105 256 -105Q227 -105 200.5 -119Q174 -133 158.5 -157.5Q143 -182 143 -213H107Q107 -178 124 -147Q141 -116 170.5 -95.5Q200 -75 235 -70V0H277V-70Q312 -75 341.5 -95.5Q371 -116 388 -147Q405 -178 405 -213ZM230 -343Q230 -354 237.5 -361.5Q245 -369 256 -369Q267 -369 274.5 -361.5Q282 -354 282 -343L281 -211Q281 -201 274 -193.5Q267 -186 256 -186Q245 -186 237.5 -193.5Q230 -201 230 -211ZM256 -149Q283 -149 301.5 -168Q320 -187 320 -213V-341Q320 -368 301.5 -386.5Q283 -405 256 -405Q229 -405 210.5 -386.5Q192 -368 192 -341V-213Q192 -187 210.5 -168Q229 -149 256 -149Z"/>
</svg>