<svg xmlns="http://www.w3.org/2000/svg" viewBox="0 -512 512 512">
	<path fill="#000000" d="M452 -379Q459 -379 464 -373.5Q469 -368 469 -361V-23Q469 -16 464 -10.5Q459 -5 452 -5H167Q160 -5 154.5 -10.5Q149 -16 149 -23V-85H60Q53 -85 48 -90.5Q43 -96 43 -103V-281Q43 -288 48 -293.5Q53 -299 60 -299H149V-361Q149 -368 154.5 -373.5Q160 -379 167 -379ZM124 -210L174 -122H206V-262H175V-172L127 -262H93V-122H124ZM443 -32V-85H389V-32ZM443 -112V-165H389V-112ZM443 -192V-245H389V-192ZM443 -272V-352H176V-299H238Q245 -299 250.5 -293.5Q256 -288 256 -281V-103Q256 -96 250.5 -90.5Q245 -85 238 -85H176V-32H363V-272Z"/>
</svg>