<svg xmlns="http://www.w3.org/2000/svg" viewBox="0 -512 512 512">
	<path fill="#000000" d="M192 -405Q219 -405 237.5 -386.5Q256 -368 256 -341V-213Q256 -187 237.5 -168Q219 -149 192 -149Q165 -149 146.5 -168Q128 -187 128 -213V-341Q128 -368 146.5 -386.5Q165 -405 192 -405ZM341 -213Q341 -176 324.5 -144Q308 -112 278.5 -91.5Q249 -71 213 -65V0H171V-65Q135 -71 105.5 -91.5Q76 -112 59.5 -144Q43 -176 43 -213H85Q85 -184 99.5 -159.5Q114 -135 138.5 -121Q163 -107 192 -107Q221 -107 245.5 -121Q270 -135 284.5 -159.5Q299 -184 299 -213ZM437 -139V-107H405V-139ZM395 -245H363V-256Q363 -283 381.5 -301.5Q400 -320 426.5 -320Q453 -320 472 -301.5Q491 -283 491 -256Q491 -241 483.5 -227Q476 -213 463 -205L457 -201Q437 -187 437 -164V-160H405V-164Q405 -183 414 -200Q423 -217 439 -227L445 -231Q459 -240 459 -256Q459 -269 449.5 -278.5Q440 -288 426.5 -288Q413 -288 404 -278.5Q395 -269 395 -256Z"/>
</svg>