<svg xmlns="http://www.w3.org/2000/svg" viewBox="0 -512 512 512">
	<path fill="#000000" d="M171 -299Q188 -299 200.5 -286.5Q213 -274 213 -256V-149Q213 -132 200.5 -119.5Q188 -107 170.5 -107Q153 -107 140.5 -119.5Q128 -132 128 -149V-256Q128 -274 140.5 -286.5Q153 -299 171 -299ZM299 -149Q299 -102 268.5 -66.5Q238 -31 192 -23V21H149V-23Q104 -31 73.5 -66.5Q43 -102 43 -149H85Q85 -114 110 -89Q135 -64 170.5 -64Q206 -64 231 -89Q256 -114 256 -149ZM457 -247L366 -157L388 -235H299Q281 -235 268.5 -247.5Q256 -260 256 -277V-363Q256 -380 268.5 -392.5Q281 -405 299 -405H427Q444 -405 456.5 -392.5Q469 -380 469 -363V-277Q469 -259 457 -247Z"/>
</svg>