<svg xmlns="http://www.w3.org/2000/svg" viewBox="0 -512 512 512">
	<path fill="#000000" d="M43 -336L70 -363L427 -6L400 21L267 -112H187Q170 -112 155 -102Q146 -95 129 -78Q116 -65 109 -59Q97 -49 85 -43Q62 -43 50 -66Q37 -92 45 -142Q55 -201 94 -284ZM199 -315H313Q331 -331 368 -320Q386 -315 401 -306L411 -288H416Q451 -213 463 -157Q474 -109 466 -79Q460 -53 441 -45L163 -324Q186 -327 199 -315ZM256 -299Q247 -299 241 -292.5Q235 -286 235 -277Q235 -268 241 -262Q247 -256 256 -256Q265 -256 271 -262Q277 -268 277 -277Q277 -286 271 -292.5Q265 -299 256 -299Z"/>
</svg>