<svg xmlns="http://www.w3.org/2000/svg" viewBox="0 -512 512 512">
	<path fill="#000000" d="M472 10L51 -411L24 -384L70 -338Q57 -333 50 -322.5Q43 -312 43 -299V-85Q43 -68 55.5 -55.5Q68 -43 85 -43H365L445 37ZM85 -85V-299H109L322 -85ZM341 -299V-175L459 -57Q469 -70 469 -85V-299Q469 -316 456.5 -328.5Q444 -341 427 -341H175L218 -299ZM405 -299Q414 -299 420.5 -292.5Q427 -286 427 -277.5Q427 -269 420.5 -262.5Q414 -256 405.5 -256Q397 -256 390.5 -262.5Q384 -269 384 -277.5Q384 -286 390.5 -292.5Q397 -299 405 -299ZM405 -213Q414 -213 420.5 -207Q427 -201 427 -192Q427 -183 420.5 -177Q414 -171 405.5 -171Q397 -171 390.5 -177Q384 -183 384 -192Q384 -201 390.5 -207Q397 -213 405 -213ZM277 -239V-256H320V-196Z"/>
</svg>