<svg xmlns="http://www.w3.org/2000/svg" viewBox="0 -512 512 512">
	<path fill="#000000" d="M57 -335V-322L42 -316V-329ZM57 -208V-195L42 -189V-201ZM57 -80V-66L42 -60V-73ZM55 -292V-281L43 -275V-287ZM55 -250V-239L43 -233V-244ZM55 -164V-153L43 -147V-159ZM55 -121V-109L43 -104V-115ZM96 -328V-312L75 -304V-320ZM96 -199V-184L75 -176V-191ZM96 -70V-55L75 -47V-62ZM95 -283V-269L78 -263V-277ZM95 -240V-227L78 -220V-235ZM95 -155V-141L78 -135V-149ZM95 -112V-98L78 -91V-105ZM135 -318V-300L108 -289V-307ZM135 -190V-172L108 -161V-179ZM135 -62V-44L108 -33V-52ZM133 -273V-257L111 -249V-264ZM133 -231V-215L111 -206V-222ZM133 -145V-129L111 -120V-136ZM133 -104V-87L111 -79V-95ZM177 -319V-295L143 -282V-306ZM177 -191V-167L143 -154V-177ZM177 -63V-39L143 -26V-50ZM175 -275V-253L147 -241V-263ZM175 -232V-210L147 -199V-221ZM175 -146V-124L147 -113V-135ZM175 -105V-83L147 -72V-93ZM221 -323V-292L184 -277V-308ZM221 -195V-164L184 -149V-180ZM221 -67V-36L184 -21V-52ZM219 -276V-250L187 -237V-264ZM219 -235V-209L187 -197V-223ZM219 -148V-121L187 -109V-135ZM219 -107V-80L187 -67V-94ZM266 -339V-296L226 -280V-320Q248 -332 266 -339ZM266 -292V-255L226 -238V-275ZM266 -250V-212L226 -196V-233ZM266 -208V-171L226 -154V-192ZM266 -166V-128L226 -111V-149ZM266 -124V-86L226 -69V-107ZM266 -82V-42Q243 -33 226 -25V-65ZM470 -337V-38Q432 -63 375 -63Q328 -63 270 -44V-84Q301 -96 338 -101V-199Q307 -195 270 -177V-205Q301 -219 338 -225V-320Q308 -315 270 -299V-341Q321 -363 371 -363Q425 -363 470 -337ZM430 -311Q407 -324 372 -324L364 -323V-227H372Q403 -227 430 -218ZM430 -190Q404 -201 372 -201H364V-103H372Q405 -103 430 -95Z"/>
</svg>