<svg xmlns="http://www.w3.org/2000/svg" viewBox="0 -512 512 512">
	<path fill="#000000" d="M409 -261Q400 -261 391.5 -264.5Q383 -268 376.5 -274.5Q370 -281 366.5 -289.5Q363 -298 363 -307.5Q363 -317 366.5 -325.5Q370 -334 376.5 -340.5Q383 -347 391.5 -350.5Q400 -354 409.5 -354Q419 -354 427.5 -350.5Q436 -347 442.5 -340.5Q449 -334 452.5 -325.5Q456 -317 456 -307.5Q456 -298 452.5 -289.5Q449 -281 442.5 -274.5Q436 -268 427.5 -264.5Q419 -261 409 -261ZM409 -327Q401 -327 395 -321.5Q389 -316 389 -307.5Q389 -299 395 -293.5Q401 -288 409.5 -288Q418 -288 423.5 -293.5Q429 -299 429 -307.5Q429 -316 423.5 -321.5Q418 -327 409 -327ZM469 -228V-128Q469 -115 464 -102.5Q459 -90 450 -81Q441 -72 428.5 -67Q416 -62 403 -62Q395 -62 386.5 -63.5Q378 -65 371 -69Q366 -52 356 -38.5Q346 -25 332.5 -15Q319 -5 303 0.5Q287 6 269 6Q249 6 231 -1Q213 -8 199 -20.5Q185 -33 175.5 -50Q166 -67 163 -87H60Q53 -87 48 -92.5Q43 -98 43 -105V-283Q43 -290 48 -295.5Q53 -301 60 -301H213Q207 -314 207 -327Q207 -340 212 -351.5Q217 -363 225.5 -371.5Q234 -380 245 -385Q256 -390 269 -390Q282 -390 293.5 -385Q305 -380 313.5 -371.5Q322 -363 327 -351.5Q332 -340 332 -327.5Q332 -315 327 -303.5Q322 -292 313.5 -283.5Q305 -275 293.5 -270Q282 -265 269 -265L263 -266L256 -267V-247H449Q458 -247 463.5 -241.5Q469 -236 469 -228ZM269 -363Q262 -363 255.5 -360.5Q249 -358 244 -353Q239 -348 236.5 -341.5Q234 -335 234 -327.5Q234 -320 236.5 -313.5Q239 -307 244 -302.5Q249 -298 255.5 -295Q262 -292 269.5 -292Q277 -292 283 -295Q289 -298 294 -302.5Q299 -307 302 -313.5Q305 -320 305 -327.5Q305 -335 302 -341.5Q299 -348 294 -353Q289 -358 283 -360.5Q277 -363 269 -363ZM166 -231H206V-264H93V-231H133V-124H166ZM349 -101V-221H256V-105Q256 -98 250.5 -92.5Q245 -87 238 -87H190Q193 -73 200.5 -61Q208 -49 218 -40Q228 -31 241 -26Q254 -21 270 -21Q286 -21 300.5 -27Q315 -33 326 -44Q337 -55 343 -69.5Q349 -84 349 -101ZM443 -128V-221H376V-99Q381 -94 388 -91Q395 -88 403 -88Q411 -88 418.5 -91.5Q426 -95 431 -100Q436 -105 439.5 -112.5Q443 -120 443 -128Z"/>
</svg>