<svg xmlns="http://www.w3.org/2000/svg" viewBox="0 -512 512 512">
	<path fill="#000000" d="M462 -341Q474 -341 482.5 -333Q491 -325 491 -313V-28Q491 -17 482.5 -8.5Q474 0 462 0H306Q294 0 285.5 -8.5Q277 -17 277 -28V-91H165Q149 -91 134 -80Q124 -74 107 -57Q95 -44 88 -38Q76 -27 64 -21Q40 -21 29 -45Q16 -72 24 -122Q35 -182 75 -267H80L89 -284L106 -293Q126 -301 142 -303Q165 -305 178 -294H277V-313Q277 -325 285.5 -333Q294 -341 306 -341H341V-384H427V-341ZM235 -277Q226 -277 219.5 -271Q213 -265 213 -256Q213 -247 219.5 -241Q226 -235 235 -235Q244 -235 250 -241Q256 -247 256 -256Q256 -265 250 -271Q244 -277 235 -277ZM388 -277Q360 -277 343 -264.5Q326 -252 327 -227V-226H368Q368 -236 374 -241Q380 -246 389 -246Q398 -246 404 -240Q410 -234 410 -224Q410 -214 405 -206.5Q400 -199 392 -194Q375 -183 369 -174.5Q363 -166 363 -149H405Q405 -160 408 -165.5Q411 -171 419 -176Q434 -184 443 -196.5Q452 -209 452 -224Q452 -248 435 -262.5Q418 -277 388 -277ZM363 -128V-85H405V-128Z"/>
</svg>