<svg xmlns="http://www.w3.org/2000/svg" viewBox="0 -512 512 512">
	<path fill="#000000" d="M192 -384Q227 -384 252 -359Q277 -334 277 -299H107Q107 -334 132 -359Q157 -384 192 -384ZM253 -239L235 -64H213V-43Q213 -25 225.5 -12.5Q238 0 256 0Q274 0 286.5 -12.5Q299 -25 299 -43V-149Q299 -185 324 -210Q349 -235 384 -235H427L405 -213L427 -192H384Q366 -192 353.5 -179.5Q341 -167 341 -149V-43Q341 -7 316 18Q291 43 256 43Q221 43 196 18Q171 -7 171 -43V-64H149L131 -239Q115 -255 109 -277H275Q269 -255 253 -239ZM192 -213Q183 -213 177 -207Q171 -201 171 -192Q171 -183 177 -177Q183 -171 192 -171Q201 -171 207 -177Q213 -183 213 -192Q213 -201 207 -207Q201 -213 192 -213Z"/>
</svg>