<svg xmlns="http://www.w3.org/2000/svg" viewBox="0 -512 512 512">
	<path fill="#000000" d="M452 -379Q459 -379 464 -373.5Q469 -368 469 -361V-23Q469 -16 464 -10.5Q459 -5 452 -5H167Q160 -5 154.5 -10.5Q149 -16 149 -23V-85H60Q53 -85 48 -90.5Q43 -96 43 -103V-281Q43 -288 48 -293.5Q53 -299 60 -299H149V-361Q149 -368 154.5 -373.5Q160 -379 167 -379ZM150 -206L176 -122H205L233 -262H203L187 -179L163 -259H139L113 -179L97 -262H66L94 -122H123ZM443 -32V-85H176V-32ZM443 -112V-179H256V-112ZM443 -205V-272H256V-205ZM443 -299V-352H176V-299Z"/>
</svg>