<svg xmlns="http://www.w3.org/2000/svg" viewBox="0 -512 512 512">
	<path fill="#000000" d="M256 -405Q283 -405 301.5 -386.5Q320 -368 320 -341V-213Q320 -187 301.5 -168Q283 -149 256 -149Q229 -149 210.5 -168Q192 -187 192 -213V-341Q192 -368 210.5 -386.5Q229 -405 256 -405ZM405 -213Q405 -176 388.5 -144Q372 -112 342.5 -91.5Q313 -71 277 -65V0H235V-65Q199 -71 169.5 -91.5Q140 -112 123.5 -144Q107 -176 107 -213H149Q149 -192 157.5 -172.5Q166 -153 181 -138Q196 -123 215.5 -115Q235 -107 256 -107Q285 -107 309.5 -121Q334 -135 348.5 -159.5Q363 -184 363 -213Z"/>
</svg>