<svg xmlns="http://www.w3.org/2000/svg" viewBox="0 -512 512 512">
	<path fill="#000000" d="M43 -336L70 -363L427 -6L400 21L285 -93Q272 -65 247.5 -46.5Q223 -28 192 -23V21H149V-23Q104 -31 73.5 -66.5Q43 -102 43 -149H85Q85 -114 110 -89Q135 -64 171 -64Q199 -64 222 -81.5Q245 -99 253 -126L213 -165V-149Q213 -132 200.5 -119.5Q188 -107 170.5 -107Q153 -107 140.5 -119.5Q128 -132 128 -149V-250ZM457 -247L366 -157L388 -235H299Q281 -235 268.5 -247.5Q256 -260 256 -277V-363Q256 -380 268.5 -392.5Q281 -405 299 -405H427Q444 -405 456.5 -392.5Q469 -380 469 -363V-277Q469 -259 457 -247Z"/>
</svg>