<svg xmlns="http://www.w3.org/2000/svg" viewBox="0 -512 512 512">
	<path fill="#000000" d="M283 -379Q308 -379 332 -372Q356 -365 377 -353Q398 -341 415 -324Q432 -307 444 -286.5Q456 -266 462.5 -242Q469 -218 469 -192Q469 -166 462.5 -142Q456 -118 444 -97.5Q432 -77 415 -60Q398 -43 377 -31Q356 -19 332 -12Q308 -5 283 -5Q260 -5 238 -10.5Q216 -16 196.5 -26.5Q177 -37 160 -52Q143 -67 129 -85H60Q53 -85 48 -90.5Q43 -96 43 -103V-281Q43 -288 48 -293.5Q53 -299 60 -299H129Q143 -317 160 -332Q177 -347 196.5 -357.5Q216 -368 238 -373.5Q260 -379 283 -379ZM296 -351V-205H442Q439 -235 427 -260Q415 -285 395.5 -304.5Q376 -324 350.5 -336.5Q325 -349 296 -351ZM203 -217Q203 -229 198.5 -237.5Q194 -246 187 -251.5Q180 -257 170.5 -259.5Q161 -262 149 -262H93V-122H126V-171H148Q158 -171 168 -174Q178 -177 185.5 -182.5Q193 -188 198 -197Q203 -206 203 -217ZM283 -32Q304 -32 323 -37.5Q342 -43 359.5 -52Q377 -61 391 -74.5Q405 -88 416 -104Q427 -120 433.5 -139Q440 -158 442 -179H270V-351Q239 -349 211.5 -335Q184 -321 164 -299H238Q245 -299 250.5 -293.5Q256 -288 256 -281V-103Q256 -96 250.5 -90.5Q245 -85 238 -85H164Q175 -73 189 -63Q203 -53 218 -46Q233 -39 249.5 -35.5Q266 -32 283 -32ZM146 -235Q156 -235 162 -231Q168 -227 168 -216Q168 -211 166 -208Q164 -205 160.5 -203Q157 -201 153 -200.5Q149 -200 145 -200H126V-235Z"/>
</svg>