<svg xmlns="http://www.w3.org/2000/svg" viewBox="0 -512 512 512">
	<path fill="#000000" d="M187 -112Q170 -112 155 -102Q146 -95 129 -78Q116 -65 109 -59Q97 -49 85 -43Q62 -43 50 -66Q37 -93 46 -144Q56 -203 96 -288H101L111 -306L127 -314Q147 -323 164 -324Q186 -327 199 -315H313Q331 -331 368 -320Q386 -315 401 -306L411 -288H416Q456 -203 466 -144Q475 -93 462 -66Q450 -43 427 -43Q415 -49 403 -59Q396 -65 383 -78Q366 -95 357 -102Q342 -112 325 -112ZM256 -299Q247 -299 241 -292.5Q235 -286 235 -277Q235 -268 241 -262Q247 -256 256 -256Q265 -256 271 -262Q277 -268 277 -277Q277 -286 271 -292.5Q265 -299 256 -299Z"/>
</svg>