<svg xmlns="http://www.w3.org/2000/svg" viewBox="0 -512 512 512">
	<path fill="#000000" d="M469 -165Q469 -143 460.5 -124Q452 -105 437.5 -90.5Q423 -76 404 -67.5Q385 -59 363 -59Q349 -59 336 -62Q334 -44 326 -29Q318 -14 305.5 -2.5Q293 9 276.5 15Q260 21 241.5 21Q223 21 206 14Q189 7 176.5 -6Q164 -19 156.5 -36Q149 -53 149 -72V-79L150 -85H60Q53 -85 48 -90.5Q43 -96 43 -103V-281Q43 -288 48 -293.5Q53 -299 60 -299H123Q126 -321 136.5 -340.5Q147 -360 163 -374.5Q179 -389 199.5 -397Q220 -405 244 -405Q268 -405 289.5 -395.5Q311 -386 327.5 -370Q344 -354 353.5 -332Q363 -310 363 -285V-279Q363 -275 362 -272Q384 -272 403.5 -263.5Q423 -255 437.5 -241Q452 -227 460.5 -207.5Q469 -188 469 -165ZM243 -379Q225 -379 209.5 -373Q194 -367 181.5 -356Q169 -345 161 -330.5Q153 -316 150 -299H238Q245 -299 250.5 -293.5Q256 -288 256 -281V-193L260 -194Q263 -207 270 -219Q277 -231 287 -240.5Q297 -250 309 -257.5Q321 -265 334 -268Q336 -277 336 -285Q336 -305 328.5 -322Q321 -339 308.5 -351.5Q296 -364 279 -371.5Q262 -379 243 -379ZM151 -123Q161 -123 170.5 -125Q180 -127 187 -131.5Q194 -136 198.5 -143.5Q203 -151 203 -162Q203 -173 198.5 -180.5Q194 -188 187 -193Q180 -198 172 -201L156 -208Q149 -210 144.5 -213.5Q140 -217 140 -221Q140 -225 142.5 -227Q145 -229 148.5 -230.5Q152 -232 155 -232L162 -233Q172 -233 180.5 -230Q189 -227 197 -222V-253L180 -258L171 -259H161Q152 -259 142.5 -257Q133 -255 125 -250Q117 -245 112 -238Q107 -231 107 -220Q107 -209 112 -202Q117 -195 124 -190Q131 -185 139 -181L154 -175Q161 -172 166 -169Q171 -166 171 -161.5Q171 -157 168.5 -154.5Q166 -152 163 -150.5Q160 -149 156 -149H149Q137 -149 127 -153Q117 -157 108 -164V-131Q129 -123 151 -123ZM243 -5Q256 -5 268.5 -10.5Q281 -16 290 -25Q299 -34 304 -46Q309 -58 309 -71Q309 -84 305 -95Q301 -106 294 -114.5Q287 -123 277.5 -129Q268 -135 256 -137V-103Q256 -96 250.5 -90.5Q245 -85 238 -85H177Q176 -79 176 -72Q176 -58 181 -46Q186 -34 195.5 -25Q205 -16 217 -10.5Q229 -5 243 -5ZM363 -85Q379 -85 393.5 -91.5Q408 -98 419 -109Q430 -120 436.5 -134.5Q443 -149 443 -165Q443 -181 436.5 -196Q430 -211 419 -222Q408 -233 393.5 -239Q379 -245 362.5 -245Q346 -245 331.5 -239Q317 -233 306 -222Q295 -211 289 -196Q283 -181 283 -165V-156Q293 -151 301 -144.5Q309 -138 316 -129.5Q323 -121 327.5 -111Q332 -101 334 -91Q348 -85 363 -85Z"/>
</svg>