<svg xmlns="http://www.w3.org/2000/svg" viewBox="0 -512 512 512">
	<path fill="#000000" d="M43 -336L70 -363L427 -6L400 21L341 -37Q339 -4 314.5 19.5Q290 43 255.5 43Q221 43 196 18Q171 -7 171 -43V-64H149L131 -239Q120 -250 114 -265ZM192 -384Q227 -384 252 -359Q277 -334 277 -299H188L130 -357Q142 -370 158 -377Q174 -384 192 -384ZM253 -239L252 -235L209 -277H275Q269 -255 253 -239ZM235 -64H213V-43Q213 -25 225.5 -12.5Q238 0 256 0Q274 0 286.5 -12.5Q299 -25 299 -43V-80L242 -136ZM384 -235H427L405 -213L427 -192H384Q366 -192 353.5 -179.5Q341 -167 341 -149V-145L305 -181Q315 -206 336 -220.5Q357 -235 384 -235ZM171 -192Q171 -183 177 -177Q183 -171 191 -171Q199 -171 204 -174L174 -204Q171 -199 171 -192Z"/>
</svg>