<svg xmlns="http://www.w3.org/2000/svg" viewBox="0 -512 512 512">
	<path fill="#000000" d="M388 -228Q405 -227 420 -220Q435 -213 446 -201Q457 -189 463 -174Q469 -159 469 -141.5Q469 -124 462.5 -108.5Q456 -93 444 -81Q432 -69 416.5 -62Q401 -55 383 -55H149Q127 -55 108 -63.5Q89 -72 74.5 -86.5Q60 -101 51.5 -120.5Q43 -140 43 -162Q43 -179 48 -195.5Q53 -212 63 -225.5Q73 -239 87 -249Q101 -259 117 -264Q125 -267 132.5 -267.5Q140 -268 148 -269Q157 -283 169 -294Q181 -305 196 -312.5Q211 -320 227 -324.5Q243 -329 259 -329Q282 -329 303 -321.5Q324 -314 341 -300.5Q358 -287 370.5 -268.5Q383 -250 388 -228ZM259 -302Q236 -302 214.5 -292.5Q193 -283 178 -265Q186 -262 193.5 -259Q201 -256 208 -252L292 -201L351 -225L361 -228Q356 -244 346 -258Q336 -272 322.5 -281.5Q309 -291 293 -296.5Q277 -302 259 -302ZM85 -114L262 -188L194 -229Q183 -235 171.5 -238.5Q160 -242 148 -242Q132 -242 117.5 -235.5Q103 -229 92.5 -218Q82 -207 75.5 -192.5Q69 -178 69 -162Q69 -149 73.5 -136.5Q78 -124 85 -114ZM383 -82Q393 -82 402 -85Q411 -88 419 -94L290 -171L107 -94Q117 -88 127.5 -85Q138 -82 149 -82ZM436 -115Q443 -128 443 -142Q443 -156 437.5 -167Q432 -178 423.5 -186Q415 -194 403 -198.5Q391 -203 378 -203Q370 -203 362.5 -201Q355 -199 348 -196L334 -190L321 -184Z"/>
</svg>