<svg xmlns="http://www.w3.org/2000/svg" viewBox="0 -512 512 512">
	<path fill="#000000" d="M405 -235H369Q369 -204 353.5 -179Q338 -154 311.5 -140Q285 -126 256 -126Q227 -126 200.5 -140Q174 -154 158.5 -179Q143 -204 143 -235H107Q107 -199 124 -168Q141 -137 170.5 -117Q200 -97 235 -91V-21H277V-91Q312 -97 341.5 -117Q371 -137 388 -168Q405 -199 405 -235ZM320 64H363V21H320ZM235 64H277V21H235ZM256 -171Q283 -171 301.5 -189.5Q320 -208 320 -235V-363Q320 -389 301.5 -408Q283 -427 256 -427Q229 -427 210.5 -408Q192 -389 192 -363V-235Q192 -208 210.5 -189.5Q229 -171 256 -171ZM149 64H192V21H149Z"/>
</svg>