<svg xmlns="http://www.w3.org/2000/svg" viewBox="0 -512 512 512">
	<path fill="#000000" d="M452 -379Q459 -379 464 -373.5Q469 -368 469 -361V-23Q469 -16 464 -10.5Q459 -5 452 -5H167Q160 -5 154.5 -10.5Q149 -16 149 -23V-85H60Q53 -85 48 -90.5Q43 -96 43 -103V-281Q43 -288 48 -293.5Q53 -299 60 -299H149V-361Q149 -368 154.5 -373.5Q160 -379 167 -379ZM149 -169L175 -122H213L171 -191L212 -258H175L151 -213Q145 -224 139 -236L127 -258H89L129 -190L85 -122H123ZM296 -32V-85H176V-32ZM296 -112V-179H256V-112ZM296 -205V-272H256V-205ZM296 -299V-352H176V-299ZM443 -32V-85H323V-32ZM443 -112V-179H323V-112ZM443 -205V-272H323V-205ZM443 -299V-352H323V-299Z"/>
</svg>