<svg xmlns="http://www.w3.org/2000/svg" viewBox="0 -512 512 512">
	<path fill="#000000" d="M183 -191Q183 -183 181 -176Q179 -169 175 -163Q171 -157 164.5 -153.5Q158 -150 149 -150Q140 -150 134 -153.5Q128 -157 124 -163Q120 -169 118 -176.5Q116 -184 116 -192Q116 -200 118 -207.5Q120 -215 124 -221Q128 -227 134.5 -230.5Q141 -234 150 -234Q159 -234 165.5 -230.5Q172 -227 175.5 -220.5Q179 -214 181 -206.5Q183 -199 183 -191ZM469 -192V-25Q469 -17 463.5 -11Q458 -5 449 -5H169Q161 -5 155 -11Q149 -17 149 -25V-85H60Q53 -85 48 -90.5Q43 -96 43 -103V-281Q43 -288 48 -293.5Q53 -299 60 -299H176V-360Q176 -368 181.5 -373.5Q187 -379 195 -379H424Q432 -379 437.5 -373.5Q443 -368 443 -360V-212L465 -200Q467 -198 468 -196Q469 -194 469 -192ZM363 -339V-285H416V-339ZM363 -259V-205H416V-259ZM363 -179V-146L417 -179ZM269 -339V-285H336V-339ZM269 -259V-205H336V-259ZM269 -179V-143L312 -116L336 -130V-179ZM203 -339V-299H240Q242 -299 243 -298V-339ZM149 -121Q165 -121 177.5 -126.5Q190 -132 198.5 -141.5Q207 -151 211.5 -164.5Q216 -178 216 -193Q216 -208 211.5 -220.5Q207 -233 199 -242.5Q191 -252 178.5 -257.5Q166 -263 150.5 -263Q135 -263 122 -257.5Q109 -252 100.5 -242.5Q92 -233 87.5 -219.5Q83 -206 83 -190.5Q83 -175 87.5 -162.5Q92 -150 100.5 -141Q109 -132 121.5 -126.5Q134 -121 149 -121ZM176 -32H396L256 -119V-103Q256 -96 250.5 -90.5Q245 -85 238 -85H176ZM443 -34V-163L338 -100Z"/>
</svg>