<svg xmlns="http://www.w3.org/2000/svg" viewBox="0 -512 512 512">
	<path fill="#000000" d="M256 -405Q298 -405 337.5 -389Q377 -373 407 -343Q437 -313 453 -273.5Q469 -234 469 -192Q469 -150 453 -110.5Q437 -71 407 -41Q377 -11 337.5 5Q298 21 256 21Q214 21 174.5 5Q135 -11 105 -41Q75 -71 59 -110.5Q43 -150 43 -192Q43 -234 59 -273.5Q75 -313 105 -343Q135 -373 174.5 -389Q214 -405 256 -405ZM431 -192Q431 -253 393.5 -300Q356 -347 299 -361V-320H213V-361Q156 -347 118.5 -300Q81 -253 81 -192Q81 -157 94.5 -125Q108 -93 132.5 -68.5Q157 -44 189 -30.5Q221 -17 256 -17Q291 -17 323 -30.5Q355 -44 379.5 -68.5Q404 -93 417.5 -125Q431 -157 431 -192ZM149 -221Q161 -221 169.5 -212.5Q178 -204 178 -192Q178 -180 169.5 -171.5Q161 -163 149 -163Q137 -163 128.5 -171.5Q120 -180 120 -192Q120 -204 128.5 -212.5Q137 -221 149 -221ZM363 -221Q375 -221 383.5 -212.5Q392 -204 392 -192Q392 -180 383.5 -171.5Q375 -163 363 -163Q351 -163 342.5 -171.5Q334 -180 334 -192Q334 -204 342.5 -212.5Q351 -221 363 -221ZM178 -144Q190 -144 199 -135Q208 -126 208 -114Q208 -102 199 -93.5Q190 -85 178 -85Q166 -85 157.5 -93.5Q149 -102 149 -114Q149 -126 157.5 -135Q166 -144 178 -144ZM334 -144Q346 -144 354.5 -135Q363 -126 363 -114Q363 -102 354.5 -93.5Q346 -85 334 -85Q322 -85 313 -93.5Q304 -102 304 -114Q304 -126 313 -135Q322 -144 334 -144ZM256 -114Q268 -114 276.5 -105.5Q285 -97 285 -85Q285 -73 276.5 -64.5Q268 -56 256 -56Q244 -56 235.5 -64.5Q227 -73 227 -85Q227 -97 235.5 -105.5Q244 -114 256 -114Z"/>
</svg>