<svg xmlns="http://www.w3.org/2000/svg" viewBox="0 -512 512 512">
	<path fill="#000000" d="M107 -384Q89 -384 76.5 -371.5Q64 -359 64 -341V-43Q64 -25 76.5 -12.5Q89 0 107 0H405Q423 0 435.5 -12.5Q448 -25 448 -43V-341Q448 -359 435.5 -371.5Q423 -384 405 -384ZM256 -341Q305 -341 345 -311.5Q385 -282 399 -235H341Q332 -235 326 -228.5Q320 -222 320 -213V-171Q320 -162 326 -155.5Q332 -149 341 -149H399Q385 -102 345 -72.5Q305 -43 256 -43Q215 -43 181 -63Q147 -83 127 -117Q107 -151 107 -192Q107 -233 127 -267Q147 -301 181 -321Q215 -341 256 -341ZM256 -235Q238 -235 225.5 -222.5Q213 -210 213 -192Q213 -174 225.5 -161.5Q238 -149 256 -149Q274 -149 286.5 -161.5Q299 -174 299 -192Q299 -210 286.5 -222.5Q274 -235 256 -235Z"/>
</svg>