<svg xmlns="http://www.w3.org/2000/svg" viewBox="0 -512 512 512">
	<path fill="#000000" d="M256 -427Q305 -427 347 -395Q389 -363 413 -309.5Q437 -256 437 -192Q437 -128 413 -74Q389 -20 347 11.5Q305 43 256 43Q207 43 165 11.5Q123 -20 99 -74Q75 -128 75 -192Q75 -256 99 -309.5Q123 -363 165 -395Q207 -427 256 -427ZM256 -384Q218 -384 186.5 -358Q155 -332 136 -288Q117 -244 117 -192Q117 -140 136 -96Q155 -52 186.5 -26Q218 0 256 0Q294 0 325.5 -26Q357 -52 376 -96Q395 -140 395 -192Q395 -244 376 -288Q357 -332 325.5 -358Q294 -384 256 -384ZM177 -229L246 -298L269 -275L199 -206ZM186 -136L306 -257L329 -235L208 -114Z"/>
</svg>