<svg xmlns="http://www.w3.org/2000/svg" viewBox="0 -512 512 512">
	<path fill="#000000" d="M107 -299Q89 -299 76.5 -286.5Q64 -274 64 -256V-128Q64 -110 76.5 -97.5Q89 -85 107 -85H171V-128H107V-256H171V-299ZM235 -299Q217 -299 204.5 -286.5Q192 -274 192 -256V-128Q192 -110 204.5 -97.5Q217 -85 235 -85H277Q295 -85 307.5 -97.5Q320 -110 320 -128V-256Q320 -274 307.5 -286.5Q295 -299 277 -299ZM235 -256H277V-128H235ZM341 -224V-192H405V-160H373Q360 -160 350.5 -150.5Q341 -141 341 -128V-64H437V-96H373V-128H405Q419 -128 428 -137.5Q437 -147 437 -160V-192Q437 -205 428 -214.5Q419 -224 405 -224Z"/>
</svg>