<svg xmlns="http://www.w3.org/2000/svg" viewBox="0 -512 512 512">
	<path fill="#000000" d="M155 -235L192 -299H308L332 -341L331 -352Q331 -365 340 -374.5Q349 -384 362.5 -384Q376 -384 385.5 -374.5Q395 -365 395 -353Q395 -341 388 -332Q381 -323 370 -321L349 -285L378 -235L397 -267L395 -277Q395 -291 404 -300Q413 -309 426.5 -309Q440 -309 449.5 -300Q459 -291 459 -278.5Q459 -266 452 -257.5Q445 -249 434 -246L403 -192L440 -128Q452 -127 460.5 -118Q469 -109 469 -96Q469 -83 460 -73.5Q451 -64 437.5 -64Q424 -64 414.5 -73.5Q405 -83 405 -96V-102L378 -149L349 -99L370 -63Q381 -61 388 -52Q395 -43 395 -31Q395 -19 385.5 -9.5Q376 0 362.5 0Q349 0 340 -9.5Q331 -19 331 -32L332 -43L308 -85H226L201 -43L203 -32Q203 -19 193.5 -9.5Q184 0 170.5 0Q157 0 148 -9.5Q139 -19 139 -31Q139 -43 146 -52Q153 -61 164 -63L184 -99L93 -256Q81 -257 72.5 -266Q64 -275 64 -288Q64 -301 73.5 -310.5Q83 -320 96 -320Q109 -320 118.5 -310.5Q128 -301 128 -288V-282ZM217 -256L180 -192L217 -128H317L354 -192L317 -256Z"/>
</svg>