<svg xmlns="http://www.w3.org/2000/svg" viewBox="0 -512 512 512">
	<path fill="#000000" d="M51 -412L23 -384L26 -382Q21 -369 21 -363V-107Q21 -89 33.5 -76.5Q46 -64 64 -64H213V-21H171V21H256V-107H64V-343L299 -109V-21Q299 -4 311.5 8.5Q324 21 341 21H429L444 36L474 11ZM395 -11Q367 -11 349 -29Q331 -47 331 -75V-77L397 -11ZM491 -363V-299H448V-363H154L111 -405H448Q466 -405 478.5 -392.5Q491 -380 491 -363ZM448 -256H341Q325 -256 312.5 -245Q300 -234 299 -218L380 -137Q384 -139 395 -139H397Q424 -139 442.5 -120.5Q461 -102 461 -75Q461 -64 459 -60L493 -26V-213Q491 -231 478 -243.5Q465 -256 448 -256ZM395 -160Q382 -160 372.5 -169.5Q363 -179 363 -192Q363 -205 372.5 -214.5Q382 -224 394.5 -224Q407 -224 417 -214.5Q427 -205 427 -192Q427 -179 417 -169.5Q407 -160 395 -160Z"/>
</svg>