<svg xmlns="http://www.w3.org/2000/svg" viewBox="0 -512 512 512">
	<path fill="#000000" d="M448 -405Q465 -405 477 -394Q489 -383 491 -366V-107Q491 -90 479.5 -77.5Q468 -65 451 -64H299V-21H341V21H171V-21H213V-64H64Q47 -64 35 -75.5Q23 -87 21 -103V-363Q21 -380 32.5 -392Q44 -404 61 -405ZM448 -363H64V-107H448ZM256 -213Q291 -213 316 -200.5Q341 -188 341 -171V-149H171V-171Q171 -188 196 -200.5Q221 -213 256 -213ZM256 -320Q274 -320 286.5 -307.5Q299 -295 299 -277.5Q299 -260 286.5 -247.5Q274 -235 256 -235Q238 -235 225.5 -247.5Q213 -260 213 -277.5Q213 -295 225.5 -307.5Q238 -320 256 -320Z"/>
</svg>