<svg xmlns="http://www.w3.org/2000/svg" viewBox="0 -512 512 512">
	<path fill="#000000" d="M64 -363V-107H448V-363ZM64 -405H448Q466 -405 478.5 -392.5Q491 -380 491 -363V-107Q491 -89 478.5 -76.5Q466 -64 448 -64H299V-21H341V21H171V-21H213V-64H64Q46 -64 33.5 -76.5Q21 -89 21 -107V-363Q21 -380 33.5 -392.5Q46 -405 64 -405ZM231 -257Q242 -268 256.5 -267.5Q271 -267 281 -257Q291 -247 291 -233Q291 -219 281 -208.5Q271 -198 256.5 -198Q242 -198 231.5 -208.5Q221 -219 221 -233Q221 -247 231 -257ZM215 -192Q232 -175 256 -175Q280 -175 297 -192Q314 -209 314 -233Q314 -257 297 -274Q280 -291 256 -291Q232 -291 215 -274Q198 -257 198 -233Q198 -209 215 -192ZM128 -233Q143 -272 178 -296Q213 -320 256 -320Q299 -320 334 -296Q369 -272 384 -233Q369 -194 334 -169.5Q299 -145 256 -145Q213 -145 178 -169.5Q143 -194 128 -233Z"/>
</svg>