<svg xmlns="http://www.w3.org/2000/svg" viewBox="0 -512 512 512">
	<path fill="#000000" d="M437 -171Q459 -171 475 -155Q491 -139 491 -117V-107Q500 -107 506 -100.5Q512 -94 512 -85V0Q512 9 506 15Q500 21 491 21H384Q375 21 369 15Q363 9 363 0V-85Q363 -94 369 -100.5Q375 -107 384 -107V-117Q384 -139 399.5 -155Q415 -171 437 -171ZM437 -149Q424 -149 414.5 -140Q405 -131 405 -117V-107H469V-117Q469 -131 460 -140Q451 -149 437 -149ZM427 -363H43V-107H320V-64H277V-21H320V21H149V-21H192V-64H43Q25 -64 12.5 -76.5Q0 -89 0 -107V-363Q0 -380 12.5 -392.5Q25 -405 43 -405H427Q444 -405 456.5 -392.5Q469 -380 469 -363V-202Q450 -213 427 -213Z"/>
</svg>