<svg xmlns="http://www.w3.org/2000/svg" viewBox="0 -512 512 512">
	<path fill="#000000" d="M256 -21Q204 -21 161 -50Q118 -79 98.5 -127Q79 -175 89 -225.5Q99 -276 135.5 -312.5Q172 -349 222.5 -359Q273 -369 321 -349.5Q369 -330 398 -287Q427 -244 427 -192Q427 -146 404 -106.5Q381 -67 341.5 -44Q302 -21 256 -21ZM256 -405Q198 -405 149 -376.5Q100 -348 71.5 -299Q43 -250 43 -192Q43 -134 71.5 -85Q100 -36 149 -7.5Q198 21 256 21Q314 21 363 -7.5Q412 -36 440.5 -85Q469 -134 469 -192Q469 -234 453 -273.5Q437 -313 407 -343Q377 -373 337.5 -389Q298 -405 256 -405Z"/>
</svg>