<svg xmlns="http://www.w3.org/2000/svg" viewBox="0 -512 512 512">
	<path fill="#000000" d="M405 -341Q405 -359 392.5 -371.5Q380 -384 363 -384H299V-341H363V-285L288 -192H213V-299H128Q93 -299 68 -274Q43 -249 43 -213V-149H85Q85 -123 104 -104Q123 -85 149.5 -85Q176 -85 194.5 -104Q213 -123 213 -149H309L405 -270ZM85 -192V-213Q85 -231 97.5 -243.5Q110 -256 128 -256H171V-192ZM149 -128Q141 -128 134.5 -134.5Q128 -141 128 -149H171Q171 -141 164.5 -134.5Q158 -128 149 -128ZM107 -363H213V-320H107ZM405 -213Q379 -213 360 -194.5Q341 -176 341 -149.5Q341 -123 360 -104Q379 -85 405.5 -85Q432 -85 450.5 -104Q469 -123 469 -149.5Q469 -176 450.5 -194.5Q432 -213 405 -213ZM405 -128Q397 -128 390.5 -134.5Q384 -141 384 -149.5Q384 -158 390.5 -164.5Q397 -171 405.5 -171Q414 -171 420.5 -164.5Q427 -158 427 -149.5Q427 -141 420.5 -134.5Q414 -128 405 -128ZM149 -21H235V-64L363 0H277V43Z"/>
</svg>