<svg xmlns="http://www.w3.org/2000/svg" viewBox="0 -512 512 512">
	<path fill="#000000" d="M405 -299Q405 -316 392.5 -328.5Q380 -341 363 -341H299V-299H363V-242L288 -149H213V-256H128Q93 -256 68 -231Q43 -206 43 -171V-107H85Q85 -80 104 -61.5Q123 -43 149.5 -43Q176 -43 194.5 -61.5Q213 -80 213 -107H309L405 -227ZM149 -85Q141 -85 134.5 -91.5Q128 -98 128 -107H171Q171 -98 164.5 -91.5Q158 -85 149 -85ZM171 -149H85V-171Q85 -188 97.5 -200.5Q110 -213 128 -213H171ZM405 -171Q379 -171 360 -152Q341 -133 341 -106.5Q341 -80 360 -61.5Q379 -43 405.5 -43Q432 -43 450.5 -61.5Q469 -80 469 -106.5Q469 -133 450.5 -152Q432 -171 405 -171ZM405 -85Q397 -85 390.5 -91.5Q384 -98 384 -106.5Q384 -115 390.5 -121.5Q397 -128 405.5 -128Q414 -128 420.5 -121.5Q427 -115 427 -106.5Q427 -98 420.5 -91.5Q414 -85 405 -85ZM213 -277H107V-320H213Z"/>
</svg>