<svg xmlns="http://www.w3.org/2000/svg" viewBox="0 -512 512 512">
	<path fill="#000000" d="M512 -299Q512 -313 491 -339Q480 -353 469 -363L458 -351Q446 -338 438 -326Q427 -309 427 -298Q427 -287 432.5 -277Q438 -267 448 -262V-171H405V-213Q405 -227 395.5 -239Q386 -251 373 -254Q384 -275 384 -296.5Q384 -318 374.5 -336Q365 -354 348 -365L256 -427L164 -367Q148 -354 138 -335.5Q128 -317 128 -297Q128 -273 141 -254Q126 -251 116.5 -239.5Q107 -228 107 -213V-171H64V-262Q74 -267 79.5 -277Q85 -287 85 -299Q85 -313 64 -339Q53 -353 43 -363L32 -351Q19 -338 11 -326Q0 -309 0 -298Q0 -287 6 -277Q12 -267 21 -262V0H235V-85Q235 -94 241 -100.5Q247 -107 256 -107Q265 -107 271 -100.5Q277 -94 277 -85V0H491V-262Q500 -267 506 -277Q512 -287 512 -299ZM190 -331L256 -375L322 -331Q341 -318 341 -297Q341 -281 329 -268.5Q317 -256 301 -256H211Q195 -256 183 -268.5Q171 -281 171 -297Q171 -318 190 -331ZM448 -43H320V-85Q320 -111 301 -130Q282 -149 256 -149Q230 -149 211 -130Q192 -111 192 -85V-43H64V-128H149V-213H363V-128H448Z"/>
</svg>