<svg xmlns="http://www.w3.org/2000/svg" viewBox="0 -512 512 512">
	<path fill="#000000" d="M256 -405Q283 -405 301.5 -386.5Q320 -368 320 -341.5Q320 -315 301.5 -296Q283 -277 256 -277Q229 -277 210.5 -296Q192 -315 192 -341.5Q192 -368 210.5 -386.5Q229 -405 256 -405ZM427 -64L384 -180Q377 -200 371 -210Q361 -224 341 -235Q319 -246 300 -251Q281 -256 256 -256Q231 -256 212.5 -251Q194 -246 171 -235Q152 -225 142 -210Q136 -201 128 -181L85 -64Q82 -48 114 -27Q136 -12 174.5 4.5Q213 21 256 21Q299 21 339 4Q377 -12 399 -27Q430 -48 427 -64ZM329 -75L256 0L183 -75Q171 -88 171 -106Q171 -124 183.5 -136.5Q196 -149 213.5 -149Q231 -149 244 -136L256 -124L268 -137Q281 -149 298.5 -149Q316 -149 328.5 -136.5Q341 -124 341 -105.5Q341 -87 329 -75Z"/>
</svg>