<svg xmlns="http://www.w3.org/2000/svg" viewBox="0 -512 512 512">
	<path fill="#000000" d="M149 -171H64Q55 -171 49 -177Q43 -183 43 -192Q43 -201 49 -207Q55 -213 64 -213H149Q158 -213 164.5 -207Q171 -201 171 -192Q171 -183 164.5 -177Q158 -171 149 -171ZM128 -277Q128 -286 121.5 -292.5Q115 -299 107 -299H85Q77 -299 70.5 -292.5Q64 -286 64 -277.5Q64 -269 70.5 -262.5Q77 -256 85 -256H107Q115 -256 121.5 -262.5Q128 -269 128 -277ZM469 -192Q469 -163 455 -138.5Q441 -114 416.5 -99.5Q392 -85 363 -85H85Q77 -85 70.5 -91.5Q64 -98 64 -106.5Q64 -115 70.5 -121.5Q77 -128 85 -128H277Q263 -148 258 -171H213Q205 -171 198.5 -177Q192 -183 192 -192Q192 -201 198.5 -207Q205 -213 213 -213H258Q263 -236 277 -256H171Q162 -256 155.5 -262.5Q149 -269 149 -277.5Q149 -286 155.5 -292.5Q162 -299 171 -299H363Q392 -299 416.5 -284.5Q441 -270 455 -245.5Q469 -221 469 -192ZM427 -192Q427 -218 408 -237Q389 -256 362.5 -256Q336 -256 317.5 -237Q299 -218 299 -192Q299 -166 317.5 -147Q336 -128 362.5 -128Q389 -128 408 -147Q427 -166 427 -192Z"/>
</svg>