<svg xmlns="http://www.w3.org/2000/svg" viewBox="0 -512 512 512">
	<path fill="#000000" d="M213 -444Q197 -444 186 -432.5Q175 -421 175 -405Q175 -389 186 -378Q197 -367 213 -367Q229 -367 240.5 -378Q252 -389 252 -405Q252 -421 240.5 -432.5Q229 -444 213 -444ZM334 -427Q334 -384 355 -348Q376 -312 412 -291Q448 -270 491 -270V-299Q456 -299 426.5 -316Q397 -333 380 -362.5Q363 -392 363 -427ZM391 -427Q391 -400 404.5 -377Q418 -354 441 -340.5Q464 -327 491 -327V-356Q461 -356 440.5 -376.5Q420 -397 420 -427ZM448 -427Q448 -409 460.5 -396.5Q473 -384 491 -384V-427ZM169 -362Q164 -362 158 -360L43 -324V-213H81V-292L126 -306L43 21H81L142 -152L192 -85V21H230V-115L177 -212L193 -273L216 -235H320V-273H243L200 -344Q195 -352 187 -357Q179 -362 169 -362Z"/>
</svg>