<svg xmlns="http://www.w3.org/2000/svg" viewBox="0 -512 512 512">
	<path fill="#000000" d="M213 -96L341 -192L213 -288ZM469 -192Q469 -250 440.5 -299Q412 -348 363 -376.5Q314 -405 256 -405Q219 -405 184 -393L199 -352Q227 -363 256 -363Q302 -363 341.5 -340Q381 -317 404 -277.5Q427 -238 427 -192Q427 -146 404 -106.5Q381 -67 341.5 -44Q302 -21 256 -21Q210 -21 170.5 -44Q131 -67 108 -106.5Q85 -146 85 -192Q85 -222 96 -250L55 -264Q43 -229 43 -192Q43 -134 71.5 -85Q100 -36 149 -7.5Q198 21 256 21Q314 21 363 -7.5Q412 -36 440.5 -85Q469 -134 469 -192ZM117 -363Q130 -363 139.5 -353.5Q149 -344 149 -331Q149 -318 139.5 -308.5Q130 -299 117 -299Q104 -299 94.5 -308.5Q85 -318 85 -331Q85 -344 94.5 -353.5Q104 -363 117 -363Z"/>
</svg>