<svg xmlns="http://www.w3.org/2000/svg" viewBox="0 -512 512 512">
	<path fill="#000000" d="M372 -277L286 -363H192V-320H269L311 -277H139Q99 -277 71 -249Q43 -221 43 -181Q43 -141 71 -113Q99 -85 139 -85Q174 -85 200.5 -108Q227 -131 233 -165L278 -192Q277 -188 277 -181Q277 -141 305 -113Q333 -85 373 -85Q413 -85 441 -113Q469 -141 469 -181Q469 -221 441 -249Q413 -277 373 -277ZM189 -165Q183 -149 169.5 -138.5Q156 -128 138 -128Q116 -128 100.5 -143.5Q85 -159 85 -181Q85 -203 100.5 -219Q116 -235 138 -235Q156 -235 169.5 -224.5Q183 -214 189 -197H128V-165ZM373 -128Q351 -128 335 -143.5Q319 -159 319 -181Q319 -203 335 -219Q351 -235 373 -235Q395 -235 410.5 -219Q426 -203 426 -181Q426 -159 410.5 -143.5Q395 -128 373 -128ZM235 -21H149L277 43V0H363L235 -64Z"/>
</svg>