<svg xmlns="http://www.w3.org/2000/svg" viewBox="0 -512 512 512">
	<path fill="#000000" d="M372 -235L286 -320H192V-277H269L311 -235H139Q99 -235 71 -207Q43 -179 43 -139Q43 -99 71 -71Q99 -43 139 -43Q174 -43 200.5 -65.5Q227 -88 233 -122L278 -149Q277 -146 277 -139Q277 -99 305 -71Q333 -43 373 -43Q413 -43 441 -71Q469 -99 469 -139Q469 -179 441 -207Q413 -235 373 -235ZM189 -122Q183 -106 169.5 -95.5Q156 -85 138 -85Q116 -85 100.5 -101Q85 -117 85 -139Q85 -161 100.5 -176.5Q116 -192 138 -192Q156 -192 169.5 -181.5Q183 -171 189 -155H128V-123ZM373 -85Q351 -85 335 -101Q319 -117 319 -139Q319 -161 335 -176.5Q351 -192 373 -192Q395 -192 410.5 -176.5Q426 -161 426 -139Q426 -117 410.5 -101Q395 -85 373 -85Z"/>
</svg>