<svg xmlns="http://www.w3.org/2000/svg" viewBox="0 -512 512 512">
	<path fill="#000000" d="M471 11L51 -412L23 -384L173 -235H139Q99 -235 71 -207Q43 -179 43 -139Q43 -99 71 -71Q99 -43 139 -43Q174 -43 201 -65.5Q228 -88 233 -122L265 -141L277 -128Q281 -94 305 -70Q329 -46 363 -43L444 38ZM188 -122Q183 -106 168.5 -95.5Q154 -85 137 -85Q116 -85 100.5 -100.5Q85 -116 85 -138.5Q85 -161 100.5 -176.5Q116 -192 139 -192Q156 -192 169.5 -181.5Q183 -171 190 -154H128V-122ZM239 -277L196 -320H286L371 -235H373Q413 -235 441 -207Q469 -179 469 -139Q469 -120 462 -103Q455 -86 444 -73L414 -102Q427 -115 427 -137Q427 -159 411.5 -174.5Q396 -190 374 -190Q352 -190 339 -177L282 -235H311L269 -277Z"/>
</svg>