<svg xmlns="http://www.w3.org/2000/svg" viewBox="0 -512 512 512">
	<path fill="#000000" d="M43 -336L70 -363L427 -6L400 21L369 -9Q355 14 330.5 28.5Q306 43 277 43Q248 43 223.5 28.5Q199 14 185 -10.5Q171 -35 171 -64V-87Q134 -95 109.5 -124.5Q85 -154 85 -192V-256H122ZM299 -299H213V-403Q250 -396 274.5 -366.5Q299 -337 299 -299ZM171 -403V-316L115 -372Q138 -396 171 -403ZM299 -192V-188L231 -256H299ZM213 -87V-64Q213 -37 232 -18.5Q251 0 277 0Q298 0 314 -11.5Q330 -23 337 -41L265 -114Q243 -94 213 -87ZM341 -171Q341 -206 366 -231Q391 -256 427 -256H469L448 -235L469 -213H427Q409 -213 396.5 -200.5Q384 -188 384 -171V-103L341 -145Z"/>
</svg>