<svg xmlns="http://www.w3.org/2000/svg" viewBox="0 -512 512 512">
	<path fill="#000000" d="M299 -299H213V-403Q250 -396 274.5 -366.5Q299 -337 299 -299ZM85 -299Q85 -337 109.5 -366.5Q134 -396 171 -403V-299ZM299 -192Q299 -154 274.5 -124.5Q250 -95 213 -87V-64Q213 -37 232 -18.5Q251 0 277.5 0Q304 0 322.5 -18.5Q341 -37 341 -64V-171Q341 -206 366 -231Q391 -256 427 -256H469L448 -235L469 -213H427Q409 -213 396.5 -200.5Q384 -188 384 -171V-64Q384 -35 369.5 -10.5Q355 14 330.5 28.5Q306 43 277 43Q248 43 223.5 28.5Q199 14 185 -10.5Q171 -35 171 -64V-87Q134 -95 109.5 -124.5Q85 -154 85 -192V-256H299Z"/>
</svg>