<svg xmlns="http://www.w3.org/2000/svg" viewBox="0 -512 512 512">
	<path fill="#000000" d="M427 -299H437L498 -238L452 -192L498 -146L437 -85H427V-166L378 -117L363 -132L422 -192L363 -252L378 -267L427 -218ZM448 -258V-218L468 -238ZM448 -166V-126L468 -146ZM320 -256V-235H192V-404Q228 -399 257 -378Q286 -357 303 -325Q320 -293 320 -256ZM21 -235V-256Q21 -293 38 -325Q55 -357 84.5 -378Q114 -399 149 -404V-235ZM320 -128Q320 -87 300 -53Q280 -19 245.5 1Q211 21 170.5 21Q130 21 96 1Q62 -19 41.5 -53Q21 -87 21 -128V-192H320Z"/>
</svg>