<svg xmlns="http://www.w3.org/2000/svg" viewBox="0 -512 512 512">
	<path fill="#000000" d="M235 -425Q193 -420 159 -396Q125 -372 105 -335.5Q85 -299 85 -256H235V-283Q225 -289 219 -298.5Q213 -308 213 -320V-363Q213 -374 219 -384Q225 -394 235 -400ZM277 -256V-283Q287 -289 293 -298.5Q299 -308 299 -320V-363Q299 -374 293 -384Q287 -394 277 -400V-425Q319 -420 353 -396Q387 -372 407 -335.5Q427 -299 427 -256ZM85 -128Q85 -94 98 -62.5Q111 -31 135 -7Q159 17 190.5 30Q222 43 256 43Q290 43 321.5 30Q353 17 377 -7Q401 -31 414 -62.5Q427 -94 427 -128V-213H85ZM277 -320V-363Q277 -371 271 -377.5Q265 -384 256 -384Q247 -384 241 -377.5Q235 -371 235 -363V-320Q235 -311 241 -305Q247 -299 256 -299Q265 -299 271 -305Q277 -311 277 -320Z"/>
</svg>