<svg xmlns="http://www.w3.org/2000/svg" viewBox="0 -512 512 512">
	<path fill="#000000" d="M192 -427V-405H213V-341H192V-320H256V-341H235V-405H256V-427ZM192 -299Q174 -299 161.5 -286.5Q149 -274 149 -256V0Q149 18 161.5 30.5Q174 43 192 43H448Q466 43 478.5 30.5Q491 18 491 0V-256Q491 -274 478.5 -286.5Q466 -299 448 -299ZM21 -256V-192H43V-213H107V-192H128V-256H107V-235H43V-256ZM192 -256H448V0H192ZM299 -235V-213H320V-107H235V-128H213V-64H235V-85H320V-43H299V-21H363V-43H341V-85H405V-64H427V-128H405V-107H341V-213H363V-235Z"/>
</svg>