<svg xmlns="http://www.w3.org/2000/svg" viewBox="0 -512 512 512">
	<path fill="#000000" d="M235 -21H85Q68 -21 55.5 -33.5Q43 -46 43 -64V-320Q43 -338 55.5 -350.5Q68 -363 85 -363H107L149 -277H213L171 -363H213L256 -277H320L277 -363H320L363 -277H427L384 -363H469V-170Q451 -199 419.5 -217Q388 -235 351 -235Q314 -235 282.5 -216Q251 -197 232 -165.5Q213 -134 213 -96Q213 -55 235 -21ZM499 21L469 51L403 -15Q379 0 352 0Q312 0 284 -28Q256 -56 256 -96Q256 -136 284 -164Q312 -192 352 -192Q392 -192 420 -164Q448 -136 448 -96Q448 -68 433 -45ZM405 -96Q405 -118 389.5 -133.5Q374 -149 352 -149Q330 -149 314.5 -133.5Q299 -118 299 -96Q299 -74 314.5 -58.5Q330 -43 352 -43Q374 -43 389.5 -58.5Q405 -74 405 -96Z"/>
</svg>