<svg xmlns="http://www.w3.org/2000/svg" viewBox="0 -512 512 512">
	<path fill="#000000" d="M256 -405Q298 -405 337.5 -389Q377 -373 407 -343Q437 -313 453 -273.5Q469 -234 469 -192Q469 -150 453 -110.5Q437 -71 407 -41Q377 -11 337.5 5Q298 21 256 21Q214 21 174.5 5Q135 -11 105 -41Q75 -71 59 -110.5Q43 -150 43 -192Q43 -234 59 -273.5Q75 -313 105 -343Q135 -373 174.5 -389Q214 -405 256 -405ZM256 -363Q234 -363 218.5 -347Q203 -331 203 -309Q203 -287 218.5 -271.5Q234 -256 256 -256Q278 -256 293.5 -271.5Q309 -287 309 -309Q309 -331 293.5 -347Q278 -363 256 -363ZM94 -245Q87 -224 97 -204Q107 -184 128 -177.5Q149 -171 168.5 -181Q188 -191 195 -212Q202 -233 192 -252.5Q182 -272 161 -279Q140 -286 120.5 -276Q101 -266 94 -245ZM418 -245Q411 -266 391.5 -276Q372 -286 351 -279Q330 -272 320 -252.5Q310 -233 317 -212Q324 -191 343.5 -181Q363 -171 384 -177.5Q405 -184 415 -204Q425 -224 418 -245ZM156 -54Q174 -41 196 -44.5Q218 -48 230.5 -66Q243 -84 239.5 -105.5Q236 -127 218.5 -140Q201 -153 179 -149.5Q157 -146 144 -128.5Q131 -111 134.5 -89Q138 -67 156 -54ZM356 -54Q374 -67 377.5 -89Q381 -111 368 -129Q355 -147 333.5 -150Q312 -153 294 -140Q276 -127 272.5 -105.5Q269 -84 281.5 -66Q294 -48 316 -44.5Q338 -41 356 -54ZM256 -224Q243 -224 233.5 -214.5Q224 -205 224 -192Q224 -179 233.5 -169.5Q243 -160 256 -160Q269 -160 278.5 -169.5Q288 -179 288 -192Q288 -205 278.5 -214.5Q269 -224 256 -224Z"/>
</svg>