<svg xmlns="http://www.w3.org/2000/svg" viewBox="0 -512 512 512">
	<path fill="#000000" d="M235 -21H85Q68 -21 55.5 -33.5Q43 -46 43 -64V-320Q43 -338 55.5 -350.5Q68 -363 85 -363H107L149 -277H213L171 -363H213L256 -277H320L277 -363H320L363 -277H427L384 -363H469V-171Q453 -197 427 -213V-235H124L85 -309V-64H218Q226 -34 235 -21ZM433 -45Q448 -71 448 -96Q448 -136 420 -164Q392 -192 352 -192Q312 -192 284 -164Q256 -136 256 -96Q256 -56 284 -28Q312 0 352 0Q382 0 403 -15L469 51L499 21ZM352 -43Q330 -43 314.5 -58.5Q299 -74 299 -96Q299 -118 314.5 -133.5Q330 -149 352 -149Q374 -149 389.5 -133.5Q405 -118 405 -96Q405 -74 389.5 -58.5Q374 -43 352 -43Z"/>
</svg>