<svg xmlns="http://www.w3.org/2000/svg" viewBox="0 -512 512 512">
	<path fill="#000000" d="M315 -289L256 -364L298 -372L356 -297ZM252 -276L193 -352L151 -343L210 -268ZM461 -318L445 -401L361 -385L419 -309ZM405 -171Q440 -171 469 -153V-235H43V-21Q43 -4 55.5 8.5Q68 21 85 21H295Q277 -8 277 -42.5Q277 -77 294.5 -106.5Q312 -136 341.5 -153.5Q371 -171 405 -171ZM89 -331L68 -327Q51 -323 41 -308.5Q31 -294 34 -276L43 -235L147 -255ZM481 -88L451 -118L405 -73L360 -118L330 -88L375 -43L330 3L360 33L405 -13L451 33L481 3L435 -43Z"/>
</svg>