<svg xmlns="http://www.w3.org/2000/svg" viewBox="0 -512 512 512">
	<path fill="#000000" d="M315 -289L256 -364L298 -372L356 -297ZM461 -318L445 -401L361 -385L419 -309ZM405 -192Q439 -192 469 -177V-235H43V-21Q43 -4 55.5 8.5Q68 21 85 21H271Q256 -9 256 -43Q256 -83 276 -117.5Q296 -152 330.5 -172Q365 -192 405 -192ZM252 -276L193 -352L151 -343L210 -268ZM89 -331L68 -327Q51 -323 41 -308.5Q31 -294 34 -276L43 -235L147 -255ZM508 -13Q509 -13 509 -11.5Q509 -10 508 -9L486 28Q484 30 480 30L454 21L437 32L433 60Q433 61 431.5 62.5Q430 64 429 64H386Q384 64 380 60L375 32Q366 29 358 21L333 32Q329 32 326 30L305 -6Q303 -9 307 -13L331 -30V-51L307 -68Q305 -70 305 -75L326 -111Q329 -113 333 -113L358 -102L375 -113L380 -141Q380 -145 386 -145H429Q430 -145 431.5 -143.5Q433 -142 433 -141L437 -113Q444 -111 457 -102L482 -113Q489 -113 489 -111L510 -75Q512 -73 508 -68L484 -51V-30ZM437 -43Q437 -55 427.5 -65Q418 -75 405.5 -75Q393 -75 383 -65Q373 -55 373 -42.5Q373 -30 383 -20.5Q393 -11 405.5 -11Q418 -11 427.5 -20.5Q437 -30 437 -43Z"/>
</svg>