<svg xmlns="http://www.w3.org/2000/svg" viewBox="0 -512 512 512">
	<path fill="#000000" d="M255 -149L231 -192H315Q327 -192 337.5 -185.5Q348 -179 353 -168L363 -149ZM491 -64Q491 -37 472 -18.5Q453 0 427 0Q406 0 389.5 -12Q373 -24 367 -43H249Q239 -23 221 -11.5Q203 0 181 0Q159 0 141 -11.5Q123 -23 114 -43H43Q34 -43 27.5 -49Q21 -55 21 -64V-213Q21 -224 30.5 -230.5Q40 -237 51 -233L159 -190L73 -341H21V-384H98L243 -128H427Q453 -128 472 -109.5Q491 -91 491 -64ZM157 -145L64 -181V-85H108Q111 -106 124 -122Q137 -138 157 -145ZM213 -75Q213 -88 204 -97.5Q195 -107 181.5 -107Q168 -107 158.5 -97.5Q149 -88 149 -74.5Q149 -61 158.5 -52Q168 -43 181.5 -43Q195 -43 204 -52Q213 -61 213 -75ZM448 -64Q448 -73 441.5 -79Q435 -85 426.5 -85Q418 -85 411.5 -79Q405 -73 405 -64Q405 -55 411.5 -49Q418 -43 426.5 -43Q435 -43 441.5 -49Q448 -55 448 -64Z"/>
</svg>