<svg xmlns="http://www.w3.org/2000/svg" viewBox="0 -512 512 512">
	<path fill="#000000" d="M256 -405H299V-299H256ZM469 -314L439 -343L363 -269L393 -239L430 -276Q468 -314 469 -314ZM230 -192L254 -149H363L352 -169Q347 -180 337 -186Q327 -192 314 -192ZM427 -128H243L98 -384H21V-341H73L158 -190L49 -233Q46 -234 40 -233.5Q34 -233 30 -230Q21 -222 21 -213V-64Q21 -56 28 -49.5Q35 -43 43 -43H113Q123 -23 141 -11.5Q159 0 181 0Q203 0 221.5 -11.5Q240 -23 250 -43H367Q373 -23 389.5 -11.5Q406 0 427 0Q454 0 472.5 -18.5Q491 -37 491 -64Q491 -91 472.5 -109.5Q454 -128 427 -128ZM107 -85H64V-181L156 -145Q137 -139 123.5 -122.5Q110 -106 107 -85ZM181 -43Q169 -43 159 -52.5Q149 -62 149 -74.5Q149 -87 159 -97Q169 -107 181.5 -107Q194 -107 203.5 -97Q213 -87 213 -74.5Q213 -62 203.5 -52.5Q194 -43 181 -43ZM427 -43Q419 -43 412 -49.5Q405 -56 405 -64Q405 -72 412 -78.5Q419 -85 427 -85Q435 -85 441.5 -78.5Q448 -72 448 -64Q448 -56 441.5 -49.5Q435 -43 427 -43Z"/>
</svg>