<svg xmlns="http://www.w3.org/2000/svg" viewBox="0 -512 512 512">
	<path fill="#000000" d="M256 -405H299V-299H256ZM469 -314L439 -343L363 -269L393 -239L430 -276Q468 -314 469 -314ZM395 -149Q365 -149 343 -128H201L122 -384H43V-341H92L149 -149H139Q108 -149 86 -127Q64 -105 64 -74.5Q64 -44 86 -22Q108 0 139 0Q161 0 179 -11.5Q197 -23 207 -43H329Q338 -23 356.5 -11.5Q375 0 397 0Q427 0 449 -22Q471 -44 471 -74.5Q471 -105 448 -127Q425 -149 395 -149ZM139 -43Q126 -43 116.5 -52.5Q107 -62 107 -74.5Q107 -87 116.5 -97Q126 -107 138.5 -107Q151 -107 161 -97Q171 -87 171 -74.5Q171 -62 161 -52.5Q151 -43 139 -43ZM395 -43Q382 -43 372.5 -52.5Q363 -62 363 -74.5Q363 -87 372.5 -97Q382 -107 394.5 -107Q407 -107 417 -97Q427 -87 427 -74.5Q427 -62 417 -52.5Q407 -43 395 -43ZM203 -192L215 -149H320L311 -169Q307 -179 296 -185.5Q285 -192 273 -192Z"/>
</svg>