<svg xmlns="http://www.w3.org/2000/svg" viewBox="0 -512 512 512">
	<path fill="#000000" d="M341 -341Q339 -346 337 -351Q331 -363 323 -373Q311 -387 296 -395Q278 -405 256 -405Q216 -405 189 -373Q176 -357 171 -341Q150 -341 130 -329Q110 -317 97.5 -297Q85 -277 85 -256Q65 -256 53.5 -243.5Q42 -231 42 -213.5Q42 -196 53.5 -183.5Q65 -171 85 -171H427Q447 -171 458.5 -183.5Q470 -196 470 -213.5Q470 -231 458.5 -243.5Q447 -256 427 -256Q427 -277 414.5 -297Q402 -317 382 -329Q362 -341 341 -341ZM107 -128L149 21H192L171 -128ZM213 -128L235 21H277L299 -128ZM341 -128L320 21H363L405 -128Z"/>
</svg>