<svg xmlns="http://www.w3.org/2000/svg" viewBox="0 -512 512 512">
	<path fill="#000000" d="M192 -171V-341Q192 -359 204.5 -371.5Q217 -384 235 -384H427Q444 -384 456.5 -371.5Q469 -359 469 -341V-213H396L369 -250Q368 -252 366.5 -252Q365 -252 364 -250L321 -192Q320 -191 318.5 -191Q317 -191 316 -192L286 -229Q285 -230 283.5 -230Q282 -230 281 -229L236 -173Q234 -171 235 -169Q236 -167 238 -167H373V-128H235Q217 -128 204.5 -140.5Q192 -153 192 -171ZM128 21V0H85V21H43V-405H85V-384H128V-405H179Q165 -393 157 -376.5Q149 -360 149 -341V-171Q149 -135 174 -110Q199 -85 235 -85H335Q318 -72 308.5 -52.5Q299 -33 299 -11Q299 5 305 21ZM85 -299H128V-341H85ZM85 -213H128V-256H85ZM85 -128H128V-171H85ZM128 -43V-85H85V-43ZM491 -171V-128H448V-11Q448 11 432.5 27Q417 43 395 43Q373 43 357 27Q341 11 341 -11Q341 -33 357 -48.5Q373 -64 395 -64Q406 -64 416 -60V-171Z"/>
</svg>