<svg xmlns="http://www.w3.org/2000/svg" viewBox="0 -512 512 512">
	<path fill="#000000" d="M85 -192H427Q427 -251 390.5 -297Q354 -343 299 -357Q296 -341 284 -330.5Q272 -320 256 -320Q240 -320 228 -330.5Q216 -341 213 -357Q158 -343 121.5 -297Q85 -251 85 -192ZM256 -405Q298 -405 337.5 -389Q377 -373 407 -343Q437 -313 453 -273.5Q469 -234 469 -192Q469 -174 456.5 -161.5Q444 -149 427 -149H85Q68 -149 55.5 -161.5Q43 -174 43 -192Q43 -234 59 -273.5Q75 -313 105 -343Q135 -373 174.5 -389Q214 -405 256 -405ZM288 -85H224L206 -21H306ZM320 -128L341 -53L347 -33L349 -21Q349 -4 336.5 8.5Q324 21 306 21H206L196 20Q178 16 169 0.5Q160 -15 165 -32L192 -128ZM341 -299Q359 -299 371.5 -286.5Q384 -274 384 -256Q384 -238 371.5 -225.5Q359 -213 341.5 -213Q324 -213 311.5 -225.5Q299 -238 299 -256Q299 -274 311.5 -286.5Q324 -299 341 -299ZM171 -299Q188 -299 200.5 -286.5Q213 -274 213 -256Q213 -238 200.5 -225.5Q188 -213 170.5 -213Q153 -213 140.5 -225.5Q128 -238 128 -256Q128 -274 140.5 -286.5Q153 -299 171 -299Z"/>
</svg>