<svg xmlns="http://www.w3.org/2000/svg" viewBox="0 -512 512 512">
	<path fill="#000000" d="M471 11L51 -412L23 -384L87 -320Q66 -294 54.5 -261Q43 -228 43 -192Q43 -174 55.5 -161.5Q68 -149 85 -149H258L279 -128H192L164 -32Q160 -15 169 0.5Q178 16 194 19L207 21H307Q325 21 337.5 8.5Q350 -4 350 -21L348 -32L341 -53L337 -73L446 36ZM85 -192Q85 -244 117 -290L132 -275Q128 -262 128 -256Q128 -238 140.5 -225.5Q153 -213 171 -213Q177 -213 190 -218L215 -192ZM207 -21L213 -43L226 -85H290L309 -21ZM341 -213Q324 -213 311.5 -225.5Q299 -238 299 -256Q299 -274 311.5 -286.5Q324 -299 341.5 -299Q359 -299 371.5 -286.5Q384 -274 384 -256Q384 -238 371.5 -225.5Q359 -213 341 -213ZM175 -341L143 -373Q200 -405 257 -405Q314 -405 363 -376.5Q412 -348 440.5 -299Q469 -250 469 -192Q469 -174 456.5 -161.5Q444 -149 427 -149H367L324 -192H427Q427 -251 390.5 -297.5Q354 -344 299 -358Q297 -342 284.5 -331Q272 -320 256 -320Q240 -320 227.5 -331Q215 -342 213 -358Q191 -351 175 -341Z"/>
</svg>