<svg xmlns="http://www.w3.org/2000/svg" viewBox="0 -512 512 512">
	<path fill="#000000" d="M213 -128Q226 -128 237 -121Q248 -114 253 -102Q258 -90 255.5 -77Q253 -64 243.5 -55Q234 -46 221.5 -43.5Q209 -41 197 -46Q185 -51 178 -61.5Q171 -72 171 -85Q171 -103 183.5 -115.5Q196 -128 213 -128ZM213 -171Q178 -171 153 -146Q128 -121 128 -85.5Q128 -50 153 -25Q178 0 213.5 0Q249 0 274 -25Q299 -50 299 -85.5Q299 -121 274 -146Q249 -171 213 -171ZM352 -85Q365 -85 374.5 -76Q384 -67 384 -53.5Q384 -40 374.5 -30.5Q365 -21 352 -21Q339 -21 329.5 -30.5Q320 -40 320 -53.5Q320 -67 329.5 -76Q339 -85 352 -85Z"/>
</svg>