<svg xmlns="http://www.w3.org/2000/svg" viewBox="0 -512 512 512">
	<path fill="#000000" d="M277 -213V-288L324 -335Q337 -348 339.5 -366Q342 -384 333 -400Q325 -412 313 -419.5Q301 -427 287 -427Q279 -427 273 -425Q256 -420 245.5 -405.5Q235 -391 235 -373V-304L168 -237Q141 -210 133.5 -172.5Q126 -135 141 -99Q153 -69 178 -49Q203 -29 235 -24V-11Q235 -6 231.5 -3Q228 0 224 0H192V43H224Q246 43 261.5 27Q277 11 277 -11V-21Q299 -21 319.5 -34Q340 -47 353 -70.5Q366 -94 366 -123Q366 -147 354 -168Q342 -189 321.5 -201Q301 -213 277 -213ZM277 -373Q277 -381 284.5 -383.5Q292 -386 296 -378Q298 -375 297.5 -371.5Q297 -368 294 -365L277 -347ZM235 -203Q220 -193 208.5 -177Q197 -161 193 -144L235 -133V-68Q216 -72 201.5 -85Q187 -98 180 -116Q170 -139 175 -163.5Q180 -188 198 -206L235 -245ZM277 -64V-172Q296 -172 310 -157Q324 -142 324 -123Q324 -97 308 -79Q294 -64 277 -64Z"/>
</svg>