<svg xmlns="http://www.w3.org/2000/svg" viewBox="0 -512 512 512">
	<path fill="#000000" d="M427 -405H171Q153 -405 140.5 -392.5Q128 -380 128 -363V-107Q128 -89 140.5 -76.5Q153 -64 171 -64H427Q444 -64 456.5 -76.5Q469 -89 469 -107V-363Q469 -380 456.5 -392.5Q444 -405 427 -405ZM427 -107H171V-363H427ZM267 -128Q289 -128 304.5 -143.5Q320 -159 320 -181V-299H384V-341H299V-224Q284 -235 267 -235Q245 -235 229 -219Q213 -203 213 -181Q213 -159 229 -143.5Q245 -128 267 -128ZM85 -320H43V-21Q43 -4 55.5 8.5Q68 21 85 21H384V-21H85Z"/>
</svg>