<svg xmlns="http://www.w3.org/2000/svg" viewBox="0 -512 512 512">
	<path fill="#000000" d="M107 -363H149V-21H107ZM330 -171H316L295 -192L316 -213H330Q352 -213 371 -226Q390 -239 398.5 -259.5Q407 -280 403 -302.5Q399 -325 383 -341Q367 -357 344.5 -361.5Q322 -366 301 -357Q280 -348 267.5 -329.5Q255 -311 255 -288H298Q298 -301 307.5 -310.5Q317 -320 330 -320Q343 -320 352.5 -310.5Q362 -301 362 -288Q362 -275 352.5 -265.5Q343 -256 330 -256H299L256 -213H235V-363H192V-21H235V-171H256L299 -128H330Q343 -128 352.5 -118.5Q362 -109 362 -96Q362 -83 352.5 -73.5Q343 -64 330 -64Q317 -64 307.5 -73.5Q298 -83 298 -96H255Q255 -65 277 -43Q299 -21 330 -21Q361 -21 382.5 -43Q404 -65 404 -96Q404 -127 382.5 -149Q361 -171 330 -171Z"/>
</svg>