<svg xmlns="http://www.w3.org/2000/svg" viewBox="0 -512 512 512">
	<path fill="#000000" d="M320 -384Q294 -353 255 -344Q257 -354 253.5 -363.5Q250 -373 241.5 -378.5Q233 -384 222.5 -383.5Q212 -383 204 -377Q196 -371 193 -361Q190 -351 193.5 -341.5Q197 -332 205.5 -326Q214 -320 224 -320H229Q270 -320 304 -343L275 -254Q250 -225 212 -216Q215 -226 211 -235.5Q207 -245 198.5 -250.5Q190 -256 179.5 -255.5Q169 -255 161 -249Q153 -243 150.5 -233Q148 -223 151 -213.5Q154 -204 162.5 -198Q171 -192 181 -192H186Q227 -192 261 -215L192 0H235L363 -384Z"/>
</svg>