<svg xmlns="http://www.w3.org/2000/svg" viewBox="0 -512 512 512">
	<path fill="#000000" d="M395 -341Q408 -341 417.5 -332Q427 -323 427 -309.5Q427 -296 417.5 -286.5Q408 -277 394.5 -277Q381 -277 372 -286.5Q363 -296 363 -309.5Q363 -323 372 -332Q381 -341 395 -341ZM395 -213Q408 -213 417.5 -204Q427 -195 427 -181.5Q427 -168 417.5 -158.5Q408 -149 394.5 -149Q381 -149 372 -158.5Q363 -168 363 -181.5Q363 -195 372 -204Q381 -213 395 -213ZM213 -363Q184 -363 159.5 -348.5Q135 -334 121 -309.5Q107 -285 107 -256V-235Q107 -217 119 -205Q131 -193 148 -192.5Q165 -192 178 -203.5Q191 -215 192 -232.5Q193 -250 181.5 -263Q170 -276 153 -277Q160 -296 176.5 -308Q193 -320 213 -320Q249 -320 274 -295Q299 -270 299 -235Q299 -177 262.5 -134.5Q226 -92 149 -60L166 -20Q254 -58 297.5 -111Q341 -164 341 -235Q341 -269 324 -298.5Q307 -328 277.5 -345.5Q248 -363 213 -363Z"/>
</svg>