<svg xmlns="http://www.w3.org/2000/svg" viewBox="0 -512 512 512">
	<path fill="#000000" d="M299 -299H384V-384H256V-286L299 -243ZM256 -225L94 -387L64 -357L256 -165V-159Q240 -168 221.5 -170Q203 -172 185 -166Q154 -155 138 -125.5Q122 -96 130.5 -64Q139 -32 166.5 -14Q194 4 226.5 -1.5Q259 -7 279 -32Q299 -57 299 -89V-122L421 0L451 -30ZM213 -43Q196 -43 183.5 -55.5Q171 -68 171 -85.5Q171 -103 183.5 -115.5Q196 -128 213.5 -128Q231 -128 243.5 -115.5Q256 -103 256 -85.5Q256 -68 243.5 -55.5Q231 -43 213 -43Z"/>
</svg>