<svg xmlns="http://www.w3.org/2000/svg" viewBox="0 -512 512 512">
	<path fill="#000000" d="M85 -341Q68 -341 55.5 -328.5Q43 -316 43 -299V-85Q43 -68 55.5 -55.5Q68 -43 85 -43H427Q444 -43 456.5 -55.5Q469 -68 469 -85V-299Q469 -316 456.5 -328.5Q444 -341 427 -341ZM96 -299Q105 -299 111 -292.5Q117 -286 117 -277Q117 -268 111 -262Q105 -256 96 -256Q87 -256 81 -262Q75 -268 75 -277Q75 -286 81 -292.5Q87 -299 96 -299ZM149 -299H427V-85H149ZM171 -277V-107H235V-277ZM256 -277V-107H320V-277ZM341 -277V-107H405V-277ZM192 -256H213V-235H192ZM277 -256H299V-235H277ZM363 -256H384V-235H363Z"/>
</svg>