<svg xmlns="http://www.w3.org/2000/svg" viewBox="0 -512 512 512">
	<path fill="#000000" d="M341 -21V-104Q378 -108 408 -129Q438 -150 455.5 -182.5Q473 -215 473 -252Q473 -293 453 -327.5Q433 -362 398.5 -382Q364 -402 324 -402Q294 -402 266.5 -390.5Q239 -379 218 -358Q197 -337 185.5 -309.5Q174 -282 174 -252Q174 -228 182 -205Q186 -194 191 -185Q206 -154 234.5 -132.5Q263 -111 299 -105V-21H128V-85H149V-172Q149 -179 144 -185L142 -187Q137 -192 128 -192H64Q55 -192 50 -187L49 -186Q43 -179 43 -171V-85H64V21H405V-21ZM322 -145L306 -147Q268 -154 242.5 -183.5Q217 -213 217 -252Q217 -274 225 -293.5Q233 -313 248 -328Q263 -343 283 -351Q303 -359 324 -359Q353 -359 377.5 -344.5Q402 -330 416 -305.5Q430 -281 430 -252Q430 -212 403 -181.5Q376 -151 336 -147ZM96 -213Q109 -213 118.5 -222.5Q128 -232 128 -245.5Q128 -259 118.5 -268Q109 -277 96 -277Q83 -277 73.5 -268Q64 -259 64 -245.5Q64 -232 73.5 -222.5Q83 -213 96 -213Z"/>
</svg>