<svg xmlns="http://www.w3.org/2000/svg" viewBox="0 -512 512 512">
	<path fill="#000000" d="M96 -213Q109 -213 118.5 -222.5Q128 -232 128 -245.5Q128 -259 118.5 -268Q109 -277 96 -277Q83 -277 73.5 -268Q64 -259 64 -245.5Q64 -232 73.5 -222.5Q83 -213 96 -213ZM473 -252Q473 -293 453 -327.5Q433 -362 398.5 -382Q364 -402 323.5 -402Q283 -402 248.5 -382Q214 -362 194 -327.5Q174 -293 174 -252Q174 -197 209.5 -155.5Q245 -114 299 -105V-21H128V-85H149V-171Q149 -180 143 -186Q137 -192 128 -192H64Q55 -192 49 -186Q43 -180 43 -171V-85H64V21H405V-21H341V-104Q378 -108 408 -129Q438 -150 455.5 -182.5Q473 -215 473 -252Z"/>
</svg>