<svg xmlns="http://www.w3.org/2000/svg" viewBox="0 -512 512 512">
	<path fill="#000000" d="M258 -145L272 -147Q312 -151 339 -181.5Q366 -212 366 -252Q366 -281 352 -305.5Q338 -330 313.5 -344.5Q289 -359 260 -359Q238 -359 218.5 -351Q199 -343 184 -328Q169 -313 161 -293.5Q153 -274 153 -252Q153 -213 178.5 -183.5Q204 -154 242 -147ZM277 -104V-21H405V21H107V-21H235V-105Q181 -114 145.5 -155.5Q110 -197 110 -252Q110 -282 121.5 -309.5Q133 -337 154 -358Q175 -379 202.5 -390.5Q230 -402 260 -402Q300 -402 334.5 -382Q369 -362 389 -327.5Q409 -293 409 -252Q409 -215 391.5 -182.5Q374 -150 344 -129Q314 -108 277 -104Z"/>
</svg>