<svg xmlns="http://www.w3.org/2000/svg" viewBox="0 -512 512 512">
	<path fill="#000000" d="M21 -336L107 -250V-128Q107 -110 119.5 -97.5Q132 -85 149 -85H235V-43H213Q204 -43 198 -36.5Q192 -30 192 -21H43V21H192Q192 30 198 36.5Q204 43 213 43H299Q308 43 314 36.5Q320 30 320 21H378L421 64L448 37L49 -363ZM320 -21Q320 -30 314 -36.5Q308 -43 299 -43H277V-80L336 -21ZM377 -88L109 -356Q114 -368 125 -376Q136 -384 149 -384H363Q380 -384 392.5 -371.5Q405 -359 405 -341V-128Q405 -114 397.5 -103.5Q390 -93 377 -88ZM469 -21V4L444 -21Z"/>
</svg>