<svg xmlns="http://www.w3.org/2000/svg" viewBox="0 -512 512 512">
	<path fill="#000000" d="M256 -235Q274 -235 286.5 -222.5Q299 -210 299 -192Q299 -174 286.5 -161.5Q274 -149 256 -149Q238 -149 225.5 -161.5Q213 -174 213 -192Q213 -210 225.5 -222.5Q238 -235 256 -235ZM85 -363H235Q252 -363 264.5 -350.5Q277 -338 277 -320V-256H235V-320H85V-213H128V-256L192 -192L128 -128V-171H85Q68 -171 55.5 -183.5Q43 -196 43 -213V-320Q43 -338 55.5 -350.5Q68 -363 85 -363ZM427 -21H277Q260 -21 247.5 -33.5Q235 -46 235 -64V-128H277V-64H427V-171H384V-128L320 -192L384 -256V-213H427Q444 -213 456.5 -200.5Q469 -188 469 -171V-64Q469 -46 456.5 -33.5Q444 -21 427 -21Z"/>
</svg>