<svg xmlns="http://www.w3.org/2000/svg" viewBox="0 -512 512 512">
	<path fill="#000000" d="M384 -320H277Q260 -320 247.5 -307.5Q235 -295 235 -277V-229Q225 -223 219 -213.5Q213 -204 213 -192Q213 -174 225.5 -161.5Q238 -149 256 -149Q274 -149 286.5 -161.5Q299 -174 299 -192Q299 -204 293 -213.5Q287 -223 277 -229V-277H341V-107H171V-277H213V-320H128V-64H384ZM427 -21H85V-363H427ZM427 -405H85Q68 -405 55.5 -392.5Q43 -380 43 -363V-21Q43 -4 55.5 8.5Q68 21 85 21H427Q444 21 456.5 8.5Q469 -4 469 -21V-363Q469 -380 456.5 -392.5Q444 -405 427 -405Z"/>
</svg>