<svg xmlns="http://www.w3.org/2000/svg" viewBox="0 -512 512 512">
	<path fill="#000000" d="M154 -405Q84 -405 76 -404Q62 -404 53 -395Q44 -386 43.5 -372.5Q43 -359 43 -192.5Q43 -26 43.5 -12.5Q44 1 53 10Q62 19 76 19Q99 21 177 21Q154 5 146 -30Q139 -57 137 -123Q136 -153 136 -247Q136 -328 137 -340L138 -385L309 -213V-160L173 -296L172 -202Q172 -150 173 -127Q176 -80 181 -56Q186 -26 197.5 -9.5Q209 7 231 15Q250 21 279 21Q419 21 436 20Q450 20 459 10.5Q468 1 468.5 -12Q469 -25 469 -191Q469 -357 468.5 -370.5Q468 -384 459 -393Q450 -402 436 -403Q397 -405 335 -405Q358 -389 366 -354Q373 -327 375 -261Q376 -231 376 -137Q376 -57 375 -43L374 1L203 -171V-224L339 -88L340 -182Q340 -234 339 -257Q336 -304 331 -328Q326 -358 314.5 -374.5Q303 -391 281 -399Q263 -405 233 -405Z"/>
</svg>