<svg xmlns="http://www.w3.org/2000/svg" viewBox="0 -512 512 512">
	<path fill="#000000" d="M165 -171Q165 -182 174 -190Q198 -185 219 -171Q219 -160 211 -152Q203 -144 192 -144Q181 -144 173 -152Q165 -160 165 -171ZM293 -171Q314 -185 338 -190Q347 -182 347 -170.5Q347 -159 339 -151.5Q331 -144 320 -144Q309 -144 301 -151.5Q293 -159 293 -171ZM256 -256Q166 -257 87 -213L85 -192Q85 -152 103 -116Q179 -128 256 -128Q333 -128 409 -116Q427 -152 427 -192L425 -213Q346 -257 256 -256ZM256 -405Q298 -405 337.5 -389Q377 -373 407 -343Q437 -313 453 -273.5Q469 -234 469 -192Q469 -150 453 -110.5Q437 -71 407 -41Q377 -11 337.5 5Q298 21 256 21Q214 21 174.5 5Q135 -11 105 -41Q75 -71 59 -110.5Q43 -150 43 -192Q43 -234 59 -273.5Q75 -313 105 -343Q135 -373 174.5 -389Q214 -405 256 -405Z"/>
</svg>