<svg xmlns="http://www.w3.org/2000/svg" viewBox="0 -512 512 512">
	<path fill="#000000" d="M149 -427Q132 -427 119.5 -414.5Q107 -402 107 -384V0Q107 18 119.5 30.5Q132 43 149 43H299Q328 43 352.5 28.5Q377 14 391 -10.5Q405 -35 405 -64V-384Q405 -402 392.5 -414.5Q380 -427 363 -427ZM171 -363H341V-213H171ZM192 -149H213V-107H256V-85H213V-43H192V-85H149V-107H192ZM341 -128Q350 -128 356.5 -121.5Q363 -115 363 -106.5Q363 -98 356.5 -91.5Q350 -85 341.5 -85Q333 -85 326.5 -91.5Q320 -98 320 -106.5Q320 -115 326.5 -121.5Q333 -128 341 -128ZM299 -85Q307 -85 313.5 -79Q320 -73 320 -64Q320 -55 313.5 -49Q307 -43 298.5 -43Q290 -43 283.5 -49Q277 -55 277 -64Q277 -73 283.5 -79Q290 -85 299 -85Z"/>
</svg>