<svg xmlns="http://www.w3.org/2000/svg" viewBox="0 -512 512 512">
	<path fill="#000000" d="M381 -87H341V-218H381ZM384 -265Q384 -255 377 -248Q370 -241 360.5 -241Q351 -241 344 -248Q337 -255 337 -265Q337 -275 344 -282Q351 -289 360.5 -289Q370 -289 377 -282Q384 -275 384 -265ZM465 -87H425V-218H465ZM469 -265Q469 -255 462 -248Q455 -241 445.5 -241Q436 -241 429 -248Q422 -255 422 -265Q422 -275 429 -282Q436 -289 445.5 -289Q455 -289 462 -282Q469 -275 469 -265ZM275 -276H318L270 -109Q266 -99 261 -93Q252 -84 241 -84Q225 -84 215 -101Q210 -109 209 -117L180 -221L149 -109Q145 -99 139 -93Q131 -84 120 -84Q104 -84 94 -101Q89 -109 88 -117L43 -276H85L122 -135L152 -250Q156 -268 169 -275Q175 -278 180 -278L186 -277Q193 -275 198 -270Q206 -262 209 -250L238 -135Z"/>
</svg>