<svg xmlns="http://www.w3.org/2000/svg" viewBox="0 -512 512 512">
	<path fill="#000000" d="M214 -13H152Q122 -13 99.5 -35.5Q77 -58 77 -88V-296Q77 -326 99 -348.5Q121 -371 152 -371H214ZM152 -405Q122 -405 97 -390.5Q72 -376 57.5 -351Q43 -326 43 -296V-88Q43 -58 57.5 -33Q72 -8 97 6.5Q122 21 152 21H249V-405ZM109 -277Q109 -261 121 -249Q133 -237 149.5 -237Q166 -237 177.5 -249Q189 -261 189 -277.5Q189 -294 177.5 -305.5Q166 -317 149.5 -317Q133 -317 121 -305.5Q109 -294 109 -277ZM376 -213Q393 -213 406 -200.5Q419 -188 419 -170.5Q419 -153 406 -140.5Q393 -128 375.5 -128Q358 -128 345 -140.5Q332 -153 332 -170.5Q332 -188 345 -200.5Q358 -213 376 -213ZM360 21Q390 21 415 6.5Q440 -8 454.5 -33Q469 -58 469 -88V-296Q469 -326 454.5 -351Q440 -376 415 -390.5Q390 -405 360 -405H291V21Z"/>
</svg>