<svg xmlns="http://www.w3.org/2000/svg" viewBox="0 -512 512 512">
	<path fill="#000000" d="M405 49L393 38L383 29Q349 -3 337 -17Q320 -40 320 -59.5Q320 -79 334 -93Q348 -107 367 -107Q378 -107 388.5 -102.5Q399 -98 405 -90Q412 -98 422 -102.5Q432 -107 444 -107Q463 -107 477 -93.5Q491 -80 491 -60Q491 -40 473 -17Q462 -3 428 29L418 38ZM64 -299V-341H107V-363Q107 -380 119.5 -392.5Q132 -405 149 -405H277V-256L331 -288L384 -256V-405H405Q422 -405 435 -392Q448 -379 448 -363V-163Q427 -171 405 -171Q371 -171 341.5 -153.5Q312 -136 294.5 -106.5Q277 -77 277 -42.5Q277 -8 294 21H149Q133 21 120 8Q107 -5 107 -21V-43H64V-85H107V-171H64V-213H107V-299ZM107 -341V-299H149V-341ZM107 -43H149V-85H107ZM107 -171H149V-213H107Z"/>
</svg>