<svg xmlns="http://www.w3.org/2000/svg" viewBox="0 -512 512 512">
	<path fill="#000000" d="M357 25L299 -39L323 -64L357 -30L434 -107L459 -77ZM64 -299V-341H107V-363Q107 -380 119.5 -392.5Q132 -405 149 -405H277V-256L331 -288L384 -256V-405H405Q422 -405 435 -392Q448 -379 448 -363V-154Q419 -171 384 -171Q349 -171 319.5 -153.5Q290 -136 273 -106.5Q256 -77 256 -42.5Q256 -8 273 21H149Q133 21 120 8Q107 -5 107 -21V-43H64V-85H107V-171H64V-213H107V-299ZM107 -341V-299H149V-341ZM107 -43H149V-85H107ZM107 -171H149V-213H107Z"/>
</svg>