<svg xmlns="http://www.w3.org/2000/svg" viewBox="0 -512 512 512">
	<path fill="#000000" d="M449 -168Q453 -168 457 -164L484 -137Q488 -134 488 -129Q488 -124 484 -121L463 -99L419 -143L441 -164Q444 -168 449 -168ZM407 -131L451 -87L321 43H277V-1ZM64 -299V-341H107V-363Q107 -380 119.5 -392.5Q132 -405 149 -405H277V-256L331 -288L384 -256V-405H405Q422 -405 435 -392Q448 -379 448 -363V-235L235 -21V21H149Q133 21 120 8Q107 -5 107 -21V-43H64V-85H107V-171H64V-213H107V-299ZM107 -299H149V-341H107ZM107 -213V-171H149V-213ZM107 -85V-43H149V-85Z"/>
</svg>