<svg xmlns="http://www.w3.org/2000/svg" viewBox="0 -512 512 512">
	<path fill="#000000" d="M320 -384H107Q89 -384 76.5 -371.5Q64 -359 64 -341V-217Q91 -243 126 -251.5Q161 -260 196.5 -251Q232 -242 258.5 -215.5Q285 -189 294 -153Q303 -117 294 -81.5Q285 -46 258 -19Q248 -9 233 0H405Q423 0 435.5 -12.5Q448 -25 448 -43V-256ZM299 -235V-352L416 -235ZM160 -213Q120 -213 92 -185Q64 -157 64 -117Q64 -89 79 -66L13 0L43 30L109 -36Q133 -21 160 -21Q200 -21 228 -49Q256 -77 256 -117Q256 -157 228 -185Q200 -213 160 -213ZM160 -64Q138 -64 122.5 -79.5Q107 -95 107 -117Q107 -139 122.5 -155Q138 -171 160 -171Q182 -171 197.5 -155Q213 -139 213 -117Q213 -95 197.5 -79.5Q182 -64 160 -64Z"/>
</svg>