<svg xmlns="http://www.w3.org/2000/svg" viewBox="0 -512 512 512">
	<path fill="#000000" d="M300 -192H213V-213H117Q86 -213 64.5 -235Q43 -257 43 -288Q43 -319 64.5 -341Q86 -363 117 -363Q150 -363 173 -338Q179 -367 202.5 -386Q226 -405 256 -405Q286 -405 309.5 -386Q333 -367 339 -338Q362 -363 395 -363Q426 -363 447.5 -341Q469 -319 469 -288Q469 -257 447.5 -235Q426 -213 395 -213H300ZM213 -87V-112H107V-154H405V-112H300V-87L427 -41Q436 -38 442 -29.5Q448 -21 448 -11Q448 3 438.5 12Q429 21 416 21H96Q83 21 73.5 12Q64 3 64 -11Q64 -21 70 -29.5Q76 -38 85 -41Z"/>
</svg>