<svg xmlns="http://www.w3.org/2000/svg" viewBox="0 -512 512 512">
	<path fill="#000000" d="M256 -405Q285 -405 312 -393.5Q339 -382 361 -361L397 -407L431 -381L388 -327Q427 -268 427 -192Q427 -134 404 -85Q381 -36 341.5 -7.5Q302 21 256 21Q227 21 200 9.5Q173 -2 151 -23L115 23L81 -3L124 -57Q85 -116 85 -192Q85 -250 108 -299Q131 -348 170.5 -376.5Q210 -405 256 -405ZM256 -363Q221 -363 191.5 -340Q162 -317 145 -277.5Q128 -238 128 -192Q128 -137 152 -93L334 -327Q300 -363 256 -363ZM256 -21Q291 -21 320.5 -44Q350 -67 367 -106.5Q384 -146 384 -192Q384 -247 360 -291L178 -57Q212 -21 256 -21Z"/>
</svg>