<svg xmlns="http://www.w3.org/2000/svg" viewBox="0 -512 512 512">
	<path fill="#000000" d="M299 -256H341V-128H299ZM469 -192Q469 -134 440.5 -85Q412 -36 363 -7.5Q314 21 256 21Q198 21 149 -7.5Q100 -36 71.5 -85Q43 -134 43 -192Q43 -250 71.5 -299Q100 -348 149 -376.5Q198 -405 256 -405Q314 -405 363 -376.5Q412 -348 440.5 -299Q469 -250 469 -192ZM213 -299H128V-256H171V-85H213ZM384 -256Q384 -274 371.5 -286.5Q359 -299 341 -299H299Q281 -299 268.5 -286.5Q256 -274 256 -256V-128Q256 -110 268.5 -97.5Q281 -85 299 -85H341Q359 -85 371.5 -97.5Q384 -110 384 -128Z"/>
</svg>