<svg xmlns="http://www.w3.org/2000/svg" viewBox="0 -512 512 512">
	<path fill="#000000" d="M471 11L51 -412L23 -384L109 -299H43V-256H85V-85H128V-279L198 -209Q186 -206 178.5 -195Q171 -184 171 -171V-85H299V-109L444 36ZM213 -128V-171H237L279 -128ZM299 -218L218 -299H256Q274 -299 286.5 -286.5Q299 -274 299 -256ZM427 -256H341V-299H427Q444 -299 456.5 -286.5Q469 -274 469 -256V-224Q469 -211 459.5 -201.5Q450 -192 437 -192Q450 -192 459.5 -182.5Q469 -173 469 -160V-128Q469 -112 458 -99.5Q447 -87 431 -85L388 -128H427V-171H384V-213H427Z"/>
</svg>