<svg xmlns="http://www.w3.org/2000/svg" viewBox="0 -512 512 512">
	<path fill="#000000" d="M320 -128V-160Q320 -173 310.5 -182.5Q301 -192 288 -192Q301 -192 310.5 -201.5Q320 -211 320 -224V-256Q320 -274 307.5 -286.5Q295 -299 277 -299H192V-256H277V-213H235V-171H277V-128H192V-85H277Q295 -85 307.5 -97.5Q320 -110 320 -128ZM405 -43H107V-341H405ZM405 -384H107Q89 -384 76.5 -371.5Q64 -359 64 -341V-43Q64 -25 76.5 -12.5Q89 0 107 0H405Q423 0 435.5 -12.5Q448 -25 448 -43V-341Q448 -359 435.5 -371.5Q423 -384 405 -384Z"/>
</svg>