<svg xmlns="http://www.w3.org/2000/svg" viewBox="0 -512 512 512">
	<path fill="#000000" d="M85 -85V-256H43V-299H128V-85ZM469 -128Q469 -110 456.5 -97.5Q444 -85 427 -85H341V-128H427V-171H384V-213H427V-256H341V-299H427Q444 -299 456.5 -286.5Q469 -274 469 -256V-224Q469 -211 460 -201.5Q451 -192 437 -192Q451 -192 460 -182.5Q469 -173 469 -160ZM299 -128V-85H171V-171Q171 -188 183.5 -200.5Q196 -213 213 -213H256V-256H171V-299H256Q274 -299 286.5 -286.5Q299 -274 299 -256V-213Q299 -196 286.5 -183.5Q274 -171 256 -171H213V-128Z"/>
</svg>