<svg xmlns="http://www.w3.org/2000/svg" viewBox="0 -512 512 512">
	<path fill="#000000" d="M235 -256V-277H256V-256ZM448 -427Q466 -427 478.5 -414.5Q491 -402 491 -384V-85Q491 -68 478.5 -55.5Q466 -43 448 -43H149Q132 -43 119.5 -55.5Q107 -68 107 -85V-384Q107 -402 119.5 -414.5Q132 -427 149 -427ZM64 -341V0H405V43H64Q46 43 33.5 30.5Q21 18 21 0V-341ZM320 -256V-213H363V-171H405V-213H448V-256H405V-299H363V-256ZM299 -192V-277Q299 -295 286.5 -307.5Q274 -320 256 -320H235Q217 -320 204.5 -307.5Q192 -295 192 -277V-256Q192 -238 204.5 -225.5Q217 -213 235 -213H256V-192H192V-149H256Q274 -149 286.5 -161.5Q299 -174 299 -192Z"/>
</svg>