<svg xmlns="http://www.w3.org/2000/svg" viewBox="0 -512 512 512">
	<path fill="#000000" d="M277 -213H320V-171H277ZM277 -299H320V-256H277ZM277 -128H320Q338 -128 350.5 -140.5Q363 -153 363 -171V-203Q363 -216 353.5 -225.5Q344 -235 331 -235Q344 -235 353.5 -244Q363 -253 363 -267V-299Q363 -316 350.5 -328.5Q338 -341 320 -341H277Q260 -341 247.5 -328.5Q235 -316 235 -299V-267Q235 -253 244 -244Q253 -235 267 -235Q253 -235 244 -225.5Q235 -216 235 -203V-171Q235 -153 247.5 -140.5Q260 -128 277 -128ZM448 -85H149V-384H448ZM448 -427H149Q132 -427 119.5 -414.5Q107 -402 107 -384V-85Q107 -68 119.5 -55.5Q132 -43 149 -43H448Q466 -43 478.5 -55.5Q491 -68 491 -85V-384Q491 -402 478.5 -414.5Q466 -427 448 -427ZM64 -341H21V0Q21 18 33.5 30.5Q46 43 64 43H405V0H64Z"/>
</svg>