<svg xmlns="http://www.w3.org/2000/svg" viewBox="0 -512 512 512">
	<path fill="#000000" d="M320 -256H277V-299H320ZM64 -341V0H405V43H64Q46 43 33.5 30.5Q21 18 21 0V-341ZM320 -341H277Q260 -341 247.5 -328.5Q235 -316 235 -299V-256Q235 -238 247.5 -225.5Q260 -213 277 -213H320V-171H235V-128H320Q338 -128 350.5 -140.5Q363 -153 363 -171V-299Q363 -316 350.5 -328.5Q338 -341 320 -341ZM448 -427Q466 -427 478.5 -414.5Q491 -402 491 -384V-85Q491 -68 478.5 -55.5Q466 -43 448 -43H149Q132 -43 119.5 -55.5Q107 -68 107 -85V-384Q107 -402 119.5 -414.5Q132 -427 149 -427Z"/>
</svg>