<svg xmlns="http://www.w3.org/2000/svg" viewBox="0 -512 512 512">
	<path fill="#000000" d="M405 -213H363V-256H320V-213H277V-171H320V-128H363V-171H405V-43H107V-341H405ZM405 -384H107Q89 -384 76.5 -371.5Q64 -359 64 -341V-43Q64 -25 76.5 -12.5Q89 0 107 0H405Q423 0 435.5 -12.5Q448 -25 448 -43V-341Q448 -359 435.5 -371.5Q423 -384 405 -384ZM192 -213V-235H213V-213ZM256 -149V-235Q256 -252 243.5 -264.5Q231 -277 213 -277H192Q174 -277 161.5 -264.5Q149 -252 149 -235V-213Q149 -196 161.5 -183.5Q174 -171 192 -171H213V-149H149V-107H213Q231 -107 243.5 -119.5Q256 -132 256 -149Z"/>
</svg>