<svg xmlns="http://www.w3.org/2000/svg" viewBox="0 -512 512 512">
	<path fill="#000000" d="M277 -213H235V-256H277ZM277 -299H235Q217 -299 204.5 -286.5Q192 -274 192 -256V-213Q192 -196 204.5 -183.5Q217 -171 235 -171H277V-128H192V-85H277Q295 -85 307.5 -97.5Q320 -110 320 -128V-256Q320 -274 307.5 -286.5Q295 -299 277 -299ZM405 -43H107V-341H405ZM405 -384H107Q89 -384 76.5 -371.5Q64 -359 64 -341V-43Q64 -25 76.5 -12.5Q89 0 107 0H405Q423 0 435.5 -12.5Q448 -25 448 -43V-341Q448 -359 435.5 -371.5Q423 -384 405 -384Z"/>
</svg>