<svg xmlns="http://www.w3.org/2000/svg" viewBox="0 -512 512 512">
	<path fill="#000000" d="M448 -85V-384H149V-85ZM448 -427Q466 -427 478.5 -414.5Q491 -402 491 -384V-85Q491 -68 478.5 -55.5Q466 -43 448 -43H149Q132 -43 119.5 -55.5Q107 -68 107 -85V-384Q107 -402 119.5 -414.5Q132 -427 149 -427ZM64 -341V0H405V43H64Q46 43 33.5 30.5Q21 18 21 0V-341ZM277 -341H320Q338 -341 350.5 -328.5Q363 -316 363 -299V-171Q363 -153 350.5 -140.5Q338 -128 320 -128H277Q260 -128 247.5 -140.5Q235 -153 235 -171V-299Q235 -316 247.5 -328.5Q260 -341 277 -341ZM277 -299V-171H320V-299Z"/>
</svg>