<svg xmlns="http://www.w3.org/2000/svg" viewBox="0 -512 512 512">
	<path fill="#000000" d="M405 -213H363V-256H320V-213H277V-171H320V-128H363V-171H405ZM213 -299H171Q153 -299 140.5 -286.5Q128 -274 128 -256V-213Q128 -196 140.5 -183.5Q153 -171 171 -171H213V-128H128V-85H213Q231 -85 243.5 -97.5Q256 -110 256 -128V-256Q256 -274 243.5 -286.5Q231 -299 213 -299ZM171 -256H213V-213H171ZM256 -405Q298 -405 337.5 -389Q377 -373 407 -343Q437 -313 453 -273.5Q469 -234 469 -192Q469 -150 453 -110.5Q437 -71 407 -41Q377 -11 337.5 5Q298 21 256 21Q214 21 174.5 5Q135 -11 105 -41Q75 -71 59 -110.5Q43 -150 43 -192Q43 -234 59 -273.5Q75 -313 105 -343Q135 -373 174.5 -389Q214 -405 256 -405Z"/>
</svg>