<svg xmlns="http://www.w3.org/2000/svg" viewBox="0 -512 512 512">
	<path fill="#000000" d="M363 -171H277V-213H320Q338 -213 350.5 -225.5Q363 -238 363 -256V-299Q363 -316 350.5 -328.5Q338 -341 320 -341H235V-299H320V-256H277Q260 -256 247.5 -243.5Q235 -231 235 -213V-128H363ZM448 -85H149V-384H448ZM448 -427H149Q132 -427 119.5 -414.5Q107 -402 107 -384V-85Q107 -68 119.5 -55.5Q132 -43 149 -43H448Q466 -43 478.5 -55.5Q491 -68 491 -85V-384Q491 -402 478.5 -414.5Q466 -427 448 -427ZM64 -341H21V0Q21 18 33.5 30.5Q46 43 64 43H405V0H64Z"/>
</svg>