<svg xmlns="http://www.w3.org/2000/svg" viewBox="0 -512 512 512">
	<path fill="#000000" d="M448 -341V-43Q448 -25 435.5 -12.5Q423 0 405 0H107Q89 0 76.5 -12.5Q64 -25 64 -43V-341Q64 -359 76.5 -371.5Q89 -384 107 -384H405Q423 -384 435.5 -371.5Q448 -359 448 -341ZM405 -213H363V-256H320V-213H277V-171H320V-128H363V-171H405ZM213 -299H171Q153 -299 140.5 -286.5Q128 -274 128 -256V-213Q128 -196 140.5 -183.5Q153 -171 171 -171H213V-128H128V-85H213Q231 -85 243.5 -97.5Q256 -110 256 -128V-256Q256 -274 243.5 -286.5Q231 -299 213 -299ZM171 -256H213V-213H171Z"/>
</svg>