<svg xmlns="http://www.w3.org/2000/svg" viewBox="0 -512 512 512">
	<path fill="#000000" d="M448 -96Q448 -83 437 -77L268 17Q263 21 256 21Q249 21 244 17L75 -77Q64 -83 64 -96V-288Q64 -301 75 -307L244 -401Q249 -405 256 -405Q263 -405 268 -401L437 -307Q448 -301 448 -288ZM256 -299Q227 -299 202.5 -284.5Q178 -270 163.5 -245.5Q149 -221 149 -192Q149 -163 163.5 -138.5Q178 -114 202.5 -99.5Q227 -85 256 -85Q285 -85 309.5 -99.5Q334 -114 348.5 -138.5Q363 -163 363 -192Q363 -221 348.5 -245.5Q334 -270 309.5 -284.5Q285 -299 256 -299Z"/>
</svg>