<svg xmlns="http://www.w3.org/2000/svg" viewBox="0 -512 512 512">
	<path fill="#000000" d="M427 -192Q347 -232 230 -250L207 -322Q203 -333 192 -337.5Q181 -342 170.5 -337.5Q160 -333 156 -322L134 -256Q96 -250 69.5 -219.5Q43 -189 43 -149Q43 -120 57 -95.5Q71 -71 95.5 -57Q120 -43 149 -43L175 -44Q207 -46 240 -51Q287 -58 329 -70Q383 -85 427 -107L438 -113Q450 -121 458 -129Q469 -140 469 -149.5Q469 -159 458 -170Q450 -178 438 -186ZM107 -149Q97 -149 91 -155Q85 -161 85 -170.5Q85 -180 91 -186Q97 -192 106.5 -192Q116 -192 122 -186Q128 -180 128 -171Q128 -162 122 -155.5Q116 -149 107 -149ZM149 -85Q140 -85 134 -91Q128 -97 128 -106.5Q128 -116 134 -122Q140 -128 149.5 -128Q159 -128 165 -122Q171 -116 171 -107Q171 -98 165 -91.5Q159 -85 149 -85ZM192 -149Q182 -149 176.5 -155Q171 -161 171 -170.5Q171 -180 176.5 -186Q182 -192 192 -192Q202 -192 207.5 -186Q213 -180 213 -171Q213 -162 207 -155.5Q201 -149 192 -149ZM235 -85Q225 -85 219 -91Q213 -97 213 -106.5Q213 -116 219 -122Q225 -128 234.5 -128Q244 -128 250 -122Q256 -116 256 -107Q256 -98 250 -91.5Q244 -85 235 -85ZM341 -149Q332 -149 326 -155Q320 -161 320 -170.5Q320 -180 326 -186Q332 -192 341.5 -192Q351 -192 357 -186Q363 -180 363 -171Q363 -162 357 -155.5Q351 -149 341 -149ZM405 -128Q396 -128 390 -134Q384 -140 384 -149.5Q384 -159 390 -165Q396 -171 405.5 -171Q415 -171 421 -165Q427 -159 427 -150Q427 -141 421 -134.5Q415 -128 405 -128Z"/>
</svg>