<svg xmlns="http://www.w3.org/2000/svg" viewBox="0 -512 512 512">
	<path fill="#000000" d="M43 -341V-43H299V-85H256Q238 -85 225.5 -97.5Q213 -110 213 -128V-256Q213 -274 225.5 -286.5Q238 -299 256 -299H299V-341ZM299 -299V-256H341V-299ZM299 -256H256V-128H299ZM299 -128V-85H341V-128ZM107 -299H149Q167 -299 179.5 -286.5Q192 -274 192 -256V-128Q192 -110 179.5 -97.5Q167 -85 149 -85H107Q89 -85 76.5 -97.5Q64 -110 64 -128V-256Q64 -274 76.5 -286.5Q89 -299 107 -299ZM363 -299V-85H405V-171H427V-149H448V-85H491V-149H469V-192H491V-277H469V-299ZM107 -256V-128H149V-256ZM405 -256H448V-213H405Z"/>
</svg>