<svg xmlns="http://www.w3.org/2000/svg" viewBox="0 -512 512 512">
	<path fill="#000000" d="M83 -192L47 -105L134 -70L169 17L235 -10V-56L192 -39L166 -102L103 -128L129 -192L103 -256L166 -282L192 -345L256 -319L320 -345L346 -282L409 -256L383 -192L384 -189L413 -219Q427 -233 447 -235L465 -279L378 -314L343 -401L256 -365L169 -401L134 -314L47 -279ZM487 -161L459 -189Q456 -192 451.5 -192Q447 -192 444 -189L423 -168L467 -124L487 -145Q491 -148 491 -152.5Q491 -157 487 -161ZM277 -22V21H321L452 -109L408 -153Z"/>
</svg>