<svg xmlns="http://www.w3.org/2000/svg" viewBox="0 -512 512 512">
	<path fill="#000000" d="M235 -333V-282L296 -220L381 -192L338 -178L401 -115L463 -177Q469 -183 469 -192Q469 -201 463 -207L271 -399Q264 -405 256 -405Q248 -405 241 -399L179 -337L209 -307ZM277 -333L369 -241L277 -271ZM51 -411L24 -384L125 -283L49 -207Q43 -201 43 -192Q43 -183 49 -177L241 15Q248 21 256 21Q264 21 271 15L347 -61L445 37L472 10ZM155 -253L161 -247L143 -241ZM235 -51L143 -143L235 -113ZM256 -150L131 -192L195 -213L257 -151ZM277 -51V-113L291 -117L317 -91Z"/>
</svg>