<svg xmlns="http://www.w3.org/2000/svg" viewBox="0 -512 512 512">
	<path fill="#000000" d="M341 -171Q337 -171 336 -166L332 -138Q322 -134 314 -128L287 -139Q282 -139 281 -136L259 -99Q257 -95 260 -92L283 -75Q282 -69 282 -64Q282 -59 283 -53L260 -36Q257 -33 259 -29L281 8Q282 11 287 11L314 0Q323 7 332 10L336 38Q337 43 341 43H384Q388 43 389 38L393 10Q401 6 411 0L437 11Q443 11 444 8L466 -29Q468 -33 464 -36L442 -53V-64Q442 -70 442 -75L464 -92Q468 -95 465 -99L444 -136Q443 -139 437 -139L411 -128Q400 -135 393 -138L389 -166Q389 -171 384 -171ZM363 -96Q376 -96 385.5 -86.5Q395 -77 395 -64Q395 -51 385.5 -41.5Q376 -32 362.5 -32Q349 -32 340 -41.5Q331 -51 331 -64Q331 -77 340 -86.5Q349 -96 363 -96ZM341 -212V-384H43V0H171V-75H214Q218 -127 253.5 -165.5Q289 -204 341 -212ZM128 -43H85V-85H128ZM128 -128H85V-171H128ZM128 -213H85V-256H128ZM128 -299H85V-341H128ZM256 -341H299V-299H256ZM256 -256H299V-213H256ZM213 -128H171V-171H213ZM213 -213H171V-256H213ZM171 -299V-341H213V-299Z"/>
</svg>