<svg xmlns="http://www.w3.org/2000/svg" viewBox="0 -512 512 512">
	<path fill="#000000" d="M256 -213H213V-256H256ZM299 -213H341V-256H299ZM286 0H256V-75H213V0H85V-384H384V-169Q390 -171 405 -171Q420 -171 427 -169V-427H43V43H309Q292 22 286 0ZM299 -299H341V-341H299ZM341 -154V-171H299V-128H309Q325 -144 341 -154ZM171 -341H128V-299H171ZM171 -256H128V-213H171ZM128 -43H171V-85H128ZM256 -341H213V-299H256ZM213 -128H256V-171H213ZM171 -171H128V-128H171ZM384 -128V-64H320V-21H384V43H427V-21H491V-64H427V-128Z"/>
</svg>