<svg xmlns="http://www.w3.org/2000/svg" viewBox="0 -512 512 512">
	<path fill="#000000" d="M320 -256H363V-213H320ZM363 -341H320V-299H363ZM235 -128H277V-171H235ZM277 -341H235V-299H277ZM235 -213H277V-256H235ZM192 -341H149V-299H192ZM192 -256H149V-213H192ZM310 0H277V-75H235V0H107V-384H405V-213Q427 -211 448 -200V-427H64V43H339V42Q320 16 310 0ZM149 -43H192V-85H149ZM192 -171H149V-128H192ZM469 -96Q469 -71 450 -35Q436 -10 414 19L395 43L375 19Q353 -10 339 -35Q320 -71 320 -96Q320 -126 342 -148.5Q364 -171 394.5 -171Q425 -171 447 -148.5Q469 -126 469 -96ZM420 -94Q420 -103 412 -111Q404 -119 394.5 -119Q385 -119 377 -112Q369 -105 369 -94.5Q369 -84 376.5 -76Q384 -68 395 -68Q406 -68 414 -76Q422 -84 420 -94Z"/>
</svg>