<svg xmlns="http://www.w3.org/2000/svg" viewBox="0 -512 512 512">
	<path fill="#000000" d="M363 -171Q358 -171 357 -166L353 -138Q343 -134 335 -128L308 -139Q303 -139 302 -136L281 -99Q278 -95 282 -92L304 -75Q304 -69 304 -64Q304 -59 304 -53L282 -36Q278 -33 281 -29L302 8Q303 11 308 11L335 0Q345 7 353 10L357 38Q358 43 363 43H405Q410 43 410 38L415 10Q423 6 432 0L459 11Q464 11 466 8L487 -29Q489 -33 486 -36L463 -53L464 -64Q464 -70 463 -75L486 -92Q489 -95 487 -99L465 -136Q464 -139 459 -139L432 -128Q422 -135 414 -138L410 -166Q410 -171 405 -171ZM384 -96Q397 -96 406.5 -86.5Q416 -77 416 -64Q416 -51 406.5 -41.5Q397 -32 384 -32Q371 -32 361.5 -41.5Q352 -51 352 -64Q352 -77 361.5 -86.5Q371 -96 384 -96ZM213 -341H256V-299H213ZM341 -299H299V-341H341ZM299 -256H341V-213H299ZM213 -256H256V-213H213ZM280 43H43V-427H427V-207Q405 -213 384 -213V-384H85V0H213V-75H235Q235 -71 235 -64Q235 -33 246.5 -5.5Q258 22 280 43ZM171 -128H128V-171H171ZM171 -213H128V-256H171ZM171 -299H128V-341H171ZM128 -85H171V-43H128ZM213 -171H256V-141L249 -128H213Z"/>
</svg>