<svg xmlns="http://www.w3.org/2000/svg" viewBox="0 -512 512 512">
	<path fill="#000000" d="M324 0Q277 -69 277 -117Q277 -146 291 -171.5Q305 -197 329 -213H320V-256H363V-230Q380 -235 395 -235Q402 -235 405 -234V-384H107V0H235V-75H277V0ZM320 -341H363V-299H320ZM192 -43H149V-85H192ZM192 -128H149V-171H192ZM192 -213H149V-256H192ZM192 -299H149V-341H192ZM235 -341H277V-299H235ZM235 -256H277V-213H235ZM235 -128V-171H277V-128ZM395 -192Q364 -192 342 -170Q320 -148 320 -117Q320 -83 357 -27Q376 1 395 21L414 -2Q436 -31 450 -57Q469 -93 469 -117Q469 -148 447 -170Q425 -192 395 -192ZM395 -89Q384 -89 376.5 -97Q369 -105 369 -115.5Q369 -126 377 -133.5Q385 -141 394.5 -141Q404 -141 412 -133Q420 -125 421 -115Q422 -105 414 -97Q406 -89 395 -89Z"/>
</svg>