<svg xmlns="http://www.w3.org/2000/svg" viewBox="0 -512 512 512">
	<path fill="#000000" d="M107 -21H341V21H107ZM235 -341H213Q196 -341 183.5 -328.5Q171 -316 171 -299H277Q277 -316 264.5 -328.5Q252 -341 235 -341ZM341 -277H469Q469 -260 456.5 -247.5Q444 -235 427 -235H405Q370 -235 345 -210Q320 -185 320 -149V-128Q320 -93 295 -68Q270 -43 235 -43H213Q178 -43 153 -68Q128 -93 128 -128H85Q68 -128 55.5 -140.5Q43 -153 43 -171V-235Q43 -252 55.5 -264.5Q68 -277 85 -277ZM128 -235H85V-171H128ZM405 -341Q423 -341 435.5 -328.5Q448 -316 448 -299H469Q470 -326 451 -345Q432 -364 405 -363Q388 -363 375.5 -375.5Q363 -388 363 -405H341Q340 -378 359 -359Q378 -340 405 -341Z"/>
</svg>