<svg xmlns="http://www.w3.org/2000/svg" viewBox="0 -512 512 512">
	<path fill="#000000" d="M171 -64Q140 -64 113 -36L110 -33Q103 -26 98.5 -23.5Q94 -21 85.5 -21Q77 -21 72.5 -23.5Q68 -26 61 -33L58 -36Q40 -55 21 -61V-13L28 -6Q55 21 85.5 21Q116 21 143 -6L146 -10Q153 -17 157.5 -19Q162 -21 170.5 -21Q179 -21 183.5 -19Q188 -17 195 -10L198 -6Q222 17 245 20Q249 21 256 21Q286 21 314 -6L317 -10Q324 -17 328.5 -19Q333 -21 341.5 -21Q350 -21 354.5 -19Q359 -17 366 -10L369 -6Q396 21 426.5 21Q457 21 484 -6L491 -13V-61Q472 -55 454 -36L451 -33Q444 -26 439.5 -23.5Q435 -21 426.5 -21Q418 -21 413.5 -23.5Q409 -26 402 -33L399 -36Q372 -64 341.5 -64Q311 -64 284 -36L280 -33Q273 -26 269 -23.5Q265 -21 256 -21Q250 -21 245 -23Q240 -25 230 -35L228 -36Q201 -64 171 -64ZM469 -224Q475 -217 480 -211Q493 -195 501 -181Q512 -162 512 -149Q512 -132 499.5 -119.5Q487 -107 469.5 -107Q452 -107 439.5 -119.5Q427 -132 427 -149.5Q427 -167 448 -197Q459 -212 469 -224ZM480 -296L410 -336L272 -256Q266 -266 256 -271.5Q246 -277 235 -277H192V-320H213Q222 -320 228.5 -326.5Q235 -333 235 -341.5Q235 -350 228.5 -356.5Q222 -363 213 -363H128Q119 -363 113 -356.5Q107 -350 107 -341.5Q107 -333 113 -326.5Q119 -320 128 -320H149V-277H107Q89 -277 76.5 -264.5Q64 -252 64 -235V-171Q64 -153 76.5 -140.5Q89 -128 107 -128H299Q310 -128 320 -134Q330 -140 336 -150L414 -285L459 -259Q467 -255 475 -257Q483 -259 487.5 -267Q492 -275 490 -283.5Q488 -292 480 -296ZM299 -171H107V-235H249L269 -204L343 -247ZM75 -300L38 -264Q32 -259 23.5 -259Q15 -259 9 -265Q3 -271 3 -279.5Q3 -288 8 -294L45 -331Q51 -337 59.5 -337Q68 -337 74.5 -330.5Q81 -324 81 -315.5Q81 -307 75 -300Z"/>
</svg>