<svg xmlns="http://www.w3.org/2000/svg" viewBox="0 -512 512 512">
	<path fill="#000000" d="M469 -181Q475 -175 480 -168Q493 -152 501 -139Q512 -119 512 -107Q512 -89 499.5 -76.5Q487 -64 469.5 -64Q452 -64 439.5 -76.5Q427 -89 427 -107Q427 -119 438 -139Q446 -152 458 -168ZM128 -320H213Q222 -320 228.5 -314Q235 -308 235 -299Q235 -290 228.5 -283.5Q222 -277 213 -277H192V-235H235Q246 -235 256 -229Q266 -223 272 -213L410 -294L480 -253Q488 -249 490 -240.5Q492 -232 487.5 -224Q483 -216 475 -214Q467 -212 459 -216L414 -242L336 -107Q330 -97 320 -91Q310 -85 299 -85H107Q89 -85 76.5 -97.5Q64 -110 64 -128V-192Q64 -210 76.5 -222.5Q89 -235 107 -235H149V-277H128Q119 -277 113 -283.5Q107 -290 107 -299Q107 -308 113 -314Q119 -320 128 -320ZM107 -192V-128H299L343 -204L269 -161L249 -192ZM8 -252L45 -288Q51 -294 59.5 -294Q68 -294 74.5 -288Q81 -282 81 -273Q81 -264 75 -258L38 -221Q32 -215 23 -215Q14 -215 8 -221.5Q2 -228 2 -236.5Q2 -245 8 -252Z"/>
</svg>