<svg xmlns="http://www.w3.org/2000/svg" viewBox="0 -512 512 512">
	<path fill="#000000" d="M320 -405L288 -373L320 -341L352 -373ZM235 -384Q227 -338 247 -308Q264 -281 298 -272.5Q332 -264 367.5 -276.5Q403 -289 427 -320L384 -352Q375 -339 358 -329Q338 -317 317 -316Q293 -315 273 -330Q250 -347 235 -384ZM192 -299Q165 -299 128 -283Q109 -275 96 -267L128 -213Q144 -229 170.5 -236Q197 -243 212.5 -235Q228 -227 227 -216.5Q226 -206 213 -197.5Q200 -189 182 -186.5Q164 -184 149 -192V-117Q179 -132 205 -128Q227 -123 236 -107Q245 -91 235 -75Q212 -41 181 -40Q154 -39 125 -63Q100 -84 82 -115Q64 -146 64 -171Q44 -111 64 -64Q81 -24 121 0Q156 21 192 21Q244 21 265 -13Q289 -53 267 -128H299Q287 -93 300 -60Q311 -28 338 -12Q365 4 393 -7Q425 -19 448 -64Q457 -81 459 -110Q461 -142 453 -171Q444 -204 424 -223Q400 -245 363 -245Q335 -245 316 -228Q305 -218 290 -192Q280 -175 275 -169Q266 -158 254 -155Q242 -152 224 -160Q259 -195 263 -229Q267 -259 246 -279Q225 -299 192 -299ZM405 -192Q423 -174 421 -148Q419 -126 403.5 -105.5Q388 -85 368 -76.5Q348 -68 335 -79Q320 -92 320 -128Q320 -150 333 -171Q346 -192 364 -199Q385 -207 405 -192Z"/>
</svg>