<svg xmlns="http://www.w3.org/2000/svg" viewBox="0 -512 512 512">
	<path fill="#000000" d="M213 -43Q204 -43 198 -48.5Q192 -54 192 -64V-85Q192 -94 198 -100.5Q204 -107 213 -107Q222 -107 228.5 -101Q235 -95 235 -85V-64Q235 -54 229 -48.5Q223 -43 213 -43ZM320 -64V-85Q320 -94 314 -100.5Q308 -107 299 -107Q290 -107 283.5 -101Q277 -95 277 -85V-64Q277 -56 283 -49.5Q289 -43 299 -43Q308 -43 314 -48.5Q320 -54 320 -64ZM469 -192Q469 -151 446 -115.5Q423 -80 384 -55V-21Q384 -4 371.5 8.5Q359 21 341 21H171Q153 21 140.5 8.5Q128 -4 128 -21V-55Q89 -80 66 -115.5Q43 -151 43 -192.5Q43 -234 59 -273.5Q75 -313 105 -343Q135 -373 174.5 -389Q214 -405 256 -405Q298 -405 337.5 -389Q377 -373 407 -343Q437 -313 453 -273.5Q469 -234 469 -192ZM149 -235Q149 -252 140.5 -267Q132 -282 117 -290Q85 -249 85 -192Q85 -177 87 -171Q113 -172 131 -190.5Q149 -209 149 -235ZM192 -256Q192 -229 210.5 -210.5Q229 -192 256 -192Q283 -192 301.5 -210.5Q320 -229 320 -256Q320 -283 301.5 -301.5Q283 -320 256 -320Q229 -320 210.5 -301.5Q192 -283 192 -256ZM341 -21V-117Q299 -128 256 -128Q213 -128 171 -117V-21ZM425 -171Q427 -177 427 -192Q427 -249 395 -290Q380 -282 371.5 -267Q363 -252 363 -235Q363 -209 381 -190.5Q399 -172 425 -171Z"/>
</svg>