<svg xmlns="http://www.w3.org/2000/svg" viewBox="0 -512 512 512">
	<path fill="#000000" d="M329 21Q327 21 325 21Q320 20 319 16L272 -108Q270 -112 272 -116Q274 -120 277 -121Q301 -130 311 -153Q321 -176 312 -199.5Q303 -223 280.5 -233Q258 -243 234.5 -234Q211 -225 201 -202Q191 -179 200.5 -155Q210 -131 235 -122Q239 -121 240.5 -117Q242 -113 241 -109L192 15Q191 19 187 20.5Q183 22 179 20Q125 0 89.5 -44.5Q54 -89 45 -145Q36 -201 57 -255Q78 -309 122 -344.5Q166 -380 222.5 -389Q279 -398 333 -378Q372 -362 403 -333Q434 -304 451 -265Q468 -226 469 -184Q470 -142 455 -102Q439 -59 407 -27Q375 5 332 21ZM256 -371Q204 -373 159 -348Q114 -323 87 -279.5Q60 -236 59 -184Q58 -125 90 -75Q122 -25 177 -2L218 -107Q189 -123 179 -154.5Q169 -186 185 -215.5Q201 -245 233 -254.5Q265 -264 294 -248Q323 -232 333 -200.5Q343 -169 327 -139Q315 -118 294 -107L335 -1Q369 -17 395.5 -45Q422 -73 436 -108Q455 -157 447.5 -207.5Q440 -258 408.5 -298Q377 -338 329 -358Q294 -372 256 -371Z"/>
</svg>