<svg xmlns="http://www.w3.org/2000/svg" viewBox="0 -512 512 512">
	<path fill="#000000" d="M193 -84Q177 -103 167.5 -130Q158 -157 157 -188V-196Q158 -227 167.5 -254Q177 -281 193 -300Q221 -333 258 -333Q286 -333 309 -314Q332 -295 345.5 -262.5Q359 -230 359 -192Q359 -154 345.5 -121.5Q332 -89 309 -70Q286 -51 258 -51Q238 -51 226 -56Q212 -62 193 -84ZM257 -384H256Q204 -384 160 -358Q116 -332 90 -288Q64 -244 64 -192.5Q64 -141 88.5 -98Q113 -55 155 -28.5Q197 -2 247 0H256Q292 0 325 -13Q358 -26 384 -49Q414 -76 431 -113Q448 -150 448 -192Q448 -234 431 -271Q414 -308 384 -335Q358 -358 325.5 -371Q293 -384 257 -384Z"/>
</svg>