<svg xmlns="http://www.w3.org/2000/svg" viewBox="0 -512 512 512">
	<path fill="#000000" d="M173 -411Q211 -427 256 -427Q320 -427 374 -395.5Q428 -364 459.5 -310Q491 -256 491 -192Q491 -128 459.5 -74Q428 -20 374 11.5Q320 43 256 43Q192 43 138 11.5Q84 -20 52.5 -74Q21 -128 21 -192Q21 -236 37 -276Q52 -260 74 -252Q64 -223 64 -192Q64 -140 90 -96Q116 -52 160 -26Q204 0 256 0Q308 0 352 -26Q396 -52 422 -96Q448 -140 448 -192Q448 -244 422 -288Q396 -332 352 -358Q308 -384 256 -384Q225 -384 196 -374Q188 -396 173 -411ZM105 -385Q123 -385 135.5 -373Q148 -361 148 -343Q148 -325 135.5 -312.5Q123 -300 105 -300Q87 -300 75 -312.5Q63 -325 63 -343Q63 -361 75 -373Q87 -385 105 -385ZM256 -299Q285 -299 309.5 -284.5Q334 -270 348.5 -245.5Q363 -221 363 -192Q363 -163 348.5 -138.5Q334 -114 309.5 -99.5Q285 -85 256 -85Q227 -85 202.5 -99.5Q178 -114 163.5 -138.5Q149 -163 149 -192Q149 -221 163.5 -245.5Q178 -270 202.5 -284.5Q227 -299 256 -299Z"/>
</svg>