<svg xmlns="http://www.w3.org/2000/svg" viewBox="0 -512 512 512">
	<path fill="#000000" d="M85 -384Q68 -384 55.5 -371.5Q43 -359 43 -341V-256Q43 -238 55.5 -225.5Q68 -213 85 -213H171Q188 -213 200.5 -225.5Q213 -238 213 -256V-341Q213 -359 200.5 -371.5Q188 -384 171 -384ZM175 -352L198 -330L112 -245L58 -300L81 -322L113 -290ZM85 -171Q68 -171 55.5 -158.5Q43 -146 43 -128V-43Q43 -25 55.5 -12.5Q68 0 85 0H171Q188 0 200.5 -12.5Q213 -25 213 -43V-128Q213 -146 200.5 -158.5Q188 -171 171 -171ZM85 -128H171V-43H85ZM256 -341H469V-299H256ZM256 -43V-85H469V-43ZM256 -213H469V-171H256Z"/>
</svg>