<svg xmlns="http://www.w3.org/2000/svg" viewBox="0 -512 512 512">
	<path fill="#000000" d="M128 -171Q93 -171 68 -146Q43 -121 43 -85.5Q43 -50 68 -25Q93 0 128 0Q163 0 188 -25Q213 -50 213 -85.5Q213 -121 188 -146Q163 -171 128 -171ZM128 -43Q110 -43 97.5 -55.5Q85 -68 85 -85.5Q85 -103 97.5 -115.5Q110 -128 128 -128Q146 -128 158.5 -115.5Q171 -103 171 -85.5Q171 -68 158.5 -55.5Q146 -43 128 -43ZM128 -384Q93 -384 68 -359Q43 -334 43 -298.5Q43 -263 68 -238Q93 -213 128 -213Q163 -213 188 -238Q213 -263 213 -298.5Q213 -334 188 -359Q163 -384 128 -384ZM256 -341H469V-299H256ZM256 -43V-85H469V-43ZM256 -213H469V-171H256Z"/>
</svg>