<svg xmlns="http://www.w3.org/2000/svg" viewBox="0 -512 512 512">
	<path fill="#000000" d="M149 -213H64V-256H149V-277H107Q89 -277 76.5 -289.5Q64 -302 64 -320V-341Q64 -359 76.5 -371.5Q89 -384 107 -384H149Q167 -384 179.5 -371.5Q192 -359 192 -341V-256Q192 -238 179.5 -225.5Q167 -213 149 -213ZM149 -341H107V-320H149ZM107 -171H149Q167 -171 179.5 -158.5Q192 -146 192 -128V-43Q192 -25 179.5 -12.5Q167 0 149 0H107Q89 0 76.5 -12.5Q64 -25 64 -43V-128Q64 -146 76.5 -158.5Q89 -171 107 -171ZM107 -43H149V-128H107ZM256 -341H469V-299H256ZM256 -43V-85H469V-43ZM256 -213H469V-171H256Z"/>
</svg>