<svg xmlns="http://www.w3.org/2000/svg" viewBox="0 -512 512 512">
	<path fill="#000000" d="M256 -403Q256 -400 254 -397Q239 -374 236 -356L235 -351L256 -352Q299 -352 336 -330.5Q373 -309 394.5 -272Q416 -235 416 -192Q416 -141 387 -99Q341 -22 263 21Q259 22 257 19Q255 16 258 13Q270 -4 275 -25L276 -33L256 -32Q213 -32 176 -53.5Q139 -75 117.5 -112Q96 -149 96 -192Q96 -244 125 -284Q171 -361 249 -405Q251 -406 253 -405.5Q255 -405 256 -403ZM256 -256Q229 -256 210.5 -237.5Q192 -219 192 -192Q192 -165 210.5 -146.5Q229 -128 256 -128Q283 -128 301.5 -146.5Q320 -165 320 -192Q320 -219 301.5 -237.5Q283 -256 256 -256Z"/>
</svg>