<svg xmlns="http://www.w3.org/2000/svg" viewBox="0 -512 512 512">
	<path fill="#000000" d="M256 -427Q283 -427 301.5 -408Q320 -389 320 -363V-341Q329 -341 335 -335Q341 -329 341 -320V-297Q380 -275 403.5 -235.5Q427 -196 427 -149.5Q427 -103 404 -64Q381 -25 341.5 -2Q302 21 256 21Q210 21 170.5 -2Q131 -25 108 -64Q85 -103 85 -149.5Q85 -196 108.5 -235.5Q132 -275 171 -297V-320Q171 -329 177 -335Q183 -341 192 -341V-363Q192 -389 210.5 -408Q229 -427 256 -427ZM256 -384Q247 -384 241 -378Q235 -372 235 -363V-341H277V-363Q277 -372 271 -378Q265 -384 256 -384ZM256 -277Q228 -277 203.5 -266Q179 -255 161 -235H351Q333 -255 308.5 -266Q284 -277 256 -277ZM135 -107H162L128 -140Q129 -124 135 -107ZM269 -107L183 -192H137L222 -107ZM377 -192H350L384 -159Q383 -175 377 -192ZM243 -192L329 -107H375L290 -192ZM256 -21Q284 -21 308.5 -32.5Q333 -44 351 -64H161Q179 -44 203.5 -32.5Q228 -21 256 -21Z"/>
</svg>