<svg xmlns="http://www.w3.org/2000/svg" viewBox="0 -512 512 512">
	<path fill="#000000" d="M277 -115Q282 -112 288 -112Q294 -112 299 -115L405 -177V-171Q431 -171 448 -162V-201L469 -213Q477 -218 479 -226.5Q481 -235 478 -243L446 -297Q442 -305 437 -307L269 -401Q260 -405 256 -405Q252 -405 243 -401L77 -307Q68 -303 66 -299L34 -243Q29 -235 32 -226.5Q35 -218 43 -213Q47 -210 53 -210Q59 -210 64 -213V-96Q64 -84 75 -77L243 17Q252 21 256 21Q260 21 269 17L288 6Q282 -6 277 -36ZM235 -36L107 -109V-252L235 -179ZM429 -241L294 -164L282 -186L416 -262ZM256 -218V-358L384 -288ZM491 -21H320V-64H491Z"/>
</svg>