<svg xmlns="http://www.w3.org/2000/svg" viewBox="0 -512 512 512">
	<path fill="#000000" d="M43 -214Q35 -219 32.5 -227.5Q30 -236 35 -243L67 -299Q70 -305 77 -308L244 -401Q249 -405 256 -405Q263 -405 268 -401L437 -307Q443 -303 446 -297L477 -243Q481 -236 479 -227.5Q477 -219 469 -214L448 -202V-96Q448 -83 437 -77L268 17Q263 21 256 21Q249 21 244 17L75 -77Q64 -83 64 -96V-214Q53 -208 43 -214ZM256 -359V-217L383 -288ZM107 -109L235 -36V-180L107 -252ZM405 -109V-177L299 -115Q288 -110 277 -115V-36ZM295 -163L429 -240L417 -262L283 -185Z"/>
</svg>