<svg xmlns="http://www.w3.org/2000/svg" viewBox="0 -512 512 512">
	<path fill="#000000" d="M445 37L370 -38L363 0H149L124 -129L222 -186L199 -209L91 -147Q83 -143 74.5 -145Q66 -147 61.5 -154.5Q57 -162 59.5 -170.5Q62 -179 70 -184L167 -240L144 -264L102 -239L85 -320H64V-344L24 -384L51 -411L472 10ZM228 -312Q241 -320 256 -320Q278 -320 293.5 -304.5Q309 -289 309 -267Q309 -242 290 -226L388 -128L427 -320H448V-363H154L213 -303ZM245 -285L236 -280L267 -249Q274 -253 276.5 -261.5Q279 -270 274.5 -277.5Q270 -285 261.5 -287.5Q253 -290 245 -285Z"/>
</svg>