<svg xmlns="http://www.w3.org/2000/svg" viewBox="0 -512 512 512">
	<path fill="#000000" d="M267 -248L91 -147Q83 -143 74.5 -145Q66 -147 61.5 -154.5Q57 -162 59.5 -170.5Q62 -179 70 -184L245 -285Q253 -290 261.5 -287.5Q270 -285 274.5 -277.5Q279 -270 276.5 -261.5Q274 -253 267 -248ZM277 -43Q277 -76 293 -104.5Q309 -133 336.5 -150.5Q364 -168 397 -171L427 -320H448V-363H64V-320H85L102 -239L228 -312Q241 -320 256 -320Q278 -320 293.5 -304.5Q309 -289 309 -267Q309 -252 302 -239.5Q295 -227 282 -220L124 -129L149 0H285Q277 -21 277 -43ZM384 -128V-64H320V-21H384V43H427V-21H491V-64H427V-128Z"/>
</svg>