<svg xmlns="http://www.w3.org/2000/svg" viewBox="0 -512 512 512">
	<path fill="#000000" d="M53 -30L81 -17V-209L30 -85Q24 -68 30.5 -52Q37 -36 53 -30ZM324 -346L431 -90L275 -26L169 -279V-282ZM326 -388Q316 -388 309 -386L151 -320Q140 -315 133 -304.5Q126 -294 126 -282.5Q126 -271 128 -265L235 -11Q239 2 249.5 8.5Q260 15 273 15Q284 15 290 13L448 -53Q464 -60 471 -76.5Q478 -93 471 -109L365 -363Q360 -375 349 -381.5Q338 -388 326 -388ZM224 -237Q214 -237 208.5 -243Q203 -249 203 -258.5Q203 -268 208.5 -273.5Q214 -279 223.5 -279Q233 -279 239 -273Q245 -267 245 -258.5Q245 -250 239 -243.5Q233 -237 224 -237ZM126 -26Q126 -8 138.5 4.5Q151 17 169 17H198L126 -160Z"/>
</svg>