<svg xmlns="http://www.w3.org/2000/svg" viewBox="0 -512 512 512">
	<path fill="#000000" d="M427 -149H128Q93 -149 68 -124Q43 -99 43 -64Q43 -29 68 -4Q93 21 128 21H427Q444 21 456.5 8.5Q469 -4 469 -21V-107Q469 -124 456.5 -136.5Q444 -149 427 -149ZM128 -21Q110 -21 97.5 -33.5Q85 -46 85 -64Q85 -82 97.5 -94.5Q110 -107 128 -107Q146 -107 158.5 -94.5Q171 -82 171 -64Q171 -46 158.5 -33.5Q146 -21 128 -21ZM134 -192L277 -335Q290 -348 307 -348Q324 -348 337 -335L397 -275Q410 -262 410 -245Q410 -228 397 -215L378 -192ZM43 -160V-363Q43 -380 55.5 -392.5Q68 -405 85 -405H171Q188 -405 200.5 -392.5Q213 -380 213 -363V-331Z"/>
</svg>