<svg xmlns="http://www.w3.org/2000/svg" viewBox="0 -512 512 512">
	<path fill="#000000" d="M373 -192Q360 -192 350.5 -201.5Q341 -211 341 -224Q341 -237 350.5 -246.5Q360 -256 373.5 -256Q387 -256 396 -246.5Q405 -237 405 -224Q405 -211 396 -201.5Q387 -192 373 -192ZM309 -277Q296 -277 286.5 -286.5Q277 -296 277 -309.5Q277 -323 286.5 -332Q296 -341 309.5 -341Q323 -341 332 -332Q341 -323 341 -309.5Q341 -296 332 -286.5Q323 -277 309 -277ZM203 -277Q189 -277 180 -286.5Q171 -296 171 -309.5Q171 -323 180 -332Q189 -341 202.5 -341Q216 -341 225.5 -332Q235 -323 235 -309.5Q235 -296 225.5 -286.5Q216 -277 203 -277ZM139 -192Q125 -192 116 -201.5Q107 -211 107 -224Q107 -237 116 -246.5Q125 -256 138.5 -256Q152 -256 161.5 -246.5Q171 -237 171 -224Q171 -211 161.5 -201.5Q152 -192 139 -192ZM256 -384Q204 -384 160 -358Q116 -332 90 -288Q64 -244 64 -192Q64 -140 90 -96Q116 -52 160 -26Q204 0 256 0Q269 0 278.5 -9.5Q288 -19 288 -31.5Q288 -44 280 -53.5Q272 -63 272 -75.5Q272 -88 281 -97.5Q290 -107 304 -107H341Q370 -107 394.5 -121Q419 -135 433.5 -159.5Q448 -184 448 -213Q448 -260 422 -299Q396 -338 352 -361Q308 -384 256 -384Z"/>
</svg>