<svg xmlns="http://www.w3.org/2000/svg" viewBox="0 -512 512 512">
	<path fill="#000000" d="M54 -29L83 -17V-209L31 -84Q24 -68 31 -51.5Q38 -35 54 -29ZM470 -108L364 -363Q359 -375 348.5 -382Q338 -389 326 -389Q316 -389 309 -386L151 -321Q140 -316 133 -305.5Q126 -295 125 -283Q125 -275 128 -266L235 -11Q239 2 250 9Q261 16 273 16Q282 16 290 13L447 -52Q463 -59 470 -75.5Q477 -92 470 -108ZM168 -261Q159 -261 153 -267.5Q147 -274 147 -283Q147 -292 153 -298Q159 -304 168 -304Q177 -304 183 -297.5Q189 -291 189 -282.5Q189 -274 183 -267.5Q177 -261 168 -261ZM125 -27Q125 -9 137.5 3.5Q150 16 168 16H199L125 -162Z"/>
</svg>