<svg xmlns="http://www.w3.org/2000/svg" viewBox="0 -512 512 512">
	<path fill="#000000" d="M256 21Q214 21 174.5 5Q135 -11 105 -41Q75 -71 59 -110.5Q43 -150 43 -192Q43 -234 59 -273.5Q75 -313 105 -343Q135 -373 174.5 -389Q214 -405 256 -405Q314 -405 363 -379.5Q412 -354 440.5 -310Q469 -266 469 -213Q469 -179 452 -149.5Q435 -120 405.5 -102.5Q376 -85 341 -85H303Q298 -85 295 -82Q292 -79 292 -75Q292 -74 293 -71.5Q294 -69 294 -68Q307 -52 307 -32Q309 -10 294 5.5Q279 21 256 21ZM256 -363Q210 -363 170.5 -340Q131 -317 108 -277.5Q85 -238 85 -192Q85 -146 108 -106.5Q131 -67 170.5 -44Q210 -21 256 -21Q261 -21 264 -24Q267 -27 267 -32Q267 -34 265 -38V-41Q252 -57 252 -75Q252 -97 267.5 -112.5Q283 -128 305 -128H341Q377 -128 402 -153Q427 -178 427 -213Q427 -254 404 -288.5Q381 -323 341.5 -343Q302 -363 256 -363ZM139 -235Q151 -235 161 -225Q171 -215 171 -202.5Q171 -190 161 -180.5Q151 -171 138.5 -171Q126 -171 116.5 -180.5Q107 -190 107 -202.5Q107 -215 116.5 -225Q126 -235 139 -235ZM203 -320Q215 -320 225 -310.5Q235 -301 235 -288Q235 -275 225 -265.5Q215 -256 202.5 -256Q190 -256 180.5 -265.5Q171 -275 171 -288Q171 -301 180.5 -310.5Q190 -320 203 -320ZM309 -320Q322 -320 331.5 -310.5Q341 -301 341 -288Q341 -275 331.5 -265.5Q322 -256 309.5 -256Q297 -256 287 -265.5Q277 -275 277 -288Q277 -301 287 -310.5Q297 -320 309 -320ZM373 -235Q386 -235 395.5 -225Q405 -215 405 -202.5Q405 -190 395.5 -180.5Q386 -171 373.5 -171Q361 -171 351 -180.5Q341 -190 341 -202.5Q341 -215 351 -225Q361 -235 373 -235Z"/>
</svg>