<svg xmlns="http://www.w3.org/2000/svg" viewBox="0 -512 512 512">
	<path fill="#000000" d="M256 -384Q310 -384 357 -355Q368 -369 383 -376.5Q398 -384 416 -384Q447 -384 469 -362Q491 -340 491 -309Q491 -286 477.5 -266.5Q464 -247 442 -239Q448 -215 448 -192Q448 -140 422 -96Q396 -52 352 -26Q308 0 256 0Q204 0 160 -26Q116 -52 90 -96Q64 -140 64 -192Q64 -215 70 -239Q48 -247 34.5 -266.5Q21 -286 21 -309Q21 -340 43 -362Q65 -384 96 -384Q114 -384 129 -376.5Q144 -369 155 -355Q202 -384 256 -384ZM256 -341Q215 -341 181 -321Q147 -301 127 -267Q107 -233 107 -192Q107 -151 127 -117Q147 -83 181 -63Q215 -43 256 -43Q297 -43 331 -63Q365 -83 385 -117Q405 -151 405 -192Q405 -233 385 -267Q365 -301 331 -321Q297 -341 256 -341ZM345 -228Q351 -207 344.5 -189Q338 -171 323 -167Q308 -163 293.5 -175.5Q279 -188 273.5 -209Q268 -230 274.5 -248Q281 -266 296 -270Q311 -274 325.5 -262Q340 -250 345 -228ZM167 -228Q172 -250 186.5 -262Q201 -274 216 -270Q231 -266 237.5 -248Q244 -230 238.5 -209Q233 -188 218.5 -175.5Q204 -163 189 -167Q174 -171 167.5 -189Q161 -207 167 -228ZM256 -149Q275 -149 288 -139L267 -117Q267 -111 271.5 -106Q276 -101 282.5 -101Q289 -101 294 -106Q299 -111 299 -117Q299 -122 302 -125Q305 -128 309.5 -128Q314 -128 317 -125Q320 -122 320 -117Q320 -102 309 -91Q298 -80 282.5 -80Q267 -80 256 -91Q245 -80 229.5 -80Q214 -80 203 -91Q192 -102 192 -117Q192 -122 195 -125Q198 -128 202.5 -128Q207 -128 210 -125Q213 -122 213 -117Q213 -111 218 -106Q223 -101 229.5 -101Q236 -101 240.5 -106Q245 -111 245 -117L224 -139Q237 -149 256 -149Z"/>
</svg>