<svg xmlns="http://www.w3.org/2000/svg" viewBox="0 -512 512 512">
	<path fill="#000000" d="M469 -275Q466 -276 459 -279L448 -284Q422 -339 370.5 -372Q319 -405 256 -405Q193 -405 141.5 -372Q90 -339 64 -284Q58 -282 46 -275.5Q34 -269 27.5 -258.5Q21 -248 21 -237V-147Q21 -136 27 -125.5Q33 -115 43 -109L64 -100Q90 -45 141.5 -12Q193 21 256 21Q319 21 370.5 -12Q422 -45 448 -100Q454 -102 467 -111Q491 -127 491 -149V-237Q491 -248 485 -258.5Q479 -269 469 -275ZM448 -237V-147Q413 -128 362.5 -117.5Q312 -107 256 -107Q200 -107 149.5 -117.5Q99 -128 64 -147V-237Q99 -256 149.5 -266.5Q200 -277 256 -277Q312 -277 362.5 -266.5Q413 -256 448 -237ZM256 -363Q294 -363 327 -348Q360 -333 384 -305Q330 -320 255.5 -320Q181 -320 130 -305Q153 -333 185.5 -348Q218 -363 256 -363ZM256 -21Q218 -21 185.5 -36Q153 -51 130 -79Q181 -64 255.5 -64Q330 -64 384 -79Q360 -51 327 -36Q294 -21 256 -21Z"/>
</svg>