<svg xmlns="http://www.w3.org/2000/svg" viewBox="0 -512 512 512">
	<path fill="#000000" d="M244 -379L256 -363L268 -379Q277 -391 290.5 -398Q304 -405 320 -405Q347 -405 365.5 -386.5Q384 -368 384 -341Q384 -330 380 -320H427Q444 -320 456.5 -307.5Q469 -295 469 -277V-21Q469 -4 456.5 8.5Q444 21 427 21H85Q68 21 55.5 8.5Q43 -4 43 -21V-277Q43 -295 55.5 -307.5Q68 -320 85 -320H132Q128 -330 128 -341Q128 -368 146.5 -386.5Q165 -405 192 -405Q208 -405 221.5 -398Q235 -391 244 -379ZM85 -277V-21H235Q235 -30 241 -36.5Q247 -43 256 -43Q265 -43 271 -36.5Q277 -30 277 -21H427V-277H318L363 -215L329 -190L265 -277H247L183 -190L149 -215L194 -277ZM192 -363Q183 -363 177 -356.5Q171 -350 171 -341Q171 -332 177 -326Q183 -320 192 -320Q201 -320 207 -326Q213 -332 213 -341Q213 -350 207 -356.5Q201 -363 192 -363ZM320 -363Q311 -363 305 -356.5Q299 -350 299 -341Q299 -332 305 -326Q311 -320 320 -320Q329 -320 335 -326Q341 -332 341 -341Q341 -350 335 -356.5Q329 -363 320 -363ZM256 -107Q265 -107 271 -100.5Q277 -94 277 -85Q277 -76 271 -70Q265 -64 256 -64Q247 -64 241 -70Q235 -76 235 -85Q235 -94 241 -100.5Q247 -107 256 -107ZM256 -171Q265 -171 271 -164.5Q277 -158 277 -149Q277 -140 271 -134Q265 -128 256 -128Q247 -128 241 -134Q235 -140 235 -149Q235 -158 241 -164.5Q247 -171 256 -171ZM256 -235Q265 -235 271 -228.5Q277 -222 277 -213Q277 -204 271 -198Q265 -192 256 -192Q247 -192 241 -198Q235 -204 235 -213Q235 -222 241 -228.5Q247 -235 256 -235Z"/>
</svg>