<svg xmlns="http://www.w3.org/2000/svg" viewBox="0 -512 512 512">
	<path fill="#000000" d="M192 -384Q157 -384 128.5 -367Q100 -350 82.5 -320.5Q65 -291 64 -256V0H256V-161Q293 -128 341 -128Q376 -128 405.5 -145Q435 -162 452 -191.5Q469 -221 469 -256Q469 -291 452 -320.5Q435 -350 405.5 -367Q376 -384 341 -384ZM341 -341Q377 -341 402 -316Q427 -291 427 -256Q427 -221 402 -196Q377 -171 341.5 -171Q306 -171 281 -196Q256 -221 256 -256Q256 -291 281 -316Q306 -341 341 -341ZM341 -293Q326 -293 315 -282.5Q304 -272 304 -256Q304 -240 315 -229.5Q326 -219 341.5 -219Q357 -219 368 -229.5Q379 -240 379 -256Q379 -272 368 -282.5Q357 -293 341 -293ZM85 -192H107V-171H85ZM128 -192H149V-171H128ZM171 -192H192V-171H171ZM213 -192H235V-171H213Z"/>
</svg>