<svg xmlns="http://www.w3.org/2000/svg" viewBox="0 -512 512 512">
	<path fill="#000000" d="M352 -320V-75Q352 -39 327 -14Q302 11 266.5 11Q231 11 206 -14Q181 -39 181 -75V-341Q181 -363 197 -379Q213 -395 235 -395Q257 -395 272.5 -379Q288 -363 288 -341V-117Q288 -108 282 -102Q276 -96 267 -96Q258 -96 251.5 -102Q245 -108 245 -117V-320H213V-117Q213 -95 229 -79.5Q245 -64 267 -64Q289 -64 304.5 -79.5Q320 -95 320 -117V-341Q320 -377 295 -402Q270 -427 234.5 -427Q199 -427 174 -402Q149 -377 149 -341V-75Q149 -51 158 -29.5Q167 -8 183.5 8.5Q200 25 221.5 34Q243 43 267 43Q299 43 325.5 27Q352 11 368 -16Q384 -43 384 -75V-320Z"/>
</svg>