<svg xmlns="http://www.w3.org/2000/svg" viewBox="0 -512 512 512">
	<path fill="#000000" d="M288 8Q294 23 305 36Q286 43 267 43Q235 43 208 27Q181 11 165 -16Q149 -43 149 -75V-341Q149 -377 174 -402Q199 -427 234.5 -427Q270 -427 295 -402Q320 -377 320 -341V-138Q287 -109 279 -66Q273 -64 267 -64Q245 -64 229 -79.5Q213 -95 213 -117V-320H245V-117Q245 -109 251.5 -102.5Q258 -96 266.5 -96Q275 -96 281.5 -102.5Q288 -109 288 -117V-341Q288 -363 272.5 -379Q257 -395 235 -395Q213 -395 197 -379Q181 -363 181 -341V-75Q181 -39 206 -14Q231 11 267 11Q276 11 288 8ZM384 -320H352V-159Q368 -166 384 -169ZM455 -110L379 -33L345 -67L320 -43L379 21L480 -80Z"/>
</svg>