<svg xmlns="http://www.w3.org/2000/svg" viewBox="0 -512 512 512">
	<path fill="#000000" d="M384 -169Q368 -166 352 -159V-320H384ZM235 -427Q199 -427 174 -402Q149 -377 149 -341V-75Q149 -43 165 -16Q181 11 208 27Q235 43 267 43Q286 43 305 36Q294 23 288 8Q276 11 267 11Q231 11 206 -14Q181 -39 181 -75V-341Q181 -363 197 -379Q213 -395 235 -395Q257 -395 272.5 -379Q288 -363 288 -341V-117Q288 -109 281.5 -102.5Q275 -96 266.5 -96Q258 -96 251.5 -102.5Q245 -109 245 -117V-320H213V-117Q213 -95 229 -79.5Q245 -64 267 -64Q273 -64 279 -66Q287 -109 320 -138V-341Q320 -377 295 -402Q270 -427 235 -427ZM481 -88L451 -118L405 -73L360 -118L330 -88L375 -43L330 3L360 33L405 -13L451 33L481 3L435 -43Z"/>
</svg>