<svg xmlns="http://www.w3.org/2000/svg" viewBox="0 -512 512 512">
	<path fill="#000000" d="M452 -214L256 43L59 -214L61 -216Q67 -222 76 -227L229 -28L183 -171L197 -196L256 -13L314 -196L329 -171L283 -28L435 -227H436Q446 -221 450 -217ZM256 -363Q295 -363 330 -345.5Q365 -328 389 -298Q357 -294 330 -275Q297 -299 256 -299Q215 -299 181 -274Q155 -294 122 -298Q146 -328 181 -345.5Q216 -363 256 -363ZM256 -405Q205 -405 160 -382.5Q115 -360 85 -320Q55 -280 46 -231Q71 -256 107 -256Q130 -256 150 -243.5Q170 -231 181 -211Q192 -232 212 -244Q232 -256 256 -256Q280 -256 299.5 -244Q319 -232 331 -211Q341 -232 361 -244Q381 -256 405 -256Q441 -256 465 -232Q456 -281 426 -320.5Q396 -360 351.5 -382.5Q307 -405 256 -405Z"/>
</svg>