<svg xmlns="http://www.w3.org/2000/svg" viewBox="0 -512 512 512">
	<path fill="#000000" d="M213 -320Q199 -298 193 -277H234Q227 -299 213 -320ZM186 -315Q155 -305 140 -277H171Q177 -299 186 -315ZM241 -315Q250 -299 256 -277H287Q272 -304 241 -315ZM131 -256Q128 -245 128 -234.5Q128 -224 131 -213H167Q165 -226 165 -235Q165 -244 167 -256ZM188 -256Q187 -245 187 -235Q187 -225 188 -213H238Q240 -227 240 -234.5Q240 -242 238 -256ZM260 -256Q261 -244 261 -235Q261 -226 260 -213H296Q299 -224 299 -234.5Q299 -245 296 -256ZM140 -192Q155 -165 186 -154Q177 -170 171 -192ZM193 -192Q199 -171 213 -149Q227 -170 234 -192ZM256 -192Q250 -171 241 -154Q272 -165 287 -192ZM85 -405Q68 -405 55.5 -392.5Q43 -380 43 -363V-21Q43 -4 55.5 8.5Q68 21 85 21H341Q359 21 371.5 8.5Q384 -4 384 -21V-363Q384 -380 371.5 -392.5Q359 -405 341 -405ZM213 -341Q235 -341 254.5 -333Q274 -325 289 -310Q304 -295 312 -275.5Q320 -256 320 -234.5Q320 -213 312 -193.5Q304 -174 289 -159Q274 -144 254.5 -136Q235 -128 213.5 -128Q192 -128 172.5 -136Q153 -144 138 -159Q123 -174 115 -193.5Q107 -213 107 -234.5Q107 -256 115 -275.5Q123 -295 138 -310Q153 -325 172.5 -333Q192 -341 213 -341ZM320 -85V-43H107V-85ZM427 -299H469V-171H427ZM469 -128H427V-85H469Z"/>
</svg>