<svg xmlns="http://www.w3.org/2000/svg" viewBox="0 -512 512 512">
	<path fill="#000000" d="M85 -363Q68 -363 55.5 -350.5Q43 -338 43 -320V-213H173Q181 -242 204 -259.5Q227 -277 256 -277Q285 -277 308 -259.5Q331 -242 339 -213H469V-320Q469 -338 456.5 -350.5Q444 -363 427 -363ZM256 -235Q238 -235 225.5 -222.5Q213 -210 213 -192Q213 -174 225.5 -161.5Q238 -149 256 -149Q274 -149 286.5 -161.5Q299 -174 299 -192Q299 -210 286.5 -222.5Q274 -235 256 -235ZM43 -171V-64Q43 -46 55.5 -33.5Q68 -21 85 -21H427Q444 -21 456.5 -33.5Q469 -46 469 -64V-171H339Q331 -142 308 -124.5Q285 -107 256 -107Q227 -107 204 -124.5Q181 -142 173 -171Z"/>
</svg>