<svg xmlns="http://www.w3.org/2000/svg" viewBox="0 -512 512 512">
	<path fill="#000000" d="M128 -405Q110 -405 97.5 -392.5Q85 -380 85 -363V-21Q85 -4 97.5 8.5Q110 21 128 21H384Q402 21 414.5 8.5Q427 -4 427 -21V-363Q427 -380 414.5 -392.5Q402 -405 384 -405ZM256 -341Q285 -341 309.5 -327Q334 -313 348.5 -288.5Q363 -264 363 -235Q363 -206 348.5 -181.5Q334 -157 309.5 -142.5Q285 -128 256 -128Q235 -128 215.5 -136Q196 -144 181 -159Q166 -174 157.5 -193.5Q149 -213 149 -234.5Q149 -256 157.5 -275.5Q166 -295 181 -310Q196 -325 215.5 -333Q235 -341 256 -341ZM256 -320Q242 -298 236 -277H276Q270 -299 256 -320ZM228 -315Q197 -305 182 -277H213Q220 -299 228 -315ZM284 -315Q293 -299 299 -277H330Q315 -304 284 -315ZM173 -256Q171 -245 171 -234.5Q171 -224 173 -213H209Q208 -226 208 -235Q208 -244 209 -256ZM231 -256Q229 -245 229 -235Q229 -225 231 -213H281Q283 -227 283 -234.5Q283 -242 281 -256ZM303 -256Q304 -244 304 -235Q304 -226 303 -213H339Q341 -224 341 -234.5Q341 -245 339 -256ZM182 -192Q197 -165 228 -154Q220 -170 213 -192ZM236 -192Q242 -171 256 -149Q270 -170 276 -192ZM299 -192Q293 -171 284 -154Q315 -165 330 -192ZM149 -85H363V-43H149Z"/>
</svg>