<svg xmlns="http://www.w3.org/2000/svg" viewBox="0 -512 512 512">
	<path fill="#000000" d="M85 -96V-277H64V-299H85V-320H64V-341H85V-363H64V-384H192Q208 -383 220.5 -370.5Q233 -358 235 -341H448V-320H235Q233 -303 220.5 -289.5Q208 -276 192 -277H149V-127Q152 -127 154 -128Q156 -129 159 -128H160Q178 -128 201 -119Q214 -149 245.5 -170.5Q277 -192 310 -192Q359 -192 393 -158Q427 -124 427 -75V-69L426 -64H67Q71 -80 85 -96ZM128 -123V-277H107V-113Q123 -121 128 -123ZM192 -299V-320H149V-299ZM192 -363H149V-341H192ZM107 -363V-341H128V-363ZM107 -320V-299H128V-320ZM43 -43H469L427 0H85Z"/>
</svg>