<svg xmlns="http://www.w3.org/2000/svg" viewBox="0 -512 512 512">
	<path fill="#000000" d="M487 -272Q478 -296 457 -305Q438 -313 417 -307.5Q396 -302 378 -285Q381 -294 384 -304Q388 -326 384.5 -346.5Q381 -367 371 -381Q357 -402 333 -405.5Q309 -409 287 -390.5Q265 -372 255 -341Q244 -373 221.5 -391Q199 -409 175.5 -405Q152 -401 138 -381Q127 -366 124 -346Q121 -326 126 -304Q127 -295 130 -289Q112 -304 92.5 -308.5Q73 -313 55 -305Q34 -296 25 -272Q19 -255 21 -235.5Q23 -216 32 -197Q45 -171 67 -156Q89 -141 111 -141Q123 -141 134 -145Q156 -155 164 -179Q175 -206 163 -240Q182 -225 202 -225Q206 -225 209 -226Q232 -229 246 -250Q251 -257 255 -265Q258 -256 262 -250Q277 -229 300 -226Q303 -225 307 -225Q330 -225 351 -244Q336 -209 348 -179Q356 -155 378 -145Q389 -141 401 -141Q423 -141 445 -156Q467 -171 480 -197Q489 -216 491 -235.5Q493 -255 487 -272ZM125 -193Q122 -186 117 -184Q108 -180 93.5 -189.5Q79 -199 70 -216Q64 -228 63.5 -239Q63 -250 65.5 -257Q68 -264 73 -267L79 -268Q88 -268 100 -259Q112 -250 119 -235Q125 -224 126.5 -212.5Q128 -201 125 -193ZM211 -274Q207 -269 203 -268Q194 -267 183 -279.5Q172 -292 167 -313Q165 -327 166.5 -338.5Q168 -350 172.5 -356.5Q177 -363 181 -363Q190 -364 201.5 -351.5Q213 -339 217 -318Q220 -304 218 -292.5Q216 -281 211 -274ZM341 -313Q337 -292 326 -279.5Q315 -267 306 -268Q301 -269 297 -275Q293 -281 291 -292.5Q289 -304 292 -318Q296 -338 306.5 -350.5Q317 -363 326 -363H328Q332 -363 336.5 -356Q341 -349 342.5 -337Q344 -325 341 -313ZM442 -216Q433 -199 418.5 -189.5Q404 -180 395 -184Q390 -186 387.5 -194Q385 -202 386 -213Q387 -224 392 -235Q400 -249 412 -258Q424 -267 434 -267H440Q444 -264 447 -257Q450 -250 449 -239Q448 -228 442 -216ZM348 -139Q340 -147 324 -169Q304 -197 293 -208Q274 -225 254 -225Q234 -225 216 -208Q205 -198 186 -172Q169 -148 159 -139Q152 -132 136 -118Q117 -104 109 -95Q96 -81 95 -67Q93 -49 102.5 -31Q112 -13 128 -5Q138 0 151 0Q167 0 201 -12Q219 -18 228 -20Q242 -24 253.5 -24Q265 -24 280 -20Q289 -18 306 -12Q340 -1 356 -1Q369 -1 380 -5Q394 -12 403.5 -26.5Q413 -41 412.5 -57Q412 -73 398 -89Q391 -99 370 -117Q354 -131 348 -139ZM362 -44Q360 -43 356 -43Q348 -43 320 -52L319 -53Q299 -60 288 -62Q270 -67 254 -67Q238 -67 219 -62Q208 -59 188 -52L184 -51Q159 -43 151 -43Q148 -43 147 -44Q143 -46 140 -51.5Q137 -57 137.5 -61.5Q138 -66 157 -82L162 -85Q181 -99 190 -109Q201 -120 220 -146L222 -149Q246 -183 254 -183Q262 -183 288 -147L289 -145Q305 -122 316 -110Q323 -103 336 -90L341 -85Q369 -62 370 -55Q370 -52 367 -48.5Q364 -45 362 -44Z"/>
</svg>