<svg xmlns="http://www.w3.org/2000/svg" viewBox="0 -512 512 512">
	<path fill="#000000" d="M43 -357L70 -384L459 5L432 32L389 -11Q385 -8 380 -5Q364 2 344 -2Q332 -4 306 -12Q289 -18 280 -20Q265 -24 253.5 -24Q242 -24 228 -20Q219 -18 201 -12Q176 -3 163 -1Q143 2 127.5 -5.5Q112 -13 102.5 -31Q93 -49 95 -67Q96 -81 109 -95Q117 -104 136 -118Q152 -132 159 -139Q169 -148 187 -173Q198 -189 204 -196ZM178 -384Q197 -387 214.5 -369Q232 -351 237.5 -323Q243 -295 235 -273L150 -358Q159 -381 178 -384ZM331 -384Q350 -381 359 -359Q368 -337 362.5 -308.5Q357 -280 339.5 -262Q322 -244 303 -247Q284 -250 274.5 -272Q265 -294 271 -322.5Q277 -351 294.5 -369Q312 -387 331 -384ZM64 -286Q82 -294 104 -281.5Q126 -269 138.5 -244Q151 -219 147 -195.5Q143 -172 125 -164.5Q107 -157 85.5 -169Q64 -181 51.5 -206.5Q39 -232 42.5 -255Q46 -278 64 -286ZM448 -286Q466 -278 469.5 -255Q473 -232 460.5 -206.5Q448 -181 426.5 -169Q405 -157 387 -164.5Q369 -172 365 -195.5Q361 -219 373.5 -244Q386 -269 408 -281.5Q430 -294 448 -286Z"/>
</svg>