<svg xmlns="http://www.w3.org/2000/svg" viewBox="0 -512 512 512">
	<path fill="#000000" d="M487 -272Q478 -296 456 -305Q438 -313 416.5 -307.5Q395 -302 378 -285Q381 -294 384 -304Q388 -326 384.5 -346.5Q381 -367 371 -381Q357 -402 333 -405.5Q309 -409 287 -390.5Q265 -372 255 -341Q244 -373 221.5 -391Q199 -409 175.5 -405Q152 -401 138 -381L137 -379L169 -348Q171 -354 173 -356Q177 -363 181 -363Q190 -364 201.5 -351.5Q213 -339 217 -318Q219 -308 218 -299L253 -263L255 -265L258 -258L287 -230Q294 -227 298.5 -226Q303 -225 307 -225Q330 -225 351 -244Q336 -209 348 -179Q356 -155 378 -145Q389 -141 401 -141Q423 -141 445 -156Q467 -171 480 -197Q489 -216 491 -235.5Q493 -255 487 -272ZM341 -313Q337 -292 326 -279.5Q315 -267 306 -268Q301 -269 297 -275Q293 -281 291 -292.5Q289 -304 292 -318Q296 -338 306.5 -350.5Q317 -363 326 -363H328Q332 -363 336.5 -356Q341 -349 342.5 -337Q344 -325 341 -313ZM442 -216Q433 -199 418.5 -189.5Q404 -180 395 -184Q390 -186 387.5 -194Q385 -202 386 -213Q387 -224 392 -235Q400 -249 412 -258Q424 -267 434 -267H439Q444 -264 446.5 -257Q449 -250 448.5 -239Q448 -228 442 -216ZM24 -384L102 -305Q77 -315 55 -305.5Q33 -296 25 -272Q19 -255 21 -235.5Q23 -216 32 -197Q45 -171 67 -156Q89 -141 111 -141Q123 -141 134 -145Q156 -155 164 -179Q174 -208 163 -240Q168 -236 176 -232L208 -200Q200 -192 186 -172Q169 -148 159 -139Q152 -132 136 -118Q117 -104 109 -95Q96 -81 95 -67Q93 -49 102.5 -31Q112 -13 128 -5Q138 0 151 0Q167 0 201 -12Q219 -18 228 -20Q242 -24 253.5 -24Q265 -24 280 -20Q289 -18 306 -12Q340 -1 356 -1Q369 -1 380 -5Q387 -9 393 -15L445 37L472 10L51 -411ZM238 -170L363 -45L362 -44Q360 -43 356 -43Q348 -43 321 -52L319 -53Q299 -60 288 -62Q270 -67 254 -67Q238 -67 219 -62Q208 -59 188 -52L184 -51Q159 -43 151 -43Q148 -43 147 -44Q143 -46 140 -51.5Q137 -57 137.5 -61.5Q138 -66 157 -82L162 -85Q181 -99 190 -109Q201 -120 220 -146V-147Q229 -160 238 -170ZM119 -235Q125 -224 126 -213Q127 -202 124.5 -194Q122 -186 117 -184Q108 -180 93.5 -189.5Q79 -199 70 -216Q64 -228 63.5 -239Q63 -250 65.5 -257Q68 -264 73 -267L79 -268Q88 -268 100 -259Q112 -250 119 -235Z"/>
</svg>