<svg xmlns="http://www.w3.org/2000/svg" viewBox="0 -512 512 512">
	<path fill="#000000" d="M256 -405Q214 -405 174.5 -389Q135 -373 105 -343Q75 -313 59 -273.5Q43 -234 43 -192Q43 -150 59 -110.5Q75 -71 105 -41Q135 -11 174.5 5Q214 21 256 21Q298 21 337.5 5Q377 -11 407 -41Q437 -71 453 -110.5Q469 -150 469 -192Q469 -234 453 -273.5Q437 -313 407 -343Q377 -373 337.5 -389Q298 -405 256 -405ZM235 -141V-23Q188 -29 151 -57ZM277 -141L361 -57Q324 -29 277 -23ZM85 -192Q85 -234 104.5 -271Q124 -308 158.5 -332Q193 -356 235 -361V-201L121 -87Q85 -133 85 -192ZM391 -87L277 -201V-361Q319 -356 353.5 -332Q388 -308 407.5 -271Q427 -234 427 -192Q427 -133 391 -87Z"/>
</svg>