<svg xmlns="http://www.w3.org/2000/svg" viewBox="0 -512 512 512">
	<path fill="#000000" d="M339 -232Q356 -254 361 -281Q366 -308 356.5 -334Q347 -360 326.5 -378.5Q306 -397 279 -403Q268 -405 256 -405Q227 -405 202.5 -391Q178 -377 164 -352L349 -167Q346 -171 342 -176Q331 -187 330 -203Q329 -219 339 -232ZM277 -299Q268 -299 262 -305Q256 -311 256 -320Q256 -329 262 -335Q268 -341 277 -341Q286 -341 292.5 -335Q299 -329 299 -320Q299 -311 292.5 -305Q286 -299 277 -299ZM149 -312L51 -411L24 -384L166 -241L167 -240Q171 -234 173 -232Q183 -220 182 -204Q181 -188 171 -177Q149 -154 141.5 -123Q134 -92 143.5 -61.5Q153 -31 176.5 -9.5Q200 12 231 19Q243 21 256 21Q290 22 319 3.5Q348 -15 363 -46L445 37L472 10ZM235 -64Q226 -64 219.5 -70Q213 -76 213 -85Q213 -94 219.5 -100.5Q226 -107 235 -107Q244 -107 250 -100.5Q256 -94 256 -85Q256 -76 250 -70Q244 -64 235 -64ZM299 -43Q290 -43 283.5 -49Q277 -55 277 -64Q277 -73 283.5 -79Q290 -85 299 -85Q308 -85 314 -79Q320 -73 320 -64Q320 -55 314 -49Q308 -43 299 -43ZM277 -107Q268 -107 262 -113Q256 -119 256 -128.5Q256 -138 263 -144L294 -114Q287 -107 277 -107Z"/>
</svg>