<svg xmlns="http://www.w3.org/2000/svg" viewBox="0 -512 512 512">
	<path fill="#000000" d="M341 -176Q330 -187 329 -203Q328 -219 338 -232Q356 -254 360.5 -281Q365 -308 355.5 -334Q346 -360 325.5 -378.5Q305 -397 278 -403Q267 -405 256 -405Q227 -405 202.5 -391Q178 -377 163.5 -352.5Q149 -328 149 -299Q149 -261 173 -232Q183 -220 182 -204Q181 -188 171 -177Q149 -154 141.5 -123Q134 -92 143.5 -61.5Q153 -31 176.5 -9.5Q200 12 231 19Q243 21 256 21Q291 21 320 2Q349 -17 363 -49Q377 -81 371 -115.5Q365 -150 341 -176ZM277 -341Q286 -341 292.5 -335Q299 -329 299 -320Q299 -311 292.5 -305Q286 -299 277 -299Q268 -299 262 -305Q256 -311 256 -320Q256 -329 262 -335Q268 -341 277 -341ZM235 -64Q226 -64 219.5 -70Q213 -76 213 -85Q213 -94 219.5 -100.5Q226 -107 235 -107Q244 -107 250 -100.5Q256 -94 256 -85Q256 -76 250 -70Q244 -64 235 -64ZM256 -128Q256 -137 262 -143Q268 -149 277 -149Q286 -149 292.5 -143Q299 -137 299 -128Q299 -119 292.5 -113Q286 -107 277 -107Q268 -107 262 -113Q256 -119 256 -128ZM299 -43Q290 -43 283.5 -49Q277 -55 277 -64Q277 -73 283.5 -79Q290 -85 299 -85Q308 -85 314 -79Q320 -73 320 -64Q320 -55 314 -49Q308 -43 299 -43Z"/>
</svg>