<svg xmlns="http://www.w3.org/2000/svg" viewBox="0 -512 512 512">
	<path fill="#000000" d="M472 10L445 37L377 -30Q367 -10 350 5Q325 29 292.5 38Q260 47 226 39Q190 32 162.5 7Q135 -18 123.5 -53Q112 -88 120 -125.5Q128 -163 155 -192Q161 -198 161 -206Q161 -214 155 -219Q134 -245 129 -279L24 -384L51 -411ZM326 -31Q339 -45 345 -62L293 -114Q287 -107 278 -107Q269 -107 262.5 -113Q256 -119 256 -128.5Q256 -138 264 -144L204 -204Q203 -179 185.5 -161Q168 -143 162.5 -118Q157 -93 164.5 -68.5Q172 -44 191 -26Q210 -8 235 -2.5Q260 3 284.5 -4.5Q309 -12 326 -31ZM299 -85Q286 -85 280.5 -74.5Q275 -64 280.5 -53.5Q286 -43 299 -43Q312 -43 317 -53.5Q322 -64 317 -74.5Q312 -85 299 -85ZM147 -369L180 -336Q188 -353 203 -365Q226 -384 256 -384H275Q293 -380 309 -367Q337 -345 341 -310Q345 -275 323 -247Q309 -230 308 -208L391 -125Q383 -162 357 -191Q351 -196 350.5 -204.5Q350 -213 355 -219L362 -230Q371 -244 376 -259Q384 -280 384 -299Q384 -322 370 -351Q353 -383 327 -403Q295 -427 256 -427Q227 -427 203 -418Q184 -411 170 -398Q159 -389 152 -378ZM256 -85Q256 -98 245.5 -103.5Q235 -109 224 -103.5Q213 -98 213 -85Q213 -72 224 -67Q235 -62 245.5 -67Q256 -72 256 -85ZM277 -341Q264 -341 259 -330.5Q254 -320 259 -309.5Q264 -299 277 -299Q290 -299 295.5 -309.5Q301 -320 295.5 -330.5Q290 -341 277 -341Z"/>
</svg>