<svg xmlns="http://www.w3.org/2000/svg" viewBox="0 -512 512 512">
	<path fill="#000000" d="M442 -299Q440 -296 435 -291Q427 -282 427 -277Q427 -272 436 -261L439 -256L444 -252Q452 -243 455 -239Q460 -232 459.5 -225.5Q459 -219 452 -210Q448 -205 437 -194L350 -107L320 -134L410 -224L388 -245L358 -215L277 -297L363 -378Q369 -384 377.5 -384Q386 -384 393 -378L442 -329Q448 -322 448 -312.5Q448 -303 442 -299ZM64 -81L269 -286L348 -205L145 0H64ZM83 -396L128 -350L173 -396L204 -365L158 -320L204 -275L173 -244L128 -290L83 -244L52 -275L98 -320L52 -365Z"/>
</svg>