<svg xmlns="http://www.w3.org/2000/svg" viewBox="0 -512 512 512">
	<path fill="#000000" d="M343 -256L363 -237L169 -43H149V-62ZM420 -384Q412 -384 405 -378L367 -339L446 -258L484 -299Q491 -305 491 -313.5Q491 -322 484 -329L435 -378Q429 -384 420 -384ZM343 -316L107 -81V0H188L422 -237ZM171 -341V-352Q171 -374 155.5 -389.5Q140 -405 117.5 -405Q95 -405 79.5 -389.5Q64 -374 64 -352V-341Q54 -341 48.5 -335.5Q43 -330 43 -320V-235Q43 -225 48.5 -219Q54 -213 64 -213H171Q180 -213 186 -219Q192 -225 192 -235V-320Q192 -330 186 -335.5Q180 -341 171 -341ZM149 -341H85V-352Q85 -365 95 -374.5Q105 -384 117.5 -384Q130 -384 139.5 -374.5Q149 -365 149 -352Z"/>
</svg>