<svg xmlns="http://www.w3.org/2000/svg" viewBox="0 -512 512 512">
	<path fill="#000000" d="M117 -405Q95 -405 79.5 -389.5Q64 -374 64 -352V-341Q55 -341 49 -335Q43 -329 43 -320V-235Q43 -226 49 -219.5Q55 -213 64 -213H171Q180 -213 186 -219.5Q192 -226 192 -235V-320Q192 -329 186 -335Q180 -341 171 -341V-352Q171 -374 155 -389.5Q139 -405 117 -405ZM117 -384Q131 -384 140 -374.5Q149 -365 149 -352V-341H85V-352Q85 -365 94.5 -374.5Q104 -384 117 -384ZM419 -384Q411 -384 405 -378L365 -339L445 -259L485 -298Q491 -304 491 -313Q491 -322 485 -328L435 -378Q428 -384 419 -384ZM343 -316L107 -80V0H187L423 -236Z"/>
</svg>