<svg xmlns="http://www.w3.org/2000/svg" viewBox="0 -512 512 512">
	<path fill="#000000" d="M405 -107Q405 -80 396 -55Q387 -30 370 -11Q384 3 384 21H128Q128 3 142 -11Q125 -30 116 -55Q107 -80 107 -107H64Q64 -126 72.5 -143.5Q81 -161 95 -173Q120 -191 134.5 -218.5Q149 -246 149 -277V-299Q149 -328 163.5 -352.5Q178 -377 202.5 -391Q227 -405 256 -405Q285 -405 309.5 -391Q334 -377 348.5 -352.5Q363 -328 363 -299V-277Q363 -246 377.5 -218.5Q392 -191 417 -173Q431 -161 439.5 -143.5Q448 -126 448 -107ZM341 -107Q341 -142 316 -167Q291 -192 256 -192Q221 -192 196 -167Q171 -142 171 -106.5Q171 -71 196 -46Q221 -21 256 -21Q291 -21 316 -46Q341 -71 341 -107ZM213 -256L256 -224L299 -256L256 -288ZM213 -341Q204 -341 198 -335Q192 -329 192 -320Q192 -311 198 -305Q204 -299 213 -299Q222 -299 228.5 -305Q235 -311 235 -320Q235 -329 228.5 -335Q222 -341 213 -341ZM299 -341Q290 -341 283.5 -335Q277 -329 277 -320Q277 -311 283.5 -305Q290 -299 299 -299Q308 -299 314 -305Q320 -311 320 -320Q320 -329 314 -335Q308 -341 299 -341Z"/>
</svg>