<svg xmlns="http://www.w3.org/2000/svg" viewBox="0 -512 512 512">
	<path fill="#000000" d="M405 -384H107Q89 -384 76.5 -371.5Q64 -359 64 -341V-43Q64 -25 76.5 -12.5Q89 0 107 0H405Q423 0 435.5 -12.5Q448 -25 448 -43V-341Q448 -359 435.5 -371.5Q423 -384 405 -384ZM188 -298Q204 -298 215 -286.5Q226 -275 226 -259.5Q226 -244 215 -233Q204 -222 188.5 -222Q173 -222 161.5 -233Q150 -244 150 -259.5Q150 -275 161.5 -286.5Q173 -298 188 -298ZM325 -85Q309 -85 298 -96.5Q287 -108 287 -123.5Q287 -139 298 -150Q309 -161 324.5 -161Q340 -161 351.5 -150Q363 -139 363 -123.5Q363 -108 351.5 -96.5Q340 -85 325 -85ZM181 -85L149 -117L331 -299L363 -267Z"/>
</svg>