<svg xmlns="http://www.w3.org/2000/svg" viewBox="0 -512 512 512">
	<path fill="#000000" d="M256 -405Q198 -405 149 -376.5Q100 -348 71.5 -299Q43 -250 43 -192Q43 -134 71.5 -85Q100 -36 149 -7.5Q198 21 256 21Q314 21 363 -7.5Q412 -36 440.5 -85Q469 -134 469 -192Q469 -250 440.5 -299Q412 -348 363 -376.5Q314 -405 256 -405ZM188 -298Q204 -298 215 -286.5Q226 -275 226 -259.5Q226 -244 215 -233Q204 -222 188.5 -222Q173 -222 161.5 -233Q150 -244 150 -259.5Q150 -275 161.5 -286.5Q173 -298 188 -298ZM325 -85Q309 -85 298 -96.5Q287 -108 287 -123.5Q287 -139 298 -150Q309 -161 324.5 -161Q340 -161 351.5 -150Q363 -139 363 -123.5Q363 -108 351.5 -96.5Q340 -85 325 -85ZM181 -85L149 -117L331 -299L363 -267Z"/>
</svg>