<svg xmlns="http://www.w3.org/2000/svg" viewBox="0 -512 512 512">
	<path fill="#000000" d="M395 -373L437 -331L117 -11L75 -53ZM149 -363Q176 -363 194.5 -344Q213 -325 213 -298.5Q213 -272 194.5 -253.5Q176 -235 149.5 -235Q123 -235 104 -253.5Q85 -272 85 -298.5Q85 -325 104 -344Q123 -363 149 -363ZM363 -149Q389 -149 408 -130.5Q427 -112 427 -85.5Q427 -59 408 -40Q389 -21 362.5 -21Q336 -21 317.5 -40Q299 -59 299 -85.5Q299 -112 317.5 -130.5Q336 -149 363 -149ZM149 -320Q141 -320 134.5 -313.5Q128 -307 128 -298.5Q128 -290 134.5 -283.5Q141 -277 149.5 -277Q158 -277 164.5 -283.5Q171 -290 171 -298.5Q171 -307 164.5 -313.5Q158 -320 149 -320ZM363 -107Q354 -107 347.5 -100.5Q341 -94 341 -85.5Q341 -77 347.5 -70.5Q354 -64 362.5 -64Q371 -64 377.5 -70.5Q384 -77 384 -85.5Q384 -94 377.5 -100.5Q371 -107 363 -107Z"/>
</svg>