<svg xmlns="http://www.w3.org/2000/svg" viewBox="0 -512 512 512">
	<path fill="#000000" d="M43 -363V-320H85V-363ZM427 -363V-320H469V-363ZM43 -299V-256H85V-299ZM107 -299V-256H149V-299ZM299 -299V-256H341V-299ZM363 -299V-256H405V-299ZM427 -299V-256H469V-299ZM43 -235V-192H85V-235ZM107 -235V-192H149V-235ZM171 -235V-192H213V-235ZM235 -235V-192H277V-235ZM299 -235V-192H341V-235ZM363 -235V-192H405V-235ZM427 -235V-192H469V-235ZM43 -171V-128H85V-171ZM107 -171V-128H149V-171ZM171 -171V-128H213V-171ZM235 -171V-128H277V-171ZM299 -171V-128H341V-171ZM363 -171V-128H405V-171ZM427 -171V-128H469V-171ZM107 -85V-43H149V-85ZM171 -85V-43H213V-85ZM235 -85V-43H277V-85ZM299 -85V-43H341V-85ZM363 -85V-43H405V-85Z"/>
</svg>