<svg xmlns="http://www.w3.org/2000/svg" viewBox="0 -512 512 512">
	<path fill="#000000" d="M448 -320V-213H416V-288H296L348 -236L325 -213L235 -304L325 -395L348 -372L296 -320ZM188 -265Q197 -274 193 -286Q181 -324 181 -363Q181 -372 175 -378Q169 -384 160 -384H85Q76 -384 70 -378Q64 -372 64 -363Q64 -291 91.5 -224Q119 -157 170 -106Q221 -55 288 -27.5Q355 0 427 0Q436 0 442 -6Q448 -12 448 -21V-96Q448 -105 442 -111Q436 -117 427 -117Q387 -117 351 -129Q338 -133 329 -124L282 -77Q237 -101 201 -137Q165 -173 142 -218Z"/>
</svg>