<svg xmlns="http://www.w3.org/2000/svg" viewBox="0 -512 512 512">
	<path fill="#000000" d="M85 -384Q76 -384 70 -378Q64 -372 64 -363Q64 -264 113 -180Q161 -97 244 -49Q328 0 427 0Q436 0 442 -6Q448 -12 448 -21V-96Q448 -106 442 -111.5Q436 -117 427 -117Q385 -117 350 -130Q339 -133 329 -126L282 -79Q238 -101 201.5 -137.5Q165 -174 141 -220L188 -267Q193 -272 194 -277.5Q195 -283 192 -288Q181 -327 181 -363Q181 -372 175.5 -378Q170 -384 160 -384ZM407 -373L363 -329L318 -373L288 -343L333 -299L288 -254L318 -224L363 -269L407 -224L437 -254L393 -299L437 -343Z"/>
</svg>