<svg xmlns="http://www.w3.org/2000/svg" viewBox="0 -512 512 512">
	<path fill="#000000" d="M506 -199Q437 -265 345 -288Q256 -310 167 -288Q75 -265 6 -199Q0 -193 0 -184Q0 -175 6 -169L59 -116Q66 -110 74.5 -110Q83 -110 89 -116Q115 -140 146 -155Q158 -161 158 -175V-241Q206 -256 256 -256Q306 -256 354 -240V-174Q354 -161 366 -155Q397 -140 423 -116Q429 -110 437.5 -109.5Q446 -109 453 -116L506 -169Q512 -175 512 -184Q512 -193 506 -199ZM115 -187Q94 -175 75 -160L52 -183Q82 -207 115 -224ZM437 -160Q418 -175 397 -187V-223Q431 -207 460 -183Z"/>
</svg>