<svg xmlns="http://www.w3.org/2000/svg" viewBox="0 -512 512 512">
	<path fill="#000000" d="M506 -92Q456 -140 393 -165Q327 -192 256 -192Q185 -192 119 -165Q56 -140 6 -92Q0 -86 0 -77Q0 -68 6 -62L59 -9Q65 -3 74 -3Q83 -3 89 -9Q114 -32 146 -48Q158 -54 158 -68V-134Q205 -149 256 -149Q307 -149 354 -134V-68Q354 -62 357.5 -56.5Q361 -51 366 -49Q397 -33 423 -9Q429 -3 438 -3Q447 -3 453 -9L506 -62Q512 -68 512 -77Q512 -86 506 -92ZM115 -80Q94 -69 75 -53L52 -76Q82 -100 115 -117ZM437 -54Q418 -69 397 -81V-117Q430 -101 460 -76ZM451 -314L421 -345L345 -269L375 -239L413 -276Q450 -314 451 -314ZM235 -405H277V-299H235ZM137 -239L167 -269L91 -345L61 -314Q62 -314 99 -276Z"/>
</svg>