<svg xmlns="http://www.w3.org/2000/svg" viewBox="0 -512 512 512">
	<path fill="#000000" d="M410 -363H337V-373Q337 -388 347.5 -399Q358 -410 373 -410Q388 -410 399 -399Q410 -388 410 -373ZM427 -363V-373Q427 -395 411 -411Q395 -427 373 -427Q351 -427 335.5 -411Q320 -395 320 -373V-363Q311 -363 305 -356.5Q299 -350 299 -341V-256Q299 -247 305 -241Q311 -235 320 -235H427Q436 -235 442 -241Q448 -247 448 -256V-341Q448 -350 442 -356.5Q436 -363 427 -363ZM427 -117Q387 -117 351 -129Q338 -133 329 -124L282 -77Q237 -100 200.5 -136.5Q164 -173 141 -218L188 -265Q197 -274 193 -287Q181 -323 181 -363Q181 -372 175 -378Q169 -384 160 -384H85Q76 -384 70 -378Q64 -372 64 -363Q64 -291 91.5 -224Q119 -157 170 -106Q221 -55 288 -27.5Q355 0 427 0Q436 0 442 -6Q448 -12 448 -21V-96Q448 -105 442 -111Q436 -117 427 -117Z"/>
</svg>