<svg xmlns="http://www.w3.org/2000/svg" viewBox="0 -512 512 512">
	<path fill="#000000" d="M339 -427Q299 -426 265.5 -405.5Q232 -385 212 -351Q192 -317 192 -276.5Q192 -236 212 -202Q232 -168 266 -148Q300 -128 341 -128Q382 -128 416.5 -148Q451 -168 471 -202Q491 -236 491 -277Q491 -318 471 -352.5Q451 -387 416 -407Q381 -427 339 -427H340ZM341 -384Q371 -384 395.5 -370Q420 -356 434 -331.5Q448 -307 448 -277.5Q448 -248 434 -223.5Q420 -199 395.5 -185Q371 -171 341.5 -171Q312 -171 287.5 -185Q263 -199 249 -223.5Q235 -248 235 -277.5Q235 -307 249 -331.5Q263 -356 287.5 -370Q312 -384 341 -384ZM320 -363V-256L397 -209L414 -235L352 -271V-363ZM98 -175Q121 -130 157.5 -93.5Q194 -57 239 -34L286 -81Q291 -86 296.5 -87Q302 -88 307 -85Q342 -73 384 -73Q392 -73 398.5 -66Q405 -59 405 -51V21Q405 29 398.5 36Q392 43 384 43Q285 43 201 -7Q119 -55 71 -137Q21 -221 21 -320Q21 -329 27.5 -335Q34 -341 43 -341H117Q127 -341 133 -335.5Q139 -330 139 -320Q139 -282 151 -243Q154 -232 147 -222Z"/>
</svg>