<svg xmlns="http://www.w3.org/2000/svg" viewBox="0 -512 512 512">
	<path fill="#000000" d="M141 -218Q164 -173 200.5 -136.5Q237 -100 282 -77L329 -124Q338 -133 351 -129Q387 -117 427 -117Q435 -117 441.5 -111Q448 -105 448 -96V-21Q448 -13 441.5 -6.5Q435 0 427 0Q328 0 244 -50Q162 -98 114 -180Q64 -264 64 -363Q64 -371 70.5 -377.5Q77 -384 85 -384H160Q169 -384 175 -377.5Q181 -371 181 -363Q181 -323 193 -287Q197 -274 188 -265ZM352 -405Q312 -405 284 -377Q256 -349 256 -309Q256 -269 284 -241Q312 -213 352 -213Q392 -213 420 -241Q448 -269 448 -309Q448 -349 420 -377Q392 -405 352 -405ZM352 -245Q325 -245 306.5 -264Q288 -283 288 -309Q288 -327 297 -341L384 -254Q370 -245 352 -245ZM407 -277L320 -364Q334 -373 352 -373Q379 -373 397.5 -354.5Q416 -336 416 -309Q416 -291 407 -277Z"/>
</svg>