<svg xmlns="http://www.w3.org/2000/svg" viewBox="0 -512 512 512">
	<path fill="#000000" d="M427 -117Q385 -117 350 -130H343Q335 -130 329 -124L282 -77Q236 -101 199.5 -137.5Q163 -174 141 -218L188 -265Q193 -269 194 -275Q195 -281 192 -286Q181 -325 181 -363Q181 -371 174.5 -377.5Q168 -384 160 -384H85Q77 -384 70.5 -377.5Q64 -371 64 -363Q64 -264 113 -180Q161 -97 244 -49Q328 0 427 0Q435 0 441.5 -6.5Q448 -13 448 -21V-96Q448 -104 441.5 -110.5Q435 -117 427 -117ZM107 -341H139Q141 -318 149 -286L124 -260Q110 -303 107 -341ZM405 -43Q367 -46 324 -60L350 -85Q384 -77 405 -77ZM410 -363H337V-373Q337 -388 347.5 -399Q358 -410 373 -410Q388 -410 399 -399Q410 -388 410 -373ZM427 -363V-373Q427 -395 411 -411Q395 -427 373 -427Q351 -427 335.5 -411Q320 -395 320 -373V-363Q311 -363 305 -356.5Q299 -350 299 -341V-256Q299 -247 305 -241Q311 -235 320 -235H427Q436 -235 442 -241Q448 -247 448 -256V-341Q448 -350 442 -356.5Q436 -363 427 -363Z"/>
</svg>