<svg xmlns="http://www.w3.org/2000/svg" viewBox="0 -512 512 512">
	<path fill="#000000" d="M427 -117Q388 -117 351 -129Q338 -133 329 -124L282 -77Q237 -100 201 -136Q165 -172 142 -218L189 -265Q198 -274 194 -286Q181 -323 181 -363Q181 -372 175 -378Q169 -384 160 -384H85Q76 -384 70 -378Q64 -372 64 -363Q64 -291 91.5 -224Q119 -157 170 -106Q221 -55 288 -27.5Q355 0 427 0Q436 0 442 -6Q448 -12 448 -21V-96Q448 -105 442 -111Q436 -117 427 -117ZM107 -341H140Q142 -313 149 -286L124 -260Q110 -300 107 -341ZM405 -43Q364 -45 324 -59L350 -85Q377 -78 405 -76ZM320 -204L241 -283L271 -313L320 -265L433 -378L463 -348Z"/>
</svg>