<svg xmlns="http://www.w3.org/2000/svg" viewBox="0 -512 512 512">
	<path fill="#000000" d="M320 -192H363Q363 -221 348.5 -245.5Q334 -270 309.5 -284.5Q285 -299 256 -299V-256Q283 -256 301.5 -237.5Q320 -219 320 -192ZM405 -192H448Q448 -244 422 -288.5Q396 -333 352 -358.5Q308 -384 256 -384V-341Q297 -341 331 -321Q365 -301 385 -267Q405 -233 405 -192ZM427 -117Q387 -117 351 -129Q338 -133 329 -124L282 -77Q237 -100 200.5 -136.5Q164 -173 141 -218L188 -265Q197 -274 193 -287Q181 -323 181 -363Q181 -372 175 -378Q169 -384 160 -384H85Q76 -384 70 -378Q64 -372 64 -363Q64 -291 91.5 -224Q119 -157 170 -106Q221 -55 288 -27.5Q355 0 427 0Q436 0 442 -6Q448 -12 448 -21V-96Q448 -105 442 -111Q436 -117 427 -117Z"/>
</svg>