<svg xmlns="http://www.w3.org/2000/svg" viewBox="0 -512 512 512">
	<path fill="#000000" d="M141 -218Q164 -173 200.5 -136.5Q237 -100 282 -77L329 -124Q338 -133 351 -129Q387 -117 427 -117Q435 -117 441.5 -111Q448 -105 448 -96V-21Q448 -13 441.5 -6.5Q435 0 427 0Q328 0 244 -50Q162 -98 114 -180Q64 -264 64 -363Q64 -371 70.5 -377.5Q77 -384 85 -384H160Q169 -384 175 -377.5Q181 -371 181 -363Q181 -323 193 -287Q197 -274 188 -265ZM363 -299L400 -336Q385 -352 363 -352Q341 -352 325 -336.5Q309 -321 309 -299Q309 -277 325 -261Q341 -245 363 -245Q376 -245 387 -251Q398 -257 405 -267H442Q432 -243 410.5 -228Q389 -213 363 -213Q327 -213 302 -238Q277 -263 277 -298.5Q277 -334 302 -359Q327 -384 362.5 -384Q398 -384 423 -359L448 -384V-299Z"/>
</svg>