<svg xmlns="http://www.w3.org/2000/svg" viewBox="0 -512 512 512">
	<path fill="#000000" d="M427 -117Q385 -117 350 -130H343Q335 -130 329 -124L282 -77Q236 -101 199.5 -137.5Q163 -174 141 -218L188 -265Q193 -269 194 -275Q195 -281 192 -286Q181 -325 181 -363Q181 -371 174.5 -377.5Q168 -384 160 -384H85Q77 -384 70.5 -377.5Q64 -371 64 -363Q64 -264 113 -180Q161 -97 244 -49Q328 0 427 0Q435 0 441.5 -6.5Q448 -13 448 -21V-96Q448 -104 441.5 -110.5Q435 -117 427 -117ZM107 -341H139Q141 -318 149 -286L124 -260Q110 -303 107 -341ZM405 -43Q367 -46 324 -60L350 -85Q384 -77 405 -77ZM320 -363Q320 -353 314 -347Q308 -341 298.5 -341Q289 -341 283 -347Q277 -353 277 -362.5Q277 -372 283 -378Q289 -384 298.5 -384Q308 -384 314 -378Q320 -372 320 -363ZM384 -363Q384 -353 378 -347Q372 -341 362.5 -341Q353 -341 347 -347Q341 -353 341 -362.5Q341 -372 347 -378Q353 -384 362.5 -384Q372 -384 378 -378Q384 -372 384 -363ZM448 -363Q448 -353 442 -347Q436 -341 426.5 -341Q417 -341 411 -347Q405 -353 405 -362.5Q405 -372 411 -378Q417 -384 426.5 -384Q436 -384 442 -378Q448 -372 448 -363ZM320 -299Q320 -289 314 -283Q308 -277 298.5 -277Q289 -277 283 -283Q277 -289 277 -298.5Q277 -308 283 -314Q289 -320 298.5 -320Q308 -320 314 -314Q320 -308 320 -299ZM384 -299Q384 -289 378 -283Q372 -277 362.5 -277Q353 -277 347 -283Q341 -289 341 -298.5Q341 -308 347 -314Q353 -320 362.5 -320Q372 -320 378 -314Q384 -308 384 -299ZM448 -299Q448 -289 442 -283Q436 -277 426.5 -277Q417 -277 411 -283Q405 -289 405 -298.5Q405 -308 411 -314Q417 -320 426.5 -320Q436 -320 442 -314Q448 -308 448 -299ZM320 -235Q320 -225 314 -219Q308 -213 298.5 -213Q289 -213 283 -219Q277 -225 277 -234.5Q277 -244 283 -250Q289 -256 298.5 -256Q308 -256 314 -250Q320 -244 320 -235ZM384 -235Q384 -225 378 -219Q372 -213 362.5 -213Q353 -213 347 -219Q341 -225 341 -234.5Q341 -244 347 -250Q353 -256 362.5 -256Q372 -256 378 -250Q384 -244 384 -235ZM448 -235Q448 -225 442 -219Q436 -213 426.5 -213Q417 -213 411 -219Q405 -225 405 -234.5Q405 -244 411 -250Q417 -256 426.5 -256Q436 -256 442 -250Q448 -244 448 -235Z"/>
</svg>