<svg xmlns="http://www.w3.org/2000/svg" viewBox="0 -512 512 512">
	<path fill="#000000" d="M192 -427H64Q46 -427 33.5 -414.5Q21 -402 21 -384V-107Q21 -89 33.5 -76.5Q46 -64 64 -64H192Q210 -64 222.5 -76.5Q235 -89 235 -107V-384Q235 -402 222.5 -414.5Q210 -427 192 -427ZM192 -128H64V-384H192ZM448 -171H277V-128H448V0H192V-21H128V0Q128 18 140.5 30.5Q153 43 171 43H448Q466 43 478.5 30.5Q491 18 491 0V-128Q491 -146 478.5 -158.5Q466 -171 448 -171ZM491 -235L405 -277L446 -297Q427 -341 387 -368Q347 -395 299 -395V-427Q351 -427 395 -401Q439 -375 465 -331Q491 -287 491 -235Z"/>
</svg>