<svg xmlns="http://www.w3.org/2000/svg" viewBox="0 -512 512 512">
	<path fill="#000000" d="M427 -117Q436 -117 442 -111Q448 -105 448 -96V-21Q448 -12 442 -6Q436 0 427 0Q355 0 288 -27.5Q221 -55 170 -106Q119 -157 91.5 -224Q64 -291 64 -363Q64 -372 70 -378Q76 -384 85 -384H160Q169 -384 175 -378Q181 -372 181 -363Q181 -323 193 -287Q197 -274 188 -265L141 -218Q164 -173 200.5 -136.5Q237 -100 282 -77L329 -124Q338 -133 351 -129Q387 -117 427 -117ZM256 -384H299V-341H256ZM320 -384H448V-341H320ZM256 -320H299V-277H256ZM320 -320H448V-277H320ZM256 -256H299V-213H256ZM320 -256H448V-213H320Z"/>
</svg>