<svg xmlns="http://www.w3.org/2000/svg" viewBox="0 -512 512 512">
	<path fill="#000000" d="M427 -117Q385 -117 350 -130H343Q335 -130 329 -124L282 -77Q236 -101 199.5 -137.5Q163 -174 141 -218L188 -265Q193 -269 194 -275Q195 -281 192 -286Q181 -325 181 -363Q181 -371 174.5 -377.5Q168 -384 160 -384H85Q77 -384 70.5 -377.5Q64 -371 64 -363Q64 -264 113 -180Q161 -97 244 -49Q328 0 427 0Q435 0 441.5 -6.5Q448 -13 448 -21V-96Q448 -104 441.5 -110.5Q435 -117 427 -117ZM107 -341H139Q141 -318 149 -286L124 -260Q110 -303 107 -341ZM405 -43Q367 -46 324 -60L350 -85Q384 -77 405 -77ZM320 -192H363Q363 -221 348.5 -245.5Q334 -270 309.5 -284.5Q285 -299 256 -299V-256Q283 -256 301.5 -237.5Q320 -219 320 -192ZM405 -192H448Q448 -244 422 -288.5Q396 -333 352 -358.5Q308 -384 256 -384V-341Q297 -341 331 -321Q365 -301 385 -267Q405 -233 405 -192Z"/>
</svg>