<svg xmlns="http://www.w3.org/2000/svg" viewBox="0 -512 512 512">
	<path fill="#000000" d="M397 -117V-79Q420 -66 437 -51L461 -75Q436 -100 397 -117ZM115 -117Q78 -99 53 -77L77 -53Q94 -68 117 -81V-117ZM256 -192Q328 -192 393 -166Q458 -140 506 -92Q512 -85 512 -76.5Q512 -68 506 -62L452 -9Q446 -2 437.5 -2Q429 -2 422 -9Q390 -37 365 -47Q352 -55 352 -66V-132Q307 -147 254 -147Q201 -147 156 -132V-66Q156 -53 143 -47Q111 -31 85 -9Q79 -2 70.5 -2Q62 -2 55 -9L2 -62Q2 -64 1 -69.5Q0 -75 0 -77Q0 -85 6 -92Q55 -139 120 -165.5Q185 -192 256 -192ZM139 -331V-256H107V-384H235V-352H160L256 -256L384 -384L405 -363L256 -213Z"/>
</svg>