<svg xmlns="http://www.w3.org/2000/svg" viewBox="0 -512 512 512">
	<path fill="#000000" d="M256 -384Q185 -384 119 -357Q56 -332 6 -284Q0 -278 0 -269Q0 -260 6 -254L59 -201Q65 -195 74 -195Q83 -195 89 -201Q114 -224 146 -240Q158 -246 158 -260V-326Q205 -341 256 -341Q307 -341 354 -326V-260Q354 -254 357.5 -248.5Q361 -243 366 -241Q395 -226 423 -201Q429 -195 438 -195Q447 -195 453 -201L506 -254Q512 -260 512 -269Q512 -278 506 -284Q456 -332 393 -357Q327 -384 256 -384ZM192 -299V-235L172 -217Q148 -195 128 -173Q100 -143 84 -118Q64 -86 64 -64V21H448V-64Q448 -86 428 -118Q412 -143 384 -173Q364 -195 340 -217L320 -235V-299H277V-256H235V-299ZM256 -192Q291 -192 316 -167Q341 -142 341 -106.5Q341 -71 316 -46Q291 -21 256 -21Q221 -21 196 -46Q171 -71 171 -106.5Q171 -142 196 -167Q221 -192 256 -192ZM256 -160Q234 -160 218.5 -144.5Q203 -129 203 -107Q203 -85 218.5 -69Q234 -53 256 -53Q278 -53 293.5 -69Q309 -85 309 -107Q309 -129 293.5 -144.5Q278 -160 256 -160Z"/>
</svg>