<svg xmlns="http://www.w3.org/2000/svg" viewBox="0 -512 512 512">
	<path fill="#000000" d="M85 -384Q76 -384 70 -378Q64 -372 64 -363Q64 -291 91.5 -224Q119 -157 170 -106Q221 -55 288 -27.5Q355 0 427 0Q436 0 442 -6Q448 -12 448 -21V-96Q448 -105 442 -111Q436 -117 427 -117Q387 -117 351 -129Q338 -133 329 -124L282 -77Q237 -100 200.5 -136Q164 -172 141 -218L188 -265Q197 -274 193 -287Q181 -323 181 -363Q181 -372 175 -378Q169 -384 160 -384ZM341 -384V-320H277V-277H341V-213H384V-277H448V-320H384V-384Z"/>
</svg>