<svg xmlns="http://www.w3.org/2000/svg" viewBox="0 -512 512 512">
	<path fill="#000000" d="M350 -85Q382 -77 405 -75V-43Q356 -46 324 -60ZM431 -395L53 -17L81 11L186 -94Q236 -49 298 -24.5Q360 0 427 0Q436 0 442 -6Q448 -12 448 -21V-96Q448 -106 442 -111.5Q436 -117 427 -117Q385 -117 350 -130H343Q335 -130 329 -124L282 -77Q239 -100 215 -124L459 -367ZM139 -341Q141 -318 149 -286L124 -260Q110 -303 107 -341ZM160 -384H85Q76 -384 70 -378Q64 -372 64 -363Q64 -246 132 -151L162 -181Q154 -192 141 -218L188 -265Q193 -269 194 -275Q195 -281 192 -286Q181 -329 181 -363Q181 -372 175.5 -378Q170 -384 160 -384Z"/>
</svg>