<svg xmlns="http://www.w3.org/2000/svg" viewBox="0 -512 512 512">
	<path fill="#000000" d="M405 -96Q364 -96 329 -109H322Q314 -109 307 -102L260 -55Q215 -80 178 -116Q141 -152 119 -196L166 -243Q171 -248 172.5 -254Q174 -260 171 -265Q160 -304 160 -341Q160 -349 153.5 -356Q147 -363 139 -363H64Q56 -363 49.5 -356Q43 -349 43 -341Q43 -243 92 -158Q140 -76 222 -28Q307 21 405 21Q413 21 420 14.5Q427 8 427 0V-75Q427 -83 420 -89.5Q413 -96 405 -96ZM85 -320H117Q120 -297 128 -265L102 -239Q88 -281 85 -320ZM384 -21Q345 -24 303 -38L329 -64Q363 -55 384 -55ZM341 -256V-288H267L384 -405L363 -427L245 -309V-384H213V-256ZM363 -320V-288H437L320 -171L341 -149L459 -267V-192H491V-320Z"/>
</svg>