<svg xmlns="http://www.w3.org/2000/svg" viewBox="0 -512 512 512">
	<path fill="#000000" d="M277 -85V-43H299Q308 -43 314 -36.5Q320 -30 320 -21H469V21H320Q320 30 314 36.5Q308 43 299 43H213Q204 43 198 36.5Q192 30 192 21H43V-21H192Q192 -30 198 -36.5Q204 -43 213 -43H235V-85ZM506 -284Q512 -278 512 -269Q512 -260 506 -254L453 -201Q447 -195 438 -195Q429 -195 423 -201Q395 -226 366 -241Q361 -243 357.5 -248.5Q354 -254 354 -260V-326Q307 -341 256 -341Q205 -341 158 -326V-260Q158 -246 146 -240Q114 -224 89 -201Q83 -195 74 -195Q65 -195 59 -201L6 -254Q0 -260 0 -269Q0 -278 6 -284Q56 -332 119 -357Q185 -384 256 -384Q327 -384 393 -357Q456 -332 506 -284ZM235 -235V-128H213V-235ZM256 -235H320V-171H277V-128H256ZM299 -192V-213H277V-192Z"/>
</svg>