<svg xmlns="http://www.w3.org/2000/svg" viewBox="0 -512 512 512">
	<path fill="#000000" d="M427 -405H85Q68 -405 55.5 -392.5Q43 -380 43 -363V-21Q43 -4 55.5 8.5Q68 21 85 21H427Q444 21 456.5 8.5Q469 -4 469 -21V-363Q469 -380 456.5 -392.5Q444 -405 427 -405ZM314 -149H320V-21H192V-149H199Q207 -149 213.5 -155.5Q220 -162 220 -171V-363H293V-171Q293 -162 299.5 -155.5Q306 -149 314 -149ZM85 -363H145V-171Q145 -162 151 -155.5Q157 -149 166 -149H171V-21H85ZM427 -21H341V-149H347Q356 -149 362 -155.5Q368 -162 368 -171V-363H427Z"/>
</svg>