<svg xmlns="http://www.w3.org/2000/svg" viewBox="0 -512 512 512">
	<path fill="#000000" d="M427 -21Q382 -21 341 -50Q302 -22 256 -22Q210 -22 171 -50Q130 -21 85 -21H43V21H85Q129 21 171 0Q211 21 256 21Q301 21 341 0Q383 21 427 21H469V-21ZM427 -363V-384Q427 -393 420.5 -399Q414 -405 405 -405H192V-427H128V-405H107V-363H128V-171H107V-213H64V-171H43V-128H64V-43H85Q95 -43 107 -44V-128H213V-50Q234 -44 256 -44V-128H277V-171H256V-213H213V-171H192V-363H363V-264Q355 -261 350 -254.5Q345 -248 345 -240Q345 -225 358 -217V-192H372Q377 -192 381 -188Q385 -184 385 -178.5Q385 -173 381 -169.5Q377 -166 370.5 -166Q364 -166 360 -172Q357 -177 352 -178.5Q347 -180 342.5 -177Q338 -174 336.5 -169Q335 -164 337 -159Q343 -150 352 -144.5Q361 -139 372 -139Q388 -139 399.5 -150.5Q411 -162 411 -179Q411 -191 403.5 -201.5Q396 -212 385 -216V-217Q398 -225 398 -240Q398 -255 384 -262V-363ZM171 -199L149 -178V-208L171 -230ZM171 -262L149 -241V-271L171 -292ZM149 -305V-335L171 -356V-326Z"/>
</svg>