<svg xmlns="http://www.w3.org/2000/svg" viewBox="0 -512 512 512">
	<path fill="#000000" d="M320 -235Q320 -243 326.5 -249.5Q333 -256 341.5 -256Q350 -256 356.5 -249.5Q363 -243 363 -234.5Q363 -226 356.5 -219.5Q350 -213 341.5 -213Q333 -213 326.5 -219.5Q320 -226 320 -235ZM469 -288V-139L409 -119L373 0H256V-43H213V0H96L82 -49Q66 -107 56 -153Q43 -217 43 -245Q43 -277 58.5 -304Q74 -331 101 -347Q128 -363 160 -363H267Q282 -382 304 -393.5Q326 -405 352 -405Q365 -405 374.5 -396Q384 -387 384 -373Q384 -367 381 -361Q376 -349 375 -336L423 -288ZM427 -245H405L331 -320Q331 -341 336 -361Q321 -357 309 -346Q297 -335 292 -320H160Q129 -320 107 -298Q85 -276 85 -245Q85 -199 128 -43H171V-85H299V-43H341L375 -153L427 -170Z"/>
</svg>