<svg xmlns="http://www.w3.org/2000/svg" viewBox="0 -512 512 512">
	<path fill="#000000" d="M423 -288L375 -336Q377 -350 381 -361Q384 -367 384 -373Q384 -387 374.5 -396Q365 -405 352 -405Q326 -405 304 -393.5Q282 -382 267 -363H160Q128 -363 101 -347Q74 -331 58.5 -304Q43 -277 43 -245Q43 -205 69 -98Q83 -45 96 0H213V-43H256V0H373L409 -119L469 -139V-288ZM341 -213Q333 -213 326.5 -219.5Q320 -226 320 -234.5Q320 -243 326.5 -249.5Q333 -256 341.5 -256Q350 -256 356.5 -249.5Q363 -243 363 -234.5Q363 -226 356.5 -219.5Q350 -213 341 -213Z"/>
</svg>