<svg xmlns="http://www.w3.org/2000/svg" viewBox="0 -512 512 512">
	<path fill="#000000" d="M203 -256Q189 -256 180 -246.5Q171 -237 171 -224Q171 -211 180 -201.5Q189 -192 202.5 -192Q216 -192 225.5 -201.5Q235 -211 235 -224Q235 -237 225.5 -246.5Q216 -256 203 -256ZM309 -256Q296 -256 286.5 -246.5Q277 -237 277 -224Q277 -211 286.5 -201.5Q296 -192 309.5 -192Q323 -192 332 -201.5Q341 -211 341 -224Q341 -237 332 -246.5Q323 -256 309 -256ZM256 -363L271 -362Q285 -375 303 -384.5Q321 -394 335 -398Q356 -403 382.5 -402Q409 -401 428 -392Q450 -382 455 -366Q459 -348 445.5 -327Q432 -306 406 -291Q426 -265 437 -234.5Q448 -204 448 -171Q448 -119 422 -74.5Q396 -30 352 -4.5Q308 21 256 21Q204 21 160 -4.5Q116 -30 90 -74.5Q64 -119 64 -171Q64 -204 75 -234.5Q86 -265 106 -291Q80 -306 66.5 -327Q53 -348 57 -366Q62 -382 84 -392Q103 -401 129.5 -402Q156 -403 177 -398Q191 -394 209 -384.5Q227 -375 241 -362ZM213 -107Q222 -107 228.5 -100.5Q235 -94 235 -85Q235 -76 228.5 -70Q222 -64 213 -64Q204 -64 198 -70Q192 -76 192 -85Q192 -94 198 -100.5Q204 -107 213 -107ZM299 -107Q308 -107 314 -100.5Q320 -94 320 -85Q320 -76 314 -70Q308 -64 299 -64Q290 -64 283.5 -70Q277 -76 277 -85Q277 -94 283.5 -100.5Q290 -107 299 -107ZM256 -171Q228 -171 202 -156Q179 -144 164 -123.5Q149 -103 149 -85.5Q149 -68 163.5 -53.5Q178 -39 202.5 -30Q227 -21 256 -21Q285 -21 309.5 -30Q334 -39 348.5 -53.5Q363 -68 363 -85.5Q363 -103 348 -123.5Q333 -144 310 -156Q284 -171 256 -171ZM166 -357Q160 -358 128 -357L98 -355L123 -336Q149 -317 154 -315Q165 -313 185 -314Q209 -315 211.5 -322.5Q214 -330 193 -343Q176 -354 166 -357ZM346 -357Q336 -354 319 -343Q298 -330 300.5 -322.5Q303 -315 327 -314Q347 -313 358 -315Q363 -317 389 -336L414 -355L384 -357Q352 -358 346 -357Z"/>
</svg>