<svg xmlns="http://www.w3.org/2000/svg" viewBox="0 -512 512 512">
	<path fill="#000000" d="M472 10L51 -411L24 -384L145 -262L90 -207Q65 -182 56.5 -149.5Q48 -117 56.5 -84Q65 -51 90 -26Q115 -1 147.5 7.5Q180 16 213 7.5Q246 -1 271 -26L326 -81L445 37ZM98 -95Q92 -116 98 -138Q104 -160 120 -177L176 -232L206 -202ZM230 -286L200 -317L241 -358Q266 -383 298.5 -391.5Q331 -400 364 -391.5Q397 -383 422 -358Q447 -333 455.5 -300.5Q464 -268 455.5 -235Q447 -202 422 -177L381 -135L351 -166L392 -207Q417 -232 417 -267.5Q417 -303 392 -328Q367 -353 331.5 -353Q296 -353 271 -328Z"/>
</svg>