<svg xmlns="http://www.w3.org/2000/svg" viewBox="0 -512 512 512">
	<path fill="#000000" d="M346 -373Q330 -389 310.5 -397Q291 -405 271 -405Q251 -405 230.5 -397Q210 -389 196 -373L73 -254Q52 -233 44.5 -205.5Q37 -178 44.5 -150.5Q52 -123 73 -102Q94 -81 121 -74Q148 -67 175.5 -74Q203 -81 224 -102L346 -224Q366 -244 373 -271.5Q380 -299 373 -326Q366 -353 346 -373ZM316 -254L256 -194L179 -269L85 -175Q85 -208 105 -224L226 -346Q234 -353 245.5 -358Q257 -363 268.5 -363Q280 -363 292 -358.5Q304 -354 314 -346Q333 -325 333 -299Q333 -273 316 -254ZM418 -297Q418 -281 411 -253L410 -247Q426 -228 425.5 -202.5Q425 -177 407 -160L348 -100L316 -132L256 -73Q236 -52 208.5 -41Q181 -30 154 -30Q162 -17 169 -11Q190 10 217 17.5Q244 25 271.5 17.5Q299 10 320 -11L442 -132Q463 -153 470 -180.5Q477 -208 470 -235.5Q463 -263 442 -284Q431 -288 418 -297Z"/>
</svg>