<svg xmlns="http://www.w3.org/2000/svg" viewBox="0 -512 512 512">
	<path fill="#000000" d="M472 -131Q480 -122 484 -112L486 -108Q497 -81 490.5 -52.5Q484 -24 463 -4Q445 13 419 19Q395 25 369 21Q346 18 325.5 4.5Q305 -9 293 -29Q285 -43 282 -57Q279 -65 277 -80Q276 -106 286 -131Q296 -156 315 -172Q306 -152 308 -130Q310 -108 323 -91L326 -89Q330 -85 335.5 -87Q341 -89 341 -95L340 -100Q326 -137 336.5 -176Q347 -215 377 -240Q396 -255 415 -260Q404 -238 407.5 -212.5Q411 -187 429 -171Q434 -165 447 -155Q456 -148 460 -144ZM424 -32L423 -33Q431 -39 434.5 -48.5Q438 -58 438 -68L437 -75Q435 -84 429 -92Q426 -97 416.5 -105Q407 -113 402 -119.5Q397 -126 393 -135Q387 -121 390 -103L392 -93Q396 -77 395 -68Q392 -57 383.5 -48Q375 -39 361 -36Q370 -27 382.5 -23Q395 -19 407 -23Q415 -25 424 -32ZM192 0V-64H43L149 -171H85L192 -277H128L235 -384L341 -277H277L316 -239Q279 -218 257 -180Q235 -142 235 -96Q235 -41 265 0Z"/>
</svg>