<svg xmlns="http://www.w3.org/2000/svg" viewBox="0 -512 512 512">
	<path fill="#000000" d="M193 12Q225 21 256 21Q298 21 337.5 5Q377 -11 407 -41Q437 -71 453 -110.5Q469 -150 469 -192Q469 -234 453 -273.5Q437 -313 407 -343Q377 -373 337.5 -389Q298 -405 256 -405Q214 -405 174.5 -389Q135 -373 105 -343Q75 -313 59 -273.5Q43 -234 43 -192Q43 -125 81 -70.5Q119 -16 180 7Q175 -33 180 -56L205 -161L201 -170Q198 -181 198 -193Q198 -215 210 -230Q222 -245 238 -245Q251 -245 258 -236.5Q265 -228 265 -215Q265 -202 255 -172Q248 -154 246 -144Q243 -128 253 -116.5Q263 -105 279 -105Q307 -105 326.5 -132.5Q346 -160 346 -203Q346 -241 321 -265Q296 -289 257 -289Q213 -289 186 -261Q161 -234 161 -197Q161 -183 165 -170Q169 -157 177 -148Q179 -146 178 -142L172 -118Q172 -116 170.5 -115Q169 -114 166 -116Q146 -125 134 -150Q123 -173 123 -198Q123 -233 139 -262.5Q155 -292 186 -308Q219 -327 263 -327Q299 -327 329 -311Q359 -295 376 -267Q393 -239 393 -203.5Q393 -168 379 -137.5Q365 -107 340 -89.5Q315 -72 283 -72Q268 -72 254 -79Q240 -86 235 -96L220 -45Q214 -22 193 12Z"/>
</svg>