<svg xmlns="http://www.w3.org/2000/svg" viewBox="0 -512 512 512">
	<path fill="#000000" d="M256 -192Q256 -223 272 -250Q288 -277 315 -293Q342 -309 373.5 -309Q405 -309 432 -293Q459 -277 475 -250Q491 -223 491 -192ZM256 -192Q256 -161 240 -134Q224 -107 197 -91Q170 -75 138.5 -75Q107 -75 80 -91Q53 -107 37 -134Q21 -161 21 -192ZM256 -192Q225 -192 198 -208Q171 -224 155 -251Q139 -278 139 -309.5Q139 -341 155 -368Q171 -395 198 -411Q225 -427 256 -427ZM256 -192Q287 -192 314 -176Q341 -160 357 -133Q373 -106 373 -74.5Q373 -43 357 -16Q341 11 314 27Q287 43 256 43Z"/>
</svg>