<svg xmlns="http://www.w3.org/2000/svg" viewBox="0 -512 512 512">
	<path fill="#000000" d="M256 43H235V-97Q217 -82 195 -73Q173 -64 149 -64Q115 -64 85.5 -81.5Q56 -99 38.5 -128.5Q21 -158 21 -192V-213H161Q146 -231 137 -253Q128 -275 128 -299Q128 -333 145.5 -362.5Q163 -392 192.5 -409.5Q222 -427 256 -427H277V-287Q295 -302 317 -311Q339 -320 363 -320Q397 -320 426.5 -302.5Q456 -285 473.5 -255.5Q491 -226 491 -192V-171H351Q366 -153 375 -131Q384 -109 384 -85Q384 -51 366.5 -21.5Q349 8 319.5 25.5Q290 43 256 43ZM277 -168V-3Q305 -10 323 -33Q341 -56 341 -85Q341 -114 323 -137Q305 -160 277 -168ZM67 -171Q74 -143 97 -125Q120 -107 149 -107Q178 -107 201 -125Q224 -143 232 -171ZM280 -213H445Q438 -241 414.5 -259Q391 -277 362.5 -277Q334 -277 311 -259Q288 -241 280 -213ZM235 -381Q207 -374 189 -350.5Q171 -327 171 -298.5Q171 -270 189 -247Q207 -224 235 -216Z"/>
</svg>