<svg xmlns="http://www.w3.org/2000/svg" viewBox="0 -512 512 512">
	<path fill="#000000" d="M175 -190Q170 -187 167.5 -181Q165 -175 166 -171Q166 -160 175 -152.5Q184 -145 194 -145Q204 -145 212 -152.5Q220 -160 220 -171Q201 -183 175 -190ZM469 -213L491 -299L477 -300Q460 -303 440 -311Q412 -322 384 -341Q360 -358 332 -388Q312 -409 301 -416Q283 -427 256 -427Q229 -427 211 -416Q200 -409 180 -388Q152 -358 128 -341Q100 -322 72 -311Q52 -303 35 -300L21 -299L43 -213H45Q43 -207 43 -192Q43 -137 69 -89.5Q95 -42 139 -13L128 6Q166 31 207 40Q242 48 277 44Q305 41 333 32Q353 25 370 15L384 6L373 -13Q417 -42 443 -89.5Q469 -137 469 -192ZM241 -352L211 -382L226 -397L256 -367L286 -397L301 -382L271 -352L301 -322L286 -307L256 -337L226 -307L211 -322ZM198 -267Q234 -277 256 -277Q285 -277 338 -259Q367 -249 417 -228L422 -226Q425 -220 425 -207ZM290 -41Q265 -26 243 -23Q235 -30 235 -40.5Q235 -51 242.5 -58Q250 -65 262 -66Q274 -67 282 -60Q286 -58 288 -52.5Q290 -47 290 -41ZM427 -162Q419 -129 399 -100Q379 -71 352 -51L320 -107H192L160 -51Q126 -74 105.5 -111Q85 -148 85 -192Q85 -203 90 -224L128 -241L279 -201V-149Q279 -141 285.5 -134.5Q292 -128 301 -128H343Q352 -128 358.5 -134Q365 -140 365 -149V-179Z"/>
</svg>