<svg xmlns="http://www.w3.org/2000/svg" viewBox="0 -512 512 512">
	<path fill="#000000" d="M277 -103Q293 -98 304 -85H320V0H303Q292 12 277 17Q259 24 240.5 19Q222 14 209 0H192V-85H208Q219 -98 235 -103V-192H277ZM256 -21Q265 -21 271 -27.5Q277 -34 277 -43Q277 -52 271 -58Q265 -64 256 -64Q247 -64 241 -58Q235 -52 235 -43Q235 -34 241 -27.5Q247 -21 256 -21ZM363 -363H320V-341H363V-213H149V-341H192V-363H149V-405H363ZM256 -256Q265 -256 271 -262Q277 -268 277 -277Q277 -286 271 -292.5Q265 -299 256 -299Q247 -299 241 -292.5Q235 -286 235 -277Q235 -268 241 -262Q247 -256 256 -256Z"/>
</svg>