<svg xmlns="http://www.w3.org/2000/svg" viewBox="0 -512 512 512">
	<path fill="#000000" d="M149 -341H491V-256H469V-235H341Q332 -235 326 -228.5Q320 -222 320 -213V-192Q320 -174 307.5 -161.5Q295 -149 277 -149H205Q192 -149 186 -137L134 -33Q128 -21 115 -21H43L37 -22Q30 -24 26 -30Q20 -37 20 -49Q20 -64 29 -87Q40 -113 64 -149L73 -163Q82 -179 85 -192Q90 -211 82 -221Q72 -235 43 -235V-341H64L75 -363H139ZM299 -192V-213Q299 -222 292.5 -228.5Q286 -235 277 -235H256L251 -228Q247 -220 247 -213Q247 -201 256 -192Q238 -192 225.5 -204.5Q213 -217 213 -235Q204 -235 198 -228.5Q192 -222 192 -213V-192Q192 -183 198 -177Q204 -171 213 -171H277Q286 -171 292.5 -177Q299 -183 299 -192Z"/>
</svg>