<svg xmlns="http://www.w3.org/2000/svg" viewBox="0 -512 512 512">
	<path fill="#000000" d="M427 -277H299Q272 -277 253.5 -258.5Q235 -240 235 -213V-64Q235 -37 253.5 -18.5Q272 0 299 0L277 21V43H299L341 -1H384L427 43H448V21L427 0Q453 0 472 -18.5Q491 -37 491 -64V-213Q491 -240 472 -258.5Q453 -277 427 -277ZM299 -43Q290 -43 283.5 -49Q277 -55 277 -64Q277 -73 283.5 -79Q290 -85 298.5 -85Q307 -85 313.5 -79Q320 -73 320 -64Q320 -55 313.5 -49Q307 -43 299 -43ZM427 -43Q418 -43 411.5 -49Q405 -55 405 -64Q405 -73 411.5 -79Q418 -85 426.5 -85Q435 -85 441.5 -79Q448 -73 448 -64Q448 -55 441.5 -49Q435 -43 427 -43ZM448 -107H277V-235H448ZM142 -138L149 -85L127 -63L89 -131L21 -168L44 -191L97 -183L180 -266L21 -349L52 -380L248 -334L331 -417Q340 -427 353.5 -427Q367 -427 376 -417.5Q385 -408 385 -394.5Q385 -381 376 -372L303 -299H299Q263 -299 238 -274Q213 -249 213 -213V-209Z"/>
</svg>