<svg xmlns="http://www.w3.org/2000/svg" viewBox="0 -512 512 512">
	<path fill="#000000" d="M460 -178Q458 -184 452.5 -188Q447 -192 439 -192H286Q279 -192 273.5 -188Q268 -184 265 -178L235 -90V27Q235 33 239.5 38Q244 43 250 43H263Q269 43 273 38Q277 33 277 26V0H448V26Q448 33 452.5 38Q457 43 463 43H476Q482 43 486.5 38Q491 33 491 27V-90ZM286 -171H439L461 -107H264ZM277 -43Q269 -43 262.5 -49Q256 -55 256 -64Q256 -73 262.5 -79Q269 -85 277.5 -85Q286 -85 292.5 -79Q299 -73 299 -64Q299 -55 292.5 -49Q286 -43 277 -43ZM448 -43Q439 -43 433 -49Q427 -55 427 -64Q427 -73 433 -79Q439 -85 448 -85Q457 -85 463 -79Q469 -73 469 -64Q469 -55 463 -49Q457 -43 448 -43ZM142 -138L149 -85L127 -63L89 -131L21 -168L44 -191L97 -183L180 -266L21 -349L52 -380L248 -334L331 -417Q340 -427 353.5 -427Q367 -427 376 -417.5Q385 -408 385 -394.5Q385 -381 376 -372L293 -289L310 -213H286Q272 -213 261 -205.5Q250 -198 245 -185V-184L225 -221Z"/>
</svg>