<svg xmlns="http://www.w3.org/2000/svg" viewBox="0 -512 512 512">
	<path fill="#000000" d="M491 -79V-4Q491 6 482.5 13.5Q474 21 463 21H346Q336 21 328 13Q320 5 320 -6V-81Q320 -91 328 -99Q336 -107 346 -107V-139Q346 -161 364 -176.5Q382 -192 405 -192Q428 -192 446.5 -176.5Q465 -161 465 -139V-107Q475 -107 483 -98.5Q491 -90 491 -79ZM437 -139Q437 -151 428 -158.5Q419 -166 405.5 -166Q392 -166 382.5 -158.5Q373 -151 373 -139V-107H437ZM384 -341H85V-43H277V0H85Q68 0 55.5 -12.5Q43 -25 43 -43V-341Q43 -359 55.5 -371.5Q68 -384 85 -384H384Q402 -384 414.5 -371.5Q427 -359 427 -341V-233L405 -235L384 -233ZM192 -277L299 -192L192 -107Z"/>
</svg>