<svg xmlns="http://www.w3.org/2000/svg" viewBox="0 -512 512 512">
	<path fill="#000000" d="M491 -79V-4Q491 6 482.5 13.5Q474 21 463 21H346Q336 21 328 13Q320 5 320 -6V-81Q320 -91 328 -99Q336 -107 346 -107V-160Q346 -182 364 -197.5Q382 -213 405 -213Q428 -213 446.5 -197.5Q465 -182 465 -160V-149H437V-160Q437 -172 428 -180Q419 -188 405.5 -188Q392 -188 382.5 -180Q373 -172 373 -160V-107H465Q475 -107 483 -98.5Q491 -90 491 -79ZM192 -277V-107L299 -192ZM277 -43V0H85Q68 0 55.5 -12.5Q43 -25 43 -43V-341Q43 -359 55.5 -371.5Q68 -384 85 -384H384Q402 -384 414.5 -371.5Q427 -359 427 -341V-254L405 -256Q376 -256 351.5 -241.5Q327 -227 313 -202.5Q299 -178 299 -149V-133Q277 -114 277 -85Z"/>
</svg>