<svg xmlns="http://www.w3.org/2000/svg" viewBox="0 -512 512 512">
	<path fill="#000000" d="M43 -192Q43 -236 66 -272.5Q89 -309 128 -326V-373Q71 -352 35.5 -302.5Q0 -253 0 -192Q0 -131 35.5 -81.5Q71 -32 128 -11V-58Q89 -75 66 -111.5Q43 -148 43 -192ZM320 -384Q268 -384 223.5 -358.5Q179 -333 153.5 -288.5Q128 -244 128 -192Q128 -140 153.5 -95.5Q179 -51 223.5 -25.5Q268 0 320 0Q372 0 416.5 -25.5Q461 -51 486.5 -95.5Q512 -140 512 -192Q512 -244 486.5 -288.5Q461 -333 416.5 -358.5Q372 -384 320 -384ZM427 -171H341V-85H299V-171H213V-213H299V-299H341V-213H427Z"/>
</svg>