<svg xmlns="http://www.w3.org/2000/svg" viewBox="0 -512 512 512">
	<path fill="#000000" d="M363 -59V11H149V-59Q149 -81 180.5 -96.5Q212 -112 256 -112Q300 -112 331.5 -96.5Q363 -81 363 -59ZM256 -331Q294 -331 325.5 -312Q357 -293 376 -261.5Q395 -230 395 -191Q395 -152 374 -119L341 -148Q352 -169 352 -192Q352 -232 324 -260Q296 -288 256 -288Q216 -288 188 -260Q160 -232 160 -192Q160 -169 171 -148L138 -119Q117 -152 117 -191Q117 -230 136 -261.5Q155 -293 186.5 -312Q218 -331 256 -331ZM256 -416Q317 -416 368.5 -386Q420 -356 450 -304.5Q480 -253 480 -192Q480 -120 438 -62L406 -90Q437 -136 437 -192Q437 -228 423.5 -261.5Q410 -295 384.5 -320.5Q359 -346 325.5 -359.5Q292 -373 256 -373Q220 -373 186.5 -359.5Q153 -346 127.5 -320.5Q102 -295 88.5 -261.5Q75 -228 75 -192Q75 -136 106 -90L74 -62Q32 -120 32 -192Q32 -253 62 -304.5Q92 -356 143.5 -386Q195 -416 256 -416ZM256 -245Q278 -245 293.5 -229.5Q309 -214 309 -192Q309 -170 293.5 -154.5Q278 -139 256 -139Q234 -139 218.5 -154.5Q203 -170 203 -192Q203 -214 218.5 -229.5Q234 -245 256 -245Z"/>
</svg>