<svg xmlns="http://www.w3.org/2000/svg" viewBox="0 -512 512 512">
	<path fill="#000000" d="M427 -341Q417 -341 411 -334.5Q405 -328 405 -318V-107Q405 -97 411 -91Q417 -85 426.5 -84Q436 -83 442 -90Q448 -97 448 -107V-318Q448 -328 442 -334.5Q436 -341 427 -341ZM350 -405H98Q84 -405 74 -395.5Q64 -386 64 -371V-77Q64 -62 74 -52.5Q84 -43 98 -43H128V0Q128 10 134 15.5Q140 21 149 21H277Q287 21 293 15.5Q299 10 299 0V-43H350Q364 -43 374 -52.5Q384 -62 384 -77V-371Q384 -386 374 -395.5Q364 -405 350 -405ZM107 -277H171V-235H107ZM256 -213V-171H192V-213ZM192 -235V-277H256V-235ZM256 -149V-107H192V-149ZM107 -213H171V-171H107ZM107 -107V-149H171V-107ZM171 0H149V-43H171ZM277 0H213V-43H277ZM341 -107H277V-149H341ZM341 -171H277V-213H341ZM341 -235H277V-277H341ZM341 -320H107V-363H341Z"/>
</svg>