<svg xmlns="http://www.w3.org/2000/svg" viewBox="0 -512 512 512">
	<path fill="#000000" d="M491 -192Q491 -128 459.5 -74Q428 -20 374 11.5Q320 43 256 43Q192 43 138 11.5Q84 -20 52.5 -74Q21 -128 21 -192Q21 -256 52.5 -310Q84 -364 138 -395.5Q192 -427 256 -427Q320 -427 374 -395.5Q428 -364 459.5 -310Q491 -256 491 -192ZM277 -361Q311 -357 341 -340Q371 -323 392 -295L429 -317Q402 -354 362.5 -377.5Q323 -401 277 -405ZM83 -317L120 -295Q141 -323 171 -340Q201 -357 235 -361V-405Q189 -401 149.5 -377.5Q110 -354 83 -317ZM62 -105L99 -126Q85 -158 85 -192Q85 -226 99 -258L62 -279Q43 -238 43 -192Q43 -146 62 -105ZM235 -23Q201 -27 171 -44Q141 -61 120 -89L83 -67Q110 -30 149.5 -6.5Q189 17 235 21ZM429 -67L392 -89Q371 -61 341 -44Q311 -27 277 -23V20Q323 15 362.5 -7.5Q402 -30 429 -67ZM450 -105Q469 -146 469 -192Q469 -238 450 -279L413 -258Q427 -226 427 -192Q427 -158 413 -126ZM320 -192L256 -299L192 -192L256 -85Z"/>
</svg>