<svg xmlns="http://www.w3.org/2000/svg" viewBox="0 -512 512 512">
	<path fill="#000000" d="M256 -405Q297 -405 331 -385Q365 -365 385 -331Q405 -297 405 -256Q405 -212 381 -175L256 26L131 -175Q107 -212 107 -256Q107 -297 127 -331Q147 -365 181 -385Q215 -405 256 -405ZM256 -373Q213 -373 180.5 -346Q148 -319 141 -277H196Q202 -296 218.5 -308Q235 -320 256 -320Q277 -320 293.5 -308Q310 -296 316 -277H371Q364 -319 331.5 -346Q299 -373 256 -373ZM256 -192Q235 -192 218.5 -204Q202 -216 196 -235H141Q145 -212 157 -194V-192Q173 -168 199.5 -153.5Q226 -139 256 -139Q286 -139 312.5 -153.5Q339 -168 355 -192V-194Q367 -212 371 -235H316Q310 -216 293.5 -204Q277 -192 256 -192ZM256 -288Q243 -288 233.5 -278.5Q224 -269 224 -256Q224 -243 233.5 -233.5Q243 -224 256 -224Q269 -224 278.5 -233.5Q288 -243 288 -256Q288 -269 278.5 -278.5Q269 -288 256 -288Z"/>
</svg>