<svg xmlns="http://www.w3.org/2000/svg" viewBox="0 -512 512 512">
	<path fill="#000000" d="M256 -405Q298 -405 337.5 -389Q377 -373 407 -343Q437 -313 453 -273.5Q469 -234 469 -192Q469 -150 453 -110.5Q437 -71 407 -41Q377 -11 337.5 5Q298 21 256 21Q214 21 174.5 5Q135 -11 105 -41Q75 -71 59 -110.5Q43 -150 43 -192Q43 -234 59 -273.5Q75 -313 105 -343Q135 -373 174.5 -389Q214 -405 256 -405ZM256 -363Q213 -363 176 -343Q139 -323 115.5 -289Q92 -255 87 -213H173Q181 -241 203.5 -259Q226 -277 256 -277Q286 -277 308.5 -259Q331 -241 339 -213H425Q420 -255 396.5 -289Q373 -323 336 -343Q299 -363 256 -363ZM256 -21Q299 -21 336 -41Q373 -61 396.5 -95Q420 -129 425 -171H339Q331 -143 308.5 -125Q286 -107 256 -107Q226 -107 203.5 -125Q181 -143 173 -171H87Q92 -129 115.5 -95Q139 -61 176 -41Q213 -21 256 -21ZM256 -235Q238 -235 225.5 -222.5Q213 -210 213 -192Q213 -174 225.5 -161.5Q238 -149 256 -149Q274 -149 286.5 -161.5Q299 -174 299 -192Q299 -210 286.5 -222.5Q274 -235 256 -235Z"/>
</svg>