<svg xmlns="http://www.w3.org/2000/svg" viewBox="0 -512 512 512">
	<path fill="#000000" d="M256 -235Q267 -238 278 -240Q303 -248 319 -257Q341 -271 341 -286Q341 -294 332.5 -320Q324 -346 324 -355.5Q324 -365 333 -378Q337 -384 341 -388L324 -405Q309 -397 290.5 -397Q272 -397 256 -405Q240 -397 221.5 -397Q203 -397 188 -405L171 -388L179 -378Q188 -365 188 -355.5Q188 -346 179.5 -320Q171 -294 171 -286Q171 -265 213 -247Q235 -239 256 -235ZM244 -335L256 -363L268 -335L299 -332L275 -312L282 -282L256 -298L230 -282L237 -312L213 -332ZM448 -320H355Q363 -297 363 -286Q363 -255 320 -234Q296 -221 260 -213H252Q216 -221 192 -234Q149 -255 149 -286Q149 -297 157 -320H64Q55 -320 49 -313.5Q43 -307 43 -299V21H213V-85H299V21H469V-299Q469 -307 463 -313.5Q457 -320 448 -320ZM171 -21H85V-85H171ZM171 -128H85V-192H171ZM299 -128H213V-192H299ZM427 -21H341V-85H427ZM427 -128H341V-192H427Z"/>
</svg>