<svg xmlns="http://www.w3.org/2000/svg" viewBox="0 -512 512 512">
	<path fill="#000000" d="M43 -128Q43 -128 44 -129Q79 -144 97 -151Q126 -162 149 -167V-341Q149 -368 168 -386.5Q187 -405 213 -405Q234 -405 250.5 -393.5Q267 -382 274 -363H213Q204 -363 198 -356.5Q192 -350 192 -341V-320H299V-341Q299 -368 317.5 -386.5Q336 -405 363 -405Q383 -405 399.5 -393.5Q416 -382 423 -363H363Q354 -363 347.5 -356.5Q341 -350 341 -341V-129Q360 -132 399 -150Q422 -160 434 -164Q454 -171 469 -171V-128Q454 -128 434 -121Q422 -117 398.5 -106.5Q375 -96 363 -92Q343 -85 327 -85Q311 -85 292 -92Q280 -96 256 -106.5Q232 -117 220 -121Q201 -128 185 -128Q153 -128 114 -115Q90 -107 43 -85ZM299 -277H192V-235H299ZM299 -192H192V-171Q206 -169 224 -163Q234 -159 256 -150Q284 -137 299 -132ZM43 -43Q90 -64 114 -72Q153 -85 185 -85Q201 -85 220 -79Q232 -75 256 -64Q280 -53 292 -49Q311 -43 327 -43Q343 -43 363 -49Q375 -53 398.5 -64Q422 -75 434 -79Q454 -85 469 -85V-43Q454 -43 434 -36Q422 -32 398.5 -21.5Q375 -11 363 -7Q343 0 327 0Q311 0 292 -7Q280 -11 256 -21.5Q232 -32 220 -36Q201 -43 185 -43Q153 -43 114 -29Q90 -21 43 0Z"/>
</svg>