<svg xmlns="http://www.w3.org/2000/svg" viewBox="0 -512 512 512">
	<path fill="#000000" d="M149 21H101L97 20Q92 18 88 13Q83 5 81 -7L43 -373Q43 -387 55.5 -396Q68 -405 85.5 -405Q103 -405 115.5 -396Q128 -387 128 -373Q128 -387 140.5 -396Q153 -405 170.5 -405Q188 -405 200.5 -396Q213 -387 213 -373Q213 -387 225.5 -396Q238 -405 256 -405Q274 -405 286.5 -396Q299 -387 299 -373Q299 -387 311.5 -396Q324 -405 341.5 -405Q359 -405 371.5 -396Q384 -387 384 -373Q384 -387 396.5 -396Q409 -405 426.5 -405Q444 -405 456.5 -396Q469 -387 469 -373L431 -7Q428 11 419 18Q415 21 411 21ZM381 -343Q376 -352 365.5 -357.5Q355 -363 341.5 -363Q328 -363 316 -357.5Q304 -352 299 -344L294 -21H355ZM213 -344Q208 -352 196 -357.5Q184 -363 170.5 -363Q157 -363 146.5 -357.5Q136 -352 131 -343L157 -21H218Z"/>
</svg>