<svg xmlns="http://www.w3.org/2000/svg" viewBox="0 -512 512 512">
	<path fill="#000000" d="M43 -405V-331Q60 -331 72.5 -315Q85 -299 85 -277Q85 -255 72.5 -239.5Q60 -224 43 -224V-160Q60 -160 72.5 -144.5Q85 -129 85 -107Q85 -85 72.5 -69Q60 -53 43 -53V21H117Q117 4 133 -8.5Q149 -21 171 -21Q193 -21 208.5 -8.5Q224 4 224 21H288Q288 4 303.5 -8.5Q319 -21 341 -21Q363 -21 379 -8.5Q395 4 395 21H469V-53Q452 -53 439.5 -69Q427 -85 427 -107Q427 -129 439.5 -144.5Q452 -160 469 -160V-224Q452 -224 439.5 -239.5Q427 -255 427 -277Q427 -299 439.5 -315Q452 -331 469 -331V-405H395Q395 -388 379 -375.5Q363 -363 341 -363Q319 -363 303.5 -375.5Q288 -388 288 -405H224Q224 -388 208.5 -375.5Q193 -363 171 -363Q149 -363 133 -375.5Q117 -388 117 -405ZM128 -320H384V-64H128ZM192 -299Q174 -299 161.5 -286.5Q149 -274 149 -256Q149 -238 161.5 -225.5Q174 -213 192 -213Q210 -213 222.5 -225.5Q235 -238 235 -256Q235 -274 222.5 -286.5Q210 -299 192 -299ZM363 -235L299 -171L256 -192L149 -85H363Z"/>
</svg>