<svg xmlns="http://www.w3.org/2000/svg" viewBox="0 -512 512 512">
	<path fill="#000000" d="M405 -43Q405 -25 392.5 -12.5Q380 0 363 0H149Q132 0 119.5 -12.5Q107 -25 107 -43V-192H64V-235H448V-192H405ZM171 -416Q141 -416 120 -395Q99 -374 99 -344.5Q99 -315 120 -294Q141 -273 171 -273H203Q216 -273 226 -267H269Q260 -284 242 -294Q224 -304 203 -304H171Q155 -304 143 -317Q131 -330 131 -346.5Q131 -363 142.5 -373.5Q154 -384 171 -384ZM274 -405Q274 -389 262.5 -377.5Q251 -366 235 -366V-334Q265 -334 288 -315Q311 -296 318 -267H350Q346 -296 328.5 -319Q311 -342 285 -355Q306 -376 306 -405Z"/>
</svg>