<svg xmlns="http://www.w3.org/2000/svg" viewBox="0 -512 512 512">
	<path fill="#000000" d="M256 -384Q204 -384 160 -358Q116 -332 90 -288Q64 -244 64 -192Q64 -140 90 -96Q116 -52 160 -26Q204 0 256 0Q308 0 352 -26Q396 -52 422 -96Q448 -140 448 -192Q448 -244 422 -288Q396 -332 352 -358Q308 -384 256 -384ZM256 -43Q215 -43 181 -63Q147 -83 127 -117Q107 -151 107 -192Q107 -233 127 -267Q147 -301 181 -321Q215 -341 256 -341Q297 -341 331 -321Q365 -301 385 -267Q405 -233 405 -192Q405 -151 385 -117Q365 -83 331 -63Q297 -43 256 -43Z"/>
</svg>