<svg xmlns="http://www.w3.org/2000/svg" viewBox="0 -512 512 512">
	<path fill="#000000" d="M320 64H363V21H320ZM353 -353L322 -322Q351 -305 367.5 -276Q384 -247 384 -213Q384 -179 367 -149.5Q350 -120 320.5 -102.5Q291 -85 256 -85Q221 -85 191.5 -102.5Q162 -120 145 -149.5Q128 -179 128 -213Q128 -247 144.5 -276Q161 -305 189 -323L159 -353Q125 -330 105 -293Q85 -256 85 -213Q85 -167 108 -128Q131 -89 170.5 -66Q210 -43 256 -43Q302 -43 341.5 -66Q381 -89 404 -128Q427 -167 427 -213Q427 -256 407 -293Q387 -330 353 -353ZM277 -405H235V-192H277ZM235 64H277V21H235ZM149 64H192V21H149Z"/>
</svg>