<svg xmlns="http://www.w3.org/2000/svg" viewBox="0 -512 512 512">
	<path fill="#000000" d="M90 -405Q70 -405 56.5 -391.5Q43 -378 43 -358V-26Q43 -7 57 7Q71 21 90 21H422Q442 21 455.5 7.5Q469 -6 469 -26V-358Q469 -377 455 -391Q441 -405 422 -405ZM235 -361V-320H277V-361Q319 -356 353.5 -332Q388 -308 407.5 -271Q427 -234 427 -192Q427 -150 407.5 -113Q388 -76 353.5 -52Q319 -28 277 -23V-64H235V-23Q193 -28 158.5 -52Q124 -76 104.5 -113Q85 -150 85 -192Q85 -234 104.5 -271Q124 -308 158.5 -332Q193 -356 235 -361ZM160 -224Q147 -224 137.5 -214.5Q128 -205 128 -192Q128 -179 137.5 -169.5Q147 -160 160 -160Q173 -160 182.5 -169.5Q192 -179 192 -192Q192 -205 182.5 -214.5Q173 -224 160 -224ZM352 -224Q339 -224 329.5 -214.5Q320 -205 320 -192Q320 -179 329.5 -169.5Q339 -160 352 -160Q365 -160 374.5 -169.5Q384 -179 384 -192Q384 -205 374.5 -214.5Q365 -224 352 -224Z"/>
</svg>