<svg xmlns="http://www.w3.org/2000/svg" viewBox="0 -512 512 512">
	<path fill="#000000" d="M235 -271Q244 -264 250 -254.5Q256 -245 256 -235V-117L181 -43V21H75V-43L0 -117V-235Q0 -251 13.5 -264Q27 -277 43 -277V-363H85V-277H171V-363H213V-277Q224 -277 235 -271ZM151 -73L213 -135V-233V-234L212 -235H45L43 -234V-233V-135L114 -64H142ZM256 -362Q258 -363 263 -363H299V-405H427V-363H462Q474 -363 482.5 -354.5Q491 -346 491 -334V-7Q491 5 482.5 13Q474 21 462 21H263Q251 21 243 13Q235 5 235 -7V-36L277 -78V-21H448V-320H256Z"/>
</svg>