<svg xmlns="http://www.w3.org/2000/svg" viewBox="0 -512 512 512">
	<path fill="#000000" d="M353 -332L322 -301Q351 -284 367.5 -255Q384 -226 384 -191.5Q384 -157 367 -127.5Q350 -98 320.5 -81Q291 -64 256 -64Q221 -64 191.5 -81Q162 -98 145 -127.5Q128 -157 128 -191.5Q128 -226 144.5 -255Q161 -284 189 -301L159 -332Q125 -308 105 -271.5Q85 -235 85 -192Q85 -146 108 -106.5Q131 -67 170.5 -44Q210 -21 256 -21Q302 -21 341.5 -44Q381 -67 404 -106.5Q427 -146 427 -192Q427 -235 407 -271.5Q387 -308 353 -332ZM277 -384H235V-171H277Z"/>
</svg>