<svg xmlns="http://www.w3.org/2000/svg" viewBox="0 -512 512 512">
	<path fill="#000000" d="M171 -299H213V-192H171ZM90 -405H422Q441 -405 455 -391Q469 -377 469 -358V-26Q469 -6 455.5 7.5Q442 21 422 21H90Q71 21 57 7Q43 -7 43 -26V-358Q43 -378 56.5 -391.5Q70 -405 90 -405ZM256 -363Q210 -363 170.5 -340Q131 -317 108 -277.5Q85 -238 85 -192Q85 -146 108 -106.5Q131 -67 170.5 -44Q210 -21 256 -21Q302 -21 341.5 -44Q381 -67 404 -106.5Q427 -146 427 -192Q427 -238 404 -277.5Q381 -317 341.5 -340Q302 -363 256 -363ZM299 -288H341V-203H299ZM224 -101Q224 -115 233.5 -124Q243 -133 256 -133Q269 -133 278.5 -124Q288 -115 288 -101V-85H224Z"/>
</svg>