<svg xmlns="http://www.w3.org/2000/svg" viewBox="0 -512 512 512">
	<path fill="#000000" d="M90 -405Q70 -405 56.5 -391.5Q43 -378 43 -358V-26Q43 -7 57 7Q71 21 90 21H422Q442 21 455.5 7.5Q469 -6 469 -26V-358Q469 -377 455 -391Q441 -405 422 -405ZM256 -363Q302 -363 341.5 -340Q381 -317 404 -277.5Q427 -238 427 -192Q427 -146 404 -106.5Q381 -67 341.5 -44Q302 -21 256 -21Q210 -21 170.5 -44Q131 -67 108 -106.5Q85 -146 85 -192Q85 -238 108 -277.5Q131 -317 170.5 -340Q210 -363 256 -363ZM176 -287L134 -213L171 -192L213 -266ZM336 -287L299 -266L341 -192L378 -213ZM235 -149V-64H277V-149Z"/>
</svg>