<svg xmlns="http://www.w3.org/2000/svg" viewBox="0 -512 512 512">
	<path fill="#000000" d="M90 -405Q70 -405 56.5 -391.5Q43 -378 43 -358V-26Q43 -7 57 7Q71 21 90 21H422Q442 21 455.5 7.5Q469 -6 469 -26V-358Q469 -377 455 -391Q441 -405 422 -405ZM256 -363Q302 -363 341.5 -340Q381 -317 404 -277.5Q427 -238 427 -192Q427 -146 404 -106.5Q381 -67 341.5 -44Q302 -21 256 -21Q210 -21 170.5 -44Q131 -67 108 -106.5Q85 -146 85 -192Q85 -238 108 -277.5Q131 -317 170.5 -340Q210 -363 256 -363ZM256 -320Q243 -320 233.5 -310.5Q224 -301 224 -288Q224 -275 233.5 -265.5Q243 -256 256 -256Q269 -256 278.5 -265.5Q288 -275 288 -288Q288 -301 278.5 -310.5Q269 -320 256 -320ZM160 -224Q147 -224 137.5 -214.5Q128 -205 128 -192Q128 -179 137.5 -169.5Q147 -160 160 -160Q173 -160 182.5 -169.5Q192 -179 192 -192Q192 -205 182.5 -214.5Q173 -224 160 -224ZM352 -224Q339 -224 329.5 -214.5Q320 -205 320 -192Q320 -179 329.5 -169.5Q339 -160 352 -160Q365 -160 374.5 -169.5Q384 -179 384 -192Q384 -205 374.5 -214.5Q365 -224 352 -224Z"/>
</svg>