<svg xmlns="http://www.w3.org/2000/svg" viewBox="0 -512 512 512">
	<path fill="#000000" d="M277 -384H235V-171H277ZM380 -338L350 -307Q376 -286 390.5 -256Q405 -226 405 -192Q405 -151 385 -117Q365 -83 331 -63Q297 -43 256 -43Q215 -43 181 -63Q147 -83 127 -117Q107 -151 107 -192Q107 -225 121.5 -255.5Q136 -286 162 -308L132 -338Q92 -304 75 -255.5Q58 -207 67 -157Q76 -107 109.5 -67Q143 -27 191.5 -10.5Q240 6 290.5 -2.5Q341 -11 380 -45Q413 -73 430.5 -111.5Q448 -150 448 -192Q448 -234 430.5 -272.5Q413 -311 380 -338Z"/>
</svg>