<svg xmlns="http://www.w3.org/2000/svg" viewBox="0 -512 512 512">
	<path fill="#000000" d="M422 -405H90Q71 -405 57 -391Q43 -377 43 -358V-26Q43 -7 57 7Q71 21 90 21H422Q441 21 455 7Q469 -7 469 -26V-358Q469 -377 455 -391Q441 -405 422 -405ZM427 -171L353 -97Q341 -85 326 -85H186Q171 -85 159 -97L85 -171Q77 -179 77 -192Q77 -205 85 -213L159 -287Q171 -299 186 -299H326Q341 -299 353 -287L427 -213Q435 -205 435 -192Q435 -179 427 -171ZM224 -149Q224 -163 233.5 -172Q243 -181 256 -181Q269 -181 278.5 -172Q288 -163 288 -149.5Q288 -136 278.5 -126.5Q269 -117 256 -117Q243 -117 233.5 -126.5Q224 -136 224 -149ZM331 -192Q331 -205 340 -214.5Q349 -224 362.5 -224Q376 -224 385.5 -214.5Q395 -205 395 -192Q395 -179 385.5 -169.5Q376 -160 362.5 -160Q349 -160 340 -169.5Q331 -179 331 -192ZM117 -192Q117 -205 126.5 -214.5Q136 -224 149.5 -224Q163 -224 172 -214.5Q181 -205 181 -192Q181 -179 172 -169.5Q163 -160 149.5 -160Q136 -160 126.5 -169.5Q117 -179 117 -192Z"/>
</svg>