<svg xmlns="http://www.w3.org/2000/svg" viewBox="0 -512 512 512">
	<path fill="#000000" d="M224 -96Q224 -109 233.5 -118.5Q243 -128 256 -128Q269 -128 278.5 -118.5Q288 -109 288 -96Q288 -83 278.5 -73.5Q269 -64 256 -64Q243 -64 233.5 -73.5Q224 -83 224 -96ZM224 -288Q224 -301 233.5 -310.5Q243 -320 256 -320Q269 -320 278.5 -310.5Q288 -301 288 -288Q288 -275 278.5 -265.5Q269 -256 256 -256Q243 -256 233.5 -265.5Q224 -275 224 -288ZM90 -405H422Q441 -405 455 -391Q469 -377 469 -358V-26Q469 -7 455 7Q441 21 422 21H90Q71 21 57 7Q43 -7 43 -26V-358Q43 -377 57 -391Q71 -405 90 -405ZM256 -363Q210 -363 170.5 -340Q131 -317 108 -277.5Q85 -238 85 -192Q85 -146 108 -106.5Q131 -67 170.5 -44Q210 -21 256 -21Q302 -21 341.5 -44Q381 -67 404 -106.5Q427 -146 427 -192Q427 -238 404 -277.5Q381 -317 341.5 -340Q302 -363 256 -363ZM224 -192Q224 -205 233.5 -214.5Q243 -224 256 -224Q269 -224 278.5 -214.5Q288 -205 288 -192Q288 -179 278.5 -169.5Q269 -160 256 -160Q243 -160 233.5 -169.5Q224 -179 224 -192Z"/>
</svg>