<svg xmlns="http://www.w3.org/2000/svg" viewBox="0 -512 512 512">
	<path fill="#000000" d="M213 -245V-139H171V-245ZM422 -405Q441 -405 455 -391Q469 -377 469 -358V-26Q469 -7 455 7Q441 21 422 21H90Q71 21 57 7Q43 -7 43 -26V-358Q43 -377 57 -391Q71 -405 90 -405ZM256 -363Q210 -363 170.5 -340Q131 -317 108 -277.5Q85 -238 85 -192Q85 -146 108 -106.5Q131 -67 170.5 -44Q210 -21 256 -21Q302 -21 341.5 -44Q381 -67 404 -106.5Q427 -146 427 -192Q427 -238 404 -277.5Q381 -317 341.5 -340Q302 -363 256 -363ZM341 -245V-139H299V-245Z"/>
</svg>