<svg xmlns="http://www.w3.org/2000/svg" viewBox="0 -512 512 512">
	<path fill="#000000" d="M43 -384H213Q213 -402 225.5 -414.5Q238 -427 256 -427Q274 -427 286.5 -414.5Q299 -402 299 -384H469V-341H448V-107H325L363 21H320L283 -107H229L192 21H149L187 -107H64V-341H43ZM107 -341V-149H405V-341ZM253 -195Q250 -192 245.5 -192Q241 -192 238 -195Q235 -198 235 -203V-288Q235 -292 238 -295.5Q241 -299 245.5 -299Q250 -299 253 -295L283 -266Q289 -259 292 -256Q296 -250 296 -245.5Q296 -241 292 -235Q289 -232 283 -225Z"/>
</svg>