<svg xmlns="http://www.w3.org/2000/svg" viewBox="0 -512 512 512">
	<path fill="#000000" d="M384 -299H128V-384H384ZM128 0V-85H43V-213Q43 -240 61.5 -258.5Q80 -277 107 -277H405Q432 -277 450.5 -258.5Q469 -240 469 -213V-153Q440 -171 405 -171Q367 -171 335 -149H171V-43H277Q277 -21 285 0ZM384 -213Q384 -205 390.5 -198.5Q397 -192 405.5 -192Q414 -192 420.5 -198.5Q427 -205 427 -213.5Q427 -222 420.5 -228.5Q414 -235 405.5 -235Q397 -235 390.5 -228.5Q384 -222 384 -213ZM501 -85L469 -117L395 -43L352 -85L320 -53L395 21Z"/>
</svg>