<svg xmlns="http://www.w3.org/2000/svg" viewBox="0 -512 512 512">
	<path fill="#000000" d="M363 -256H149V-363H363ZM235 -107Q235 -72 256 -43H85V-192Q85 -210 97.5 -222.5Q110 -235 128 -235H384Q402 -235 414.5 -222.5Q427 -210 427 -192V-170Q412 -190 389.5 -201.5Q367 -213 341 -213Q312 -213 287.5 -199Q263 -185 249 -160.5Q235 -136 235 -107ZM213 -192H128V-149H213ZM488 4L400 -84Q407 -100 403 -118.5Q399 -137 385.5 -150.5Q372 -164 352 -167.5Q332 -171 314 -163L356 -121L327 -92L285 -134Q276 -116 279.5 -96.5Q283 -77 297 -63Q311 -49 329 -45Q347 -41 364 -48L451 40Q454 43 458 43Q462 43 465 40L487 18Q490 15 490.5 10.5Q491 6 488 4Z"/>
</svg>