<svg xmlns="http://www.w3.org/2000/svg" viewBox="0 -512 512 512">
	<path fill="#000000" d="M484 -30V-51L508 -68Q512 -73 510 -75L489 -111Q489 -113 482 -113L457 -102Q444 -111 437 -113L433 -141Q433 -142 431.5 -143.5Q430 -145 429 -145H386Q380 -145 380 -141L375 -113L358 -102L333 -113Q329 -113 326 -111L305 -75Q305 -70 307 -68L331 -51V-30L307 -13Q303 -9 305 -6L326 30Q329 32 333 32L358 21Q366 29 375 32L380 60Q384 64 386 64H429Q430 64 431.5 62.5Q433 61 433 60L437 32L454 21L480 30Q484 30 486 28L508 -9Q509 -10 509 -11.5Q509 -13 508 -13ZM405 -11Q393 -11 383 -20.5Q373 -30 373 -42.5Q373 -55 383 -65Q393 -75 405.5 -75Q418 -75 427.5 -65Q437 -55 437 -42.5Q437 -30 427.5 -20.5Q418 -11 405 -11ZM149 -128V-171H235V-128ZM128 -192H427Q427 -210 414.5 -222.5Q402 -235 384 -235H363V-363H149V-235H128Q110 -235 97.5 -222.5Q85 -210 85 -192V-43H256Q256 -64 262 -85H128ZM192 -320H320V-235H192Z"/>
</svg>