<svg xmlns="http://www.w3.org/2000/svg" viewBox="0 -512 512 512">
	<path fill="#000000" d="M49 -405L21 -378L45 -354Q43 -350 43 -341V-213H128V-271L186 -213L139 -190Q128 -183 128 -171V-60Q128 -48 139 -41L243 17Q252 21 256 21Q260 21 269 17L365 -36L444 43L471 15ZM105 -405H102L209 -299H384V-213H469V-341Q469 -369 451 -387Q433 -405 405 -405H105H106ZM405 -363Q415 -363 421 -357Q427 -351 427 -341.5Q427 -332 421 -326Q415 -320 405.5 -320Q396 -320 390 -326Q384 -332 384 -341.5Q384 -351 390 -357Q396 -363 405 -363ZM265 -243L384 -124V-171Q384 -183 373 -190L269 -241Q268 -241 267 -242Q266 -243 265 -243ZM218 -181L260 -139L256 -137L192 -171ZM171 -134L235 -100V-36L171 -70ZM292 -107L333 -66L277 -36V-100Z"/>
</svg>