<svg xmlns="http://www.w3.org/2000/svg" viewBox="0 -512 512 512">
	<path fill="#000000" d="M363 -256H149V-363H363ZM277 -75Q277 -60 281 -43H85V-192Q85 -210 97.5 -222.5Q110 -235 128 -235H384Q396 -235 405.5 -229Q415 -223 421 -213H416Q378 -213 346.5 -194.5Q315 -176 296 -144Q277 -112 277 -75ZM213 -192H128V-149H213ZM405 -21Q383 -21 367.5 -37Q352 -53 352 -75Q352 -87 358 -99L334 -122Q320 -100 320 -75Q320 -39 345 -14Q370 11 405 11V43L453 -5L405 -53ZM405 -160V-192L357 -144L405 -96V-128Q427 -128 443 -112.5Q459 -97 459 -75Q459 -62 453 -51L476 -28Q491 -49 491 -75Q491 -110 466 -135Q441 -160 405 -160Z"/>
</svg>