<svg xmlns="http://www.w3.org/2000/svg" viewBox="0 -512 512 512">
	<path fill="#000000" d="M30 -414L477 33L447 63L384 0H128V-85H43V-213Q43 -240 61.5 -258.5Q80 -277 107 -277L0 -384ZM128 -128V-171H213L149 -235H107Q98 -235 91.5 -228.5Q85 -222 85 -213V-128ZM171 -43H341L256 -128H171ZM171 -341V-334L128 -376V-384H384V-277H405Q432 -277 450.5 -258.5Q469 -240 469 -213V-85H419L334 -171H384V-128H427V-213Q427 -222 420.5 -228.5Q414 -235 405 -235H270L227 -277H341V-341ZM405 -203Q405 -194 399 -187.5Q393 -181 384 -181Q375 -181 369 -187.5Q363 -194 363 -202.5Q363 -211 369 -217.5Q375 -224 384 -224Q393 -224 399 -217.5Q405 -211 405 -203Z"/>
</svg>