<svg xmlns="http://www.w3.org/2000/svg" viewBox="0 -512 512 512">
	<path fill="#000000" d="M395 -149Q355 -149 327 -121Q299 -93 299 -53Q299 -13 327 15Q355 43 395 43Q435 43 463 15Q491 -13 491 -53Q491 -93 463 -121Q435 -149 395 -149ZM395 11Q368 11 349.5 -8Q331 -27 331 -53Q331 -71 340 -85L427 2Q413 11 395 11ZM450 -21L363 -108Q377 -117 395 -117Q421 -117 440 -98.5Q459 -80 459 -53Q459 -35 450 -21ZM149 -128V-171H235V-128ZM128 -85V-192H427Q427 -210 414.5 -222.5Q402 -235 384 -235H363V-363H149V-235H128Q110 -235 97.5 -222.5Q85 -210 85 -192V-43H257Q256 -46 256 -53Q256 -68 260 -85ZM192 -320H320V-235H192Z"/>
</svg>