<svg xmlns="http://www.w3.org/2000/svg" viewBox="0 -512 512 512">
	<path fill="#000000" d="M405 -320Q414 -320 420.5 -326Q427 -332 427 -341Q427 -350 420.5 -356.5Q414 -363 405 -363Q396 -363 390 -356.5Q384 -350 384 -341Q384 -332 390 -326Q396 -320 405 -320ZM405 -405Q432 -405 450.5 -386.5Q469 -368 469 -341V-213H384V-299H128V-213H43V-341Q43 -368 61.5 -386.5Q80 -405 107 -405ZM384 -59Q384 -46 373 -40L268 17Q263 21 256 21Q249 21 244 17L139 -40Q128 -46 128 -59V-171Q128 -183 139 -189L244 -241Q249 -245 256 -245Q263 -245 268 -241L373 -189Q384 -183 384 -171ZM256 -199L193 -171L256 -137L319 -171ZM171 -71L235 -36V-100L171 -134ZM341 -71V-134L277 -100V-36Z"/>
</svg>