<svg xmlns="http://www.w3.org/2000/svg" viewBox="0 -512 512 512">
	<path fill="#000000" d="M405 -277Q432 -277 450.5 -258.5Q469 -240 469 -213V-85H384V0H128V-85H43V-213Q43 -240 61.5 -258.5Q80 -277 107 -277H128V-384H384V-277ZM171 -341V-277H341V-341ZM341 -43V-128H171V-43ZM384 -128H427V-213Q427 -222 420.5 -228.5Q414 -235 405 -235H107Q98 -235 91.5 -228.5Q85 -222 85 -213V-128H128V-171H384ZM405 -203Q405 -194 399 -187.5Q393 -181 384 -181Q375 -181 369 -187.5Q363 -194 363 -202.5Q363 -211 369 -217.5Q375 -224 384 -224Q393 -224 399 -217.5Q405 -211 405 -203Z"/>
</svg>