<svg xmlns="http://www.w3.org/2000/svg" viewBox="0 -512 512 512">
	<path fill="#000000" d="M105 -364L135 -334Q168 -367 212 -378.5Q256 -390 300 -378.5Q344 -367 377 -334L407 -364Q366 -406 311 -420Q256 -434 201 -420Q146 -406 105 -364ZM166 -304L196 -274Q221 -299 256 -299Q291 -299 316 -274L346 -304Q322 -329 289 -337.5Q256 -346 223 -337.5Q190 -329 166 -304ZM405 -149Q396 -149 390 -155.5Q384 -162 384 -171Q384 -180 390 -186Q396 -192 405 -192Q414 -192 420.5 -186Q427 -180 427 -171Q427 -162 420.5 -155.5Q414 -149 405 -149ZM341 -21H171V-128H341ZM405 -235H107Q80 -235 61.5 -216Q43 -197 43 -171V-64H128V21H384V-64H469V-171Q469 -197 450.5 -216Q432 -235 405 -235Z"/>
</svg>