<svg xmlns="http://www.w3.org/2000/svg" viewBox="0 -512 512 512">
	<path fill="#000000" d="M433 -45Q448 -71 448 -96Q448 -136 420 -164Q392 -192 352 -192Q312 -192 284 -164Q256 -136 256 -96Q256 -56 284 -28Q312 0 352 0Q382 0 403 -15L469 51L499 21ZM352 -43Q330 -43 314.5 -58.5Q299 -74 299 -96Q299 -118 314.5 -133.5Q330 -149 352 -149Q374 -149 389.5 -133.5Q405 -118 405 -96Q405 -74 389.5 -58.5Q374 -43 352 -43ZM384 -299H128V-384H384ZM128 0V-85H43V-213Q43 -241 61 -259Q79 -277 107 -277H405Q433 -277 451 -259Q469 -241 469 -213V-171Q450 -200 419 -217.5Q388 -235 352 -235Q310 -235 275 -211Q240 -187 224 -149H171V-43H224Q232 -23 252 0Z"/>
</svg>