<svg xmlns="http://www.w3.org/2000/svg" viewBox="0 -512 512 512">
	<path fill="#000000" d="M209 0Q208 -2 205 -7Q198 -20 196 -28L188 -43H171V-149H277Q320 -171 363 -171Q422 -171 469 -137V-213Q469 -241 451 -259Q433 -277 405 -277H107Q79 -277 61 -259Q43 -241 43 -213V-85H128V0ZM405 -235Q415 -235 421 -229Q427 -223 427 -213.5Q427 -204 421 -198Q415 -192 405.5 -192Q396 -192 390 -198Q384 -204 384 -213.5Q384 -223 390 -229Q396 -235 405 -235ZM384 -299H128V-384H384ZM363 -64Q372 -64 378 -58Q384 -52 384 -42.5Q384 -33 378 -27Q372 -21 362.5 -21Q353 -21 347 -27Q341 -33 341 -42.5Q341 -52 347 -58Q353 -64 363 -64ZM363 -128Q320 -128 284.5 -104Q249 -80 235 -43Q249 -5 284.5 19Q320 43 362.5 43Q405 43 440.5 19Q476 -5 491 -43Q476 -80 440.5 -104Q405 -128 363 -128ZM363 11Q340 11 324.5 -4.5Q309 -20 309 -42.5Q309 -65 324.5 -80.5Q340 -96 362.5 -96Q385 -96 400.5 -80.5Q416 -65 416 -42.5Q416 -20 400.5 -4.5Q385 11 363 11Z"/>
</svg>