<svg xmlns="http://www.w3.org/2000/svg" viewBox="0 -512 512 512">
	<path fill="#000000" d="M363 -256H149V-363H363ZM256 -53Q256 -46 257 -43H85V-192Q85 -210 97.5 -222.5Q110 -235 128 -235H384Q402 -235 414.5 -222.5Q427 -210 427 -192V-188Q409 -192 395 -192Q357 -192 325 -173.5Q293 -155 274.5 -123Q256 -91 256 -53ZM213 -192H128V-149H213ZM469 -53V-139L444 -114Q419 -139 384 -139Q349 -139 324 -114Q299 -89 299 -53.5Q299 -18 324 7Q349 32 384 32Q411 32 432.5 17.5Q454 3 463 -21H427Q419 -11 408 -5.5Q397 0 384 0Q362 0 346.5 -15.5Q331 -31 331 -53Q331 -75 346.5 -91Q362 -107 384 -107Q406 -107 422 -91L384 -53Z"/>
</svg>