<svg xmlns="http://www.w3.org/2000/svg" viewBox="0 -512 512 512">
	<path fill="#000000" d="M363 -256H149V-363H363ZM256 -53Q256 -46 257 -43H85V-192Q85 -210 97.5 -222.5Q110 -235 128 -235H384Q402 -235 414.5 -222.5Q427 -210 427 -192V-188Q409 -192 395 -192Q357 -192 325 -173.5Q293 -155 274.5 -123Q256 -91 256 -53ZM213 -192H128V-149H213ZM491 -53Q491 -13 463 15Q435 43 395 43Q355 43 327 15Q299 -13 299 -53Q299 -93 327 -121Q355 -149 395 -149Q435 -149 463 -121Q491 -93 491 -53ZM427 2L340 -85Q331 -71 331 -53Q331 -27 349.5 -8Q368 11 395 11Q413 11 427 2ZM459 -53Q459 -80 440 -98.5Q421 -117 395 -117Q377 -117 363 -108L450 -21Q459 -35 459 -53Z"/>
</svg>