<svg xmlns="http://www.w3.org/2000/svg" viewBox="0 -512 512 512">
	<path fill="#000000" d="M448 -96Q448 -83 437 -77L268 17Q263 21 256 21Q249 21 244 17L75 -77Q64 -83 64 -96V-288Q64 -301 75 -307L244 -401Q249 -405 256 -405Q263 -405 268 -401L437 -307Q448 -301 448 -288ZM107 -256V-128H133V-171H149Q167 -171 179.5 -183.5Q192 -196 192 -213.5Q192 -231 179.5 -243.5Q167 -256 149 -256ZM133 -192V-235H144Q153 -235 159 -228.5Q165 -222 165 -213Q165 -204 159 -198Q153 -192 144 -192ZM208 -256V-128H235V-171H251L265 -128H293L276 -179Q293 -192 293 -213Q293 -231 280.5 -243.5Q268 -256 251 -256ZM235 -192V-235H245Q254 -235 260.5 -228.5Q267 -222 267 -213Q267 -204 260.5 -198Q254 -192 245 -192ZM363 -256Q341 -256 325 -237.5Q309 -219 309 -192Q309 -165 325 -146.5Q341 -128 363 -128Q385 -128 400.5 -146.5Q416 -165 416 -192Q416 -219 400.5 -237.5Q385 -256 363 -256ZM363 -229Q375 -229 383.5 -218Q392 -207 392 -192Q392 -177 383.5 -166Q375 -155 363 -155Q351 -155 342 -165.5Q333 -176 333 -192Q333 -208 342 -218.5Q351 -229 363 -229Z"/>
</svg>