<svg xmlns="http://www.w3.org/2000/svg" viewBox="0 -512 512 512">
	<path fill="#000000" d="M277 -405V-362Q323 -356 359.5 -328.5Q396 -301 413.5 -259Q431 -217 426 -171Q418 -113 376.5 -71.5Q335 -30 277 -23V20Q335 14 381 -19.5Q427 -53 450.5 -104.5Q474 -156 468 -213Q464 -263 437.5 -305Q411 -347 369 -373.5Q327 -400 277 -405ZM235 -404Q170 -398 121 -357L151 -326Q188 -355 235 -361ZM91 -327Q50 -278 44 -213H86Q93 -260 121 -297ZM44 -171Q50 -107 91 -57L121 -87Q92 -125 87 -171ZM151 -56L121 -27Q171 14 235 21V-21Q189 -27 151 -56ZM311 -277L256 -222L201 -277L171 -247L226 -192L171 -137L201 -107L256 -162L311 -107L341 -137L286 -192L341 -247Z"/>
</svg>