<svg xmlns="http://www.w3.org/2000/svg" viewBox="0 -512 512 512">
	<path fill="#000000" d="M277 -64H235V-107H277ZM277 -128H235Q235 -154 247 -171Q254 -182 272 -196Q286 -206 291 -212Q299 -222 299 -235Q299 -252 286.5 -264.5Q274 -277 256 -277Q238 -277 225.5 -264.5Q213 -252 213 -235H171Q171 -270 196 -295Q221 -320 256 -320Q291 -320 316 -295Q341 -270 341 -235Q341 -216 331 -202Q325 -193 309 -179Q293 -165 287 -157Q277 -144 277 -128ZM469 -192Q469 -138 443.5 -91Q418 -44 374.5 -14.5Q331 15 277 20V-23Q319 -28 353 -51.5Q387 -75 407 -112Q427 -149 427 -192Q427 -235 407 -272Q387 -309 353 -332.5Q319 -356 277 -361V-404Q331 -399 374.5 -369.5Q418 -340 443.5 -293Q469 -246 469 -192ZM235 -404V-361Q189 -356 151 -327L121 -357Q171 -398 235 -404ZM87 -213H44Q50 -277 91 -327L121 -297Q92 -260 87 -213ZM235 -23V20Q170 14 121 -27L151 -57Q189 -28 235 -23ZM44 -171H87Q92 -125 121 -87L91 -57Q50 -107 44 -171Z"/>
</svg>