<svg xmlns="http://www.w3.org/2000/svg" viewBox="0 -512 512 512">
	<path fill="#000000" d="M277 -405Q327 -400 369 -373.5Q411 -347 437.5 -305Q464 -263 468 -213Q474 -156 450.5 -104.5Q427 -53 381 -19.5Q335 14 277 20V-23Q335 -30 376.5 -71.5Q418 -113 426 -171Q431 -217 413.5 -259Q396 -301 359.5 -328.5Q323 -356 277 -362ZM235 -404V-361Q188 -355 151 -326L121 -357Q170 -398 235 -404ZM91 -327L121 -297Q93 -260 86 -213H44Q50 -278 91 -327ZM44 -171H87Q92 -125 121 -87L91 -57Q50 -107 44 -171ZM151 -56Q189 -27 235 -21V21Q171 14 121 -27ZM256 -96L160 -192H235V-277H277V-192H352Z"/>
</svg>