<svg xmlns="http://www.w3.org/2000/svg" viewBox="0 -512 512 512">
	<path fill="#000000" d="M277 -405V-363Q323 -357 359.5 -329.5Q396 -302 413.5 -260Q431 -218 426 -172Q418 -114 377 -72.5Q336 -31 277 -24V19Q335 12 380.5 -21.5Q426 -55 449 -107Q472 -159 466 -217Q461 -266 435 -307Q409 -348 367.5 -374Q326 -400 277 -405ZM235 -405Q171 -399 121 -358L151 -326Q188 -355 235 -361V-404ZM91 -327Q50 -278 44 -213H86Q93 -260 121 -297ZM44 -171Q50 -107 91 -57L121 -87Q92 -125 87 -171ZM151 -56L121 -27Q171 14 235 21V-21Q189 -27 151 -56ZM183 -90L203 -173L139 -228L223 -236L256 -313L289 -235L373 -228L309 -173L329 -90L256 -134Z"/>
</svg>