<svg xmlns="http://www.w3.org/2000/svg" viewBox="0 -512 512 512">
	<path fill="#000000" d="M277 -363V-405Q326 -400 367.5 -374Q409 -348 435 -307Q461 -266 466 -217Q472 -159 449 -107Q426 -55 380.5 -21.5Q335 12 277 19V-24Q336 -31 377 -72.5Q418 -114 426 -172Q431 -218 413.5 -260Q396 -302 359.5 -329.5Q323 -357 277 -363ZM121 -358Q171 -399 235 -405V-361Q188 -355 151 -326ZM44 -213Q50 -278 91 -327L121 -297Q93 -260 86 -213ZM91 -57Q50 -107 44 -171H87Q92 -125 121 -87ZM121 -27L151 -56Q189 -27 235 -21V21Q171 14 121 -27ZM256 -85L289 -158L363 -192L289 -225L256 -299L223 -225L149 -192L223 -158Z"/>
</svg>