<svg xmlns="http://www.w3.org/2000/svg" viewBox="0 -512 512 512">
	<path fill="#000000" d="M277 -405V-404V-362Q323 -356 359.5 -328.5Q396 -301 413.5 -259Q431 -217 426 -171Q418 -113 376.5 -71.5Q335 -30 277 -23V20Q335 14 381 -19.5Q427 -53 450.5 -104.5Q474 -156 468 -213Q464 -263 437.5 -305Q411 -347 369 -373.5Q327 -400 277 -405ZM235 -404Q170 -398 121 -357L151 -326Q188 -355 235 -361ZM91 -327Q50 -278 44 -213H86Q93 -260 121 -297ZM44 -171Q50 -107 91 -57L121 -87Q92 -125 87 -171ZM151 -56L121 -27Q171 14 235 21V-21Q189 -27 151 -56ZM359 -124L271 -212Q278 -228 274 -246.5Q270 -265 256.5 -278.5Q243 -292 223 -295.5Q203 -299 185 -291L227 -249L198 -220L156 -262Q147 -244 150.5 -224.5Q154 -205 168 -191Q182 -177 200 -173Q218 -169 235 -176L322 -88Q325 -85 329 -85Q333 -85 336 -88L358 -110Q361 -113 361.5 -117.5Q362 -122 359 -124Z"/>
</svg>