<svg xmlns="http://www.w3.org/2000/svg" viewBox="0 -512 512 512">
	<path fill="#000000" d="M341 -320Q304 -320 274 -299H85Q68 -299 55.5 -286.5Q43 -274 43 -256V-128Q43 -110 55.5 -97.5Q68 -85 85 -85H107V-64Q107 -55 113 -49Q119 -43 128 -43H171Q180 -43 186 -49Q192 -55 192 -64V-85H320V-64Q320 -55 326 -49Q332 -43 341 -43H384Q393 -43 399 -49Q405 -55 405 -64V-85H427Q444 -85 456.5 -97.5Q469 -110 469 -128V-256Q469 -274 456.5 -286.5Q444 -299 427 -299H409Q378 -320 341 -320ZM341 -288Q372 -288 394 -266Q416 -244 416 -213Q416 -182 394 -160.5Q372 -139 341 -139Q310 -139 288.5 -160.5Q267 -182 267 -213Q267 -244 288.5 -266Q310 -288 341 -288ZM85 -256H171V-235H85ZM341 -256Q324 -256 311.5 -243.5Q299 -231 299 -213.5Q299 -196 311.5 -183.5Q324 -171 341.5 -171Q359 -171 371.5 -183.5Q384 -196 384 -213.5Q384 -231 371.5 -243.5Q359 -256 341 -256ZM85 -213H171V-192H85ZM85 -171H171V-149H85Z"/>
</svg>