<svg xmlns="http://www.w3.org/2000/svg" viewBox="0 -512 512 512">
	<path fill="#000000" d="M341 -256Q325 -256 312.5 -245Q300 -234 299 -217L345 -171Q364 -172 374.5 -185.5Q385 -199 384 -215.5Q383 -232 372 -244Q361 -256 341 -256ZM320 -142L404 -57V-58ZM163 -299L270 -192ZM427 -299H409Q378 -320 341 -320Q304 -320 274 -299H217L273 -243Q283 -267 305 -278.5Q327 -290 351.5 -287Q376 -284 394.5 -266Q413 -248 415.5 -223.5Q418 -199 406.5 -177Q395 -155 371 -145L431 -85Q447 -87 458 -99Q469 -111 469 -128V-256Q469 -274 456.5 -286.5Q444 -299 427 -299ZM341 -256Q325 -256 312.5 -245Q300 -234 299 -217L345 -171Q364 -172 374.5 -185.5Q385 -199 384 -215.5Q383 -232 372 -244Q361 -256 341 -256ZM341 -256Q325 -256 312.5 -245Q300 -234 299 -217L345 -171Q364 -172 374.5 -185.5Q385 -199 384 -215.5Q383 -232 372 -244Q361 -256 341 -256ZM475 13L54 -408L27 -381L109 -299H85Q68 -299 55.5 -286.5Q43 -274 43 -256V-128Q43 -110 55.5 -97.5Q68 -85 85 -85H107V-64Q107 -55 113 -49Q119 -43 128 -43H171Q179 -43 185.5 -49Q192 -55 192 -64V-85H320V-64Q320 -55 326.5 -49Q333 -43 341 -43H365L448 40ZM171 -149H85V-171H171ZM171 -192H85V-213H171ZM171 -235H85V-256H151L171 -237ZM54 -408L163 -299ZM163 -299L270 -192ZM404 -58V-57L320 -142ZM163 -299L54 -408ZM270 -192L163 -299ZM404 -58V-57L320 -142Z"/>
</svg>