<svg xmlns="http://www.w3.org/2000/svg" viewBox="0 -512 512 512">
	<path fill="#000000" d="M363 -317V-363Q363 -380 350.5 -392.5Q338 -405 320 -405H192Q174 -405 161.5 -392.5Q149 -380 149 -363V-317Q121 -310 103 -287Q85 -264 85 -235V-64Q85 -29 110 -4Q135 21 171 21H341Q377 21 402 -4Q427 -29 427 -64V-235Q427 -264 409 -287Q391 -310 363 -317ZM192 -363H320V-320H277Q277 -329 271 -335Q265 -341 256 -341Q247 -341 241 -335Q235 -329 235 -320H192ZM171 -277H341Q359 -277 371.5 -264.5Q384 -252 384 -235V-171H128V-235Q128 -252 140.5 -264.5Q153 -277 171 -277ZM341 -21H171Q153 -21 140.5 -33.5Q128 -46 128 -64V-128H384V-64Q384 -46 371.5 -33.5Q359 -21 341 -21Z"/>
</svg>