<svg xmlns="http://www.w3.org/2000/svg" viewBox="0 -512 512 512">
	<path fill="#000000" d="M43 0V-128H75Q64 -159 64 -192Q64 -244 90 -288Q116 -332 160 -358Q204 -384 256 -384H469V-256H437Q448 -225 448 -192Q448 -140 422 -96Q396 -52 352 -26Q308 0 256 0ZM107 -192Q107 -152 127 -117L201 -160Q192 -175 192 -192Q192 -212 204 -229L134 -279Q107 -239 107 -192ZM256 -43Q297 -43 331.5 -63Q366 -83 385 -117L311 -160Q303 -145 288 -136.5Q273 -128 256 -128H250L242 -43ZM256 -256Q275 -256 291 -245.5Q307 -235 314 -218L392 -254Q374 -293 337.5 -317Q301 -341 256 -341ZM256 -213Q247 -213 241 -207Q235 -201 235 -192Q235 -183 241 -177Q247 -171 256 -171Q265 -171 271 -177Q277 -183 277 -192Q277 -201 271 -207Q265 -213 256 -213Z"/>
</svg>