<svg xmlns="http://www.w3.org/2000/svg" viewBox="0 -512 512 512">
	<path fill="#000000" d="M471 11L51 -412L23 -384L102 -305Q64 -253 64 -192Q64 -160 75 -128H43V0H256Q317 0 369 -38L444 36ZM126 -117Q107 -149 107 -192Q107 -235 132 -275L196 -211Q192 -203 192 -192Q192 -177 201 -160ZM256 -43H241L250 -128H256Q262 -128 275 -132L339 -68Q299 -43 256 -43ZM256 -260L158 -358Q209 -384 256 -384H469V-256H437Q448 -224 448 -192Q448 -145 422 -94L260 -256Q278 -254 292.5 -244Q307 -234 314 -220L390 -256Q374 -293 337 -317Q300 -341 256 -341Z"/>
</svg>