<svg xmlns="http://www.w3.org/2000/svg" viewBox="0 -512 512 512">
	<path fill="#000000" d="M449 -189Q444 -189 441 -186L419 -164L463 -121L484 -142Q488 -145 488 -150Q488 -155 484 -158L457 -186Q453 -189 449 -189ZM407 -152L277 -23V21H321L451 -108ZM236 -41Q232 -43 224 -43Q200 -43 183 -26Q166 -9 166 15V21H85Q68 21 55.5 8.5Q43 -4 43 -21V-102H49Q73 -102 90 -119Q107 -136 107 -160Q107 -184 90 -201Q73 -218 49 -218H43V-299Q43 -316 55.5 -328.5Q68 -341 85 -341H150Q154 -369 175 -387Q196 -405 224 -405Q252 -405 273 -387Q294 -369 298 -341H363Q380 -341 392.5 -328.5Q405 -316 405 -299V-234Q415 -232 427 -227Q416 -221 410 -216L387 -192H363V-299H256V-331Q256 -344 246.5 -353.5Q237 -363 224 -363Q211 -363 201.5 -353.5Q192 -344 192 -331V-299H85V-253Q114 -242 131.5 -217Q149 -192 149 -160Q149 -128 131.5 -103Q114 -78 85 -67V-21H131Q142 -50 167 -67.5Q192 -85 224 -85Q249 -85 269 -75Z"/>
</svg>