<svg xmlns="http://www.w3.org/2000/svg" viewBox="0 -512 512 512">
	<path fill="#000000" d="M405 -19L458 12L444 -48L491 -88L429 -93L405 -149L381 -93L320 -88L367 -48L352 12ZM491 -160Q491 -160 491 -159Q454 -192 405 -192Q371 -192 341.5 -175Q312 -158 294.5 -128.5Q277 -99 277 -64Q277 -55 279 -43H272Q264 -55 251.5 -61.5Q239 -68 224 -68Q200 -68 183 -51.5Q166 -35 166 -11V21H85Q68 21 55.5 8.5Q43 -4 43 -21V-102H75Q99 -102 115.5 -119Q132 -136 132 -160Q132 -184 115.5 -201Q99 -218 75 -218H43V-299Q43 -316 55.5 -328.5Q68 -341 85 -341H171V-373Q171 -395 186.5 -411Q202 -427 224 -427Q246 -427 261.5 -411Q277 -395 277 -373V-341H363Q380 -341 392.5 -328.5Q405 -316 405 -299V-213H437Q459 -213 475 -197.5Q491 -182 491 -160Z"/>
</svg>