<svg xmlns="http://www.w3.org/2000/svg" viewBox="0 -512 512 512">
	<path fill="#000000" d="M278 -30Q272 -47 257.5 -57.5Q243 -68 224 -68Q200 -68 183 -51.5Q166 -35 166 -11V21H85Q68 21 55.5 8.5Q43 -4 43 -21V-102H75Q99 -102 115.5 -119Q132 -136 132 -160Q132 -184 115.5 -201Q99 -218 75 -218H43V-299Q43 -316 55.5 -328.5Q68 -341 85 -341H171V-373Q171 -395 186.5 -411Q202 -427 224 -427Q246 -427 261.5 -411Q277 -395 277 -373V-341H363Q380 -341 392.5 -328.5Q405 -316 405 -299V-213H437Q459 -213 475 -197.5Q491 -182 491 -160Q491 -150 487 -141Q451 -171 405 -171Q371 -171 341.5 -153.5Q312 -136 294.5 -106.5Q277 -77 277 -43Q277 -34 278 -30ZM320 -64V-21H491V-64Z"/>
</svg>