<svg xmlns="http://www.w3.org/2000/svg" viewBox="0 -512 512 512">
	<path fill="#000000" d="M282 21V15Q282 -9 265 -26Q248 -43 224 -43Q200 -43 183 -26Q166 -9 166 15V21H85Q68 21 55.5 8.5Q43 -4 43 -21V-102H49Q73 -102 90 -119Q107 -136 107 -160Q107 -184 90 -201Q73 -218 49 -218H43V-299Q43 -316 55.5 -328.5Q68 -341 85 -341H150Q154 -369 175 -387Q196 -405 224 -405Q252 -405 273 -387Q294 -369 298 -341H363Q380 -341 392.5 -328.5Q405 -316 405 -299V-234Q429 -230 446 -214.5Q463 -199 467 -176Q438 -192 405 -192H363V-299H256V-331Q256 -344 246.5 -353.5Q237 -363 224 -363Q211 -363 201.5 -353.5Q192 -344 192 -331V-299H85V-253Q114 -242 131.5 -217Q149 -192 149 -160Q149 -128 131.5 -103Q114 -78 85 -67V-21H131Q142 -50 167 -67.5Q192 -85 224 -85Q253 -85 277 -70V-64Q277 -15 310 21ZM405 28L418 17L428 8Q462 -25 473 -39Q491 -61 491 -81.5Q491 -102 477 -115Q463 -128 444 -128Q432 -128 422 -123.5Q412 -119 405 -111Q399 -119 388.5 -123.5Q378 -128 367 -128Q348 -128 334 -114Q320 -100 320 -80.5Q320 -61 337 -39Q349 -25 383 8L393 17Z"/>
</svg>