<svg xmlns="http://www.w3.org/2000/svg" viewBox="0 -512 512 512">
	<path fill="#000000" d="M437 -213H405V-299Q405 -316 392.5 -328.5Q380 -341 363 -341H277V-373Q277 -395 261.5 -411Q246 -427 224 -427Q202 -427 186.5 -411Q171 -395 171 -373V-341H85Q68 -341 55.5 -328.5Q43 -316 43 -299V-218H75Q99 -218 115.5 -201Q132 -184 132 -160Q132 -136 115.5 -119Q99 -102 75 -102H43V-21Q43 -4 55.5 8.5Q68 21 85 21H166V-11Q166 -35 183 -51.5Q200 -68 224 -68Q248 -68 265 -51.5Q282 -35 282 -11V21H363Q380 21 392.5 8.5Q405 -4 405 -21V-107H437Q459 -107 475 -122.5Q491 -138 491 -160Q491 -182 475 -197.5Q459 -213 437 -213Z"/>
</svg>