<svg xmlns="http://www.w3.org/2000/svg" viewBox="0 -512 512 512">
	<path fill="#000000" d="M282 21V15Q282 -9 265 -26Q248 -43 224 -43Q200 -43 183 -26Q166 -9 166 15V21H85Q68 21 55.5 8.5Q43 -4 43 -21V-102H49Q73 -102 90 -119Q107 -136 107 -160Q107 -184 90 -201Q73 -218 49 -218H43V-299Q43 -316 55.5 -328.5Q68 -341 85 -341H150Q154 -369 175 -387Q196 -405 224 -405Q252 -405 273 -387Q294 -369 298 -341H363Q380 -341 392.5 -328.5Q405 -316 405 -299V-234Q433 -230 451 -209Q469 -188 469 -160Q469 -156 469 -154Q449 -165 425 -169Q422 -179 413.5 -185.5Q405 -192 395 -192H363V-299H256V-331Q256 -344 246.5 -353.5Q237 -363 224 -363Q211 -363 201.5 -353.5Q192 -344 192 -331V-299H85V-253Q114 -242 131.5 -217Q149 -192 149 -160Q149 -128 131.5 -103Q114 -78 85 -67V-21H131Q142 -50 167 -67.5Q192 -85 223 -85Q254 -85 280 -68Q277 -56 277 -43Q277 -8 295 21ZM451 -118L405 -73L360 -118L330 -88L375 -43L330 3L360 33L405 -13L451 33L481 3L435 -43L481 -88Z"/>
</svg>