<svg xmlns="http://www.w3.org/2000/svg" viewBox="0 -512 512 512">
	<path fill="#000000" d="M405 28L393 17L383 8Q349 -25 337 -39Q320 -61 320 -80.5Q320 -100 334 -114Q348 -128 367 -128Q378 -128 388.5 -123.5Q399 -119 405 -111Q412 -119 422 -123.5Q432 -128 444 -128Q463 -128 477 -115Q491 -102 491 -81.5Q491 -61 473 -39Q462 -25 428 8L418 17ZM437 -213H405V-299Q405 -316 392.5 -328.5Q380 -341 363 -341H277V-373Q277 -395 261.5 -411Q246 -427 224 -427Q202 -427 186.5 -411Q171 -395 171 -373V-341H85Q68 -341 55.5 -328.5Q43 -316 43 -299V-218H75Q99 -218 115.5 -201Q132 -184 132 -160Q132 -136 115.5 -119Q99 -102 75 -102H43V-21Q43 -4 55.5 8.5Q68 21 85 21H166V-11Q166 -35 183 -51.5Q200 -68 224 -68Q239 -68 251.5 -61.5Q264 -55 272 -43H279Q277 -55 277 -64Q277 -99 294.5 -128.5Q312 -158 341.5 -175Q371 -192 405 -192Q454 -192 491 -159V-160Q491 -182 475 -197.5Q459 -213 437 -213Z"/>
</svg>