<svg xmlns="http://www.w3.org/2000/svg" viewBox="0 -512 512 512">
	<path fill="#000000" d="M258 -308V-136Q258 -134 257 -133Q256 -132 255 -132Q218 -132 191.5 -158.5Q165 -185 165 -222Q165 -259 191.5 -285Q218 -311 255 -311Q256 -311 257 -310Q258 -309 258 -308ZM258 -67V-15Q257 7 272 24Q287 41 309 43Q315 43 316 37V-353Q315 -359 309 -361Q272 -376 232.5 -369.5Q193 -363 162 -338.5Q131 -314 116 -276.5Q101 -239 107 -199.5Q113 -160 137.5 -129Q162 -98 200 -83Q225 -73 252 -73Q254 -73 256 -71Q258 -69 258 -67ZM345 -331V-113Q345 -107 346 -105.5Q347 -104 351 -107Q382 -133 395.5 -170.5Q409 -208 402.5 -247Q396 -286 370 -317Q361 -329 351 -336Q347 -339 346 -337Q345 -335 345 -330ZM316 -396Q316 -408 324.5 -417Q333 -426 345.5 -426Q358 -426 366.5 -417Q375 -408 375 -396Q375 -384 366.5 -375Q358 -366 345 -366Q333 -366 324.5 -375Q316 -384 316 -396Z"/>
</svg>