<svg xmlns="http://www.w3.org/2000/svg" viewBox="0 -512 512 512">
	<path fill="#000000" d="M68 -159Q77 -181 89 -196Q101 -211 110 -215Q110 -238 119 -251V-252Q118 -260 122 -268Q125 -327 160 -365Q197 -405 256 -405Q315 -405 352 -365Q387 -327 390 -268Q394 -260 393 -252V-251Q402 -238 402 -215Q412 -211 423.5 -196Q435 -181 444 -159Q456 -131 458 -107.5Q460 -84 450 -79Q443 -76 433.5 -83Q424 -90 414 -104Q407 -73 378 -49Q393 -43 401.5 -35Q410 -27 410 -17Q410 -1 388 10Q366 21 335 21Q307 21 286 12Q265 3 260 -11H252Q247 3 226 12Q205 21 177 21Q146 21 124 10Q102 -1 102 -17Q102 -27 110.5 -35Q119 -43 134 -49Q105 -73 98 -104Q88 -90 78.5 -83Q69 -76 62 -79Q52 -84 54 -107.5Q56 -131 68 -159Z"/>
</svg>