<svg xmlns="http://www.w3.org/2000/svg" viewBox="0 -512 512 512">
	<path fill="#000000" d="M85 -363H213V-235H85ZM427 -363V-235H299V-363ZM299 -128H341V-171H299V-213H341V-171H384V-213H427V-171H384V-128H427V-64H384V-21H341V-64H277V-21H235V-107H299ZM341 -128V-64H384V-128ZM85 -21V-149H213V-21ZM128 -320V-277H171V-320ZM341 -320V-277H384V-320ZM128 -107V-64H171V-107ZM85 -213H128V-171H85ZM192 -213H277V-128H235V-171H192ZM235 -320H277V-235H235ZM43 -405V-320H0V-405Q0 -423 12.5 -435.5Q25 -448 43 -448H128V-405ZM469 -448Q487 -448 499.5 -435.5Q512 -423 512 -405V-320H469V-405H384V-448ZM43 -64V21H128V64H43Q25 64 12.5 51.5Q0 39 0 21V-64ZM469 21V-64H512V21Q512 39 499.5 51.5Q487 64 469 64H384V21Z"/>
</svg>