<svg xmlns="http://www.w3.org/2000/svg" viewBox="0 -512 512 512">
	<path fill="#000000" d="M107 -341H149V-299H107ZM21 -427H235V-213H21ZM64 -384V-256H192V-384ZM107 -85H149V-43H107ZM21 -171H235V43H21ZM64 -128V0H192V-128ZM277 -171H363V-128H405V-171H491V-128H405V-85H491V43H405V0H320V43H277V0H320V-43H277ZM448 0V-43H405V0ZM405 -85H363V-128H320V-43H405ZM484 -377L463 -355L419 -398L441 -419Q444 -423 448.5 -423Q453 -423 457 -419L484 -393Q488 -390 488 -385Q488 -380 484 -377ZM277 -257L407 -387L451 -343L321 -213H277Z"/>
</svg>