<svg xmlns="http://www.w3.org/2000/svg" viewBox="0 -512 512 512">
	<path fill="#000000" d="M117 -427Q157 -427 185 -399Q213 -371 213 -331Q213 -303 199 -279L201 -277H311L313 -279Q299 -303 299 -331Q299 -371 327 -399Q355 -427 395 -427Q435 -427 463 -399Q491 -371 491 -331Q491 -291 463 -263Q435 -235 395 -235Q367 -235 343 -249L320 -226V-158L343 -135Q367 -149 395 -149Q435 -149 463 -121Q491 -93 491 -53Q491 -13 463 15Q435 43 395 43Q355 43 327 15Q299 -13 299 -53Q299 -81 313 -105L311 -107H201L199 -105Q213 -81 213 -53Q213 -13 185 15Q157 43 117 43Q77 43 49 15Q21 -13 21 -53Q21 -93 49 -121Q77 -149 117 -149Q145 -149 169 -135L192 -158V-226L169 -249Q145 -235 117 -235Q77 -235 49 -263Q21 -291 21 -331Q21 -371 49 -399Q77 -427 117 -427ZM117 -384Q95 -384 79.5 -368.5Q64 -353 64 -331Q64 -309 79.5 -293Q95 -277 117 -277Q139 -277 155 -293Q171 -309 171 -331Q171 -353 155 -368.5Q139 -384 117 -384ZM117 -107Q95 -107 79.5 -91Q64 -75 64 -53Q64 -31 79.5 -15.5Q95 0 117 0Q139 0 155 -15.5Q171 -31 171 -53Q171 -75 155 -91Q139 -107 117 -107ZM395 -384Q373 -384 357 -368.5Q341 -353 341 -331Q341 -309 357 -293Q373 -277 395 -277Q417 -277 432.5 -293Q448 -309 448 -331Q448 -353 432.5 -368.5Q417 -384 395 -384ZM395 -107Q373 -107 357 -91Q341 -75 341 -53Q341 -31 357 -15.5Q373 0 395 0Q417 0 432.5 -15.5Q448 -31 448 -53Q448 -75 432.5 -91Q417 -107 395 -107ZM83 -80L108 -66Q112 -69 118 -69Q124 -69 128.5 -64.5Q133 -60 133 -53V-51L157 -37L151 -27L127 -41Q123 -37 117 -37Q111 -37 106 -42Q101 -47 101 -53L102 -55L77 -69ZM77 -315L102 -329L101 -331Q101 -337 106 -342Q111 -347 117 -347Q123 -347 127 -343L151 -357L157 -347L133 -333V-331Q133 -324 128.5 -319.5Q124 -315 118 -315Q112 -315 108 -318L83 -304ZM361 -357L385 -343Q389 -347 395 -347Q401 -347 406 -342Q411 -337 411 -331L410 -329L435 -315L429 -304L404 -318Q400 -315 394 -315Q388 -315 383.5 -319.5Q379 -324 379 -331V-333L355 -347ZM355 -37L379 -53Q379 -60 383.5 -64.5Q388 -69 394 -69Q400 -69 404 -66L429 -80L435 -69L411 -53Q411 -47 406 -42Q401 -37 395 -37Q389 -37 385 -41L361 -27Z"/>
</svg>