<svg xmlns="http://www.w3.org/2000/svg" viewBox="0 -512 512 512">
	<path fill="#000000" d="M309 -160H352V-224H309ZM384 -149Q384 -140 378 -134Q372 -128 363 -128H347V-96H315V-128H299Q290 -128 283.5 -134Q277 -140 277 -149V-235Q277 -244 283.5 -250Q290 -256 299 -256H363Q372 -256 378 -250Q384 -244 384 -235ZM235 -128H203V-171H160V-128H128V-256H160V-203H203V-256H235ZM405 -363H107Q89 -363 76.5 -350.5Q64 -338 64 -320V-64Q64 -46 76.5 -33.5Q89 -21 107 -21H405Q423 -21 435.5 -33.5Q448 -46 448 -64V-320Q448 -338 435.5 -350.5Q423 -363 405 -363Z"/>
</svg>