<svg xmlns="http://www.w3.org/2000/svg" viewBox="0 -512 512 512">
	<path fill="#000000" d="M448 -320V-64Q448 -46 435.5 -33.5Q423 -21 405 -21H107Q89 -21 76.5 -33.5Q64 -46 64 -64V-320Q64 -338 76.5 -350.5Q89 -363 107 -363H405Q423 -363 435.5 -350.5Q448 -338 448 -320ZM256 -235Q256 -243 249.5 -249.5Q243 -256 235 -256H139Q131 -256 124 -249.5Q117 -243 117 -235V-128H149V-224H171V-149H203V-224H224V-128H256ZM309 -256Q300 -256 294 -250Q288 -244 288 -235V-149Q288 -140 294 -134Q300 -128 309 -128H331V-96H357V-128H373Q382 -128 388.5 -134Q395 -140 395 -149V-235Q395 -244 388.5 -250Q382 -256 373 -256ZM320 -224H363V-160H320Z"/>
</svg>