<svg xmlns="http://www.w3.org/2000/svg" viewBox="0 -512 512 512">
	<path fill="#000000" d="M363 -149Q359 -153 352 -161L349 -165Q372 -201 386 -239Q405 -290 405 -341Q405 -372 394 -388.5Q383 -405 363 -405Q345 -405 324.5 -390Q304 -375 286 -348Q267 -317 256 -278Q245 -317 226 -348Q208 -375 187.5 -390Q167 -405 149 -405Q129 -405 118 -388.5Q107 -372 107 -341Q107 -290 126 -239Q140 -201 163 -165L160 -161Q153 -153 149 -149L146 -146Q131 -134 122 -122Q107 -100 107 -75Q107 -35 135 -7Q163 21 203 21Q217 21 231 19Q241 17 249 13L256 11L263 13Q271 17 281 19Q295 21 309 21Q349 21 377 -7Q405 -35 405 -75Q405 -100 390 -122Q381 -134 366 -146ZM360 -362Q363 -355 363 -341Q363 -300 348 -259Q337 -227 319 -197Q307 -206 289 -210Q291 -254 305 -291Q317 -321 334 -341Q349 -358 360 -362ZM149 -341Q149 -355 152 -362Q163 -358 178 -341Q195 -321 207 -291Q221 -254 224 -210Q205 -206 194 -197Q175 -227 164 -259Q149 -300 149 -341ZM309 -21Q284 -21 262 -33Q268 -36 272.5 -42.5Q277 -49 277 -53.5Q277 -58 271 -61Q265 -64 256 -64Q247 -64 241 -61Q235 -58 235 -53.5Q235 -49 239.5 -42.5Q244 -36 250 -33Q228 -21 203 -21Q181 -21 165 -37Q149 -53 149 -75Q149 -93 171 -112Q183 -121 198 -141L199 -142Q213 -159 221 -164Q233 -171 256 -171Q279 -171 291 -164Q299 -159 313 -142L314 -141Q329 -121 341 -112Q363 -93 363 -75Q363 -53 347 -37Q331 -21 309 -21ZM299 -107Q299 -100 295.5 -95.5Q292 -91 288 -91Q284 -91 280.5 -95.5Q277 -100 277 -106.5Q277 -113 280.5 -118Q284 -123 288 -123Q292 -123 295.5 -118Q299 -113 299 -107ZM235 -107Q235 -100 231.5 -95.5Q228 -91 224 -91Q220 -91 216.5 -95.5Q213 -100 213 -106.5Q213 -113 216.5 -118Q220 -123 224 -123Q228 -123 231.5 -118Q235 -113 235 -107Z"/>
</svg>