<svg xmlns="http://www.w3.org/2000/svg" viewBox="0 -512 512 512">
	<path fill="#000000" d="M385 0L327 -101Q327 -128 312.5 -145Q298 -162 276 -162Q262 -162 250 -154.5Q238 -147 232 -135Q243 -141 256 -141Q277 -141 291.5 -126.5Q306 -112 306 -91Q306 -70 291.5 -55Q277 -40 256 -40H326V0H145Q136 0 130.5 -6Q125 -12 125 -20.5Q125 -29 131 -35L141 -45Q133 -49 122 -58Q118 -50 110.5 -45Q103 -40 94 -40Q82 -40 73 -49Q64 -58 64 -70.5Q64 -83 73 -92Q82 -101 94 -101L104 -99V-141Q104 -169 117.5 -192Q131 -215 154.5 -229Q178 -243 205 -243H206Q220 -242 244 -239Q268 -236 275 -237Q286 -240 286 -253Q286 -266 289 -275Q292 -282 298 -291Q273 -303 246 -303Q237 -303 231.5 -309Q226 -315 226 -322.5Q226 -330 230 -335.5Q234 -341 240 -343L226 -344Q217 -344 211 -349.5Q205 -355 205 -363.5Q205 -372 211 -378Q217 -384 226 -384H246Q279 -384 307 -367.5Q335 -351 351 -323H357Q379 -323 398 -310L407 -302Q436 -277 445 -253Q449 -240 448 -232Q448 -212 433.5 -197.5Q419 -183 398 -183L387 -184V-182Q387 -147 361 -122L432 0ZM387 -283Q379 -283 373 -277Q367 -271 367 -262.5Q367 -254 373 -248.5Q379 -243 387.5 -243Q396 -243 402 -248.5Q408 -254 408 -262.5Q408 -271 402 -277Q396 -283 387 -283Z"/>
</svg>