<svg xmlns="http://www.w3.org/2000/svg" viewBox="0 -512 512 512">
	<path fill="#000000" d="M395 -107Q417 -107 432.5 -91.5Q448 -76 448 -53.5Q448 -31 432.5 -15.5Q417 0 394.5 0Q372 0 356.5 -15.5Q341 -31 341 -53.5Q341 -76 356.5 -91.5Q372 -107 395 -107ZM224 -427Q165 -427 132 -416Q99 -405 84 -382Q70 -361 67 -323Q64 -299 64 -239Q64 -205 85 -166Q104 -132 133.5 -103.5Q163 -75 192 -62V43H256V-62Q285 -75 314.5 -103.5Q344 -132 363 -166Q384 -205 384 -239Q384 -300 382 -324Q378 -362 364 -382Q349 -406 316 -416.5Q283 -427 224 -427ZM329 -358Q333 -353 335 -342Q337 -335 339 -320H320V-367Q323 -365 327 -361ZM341 -239Q341 -237 341 -235H320V-299H341ZM299 -149H235V-213H299ZM149 -149V-213H213V-149ZM107 -239Q107 -242 107 -245V-299H128V-235H107ZM149 -299H213V-235H149ZM235 -384Q261 -384 294 -378H299V-320H235ZM213 -320H149V-375Q175 -384 213 -384ZM235 -235V-299H299V-235ZM128 -367V-320H109Q111 -335 113 -342Q115 -353 119 -358ZM111 -213H128V-177L123 -187Q114 -204 111 -213ZM171 -128H213V-100L209 -102Q196 -107 171 -128ZM239 -100H235V-128H277Q252 -107 239 -100ZM320 -177V-213H337Q333 -203 320 -177Z"/>
</svg>