<svg xmlns="http://www.w3.org/2000/svg" viewBox="0 -512 512 512">
	<path fill="#000000" d="M407 -343L377 -313Q400 -289 413.5 -258Q427 -227 427 -192Q427 -146 404 -106.5Q381 -67 341.5 -44Q302 -21 256 -21Q210 -21 170.5 -44Q131 -67 108 -106.5Q85 -146 85 -192Q85 -235 105 -271.5Q125 -308 159 -332Q193 -356 235 -361V-318Q189 -310 158.5 -274.5Q128 -239 128 -192Q128 -157 145 -127.5Q162 -98 191.5 -81Q221 -64 256 -64Q291 -64 320.5 -81Q350 -98 367 -127.5Q384 -157 384 -192Q384 -218 374 -241.5Q364 -265 346 -282L316 -252Q341 -227 341 -192Q341 -157 316 -132Q291 -107 256 -107Q221 -107 196 -132Q171 -157 171 -192Q171 -221 189 -244Q207 -267 235 -274V-229Q225 -223 219 -213.5Q213 -204 213 -192Q213 -174 225.5 -161.5Q238 -149 256 -149Q274 -149 286.5 -161.5Q299 -174 299 -192Q299 -204 293 -213.5Q287 -223 277 -229V-405H256Q214 -405 174.5 -389Q135 -373 105 -343Q75 -313 59 -273.5Q43 -234 43 -192Q43 -150 59 -110.5Q75 -71 105 -41Q135 -11 174.5 5Q214 21 256 21Q298 21 337.5 5Q377 -11 407 -41Q437 -71 453 -110.5Q469 -150 469 -192.5Q469 -235 452.5 -274Q436 -313 407 -343Z"/>
</svg>