<svg xmlns="http://www.w3.org/2000/svg" viewBox="0 -512 512 512">
	<path fill="#000000" d="M256 -235Q274 -235 286.5 -222.5Q299 -210 299 -192Q299 -177 289 -164L356 21H311L256 -129L201 21H156L223 -164Q213 -177 213 -192Q213 -210 225.5 -222.5Q238 -235 256 -235ZM256 -277Q221 -277 196 -252Q171 -227 171 -192Q171 -176 177 -161L158 -110Q128 -146 128 -192Q128 -227 145 -256.5Q162 -286 191.5 -303Q221 -320 256 -320Q291 -320 320.5 -303Q350 -286 367 -256.5Q384 -227 384 -192Q384 -146 354 -110L335 -161Q341 -176 341 -192Q341 -227 316 -252Q291 -277 256 -277ZM256 -363Q210 -363 170.5 -340Q131 -317 108 -277.5Q85 -238 85 -192Q85 -155 100 -122Q115 -89 142 -65L126 -23Q87 -52 65 -96.5Q43 -141 43 -192Q43 -234 59 -273.5Q75 -313 105 -343Q135 -373 174.5 -389Q214 -405 256 -405Q298 -405 337.5 -389Q377 -373 407 -343Q437 -313 453 -273.5Q469 -234 469 -192Q469 -141 447 -96.5Q425 -52 386 -23L370 -65Q397 -89 412 -122Q427 -155 427 -192Q427 -238 404 -277.5Q381 -317 341.5 -340Q302 -363 256 -363Z"/>
</svg>