<svg xmlns="http://www.w3.org/2000/svg" viewBox="0 -512 512 512">
	<path fill="#000000" d="M427 -192H85Q68 -192 55.5 -179.5Q43 -167 43 -149V21H85V-21H427V21H469V-149Q469 -167 456.5 -179.5Q444 -192 427 -192ZM149 -85Q149 -76 143 -70Q137 -64 128 -64Q119 -64 113 -70Q107 -76 107 -85V-128Q107 -137 113 -143Q119 -149 128 -149Q137 -149 143 -143Q149 -137 149 -128ZM235 -85Q235 -76 228.5 -70Q222 -64 213 -64Q204 -64 198 -70Q192 -76 192 -85V-128Q192 -137 198 -143Q204 -149 213 -149Q222 -149 228.5 -143Q235 -137 235 -128ZM320 -85Q320 -76 314 -70Q308 -64 299 -64Q290 -64 283.5 -70Q277 -76 277 -85V-128Q277 -137 283.5 -143Q290 -149 299 -149Q308 -149 314 -143Q320 -137 320 -128ZM405 -85Q405 -76 399 -70Q393 -64 384 -64Q375 -64 369 -70Q363 -76 363 -85V-128Q363 -137 369 -143Q375 -149 384 -149Q393 -149 399 -143Q405 -137 405 -128Z"/>
</svg>