<svg xmlns="http://www.w3.org/2000/svg" viewBox="0 -512 512 512">
	<path fill="#000000" d="M170 -384L139 -337L170 -290L127 -224L90 -243L120 -290L90 -337L133 -403ZM298 -386L267 -339L298 -292L255 -226L218 -245L248 -292L218 -339L261 -405ZM427 -386L396 -339L427 -292L384 -226L347 -245L377 -292L347 -339L389 -405ZM43 21V-149Q43 -167 55.5 -179.5Q68 -192 85 -192H427Q444 -192 456.5 -179.5Q469 -167 469 -149V21H427V-21H85V21ZM128 -149Q119 -149 113 -143Q107 -137 107 -128V-85Q107 -76 113 -70Q119 -64 128 -64Q137 -64 143 -70Q149 -76 149 -85V-128Q149 -137 143 -143Q137 -149 128 -149ZM213 -149Q204 -149 198 -143Q192 -137 192 -128V-85Q192 -76 198 -70Q204 -64 213 -64Q222 -64 228.5 -70Q235 -76 235 -85V-128Q235 -137 228.5 -143Q222 -149 213 -149ZM299 -149Q290 -149 283.5 -143Q277 -137 277 -128V-85Q277 -76 283.5 -70Q290 -64 299 -64Q308 -64 314 -70Q320 -76 320 -85V-128Q320 -137 314 -143Q308 -149 299 -149ZM384 -149Q375 -149 369 -143Q363 -137 363 -128V-85Q363 -76 369 -70Q375 -64 384 -64Q393 -64 399 -70Q405 -76 405 -85V-128Q405 -137 399 -143Q393 -149 384 -149Z"/>
</svg>