<svg xmlns="http://www.w3.org/2000/svg" viewBox="0 -512 512 512">
	<path fill="#000000" d="M256 -405Q198 -405 149 -376.5Q100 -348 71.5 -299Q43 -250 43 -192Q43 -134 71.5 -85Q100 -36 149 -7.5Q198 21 256 21Q314 21 363 -7.5Q412 -36 440.5 -85Q469 -134 469 -192Q469 -250 440.5 -299Q412 -348 363 -376.5Q314 -405 256 -405ZM427 -192H341Q341 -216 329.5 -235.5Q318 -255 299 -265L341 -339Q381 -316 404 -277.5Q427 -239 427 -192ZM256 -235Q274 -235 286.5 -222.5Q299 -210 299 -192Q299 -174 286.5 -161.5Q274 -149 256 -149Q238 -149 225.5 -161.5Q213 -174 213 -192Q213 -210 225.5 -222.5Q238 -235 256 -235ZM171 -339Q178 -327 193 -300L213 -265Q194 -253 182.5 -233.5Q171 -214 171 -192H85Q85 -239 108 -277.5Q131 -316 171 -339ZM171 -45Q178 -57 193 -84L213 -119Q239 -107 256 -107Q279 -107 299 -119L341 -45Q301 -21 256 -21Q211 -21 171 -45Z"/>
</svg>