<svg xmlns="http://www.w3.org/2000/svg" viewBox="0 -512 512 512">
	<path fill="#000000" d="M405 -384H107Q89 -384 76.5 -371.5Q64 -359 64 -341V-43Q64 -25 76.5 -12.5Q89 0 107 0H405Q423 0 435.5 -12.5Q448 -25 448 -43V-341Q448 -359 435.5 -371.5Q423 -384 405 -384ZM365 -171H277V-149H363L361 -133Q359 -114 353 -102Q344 -85 331 -85Q321 -85 314 -91Q310 -94 304.5 -103.5Q299 -113 295 -117Q288 -125 277 -128V-85Q277 -77 271 -70.5Q265 -64 256 -64Q247 -64 241 -70.5Q235 -77 235 -85V-128Q224 -125 217 -117Q213 -113 207.5 -103.5Q202 -94 198 -91Q191 -85 181 -85Q162 -85 154 -117Q150 -133 149 -149H235V-171H147L145 -192H235V-213H145Q146 -222 149 -235H235V-256H157L158 -258Q164 -271 167 -277H235V-299Q235 -307 241 -313.5Q247 -320 256 -320Q265 -320 271 -313.5Q277 -307 277 -299V-277H345Q348 -271 354 -258L355 -256H277V-235H363Q366 -223 367 -213H277V-192H367Z"/>
</svg>