<svg xmlns="http://www.w3.org/2000/svg" viewBox="0 -512 512 512">
	<path fill="#000000" d="M70 -405L43 -378L102 -319L120 -290L90 -243L127 -224L154 -267L229 -192H85Q68 -192 55.5 -179.5Q43 -167 43 -149V21H85V-21H400L427 6V21H469V-6ZM149 -85Q149 -76 143 -70Q137 -64 128 -64Q119 -64 113 -70Q107 -76 107 -85V-128Q107 -137 113 -143Q119 -149 128 -149Q137 -149 143 -143Q149 -137 149 -128ZM235 -85Q235 -76 228.5 -70Q222 -64 213 -64Q204 -64 198 -70Q192 -76 192 -85V-128Q192 -137 198 -143Q204 -149 213 -149Q222 -149 228.5 -143Q235 -137 235 -128ZM320 -85Q320 -76 314 -70Q308 -64 299 -64Q290 -64 283.5 -70Q277 -76 277 -85V-128Q277 -134 281 -140L320 -101ZM347 -245L377 -292L347 -339L389 -405L427 -386L396 -339L427 -292L384 -226ZM469 -149V-60L405 -124V-128Q405 -137 399 -143Q393 -149 384 -149Q382 -149 381 -149L337 -192H427Q444 -192 456.5 -179.5Q469 -167 469 -149ZM248 -292L218 -339L261 -405L298 -386L267 -339L298 -292L274 -256L244 -285ZM160 -369L130 -399L133 -403L170 -384Z"/>
</svg>