<svg xmlns="http://www.w3.org/2000/svg" viewBox="0 -512 512 512">
	<path fill="#000000" d="M256 -363Q302 -363 341.5 -340Q381 -317 404 -277.5Q427 -238 427 -192Q427 -146 404 -106.5Q381 -67 341.5 -44Q302 -21 256 -21Q210 -21 170.5 -44Q131 -67 108 -106.5Q85 -146 85 -192Q85 -238 108 -277.5Q131 -317 170.5 -340Q210 -363 256 -363ZM256 -405Q198 -405 149 -376.5Q100 -348 71.5 -299Q43 -250 43 -192Q43 -134 71.5 -85Q100 -36 149 -7.5Q198 21 256 21Q314 21 363 -7.5Q412 -36 440.5 -85Q469 -134 469 -192Q469 -250 440.5 -299Q412 -348 363 -376.5Q314 -405 256 -405ZM320 -81L282 -145Q269 -139 256 -139Q240 -139 230 -145Q223 -132 205 -103L192 -81Q223 -64 256 -64Q289 -64 320 -81ZM320 -303L282 -239Q294 -232 301.5 -219.5Q309 -207 309 -192H384Q384 -227 366.5 -257Q349 -287 320 -303ZM256 -171Q266 -171 271.5 -176.5Q277 -182 277 -192Q277 -202 271.5 -207.5Q266 -213 256 -213Q246 -213 240.5 -207.5Q235 -202 235 -192Q235 -182 240.5 -176.5Q246 -171 256 -171ZM128 -192H203Q203 -206 210 -218.5Q217 -231 230 -239Q223 -252 205 -281L192 -303Q163 -287 145.5 -257Q128 -227 128 -192Z"/>
</svg>