<svg xmlns="http://www.w3.org/2000/svg" viewBox="0 -512 512 512">
	<path fill="#000000" d="M299 -213Q299 -196 286.5 -183.5Q274 -171 256 -171Q238 -171 225.5 -183.5Q213 -196 213 -213.5Q213 -231 225.5 -243.5Q238 -256 256 -256Q274 -256 286.5 -243.5Q299 -231 299 -213ZM341 -213H469Q469 -271 440.5 -320.5Q412 -370 363 -399L299 -288Q318 -277 329.5 -257Q341 -237 341 -213ZM256 -128Q233 -128 213 -141L181 -86Q154 -40 149 -30Q196 -2 256 -2Q311 -2 363 -30L299 -141Q279 -128 256 -128ZM213 -286Q207 -297 193 -321Q156 -386 149 -399Q101 -371 72 -321.5Q43 -272 43 -213H171Q171 -237 182.5 -256.5Q194 -276 213 -286Z"/>
</svg>