<svg xmlns="http://www.w3.org/2000/svg" viewBox="0 -512 512 512">
	<path fill="#000000" d="M444 36L339 -68L361 -30Q314 -2 254 -2Q199 -2 147 -30Q152 -40 179 -86L211 -141Q237 -128 253 -128Q269 -128 275 -130L173 -235Q173 -231 172 -224Q171 -217 171 -213H43Q43 -276 77 -331L23 -384L51 -412L471 9ZM341 -213H469Q469 -271 440.5 -320.5Q412 -370 363 -399L299 -288Q318 -277 329.5 -257Q341 -237 341 -213ZM260 -256L299 -218Q297 -232 286 -243Q275 -254 260 -256ZM149 -399L130 -386L192 -324Q160 -378 149 -399Z"/>
</svg>