<svg xmlns="http://www.w3.org/2000/svg" viewBox="0 -512 512 512">
	<path fill="#000000" d="M377 -224Q357 -224 340.5 -212.5Q324 -201 317 -181H281V-282L355 -238L377 -274L301 -320L377 -366L356 -402L281 -358V-405H238V-358L164 -402L143 -366L218 -320L142 -274L163 -238L238 -282V-181H203Q194 -206 174 -216.5Q154 -227 131.5 -223Q109 -219 93.5 -202.5Q78 -186 78 -160Q78 -134 93.5 -117.5Q109 -101 131.5 -97Q154 -93 174 -103.5Q194 -114 203 -139H238V-21Q221 -21 208.5 -8.5Q196 4 196 21H324Q324 4 311.5 -8.5Q299 -21 281 -21V-139H317Q325 -115 346.5 -103.5Q368 -92 391.5 -97.5Q415 -103 429.5 -123.5Q444 -144 440.5 -167.5Q437 -191 419.5 -207.5Q402 -224 377 -224ZM142 -139Q133 -139 127 -145Q121 -151 121 -160Q121 -169 127.5 -175.5Q134 -182 142.5 -181.5Q151 -181 157.5 -175Q164 -169 164 -160Q164 -151 157.5 -145Q151 -139 142 -139ZM377 -139Q368 -139 362 -145Q356 -151 355.5 -160Q355 -169 361.5 -175.5Q368 -182 377 -181.5Q386 -181 392 -175Q398 -169 398 -160Q398 -151 392 -145Q386 -139 377 -139Z"/>
</svg>