<svg xmlns="http://www.w3.org/2000/svg" viewBox="0 -512 512 512">
	<path fill="#000000" d="M427 -277H469V-235H427ZM85 -341H427Q444 -341 456.5 -328.5Q469 -316 469 -299H405V-256H107V-171H171V-107H405V-85H469Q469 -68 456.5 -55.5Q444 -43 427 -43H341V-21H299V-43H235V-21H149V-43H85Q68 -43 55.5 -55.5Q43 -68 43 -85V-299Q43 -316 55.5 -328.5Q68 -341 85 -341ZM405 -128H192V-235H405V-213H469V-171H405ZM277 -192V-149H320V-192ZM107 -320V-277H128V-320ZM149 -320V-277H171V-320ZM192 -320V-277H213V-320ZM235 -320V-277H256V-320ZM277 -320V-277H299V-320ZM320 -320V-277H341V-320ZM427 -149H469V-107H427Z"/>
</svg>