<svg xmlns="http://www.w3.org/2000/svg" viewBox="0 -512 512 512">
	<path fill="#000000" d="M427 -256Q406 -256 389.5 -244Q373 -232 366 -213H316Q309 -232 292.5 -244Q276 -256 256 -256Q236 -256 219.5 -244Q203 -232 196 -213H146Q139 -232 122.5 -244Q106 -256 85 -256Q59 -256 40 -237.5Q21 -219 21 -192Q21 -165 40 -146.5Q59 -128 85 -128Q106 -128 122.5 -140Q139 -152 146 -171H196Q203 -152 219.5 -140Q236 -128 256 -128Q276 -128 292.5 -140Q309 -152 316 -171H366Q373 -152 389.5 -140Q406 -128 427 -128Q453 -128 472 -146.5Q491 -165 491 -192Q491 -219 472 -237.5Q453 -256 427 -256Z"/>
</svg>