<svg xmlns="http://www.w3.org/2000/svg" viewBox="0 -512 512 512">
	<path fill="#000000" d="M427 -277Q418 -277 411.5 -283.5Q405 -290 405 -298.5Q405 -307 411.5 -313.5Q418 -320 427 -320V-341H85V-320Q94 -320 100.5 -313.5Q107 -307 107 -298.5Q107 -290 100.5 -283.5Q94 -277 85 -277H43V-128H85Q94 -128 100.5 -121.5Q107 -115 107 -106.5Q107 -98 100.5 -91.5Q94 -85 85 -85V-64H427V-85Q418 -85 411.5 -91.5Q405 -98 405 -106.5Q405 -115 411.5 -121.5Q418 -128 427 -128H469V-277ZM427 -192H405V-171H363V-192H286Q283 -183 274.5 -177Q266 -171 256 -171Q246 -171 237.5 -177Q229 -183 226 -192H149V-171H107V-192H85V-213H107V-235H149V-213H226Q229 -223 237.5 -229Q246 -235 256 -235Q266 -235 274.5 -229Q283 -223 286 -213H363V-235H405V-213H427Z"/>
</svg>