<svg xmlns="http://www.w3.org/2000/svg" viewBox="0 -512 512 512">
	<path fill="#000000" d="M320 -92V-171H352V-111L404 -80L388 -53ZM226 -12L192 21L160 -11L128 21L96 -11L64 21V-405L96 -373L128 -405L160 -373L192 -405L224 -373L256 -405L288 -373L320 -405L352 -373L384 -405L416 -373L448 -405V-211Q468 -190 479.5 -163Q491 -136 491 -107Q491 -66 470.5 -31.5Q450 3 416 23Q382 43 341 43Q312 43 284.5 31.5Q257 20 236 -1Q229 -8 226 -12ZM207 -41Q197 -62 193 -85H128V-128H193Q197 -150 207 -171H128V-213H237Q257 -234 284 -245Q311 -256 341 -256H128V-299H384V-256H341Q375 -256 405 -241V-343H107V-41ZM445 -107Q445 -135 431 -158.5Q417 -182 393 -196Q369 -210 341 -210Q299 -210 268.5 -179.5Q238 -149 238 -107Q238 -79 252 -55Q266 -31 289.5 -17Q313 -3 341 -3Q362 -3 381.5 -11.5Q401 -20 414.5 -33.5Q428 -47 436.5 -66.5Q445 -86 445 -107Z"/>
</svg>