<svg xmlns="http://www.w3.org/2000/svg" viewBox="0 -512 512 512">
	<path fill="#000000" d="M384 -405L416 -373L448 -405V-253L405 -211V-343H107V-41H224V-11L192 21L160 -11L128 21L96 -11L64 21V-405L96 -373L128 -405L160 -373L192 -405L224 -373L256 -405L288 -373L320 -405L352 -373ZM277 -22L408 -153L452 -109L321 21H277ZM423 -168L444 -189Q446 -191 448 -191Q455 -194 459 -189L487 -161Q491 -157 491 -152.5Q491 -148 487 -145L467 -124ZM384 -189L365 -171H128V-213H384ZM323 -128L280 -85H128V-128ZM384 -256V-299H128V-256Z"/>
</svg>