<svg xmlns="http://www.w3.org/2000/svg" viewBox="0 -512 512 512">
	<path fill="#000000" d="M451 -118L405 -73L360 -118L330 -88L375 -43L330 3L360 33L405 -13L451 33L481 3L435 -43L481 -88ZM283 -6L256 21L224 -11L192 21L160 -11L128 21L96 -11L64 21V-405L96 -373L128 -405L160 -373L192 -405L224 -373L256 -405L288 -373L320 -405L352 -373L384 -405L416 -373L448 -405V-163Q427 -171 405 -171V-341H107V-43H277Q277 -24 283 -6ZM310 -128Q293 -110 285 -85H128V-128ZM128 -213H384V-171H128ZM128 -299H384V-256H128Z"/>
</svg>