<svg xmlns="http://www.w3.org/2000/svg" viewBox="0 -512 512 512">
	<path fill="#000000" d="M64 21L96 -11L128 21L160 -11L192 21L226 -12Q229 -8 236 -1Q257 20 284.5 31.5Q312 43 341 43Q382 43 416 23Q450 3 470.5 -31.5Q491 -66 491 -107Q491 -136 479.5 -163Q468 -190 448 -211V-405L416 -373L384 -405L352 -373L320 -405L288 -373L256 -405L224 -373L192 -405L160 -373L128 -405L96 -373L64 -405ZM445 -107Q445 -86 436.5 -66.5Q428 -47 414.5 -33.5Q401 -20 381.5 -11.5Q362 -3 341 -3Q313 -3 289.5 -17Q266 -31 252 -55Q238 -79 238 -107Q238 -149 268.5 -179.5Q299 -210 341 -210Q369 -210 393 -196Q417 -182 431 -158.5Q445 -135 445 -107ZM320 -92V-171H352V-111L404 -80L388 -53Z"/>
</svg>