<svg xmlns="http://www.w3.org/2000/svg" viewBox="0 -512 512 512">
	<path fill="#000000" d="M267 -341Q235 -341 205.5 -329Q176 -317 153.5 -294.5Q131 -272 119 -242.5Q107 -213 107 -181Q107 -138 128.5 -101Q150 -64 186.5 -42.5Q223 -21 266.5 -21Q310 -21 347 -42.5Q384 -64 405.5 -101Q427 -138 427 -181Q427 -213 414.5 -242.5Q402 -272 379.5 -294.5Q357 -317 327.5 -329Q298 -341 267 -341ZM149 -235H192Q201 -235 207 -228.5Q213 -222 213 -213V-192Q213 -184 208 -178Q203 -172 195 -171L220 -128H195L171 -171V-128H149ZM256 -235H299V-213H256V-192H299V-171H256V-149H299V-128H256Q247 -128 241 -134Q235 -140 235 -149V-213Q235 -222 241 -228.5Q247 -235 256 -235ZM341 -235H384V-213H341V-149H384V-128H341Q332 -128 326 -134Q320 -140 320 -149V-213Q320 -222 326 -228.5Q332 -235 341 -235ZM171 -213V-192H192V-213Z"/>
</svg>