<svg xmlns="http://www.w3.org/2000/svg" viewBox="0 -512 512 512">
	<path fill="#000000" d="M107 -75Q107 -70 103.5 -67Q100 -64 96 -64H75Q70 -64 67 -67Q64 -70 64 -75V-85H43Q34 -85 27.5 -91.5Q21 -98 21 -107V-171Q21 -180 27.5 -186Q34 -192 43 -192H405V-235H149L128 -213V-256Q128 -265 134 -271Q140 -277 149 -277H405V-299H448V-277Q457 -277 463 -271Q469 -265 469 -256V-235H448V-192H469Q478 -192 484.5 -186Q491 -180 491 -171V-107Q491 -98 484.5 -91.5Q478 -85 469 -85H448V-75Q448 -70 445 -67Q442 -64 437 -64H416Q412 -64 408.5 -67Q405 -70 405 -75V-85H107ZM64 -149V-128H107V-149ZM128 -149V-128H171V-149ZM437 -160Q428 -160 422 -154Q416 -148 416 -139Q416 -130 422 -123.5Q428 -117 437 -117Q446 -117 452.5 -123.5Q459 -130 459 -139Q459 -148 452.5 -154Q446 -160 437 -160Z"/>
</svg>