<svg xmlns="http://www.w3.org/2000/svg" viewBox="0 -512 512 512">
	<path fill="#000000" d="M465 -119L412 -27Q404 -13 391 -6Q378 1 363 0H320V43L267 -53L320 -149V-107H380L333 -189L425 -242L464 -176Q472 -163 472.5 -147.5Q473 -132 465 -119ZM196 -383H303Q319 -383 331.5 -374.5Q344 -366 351 -353L372 -316L409 -337L353 -243L243 -241L280 -263L250 -315L203 -233L110 -286L148 -353Q155 -366 168 -374.5Q181 -383 196 -383ZM108 -26L54 -119Q47 -132 47.5 -147.5Q48 -163 56 -175L78 -212L41 -233L150 -232L207 -137L170 -159L140 -107H235V0H158Q143 1 129.5 -6Q116 -13 108 -26Z"/>
</svg>