<svg xmlns="http://www.w3.org/2000/svg" viewBox="0 -512 512 512">
	<path fill="#000000" d="M309 -119Q311 -118 311 -115.5Q311 -113 309 -111Q299 -101 280 -97Q268 -95 256 -95Q244 -95 232 -97Q213 -101 204 -111Q202 -113 202 -115.5Q202 -118 203.5 -119.5Q205 -121 207.5 -121Q210 -121 212 -119Q218 -113 232 -109Q243 -107 256 -107Q269 -107 280 -109Q294 -113 301 -119Q305 -123 309 -119ZM229 -170Q229 -179 222.5 -185.5Q216 -192 207 -192Q198 -192 191.5 -185.5Q185 -179 185 -170Q185 -161 191.5 -154Q198 -147 207 -147.5Q216 -148 222.5 -154.5Q229 -161 229 -170ZM305 -192Q296 -192 289.5 -185Q283 -178 283 -169.5Q283 -161 289.5 -154Q296 -147 305 -147Q314 -147 320.5 -154Q327 -161 327 -169.5Q327 -178 320.5 -185Q314 -192 305 -192ZM469 -192Q469 -134 440.5 -85Q412 -36 363 -7.5Q314 21 256 21Q198 21 149 -7.5Q100 -36 71.5 -85Q43 -134 43 -192Q43 -250 71.5 -299Q100 -348 149 -376.5Q198 -405 256 -405Q314 -405 363 -376.5Q412 -348 440.5 -299Q469 -250 469 -192ZM398 -192Q398 -205 389 -214Q380 -223 367.5 -223Q355 -223 346 -214Q312 -239 262 -241L277 -308L323 -298Q323 -289 329.5 -282.5Q336 -276 345 -276Q354 -276 360.5 -283Q367 -290 367 -299Q367 -308 360.5 -314.5Q354 -321 345 -321Q339 -321 333.5 -317.5Q328 -314 325 -308L273 -319Q272 -320 270 -318.5Q268 -317 267 -315L252 -241Q202 -239 167 -214Q158 -223 145 -223Q132 -223 123 -214Q114 -205 114 -192Q114 -182 119 -174.5Q124 -167 132 -163V-154Q132 -131 148.5 -111Q165 -91 193.5 -79Q222 -67 256 -67Q290 -67 318.5 -79Q347 -91 364 -110.5Q381 -130 381 -154Q381 -159 380 -163Q388 -167 393 -175Q398 -183 398 -192Z"/>
</svg>