<svg xmlns="http://www.w3.org/2000/svg" viewBox="0 -512 512 512">
	<path fill="#000000" d="M327 -167Q355 -167 372 -174Q396 -184 396 -207Q396 -210 395 -214L379 -287Q376 -300 370 -306Q363 -314 344 -323.5Q325 -333 299 -343Q270 -353 260 -353Q254 -353 245 -345Q236 -337 228 -337Q220 -337 207 -343Q194 -349 188 -349Q169 -349 159 -321L137 -260V-256Q137 -244 162 -224Q190 -201 229 -186Q277 -167 327 -167ZM400 -193Q404 -175 404 -171Q404 -147 381.5 -134Q359 -121 323 -121Q273 -121 225 -139Q182 -155 154 -179Q126 -203 126 -223Q126 -232 129 -240Q92 -238 72 -229Q43 -217 43 -188Q43 -154 91 -116Q137 -80 206 -56Q278 -31 342 -31Q411 -31 444 -58Q469 -79 469 -113Q469 -135 451 -157Q433 -179 400 -193Z"/>
</svg>