<svg xmlns="http://www.w3.org/2000/svg" viewBox="0 -512 512 512">
	<path fill="#000000" d="M271 -320H241L149 -107H192L208 -149H304L320 -107H363ZM220 -181L256 -277L292 -181ZM371 -13L405 21H299V-85L341 -43Q380 -65 403.5 -105Q427 -145 427 -191.5Q427 -238 404 -277.5Q381 -317 341.5 -340Q302 -363 256 -363Q210 -363 170.5 -340Q131 -317 108 -277.5Q85 -238 85 -192Q85 -146 108.5 -106.5Q132 -67 171 -44V3Q113 -22 78 -74.5Q43 -127 43 -192Q43 -250 71.5 -299Q100 -348 149 -376.5Q198 -405 256 -405Q314 -405 363 -376.5Q412 -348 440.5 -299Q469 -250 469 -193Q469 -136 442.5 -89Q416 -42 371 -13Z"/>
</svg>