<svg xmlns="http://www.w3.org/2000/svg" viewBox="0 -512 512 512">
	<path fill="#000000" d="M256 -405Q198 -405 149 -376.5Q100 -348 71.5 -299Q43 -250 43 -192Q43 -134 71.5 -85Q100 -36 149 -7.5Q198 21 256 21Q314 21 363 -7.5Q412 -36 440.5 -85Q469 -134 469 -192Q469 -234 453 -273.5Q437 -313 407 -343Q377 -373 337.5 -389Q298 -405 256 -405ZM384 -213H277L316 -252Q291 -277 257 -277Q223 -277 198.5 -255Q174 -233 171 -199.5Q168 -166 188.5 -140Q209 -114 241.5 -108Q274 -102 302 -120Q330 -138 338 -171H382Q377 -138 356 -112.5Q335 -87 305 -74Q275 -61 241.5 -65Q208 -69 181.5 -88Q155 -107 140.5 -136.5Q126 -166 128 -199.5Q130 -233 147.5 -260.5Q165 -288 194 -304Q223 -320 256 -320Q281 -320 304.5 -310Q328 -300 346 -282L384 -320Z"/>
</svg>