<svg xmlns="http://www.w3.org/2000/svg" viewBox="0 -512 512 512">
	<path fill="#000000" d="M341 -87Q330 -85 320 -85Q310 -85 299 -87V-162L245 -109Q229 -122 216 -139L269 -192H194Q192 -203 192 -213Q192 -223 194 -235H269L216 -288Q223 -298 230 -304Q235 -310 245 -318L299 -265V-340Q310 -341 320 -341Q330 -341 341 -340V-265L395 -318Q411 -305 424 -288L371 -235H446Q448 -223 448 -213Q448 -203 446 -192H371L424 -139Q417 -129 410 -123Q405 -117 395 -109L341 -162ZM107 -43Q107 -60 119.5 -72.5Q132 -85 149.5 -85Q167 -85 179.5 -72.5Q192 -60 192 -42.5Q192 -25 179.5 -12.5Q167 0 149.5 0Q132 0 119.5 -12.5Q107 -25 107 -43Z"/>
</svg>