<svg xmlns="http://www.w3.org/2000/svg" viewBox="0 -512 512 512">
	<path fill="#000000" d="M405 -128V-171H363V-128H277V-299H209Q202 -313 189 -322Q176 -331 160 -331Q144 -331 131 -322Q118 -313 111 -299H107L64 -341H43V-213H64L107 -256H111Q118 -241 131 -232.5Q144 -224 160 -224Q176 -224 189 -232.5Q202 -241 209 -256H235V-85H363V-43H405V-85H469V-128ZM160 -256Q151 -256 145 -262Q139 -268 139 -277Q139 -286 145 -292.5Q151 -299 160 -299Q169 -299 175 -292.5Q181 -286 181 -277Q181 -268 175 -262Q169 -256 160 -256Z"/>
</svg>