<svg xmlns="http://www.w3.org/2000/svg" viewBox="0 -512 512 512">
	<path fill="#000000" d="M448 -128V-171H405V-128H401Q394 -143 381 -151.5Q368 -160 352 -160Q336 -160 323 -151.5Q310 -143 303 -128H277V-299H149V-341H107V-299L64 -341H43V-213H64L107 -256V-213H149V-256H235V-85H303Q310 -71 323 -62Q336 -53 352 -53Q368 -53 381 -62Q394 -71 401 -85H405V-43H448V-85H469V-128ZM352 -85Q343 -85 337 -91.5Q331 -98 331 -107Q331 -116 337 -122Q343 -128 352 -128Q361 -128 367 -122Q373 -116 373 -107Q373 -98 367 -91.5Q361 -85 352 -85Z"/>
</svg>