<svg xmlns="http://www.w3.org/2000/svg" viewBox="0 -512 512 512">
	<path fill="#000000" d="M448 -171L405 -128H401Q394 -143 381 -151.5Q368 -160 352 -160Q336 -160 323 -151.5Q310 -143 303 -128H277V-299H209Q202 -313 189 -322Q176 -331 160 -331Q144 -331 131 -322Q118 -313 111 -299H107L64 -341H43V-213H64L107 -256H111Q118 -241 131 -232.5Q144 -224 160 -224Q176 -224 189 -232.5Q202 -241 209 -256H235V-85H303Q310 -71 323 -62Q336 -53 352 -53Q368 -53 381 -62Q394 -71 401 -85H405L448 -43H469V-171ZM160 -256Q151 -256 145 -262Q139 -268 139 -277Q139 -286 145 -292.5Q151 -299 160 -299Q169 -299 175 -292.5Q181 -286 181 -277Q181 -268 175 -262Q169 -256 160 -256ZM352 -85Q343 -85 337 -91.5Q331 -98 331 -107Q331 -116 337 -122Q343 -128 352 -128Q361 -128 367 -122Q373 -116 373 -107Q373 -98 367 -91.5Q361 -85 352 -85Z"/>
</svg>