<svg xmlns="http://www.w3.org/2000/svg" viewBox="0 -512 512 512">
	<path fill="#000000" d="M43 -192Q43 -140 68.5 -96Q94 -52 138.5 -26Q183 0 235 0Q273 0 308.5 -14.5Q344 -29 371 -55L339 -87Q319 -66 292 -54.5Q265 -43 235 -43Q187 -43 149 -69Q114 -94 97 -135Q80 -176 87 -218Q95 -264 129 -298Q163 -332 209 -339Q251 -347 292 -330Q333 -313 357 -278Q384 -240 384 -192H320L405 -107H407L491 -192H427Q427 -244 401 -288Q375 -332 331 -358Q287 -384 235 -384Q183 -384 138.5 -358Q94 -332 68.5 -288Q43 -244 43 -192Z"/>
</svg>