<svg xmlns="http://www.w3.org/2000/svg" viewBox="0 -512 512 512">
	<path fill="#000000" d="M43 -192Q43 -140 68.5 -95.5Q94 -51 138 -25.5Q182 0 235 0Q273 0 308.5 -14Q344 -28 371 -55L339 -87Q298 -43 235 -43Q187 -43 149 -69Q114 -94 97 -134.5Q80 -175 87 -217Q95 -263 130 -296.5Q165 -330 210 -338Q253 -346 293 -329Q333 -312 358 -277Q384 -240 384 -192H320L405 -107H407L491 -192H427Q427 -244 401 -288.5Q375 -333 331 -358.5Q287 -384 234.5 -384Q182 -384 138 -358.5Q94 -333 68.5 -288.5Q43 -244 43 -192ZM213 -128H256V-85H213ZM213 -299H256V-171H213Z"/>
</svg>