<svg xmlns="http://www.w3.org/2000/svg" viewBox="0 -512 512 512">
	<path fill="#000000" d="M256 -448Q208 -448 165 -430Q122 -412 90 -379L120 -349Q147 -376 182 -390.5Q217 -405 256 -405Q295 -405 330 -390.5Q365 -376 392 -349L422 -379Q389 -412 346.5 -430Q304 -448 256 -448ZM150 -319L180 -289Q195 -304 214.5 -312Q234 -320 256 -320Q278 -320 297.5 -312Q317 -304 332 -289L362 -319Q341 -340 313.5 -351.5Q286 -363 256 -363Q226 -363 198.5 -351.5Q171 -340 150 -319ZM256 -128Q238 -128 225.5 -140.5Q213 -153 213 -170.5Q213 -188 225.5 -200.5Q238 -213 256 -213Q274 -213 286.5 -200.5Q299 -188 299 -170.5Q299 -153 286.5 -140.5Q274 -128 256 -128ZM320 -256H192Q183 -256 177 -250Q171 -244 171 -235V21Q171 30 177 36.5Q183 43 192 43H320Q329 43 335 36.5Q341 30 341 21V-235Q341 -244 335 -250Q329 -256 320 -256Z"/>
</svg>