<svg xmlns="http://www.w3.org/2000/svg" viewBox="0 -512 512 512">
	<path fill="#000000" d="M43 -336L70 -363L448 15L421 43L341 -37V21Q341 30 335 36.5Q329 43 320 43H192Q183 43 177 36.5Q171 30 171 21V-208ZM256 -448Q304 -448 347 -430Q390 -412 422 -379L392 -349Q365 -376 330 -390.5Q295 -405 256 -405Q220 -405 187.5 -392.5Q155 -380 129 -358L99 -388Q131 -416 171.5 -432Q212 -448 256 -448ZM256 -363Q287 -363 314 -351.5Q341 -340 362 -319L332 -289Q317 -304 297.5 -312Q278 -320 256 -320Q219 -320 190 -297L160 -327Q179 -344 204 -353.5Q229 -363 256 -363ZM320 -256Q329 -256 335 -250Q341 -244 341 -235V-145L231 -256ZM214 -164Q216 -150 226 -140Q236 -130 250 -128Z"/>
</svg>