<svg xmlns="http://www.w3.org/2000/svg" viewBox="0 -512 512 512">
	<path fill="#000000" d="M271 -167L291 -186Q290 -207 301.5 -230.5Q313 -254 333.5 -274.5Q354 -295 377.5 -306Q401 -317 421.5 -317Q442 -317 454 -304.5Q466 -292 466.5 -271.5Q467 -251 455.5 -227.5Q444 -204 423.5 -183.5Q403 -163 379.5 -152Q356 -141 336 -141L317 -122Q311 -117 304 -116Q297 -115 290 -119Q275 -114 265 -108Q253 -100 247 -90Q241 -80 235 -56Q229 -32 223 -22Q207 2 162 2Q137 2 122 -3Q99 -11 84 -32L137 -23Q147 -22 166 -31Q185 -40 193 -52Q199 -62 205 -86.5Q211 -111 216 -120Q223 -131 237 -139Q247 -145 265 -151Q265 -161 271 -167ZM149 -405Q178 -405 202.5 -391Q227 -377 241.5 -352.5Q256 -328 256 -299Q256 -270 241.5 -245.5Q227 -221 202.5 -206.5Q178 -192 149 -192Q120 -192 95.5 -206.5Q71 -221 57 -245.5Q43 -270 43 -299Q43 -328 57 -352.5Q71 -377 95.5 -391Q120 -405 149 -405ZM149 -363Q123 -363 104 -344Q85 -325 85 -298.5Q85 -272 104 -253.5Q123 -235 149.5 -235Q176 -235 194.5 -253.5Q213 -272 213 -298.5Q213 -325 194.5 -344Q176 -363 149 -363Z"/>
</svg>