<svg xmlns="http://www.w3.org/2000/svg" viewBox="0 -512 512 512">
	<path fill="#000000" d="M43 -213H78Q85 -232 101.5 -244Q118 -256 139 -256Q165 -256 184 -237.5Q203 -219 203 -192Q203 -172 191 -155L215 -121L280 -363L356 -254L373 -256Q394 -256 410.5 -244Q427 -232 434 -213H469V-171H434Q427 -152 410.5 -140Q394 -128 373 -128Q347 -128 328 -146.5Q309 -165 309 -192Q309 -212 321 -229L297 -263L232 -21L156 -130Q147 -128 139 -128Q118 -128 101.5 -140Q85 -152 78 -171H43ZM373 -224Q360 -224 350.5 -214.5Q341 -205 341 -192Q341 -179 350.5 -169.5Q360 -160 373.5 -160Q387 -160 396 -169.5Q405 -179 405 -192Q405 -205 396 -214.5Q387 -224 373 -224ZM139 -224Q125 -224 116 -214.5Q107 -205 107 -192Q107 -179 116 -169.5Q125 -160 138.5 -160Q152 -160 161.5 -169.5Q171 -179 171 -192Q171 -205 161.5 -214.5Q152 -224 139 -224Z"/>
</svg>