<svg xmlns="http://www.w3.org/2000/svg" viewBox="0 -512 512 512">
	<path fill="#000000" d="M85 -320V-107H192V-192Q192 -210 204.5 -222.5Q217 -235 235 -235H341Q359 -235 371.5 -222.5Q384 -210 384 -192V-107H427V-320ZM0 -21V-64H85Q68 -64 55.5 -76.5Q43 -89 43 -107V-320Q43 -338 55.5 -350.5Q68 -363 85 -363H427Q444 -363 456.5 -350.5Q469 -338 469 -320V-107Q469 -89 456.5 -76.5Q444 -64 427 -64H512V-21H384Q384 -4 371.5 8.5Q359 21 341 21H235Q217 21 204.5 8.5Q192 -4 192 -21ZM245 -21Q241 -21 238 -18Q235 -15 235 -10.5Q235 -6 238 -3Q241 0 245.5 0Q250 0 253 -3Q256 -6 256 -10.5Q256 -15 253 -18Q250 -21 245 -21ZM331 -21Q326 -21 323 -18Q320 -15 320 -10.5Q320 -6 323 -3Q326 0 330.5 0Q335 0 338 -3Q341 -6 341 -10.5Q341 -15 338 -18Q335 -21 331 -21ZM277 -21V0H299V-21ZM235 -192V-43H341V-192Z"/>
</svg>