<svg xmlns="http://www.w3.org/2000/svg" viewBox="0 -512 512 512">
	<path fill="#000000" d="M277 -384Q225 -384 181 -358.5Q137 -333 111 -288.5Q85 -244 85 -192H21L107 -107L192 -192H128Q128 -233 148 -267Q168 -301 202 -321Q236 -341 277 -341Q318 -341 352.5 -321Q387 -301 407 -267Q427 -233 427 -192Q427 -151 407 -117Q387 -83 352.5 -63Q318 -43 277 -43Q247 -43 219.5 -54.5Q192 -66 173 -87L143 -58Q169 -30 203.5 -15Q238 0 277 0Q330 0 374 -25.5Q418 -51 443.5 -95.5Q469 -140 469 -192Q469 -244 443.5 -288.5Q418 -333 374 -358.5Q330 -384 277 -384ZM256 -128H299V-85H256ZM256 -299H299V-171H256Z"/>
</svg>