<svg xmlns="http://www.w3.org/2000/svg" viewBox="0 -512 512 512">
	<path fill="#000000" d="M405 -149V-21Q405 -4 392.5 8.5Q380 21 363 21H320Q302 21 289.5 8.5Q277 -4 277 -21V-149Q277 -167 289.5 -179.5Q302 -192 320 -192H363Q380 -192 392.5 -179.5Q405 -167 405 -149ZM320 -149V-21H363V-149ZM235 -21Q235 -4 222.5 8.5Q210 21 192 21H107V-21H192V-64H149V-107H192V-149H107V-192H192Q210 -192 222.5 -179.5Q235 -167 235 -149V-117Q235 -104 225.5 -94.5Q216 -85 203 -85Q216 -85 225.5 -76Q235 -67 235 -53ZM267 -384Q340 -384 398.5 -341Q457 -298 479 -230L429 -213Q412 -265 367.5 -298Q323 -331 267 -331Q205 -331 157 -291L213 -235H64V-384L119 -329Q150 -355 187.5 -369.5Q225 -384 267 -384Z"/>
</svg>