<svg xmlns="http://www.w3.org/2000/svg" viewBox="0 -512 512 512">
	<path fill="#000000" d="M267 -384Q340 -384 398.5 -341Q457 -298 479 -230L429 -213Q412 -265 367.5 -298Q323 -331 267 -331Q205 -331 157 -291L213 -235H64V-384L119 -329Q150 -355 187.5 -369.5Q225 -384 267 -384ZM213 -192V21H171V-149H128V-192ZM384 -149V-21Q384 -4 371.5 8.5Q359 21 341 21H299Q281 21 268.5 8.5Q256 -4 256 -21V-149Q256 -167 268.5 -179.5Q281 -192 299 -192H341Q359 -192 371.5 -179.5Q384 -167 384 -149ZM299 -149V-21H341V-149Z"/>
</svg>