<svg xmlns="http://www.w3.org/2000/svg" viewBox="0 -512 512 512">
	<path fill="#000000" d="M427 -191V-219Q427 -235 417 -247L333 -347Q320 -363 300 -363H85Q68 -363 55.5 -350.5Q43 -338 43 -320V-171Q43 -153 55.5 -140.5Q68 -128 85 -128H86Q90 -110 104.5 -97.5Q119 -85 138.5 -85Q158 -85 172.5 -97.5Q187 -110 191 -128H364Q367 -110 382 -97.5Q397 -85 416 -85Q438 -85 453.5 -101Q469 -117 469 -139Q469 -158 457 -172.5Q445 -187 427 -191ZM75 -320Q75 -324 78 -327.5Q81 -331 85 -331H149V-235H75ZM139 -117Q130 -117 123.5 -123.5Q117 -130 117 -138.5Q117 -147 123.5 -153.5Q130 -160 138.5 -160Q147 -160 153.5 -153.5Q160 -147 160 -138.5Q160 -130 153.5 -123.5Q147 -117 139 -117ZM277 -160H192V-192H235V-235H192V-331H277ZM320 -313L385 -235H320ZM416 -117Q407 -117 401 -123.5Q395 -130 395 -138.5Q395 -147 401 -153.5Q407 -160 416 -160Q425 -160 431 -153.5Q437 -147 437 -138.5Q437 -130 431 -123.5Q425 -117 416 -117ZM235 -21H149L277 43V0H363L235 -64Z"/>
</svg>