<svg xmlns="http://www.w3.org/2000/svg" viewBox="0 -512 512 512">
	<path fill="#000000" d="M427 -148V-176Q427 -192 417 -204L333 -305Q320 -320 300 -320H85Q68 -320 55.5 -307.5Q43 -295 43 -277V-128Q43 -110 55.5 -97.5Q68 -85 85 -85H86Q90 -67 104.5 -55Q119 -43 138.5 -43Q158 -43 172.5 -55Q187 -67 191 -85H364Q367 -67 382 -55Q397 -43 416 -43Q438 -43 453.5 -58.5Q469 -74 469 -96Q469 -115 457 -130Q445 -145 427 -148ZM75 -277Q75 -282 78 -285Q81 -288 85 -288H149V-192H75ZM139 -75Q130 -75 123.5 -81Q117 -87 117 -96Q117 -105 123.5 -111Q130 -117 138.5 -117Q147 -117 153.5 -111Q160 -105 160 -96Q160 -87 153.5 -81Q147 -75 139 -75ZM277 -117H192V-149H235V-192H192V-288H277ZM320 -270L385 -192H320ZM416 -75Q407 -75 401 -81Q395 -87 395 -96Q395 -105 401 -111Q407 -117 416 -117Q425 -117 431 -111Q437 -105 437 -96Q437 -87 431 -81Q425 -75 416 -75Z"/>
</svg>