<svg xmlns="http://www.w3.org/2000/svg" viewBox="0 -512 512 512">
	<path fill="#000000" d="M256 -235L171 -354L205 -405H307L341 -354ZM331 -303L305 -267Q341 -252 362.5 -220.5Q384 -189 384 -149Q384 -115 367 -85.5Q350 -56 320.5 -38.5Q291 -21 256 -21Q221 -21 191.5 -38.5Q162 -56 145 -85.5Q128 -115 128 -149Q128 -189 149.5 -220.5Q171 -252 207 -267L181 -303Q138 -282 111.5 -241Q85 -200 85 -149Q85 -103 108 -64Q131 -25 170.5 -2Q210 21 256 21Q302 21 341.5 -2Q381 -25 404 -64Q427 -103 427 -149Q427 -200 400.5 -241Q374 -282 331 -303Z"/>
</svg>