<svg xmlns="http://www.w3.org/2000/svg" viewBox="0 -512 512 512">
	<path fill="#000000" d="M228 -181Q228 -177 211.5 -171.5Q195 -166 180 -166Q165 -166 149.5 -174Q134 -182 134 -185.5Q134 -189 140 -195.5Q146 -202 156 -207Q168 -212 183 -213.5Q198 -215 211.5 -206Q225 -197 228 -181ZM329 -213Q312 -215 299.5 -206Q287 -197 284 -181Q284 -176 300 -171Q316 -166 332 -166Q348 -166 363 -173.5Q378 -181 378 -184.5Q378 -188 372 -194.5Q366 -201 356 -206Q344 -212 329 -213ZM469 -192Q469 -134 440.5 -85Q412 -36 363 -7.5Q314 21 256 21Q198 21 149 -7.5Q100 -36 71.5 -85Q43 -134 43 -192Q43 -250 71.5 -299Q100 -348 149 -376.5Q198 -405 256 -405Q314 -405 363 -376.5Q412 -348 440.5 -299Q469 -250 469 -192ZM427 -209Q427 -242 412 -254.5Q397 -267 356 -267Q335 -267 316 -262Q305 -259 288 -252Q267 -243 256 -243Q245 -243 225 -252Q208 -259 197 -262Q178 -267 156 -267Q126 -267 111.5 -262Q97 -257 91 -244.5Q85 -232 85 -209Q85 -156 106.5 -126Q128 -96 162 -96Q174 -96 186 -103Q194 -107 209 -117.5Q224 -128 232 -132Q245 -139 256 -139Q267 -139 280 -132Q287 -128 301.5 -117.5Q316 -107 324 -103Q338 -96 350 -96Q384 -96 405.5 -126Q427 -156 427 -209Z"/>
</svg>