<svg xmlns="http://www.w3.org/2000/svg" viewBox="0 -512 512 512">
	<path fill="#000000" d="M444 36L369 -38Q317 0 256 0Q204 0 159.5 -25.5Q115 -51 89.5 -95.5Q64 -140 64 -192V-256H107V-192Q107 -151 127 -117Q147 -83 181 -63Q215 -43 257 -43Q299 -43 339 -68L299 -109Q279 -85 256.5 -85Q234 -85 218.5 -100.5Q203 -116 203 -139Q203 -152 209 -163.5Q215 -175 226 -181L107 -301V-299H64V-343L23 -384L51 -412L471 9ZM405 -341V-299H448V-341Q448 -359 435.5 -371.5Q423 -384 405 -384H132L175 -341ZM405 -192Q405 -163 390 -126L422 -94Q448 -135 448 -192V-256H405ZM341 -256V-299H218L260 -256Z"/>
</svg>