<svg xmlns="http://www.w3.org/2000/svg" viewBox="0 -512 512 512">
	<path fill="#000000" d="M469 -149H448Q448 -190 428 -224.5Q408 -259 373.5 -279Q339 -299 299 -299H277V-326Q287 -331 293 -341Q299 -351 299 -363Q299 -380 286.5 -392.5Q274 -405 256 -405Q238 -405 225.5 -392.5Q213 -380 213 -363Q213 -351 219 -341Q225 -331 235 -326V-299H213Q173 -299 138.5 -279Q104 -259 84 -224.5Q64 -190 64 -149H43Q34 -149 27.5 -143Q21 -137 21 -128V-64Q21 -55 27.5 -49Q34 -43 43 -43H64V-21Q64 -4 76.5 8.5Q89 21 107 21H405Q423 21 435.5 8.5Q448 -4 448 -21V-43H469Q478 -43 484.5 -49Q491 -55 491 -64V-128Q491 -137 484.5 -143Q478 -149 469 -149ZM210 -92L185 -67L160 -92L135 -67L110 -92L135 -117L110 -143L135 -168L160 -143L185 -168L210 -143L185 -117ZM402 -92L377 -67L352 -92L327 -67L302 -92L327 -117L302 -143L327 -168L352 -143L377 -168L402 -143L377 -117Z"/>
</svg>