<svg xmlns="http://www.w3.org/2000/svg" viewBox="0 -512 512 512">
	<path fill="#000000" d="M444 36L384 -23Q356 -2 323 9.5Q290 21 256 21Q198 21 149 -7.5Q100 -36 71.5 -85Q43 -134 43 -192Q43 -257 79 -309L111 -279Q85 -238 85 -192Q85 -146 108 -106.5Q131 -67 170.5 -44Q210 -21 256 -21Q308 -21 354 -53L292 -115Q278 -107 256 -107Q219 -107 196 -132L166 -102Q147 -120 137.5 -143Q128 -166 128 -192Q128 -231 147 -260L23 -384L51 -412L471 9ZM427 -192Q427 -150 405 -111L437 -79Q469 -127 469 -192Q469 -257 433 -309L401 -279Q427 -238 427 -192ZM256 -363Q290 -363 322 -350Q354 -337 378 -314L407 -343Q376 -373 337 -389Q298 -405 256 -405Q194 -405 143 -373L175 -341Q208 -363 256 -363ZM373 -143Q384 -168 384 -192Q384 -227 366.5 -256Q349 -285 320 -302.5Q291 -320 256 -320Q232 -320 207 -309L243 -273Q252 -277 256 -277Q266 -277 271.5 -271.5Q277 -266 277 -256Q277 -252 273 -243Z"/>
</svg>