<svg xmlns="http://www.w3.org/2000/svg" viewBox="0 -512 512 512">
	<path fill="#000000" d="M469 -149H448Q448 -190 428 -224.5Q408 -259 373.5 -279Q339 -299 299 -299H277V-326Q287 -331 293 -341Q299 -351 299 -363Q299 -380 286.5 -392.5Q274 -405 256 -405Q238 -405 225.5 -392.5Q213 -380 213 -363Q213 -351 219 -341Q225 -331 235 -326V-299H213Q173 -299 138.5 -279Q104 -259 84 -224.5Q64 -190 64 -149H43Q34 -149 27.5 -143Q21 -137 21 -128V-64Q21 -55 27.5 -49Q34 -43 43 -43H64V-21Q64 -4 76.5 8.5Q89 21 107 21H405Q423 21 435.5 8.5Q448 -4 448 -21V-43H469Q478 -43 484.5 -49Q491 -55 491 -64V-128Q491 -137 484.5 -143Q478 -149 469 -149ZM207 -118L191 -103L160 -71L113 -118Q107 -125 107 -134Q107 -143 113.5 -149.5Q120 -156 129 -156Q138 -156 144 -149L160 -134L176 -149Q182 -156 191 -156Q200 -156 206.5 -149.5Q213 -143 213 -134Q213 -125 207 -118ZM399 -118L383 -103L352 -71L305 -118Q299 -125 299 -134Q299 -143 305.5 -149.5Q312 -156 321 -156Q330 -156 336 -149L352 -134L368 -149Q374 -156 383 -156Q392 -156 398.5 -149.5Q405 -143 405 -134Q405 -125 399 -118Z"/>
</svg>