<svg xmlns="http://www.w3.org/2000/svg" viewBox="0 -512 512 512">
	<path fill="#000000" d="M227 -140L204 -117L227 -95L204 -72L181 -95L159 -72L136 -95L159 -117L136 -140L159 -163L181 -140L204 -163ZM353 -163L331 -140L308 -163L285 -140L308 -117L285 -95L308 -72L331 -95L353 -72L376 -95L353 -117L376 -140ZM491 -128V-64Q491 -55 484.5 -49Q478 -43 469 -43H448V-21Q448 -4 435.5 8.5Q423 21 405 21H107Q89 21 76.5 8.5Q64 -4 64 -21V-43H43Q34 -43 27.5 -49Q21 -55 21 -64V-128Q21 -137 27.5 -143Q34 -149 43 -149H64Q64 -190 84 -224.5Q104 -259 138.5 -279Q173 -299 213 -299H235V-326Q225 -331 219 -341Q213 -351 213 -363Q213 -380 225.5 -392.5Q238 -405 256 -405Q274 -405 286.5 -392.5Q299 -380 299 -363Q299 -351 293 -341Q287 -331 277 -326V-299H299Q339 -299 373.5 -279Q408 -259 428 -224.5Q448 -190 448 -149H469Q478 -149 484.5 -143Q491 -137 491 -128ZM448 -107H405V-149Q405 -178 391 -202.5Q377 -227 352.5 -241.5Q328 -256 299 -256H213Q184 -256 159.5 -241.5Q135 -227 121 -202.5Q107 -178 107 -149V-107H64V-85H107V-21H405V-85H448Z"/>
</svg>