<svg xmlns="http://www.w3.org/2000/svg" viewBox="0 -512 512 512">
	<path fill="#000000" d="M427 -363H384V-384H437Q442 -384 445 -381Q448 -378 448 -373V-331Q448 -326 445 -323Q442 -320 437 -320H427V-299H405V-341H427ZM405 -256H427V-277H405ZM363 -384H341V-299H363ZM491 -128V-64Q491 -55 484.5 -49Q478 -43 469 -43H448V-21Q448 -4 435.5 8.5Q423 21 405 21H107Q89 21 76.5 8.5Q64 -4 64 -21V-43H43Q34 -43 27.5 -49Q21 -55 21 -64V-128Q21 -137 27.5 -143Q34 -149 43 -149H64Q64 -190 84 -224.5Q104 -259 138.5 -279Q173 -299 213 -299H235V-326Q225 -331 219 -341Q213 -351 213 -363Q213 -380 225.5 -392.5Q238 -405 256 -405Q274 -405 286.5 -392.5Q299 -380 299 -363Q299 -351 293 -341Q287 -331 277 -326V-299H299Q309 -299 320 -297V-235H421Q448 -196 448 -149H469Q478 -149 484.5 -143Q491 -137 491 -128ZM213 -117Q213 -139 197.5 -155Q182 -171 160 -171Q138 -171 122.5 -155Q107 -139 107 -117Q107 -95 122.5 -79.5Q138 -64 160 -64Q182 -64 197.5 -79.5Q213 -95 213 -117ZM405 -117Q405 -139 389.5 -155Q374 -171 352 -171Q330 -171 314.5 -155Q299 -139 299 -117Q299 -95 314.5 -79.5Q330 -64 352 -64Q374 -64 389.5 -79.5Q405 -95 405 -117ZM363 -277H341V-256H363Z"/>
</svg>