<svg xmlns="http://www.w3.org/2000/svg" viewBox="0 -512 512 512">
	<path fill="#000000" d="M491 -128V-64Q491 -56 486 -50.5Q481 -45 473 -43L405 -112Q405 -113 405 -117Q405 -139 389.5 -155Q374 -171 352 -171Q348 -171 346 -170L218 -299H235V-326Q225 -331 219 -341Q213 -351 213 -363Q213 -380 225.5 -392.5Q238 -405 256 -405Q274 -405 286.5 -392.5Q299 -380 299 -363Q299 -351 293 -341Q287 -331 277 -326V-299H299Q339 -299 373.5 -279Q408 -259 428 -224.5Q448 -190 448 -149H469Q478 -149 484.5 -143Q491 -137 491 -128ZM472 10L445 37L424 17Q415 21 405 21H107Q89 21 76.5 8.5Q64 -4 64 -21V-43H43Q34 -43 27.5 -49Q21 -55 21 -64V-128Q21 -137 27.5 -143Q34 -149 43 -149H64Q64 -188 82.5 -221.5Q101 -255 133 -275L24 -384L51 -411ZM213 -117Q213 -139 197.5 -155Q182 -171 160 -171Q138 -171 122.5 -155Q107 -139 107 -117Q107 -95 122.5 -79.5Q138 -64 160 -64Q182 -64 197.5 -79.5Q213 -95 213 -117ZM343 -65L300 -108Q303 -92 314.5 -80Q326 -68 343 -65Z"/>
</svg>