<svg xmlns="http://www.w3.org/2000/svg" viewBox="0 -512 512 512">
	<path fill="#000000" d="M85 -43H183L56 -264Q43 -285 43 -309Q43 -345 68 -370Q93 -395 128 -395Q157 -395 180 -376.5Q203 -358 211 -331H299V-384Q299 -402 311.5 -414.5Q324 -427 341 -427V-371L375 -405H469V-363H393L341 -311V-307L393 -256H469V-213H375L341 -247V-192Q324 -192 311.5 -204.5Q299 -217 299 -235V-288H211Q207 -276 201 -265L329 -43H427Q444 -43 456.5 -30.5Q469 -18 469 0V21H43V0Q43 -18 55.5 -30.5Q68 -43 85 -43ZM169 -235Q150 -224 128 -224L233 -43H279ZM128 -352Q110 -352 97.5 -339.5Q85 -327 85 -309.5Q85 -292 97.5 -279.5Q110 -267 128 -267Q146 -267 158.5 -279.5Q171 -292 171 -309.5Q171 -327 158.5 -339.5Q146 -352 128 -352Z"/>
</svg>