<svg xmlns="http://www.w3.org/2000/svg" viewBox="0 -512 512 512">
	<path fill="#000000" d="M393 -363L341 -311V-307L393 -256H469V-213H375L341 -247V-192H320Q302 -192 289.5 -204.5Q277 -217 277 -235V-288H210Q208 -276 201 -266L324 -43H427Q444 -43 456.5 -30.5Q469 -18 469 0V21H43V0Q43 -18 55.5 -30.5Q68 -43 85 -43H226L126 -224Q98 -224 75 -242Q52 -260 45 -288Q36 -322 54 -352.5Q72 -383 106.5 -392Q141 -401 171.5 -383Q202 -365 210 -331H277V-384Q277 -402 289.5 -414.5Q302 -427 320 -427H341V-371L375 -405H469V-363ZM128 -352Q110 -352 97.5 -339.5Q85 -327 85 -309.5Q85 -292 97.5 -279.5Q110 -267 128 -267Q146 -267 158.5 -279.5Q171 -292 171 -309.5Q171 -327 158.5 -339.5Q146 -352 128 -352Z"/>
</svg>