<svg xmlns="http://www.w3.org/2000/svg" viewBox="0 -512 512 512">
	<path fill="#000000" d="M213 -405Q255 -405 294.5 -389Q334 -373 365 -343L335 -314Q309 -338 278 -350.5Q247 -363 213 -363Q179 -363 147 -350Q115 -337 92 -314L62 -343Q93 -373 132.5 -389Q172 -405 213 -405ZM36 -309L68 -279Q43 -238 43 -192Q43 -146 66 -106.5Q89 -67 128 -44Q167 -21 213 -21Q259 -21 298.5 -44Q338 -67 361 -106.5Q384 -146 384 -192Q384 -236 361 -279L393 -309Q427 -255 427 -192Q427 -134 398 -85Q369 -36 320 -7.5Q271 21 213.5 21Q156 21 107 -7.5Q58 -36 29 -85Q0 -134 0 -192Q0 -257 36 -309ZM213 -320Q248 -320 277.5 -302.5Q307 -285 324 -256Q341 -227 341 -192Q341 -166 331.5 -143Q322 -120 303 -102L273 -132Q251 -107 213.5 -107Q176 -107 154 -132L124 -102Q105 -120 95 -143Q85 -166 85 -192Q85 -227 102.5 -256Q120 -285 149.5 -302.5Q179 -320 213 -320ZM213 -277Q204 -277 198 -271.5Q192 -266 192 -256Q192 -246 198 -240.5Q204 -235 213.5 -235Q223 -235 229 -240.5Q235 -246 235 -256Q235 -266 229 -271.5Q223 -277 213 -277ZM469 -192V-299H512V-171H469ZM469 -85V-128H512V-85Z"/>
</svg>