<svg xmlns="http://www.w3.org/2000/svg" viewBox="0 -512 512 512">
	<path fill="#000000" d="M469 -149H448Q448 -190 428 -224.5Q408 -259 373.5 -279Q339 -299 299 -299H277V-326Q287 -331 293 -341Q299 -351 299 -363Q299 -380 286.5 -392.5Q274 -405 256 -405Q238 -405 225.5 -392.5Q213 -380 213 -363Q213 -351 219 -341Q225 -331 235 -326V-299H213Q173 -299 138.5 -279Q104 -259 84 -224.5Q64 -190 64 -149H43Q34 -149 27.5 -143Q21 -137 21 -128V-64Q21 -55 27.5 -49Q34 -43 43 -43H64V-21Q64 -4 76.5 8.5Q89 21 107 21H405Q423 21 435.5 8.5Q448 -4 448 -21V-43H469Q478 -43 484.5 -49Q491 -55 491 -64V-128Q491 -137 484.5 -143Q478 -149 469 -149ZM209 -96Q202 -110 189 -119Q176 -128 160 -128Q144 -128 131 -119Q118 -110 111 -96Q107 -107 107 -117Q107 -139 122.5 -155Q138 -171 160 -171Q182 -171 197.5 -155Q213 -139 213 -117Q213 -107 209 -96ZM401 -96Q395 -110 381.5 -119Q368 -128 352 -128Q336 -128 322.5 -119Q309 -110 303 -96Q299 -107 299 -117Q299 -139 314.5 -155Q330 -171 352 -171Q374 -171 389.5 -155Q405 -139 405 -117Q405 -107 401 -96Z"/>
</svg>