<svg xmlns="http://www.w3.org/2000/svg" viewBox="0 -512 512 512">
	<path fill="#000000" d="M256 -405Q298 -405 337.5 -389Q377 -373 407 -343L377 -313Q352 -337 321 -350Q290 -363 256 -363Q222 -363 190.5 -350Q159 -337 135 -313L105 -343Q135 -373 174.5 -389Q214 -405 256 -405ZM78 -309L109 -279Q85 -238 85 -192Q85 -146 108 -106.5Q131 -67 170.5 -44Q210 -21 256 -21Q302 -21 341.5 -44Q381 -67 404 -106.5Q427 -146 427 -192Q427 -238 403 -279L434 -309Q469 -256 469 -192Q469 -150 453 -110.5Q437 -71 407 -41Q377 -11 337.5 5Q298 21 256 21Q214 21 174.5 5Q135 -11 105 -41Q75 -71 59 -110.5Q43 -150 43 -192Q43 -256 78 -309ZM256 -320Q291 -320 320.5 -303Q350 -286 367 -256.5Q384 -227 384 -192Q384 -167 374 -143Q364 -119 346 -102L316 -132Q291 -107 256 -107Q221 -107 196 -132L166 -102Q148 -119 138 -143Q128 -167 128 -192Q128 -227 145 -256.5Q162 -286 191.5 -303Q221 -320 256 -320ZM256 -277Q247 -277 241 -271Q235 -265 235 -256Q235 -247 241 -241Q247 -235 256 -235Q265 -235 271 -241Q277 -247 277 -256Q277 -265 271 -271Q265 -277 256 -277Z"/>
</svg>