<svg xmlns="http://www.w3.org/2000/svg" viewBox="0 -512 512 512">
	<path fill="#000000" d="M107 -384Q89 -384 76.5 -371.5Q64 -359 64 -341V-299H107V-341H405V-299H448V-341Q448 -359 435.5 -371.5Q423 -384 405 -384ZM171 -299V-256H341V-299ZM64 -256V-192Q64 -140 90 -96Q116 -52 160 -26Q204 0 256 0Q308 0 352 -26Q396 -52 422 -96Q448 -140 448 -192V-256H405V-192Q405 -151 385 -117Q365 -83 331 -63Q297 -43 256 -43Q215 -43 181 -63Q147 -83 127 -117Q107 -151 107 -192V-256ZM256 -192Q234 -192 218.5 -176.5Q203 -161 203 -139Q203 -117 218.5 -101Q234 -85 256 -85Q278 -85 293.5 -101Q309 -117 309 -139Q309 -161 293.5 -176.5Q278 -192 256 -192Z"/>
</svg>