<svg xmlns="http://www.w3.org/2000/svg" viewBox="0 -512 512 512">
	<path fill="#000000" d="M64 -384Q46 -384 33.5 -371.5Q21 -359 21 -341V-299H64V-341H363V-299H405V-341Q405 -359 392.5 -371.5Q380 -384 363 -384ZM128 -299V-256H299V-299ZM21 -256V-192Q21 -140 47 -95.5Q73 -51 117 -25.5Q161 0 213.5 0Q266 0 310 -25.5Q354 -51 379.5 -95.5Q405 -140 405 -192V-256H363V-192Q363 -151 343 -117Q323 -83 288.5 -63Q254 -43 213 -43Q172 -43 138 -63Q104 -83 84 -117Q64 -151 64 -192V-256ZM213 -192Q191 -192 175.5 -176.5Q160 -161 160 -138.5Q160 -116 175.5 -100.5Q191 -85 213.5 -85Q236 -85 251.5 -100.5Q267 -116 267 -138.5Q267 -161 251.5 -176.5Q236 -192 213 -192ZM448 -192V-299H491V-171H448ZM448 -85V-128H491V-85Z"/>
</svg>