<svg xmlns="http://www.w3.org/2000/svg" viewBox="0 -512 512 512">
	<path fill="#000000" d="M21 -149V-341H277Q335 -341 384 -312.5Q433 -284 462 -235Q491 -186 491 -128V-85H444Q438 -66 421.5 -54.5Q405 -43 384 -43Q363 -43 346.5 -54.5Q330 -66 324 -85H213Q198 -66 176 -54.5Q154 -43 128 -43Q99 -43 74.5 -57Q50 -71 35.5 -95.5Q21 -120 21 -149ZM128 -213Q101 -213 82.5 -194.5Q64 -176 64 -149.5Q64 -123 82.5 -104Q101 -85 128 -85Q155 -85 173.5 -104Q192 -123 192 -149.5Q192 -176 173.5 -194.5Q155 -213 128 -213ZM320 -235V-192H432Q421 -215 405 -235Z"/>
</svg>