<svg xmlns="http://www.w3.org/2000/svg" viewBox="0 -512 512 512">
	<path fill="#000000" d="M224 -117Q224 -106 218 -96Q212 -106 202.5 -111.5Q193 -117 181.5 -117Q170 -117 160 -111.5Q150 -106 145 -96Q139 -107 139 -117Q139 -135 151.5 -147.5Q164 -160 181.5 -160Q199 -160 211.5 -147.5Q224 -135 224 -117ZM491 -128V-64Q491 -55 484.5 -49Q478 -43 469 -43H448V-21Q448 -4 435.5 8.5Q423 21 405 21H107Q89 21 76.5 8.5Q64 -4 64 -21V-43H43Q34 -43 27.5 -49Q21 -55 21 -64V-128Q21 -137 27.5 -143Q34 -149 43 -149H64Q64 -190 84 -224.5Q104 -259 138.5 -279Q173 -299 213 -299H235V-326Q225 -331 219 -341Q213 -351 213 -363Q213 -380 225.5 -392.5Q238 -405 256 -405Q274 -405 286.5 -392.5Q299 -380 299 -363Q299 -351 293 -341Q287 -331 277 -326V-299H299Q339 -299 373.5 -279Q408 -259 428 -224.5Q448 -190 448 -149H469Q478 -149 484.5 -143Q491 -137 491 -128ZM448 -107H405V-149Q405 -178 391 -202.5Q377 -227 352.5 -241.5Q328 -256 299 -256H213Q184 -256 159.5 -241.5Q135 -227 121 -202.5Q107 -178 107 -149V-107H64V-85H107V-21H405V-85H448ZM331 -160Q313 -160 300.5 -147.5Q288 -135 288 -117Q288 -107 294 -96Q300 -106 309.5 -111.5Q319 -117 330.5 -117Q342 -117 352 -111.5Q362 -106 367 -96Q373 -106 373 -117Q373 -135 360.5 -147.5Q348 -160 331 -160Z"/>
</svg>