<svg xmlns="http://www.w3.org/2000/svg" viewBox="0 -512 512 512">
	<path fill="#000000" d="M469 -149H448Q448 -190 428 -224.5Q408 -259 373.5 -279Q339 -299 299 -299H277V-326Q287 -331 293 -341Q299 -351 299 -363Q299 -380 286.5 -392.5Q274 -405 256 -405Q238 -405 225.5 -392.5Q213 -380 213 -363Q213 -351 219 -341Q225 -331 235 -326V-299H213Q173 -299 138.5 -279Q104 -259 84 -224.5Q64 -190 64 -149H43Q34 -149 27.5 -143Q21 -137 21 -128V-64Q21 -55 27.5 -49Q34 -43 43 -43H64V-21Q64 -4 76.5 8.5Q89 21 107 21H405Q423 21 435.5 8.5Q448 -4 448 -21V-43H469Q478 -43 484.5 -49Q491 -55 491 -64V-128Q491 -137 484.5 -143Q478 -149 469 -149ZM448 -85H405V-21H107V-85H64V-107H107V-149Q107 -178 121 -202.5Q135 -227 159.5 -241.5Q184 -256 213 -256H299Q328 -256 352.5 -241.5Q377 -227 391 -202.5Q405 -178 405 -149V-107H448ZM228 -149Q235 -143 235 -134Q235 -125 228 -118L181 -71L134 -118Q128 -125 128 -134Q128 -143 134.5 -149.5Q141 -156 150 -156Q159 -156 166 -149L181 -134L197 -149Q203 -156 212.5 -156Q222 -156 228 -149ZM378 -149Q384 -143 384 -134Q384 -125 378 -118L331 -71L284 -118Q277 -125 277 -134Q277 -143 283.5 -149.5Q290 -156 299.5 -156Q309 -156 315 -149L331 -134L346 -149Q353 -156 362 -156Q371 -156 378 -149Z"/>
</svg>