<svg xmlns="http://www.w3.org/2000/svg" viewBox="0 -512 512 512">
	<path fill="#000000" d="M405 -277H427V-256H405ZM427 -341H405V-299H427V-320H437Q442 -320 445 -323Q448 -326 448 -331V-373Q448 -378 445 -381Q442 -384 437 -384H384V-363H427ZM363 -384H341V-299H363ZM288 -117Q288 -100 300.5 -87.5Q313 -75 330.5 -75Q348 -75 360.5 -87.5Q373 -100 373 -117.5Q373 -135 360.5 -147.5Q348 -160 330.5 -160Q313 -160 300.5 -147.5Q288 -135 288 -117ZM363 -277H341V-256H363ZM469 -149H448Q448 -196 421 -235H362Q382 -220 393.5 -197.5Q405 -175 405 -149V-107H448V-85H405V-21H107V-85H64V-107H107V-149Q107 -178 121 -202.5Q135 -227 159.5 -241.5Q184 -256 213 -256H299Q309 -256 320 -254V-297Q309 -299 299 -299H277V-326Q287 -331 293 -341Q299 -351 299 -363Q299 -380 286.5 -392.5Q274 -405 256 -405Q238 -405 225.5 -392.5Q213 -380 213 -363Q213 -351 219 -341Q225 -331 235 -326V-299H213Q173 -299 138.5 -279Q104 -259 84 -224.5Q64 -190 64 -149H43Q34 -149 27.5 -143Q21 -137 21 -128V-64Q21 -55 27.5 -49Q34 -43 43 -43H64V-21Q64 -4 76.5 8.5Q89 21 107 21H405Q423 21 435.5 8.5Q448 -4 448 -21V-43H469Q478 -43 484.5 -49Q491 -55 491 -64V-128Q491 -137 484.5 -143Q478 -149 469 -149ZM181 -160Q164 -160 151.5 -147.5Q139 -135 139 -117.5Q139 -100 151.5 -87.5Q164 -75 181.5 -75Q199 -75 211.5 -87.5Q224 -100 224 -117.5Q224 -135 211.5 -147.5Q199 -160 181 -160Z"/>
</svg>