<svg xmlns="http://www.w3.org/2000/svg" viewBox="0 -512 512 512">
	<path fill="#000000" d="M21 -149Q21 -120 35.5 -95.5Q50 -71 74.5 -57Q99 -43 128 -43Q154 -43 176 -54.5Q198 -66 213 -85H324Q330 -66 346.5 -54.5Q363 -43 384 -43Q405 -43 421.5 -54.5Q438 -66 444 -85H491V-128Q491 -186 462 -235Q433 -284 384 -312.5Q335 -341 277 -341H21ZM448 -128H233Q235 -138 235 -149Q235 -178 220.5 -202.5Q206 -227 181.5 -241.5Q157 -256 128 -256Q92 -256 64 -235V-299H267Q308 -299 344 -282Q380 -265 405 -235H320V-192H432Q445 -163 448 -128ZM128 -213Q155 -213 173.5 -194.5Q192 -176 192 -149.5Q192 -123 173.5 -104Q155 -85 128 -85Q101 -85 82.5 -104Q64 -123 64 -149.5Q64 -176 82.5 -194.5Q101 -213 128 -213Z"/>
</svg>