<svg xmlns="http://www.w3.org/2000/svg" viewBox="0 -512 512 512">
	<path fill="#000000" d="M455 -77Q469 -64 469 -45.5Q469 -27 456.5 -13.5Q444 0 425 0H236Q206 0 181.5 -14.5Q157 -29 142.5 -53.5Q128 -78 128 -108V-109Q91 -117 67 -146Q43 -175 43 -213Q43 -242 57 -266.5Q71 -291 95.5 -305.5Q120 -320 149 -320H203Q207 -320 210 -323Q213 -326 213 -330.5Q213 -335 210 -338Q207 -341 203 -341H149V-384H203Q225 -384 240.5 -368.5Q256 -353 256 -330.5Q256 -308 240.5 -292.5Q225 -277 203 -277H149Q123 -277 104 -258.5Q85 -240 85 -213Q85 -192 98 -175Q111 -158 131 -152Q140 -188 169 -211.5Q198 -235 236 -235Q260 -235 285 -223Q262 -210 248.5 -187.5Q235 -165 235 -139Q235 -98 263 -71L278 -86Q256 -107 256 -139Q256 -164 270 -183Q281 -198 300 -206Q316 -213 331 -213Q353 -213 372 -201Q391 -189 400 -168Q409 -147 404 -123ZM384 -43Q393 -43 399 -49Q405 -55 405 -64Q405 -73 399 -79Q393 -85 384 -85Q375 -85 369 -79Q363 -73 363 -64Q363 -55 369 -49Q375 -43 384 -43Z"/>
</svg>