<svg xmlns="http://www.w3.org/2000/svg" viewBox="0 -512 512 512">
	<path fill="#000000" d="M445 37L404 -3Q402 16 387 29.5Q372 43 352 43Q330 43 314.5 27Q299 11 299 -10Q299 -31 312 -46Q325 -61 344 -63L322 -85H64V-343L24 -384L51 -411L472 10ZM192 -341H245V-405H111L181 -335Q185 -341 192 -341ZM268 -248Q255 -261 252 -277H239ZM416 -172Q405 -196 374 -211Q355 -219 316 -229L297 -234Q283 -234 269 -247L427 -90V-97Q427 -126 425 -139Q423 -161 416 -172ZM196 -320L218 -299H245V-320ZM139 -64Q116 -64 100.5 -48.5Q85 -33 85 -11Q85 11 100.5 27Q116 43 138.5 43Q161 43 176.5 27Q192 11 192 -11Q192 -33 176.5 -48.5Q161 -64 139 -64Z"/>
</svg>