<svg xmlns="http://www.w3.org/2000/svg" viewBox="0 -512 512 512">
	<path fill="#000000" d="M415 -264Q415 -225 395.5 -192Q376 -159 344 -141Q339 -137 341 -132L414 12Q416 15 414 18Q412 21 408 21H130L132 20Q135 19 159 -21Q194 -78 216 -110Q254 -166 285 -196Q301 -211 323 -230Q342 -246 346 -252Q351 -260 347 -272Q345 -281 329 -310L326 -316L333 -300Q340 -282 341 -271Q342 -254 331 -252Q320 -250 305 -263Q290 -276 282 -294Q274 -315 282 -333.5Q290 -352 311.5 -357.5Q333 -363 357 -356Q381 -349 397 -333Q415 -301 415 -264ZM153 -168Q112 -93 97 -52V-399Q97 -401 99 -403Q101 -405 103 -405H276Q313 -405 344 -387Q375 -369 394 -338Q381 -355 361 -364Q341 -373 320 -373Q299 -373 286 -367Q271 -360 255 -340.5Q239 -321 214 -279Q195 -246 153 -168Z"/>
</svg>