<svg xmlns="http://www.w3.org/2000/svg" viewBox="0 -512 512 512">
	<path fill="#000000" d="M139 -64Q116 -64 100.5 -48.5Q85 -33 85 -11Q85 11 100.5 27Q116 43 138.5 43Q161 43 176.5 27Q192 11 192 -11Q192 -33 176.5 -48.5Q161 -64 139 -64ZM352 -64Q330 -64 314.5 -48.5Q299 -33 299 -11Q299 11 314.5 27Q330 43 352 43Q374 43 389.5 27Q405 11 405 -11Q405 -33 389.5 -48.5Q374 -64 352 -64ZM427 -85Q427 -89 427 -96Q427 -124 426 -138Q423 -161 416 -172Q405 -196 374 -211Q355 -219 316 -229L297 -234Q282 -234 268.5 -247.5Q255 -261 252 -277H192Q187 -277 184 -280Q181 -283 181 -288Q181 -293 184 -296Q187 -299 192 -299H245V-320H192Q187 -320 184 -323Q181 -326 181 -330.5Q181 -335 184 -338Q187 -341 192 -341H245V-405H64V-85Z"/>
</svg>