<svg xmlns="http://www.w3.org/2000/svg" viewBox="0 -512 512 512">
	<path fill="#000000" d="M445 37L433 26Q417 43 395 43Q373 43 357 27Q341 11 341 -11Q341 -33 358 -49L322 -85H64V-343L24 -384L51 -411L472 10ZM416 -172Q405 -196 374 -211Q355 -219 316 -229L297 -234Q283 -234 269 -247L427 -90V-97Q427 -126 425 -139Q423 -161 416 -172ZM196 -320L218 -299H245V-320ZM268 -248Q255 -261 252 -277H239ZM245 -64Q223 -64 207.5 -48.5Q192 -33 192 -11Q192 11 207.5 27Q223 43 245 43Q267 43 283 27Q299 11 299 -11Q299 -33 283 -48.5Q267 -64 245 -64ZM192 -341H245V-405H111L181 -335Q185 -341 192 -341ZM96 -64Q74 -64 58.5 -48.5Q43 -33 43 -11Q43 11 58.5 27Q74 43 96 43Q118 43 133.5 27Q149 11 149 -11Q149 -33 133.5 -48.5Q118 -64 96 -64Z"/>
</svg>