<svg xmlns="http://www.w3.org/2000/svg" viewBox="0 -512 512 512">
	<path fill="#000000" d="M96 -64Q74 -64 58.5 -48.5Q43 -33 43 -11Q43 11 58.5 27Q74 43 96 43Q118 43 133.5 27Q149 11 149 -11Q149 -33 133.5 -48.5Q118 -64 96 -64ZM395 -64Q373 -64 357 -48.5Q341 -33 341 -11Q341 11 357 27Q373 43 395 43Q417 43 432.5 27Q448 11 448 -11Q448 -33 432.5 -48.5Q417 -64 395 -64ZM427 -85Q427 -89 427 -96Q427 -124 426 -138Q423 -161 416 -172Q405 -196 374 -211Q355 -219 316 -229L297 -234Q282 -234 268.5 -247.5Q255 -261 252 -277H192Q187 -277 184 -280Q181 -283 181 -288Q181 -293 184 -296Q187 -299 192 -299H245V-320H192Q187 -320 184 -323Q181 -326 181 -330.5Q181 -335 184 -338Q187 -341 192 -341H245V-405H64V-85ZM245 -64Q223 -64 207.5 -48.5Q192 -33 192 -11Q192 11 207.5 27Q223 43 245 43Q267 43 283 27Q299 11 299 -11Q299 -33 283 -48.5Q267 -64 245 -64Z"/>
</svg>