<svg xmlns="http://www.w3.org/2000/svg" viewBox="0 -512 512 512">
	<path fill="#000000" d="M149 -64H107V-107H149ZM149 -149H107V-192H149ZM235 -64H192V-107H235ZM235 -149H192V-192H235ZM320 -64H277V-107H320ZM320 -149H277V-192H320ZM405 -64H363V-107H405ZM405 -149H363V-192H405ZM341 -277Q333 -277 326.5 -283.5Q320 -290 320 -299V-363Q320 -371 326.5 -377.5Q333 -384 341.5 -384Q350 -384 356.5 -377.5Q363 -371 363 -363V-299Q363 -290 356.5 -283.5Q350 -277 341 -277ZM171 -277Q162 -277 155.5 -283.5Q149 -290 149 -299V-363Q149 -371 155.5 -377.5Q162 -384 170.5 -384Q179 -384 185.5 -377.5Q192 -371 192 -363V-299Q192 -290 185.5 -283.5Q179 -277 171 -277ZM424 -341H395V-299Q395 -277 379 -261Q363 -245 341 -245Q319 -245 303.5 -261Q288 -277 288 -299V-336Q288 -338 286.5 -339.5Q285 -341 283 -341H229Q227 -341 225.5 -339.5Q224 -338 224 -336V-299Q224 -277 208.5 -261Q193 -245 171 -245Q149 -245 133 -261Q117 -277 117 -299V-341H88Q70 -342 56.5 -329.5Q43 -317 43 -299V-43Q43 -25 56.5 -12.5Q70 0 88 0H424Q442 0 455.5 -12.5Q469 -25 469 -43V-299Q469 -317 455.5 -329.5Q442 -342 424 -341ZM427 -43H85V-213H427Z"/>
</svg>