<svg xmlns="http://www.w3.org/2000/svg" viewBox="0 -512 512 512">
	<path fill="#000000" d="M159 11Q106 -15 72 -63Q38 -111 32 -171H0Q5 -106 40.5 -52Q76 2 132.5 33Q189 64 255 64L269 63L188 -18ZM178 -129Q173 -129 167.5 -131Q162 -133 158.5 -136Q155 -139 153 -143.5Q151 -148 151 -154H124Q124 -141 128.5 -132.5Q133 -124 140.5 -118.5Q148 -113 157.5 -110Q167 -107 178.5 -107Q190 -107 200 -110Q210 -113 218 -119.5Q226 -126 230 -135Q234 -144 234 -155Q234 -162 232 -168Q230 -174 227 -178.5Q224 -183 219 -187Q214 -191 206 -194Q211 -196 216 -200.5Q221 -205 224.5 -210Q228 -215 229.5 -220Q231 -225 231 -230Q231 -241 227 -250Q221 -261 215.5 -266Q210 -271 199.5 -274Q189 -277 177.5 -277Q166 -277 156.5 -273.5Q147 -270 139.5 -264Q132 -258 128.5 -250Q125 -242 125 -232H153Q153 -237 155 -241.5Q157 -246 160.5 -249Q164 -252 168.5 -253.5Q173 -255 178 -255Q191 -255 197.5 -248.5Q204 -242 204 -230Q204 -226 202 -220.5Q200 -215 196.5 -212Q193 -209 188 -207Q183 -205 175 -205H159V-183H175Q183 -183 188.5 -181.5Q194 -180 198 -176Q202 -172 204 -167.5Q206 -163 206 -156Q206 -143 199 -136Q192 -129 178 -129ZM361 -255Q350 -266 336.5 -271.5Q323 -277 305 -277H255V-107H304Q322 -107 336.5 -112.5Q351 -118 361.5 -129Q372 -140 377 -154.5Q382 -169 382 -188V-196Q382 -214 377 -229Q372 -244 361 -255ZM352 -188Q352 -173 349 -163Q346 -153 340.5 -146Q335 -139 325.5 -134.5Q316 -130 304 -130H285V-253H305Q328 -253 340 -239Q352 -225 352 -196ZM255 -448L241 -447L322 -366L351 -395Q404 -369 438 -321Q472 -273 478 -213H510Q504 -278 469 -332Q434 -386 377.5 -417Q321 -448 255 -448Z"/>
</svg>