<svg xmlns="http://www.w3.org/2000/svg" viewBox="0 -512 512 512">
	<path fill="#000000" d="M85 -405H149Q167 -405 179.5 -392.5Q192 -380 192 -363V-21Q192 -4 179.5 8.5Q167 21 149 21H85Q68 21 55.5 8.5Q43 -4 43 -21V-363Q43 -380 55.5 -392.5Q68 -405 85 -405ZM427 -128Q444 -128 456.5 -115.5Q469 -103 469 -85V-21Q469 -4 456.5 8.5Q444 21 427 21H235V-128ZM299 -363Q345 -363 384 -340Q423 -317 446 -277.5Q469 -238 469 -192L468 -171H425L427 -192Q427 -227 409.5 -256.5Q392 -286 362.5 -303Q333 -320 299 -320V-256L213 -341L299 -427Z"/>
</svg>