<svg xmlns="http://www.w3.org/2000/svg" viewBox="0 -512 512 512">
	<path fill="#000000" d="M256 -299Q198 -299 149 -284.5Q100 -270 71.5 -245.5Q43 -221 43 -192Q43 -157 84.5 -129Q126 -101 192 -90V-21L277 -107L192 -192V-134Q144 -143 113 -162Q85 -178 85 -191.5Q85 -205 106 -219Q128 -235 164 -245Q206 -256 256 -256Q306 -256 348 -245Q384 -235 406 -219Q427 -205 427 -192.5Q427 -180 404 -165Q379 -148 341 -139V-94Q399 -107 434 -133Q469 -159 469 -192Q469 -221 440.5 -245.5Q412 -270 363 -284.5Q314 -299 256 -299Z"/>
</svg>