<svg xmlns="http://www.w3.org/2000/svg" viewBox="0 -512 512 512">
	<path fill="#000000" d="M213 -363V-427L299 -341L213 -256V-320Q179 -320 149.5 -303Q120 -286 102.5 -256.5Q85 -227 85 -192L87 -171H44L43 -192Q43 -238 66 -277.5Q89 -317 128 -340Q167 -363 213 -363ZM363 -405H427Q444 -405 456.5 -392.5Q469 -380 469 -363V-21Q469 -4 456.5 8.5Q444 21 427 21H363Q345 21 332.5 8.5Q320 -4 320 -21V-363Q320 -380 332.5 -392.5Q345 -405 363 -405ZM85 -128H277V21H85Q68 21 55.5 8.5Q43 -4 43 -21V-85Q43 -103 55.5 -115.5Q68 -128 85 -128Z"/>
</svg>