<svg xmlns="http://www.w3.org/2000/svg" viewBox="0 -512 512 512">
	<path fill="#000000" d="M107 -256Q89 -256 76.5 -243.5Q64 -231 64 -213V-128Q64 -110 76.5 -97.5Q89 -85 107 -85H235V-43H213Q205 -43 198.5 -36.5Q192 -30 192 -21H43V21H192Q192 30 198.5 36.5Q205 43 213 43H299Q307 43 313.5 36.5Q320 30 320 21H469V-21H320Q320 -30 313.5 -36.5Q307 -43 299 -43H277V-85H405Q423 -85 435.5 -97.5Q448 -110 448 -128V-213Q448 -231 435.5 -243.5Q423 -256 405 -256ZM128 -192H171V-149H128ZM203 -192H245V-149H203ZM277 -192H320V-149H277Z"/>
</svg>