<svg xmlns="http://www.w3.org/2000/svg" viewBox="0 -512 512 512">
	<path fill="#000000" d="M352 -171H320V-92L388 -53L404 -80L352 -111ZM341 -256Q311 -256 283 -244Q255 -232 235 -211V-299H363L405 -341L363 -384H235V-405L213 -427L192 -405V-320H64L21 -277L64 -235H192V-21Q174 -21 161.5 -8.5Q149 4 149 21H265Q300 43 341 43Q382 43 416.5 23Q451 3 471 -31.5Q491 -66 491 -106.5Q491 -147 471 -181.5Q451 -216 416.5 -236Q382 -256 341 -256ZM341 -3Q313 -3 289.5 -17Q266 -31 252 -55Q238 -79 238 -107Q238 -135 252 -158.5Q266 -182 289.5 -196Q313 -210 341 -210Q369 -210 393 -196Q417 -182 431 -158.5Q445 -135 445 -107Q445 -79 431 -55Q417 -31 393 -17Q369 -3 341 -3Z"/>
</svg>