<svg xmlns="http://www.w3.org/2000/svg" viewBox="0 -512 512 512">
	<path fill="#000000" d="M448 -382L431 -365Q412 -382 388.5 -391.5Q365 -401 341 -401Q317 -401 294 -391.5Q271 -382 252 -365L235 -382Q257 -404 284.5 -415.5Q312 -427 341.5 -427Q371 -427 398.5 -415.5Q426 -404 448 -382ZM341 -378Q361 -378 379 -370Q397 -362 412 -348L395 -331Q373 -352 341 -352Q309 -352 288 -331L271 -348Q285 -362 303.5 -370Q322 -378 341 -378ZM363 -235H405Q423 -235 435.5 -222.5Q448 -210 448 -192V-149Q448 -132 435.5 -119.5Q423 -107 405 -107H277V-64H299Q307 -64 313.5 -57.5Q320 -51 320 -43H469V0H320Q320 9 313.5 15Q307 21 299 21H213Q205 21 198.5 15Q192 9 192 0H43V-43H192Q192 -51 198.5 -57.5Q205 -64 213 -64H235V-107H107Q89 -107 76.5 -119.5Q64 -132 64 -149V-192Q64 -210 76.5 -222.5Q89 -235 107 -235H320V-320H363ZM107 -149H149V-192H107ZM181 -149H224V-192H181ZM256 -149H299V-192H256Z"/>
</svg>