<svg xmlns="http://www.w3.org/2000/svg" viewBox="0 -512 512 512">
	<path fill="#000000" d="M431 -322L448 -339Q426 -361 398.5 -372.5Q371 -384 341.5 -384Q312 -384 284.5 -372.5Q257 -361 235 -339L252 -322Q271 -340 294 -349Q317 -358 341 -358Q365 -358 388.5 -349Q412 -340 431 -322ZM412 -305Q397 -319 379 -327Q361 -335 341.5 -335Q322 -335 303.5 -327Q285 -319 271 -305L288 -288Q309 -309 341 -309Q373 -309 395 -288ZM405 -171H363V-256H320V-171H107Q89 -171 76.5 -158.5Q64 -146 64 -128V-43Q64 -25 76.5 -12.5Q89 0 107 0H405Q423 0 435.5 -12.5Q448 -25 448 -43V-128Q448 -146 435.5 -158.5Q423 -171 405 -171ZM171 -64H128V-107H171ZM245 -64H203V-107H245ZM320 -64H277V-107H320Z"/>
</svg>