<svg xmlns="http://www.w3.org/2000/svg" viewBox="0 -512 512 512">
	<path fill="#000000" d="M252 -322L235 -339Q257 -361 284.5 -372.5Q312 -384 341.5 -384Q371 -384 398.5 -372.5Q426 -361 448 -339L431 -322Q412 -340 388.5 -349Q365 -358 341 -358Q317 -358 294 -349Q271 -340 252 -322ZM448 -128Q448 -146 435.5 -158.5Q423 -171 405 -171H363V-256H320V-196L448 -68ZM395 -288L412 -305Q397 -319 379 -327Q361 -335 341.5 -335Q322 -335 303.5 -327Q285 -319 271 -305L288 -288Q309 -309 341 -309Q373 -309 395 -288ZM471 11L444 38L407 0H107Q89 0 76.5 -12.5Q64 -25 64 -43V-128Q64 -146 76.5 -158.5Q89 -171 107 -171H237L23 -384L51 -412ZM171 -107H128V-64H171ZM245 -107H203V-64H245ZM320 -87L301 -107H277V-64H320Z"/>
</svg>