<svg xmlns="http://www.w3.org/2000/svg" viewBox="0 -512 512 512">
	<path fill="#000000" d="M181 -139L85 -43L117 -11L192 -85H235ZM320 -427Q302 -427 289.5 -414.5Q277 -402 277 -384Q277 -366 289.5 -353.5Q302 -341 320 -341Q338 -341 350.5 -353.5Q363 -366 363 -384Q363 -402 350.5 -414.5Q338 -427 320 -427ZM448 0L384 64L320 0V-32L169 -183Q157 -181 149 -181V-228Q176 -227 204 -239.5Q232 -252 249 -271L279 -304Q284 -311 294 -315.5Q304 -320 314 -320H315Q335 -320 349 -306Q363 -292 363 -272V-149Q363 -122 343 -103L267 -179V-228Q245 -210 218 -198L352 -64H384Z"/>
</svg>