<svg xmlns="http://www.w3.org/2000/svg" viewBox="0 -512 512 512">
	<path fill="#000000" d="M107 -384H405Q423 -384 435.5 -371.5Q448 -359 448 -341V-43Q448 -25 435.5 -12.5Q423 0 405 0H107Q89 0 76.5 -12.5Q64 -25 64 -43V-341Q64 -359 76.5 -371.5Q89 -384 107 -384ZM160 -128Q147 -128 137.5 -118.5Q128 -109 128 -96Q128 -83 137.5 -73.5Q147 -64 160 -64Q173 -64 182.5 -73.5Q192 -83 192 -96Q192 -109 182.5 -118.5Q173 -128 160 -128ZM128 -235V-192Q163 -192 192.5 -175Q222 -158 239 -128.5Q256 -99 256 -64H299Q299 -110 276 -149.5Q253 -189 213.5 -212Q174 -235 128 -235ZM128 -320V-277Q170 -277 209.5 -261Q249 -245 279 -215Q309 -185 325 -145.5Q341 -106 341 -64H384Q384 -134 349.5 -192.5Q315 -251 256.5 -285.5Q198 -320 128 -320Z"/>
</svg>