<svg xmlns="http://www.w3.org/2000/svg" viewBox="0 -512 512 512">
	<path fill="#000000" d="M53 -368L81 -395L459 -17L432 11L400 -21H357Q357 -47 353 -68L132 -289Q111 -293 85 -293V-336ZM132 -114Q151 -114 164.5 -100.5Q178 -87 178 -68Q178 -49 164.5 -35Q151 -21 132 -21Q113 -21 99 -35Q85 -49 85 -68Q85 -87 99 -100.5Q113 -114 132 -114ZM85 -233Q143 -233 191.5 -204.5Q240 -176 268.5 -127.5Q297 -79 297 -21H236Q236 -62 216 -97Q196 -132 161 -152Q126 -172 85 -172ZM195 -335Q266 -310 320 -256Q374 -202 399 -131Z"/>
</svg>