<svg xmlns="http://www.w3.org/2000/svg" viewBox="0 -512 512 512">
	<path fill="#000000" d="M256 -149Q238 -149 225.5 -161.5Q213 -174 213 -192Q213 -210 225.5 -222.5Q238 -235 256 -235Q274 -235 286.5 -222.5Q299 -210 299 -192Q299 -174 286.5 -161.5Q274 -149 256 -149ZM491 -43H21V-85H85V-128H21V-171H85V-213H21V-256H85V-299H21V-341H491V-299H427V-256H491V-213H427V-171H491V-128H427V-85H491ZM256 -108Q266 -97 281 -94.5Q296 -92 309.5 -99.5Q323 -107 328 -121.5Q333 -136 329 -150Q343 -153 353 -165Q363 -177 363 -192Q363 -207 353 -219Q343 -231 329 -234Q333 -248 328 -262.5Q323 -277 309.5 -284.5Q296 -292 281 -289.5Q266 -287 256 -276Q246 -287 231 -289.5Q216 -292 202.5 -284.5Q189 -277 184 -262.5Q179 -248 184 -234Q169 -231 159 -219Q149 -207 149 -192Q149 -177 159 -165Q169 -153 184 -150Q179 -136 184 -121.5Q189 -107 202.5 -99.5Q216 -92 231 -94.5Q246 -97 256 -108Z"/>
</svg>