<svg xmlns="http://www.w3.org/2000/svg" viewBox="0 -512 512 512">
	<path fill="#000000" d="M352 -331Q370 -331 382.5 -343.5Q395 -356 395 -373.5Q395 -391 382.5 -403.5Q370 -416 352 -416Q334 -416 321.5 -403.5Q309 -391 309 -373.5Q309 -356 321.5 -343.5Q334 -331 352 -331ZM275 -34L297 -128L341 -85V43H384V-117L339 -160L352 -224Q374 -199 405 -185Q436 -171 469 -171V-213Q441 -213 416.5 -226.5Q392 -240 378 -265L356 -299Q350 -308 340.5 -314Q331 -320 320 -320Q317 -320 311.5 -319Q306 -318 303 -318L192 -271V-171H235V-243L273 -258L239 -85L134 -107L126 -64ZM85 -256Q76 -256 70 -262Q64 -268 64 -277Q64 -286 70 -292.5Q76 -299 85 -299H149V-256ZM107 -341Q98 -341 91.5 -347.5Q85 -354 85 -363Q85 -372 91.5 -378Q98 -384 107 -384H213V-341ZM64 -171Q55 -171 49 -177Q43 -183 43 -192Q43 -201 49 -207Q55 -213 64 -213H149V-171Z"/>
</svg>