<svg xmlns="http://www.w3.org/2000/svg" viewBox="0 -512 512 512">
	<path fill="#000000" d="M288 -331Q305 -331 318 -343.5Q331 -356 331 -373.5Q331 -391 318.5 -403.5Q306 -416 288 -416Q270 -416 257.5 -403.5Q245 -391 245 -373.5Q245 -356 257.5 -343.5Q270 -331 288 -331ZM211 -35L232 -128L277 -85V43H320V-117L275 -160L288 -224Q309 -199 340 -185Q371 -171 405 -171V-213Q375 -213 351 -227.5Q327 -242 313 -265L292 -299Q278 -320 256 -320Q253 -320 247.5 -319Q242 -318 239 -318L128 -271V-171H171V-244L209 -259L175 -85L70 -107L62 -64Z"/>
</svg>