<svg xmlns="http://www.w3.org/2000/svg" viewBox="0 -512 512 512">
	<path fill="#000000" d="M427 -277H469V-320L427 -363H64Q46 -363 33.5 -350.5Q21 -338 21 -320V-128Q21 -110 33.5 -97.5Q46 -85 64 -85H85Q85 -59 104 -40Q123 -21 149.5 -21Q176 -21 194.5 -40Q213 -59 213 -85H320Q320 -59 338.5 -40Q357 -21 384 -21Q411 -21 429.5 -40Q448 -59 448 -85H491V-192ZM149 -53Q136 -53 126.5 -62.5Q117 -72 117 -85.5Q117 -99 126.5 -108Q136 -117 149.5 -117Q163 -117 172 -108Q181 -99 181 -85.5Q181 -72 172 -62.5Q163 -53 149 -53ZM192 -192H64V-256H192ZM299 -128H235V-256H299ZM384 -53Q371 -53 361.5 -62.5Q352 -72 352 -85.5Q352 -99 361.5 -108Q371 -117 384 -117Q397 -117 406.5 -108Q416 -99 416 -85.5Q416 -72 406.5 -63Q397 -54 384 -53ZM363 -192V-245H416L459 -192Z"/>
</svg>