<svg xmlns="http://www.w3.org/2000/svg" viewBox="0 -512 512 512">
	<path fill="#000000" d="M405 -58V-63L402 -79Q396 -103 387 -129Q376 -158 361.5 -180Q347 -202 330 -213H182Q165 -202 150.5 -180Q136 -158 125 -129Q116 -103 110 -79L107 -63V-58L105 -51Q105 -45 107.5 -40Q110 -35 119 -30Q137 -21 171 -21H341Q375 -21 393 -30Q402 -35 404.5 -40Q407 -45 407 -51L406 -54ZM64 -64Q66 -76 69 -88Q75 -117 85 -144Q99 -181 118 -208Q141 -241 171 -256H341Q371 -241 394 -208Q413 -181 427 -144Q437 -117 443 -88L448 -64L449 -55Q450 -44 447 -34Q444 -20 434 -9Q422 5 402 12Q377 21 341 21H171Q135 21 110 12Q90 5 78 -9Q68 -20 65 -34Q62 -44 63 -55ZM213 -363L256 -405L299 -363L384 -405L341 -299H171L128 -405Z"/>
</svg>