<svg xmlns="http://www.w3.org/2000/svg" viewBox="0 -512 512 512">
	<path fill="#000000" d="M171 -299L128 -405L213 -363L256 -405L299 -363L384 -405L341 -299ZM341 21Q256 21 171 21Q135 21 110 12Q90 5 78 -9Q68 -20 65 -34Q62 -44 63 -55L64 -64L69 -88Q75 -117 85 -144Q99 -181 118 -208Q141 -241 171 -256H341Q371 -241 394 -208Q413 -181 427 -144Q437 -117 443 -88L448 -64L449 -55Q450 -44 447 -34Q444 -20 434 -9Q422 5 402 12Q377 21 341 21ZM160 -181Q160 -168 169.5 -158.5Q179 -149 192 -149Q205 -149 214.5 -158.5Q224 -168 224 -181.5Q224 -195 214.5 -204Q205 -213 192 -213Q179 -213 169.5 -204Q160 -195 160 -181ZM352 -53Q352 -67 342.5 -76Q333 -85 320 -85Q307 -85 297.5 -76Q288 -67 288 -53.5Q288 -40 297.5 -30.5Q307 -21 320 -21Q333 -21 342.5 -30.5Q352 -40 352 -53ZM352 -185L323 -213L160 -50L189 -21Z"/>
</svg>