<svg xmlns="http://www.w3.org/2000/svg" viewBox="0 -512 512 512">
	<path fill="#000000" d="M427 -405Q444 -405 456.5 -392.5Q469 -380 469 -363V-21Q469 -4 456.5 8.5Q444 21 427 21H405V43H320V21H192V43H107V21H85Q68 21 55.5 8.5Q43 -4 43 -21V-363Q43 -380 55.5 -392.5Q68 -405 85 -405ZM363 -192Q363 -224 346 -252L378 -284L348 -314L316 -282Q288 -299 256 -299Q224 -299 196 -282L166 -314L134 -282L166 -250Q149 -226 149 -193Q149 -160 166 -132L134 -100L166 -70L198 -102Q222 -85 255 -85Q288 -85 316 -102L348 -70L378 -100L346 -132Q363 -160 363 -192ZM256 -256Q283 -256 301.5 -237.5Q320 -219 320 -192Q320 -165 301.5 -146.5Q283 -128 256 -128Q229 -128 210.5 -146.5Q192 -165 192 -192Q192 -219 210.5 -237.5Q229 -256 256 -256ZM256 -149Q274 -149 286.5 -161.5Q299 -174 299 -192Q299 -210 286.5 -222.5Q274 -235 256 -235Q238 -235 225.5 -222.5Q213 -210 213 -192Q213 -174 225.5 -161.5Q238 -149 256 -149Z"/>
</svg>