<svg xmlns="http://www.w3.org/2000/svg" viewBox="0 -512 512 512">
	<path fill="#000000" d="M213 -192Q213 -210 225.5 -222.5Q238 -235 256 -235Q274 -235 286.5 -222.5Q299 -210 299 -192Q299 -174 286.5 -161.5Q274 -149 256 -149Q238 -149 225.5 -161.5Q213 -174 213 -192ZM166 -70L134 -100L166 -132Q149 -160 149 -193Q149 -226 166 -250L134 -282L166 -314L196 -282Q224 -299 256 -299Q288 -299 316 -282L348 -314L378 -284L346 -252Q363 -224 363 -192Q363 -160 346 -132L378 -100L348 -70L316 -102Q288 -85 255 -85Q222 -85 198 -102ZM256 -256Q229 -256 210.5 -237.5Q192 -219 192 -192Q192 -165 210.5 -146.5Q229 -128 256 -128Q283 -128 301.5 -146.5Q320 -165 320 -192Q320 -219 301.5 -237.5Q283 -256 256 -256ZM427 -405Q444 -405 456.5 -392.5Q469 -380 469 -363V-21Q469 -4 456.5 8.5Q444 21 427 21H405V43H320V21H192V43H107V21H85Q68 21 55.5 8.5Q43 -4 43 -21V-363Q43 -380 55.5 -392.5Q68 -405 85 -405ZM427 -21V-363H85V-21Z"/>
</svg>