<svg xmlns="http://www.w3.org/2000/svg" viewBox="0 -512 512 512">
	<path fill="#000000" d="M85 -363Q68 -363 55.5 -350.5Q43 -338 43 -320V-85Q43 -68 55.5 -55.5Q68 -43 85 -43V-21H128V-43H363V-21H405V-43Q423 -43 435.5 -55.5Q448 -68 448 -85V-107H469V-149H448V-256H469V-299H448V-320Q448 -338 435.5 -350.5Q423 -363 405 -363ZM85 -320H405V-85H85ZM288 -288Q253 -288 228 -263Q203 -238 203 -202.5Q203 -167 228 -142Q253 -117 288 -117Q323 -117 348 -142Q373 -167 373 -202.5Q373 -238 348 -263Q323 -288 288 -288ZM107 -256V-149H149V-256ZM288 -245Q306 -245 318.5 -232.5Q331 -220 331 -202.5Q331 -185 318.5 -172.5Q306 -160 288 -160Q270 -160 257.5 -172.5Q245 -185 245 -202.5Q245 -220 257.5 -232.5Q270 -245 288 -245Z"/>
</svg>