<svg xmlns="http://www.w3.org/2000/svg" viewBox="0 -512 512 512">
	<path fill="#000000" d="M64 -160L235 -405V-160ZM267 -160Q288 -218 287 -294Q286 -365 267 -427Q316 -411 358 -367Q398 -326 422.5 -270Q447 -214 447 -160ZM450 -84Q437 -63 419 -48Q399 -57 383 -75Q368 -55 343.5 -47.5Q319 -40 295 -47.5Q271 -55 255 -75Q240 -55 216 -47.5Q192 -40 167.5 -47.5Q143 -55 128 -75Q109 -56 92 -48Q73 -63 60 -84Q47 -105 43 -128H468Q463 -104 450 -84ZM447 43Q413 43 383 27Q354 43 319.5 43Q285 43 255 27Q226 43 191.5 43Q157 43 128 27Q96 45 43 43V0Q68 1 87 -3Q110 -8 128 -21Q156 -1 191.5 -1Q227 -1 255 -21Q284 -1 319.5 -1Q355 -1 383 -21Q401 -8 424 -3Q443 1 468 0V43Z"/>
</svg>