<svg xmlns="http://www.w3.org/2000/svg" viewBox="0 -512 512 512">
	<path fill="#000000" d="M203 -299Q216 -299 225.5 -289.5Q235 -280 235 -266.5Q235 -253 225.5 -244Q216 -235 202.5 -235Q189 -235 180 -244Q171 -253 171 -266.5Q171 -280 180 -289.5Q189 -299 203 -299ZM309 -149Q323 -149 332 -140Q341 -131 341 -117.5Q341 -104 332 -94.5Q323 -85 309.5 -85Q296 -85 286.5 -94.5Q277 -104 277 -117.5Q277 -131 286.5 -140Q296 -149 309 -149ZM179 -85L149 -115L333 -299L363 -269ZM398 -387L411 -305L486 -267L448 -192L486 -117L410 -79L397 3L314 -10L255 49L196 -11L114 3L100 -80L26 -118L64 -193L26 -267L101 -305L114 -387L197 -373L256 -433L315 -374ZM429 -248L373 -277L363 -339L301 -330L256 -373L211 -330L149 -339L139 -277L83 -248L111 -192L83 -136L139 -107L149 -45L211 -54L256 -11L301 -54L363 -45L373 -107L429 -136L401 -192Z"/>
</svg>