<svg xmlns="http://www.w3.org/2000/svg" viewBox="0 -512 512 512">
	<path fill="#000000" d="M398 -387L411 -305L486 -267L448 -192L486 -117L410 -79L397 3L314 -10L255 49L196 -11L114 3L100 -80L26 -118L64 -193L26 -267L101 -305L114 -387L197 -373L256 -433L315 -374ZM203 -299Q189 -299 180 -289.5Q171 -280 171 -266.5Q171 -253 180 -244Q189 -235 202.5 -235Q216 -235 225.5 -244Q235 -253 235 -266.5Q235 -280 225.5 -289.5Q216 -299 203 -299ZM309 -149Q296 -149 286.5 -140Q277 -131 277 -117.5Q277 -104 286.5 -94.5Q296 -85 309.5 -85Q323 -85 332 -94.5Q341 -104 341 -117.5Q341 -131 332 -140Q323 -149 309 -149ZM179 -85L363 -269L333 -299L149 -115Z"/>
</svg>