<svg xmlns="http://www.w3.org/2000/svg" viewBox="0 -512 512 512">
	<path fill="#000000" d="M392 -312Q378 -312 352 -304L351 -303Q340 -323 320.5 -334.5Q301 -346 278 -346Q261 -346 245.5 -339Q230 -332 218 -321Q205 -337 186 -347Q167 -357 146 -357Q121 -357 100 -345Q79 -333 66 -312Q53 -291 53 -267Q53 -255 61 -230L62 -228Q44 -218 32.5 -200Q21 -182 21 -160Q21 -128 44 -104.5Q67 -81 99 -81Q111 -81 116 -83Q122 -58 144 -42.5Q166 -27 194 -27Q222 -27 243 -41.5Q264 -56 272 -79Q293 -70 304 -70Q325 -70 343 -80.5Q361 -91 371 -108Q377 -107 390 -107Q417 -107 440.5 -120.5Q464 -134 477.5 -157.5Q491 -181 491.5 -209Q492 -237 479 -261Q466 -285 443 -298.5Q420 -312 392 -312Z"/>
</svg>