<svg xmlns="http://www.w3.org/2000/svg" viewBox="0 -512 512 512">
	<path fill="#000000" d="M427 -128Q425 -126 423 -123Q419 -118 418 -112Q418 -105 424 -98Q432 -90 450 -85L390 -26H331L325 -25Q318 -24 313.5 -20Q309 -16 309 -7Q310 4 320 21H235L192 -21L187 -25Q182 -29 176 -30Q169 -30 162 -24Q154 -16 149 2L90 -58V-117L89 -123Q88 -130 84 -134.5Q80 -139 71 -139Q60 -138 43 -128V-213L85 -256L89 -261Q93 -266 93.5 -272.5Q94 -279 87 -285Q79 -292 60 -297L119 -358H181L187 -359Q194 -360 198.5 -364Q203 -368 203 -377Q202 -388 192 -405H277L320 -363L325 -359Q330 -355 336 -355Q343 -354 350 -361Q358 -369 363 -388L422 -329V-267L423 -261Q424 -254 428 -249.5Q432 -245 441 -245Q452 -246 469 -256V-171ZM299 -192Q299 -210 286.5 -222.5Q274 -235 256 -235Q238 -235 225.5 -222.5Q213 -210 213 -192Q213 -174 225.5 -161.5Q238 -149 256 -149Q274 -149 286.5 -161.5Q299 -174 299 -192Z"/>
</svg>