<svg xmlns="http://www.w3.org/2000/svg" viewBox="0 -512 512 512">
	<path fill="#000000" d="M85 -405Q76 -405 70 -399Q64 -393 64 -384Q64 -375 70 -369Q76 -363 85 -363Q112 -363 130.5 -344Q149 -325 149 -299V-117Q149 -80 168 -48Q187 -16 218.5 2.5Q250 21 288 21Q326 21 357.5 2.5Q389 -16 408 -48Q427 -80 427 -117V-171Q436 -171 442 -177Q448 -183 448 -192Q448 -201 442 -207Q436 -213 427 -213H299Q290 -213 283.5 -207Q277 -201 277 -192Q277 -183 283.5 -177Q290 -171 299 -171V-128Q299 -119 292.5 -113Q286 -107 277 -107Q268 -107 262 -113Q256 -119 256 -128V-213Q265 -213 271 -219.5Q277 -226 277 -235Q277 -244 271 -250Q265 -256 256 -256V-277Q265 -277 271 -283.5Q277 -290 277 -299Q277 -308 271 -314Q265 -320 256 -320V-331Q256 -362 234 -383.5Q212 -405 181 -405Z"/>
</svg>