<svg xmlns="http://www.w3.org/2000/svg" viewBox="0 -512 512 512">
	<path fill="#000000" d="M277 -21V-260Q296 -268 305 -279L380 -252L318 -107Q310 -76 330.5 -59.5Q351 -43 392.5 -43Q434 -43 455 -59.5Q476 -76 467 -107L412 -241L431 -235L446 -275L320 -320Q320 -340 308.5 -357Q297 -374 278 -382Q259 -390 239.5 -384Q220 -378 207 -363L83 -405L68 -367L102 -354L45 -213Q37 -182 57.5 -165.5Q78 -149 119.5 -149Q161 -149 182 -165.5Q203 -182 194 -213L141 -339L192 -320Q192 -300 203.5 -283Q215 -266 235 -258V-21H43V21H469V-21ZM425 -107H361L393 -188ZM151 -213H87L119 -294ZM237 -326Q240 -335 248.5 -338.5Q257 -342 265 -339Q273 -336 276.5 -327.5Q280 -319 277 -311Q274 -303 266 -299.5Q258 -296 249.5 -299Q241 -302 237.5 -310Q234 -318 237 -326Z"/>
</svg>