<svg xmlns="http://www.w3.org/2000/svg" viewBox="0 -512 512 512">
	<path fill="#000000" d="M180 -127L150 -97L121 -126Q92 -89 87 -43H128V0H43V-21Q43 -72 65 -116Q87 -160 126 -190.5Q165 -221 213 -230V-273L43 -341V-384H469V-341L299 -273V-230Q347 -221 386 -190.5Q425 -160 447 -116Q469 -72 469 -21V0H384V-43H425Q420 -89 391 -126L362 -97L332 -127L361 -156Q323 -185 277 -191V-149H235V-191Q189 -185 151 -156ZM256 -64Q274 -64 286.5 -51.5Q299 -39 299 -21.5Q299 -4 286.5 8.5Q274 21 256 21Q246 21 237 17L155 -21L237 -60Q246 -64 256 -64Z"/>
</svg>