<svg xmlns="http://www.w3.org/2000/svg" viewBox="0 -512 512 512">
	<path fill="#000000" d="M256 -384Q236 -384 219.5 -372.5Q203 -361 196 -341H64V-299H106L43 -149Q35 -118 55.5 -101.5Q76 -85 117.5 -85Q159 -85 180 -101.5Q201 -118 192 -149L129 -299H196Q207 -271 235 -260V-21H43V21H469V-21H277V-260Q306 -270 316 -299H383L320 -149Q313 -118 333 -101.5Q353 -85 394.5 -85Q436 -85 457 -101.5Q478 -118 469 -149L406 -299H448V-341H316Q309 -361 292.5 -372.5Q276 -384 256 -384ZM256 -341Q265 -341 271 -335Q277 -329 277 -320Q277 -311 271 -305Q265 -299 256 -299Q247 -299 241 -305Q235 -311 235 -320Q235 -329 241 -335Q247 -341 256 -341ZM117 -229L149 -149H85ZM395 -229L427 -149H363Z"/>
</svg>