<svg xmlns="http://www.w3.org/2000/svg" viewBox="0 -512 512 512">
	<path fill="#000000" d="M149 -213Q176 -213 194.5 -194.5Q213 -176 213 -149.5Q213 -123 194.5 -104Q176 -85 149.5 -85Q123 -85 104 -104Q85 -123 85 -149.5Q85 -176 104 -194.5Q123 -213 149 -213ZM235 -384Q261 -384 280 -365.5Q299 -347 299 -320Q299 -293 280 -274.5Q261 -256 234.5 -256Q208 -256 189.5 -274.5Q171 -293 171 -320Q171 -347 189.5 -365.5Q208 -384 235 -384ZM354 -137Q381 -137 399.5 -118Q418 -99 418 -72.5Q418 -46 399.5 -27.5Q381 -9 354.5 -9Q328 -9 309 -27.5Q290 -46 290 -72.5Q290 -99 309 -118Q328 -137 354 -137Z"/>
</svg>