<svg xmlns="http://www.w3.org/2000/svg" viewBox="0 -512 512 512">
	<path fill="#000000" d="M149 -64Q114 -64 89 -89Q64 -114 64 -149.5Q64 -185 89 -210Q114 -235 149.5 -235Q185 -235 210 -210Q235 -185 235 -149.5Q235 -114 210 -89Q185 -64 149 -64ZM149 -192Q132 -192 119.5 -179.5Q107 -167 107 -149.5Q107 -132 119.5 -119.5Q132 -107 149.5 -107Q167 -107 179.5 -119.5Q192 -132 192 -149.5Q192 -167 179.5 -179.5Q167 -192 149 -192ZM235 -235Q199 -235 174 -260Q149 -285 149 -320Q149 -355 174 -380Q199 -405 234.5 -405Q270 -405 295 -380Q320 -355 320 -320Q320 -285 295 -260Q270 -235 235 -235ZM235 -363Q217 -363 204.5 -350.5Q192 -338 192 -320Q192 -302 204.5 -289.5Q217 -277 234.5 -277Q252 -277 264.5 -289.5Q277 -302 277 -320Q277 -338 264.5 -350.5Q252 -363 235 -363ZM354 13Q319 13 294 -12Q269 -37 269 -72.5Q269 -108 294 -133Q319 -158 354 -158Q389 -158 414 -133Q439 -108 439 -72.5Q439 -37 414 -12Q389 13 354 13ZM354 -115Q336 -115 323.5 -102.5Q311 -90 311 -72.5Q311 -55 324 -42.5Q337 -30 354.5 -30Q372 -30 384.5 -42.5Q397 -55 397 -72.5Q397 -90 384.5 -102.5Q372 -115 354 -115Z"/>
</svg>