<svg xmlns="http://www.w3.org/2000/svg" viewBox="0 -512 512 512">
	<path fill="#000000" d="M373 -339Q390 -318 397.5 -298Q405 -278 405 -256Q405 -228 393 -202Q381 -176 354 -147Q319 -110 301 -81Q277 -43 277 -11Q277 -4 281 12L282 17Q282 21 280 23Q278 25 276.5 24Q275 23 275 21Q259 0 251 -20Q243 -40 243 -62Q243 -90 255.5 -116Q268 -142 294 -171Q330 -208 348 -237Q371 -275 371 -307Q371 -314 368 -330L367 -335Q367 -339 369 -340Q371 -341 373 -339ZM207 -403Q228 -376 228 -343Q228 -304 190 -262Q163 -234 150 -212Q132 -183 132 -160Q132 -149 137 -141Q137 -139 135 -137Q133 -135 131 -136L130 -137Q107 -166 107 -198Q107 -238 145 -279Q171 -308 185 -330Q203 -358 203 -382Q203 -393 198 -401V-405Q205 -405 207 -403ZM215 -237Q251 -274 269 -303Q292 -341 292 -373Q292 -380 289 -396L288 -401Q288 -405 290 -407Q292 -409 293 -408Q294 -407 294 -405Q311 -384 318.5 -364Q326 -344 326 -322Q326 -294 314 -268Q302 -242 275 -213Q240 -176 222 -147Q198 -109 198 -77Q198 -70 202 -54L203 -49Q203 -45 201 -43Q199 -41 197.5 -42Q196 -43 196 -45Q180 -66 172 -86Q164 -106 164 -128Q164 -156 176.5 -182Q189 -208 215 -237Z"/>
</svg>