<svg xmlns="http://www.w3.org/2000/svg" viewBox="0 -512 512 512">
	<path fill="#000000" d="M235 0H149V-43H235ZM331 -43H363V0H277V-43H282L252 -173L198 -160Q196 -149 188 -132Q173 -108 146.5 -102Q120 -96 96 -110.5Q72 -125 66 -151.5Q60 -178 74.5 -202Q89 -226 115.5 -232.5Q142 -239 166 -224Q176 -219 186 -205L239 -218L226 -271Q218 -273 201 -282Q178 -296 171.5 -323Q165 -350 179 -373.5Q193 -397 220 -403Q247 -409 271 -394.5Q295 -380 301 -353.5Q307 -327 292 -303Q287 -293 273 -284ZM149 -196Q138 -204 124.5 -200.5Q111 -197 103 -186Q95 -175 98.5 -161Q102 -147 113 -140Q124 -133 138 -136Q152 -139 159 -151Q166 -163 163 -176.5Q160 -190 149 -196ZM265 -320Q272 -331 268.5 -345Q265 -359 254 -367Q243 -375 229 -371.5Q215 -368 207.5 -356.5Q200 -345 203.5 -331Q207 -317 219 -310Q231 -303 244.5 -306Q258 -309 265 -320ZM273 -207Q265 -211 262 -204Q259 -197 265.5 -193.5Q272 -190 275 -196Q278 -199 277.5 -202Q277 -205 273 -207ZM448 -267L309 -235L320 -188L480 -226L491 -241ZM491 -43H405V0H491ZM107 -43H21V0H107Z"/>
</svg>