<svg xmlns="http://www.w3.org/2000/svg" viewBox="0 -512 512 512">
	<path fill="#000000" d="M448 -384H64Q46 -384 33.5 -371.5Q21 -359 21 -341V-43Q21 -25 33.5 -12.5Q46 0 64 0H448Q466 0 478.5 -12.5Q491 -25 491 -43V-341Q491 -359 478.5 -371.5Q466 -384 448 -384ZM448 -43H64V-341H448ZM107 -299H192Q202 -299 207.5 -293Q213 -287 213 -277V-107Q213 -97 207.5 -91Q202 -85 192 -85H107Q97 -85 91 -91Q85 -97 85 -107V-277Q85 -287 91 -293Q97 -299 107 -299ZM128 -256V-128H171V-256ZM320 -299H405Q415 -299 421 -293Q427 -287 427 -277V-107Q427 -97 421 -91Q415 -85 405 -85H320Q310 -85 304.5 -91Q299 -97 299 -107V-277Q299 -287 304.5 -293Q310 -299 320 -299ZM341 -256V-128H384V-256ZM256 -213Q266 -213 271.5 -219Q277 -225 277 -234.5Q277 -244 271.5 -250Q266 -256 256 -256Q246 -256 240.5 -250Q235 -244 235 -234.5Q235 -225 240.5 -219Q246 -213 256 -213ZM256 -128Q266 -128 271.5 -134Q277 -140 277 -149.5Q277 -159 271.5 -165Q266 -171 256 -171Q246 -171 240.5 -165Q235 -159 235 -149.5Q235 -140 240.5 -134Q246 -128 256 -128Z"/>
</svg>