<svg xmlns="http://www.w3.org/2000/svg" viewBox="0 -512 512 512">
	<path fill="#000000" d="M128 -256H171V-128H128ZM341 -256H384V-128H341ZM448 -384Q466 -384 478.5 -371.5Q491 -359 491 -341V-43Q491 -25 478.5 -12.5Q466 0 448 0H64Q46 0 33.5 -12.5Q21 -25 21 -43V-341Q21 -359 33.5 -371.5Q46 -384 64 -384ZM107 -299Q97 -299 91 -293Q85 -287 85 -277V-107Q85 -97 91 -91Q97 -85 107 -85H192Q202 -85 207.5 -91Q213 -97 213 -107V-277Q213 -287 207.5 -293Q202 -299 192 -299ZM320 -299Q310 -299 304.5 -293Q299 -287 299 -277V-107Q299 -97 304.5 -91Q310 -85 320 -85H405Q415 -85 421 -91Q427 -97 427 -107V-277Q427 -287 421 -293Q415 -299 405 -299ZM256 -213Q266 -213 271.5 -219Q277 -225 277 -234.5Q277 -244 271.5 -250Q266 -256 256 -256Q246 -256 240.5 -250Q235 -244 235 -234.5Q235 -225 240.5 -219Q246 -213 256 -213ZM256 -128Q266 -128 271.5 -134Q277 -140 277 -149.5Q277 -159 271.5 -165Q266 -171 256 -171Q246 -171 240.5 -165Q235 -159 235 -149.5Q235 -140 240.5 -134Q246 -128 256 -128Z"/>
</svg>