<svg xmlns="http://www.w3.org/2000/svg" viewBox="0 -512 512 512">
	<path fill="#000000" d="M358 -395Q358 -410 369 -420.5Q380 -431 395 -431Q410 -431 420.5 -420.5Q431 -410 431 -395V-384H358ZM341 -256H448Q457 -256 463 -262Q469 -268 469 -277V-363Q469 -372 463 -378Q457 -384 448 -384V-395Q448 -417 432.5 -432.5Q417 -448 395 -448Q373 -448 357 -432.5Q341 -417 341 -395V-384Q332 -384 326 -378Q320 -372 320 -363V-277Q320 -268 326 -262Q332 -256 341 -256ZM181 -11Q128 -36 93.5 -84.5Q59 -133 53 -192H21Q27 -127 62 -73.5Q97 -20 153.5 11.5Q210 43 276 43L290 42L209 -39ZM496 -176L441 -230L411 -200L459 -153L338 -32L96 -274L217 -395L262 -350L292 -380L240 -432Q230 -441 217 -441Q204 -441 194 -432L59 -296Q49 -287 49 -273.5Q49 -260 59 -251L315 5Q325 15 338 15Q351 15 360 5L496 -130Q505 -140 505 -153Q505 -166 496 -176Z"/>
</svg>