<svg xmlns="http://www.w3.org/2000/svg" viewBox="0 -512 512 512">
	<path fill="#000000" d="M380 -43Q373 -62 357 -73.5Q341 -85 320 -85Q293 -85 274.5 -67Q256 -49 256 -21.5Q256 6 274.5 24.5Q293 43 320 43Q341 43 357 31Q373 19 380 0H405V43H448V0H491V-43ZM320 6Q309 6 300.5 -2Q292 -10 292 -21.5Q292 -33 300.5 -41Q309 -49 320 -49Q331 -49 339.5 -41Q348 -33 348 -21.5Q348 -10 339.5 -2Q331 6 320 6ZM192 -235H299V-192H192ZM192 -320H299V-277H192ZM149 -341Q149 -351 155 -357Q161 -363 171 -363H341V-126Q366 -119 384 -107V-341Q384 -351 390 -357Q396 -363 405.5 -363Q415 -363 421 -357Q427 -351 427 -341V-320H469V-341Q469 -369 451 -387Q433 -405 405 -405H171Q143 -405 125 -387Q107 -369 107 -341V-107H149ZM213 -21Q213 -47 222 -64H43V-43Q43 -15 61 3Q79 21 107 21H222Q213 4 213 -21ZM192 -107H256Q281 -123 299 -126V-149H192Z"/>
</svg>