<svg xmlns="http://www.w3.org/2000/svg" viewBox="0 -512 512 512">
	<path fill="#000000" d="M192 -149H299V-113L294 -107H192ZM192 -192H299V-235H192ZM192 -277H299V-320H192ZM149 -341Q149 -351 155 -357Q161 -363 171 -363H341V-154Q358 -165 384 -169V-341Q384 -351 390 -357Q396 -363 405.5 -363Q415 -363 421 -357Q427 -351 427 -341V-320H469V-341Q469 -369 451 -387Q433 -405 405 -405H171Q143 -405 125 -387Q107 -369 107 -341V-107H149ZM277 -43V-55V-64H43V-43Q43 -15 61 3Q79 21 107 21H294Q277 -9 277 -43ZM363 -107V21L469 -43Z"/>
</svg>