<svg xmlns="http://www.w3.org/2000/svg" viewBox="0 -512 512 512">
	<path fill="#000000" d="M380 -43Q373 -62 357 -73.5Q341 -85 320 -85Q293 -85 274.5 -67Q256 -49 256 -21.5Q256 6 274.5 24.5Q293 43 320 43Q341 43 357 31Q373 19 380 0H405V43H448V0H491V-43ZM320 6Q309 6 300.5 -2Q292 -10 292 -21.5Q292 -33 300.5 -41Q309 -49 320 -49Q331 -49 339.5 -41Q348 -33 348 -21.5Q348 -10 339.5 -2Q331 6 320 6ZM320 -128Q337 -128 354 -122.5Q371 -117 384 -107V-341Q384 -351 390 -357Q396 -363 405.5 -363Q415 -363 421 -357Q427 -351 427 -341V-320H469V-341Q469 -369 451 -387Q433 -405 405 -405H171Q143 -405 125 -387Q107 -369 107 -341V-107H256Q269 -117 286 -122.5Q303 -128 320 -128ZM171 -320H320V-277H171ZM171 -235H299V-192H171ZM222 21H107Q79 21 61 3Q43 -15 43 -43V-64H222Q213 -47 213 -21.5Q213 4 222 21Z"/>
</svg>