<svg xmlns="http://www.w3.org/2000/svg" viewBox="0 -512 512 512">
	<path fill="#000000" d="M320 -21Q329 -21 335 -27.5Q341 -34 341 -43V-363H171Q162 -363 155.5 -356.5Q149 -350 149 -341V-107H107V-341Q107 -368 125.5 -386.5Q144 -405 171 -405H405Q432 -405 450.5 -386.5Q469 -368 469 -341V-320H427V-341Q427 -350 420.5 -356.5Q414 -363 405 -363Q396 -363 390 -356.5Q384 -350 384 -341V-43Q384 -16 365.5 2.5Q347 21 320 21H107Q80 21 61.5 2.5Q43 -16 43 -43V-64H277Q277 -46 289.5 -33.5Q302 -21 320 -21ZM192 -320H299V-277H192ZM192 -235H299V-192H192ZM192 -149H299V-107H192Z"/>
</svg>