<svg xmlns="http://www.w3.org/2000/svg" viewBox="0 -512 512 512">
	<path fill="#000000" d="M378 -317Q374 -327 361 -337Q354 -343 351.5 -346.5Q349 -350 346 -358Q340 -374 331 -380.5Q322 -387 305 -388Q296 -388 292 -389Q288 -390 280 -396Q267 -405 256 -405Q245 -405 231 -396Q224 -390 219.5 -388.5Q215 -387 206 -387Q189 -387 180.5 -380.5Q172 -374 166 -358Q163 -350 160.5 -346.5Q158 -343 151 -337Q138 -327 134.5 -316.5Q131 -306 136 -291Q139 -282 139 -277.5Q139 -273 136 -264.5Q133 -256 133 -252Q132 -245 134 -238Q138 -227 151 -217Q158 -212 160.5 -208.5Q163 -205 166 -196Q172 -180 181 -173.5Q190 -167 207 -167Q216 -167 220 -166Q224 -165 232 -159Q245 -149 256 -149Q267 -149 281 -159Q288 -164 292.5 -165.5Q297 -167 306 -167Q323 -168 331.5 -174Q340 -180 346 -196Q349 -205 351.5 -208.5Q354 -212 361 -217Q374 -227 377.5 -237.5Q381 -248 376 -264Q373 -273 373 -277.5Q373 -282 376 -290Q379 -298 379 -303Q380 -310 378 -317ZM256 -192Q221 -192 196 -217Q171 -242 171 -277.5Q171 -313 196 -338Q221 -363 256 -363Q291 -363 316 -338Q341 -313 341 -277.5Q341 -242 316 -217Q291 -192 256 -192ZM299 -277Q299 -264 291.5 -253.5Q284 -243 272 -238Q260 -233 247.5 -235.5Q235 -238 226 -247Q217 -256 214.5 -269Q212 -282 217 -294Q222 -306 232.5 -313Q243 -320 256 -320Q274 -320 286.5 -307.5Q299 -295 299 -277ZM292 -116L279 -39L263 49L208 -4L137 27L166 -133Q185 -124 206 -124Q219 -114 235 -110Q245 -107 256 -107Q275 -107 292 -116ZM382 -47L327 -67L338 -130Q348 -133 356 -139L359 -141Z"/>
</svg>