<svg xmlns="http://www.w3.org/2000/svg" viewBox="0 -512 512 512">
	<path fill="#000000" d="M114 -328Q100 -338 97 -355.5Q94 -373 104 -387.5Q114 -402 131.5 -405Q149 -408 163.5 -397.5Q178 -387 181 -370Q184 -353 173.5 -338.5Q163 -324 146 -321Q129 -318 114 -328ZM341 -43H191Q167 -43 149 -58Q131 -73 127 -97L85 -299H43L85 -90Q91 -51 121 -25.5Q151 0 191 0H341ZM346 -128H242L220 -215Q249 -199 273 -193Q302 -185 330 -189V-235Q305 -230 278 -237.5Q251 -245 230 -262L195 -289Q188 -294 178 -297Q168 -300 158 -298H157Q138 -295 126.5 -278.5Q115 -262 118 -242L147 -116Q151 -93 169 -78.5Q187 -64 210 -64H356L437 0L469 -32Z"/>
</svg>