<svg xmlns="http://www.w3.org/2000/svg" viewBox="0 -512 512 512">
	<path fill="#000000" d="M162 -333Q149 -345 149 -362.5Q149 -380 161.5 -392.5Q174 -405 192 -405Q210 -405 222.5 -392.5Q235 -380 235 -362.5Q235 -345 222.5 -332.5Q210 -320 192 -320Q174 -320 162 -333ZM128 -107V-299H85V-107Q85 -78 99.5 -53.5Q114 -29 138.5 -14.5Q163 0 192 0H320V-43H192Q165 -43 146.5 -61.5Q128 -80 128 -107ZM427 -20L319 -128H245V-207Q269 -187 300 -174Q334 -160 363 -160V-207Q336 -206 308 -218.5Q280 -231 263 -250L233 -283Q228 -289 218 -294Q208 -299 198 -299H197Q177 -299 163 -285Q149 -271 149 -251V-128Q149 -101 168 -82.5Q187 -64 213 -64H321L396 11Z"/>
</svg>