<svg xmlns="http://www.w3.org/2000/svg" viewBox="0 -512 512 512">
	<path fill="#000000" d="M384 -192H427V-149H384ZM299 -107H341V-64H299ZM427 -85Q427 -77 420.5 -70.5Q414 -64 405 -64H384V-107H427ZM149 -363H171V-320H128V-341Q128 -350 134.5 -356.5Q141 -363 149 -363ZM405 -363Q414 -363 420.5 -356.5Q427 -350 427 -341V-320H384V-363ZM299 -320V-363H341V-320ZM213 -320V-363H256V-320ZM213 -64V-107H256V-64ZM149 -64Q141 -64 134.5 -70.5Q128 -77 128 -85V-107H171V-64ZM128 -192H171V-149H128ZM128 -277H171V-235H128ZM427 -277V-235H384V-277ZM64 -277H85V-21H341V0Q341 9 335 15Q329 21 321 21H64Q55 21 49 15Q43 9 43 0V-256Q43 -265 49 -271Q55 -277 64 -277Z"/>
</svg>