<svg xmlns="http://www.w3.org/2000/svg" viewBox="0 -512 512 512">
	<path fill="#000000" d="M411 -45Q426 -68 426 -96Q426 -136 398 -164Q370 -192 330 -192Q290 -192 262 -164Q234 -136 234 -96Q234 -56 262 -28Q290 0 330 0Q357 0 381 -15L447 51L477 21ZM330 -43Q308 -43 292 -58.5Q276 -74 276 -96Q276 -118 292 -133.5Q308 -149 330 -149Q352 -149 367.5 -133.5Q383 -118 383 -96Q383 -74 367.5 -58.5Q352 -43 330 -43ZM469 -149H458Q447 -175 427 -195V-235H469ZM427 -363H363V-405H427Q444 -405 456.5 -392.5Q469 -380 469 -363V-299H427ZM299 -363H213V-405H299ZM85 -405H149V-363H85V-299H43V-363Q43 -380 55.5 -392.5Q68 -405 85 -405ZM256 21H213V-21Q229 5 256 21ZM85 -21H149V21H85Q68 21 55.5 8.5Q43 -4 43 -21V-85H85ZM85 -149H43V-235H85Z"/>
</svg>