<svg xmlns="http://www.w3.org/2000/svg" viewBox="0 -512 512 512">
	<path fill="#000000" d="M149 -363H192V-320H171V-299H128V-341Q128 -350 134.5 -356.5Q141 -363 149 -363ZM405 -363Q414 -363 420.5 -356.5Q427 -350 427 -341V-299H384V-320H363V-363ZM235 -320V-363H320V-320ZM149 -64Q141 -64 134.5 -70.5Q128 -77 128 -85V-128H171V-107H192V-64ZM128 -256H171V-171H128ZM64 -277H85V-21H311L342 21H64Q55 21 49 15Q43 9 43 0V-256Q43 -265 49 -271Q55 -277 64 -277ZM395 -192Q425 -192 447 -170Q469 -148 469 -117Q469 -83 432 -27Q413 1 395 21L375 -2Q353 -31 339 -57Q320 -93 320 -117Q320 -148 342 -170Q364 -192 395 -192ZM395 -90Q406 -90 414 -98Q422 -106 421 -115.5Q420 -125 412 -133Q404 -141 394.5 -141Q385 -141 377 -133.5Q369 -126 369 -115.5Q369 -105 376.5 -97.5Q384 -90 395 -90ZM235 -64V-107H277Q280 -87 288 -64ZM427 -256V-230Q410 -235 395 -235L384 -234V-256Z"/>
</svg>