<svg xmlns="http://www.w3.org/2000/svg" viewBox="0 -512 512 512">
	<path fill="#000000" d="M412 -45Q427 -68 427 -96Q427 -136 399 -164Q371 -192 331 -192Q291 -192 263 -164Q235 -136 235 -96Q235 -56 263 -28Q291 0 331 0Q358 0 381 -15L448 51L478 21ZM331 -43Q309 -43 293 -58.5Q277 -74 277 -96Q277 -118 293 -133.5Q309 -149 331 -149Q353 -149 368.5 -133.5Q384 -118 384 -96Q384 -74 368.5 -58.5Q353 -43 331 -43ZM448 -256H405V-299H448ZM448 -341H405V-384H427Q435 -384 441.5 -377.5Q448 -371 448 -363ZM405 -213H448V-171H447Q431 -196 405 -213ZM363 -341H320V-384H363ZM277 -341H235V-384H277ZM64 -299H107V-256H64ZM149 -43H192V0H149ZM64 -213H107V-171H64ZM85 -384H107V-341H64V-363Q64 -371 70.5 -377.5Q77 -384 85 -384ZM192 -341H149V-384H192ZM64 -43H107V0H85Q77 0 70.5 -6.5Q64 -13 64 -21ZM64 -128H107V-85H64Z"/>
</svg>