<svg xmlns="http://www.w3.org/2000/svg" viewBox="0 -512 512 512">
	<path fill="#000000" d="M85 -384H107V-341H64V-363Q64 -371 70.5 -377.5Q77 -384 85 -384ZM427 -384Q435 -384 441.5 -377.5Q448 -371 448 -363V-341H405V-384ZM320 -341V-384H363V-341ZM235 -341V-384H277V-341ZM149 -341V-384H192V-341ZM235 0V-43H277V0ZM149 0V-43H192V0ZM85 0Q77 0 70.5 -6.5Q64 -13 64 -21V-43H107V0ZM64 -128H107V-85H64ZM64 -213H107V-171H64ZM64 -299H107V-256H64ZM448 -299V-256H405V-299ZM416 -171Q446 -171 468.5 -148.5Q491 -126 491 -96Q491 -71 471 -35Q457 -10 435 19L416 43L397 19Q375 -10 361 -35Q341 -71 341 -96Q341 -126 363.5 -148.5Q386 -171 416 -171ZM416 -68Q427 -68 435 -76Q443 -84 442.5 -93.5Q442 -103 434 -111Q426 -119 416 -119Q406 -119 398 -112Q390 -105 390 -94.5Q390 -84 397.5 -76Q405 -68 416 -68Z"/>
</svg>