<svg xmlns="http://www.w3.org/2000/svg" viewBox="0 -512 512 512">
	<path fill="#000000" d="M192 -256H320V-128H192ZM149 -85H363V-299H149ZM320 -341H363V-384H320ZM320 0H363V-43H320ZM405 -85H448V-128H405ZM405 -256H448V-299H405ZM405 0Q423 0 435.5 -12.5Q448 -25 448 -43H405ZM405 -171H448V-213H405ZM235 0H277V-43H235ZM192 -384H149V-341H192ZM64 -85H107V-128H64ZM107 0V-43H64Q64 -25 76.5 -12.5Q89 0 107 0ZM405 -384V-341H448Q448 -359 435.5 -371.5Q423 -384 405 -384ZM277 -384H235V-341H277ZM64 -256H107V-299H64ZM149 0H192V-43H149ZM64 -171H107V-213H64ZM64 -341H107V-384Q89 -384 76.5 -371.5Q64 -359 64 -341Z"/>
</svg>