<svg xmlns="http://www.w3.org/2000/svg" viewBox="0 -512 512 512">
	<path fill="#000000" d="M107 -384Q89 -384 76.5 -371.5Q64 -359 64 -341H107ZM149 -384V-341H192V-384ZM235 -384V-341H277V-384ZM320 -384V-341H363V-384ZM405 -384V-341H448Q448 -359 435.5 -371.5Q423 -384 405 -384ZM64 -299V-256H107V-299ZM149 -299V-213H235V-299ZM277 -299V-213H363V-299ZM405 -299V-256H448V-299ZM64 -213V-171H107V-213ZM405 -213V-171H448V-213ZM149 -171V-85H235V-171ZM277 -171V-85H363V-171ZM64 -128V-85H107V-128ZM405 -128V-85H448V-128ZM64 -43Q64 -25 76.5 -12.5Q89 0 107 0V-43ZM149 -43V0H192V-43ZM235 -43V0H277V-43ZM320 -43V0H363V-43ZM405 -43V0Q423 0 435.5 -12.5Q448 -25 448 -43Z"/>
</svg>