<svg xmlns="http://www.w3.org/2000/svg" viewBox="0 -512 512 512">
	<path fill="#000000" d="M235 -320V-363H320V-320ZM128 -256H171V-171H128ZM128 -320Q128 -338 140.5 -350.5Q153 -363 171 -363H192V-320H171V-299H128ZM171 -64Q153 -64 140.5 -76.5Q128 -89 128 -107V-128H171V-107H192V-64ZM384 -363Q402 -363 414.5 -350.5Q427 -338 427 -320V-299H384V-320H363V-363ZM320 -107V-64H235V-107ZM427 -171H384V-256H427ZM427 -107Q427 -89 414.5 -76.5Q402 -64 384 -64H363V-107H384V-128H427ZM64 -277H85V-21H341V0Q341 9 335 15Q329 21 321 21H64Q55 21 49 15Q43 9 43 0V-256Q43 -265 49 -271Q55 -277 64 -277Z"/>
</svg>