<svg xmlns="http://www.w3.org/2000/svg" viewBox="0 -512 512 512">
	<path fill="#000000" d="M85 -384H107V-341H64V-363Q64 -371 70.5 -377.5Q77 -384 85 -384ZM427 -384Q435 -384 441.5 -377.5Q448 -371 448 -363V-341H405V-384ZM320 -341V-384H363V-341ZM235 -341V-384H277V-341ZM149 -341V-384H192V-341ZM448 -192Q448 -184 441.5 -177.5Q435 -171 427 -171H405V-213H448ZM320 -171V-213H363V-171ZM235 -171V-213H277V-171ZM149 -171V-213H192V-171ZM85 -171Q77 -171 70.5 -177.5Q64 -184 64 -192V-213H107V-171ZM64 -299H107V-256H64ZM448 -299V-256H405V-299ZM149 -107L256 0L363 -107Z"/>
</svg>