<svg xmlns="http://www.w3.org/2000/svg" viewBox="0 -512 512 512">
	<path fill="#000000" d="M85 -384H107V-341H64V-363Q64 -372 70 -378Q76 -384 85 -384ZM427 -384Q436 -384 442 -378Q448 -372 448 -363V-341H405V-384ZM320 -341V-384H363V-341ZM235 -341V-384H277V-341ZM149 -341V-384H192V-341ZM235 0V-43H277V0ZM149 0V-43H192V0ZM85 0Q76 0 70 -6Q64 -12 64 -21V-43H107V0ZM64 -128H107V-85H64ZM64 -213H107V-171H64ZM448 -213V-171H405V-213ZM64 -299H107V-256H64ZM448 -299V-256H405V-299ZM405 21L469 -43H427V-128H384V-43H341Z"/>
</svg>