<svg xmlns="http://www.w3.org/2000/svg" viewBox="0 -512 512 512">
	<path fill="#000000" d="M43 -363Q43 -380 55.5 -392.5Q68 -405 85 -405H149V-363H85V-299H43ZM469 -363V-299H427V-363H363V-405H427Q444 -405 456.5 -392.5Q469 -380 469 -363ZM43 -21V-85H85V-21H149V21H85Q68 21 55.5 8.5Q43 -4 43 -21ZM213 -405H299V-363H213ZM213 -21H299V21H213ZM43 -235H85V-149H43ZM395 -171Q425 -171 447 -148.5Q469 -126 469 -96Q469 -71 450 -35Q436 -10 414 19L395 43L375 19Q353 -10 339 -35Q320 -71 320 -96Q320 -126 342 -148.5Q364 -171 395 -171ZM395 -68Q406 -68 414 -76Q422 -84 421 -93.5Q420 -103 412 -111Q404 -119 394.5 -119Q385 -119 377 -112Q369 -105 369 -94.5Q369 -84 376.5 -76Q384 -68 395 -68ZM427 -235H469V-185Q450 -202 427 -208Z"/>
</svg>