<svg xmlns="http://www.w3.org/2000/svg" viewBox="0 -512 512 512">
	<path fill="#000000" d="M83 -384Q75 -383 69.5 -377Q64 -371 64 -363V-341H107V-384ZM149 -384V-341H192V-384ZM235 -384V-341H277V-384ZM320 -384V-341H363V-384ZM405 -384V-363V-341H448V-365Q447 -373 441 -378.5Q435 -384 427 -384ZM64 -299V-256H107V-299ZM405 -299V-256H448V-299ZM64 -213V-171H107V-213ZM412 -192Q408 -192 404 -189L371 -156L351 -176L335 -161L351 -146L255 -51V0H306L401 -95L416 -80L431 -95L411 -116L444 -149Q447 -152 447 -156.5Q447 -161 444 -164L419 -189Q416 -192 412 -192ZM64 -128V-85H107V-128ZM363 -128L383 -107L297 -21L277 -42ZM64 -43V-21V-19Q65 -11 71 -5.5Q77 0 85 0H107V-43ZM149 -43V0H192V-43Z"/>
</svg>