<svg xmlns="http://www.w3.org/2000/svg" viewBox="0 -512 512 512">
	<path fill="#000000" d="M491 -64V-75Q491 -97 475 -112.5Q459 -128 437 -128Q415 -128 399.5 -112.5Q384 -97 384 -75V-64Q375 -64 369 -57.5Q363 -51 363 -43V43Q363 51 369 57.5Q375 64 384 64H491Q499 64 505.5 57.5Q512 51 512 43V-43Q512 -51 505.5 -57.5Q499 -64 491 -64ZM469 -64H405V-75Q405 -88 414.5 -97.5Q424 -107 437.5 -107Q451 -107 460 -97.5Q469 -88 469 -75ZM85 -319L245 -251L85 -272ZM245 -133L85 -65V-112ZM43 -384V-235L363 -192L43 -149V0L491 -192Z"/>
</svg>