<svg xmlns="http://www.w3.org/2000/svg" viewBox="0 -512 512 512">
	<path fill="#000000" d="M43 -384V-235L235 -192L43 -149V0L198 -66Q211 -18 251 12.5Q291 43 341 43Q382 43 416 22.5Q450 2 470.5 -32Q491 -66 491 -106.5Q491 -147 470.5 -181.5Q450 -216 416 -236Q382 -256 341 -256ZM85 -319L273 -239Q265 -235 258 -230L85 -269ZM341 -213Q370 -213 394.5 -199Q419 -185 433.5 -160.5Q448 -136 448 -107Q448 -78 433.5 -53.5Q419 -29 394.5 -14.5Q370 0 341 0Q312 0 287.5 -14.5Q263 -29 249 -53.5Q235 -78 235 -107Q235 -136 249 -160.5Q263 -185 287.5 -199Q312 -213 341 -213ZM320 -181V-96L384 -53L400 -80L352 -112V-181ZM196 -140Q192 -125 192 -111L85 -65V-115Z"/>
</svg>