<svg xmlns="http://www.w3.org/2000/svg" viewBox="0 -512 512 512">
	<path fill="#000000" d="M320 -92V-171H352V-111L404 -80L388 -53ZM64 -21V-149L216 -187L221 -195L64 -235V-363L321 -255Q327 -256 341 -256Q371 -256 398.5 -244.5Q426 -233 447 -212Q455 -204 461 -195L469 -192L465 -190Q491 -153 491 -107Q491 -66 470.5 -31.5Q450 3 416 23Q382 43 341 43Q312 43 284.5 31.5Q257 20 236 -1Q204 -32 195 -77ZM445 -107Q445 -135 431 -158.5Q417 -182 393 -196Q369 -210 341 -210Q299 -210 268.5 -179.5Q238 -149 238 -107Q238 -79 252 -55Q266 -31 289.5 -17Q313 -3 341 -3Q362 -3 381.5 -11.5Q401 -20 414.5 -33.5Q428 -47 436.5 -66.5Q445 -86 445 -107Z"/>
</svg>