<svg xmlns="http://www.w3.org/2000/svg" viewBox="0 -512 512 512">
	<path fill="#000000" d="M277 -43H299Q308 -43 314 -36.5Q320 -30 320 -21H469V21H320Q320 30 314 36.5Q308 43 299 43H213Q204 43 198 36.5Q192 30 192 21H43V-21H192Q192 -30 198 -36.5Q204 -43 213 -43H235V-85H85Q76 -85 70 -91.5Q64 -98 64 -107V-192Q64 -201 70 -207Q76 -213 85 -213H427Q436 -213 442 -207Q448 -201 448 -192V-107Q448 -98 442 -91.5Q436 -85 427 -85H277ZM85 -384H427Q436 -384 442 -378Q448 -372 448 -363V-277Q448 -268 442 -262Q436 -256 427 -256H85Q76 -256 70 -262Q64 -268 64 -277V-363Q64 -372 70 -378Q76 -384 85 -384ZM192 -299H213V-341H192ZM192 -128H213V-171H192ZM107 -341V-299H149V-341ZM107 -171V-128H149V-171Z"/>
</svg>