<svg xmlns="http://www.w3.org/2000/svg" viewBox="0 -512 512 512">
	<path fill="#000000" d="M85 -427H427Q436 -427 442 -420.5Q448 -414 448 -405V-320Q448 -311 442 -305Q436 -299 427 -299H85Q76 -299 70 -305Q64 -311 64 -320V-405Q64 -414 70 -420.5Q76 -427 85 -427ZM85 -256H427Q436 -256 442 -250Q448 -244 448 -235V-149Q448 -140 442 -134Q436 -128 427 -128H85Q76 -128 70 -134Q64 -140 64 -149V-235Q64 -244 70 -250Q76 -256 85 -256ZM85 -85H427Q436 -85 442 -79Q448 -73 448 -64V21Q448 30 442 36.5Q436 43 427 43H85Q76 43 70 36.5Q64 30 64 21V-64Q64 -73 70 -79Q76 -85 85 -85ZM192 -341H213V-384H192ZM192 -171H213V-213H192ZM192 0H213V-43H192ZM107 -384V-341H149V-384ZM107 -213V-171H149V-213ZM107 -43V0H149V-43Z"/>
</svg>