<svg xmlns="http://www.w3.org/2000/svg" viewBox="0 -512 512 512">
	<path fill="#000000" d="M64 -427H405Q414 -427 420.5 -420.5Q427 -414 427 -405V-320Q427 -311 420.5 -305Q414 -299 405 -299H64Q55 -299 49 -305Q43 -311 43 -320V-405Q43 -414 49 -420.5Q55 -427 64 -427ZM64 -256H405Q414 -256 420.5 -250Q427 -244 427 -235V-220L373 -244L235 -183V-128H64Q55 -128 49 -134Q43 -140 43 -149V-235Q43 -244 49 -250Q55 -256 64 -256ZM64 -85H235Q236 -50 249.5 -16.5Q263 17 287 43H64Q55 43 49 36.5Q43 30 43 21V-64Q43 -73 49 -79Q55 -85 64 -85ZM171 -341H192V-384H171ZM171 -171H192V-213H171ZM171 0H192V-43H171ZM85 -384V-341H128V-384ZM85 -213V-171H128V-213ZM85 -43V0H128V-43ZM373 -192L469 -149V-85Q469 -41 442 -4Q415 33 373 43Q332 33 304.5 -4Q277 -41 277 -85V-149ZM373 -151L320 -127V-70Q320 -45 335 -24.5Q350 -4 373 1Z"/>
</svg>