<svg xmlns="http://www.w3.org/2000/svg" viewBox="0 -512 512 512">
	<path fill="#000000" d="M277 -171V-128H299Q308 -128 314 -122Q320 -116 320 -107H469V-64H320Q320 -54 314 -48.5Q308 -43 299 -43H213Q204 -43 198 -48.5Q192 -54 192 -64H43V-107H192Q192 -116 198 -122Q204 -128 213 -128H235V-171H68Q57 -171 50 -180.5Q43 -190 43 -205V-307Q43 -322 50 -331.5Q57 -341 68 -341H444Q455 -341 462 -331.5Q469 -322 469 -307V-205Q469 -190 462 -180.5Q455 -171 444 -171ZM192 -235V-277H213V-235ZM107 -277H149V-235H107ZM427 -299H85V-213H427Z"/>
</svg>