<svg xmlns="http://www.w3.org/2000/svg" viewBox="0 -512 512 512">
	<path fill="#000000" d="M43 -350V-247Q43 -233 50 -223Q57 -213 68 -213H446Q456 -213 463.5 -223Q471 -233 471 -247V-350Q470 -365 462.5 -374.5Q455 -384 444 -384H68Q57 -384 50 -374Q43 -364 43 -350ZM213 -277V-320H192V-277ZM107 -277H149V-320H107ZM427 -256H85V-341H427ZM43 -137V-34Q43 -20 50 -10Q57 0 68 0H446Q456 0 463.5 -10Q471 -20 471 -34V-137Q471 -151 464 -161Q457 -171 446 -171H68Q57 -171 50 -161Q43 -151 43 -137ZM213 -64V-107H192V-64ZM107 -64H149V-107H107ZM427 -43H85V-128H427Z"/>
</svg>