<svg xmlns="http://www.w3.org/2000/svg" viewBox="0 -512 512 512">
	<path fill="#000000" d="M192 -341Q151 -341 117 -321Q83 -301 63 -267Q43 -233 43 -192Q43 -151 63 -117Q83 -83 117 -63Q151 -43 192 -43Q225 -43 256 -57Q287 -43 320 -43Q361 -43 395 -63Q429 -83 449 -117Q469 -151 469 -192Q469 -233 449 -267Q429 -301 395 -321Q361 -341 320 -341Q287 -341 256 -327Q225 -341 192 -341ZM192 -299Q203 -299 213 -297Q193 -276 182 -248.5Q171 -221 171 -192Q171 -163 182 -135.5Q193 -108 213 -88Q202 -85 192 -85Q163 -85 138.5 -99.5Q114 -114 99.5 -138.5Q85 -163 85 -192Q85 -221 99.5 -245.5Q114 -270 138.5 -284.5Q163 -299 192 -299ZM320 -299Q349 -299 373.5 -284.5Q398 -270 412.5 -245.5Q427 -221 427 -192Q427 -163 412.5 -138.5Q398 -114 373.5 -99.5Q349 -85 320 -85Q309 -85 299 -87Q319 -108 330 -135.5Q341 -163 341 -192Q341 -221 330 -248.5Q319 -276 299 -296Q310 -299 320 -299Z"/>
</svg>