<svg xmlns="http://www.w3.org/2000/svg" viewBox="0 -512 512 512">
	<path fill="#000000" d="M192 -341Q225 -341 256 -327Q287 -341 320 -341Q361 -341 395 -321Q429 -301 449 -267Q469 -233 469 -192Q469 -151 449 -117Q429 -83 395 -63Q361 -43 320 -43Q287 -43 256 -57Q225 -43 192 -43Q151 -43 117 -63Q83 -83 63 -117Q43 -151 43 -192Q43 -233 63 -267Q83 -301 117 -321Q151 -341 192 -341ZM320 -299L299 -296Q319 -276 330 -248.5Q341 -221 341 -192Q341 -163 330 -135.5Q319 -108 299 -87L320 -85Q349 -85 373.5 -99.5Q398 -114 412.5 -138.5Q427 -163 427 -192Q427 -221 412.5 -245.5Q398 -270 373.5 -284.5Q349 -299 320 -299ZM181 -192Q181 -163 193 -136.5Q205 -110 225 -91L247 -100Q226 -117 214.5 -141Q203 -165 203 -192Q203 -219 214.5 -243Q226 -267 247 -284L225 -293Q205 -274 193 -247.5Q181 -221 181 -192Z"/>
</svg>