<svg xmlns="http://www.w3.org/2000/svg" viewBox="0 -512 512 512">
	<path fill="#000000" d="M192 -341Q225 -341 256 -327Q287 -341 320 -341Q361 -341 395 -321Q429 -301 449 -267Q469 -233 469 -192Q469 -151 449 -117Q429 -83 395 -63Q361 -43 320 -43Q287 -43 256 -57Q225 -43 192 -43Q151 -43 117 -63Q83 -83 63 -117Q43 -151 43 -192Q43 -233 63 -267Q83 -301 117 -321Q151 -341 192 -341ZM192 -192Q192 -157 209.5 -127.5Q227 -98 256 -81Q285 -98 302.5 -127.5Q320 -157 320 -192Q320 -227 302.5 -256.5Q285 -286 256 -303Q227 -286 209.5 -256.5Q192 -227 192 -192Z"/>
</svg>