<svg xmlns="http://www.w3.org/2000/svg" viewBox="0 -512 512 512">
	<path fill="#000000" d="M107 -117Q107 -113 103.5 -110Q100 -107 96 -107H75Q70 -107 67 -110Q64 -113 64 -117V-128H43Q34 -128 27.5 -134Q21 -140 21 -149V-213Q21 -222 27.5 -228.5Q34 -235 43 -235H469Q478 -235 484.5 -228.5Q491 -222 491 -213V-149Q491 -140 484.5 -134Q478 -128 469 -128H448V-117Q448 -113 445 -110Q442 -107 437 -107H416Q412 -107 408.5 -110Q405 -113 405 -117V-128H107ZM64 -192V-171H107V-192ZM128 -192V-171H171V-192ZM437 -203Q428 -203 422 -196.5Q416 -190 416 -181Q416 -172 422 -166Q428 -160 437 -160Q446 -160 452.5 -166Q459 -172 459 -181Q459 -190 452.5 -196.5Q446 -203 437 -203Z"/>
</svg>