<svg xmlns="http://www.w3.org/2000/svg" viewBox="0 -512 512 512">
	<path fill="#000000" d="M360 -363L406 -318L288 -224L267 -245ZM360 -405Q340 -405 327 -390L209 -242L285 -167L433 -284Q447 -297 448 -315.5Q449 -334 435 -348L390 -393Q378 -405 360 -405ZM194 -227L179 -212Q173 -206 173 -197Q173 -188 179 -181L224 -137Q230 -130 239 -130Q248 -130 255 -137L269 -151ZM128 -128Q119 -128 113 -121.5Q107 -115 107 -106.5Q107 -98 113 -91.5Q119 -85 128 -85Q137 -85 143 -91.5Q149 -98 149 -106.5Q149 -115 143 -121.5Q137 -128 128 -128ZM192 -107Q183 -107 177 -100.5Q171 -94 171 -85.5Q171 -77 177 -70.5Q183 -64 192 -64Q201 -64 207 -70.5Q213 -77 213 -85.5Q213 -94 207 -100.5Q201 -107 192 -107ZM85 -64Q77 -64 70.5 -57.5Q64 -51 64 -42.5Q64 -34 70.5 -27.5Q77 -21 85.5 -21Q94 -21 100.5 -27.5Q107 -34 107 -42.5Q107 -51 100.5 -57.5Q94 -64 85 -64ZM149 -43Q141 -43 134.5 -36.5Q128 -30 128 -21.5Q128 -13 134.5 -6.5Q141 0 149.5 0Q158 0 164.5 -6.5Q171 -13 171 -21.5Q171 -30 164.5 -36.5Q158 -43 149 -43Z"/>
</svg>