<svg xmlns="http://www.w3.org/2000/svg" viewBox="0 -512 512 512">
	<path fill="#000000" d="M235 -213V-405H43V-213ZM85 -256V-363H192V-256ZM427 -309Q427 -287 411.5 -271.5Q396 -256 373.5 -256Q351 -256 335.5 -271.5Q320 -287 320 -309.5Q320 -332 335.5 -347.5Q351 -363 373.5 -363Q396 -363 411.5 -347.5Q427 -332 427 -309ZM139 -149L43 21H235ZM162 -21H116L139 -62ZM469 -309Q469 -349 441 -377Q413 -405 373 -405Q333 -405 305 -377Q277 -349 277 -309Q277 -269 305 -241Q333 -213 373 -213Q413 -213 441 -241Q469 -269 469 -309ZM405 -85V-149H363V-85H299V-43H363V21H405V-43H469V-85Z"/>
</svg>