<svg xmlns="http://www.w3.org/2000/svg" viewBox="0 -512 512 512">
	<path fill="#000000" d="M405 -341H469V-299H405V-235H363V-299H299V-341H363V-405H405ZM235 -363L256 -361V-317Q245 -320 235 -320Q206 -320 181.5 -300Q157 -280 142.5 -245.5Q128 -211 128 -170.5Q128 -130 142.5 -95.5Q157 -61 181.5 -41Q206 -21 235 -21Q264 -21 288.5 -41Q313 -61 327 -95.5Q341 -130 341 -171L340 -192H383L384 -171Q384 -119 364 -74.5Q344 -30 309.5 -4.5Q275 21 234.5 21Q194 21 159.5 -4.5Q125 -30 105 -74.5Q85 -119 85 -171Q85 -223 105 -267Q125 -311 159.5 -337Q194 -363 235 -363Z"/>
</svg>