<svg xmlns="http://www.w3.org/2000/svg" viewBox="0 -512 512 512">
	<path fill="#000000" d="M469 -107V-64H427Q384 -64 341 -85Q301 -65 256 -65Q211 -65 171 -85Q128 -64 85 -64H43V-107H85Q129 -107 171 -134Q209 -107 256 -107Q303 -107 341 -134Q383 -107 427 -107ZM113 -154Q131 -159 147 -170L171 -186L195 -169Q224 -149 256 -149Q288 -149 317 -169L341 -186L365 -170Q391 -152 420 -150Q405 -219 361 -278Q317 -337 257 -370Q195 -405 128 -405Q116 -405 110 -395Q104 -385 109 -374Q141 -310 139 -249Q137 -200 113 -154ZM341 -49Q303 -22 256 -22Q209 -22 171 -49Q129 -21 85 -21H43V21H85Q128 21 171 0Q211 21 256 21Q301 21 341 0Q384 21 427 21H469V-21H427Q383 -21 341 -49Z"/>
</svg>