<svg xmlns="http://www.w3.org/2000/svg" viewBox="0 -512 512 512">
	<path fill="#000000" d="M384 -105Q360 -105 342 -89L190 -177Q192 -186 192 -192Q192 -198 190 -207L340 -295Q359 -277 385 -277Q411 -277 429.5 -296Q448 -315 448 -341.5Q448 -368 429.5 -386.5Q411 -405 384 -405Q357 -405 338.5 -386.5Q320 -368 320 -341Q320 -335 322 -326L172 -239Q153 -256 127 -256Q101 -256 82.5 -237.5Q64 -219 64 -192Q64 -165 82.5 -146.5Q101 -128 127 -128Q153 -128 172 -145L323 -57Q322 -50 322 -43Q322 -17 340 1Q358 19 384 19Q410 19 428 1Q446 -17 446 -42.5Q446 -68 428 -86.5Q410 -105 384 -105Z"/>
</svg>