<svg xmlns="http://www.w3.org/2000/svg" viewBox="0 -512 512 512">
	<path fill="#000000" d="M384 -105Q360 -105 342 -89L190 -177Q192 -186 192 -192Q192 -198 190 -207L340 -295Q359 -277 385 -277Q411 -277 429.5 -296Q448 -315 448 -341.5Q448 -368 429.5 -386.5Q411 -405 384 -405Q357 -405 338.5 -386.5Q320 -368 320 -341Q320 -335 322 -326L172 -239Q153 -256 127 -256Q101 -256 82.5 -237.5Q64 -219 64 -192Q64 -165 82.5 -146.5Q101 -128 127 -128Q153 -128 172 -145L323 -57Q322 -50 322 -43Q322 -17 340 1Q358 19 384 19Q410 19 428 1Q446 -17 446 -42.5Q446 -68 428 -86.5Q410 -105 384 -105ZM384 -363Q393 -363 399 -356.5Q405 -350 405 -341.5Q405 -333 399 -326.5Q393 -320 384 -320Q375 -320 369 -326.5Q363 -333 363 -341.5Q363 -350 369 -356.5Q375 -363 384 -363ZM128 -171Q119 -171 113 -177Q107 -183 107 -192Q107 -201 113 -207Q119 -213 128 -213Q137 -213 143 -207Q149 -201 149 -192Q149 -183 143 -177Q137 -171 128 -171ZM384 -21Q375 -21 369 -27.5Q363 -34 363 -42.5Q363 -51 369 -57.5Q375 -64 384 -64Q393 -64 399 -57.5Q405 -51 405 -42.5Q405 -34 399 -27.5Q393 -21 384 -21Z"/>
</svg>