<svg xmlns="http://www.w3.org/2000/svg" viewBox="0 -512 512 512">
	<path fill="#000000" d="M240 -276L395 -121Q413 -127 424 -132Q418 -139 411 -143Q394 -154 363 -160Q395 -166 418 -163Q436 -161 448 -152L453 -148Q471 -160 481 -172Q491 -184 491 -192.5Q491 -201 467 -214Q443 -227 408 -238Q369 -250 332 -254Q318 -283 288 -302Q261 -320 235 -320Q242 -298 240 -276ZM368 -227Q383 -223 405 -217Q405 -216 405 -213Q405 -205 399 -198.5Q393 -192 384 -192Q375 -192 369 -198.5Q363 -205 363 -212.5Q363 -220 368 -227ZM472 10L445 37L329 -79Q311 -64 299 -64V-107Q259 -107 189 -128Q155 -139 128 -149L115 -133Q100 -114 84 -102Q62 -85 43 -85L64 -171L21 -299Q48 -299 91 -256Q112 -235 128 -213L142 -219Q159 -225 177 -231L24 -384L51 -411Z"/>
</svg>