<svg xmlns="http://www.w3.org/2000/svg" viewBox="0 -512 512 512">
	<path fill="#000000" d="M448 -213Q448 -155 423 -101Q398 -47 354 -9Q310 29 256 43Q202 29 158 -9Q114 -47 89 -101Q64 -155 64 -213V-341L256 -427L448 -341ZM256 0Q295 -11 329.5 -43Q364 -75 384.5 -119Q405 -163 405 -209V-314L256 -380L107 -314V-209Q107 -163 127.5 -119Q148 -75 182.5 -43Q217 -11 256 0ZM316 -213V-245Q316 -267 297.5 -283Q279 -299 256 -299Q233 -299 214.5 -283Q196 -267 196 -245V-213Q187 -213 179 -205Q171 -197 171 -188V-113Q171 -102 178.5 -93.5Q186 -85 196 -85H314Q325 -85 333 -93Q341 -101 341 -111V-186Q341 -197 333.5 -205Q326 -213 316 -213ZM288 -213H224V-245Q224 -258 233.5 -265.5Q243 -273 256 -273Q269 -273 278.5 -265.5Q288 -258 288 -245Z"/>
</svg>