<svg xmlns="http://www.w3.org/2000/svg" viewBox="0 -512 512 512">
	<path fill="#000000" d="M384 -192Q416 -192 445 -178Q448 -195 448 -213V-341L256 -427L64 -341V-213Q64 -155 89 -101Q114 -47 158 -9Q202 29 256 43Q268 40 277 36Q245 -3 245 -53Q245 -91 264 -123Q283 -155 314.5 -173.5Q346 -192 384 -192ZM384 -139V-171L336 -123L384 -75V-107Q398 -107 410 -100Q422 -93 429.5 -81.5Q437 -70 437.5 -56Q438 -42 432 -29L455 -6Q468 -26 469 -49.5Q470 -73 459 -93.5Q448 -114 428 -126.5Q408 -139 384 -139ZM384 0Q370 0 358 -6.5Q346 -13 338.5 -25Q331 -37 330.5 -51Q330 -65 336 -77L313 -100Q300 -81 299 -57.5Q298 -34 309 -13Q320 8 340 20Q360 32 384 32V64L432 16L384 -32Z"/>
</svg>