<svg xmlns="http://www.w3.org/2000/svg" viewBox="0 -512 512 512">
	<path fill="#000000" d="M448 -213Q448 -155 423 -101.5Q398 -48 354.5 -9.5Q311 29 256 43Q201 29 157.5 -9.5Q114 -48 89 -101.5Q64 -155 64 -213V-341L256 -427L448 -341ZM256 0Q296 -10 330.5 -42.5Q365 -75 385 -119.5Q405 -164 405 -209V-314L256 -380L107 -314V-209Q107 -164 127 -119.5Q147 -75 181.5 -42.5Q216 -10 256 0ZM316 -213H224V-267Q224 -279 233.5 -286.5Q243 -294 256 -294Q269 -294 278.5 -286.5Q288 -279 288 -267V-256H316V-267Q316 -289 297.5 -304.5Q279 -320 256 -320Q233 -320 214.5 -304.5Q196 -289 196 -267V-213Q187 -213 179 -205Q171 -197 171 -188V-113Q171 -102 178.5 -93.5Q186 -85 196 -85H314Q325 -85 333 -93Q341 -101 341 -111V-186Q341 -197 333.5 -205Q326 -213 316 -213Z"/>
</svg>