<svg xmlns="http://www.w3.org/2000/svg" viewBox="0 -512 512 512">
	<path fill="#000000" d="M448 -213Q448 -155 423 -101Q398 -47 354 -9Q310 29 256 43Q202 29 158 -9Q114 -47 89 -101Q64 -155 64 -213V-341L256 -427L448 -341ZM256 0Q295 -11 329.5 -43Q364 -75 384.5 -119Q405 -163 405 -209V-314L256 -380L107 -314V-209Q107 -163 127.5 -119Q148 -75 182.5 -43Q217 -11 256 0ZM192 -142Q210 -120 238 -111.5Q266 -103 294 -110.5Q322 -118 341 -141Q344 -145 342.5 -150.5Q341 -156 335 -157Q314 -160 296 -172Q278 -184 267 -203.5Q256 -223 254.5 -244.5Q253 -266 260 -286Q262 -291 258.5 -295.5Q255 -300 250 -299Q215 -292 193 -265.5Q171 -239 170 -204.5Q169 -170 192 -142Z"/>
</svg>