<svg xmlns="http://www.w3.org/2000/svg" viewBox="0 -512 512 512">
	<path fill="#000000" d="M256 -427L64 -341V-213Q64 -155 89 -101Q114 -47 158 -9Q202 29 256 43Q310 29 354 -9Q398 -47 423 -101Q448 -155 448 -213V-341ZM256 -299Q279 -299 297.5 -283Q316 -267 316 -245V-213Q326 -213 333.5 -205Q341 -197 341 -186V-111Q341 -101 333 -93Q325 -85 314 -85H196Q186 -85 178.5 -93.5Q171 -102 171 -113V-188Q171 -197 179 -205Q187 -213 196 -213V-245Q196 -267 214.5 -283Q233 -299 256 -299ZM256 -273Q243 -273 233.5 -265.5Q224 -258 224 -245V-213H288V-245Q288 -258 278.5 -265.5Q269 -273 256 -273Z"/>
</svg>