<svg xmlns="http://www.w3.org/2000/svg" viewBox="0 -512 512 512">
	<path fill="#000000" d="M211 -307L194 -290L220 -265Q203 -254 196 -235H149V-213H192V-192H149V-171H192V-149H149V-128H196Q203 -109 219 -97Q235 -85 256 -85Q277 -85 293 -97Q309 -109 316 -128H363V-149H320V-171H363V-192H320V-213H363V-235H316Q310 -253 292 -267L318 -292L303 -307L273 -277H256Q245 -277 241 -275ZM235 -213H277V-192H235ZM235 -171H277V-149H235ZM448 -213Q448 -155 423 -101.5Q398 -48 354.5 -9.5Q311 29 256 43Q201 29 157.5 -9.5Q114 -48 89 -101.5Q64 -155 64 -213V-341L256 -427L448 -341ZM256 0Q296 -10 330.5 -42.5Q365 -75 385 -119.5Q405 -164 405 -209V-314L256 -380L107 -314V-209Q107 -164 127 -119.5Q147 -75 181.5 -42.5Q216 -10 256 0Z"/>
</svg>