<svg xmlns="http://www.w3.org/2000/svg" viewBox="0 -512 512 512">
	<path fill="#000000" d="M235 -171H277V-149H235ZM448 -341V-213Q448 -155 423 -101.5Q398 -48 354.5 -9.5Q311 29 256 43Q201 29 157.5 -9.5Q114 -48 89 -101.5Q64 -155 64 -213V-341L256 -427ZM363 -235H316Q310 -253 292 -267L318 -292L303 -307L273 -277H256Q245 -277 241 -275L211 -307L194 -290L220 -265Q203 -254 196 -235H149V-213H192V-192H149V-171H192V-149H149V-128H196Q203 -109 219 -97Q235 -85 256 -85Q277 -85 293 -97Q309 -109 316 -128H363V-149H320V-171H363V-192H320V-213H363ZM235 -192H277V-213H235Z"/>
</svg>