<svg xmlns="http://www.w3.org/2000/svg" viewBox="0 -512 512 512">
	<path fill="#000000" d="M256 -277Q265 -277 271 -271Q277 -265 277 -256Q277 -247 271 -241Q265 -235 256 -235Q247 -235 241 -241Q235 -247 235 -256Q235 -265 241 -271Q247 -277 256 -277ZM448 -213Q448 -155 423 -101Q398 -47 354 -9Q310 29 256 43Q202 29 158 -9Q114 -47 89 -101Q64 -155 64 -213V-341L256 -427L448 -341ZM256 -320Q229 -320 210.5 -301.5Q192 -283 192 -256Q192 -235 204 -218.5Q216 -202 235 -196V-64H277V-107H320V-149H277V-196Q296 -202 308 -218.5Q320 -235 320 -256Q320 -283 301.5 -301.5Q283 -320 256 -320Z"/>
</svg>