<svg xmlns="http://www.w3.org/2000/svg" viewBox="0 -512 512 512">
	<path fill="#000000" d="M448 -213Q448 -155 423 -101Q398 -47 354 -9Q310 29 256 43Q202 29 158 -9Q114 -47 89 -101Q64 -155 64 -213V-341L256 -427L448 -341ZM256 0Q295 -11 329.5 -43Q364 -75 384.5 -119Q405 -163 405 -209V-314L256 -380L107 -314V-209Q107 -163 127.5 -119Q148 -75 182.5 -43Q217 -11 256 0ZM256 -258Q282 -258 300 -240Q318 -222 318 -196.5Q318 -171 300 -153Q282 -135 256 -135Q230 -135 212 -153Q194 -171 194 -196.5Q194 -222 212.5 -240Q231 -258 256 -258ZM256 -320L285 -277Q272 -283 256 -283Q240 -283 227 -277ZM149 -258L201 -263Q188 -251 181 -239.5Q174 -228 171 -212ZM149 -135L171 -181Q174 -167 181.5 -153.5Q189 -140 201 -131ZM363 -258L341 -212Q338 -227 331 -239Q324 -251 311 -263ZM363 -135L311 -131Q323 -140 330.5 -153Q338 -166 341 -181ZM256 -74L226 -116Q242 -111 256 -111Q270 -111 285 -116Z"/>
</svg>