<svg xmlns="http://www.w3.org/2000/svg" viewBox="0 -512 512 512">
	<path fill="#000000" d="M256 -256Q283 -256 301.5 -237.5Q320 -219 320 -192Q320 -165 301.5 -146.5Q283 -128 256 -128Q229 -128 210.5 -146.5Q192 -165 192 -192Q192 -219 210.5 -237.5Q229 -256 256 -256ZM381 -36Q329 25 256 43Q174 23 119 -50.5Q64 -124 64 -213V-341L256 -427L448 -341V-213Q448 -137 407 -71L345 -133Q363 -160 363 -192Q363 -221 348.5 -245.5Q334 -270 309.5 -284.5Q285 -299 256 -299Q227 -299 202.5 -284.5Q178 -270 163.5 -245.5Q149 -221 149 -192Q149 -163 163.5 -138.5Q178 -114 202.5 -99.5Q227 -85 256 -85Q288 -85 315 -103Z"/>
</svg>