<svg xmlns="http://www.w3.org/2000/svg" viewBox="0 -512 512 512">
	<path fill="#000000" d="M384 -192Q419 -192 446 -177Q448 -190 448 -213V-341L256 -427L64 -341V-213Q64 -155 89 -101.5Q114 -48 157.5 -9.5Q201 29 256 43Q265 41 277 36Q245 -2 245 -53Q245 -91 264 -123Q283 -155 314.5 -173.5Q346 -192 384 -192ZM384 -139Q421 -139 444 -113L469 -139V-53H384L422 -92Q404 -107 384 -107Q362 -107 346.5 -91.5Q331 -76 331 -53.5Q331 -31 346.5 -15.5Q362 0 384 0Q409 0 427 -21H463Q453 3 432 17.5Q411 32 384 32Q349 32 324 7Q299 -18 299 -53.5Q299 -89 324 -114Q349 -139 384 -139Z"/>
</svg>