<svg xmlns="http://www.w3.org/2000/svg" viewBox="0 -512 512 512">
	<path fill="#000000" d="M256 -427L64 -341V-213Q64 -155 89 -101Q114 -47 158 -9Q202 29 256 43Q310 29 354 -9Q398 -47 423 -101Q448 -155 448 -213V-341ZM305 -148L262 -105Q242 -85 215 -85Q188 -85 168.5 -104.5Q149 -124 149 -151Q149 -178 169 -198L195 -224V-212Q195 -197 200 -184L201 -181L193 -173Q183 -164 183 -151Q183 -138 192.5 -129Q202 -120 215 -120Q228 -120 237 -129L280 -172Q290 -181 290 -194Q290 -207 281 -216Q275 -222 275 -228.5Q275 -235 280 -240Q285 -245 292.5 -245Q300 -245 305 -240Q324 -221 324 -194Q324 -167 305 -148ZM365 -208L338 -181V-193Q338 -208 334 -221L333 -224L340 -232Q350 -241 350 -254Q350 -267 341 -276.5Q332 -286 318.5 -286Q305 -286 296 -276L253 -234Q244 -224 244 -211Q244 -198 253 -189Q258 -184 258 -177Q258 -170 253 -165Q248 -160 241 -160Q234 -160 229 -165Q209 -184 209 -211.5Q209 -239 229 -258L272 -301Q291 -320 318.5 -320Q346 -320 365 -300.5Q384 -281 384 -254Q384 -227 365 -208Z"/>
</svg>