<svg xmlns="http://www.w3.org/2000/svg" viewBox="0 -512 512 512">
	<path fill="#000000" d="M448 -213Q448 -155 423 -101Q398 -47 354 -9Q310 29 256 43Q202 29 158 -9Q114 -47 89 -101Q64 -155 64 -213V-341L256 -427L448 -341ZM256 0Q295 -11 329.5 -43Q364 -75 384.5 -119Q405 -163 405 -209V-314L256 -380L107 -314V-209Q107 -163 127.5 -119Q148 -75 182.5 -43Q217 -11 256 0ZM256 -327Q264 -327 270 -321Q276 -315 276 -307V-232L384 -165V-138L276 -172V-98L303 -77V-57L256 -71L209 -57V-77L236 -98V-172L128 -138V-165L236 -232V-307Q236 -315 242 -321Q248 -327 256 -327Z"/>
</svg>