<svg xmlns="http://www.w3.org/2000/svg" viewBox="0 -512 512 512">
	<path fill="#000000" d="M256 -427L64 -341V-213Q64 -155 89 -101Q114 -47 158 -9Q202 29 256 43Q310 29 354 -9Q398 -47 423 -101Q448 -155 448 -213V-341ZM256 -380L405 -314V-209Q405 -155 377 -103Q353 -121 313 -131Q281 -139 256 -139Q231 -139 199 -131Q159 -121 135 -103Q107 -155 107 -209V-314ZM256 -320Q225 -320 203 -298Q181 -276 181 -245Q181 -214 203 -192.5Q225 -171 256 -171Q287 -171 309 -192.5Q331 -214 331 -245Q331 -276 309 -298Q287 -320 256 -320ZM256 -277Q269 -277 278.5 -268Q288 -259 288 -245.5Q288 -232 278.5 -222.5Q269 -213 256 -213Q243 -213 233.5 -222.5Q224 -232 224 -245.5Q224 -259 233.5 -268Q243 -277 256 -277ZM256 -96Q281 -96 309.5 -87.5Q338 -79 353 -67Q332 -42 307.5 -24.5Q283 -7 256 0Q229 -7 204.5 -24.5Q180 -42 159 -67Q174 -79 202.5 -87.5Q231 -96 256 -96Z"/>
</svg>