<svg xmlns="http://www.w3.org/2000/svg" viewBox="0 -512 512 512">
	<path fill="#000000" d="M308 -288L341 -213H171L201 -288ZM192 -192Q183 -192 177 -185.5Q171 -179 171 -170.5Q171 -162 177 -155.5Q183 -149 192 -149Q201 -149 207 -155.5Q213 -162 213 -170.5Q213 -179 207 -185.5Q201 -192 192 -192ZM320 -192Q311 -192 305 -185.5Q299 -179 299 -170.5Q299 -162 305 -155.5Q311 -149 320 -149Q329 -149 335 -155.5Q341 -162 341 -170.5Q341 -179 335 -185.5Q329 -192 320 -192ZM448 -341V-213Q448 -155 423 -101Q398 -47 354 -9Q310 29 256 43Q202 29 158 -9Q114 -47 89 -101Q64 -155 64 -213V-341L256 -427ZM384 -192L338 -299Q335 -308 326.5 -314Q318 -320 308 -320H201Q191 -320 182.5 -314Q174 -308 171 -299L128 -192V-107Q128 -98 134.5 -91.5Q141 -85 149 -85H171Q179 -85 185.5 -91.5Q192 -98 192 -107V-128H320V-107Q320 -98 326.5 -91.5Q333 -85 341 -85H363Q371 -85 377.5 -91.5Q384 -98 384 -107Z"/>
</svg>