<svg xmlns="http://www.w3.org/2000/svg" viewBox="0 -512 512 512">
	<path fill="#000000" d="M448 -213Q448 -155 423 -101Q398 -47 354 -9Q310 29 256 43Q202 29 158 -9Q114 -47 89 -101Q64 -155 64 -213V-341L256 -427L448 -341ZM256 0Q295 -11 329.5 -43Q364 -75 384.5 -119Q405 -163 405 -209V-314L256 -380L107 -314V-209Q107 -163 127.5 -119Q148 -75 182.5 -43Q217 -11 256 0ZM256 -320Q283 -320 301.5 -301.5Q320 -283 320 -256Q320 -235 308 -218.5Q296 -202 277 -196V-149H320V-107H277V-64H235V-196Q216 -202 204 -218.5Q192 -235 192 -256Q192 -283 210.5 -301.5Q229 -320 256 -320ZM256 -277Q247 -277 241 -271Q235 -265 235 -256Q235 -247 241 -241Q247 -235 256 -235Q265 -235 271 -241Q277 -247 277 -256Q277 -265 271 -271Q265 -277 256 -277Z"/>
</svg>