<svg xmlns="http://www.w3.org/2000/svg" viewBox="0 -512 512 512">
	<path fill="#000000" d="M363 -213Q378 -213 384 -211V-314L224 -384L64 -314V-209Q64 -162 85 -117.5Q106 -73 142.5 -41.5Q179 -10 224 0Q237 -2 258 -11Q235 -44 235 -85Q235 -120 252 -149.5Q269 -179 298.5 -196Q328 -213 363 -213ZM363 -171Q327 -171 302 -146Q277 -121 277 -85.5Q277 -50 302 -25Q327 0 362.5 0Q398 0 423 -25Q448 -50 448 -85.5Q448 -121 423 -146Q398 -171 363 -171ZM363 -141Q372 -141 379 -134Q386 -127 386 -117.5Q386 -108 379 -101Q372 -94 362.5 -94Q353 -94 346 -101Q339 -108 339 -117.5Q339 -127 346 -134Q353 -141 363 -141ZM363 -26Q349 -26 336.5 -33Q324 -40 316 -51Q317 -61 334 -69Q349 -75 363 -75Q377 -75 392 -69Q410 -61 410 -51Q401 -40 389 -33Q377 -26 363 -26Z"/>
</svg>