<svg xmlns="http://www.w3.org/2000/svg" viewBox="0 -512 512 512">
	<path fill="#000000" d="M405 -320H363Q363 -349 348.5 -373.5Q334 -398 309.5 -412.5Q285 -427 256 -427Q227 -427 202.5 -412.5Q178 -398 163.5 -373.5Q149 -349 149 -320H107Q89 -320 76.5 -307.5Q64 -295 64 -277V-21Q64 -4 76.5 8.5Q89 21 107 21H257Q227 2 209.5 -29Q192 -60 192 -96Q192 -141 219 -177Q187 -189 168 -216.5Q149 -244 149 -277H192Q192 -251 210.5 -232Q229 -213 256 -213H257Q277 -226 300 -231Q320 -250 320 -277H363Q363 -254 353 -233Q382 -228 407 -211Q432 -194 448 -169V-277Q448 -295 435.5 -307.5Q423 -320 405 -320ZM192 -320Q192 -347 210.5 -365.5Q229 -384 256 -384Q283 -384 301.5 -365.5Q320 -347 320 -320ZM412 -45Q431 -76 425 -112Q419 -148 390.5 -171Q362 -194 325.5 -192Q289 -190 263 -164Q237 -138 235 -101.5Q233 -65 255.5 -36.5Q278 -8 314 -1.5Q350 5 381 -15L448 51L478 21ZM331 -43Q309 -43 293 -58.5Q277 -74 277 -96Q277 -118 293 -133.5Q309 -149 331 -149Q353 -149 368.5 -133.5Q384 -118 384 -96Q384 -74 368.5 -58.5Q353 -43 331 -43Z"/>
</svg>