<svg xmlns="http://www.w3.org/2000/svg" viewBox="0 -512 512 512">
	<path fill="#000000" d="M256 -171Q235 -171 215.5 -179Q196 -187 181 -202Q166 -217 157.5 -236.5Q149 -256 149 -277H192Q192 -251 210.5 -232Q229 -213 256 -213Q283 -213 301.5 -232Q320 -251 320 -277H363Q363 -248 348.5 -223.5Q334 -199 309.5 -185Q285 -171 256 -171ZM256 -384Q283 -384 301.5 -365.5Q320 -347 320 -320H192Q192 -347 210.5 -365.5Q229 -384 256 -384ZM405 -320H363Q363 -349 348.5 -373.5Q334 -398 309.5 -412.5Q285 -427 256 -427Q227 -427 202.5 -412.5Q178 -398 163.5 -373.5Q149 -349 149 -320H107Q89 -320 76.5 -307.5Q64 -295 64 -277V-21Q64 -4 76.5 8.5Q89 21 107 21H405Q423 21 435.5 8.5Q448 -4 448 -21V-277Q448 -295 435.5 -307.5Q423 -320 405 -320Z"/>
</svg>