<svg xmlns="http://www.w3.org/2000/svg" viewBox="0 -512 512 512">
	<path fill="#000000" d="M412 -45Q426 -67 427 -92.5Q428 -118 416 -141Q404 -164 382 -177.5Q360 -191 334.5 -192Q309 -193 286.5 -181Q264 -169 250 -147Q236 -125 235 -99.5Q234 -74 245.5 -51.5Q257 -29 280 -14.5Q303 0 330.5 0Q358 0 381 -15L448 51L478 21ZM331 -43Q309 -43 293 -58.5Q277 -74 277 -96Q277 -118 293 -133.5Q309 -149 331 -149Q353 -149 368.5 -133.5Q384 -118 384 -96Q384 -74 368.5 -58.5Q353 -43 331 -43ZM214 -21H107V-277H405V-213Q432 -196 448 -170V-277Q448 -295 435.5 -307.5Q423 -320 405 -320H363Q363 -349 348.5 -373.5Q334 -398 309.5 -412.5Q285 -427 256 -427Q227 -427 202.5 -412.5Q178 -398 163.5 -373.5Q149 -349 149 -320H107Q89 -320 76.5 -307.5Q64 -295 64 -277V-21Q64 -4 76.5 8.5Q89 21 107 21H257Q231 5 214 -21ZM256 -384Q283 -384 301.5 -365.5Q320 -347 320 -320H192Q192 -347 210.5 -365.5Q229 -384 256 -384ZM320 -256H363Q363 -244 360 -231Q346 -235 331 -235Q321 -235 316 -234Q320 -245 320 -256ZM208 -161Q181 -174 165 -199.5Q149 -225 149 -256H192Q192 -235 204 -218.5Q216 -202 235 -196Q218 -180 208 -161Z"/>
</svg>