<svg xmlns="http://www.w3.org/2000/svg" viewBox="0 -512 512 512">
	<path fill="#000000" d="M427 -21Q436 -21 442 -15Q448 -9 448 0Q448 9 442 15Q436 21 427 21Q418 21 411.5 15Q405 9 405 0Q405 -9 411.5 -15Q418 -21 427 -21ZM341 -21Q350 -21 356.5 -15Q363 -9 363 0Q363 9 356.5 15Q350 21 341 21Q332 21 326 15Q320 9 320 0Q320 -9 326 -15Q332 -21 341 -21ZM256 -21Q265 -21 271 -15Q277 -9 277 0Q277 9 271 15Q265 21 256 21Q247 21 241 15Q235 9 235 0Q235 -9 241 -15Q247 -21 256 -21ZM171 -21Q180 -21 186 -15Q192 -9 192 0Q192 9 186 15Q180 21 171 21Q162 21 155.5 15Q149 9 149 0Q149 -9 155.5 -15Q162 -21 171 -21ZM85 -21Q94 -21 100.5 -15Q107 -9 107 0Q107 9 100.5 15Q94 21 85 21Q76 21 70 15Q64 9 64 0Q64 -9 70 -15Q76 -21 85 -21ZM128 -85Q137 -85 143 -79Q149 -73 149 -64Q149 -55 143 -49Q137 -43 128 -43Q119 -43 113 -49Q107 -55 107 -64Q107 -73 113 -79Q119 -85 128 -85ZM213 -85Q222 -85 228.5 -79Q235 -73 235 -64Q235 -55 228.5 -49Q222 -43 213 -43Q204 -43 198 -49Q192 -55 192 -64Q192 -73 198 -79Q204 -85 213 -85ZM299 -85Q308 -85 314 -79Q320 -73 320 -64Q320 -55 314 -49Q308 -43 299 -43Q290 -43 283.5 -49Q277 -55 277 -64Q277 -73 283.5 -79Q290 -85 299 -85ZM384 -85Q393 -85 399 -79Q405 -73 405 -64Q405 -55 399 -49Q393 -43 384 -43Q375 -43 369 -49Q363 -55 363 -64Q363 -73 369 -79Q375 -85 384 -85ZM171 -149Q180 -149 186 -143Q192 -137 192 -128Q192 -119 186 -113Q180 -107 171 -107Q162 -107 155.5 -113Q149 -119 149 -128Q149 -137 155.5 -143Q162 -149 171 -149ZM256 -149Q265 -149 271 -143Q277 -137 277 -128Q277 -119 271 -113Q265 -107 256 -107Q247 -107 241 -113Q235 -119 235 -128Q235 -137 241 -143Q247 -149 256 -149ZM341 -149Q350 -149 356.5 -143Q363 -137 363 -128Q363 -119 356.5 -113Q350 -107 341 -107Q332 -107 326 -113Q320 -119 320 -128Q320 -137 326 -143Q332 -149 341 -149ZM405 -192H107V-235H405ZM382 -256H130Q136 -296 165.5 -325Q195 -354 235 -361V-405H277V-361Q317 -354 346.5 -325Q376 -296 382 -256Z"/>
</svg>