<svg xmlns="http://www.w3.org/2000/svg" viewBox="0 -512 512 512">
	<path fill="#000000" d="M448 -149V-128Q448 -98 432.5 -73Q417 -48 391 -34L405 21H363L352 -21H160L149 21H107L121 -34Q95 -48 79.5 -73Q64 -98 64 -128V-149H43V-192H427V-341Q427 -350 420.5 -356.5Q414 -363 406 -363Q398 -363 392 -358Q386 -353 384 -346Q405 -328 405 -299H277Q277 -325 296 -344Q315 -363 341 -363H345Q352 -382 368.5 -393.5Q385 -405 405 -405Q432 -405 450.5 -386.5Q469 -368 469 -341V-149ZM405 -149H107V-128Q107 -101 125.5 -82.5Q144 -64 171 -64H341Q368 -64 386.5 -82.5Q405 -101 405 -128Z"/>
</svg>