<svg xmlns="http://www.w3.org/2000/svg" viewBox="0 -512 512 512">
	<path fill="#000000" d="M405 -192Q405 -146 383.5 -106.5Q362 -67 325.5 -44Q289 -21 245.5 -21Q202 -21 165 -44Q128 -67 106.5 -106.5Q85 -146 85 -192Q85 -238 106.5 -277.5Q128 -317 165 -340Q202 -363 245 -363H427V-320H351Q376 -296 390.5 -262.5Q405 -229 405 -192ZM245 -320Q213 -320 186.5 -303Q160 -286 144 -256.5Q128 -227 128 -192Q128 -157 144 -127.5Q160 -98 186.5 -81Q213 -64 245 -64Q277 -64 304 -81Q331 -98 347 -127.5Q363 -157 363 -192Q363 -227 347 -256.5Q331 -286 304 -303Q277 -320 245 -320Z"/>
</svg>