<svg xmlns="http://www.w3.org/2000/svg" viewBox="0 -512 512 512">
	<path fill="#000000" d="M85 -320V-363H87Q180 -363 259 -316Q336 -272 380 -195Q427 -116 427 -23V-21H384V-23Q384 -104 344 -172Q304 -240 237 -280Q167 -320 85 -320ZM85 -235V-277Q155 -277 213.5 -242.5Q272 -208 306.5 -149.5Q341 -91 341 -21H299Q299 -64 282.5 -103Q266 -142 236 -172Q206 -202 167 -218.5Q128 -235 85 -235ZM85 -149V-192Q132 -192 171 -169Q210 -146 233 -107Q256 -68 256 -21H213Q213 -56 196 -85.5Q179 -115 149.5 -132Q120 -149 85 -149ZM85 -107Q121 -107 146 -82Q171 -57 171 -21H85Z"/>
</svg>