<svg xmlns="http://www.w3.org/2000/svg" viewBox="0 -512 512 512">
	<path fill="#000000" d="M469 21H43V-21H469ZM132 -79L102 -109L132 -139L117 -154L87 -124L58 -154L43 -139L73 -109L43 -79L58 -64L87 -94L117 -64ZM437 -384L463 -290L442 -284L437 -292Q421 -322 412 -330Q403 -338 393 -340Q386 -341 373 -341H320V-117Q320 -107 321 -102Q322 -95 326 -92Q333 -87 363 -87V-66H235V-87Q249 -87 255 -88Q265 -89 270 -92Q275 -95 277 -102Q277 -107 277 -117V-341H224Q211 -341 205 -340Q194 -338 186 -333Q172 -322 156 -286L134 -292L160 -384Z"/>
</svg>