<svg xmlns="http://www.w3.org/2000/svg" viewBox="0 -512 512 512">
	<path fill="#000000" d="M160 -363Q166 -369 174.5 -369Q183 -369 190 -363L252 -299Q237 -291 231 -287Q223 -282 218 -273L160 -331Q154 -337 154 -346.5Q154 -356 160 -363ZM134 -294Q141 -301 149.5 -301Q158 -301 164 -294L205 -252Q197 -229 201 -213H183L134 -265Q128 -271 128 -279.5Q128 -288 134 -294ZM388 -139L267 -256L260 -254Q249 -248 245 -235Q241 -222 245 -211L265 -171H94Q86 -171 79.5 -164Q73 -157 73 -149Q73 -141 79.5 -134.5Q86 -128 94 -128H213V-107H64Q56 -107 49.5 -100Q43 -93 43 -85Q43 -77 49.5 -70.5Q56 -64 64 -64H213V-43H85Q77 -43 70.5 -36Q64 -29 64 -21Q64 -13 70.5 -6.5Q77 0 85 0H213V21H117Q109 21 102.5 28Q96 35 96 43Q96 51 102.5 57.5Q109 64 117 64H352Q374 64 389.5 48.5Q405 33 405 11V-100Q405 -112 400.5 -122Q396 -132 388 -139ZM363 0Q363 8 356 14.5Q349 21 341 21H256V-128H299V-166L356 -113Q363 -107 363 -98ZM469 -207Q469 -186 452 -169L433 -151Q425 -164 418 -171L405 -183L420 -198Q427 -205 427 -213V-292L399 -267L369 -299L329 -256L271 -307L190 -393Q183 -399 183 -407.5Q183 -416 189.5 -422.5Q196 -429 204.5 -429Q213 -429 220 -422L322 -314L337 -329L256 -414Q250 -420 250 -428.5Q250 -437 256 -443.5Q262 -450 270.5 -450Q279 -450 286 -444L403 -320L418 -363Q426 -373 439 -378Q452 -383 463 -380L469 -378Z"/>
</svg>