<svg xmlns="http://www.w3.org/2000/svg" viewBox="0 -512 512 512">
	<path fill="#000000" d="M469 21H43V-21H469ZM132 -79L117 -64L87 -94L58 -64L43 -79L73 -109L43 -139L58 -154L87 -124L117 -154L132 -139L102 -109ZM346 -140Q346 -159 300 -182Q243 -211 221.5 -229Q200 -247 200 -269Q200 -326 258.5 -363.5Q317 -401 353 -401Q377 -401 388 -393Q399 -385 399 -365Q399 -356 391 -349.5Q383 -343 379 -343Q375 -343 365 -349L353 -355Q338 -355 292.5 -333.5Q247 -312 247 -285Q247 -269 263 -255.5Q279 -242 320 -223Q354 -208 373.5 -190.5Q393 -173 393 -149Q393 -106 332.5 -81.5Q272 -57 217 -57Q171 -57 171 -88Q171 -99 181.5 -104Q192 -109 203 -109L234 -104Q266 -104 302 -114.5Q338 -125 346 -140Z"/>
</svg>