<svg xmlns="http://www.w3.org/2000/svg" viewBox="0 -512 512 512">
	<path fill="#000000" d="M160 -363Q166 -369 174.5 -369Q183 -369 190 -363L252 -299Q237 -291 231 -287Q223 -282 218 -273L160 -331Q154 -337 154 -346.5Q154 -356 160 -363ZM134 -294Q141 -301 149.5 -301Q158 -301 164 -294L205 -252Q197 -229 201 -213H183L134 -265Q128 -271 128 -279.5Q128 -288 134 -294ZM405 11Q405 33 389.5 48.5Q374 64 352 64H117Q109 64 102.5 57.5Q96 51 96 43Q96 35 102.5 28Q109 21 117 21H213V0H85Q77 0 70.5 -6.5Q64 -13 64 -21Q64 -29 70.5 -36Q77 -43 85 -43H213V-64H64Q56 -64 49.5 -70.5Q43 -77 43 -85Q43 -93 49.5 -100Q56 -107 64 -107H213V-128H96Q88 -128 81.5 -134.5Q75 -141 75 -149Q75 -157 81.5 -164Q88 -171 96 -171H267L247 -211Q241 -222 245.5 -235Q250 -248 262 -254L267 -256L388 -139Q405 -122 405 -100ZM469 -207Q469 -186 452 -169L433 -151Q425 -164 418 -171L405 -183L329 -256L271 -307L190 -393Q183 -399 183 -407.5Q183 -416 189.5 -422.5Q196 -429 204.5 -429Q213 -429 220 -422L322 -314L337 -329L256 -414Q250 -420 250 -428.5Q250 -437 256 -443.5Q262 -450 270.5 -450Q279 -450 286 -444L403 -320L418 -363Q426 -373 439 -378Q452 -383 463 -380L469 -378Z"/>
</svg>