<svg xmlns="http://www.w3.org/2000/svg" viewBox="0 -512 512 512">
	<path fill="#000000" d="M320 -448L307 -419L277 -405L307 -392L320 -363L333 -392L363 -405L333 -419ZM224 -405L201 -354L149 -331L201 -307L224 -256L247 -307L299 -331L247 -354ZM403 -338Q381 -340 358 -330.5Q335 -321 317 -302Q291 -277 283.5 -245.5Q276 -214 287 -190L79 19L109 49L256 -98L403 49L433 19L286 -128L317 -159Q342 -148 373.5 -156Q405 -164 430 -189Q450 -209 459.5 -233.5Q469 -258 466 -281Q463 -304 447 -319Q429 -337 403 -338ZM83 -331Q58 -306 58 -270.5Q58 -235 83 -210L173 -121L233 -181Z"/>
</svg>