<svg xmlns="http://www.w3.org/2000/svg" viewBox="0 -512 512 512">
	<path fill="#000000" d="M389 -85Q389 -57 378 -31H348Q363 -56 363 -84.5Q363 -113 349 -138Q335 -163 310 -177.5Q285 -192 256 -192Q227 -192 202.5 -206.5Q178 -221 163.5 -245.5Q149 -270 149 -299Q149 -328 163.5 -352.5Q178 -377 202.5 -391Q227 -405 256 -405Q285 -405 309.5 -391Q334 -377 348.5 -352.5Q363 -328 363 -299H336Q336 -332 312.5 -355.5Q289 -379 256 -379Q223 -379 199.5 -355.5Q176 -332 176 -299Q176 -266 199.5 -242.5Q223 -219 256 -219Q292 -219 322.5 -201Q353 -183 371 -152Q389 -121 389 -85ZM134 -31Q123 -57 123 -85H149Q149 -56 164 -31ZM389 -5V21H123V-5H203V-112H176V-139H336V-112H309V-5ZM283 -112H229V-5H283ZM308 -297Q307 -276 292 -261Q277 -246 255.5 -246Q234 -246 219 -262Q204 -278 204.5 -299.5Q205 -321 220 -336.5Q235 -352 256.5 -351.5Q278 -351 293.5 -335Q309 -319 308 -297ZM283 -299Q283 -310 275 -317.5Q267 -325 256 -325Q245 -325 237 -317.5Q229 -310 229 -299Q229 -288 237 -280Q245 -272 256 -272Q267 -272 275 -280Q283 -288 283 -299Z"/>
</svg>