<svg xmlns="http://www.w3.org/2000/svg" viewBox="0 -512 512 512">
	<path fill="#000000" d="M209 -152Q227 -152 239 -140Q251 -128 251 -110.5Q251 -93 239 -81Q227 -69 209.5 -69Q192 -69 180 -81Q168 -93 168 -110.5Q168 -128 180 -140Q192 -152 209 -152ZM309 -377H324Q363 -377 396.5 -357.5Q430 -338 449.5 -304.5Q469 -271 469 -232L468 -214L443 -222V-232Q443 -264 427 -291.5Q411 -319 383.5 -335Q356 -351 324 -351H316ZM327 -315Q360 -314 383.5 -290Q407 -266 407 -233L381 -241Q378 -259 365 -272Q352 -285 334 -288ZM43 -119Q42 -138 51 -161Q66 -199 106 -235Q131 -258 152 -273Q170 -285 185 -292Q195 -296 203 -297H219Q231 -296 238 -291Q249 -284 249 -270Q250 -252 236 -225H237Q262 -251 313 -256Q343 -259 351 -238Q358 -223 352 -198Q383 -183 400 -161.5Q417 -140 417 -116Q417 -86 392 -61Q367 -36 324 -21.5Q281 -7 230 -7H224Q169 -7 124 -25Q79 -43 58 -73Q43 -93 43 -116ZM209 -194Q176 -194 147 -182.5Q118 -171 101.5 -152Q85 -133 85 -110.5Q85 -88 101.5 -69Q118 -50 147 -38.5Q176 -27 209.5 -27Q243 -27 272 -38.5Q301 -50 317.5 -69Q334 -88 334 -110.5Q334 -133 317.5 -152Q301 -171 272 -182.5Q243 -194 209 -194Z"/>
</svg>