<svg xmlns="http://www.w3.org/2000/svg" viewBox="0 -512 512 512">
	<path fill="#000000" d="M192 -139Q192 -125 182.5 -116Q173 -107 160 -107Q147 -107 137.5 -116Q128 -125 128 -138.5Q128 -152 137.5 -161.5Q147 -171 160 -171Q173 -171 182.5 -161.5Q192 -152 192 -139ZM352 -171Q339 -171 329.5 -161.5Q320 -152 320 -138.5Q320 -125 329.5 -116Q339 -107 352 -107Q365 -107 374.5 -116Q384 -125 384 -138.5Q384 -152 374.5 -161.5Q365 -171 352 -171ZM461 -252Q453 -257 444.5 -255.5Q436 -254 431 -247L428 -243Q422 -235 411 -235H101Q90 -235 84 -243L81 -247Q76 -254 67.5 -255.5Q59 -257 51.5 -252Q44 -247 43 -238Q42 -229 47 -222L49 -218Q58 -206 72 -199Q86 -192 101 -192H411Q426 -192 440 -199Q454 -206 463 -218L465 -222Q470 -229 469 -238Q468 -247 461 -252Z"/>
</svg>