<svg xmlns="http://www.w3.org/2000/svg" viewBox="0 -512 512 512">
	<path fill="#000000" d="M447 -85Q443 -58 422 -39.5Q401 -21 373 -21H341V-64H405Q405 -71 405 -91Q406 -121 405 -136Q403 -160 395 -172Q384 -196 353 -211Q334 -219 295 -229L276 -234Q261 -234 247.5 -247.5Q234 -261 231 -277H171Q166 -277 163 -280.5Q160 -284 160 -288Q160 -292 163 -295.5Q166 -299 171 -299H224V-320H171Q166 -320 163 -323Q160 -326 160 -330.5Q160 -335 163 -338Q166 -341 171 -341H224V-405H43V-64H107V-21H21V21H373Q419 21 452.5 -9.5Q486 -40 491 -85ZM299 -21H149V-64H299Z"/>
</svg>