<svg xmlns="http://www.w3.org/2000/svg" viewBox="0 -512 512 512">
	<path fill="#000000" d="M337 -53L465 -19L457 21L256 -32L55 21L45 -19L173 -53L43 -87L53 -128L254 -75L454 -128L465 -87ZM384 -277Q384 -250 372.5 -226Q361 -202 341 -183V-128H299V-171H277V-128H235V-171H213V-128H171V-183Q151 -202 139.5 -226Q128 -250 128 -277Q128 -312 145 -341.5Q162 -371 191.5 -388Q221 -405 256 -405Q291 -405 320.5 -388Q350 -371 367 -341.5Q384 -312 384 -277ZM235 -288Q235 -301 225 -310.5Q215 -320 202.5 -320Q190 -320 180.5 -310.5Q171 -301 171 -288Q171 -275 180.5 -265.5Q190 -256 202.5 -256Q215 -256 225 -265.5Q235 -275 235 -288ZM277 -213L256 -256L235 -213ZM341 -288Q341 -301 331.5 -310.5Q322 -320 309.5 -320Q297 -320 287 -310.5Q277 -301 277 -288Q277 -275 287 -265.5Q297 -256 309.5 -256Q322 -256 331.5 -265.5Q341 -275 341 -288Z"/>
</svg>