<svg xmlns="http://www.w3.org/2000/svg" viewBox="0 -512 512 512">
	<path fill="#000000" d="M171 -128Q153 -128 140.5 -140.5Q128 -153 128 -170.5Q128 -188 140.5 -200.5Q153 -213 170.5 -213Q188 -213 200.5 -200.5Q213 -188 213 -170.5Q213 -153 200.5 -140.5Q188 -128 171 -128ZM224 -85L256 -149L288 -85ZM341 -128Q324 -128 311.5 -140.5Q299 -153 299 -170.5Q299 -188 311.5 -200.5Q324 -213 341.5 -213Q359 -213 371.5 -200.5Q384 -188 384 -170.5Q384 -153 371.5 -140.5Q359 -128 341 -128ZM469 -213Q469 -256 453 -295Q437 -334 407 -364Q377 -394 337.5 -410.5Q298 -427 256 -427Q214 -427 174.5 -410.5Q135 -394 105 -364Q75 -334 59 -295Q43 -256 43 -213Q43 -170 60 -130Q77 -92 107 -62V21H405V-62Q435 -92 452 -130Q469 -170 469 -213ZM363 -21H320V-64H277V-21H235V-64H192V-21H149V-81Q120 -106 102.5 -140Q85 -174 85 -213Q85 -260 108 -299Q131 -338 170.5 -361Q210 -384 256 -384Q302 -384 341.5 -361Q381 -338 404 -299Q427 -260 427 -213Q427 -174 409.5 -139Q392 -104 363 -81Z"/>
</svg>