<svg xmlns="http://www.w3.org/2000/svg" viewBox="0 -512 512 512">
	<path fill="#000000" d="M43 -448Q25 -448 12.5 -435.5Q0 -423 0 -405V-320H43V-405H128V-448ZM384 -448V-405H469V-320H512V-405Q512 -423 499.5 -435.5Q487 -448 469 -448ZM256 -384Q210 -384 170.5 -361Q131 -338 108 -298.5Q85 -259 85 -213Q85 -174 102.5 -139Q120 -104 149 -81V0H192V-64H235V0H277V-64H320V0H363V-81Q392 -106 409.5 -140Q427 -174 427 -213Q427 -259 404 -298.5Q381 -338 341.5 -361Q302 -384 256 -384ZM171 -149Q153 -149 140.5 -161.5Q128 -174 128 -192Q128 -210 140.5 -222.5Q153 -235 170.5 -235Q188 -235 200.5 -222.5Q213 -210 213 -192Q213 -174 200.5 -161.5Q188 -149 171 -149ZM224 -107L256 -171L288 -107ZM341 -149Q324 -149 311.5 -161.5Q299 -174 299 -192Q299 -210 311.5 -222.5Q324 -235 341.5 -235Q359 -235 371.5 -222.5Q384 -210 384 -192Q384 -174 371.5 -161.5Q359 -149 341 -149ZM0 -64V21Q0 39 12.5 51.5Q25 64 43 64H128V21H43V-64ZM469 -64V21H384V64H469Q487 64 499.5 51.5Q512 39 512 21V-64Z"/>
</svg>