<svg xmlns="http://www.w3.org/2000/svg" viewBox="0 -512 512 512">
	<path fill="#000000" d="M256 -405Q204 -405 160 -379.5Q116 -354 90 -309.5Q64 -265 64 -213Q64 -165 87 -123Q110 -81 149 -54V21H192V-43H235V21H277V-43H320V21H363V-54Q402 -81 425 -123.5Q448 -166 448 -213Q448 -265 422 -309.5Q396 -354 352 -379.5Q308 -405 256 -405ZM171 -213Q188 -213 200.5 -200.5Q213 -188 213 -170.5Q213 -153 200.5 -140.5Q188 -128 170.5 -128Q153 -128 140.5 -140.5Q128 -153 128 -170.5Q128 -188 140.5 -200.5Q153 -213 171 -213ZM341 -213Q359 -213 371.5 -200.5Q384 -188 384 -170.5Q384 -153 371.5 -140.5Q359 -128 341.5 -128Q324 -128 311.5 -140.5Q299 -153 299 -170.5Q299 -188 311.5 -200.5Q324 -213 341 -213ZM256 -149L288 -85H224Z"/>
</svg>