<svg xmlns="http://www.w3.org/2000/svg" viewBox="0 -512 512 512">
	<path fill="#000000" d="M43 -448Q25 -448 12.5 -435.5Q0 -423 0 -405V-320H43V-405H128V-448ZM384 -448V-405H469V-320H512V-405Q512 -423 499.5 -435.5Q487 -448 469 -448ZM203 -171Q190 -171 180.5 -180.5Q171 -190 171 -202.5Q171 -215 180.5 -225Q190 -235 202.5 -235Q215 -235 225 -225Q235 -215 235 -202.5Q235 -190 225 -180.5Q215 -171 203 -171ZM235 -128L256 -171L277 -128ZM309 -171Q297 -171 287 -180.5Q277 -190 277 -202.5Q277 -215 287 -225Q297 -235 309.5 -235Q322 -235 331.5 -225Q341 -215 341 -202.5Q341 -190 331.5 -180.5Q322 -171 309 -171ZM0 -64V21Q0 39 12.5 51.5Q25 64 43 64H128V21H43V-64ZM469 -64V21H384V64H469Q487 64 499.5 51.5Q512 39 512 21V-64ZM256 -384Q210 -384 170.5 -361Q131 -338 108 -298.5Q85 -259 85 -213Q85 -182 96.5 -152.5Q108 -123 128 -100V0H384V-100Q427 -150 427 -213Q427 -259 404 -298.5Q381 -338 341.5 -361Q302 -384 256 -384ZM341 -119V-43H299V-85H277V-43H235V-85H213V-43H171V-119Q151 -138 139.5 -162.5Q128 -187 128 -213Q128 -248 145.5 -277.5Q163 -307 192 -324Q221 -341 256 -341Q291 -341 320 -324Q349 -307 366.5 -277.5Q384 -248 384 -213Q384 -186 372.5 -162Q361 -138 341 -119Z"/>
</svg>