<svg xmlns="http://www.w3.org/2000/svg" viewBox="0 -512 512 512">
	<path fill="#000000" d="M337 -53L465 -19L457 21L256 -32L55 21L45 -19L173 -53L43 -87L53 -128L254 -75L454 -128L465 -87ZM203 -320Q190 -320 180.5 -310.5Q171 -301 171 -288Q171 -275 180.5 -265.5Q190 -256 202.5 -256Q215 -256 225 -265.5Q235 -275 235 -288Q235 -301 225 -310.5Q215 -320 203 -320ZM309 -320Q297 -320 287 -310.5Q277 -301 277 -288Q277 -275 287 -265.5Q297 -256 309.5 -256Q322 -256 331.5 -265.5Q341 -275 341 -288Q341 -301 331.5 -310.5Q322 -320 309 -320ZM277 -213L256 -256L235 -213ZM256 -427Q215 -427 181 -407Q147 -387 127 -352.5Q107 -318 107 -277Q107 -248 118 -221Q129 -194 149 -173V-107H363V-173Q383 -194 394 -221Q405 -248 405 -277Q405 -318 385 -352.5Q365 -387 331 -407Q297 -427 256 -427ZM320 -192V-149H299V-192H277V-149H235V-192H213V-149H192V-192Q172 -207 160.5 -229Q149 -251 149 -277Q149 -307 163.5 -331.5Q178 -356 202.5 -370Q227 -384 256 -384Q285 -384 309.5 -370Q334 -356 348.5 -331.5Q363 -307 363 -277Q363 -252 351.5 -229.5Q340 -207 320 -192Z"/>
</svg>