<svg xmlns="http://www.w3.org/2000/svg" viewBox="0 -512 512 512">
	<path fill="#000000" d="M257 -95Q218 -95 194 -112Q175 -126 175 -144Q175 -152 180 -157.5Q185 -163 192.5 -163Q200 -163 205 -159Q209 -156 214 -149Q222 -139 228 -135Q239 -128 256 -128Q273 -128 283 -135.5Q293 -143 293 -153Q293 -168 274 -173L223 -186Q195 -193 184 -208Q175 -220 175 -239Q175 -269 200 -285Q221 -298 253 -298Q281 -298 305.5 -284.5Q330 -271 330 -253Q330 -245 324 -240Q318 -235 309 -235Q303 -235 299 -239Q296 -241 291 -246Q283 -255 277 -258Q267 -264 251 -264Q235 -264 226.5 -258Q218 -252 218 -242.5Q218 -233 227 -228Q233 -224 247 -221L286 -212Q338 -200 338 -156Q338 -129 317 -112Q296 -95 257 -95ZM384 -320Q417 -288 429.5 -245Q442 -202 434 -159Q448 -135 448 -106.5Q448 -78 433.5 -53.5Q419 -29 394.5 -14.5Q370 0 341.5 0Q313 0 289 -14Q246 -6 203 -18.5Q160 -31 127.5 -63.5Q95 -96 82.5 -139Q70 -182 78 -225Q64 -249 64 -277.5Q64 -306 78.5 -330.5Q93 -355 117.5 -369.5Q142 -384 170.5 -384Q199 -384 223 -370Q266 -378 309 -365.5Q352 -353 384 -320ZM171 -341Q144 -341 125.5 -322.5Q107 -304 107 -278Q107 -252 124 -234Q112 -197 121 -159.5Q130 -122 158 -94Q186 -66 223.5 -57Q261 -48 298 -60Q316 -43 342 -43Q368 -43 386.5 -61.5Q405 -80 405 -106Q405 -132 388 -150Q400 -187 391 -224.5Q382 -262 354 -290Q326 -318 288.5 -327Q251 -336 214 -324Q196 -341 171 -341Z"/>
</svg>