<svg xmlns="http://www.w3.org/2000/svg" viewBox="0 -512 512 512">
	<path fill="#000000" d="M128 -128Q128 -110 115.5 -97.5Q103 -85 85.5 -85Q68 -85 55.5 -97.5Q43 -110 43 -128Q43 -146 55.5 -158.5Q68 -171 85 -171H128ZM149 -128Q149 -146 161.5 -158.5Q174 -171 192 -171Q210 -171 222.5 -158.5Q235 -146 235 -128V-21Q235 -4 222.5 8.5Q210 21 192 21Q174 21 161.5 8.5Q149 -4 149 -21ZM192 -299Q174 -299 161.5 -311.5Q149 -324 149 -341.5Q149 -359 161.5 -371.5Q174 -384 192 -384Q210 -384 222.5 -371.5Q235 -359 235 -341V-299ZM192 -277Q210 -277 222.5 -264.5Q235 -252 235 -234.5Q235 -217 222.5 -204.5Q210 -192 192 -192H85Q68 -192 55.5 -204.5Q43 -217 43 -234.5Q43 -252 55.5 -264.5Q68 -277 85 -277ZM363 -235Q363 -252 375.5 -264.5Q388 -277 405.5 -277Q423 -277 435.5 -264.5Q448 -252 448 -234.5Q448 -217 435.5 -204.5Q423 -192 405 -192H363ZM341 -235Q341 -217 328.5 -204.5Q316 -192 298.5 -192Q281 -192 268.5 -204.5Q256 -217 256 -235V-341Q256 -359 268.5 -371.5Q281 -384 298.5 -384Q316 -384 328.5 -371.5Q341 -359 341 -341ZM299 -64Q316 -64 328.5 -51.5Q341 -39 341 -21.5Q341 -4 328.5 8.5Q316 21 298.5 21Q281 21 268.5 8.5Q256 -4 256 -21V-64ZM299 -85Q281 -85 268.5 -97.5Q256 -110 256 -128Q256 -146 268.5 -158.5Q281 -171 299 -171H405Q423 -171 435.5 -158.5Q448 -146 448 -128Q448 -110 435.5 -97.5Q423 -85 405 -85Z"/>
</svg>