<svg xmlns="http://www.w3.org/2000/svg" viewBox="0 -512 512 512">
	<path fill="#000000" d="M489 -93Q484 -115 469 -132Q454 -149 431 -156L422 -125Q443 -119 453 -99Q463 -79 456 -58Q449 -37 429.5 -27Q410 -17 389 -24L318 -47L328 -77L399 -54L409 -85L367 -98L323 -194Q317 -207 304.5 -214Q292 -221 277 -219L232 -211L254 -281Q259 -296 252 -310Q245 -324 229 -329Q217 -333 202 -327L85 -277V-190L51 -201L41 -171L125 -143L115 -113L31 -140L21 -110L379 7Q401 14 422.5 9Q444 4 461.5 -11.5Q479 -27 486 -48Q493 -73 489 -93ZM128 -249L169 -267L147 -199Q142 -184 150 -169L128 -176ZM288 -57L145 -103L155 -133L297 -87ZM202 -152L287 -171L312 -116ZM299 -384Q299 -366 286.5 -353.5Q274 -341 256 -341Q238 -341 225.5 -353.5Q213 -366 213 -384Q213 -402 225.5 -414.5Q238 -427 256 -427Q274 -427 286.5 -414.5Q299 -402 299 -384Z"/>
</svg>