<svg xmlns="http://www.w3.org/2000/svg" viewBox="0 -512 512 512">
	<path fill="#000000" d="M316 -118Q309 -129 298 -149L297 -151Q275 -189 257 -204Q233 -226 192 -232V-331Q192 -362 170 -383.5Q148 -405 117 -405Q86 -405 64.5 -383.5Q43 -362 43 -331V21H85V-21H149V21H192V-189Q218 -184 233 -169Q243 -159 260 -130Q271 -110 281 -95Q320 -36 358 -10Q404 21 469 21V-21Q417 -21 381 -46Q351 -67 316 -118ZM117 -363Q131 -363 140 -353.5Q149 -344 149 -331V-235H85V-331Q85 -344 94.5 -353.5Q104 -363 117 -363ZM85 -64V-107H149V-64ZM149 -149H85V-192H149Z"/>
</svg>