<svg xmlns="http://www.w3.org/2000/svg" viewBox="0 -512 512 512">
	<path fill="#000000" d="M107 -192L149 -277V-299H85V-277H128L85 -192ZM192 -192L235 -277V-299H171V-277H213L171 -192ZM277 -192L320 -277V-299H256V-277H299L256 -192ZM448 -405Q430 -405 417.5 -392.5Q405 -380 405 -363Q405 -351 411 -341Q417 -331 427 -326V-85H363V-128Q372 -128 378 -134Q384 -140 384 -149V-341Q384 -351 378 -357Q372 -363 363 -363H282Q269 -382 247.5 -393.5Q226 -405 202.5 -405Q179 -405 158 -393.5Q137 -382 124 -363H43Q33 -363 27 -357Q21 -351 21 -341V-149Q21 -140 27 -134Q33 -128 43 -128V21H363V-43H427Q444 -43 456.5 -55.5Q469 -68 469 -85V-326Q479 -331 485 -341Q491 -351 491 -363Q491 -380 478.5 -392.5Q466 -405 448 -405ZM277 -43H128V-85H277ZM341 -171H64V-320H341Z"/>
</svg>