<svg xmlns="http://www.w3.org/2000/svg" viewBox="0 -512 512 512">
	<path fill="#000000" d="M309 -267Q287 -267 271.5 -251Q256 -235 256 -213Q256 -191 271.5 -175.5Q287 -160 309 -160Q331 -160 347 -175.5Q363 -191 363 -213Q363 -235 347 -251Q331 -267 309 -267ZM176 -320H149V-107H176Q192 -107 206 -126Q217 -143 223 -170Q229 -194 229 -213.5Q229 -233 223 -257Q217 -284 206 -300Q192 -320 176 -320ZM405 -405H107Q89 -405 77 -392.5Q65 -380 64 -363V-64H107V-363H405V-64H448V-363Q447 -380 435 -392.5Q423 -405 405 -405ZM491 21H21V0Q21 -18 33.5 -30.5Q46 -43 64 -43H448Q466 -43 478.5 -30.5Q491 -18 491 0Z"/>
</svg>