<svg xmlns="http://www.w3.org/2000/svg" viewBox="0 -512 512 512">
	<path fill="#000000" d="M43 -384H469Q487 -383 499 -371Q511 -359 512 -341V-43Q511 -25 499 -13Q487 -1 469 0H43Q25 -1 13 -13Q1 -25 0 -43V-341Q1 -359 13 -371Q25 -383 43 -384ZM171 -151Q147 -151 119 -144Q86 -135 66 -121Q43 -105 43 -85V-64H299V-85Q299 -105 275 -121Q255 -135 223 -144Q194 -151 171 -151ZM171 -320Q144 -320 125.5 -301.5Q107 -283 107 -256Q107 -229 125.5 -210.5Q144 -192 170.5 -192Q197 -192 216 -210.5Q235 -229 235 -256Q235 -283 216 -301.5Q197 -320 171 -320ZM363 -235V-171H448V-235Z"/>
</svg>