<svg xmlns="http://www.w3.org/2000/svg" viewBox="0 -512 512 512">
	<path fill="#000000" d="M448 -363Q447 -380 435 -392.5Q423 -405 405 -405H107Q89 -405 77 -392.5Q65 -380 64 -363V-64H448ZM176 -107H149V-320H176Q192 -320 206 -300Q217 -284 223 -257Q229 -233 229 -213.5Q229 -194 223 -170Q217 -143 206 -126Q192 -107 176 -107ZM309 -160Q287 -160 271.5 -175.5Q256 -191 256 -213Q256 -235 271.5 -251Q287 -267 309 -267Q331 -267 347 -251Q363 -235 363 -213Q363 -191 347 -175.5Q331 -160 309 -160ZM491 0V21H21V0Q21 -18 33.5 -30.5Q46 -43 64 -43H448Q466 -43 478.5 -30.5Q491 -18 491 0Z"/>
</svg>