<svg xmlns="http://www.w3.org/2000/svg" viewBox="0 -512 512 512">
	<path fill="#000000" d="M363 -43V21H320V-43Q320 -60 307.5 -72.5Q295 -85 277 -85H213Q184 -85 159.5 -99.5Q135 -114 121 -138.5Q107 -163 107 -192Q107 -228 130 -258Q93 -265 68 -294.5Q43 -324 43 -363Q43 -380 51 -405H102Q85 -388 85 -361.5Q85 -335 103.5 -317Q122 -299 149 -299H213V-256Q186 -256 167.5 -237.5Q149 -219 149 -192Q149 -165 167.5 -146.5Q186 -128 213 -128H277Q313 -128 338 -103Q363 -78 363 -43ZM382 -258Q419 -265 444 -294.5Q469 -324 469 -363Q469 -380 461 -405H410Q427 -388 427 -361.5Q427 -335 408.5 -317Q390 -299 363 -299H337Q341 -286 341 -277Q341 -250 323 -231.5Q305 -213 277 -213V-171Q307 -171 331.5 -156.5Q356 -142 370 -117.5Q384 -93 384 -64V21H427V-64Q427 -107 405 -142Q383 -177 346 -196Q375 -219 382 -258Z"/>
</svg>