<svg xmlns="http://www.w3.org/2000/svg" viewBox="0 -512 512 512">
	<path fill="#000000" d="M341 -171Q324 -171 311.5 -158.5Q299 -146 299 -128V-64H277Q258 -64 246 -67Q230 -70 220 -80L139 -161Q124 -176 104.5 -184Q85 -192 64 -192H43V-149H64Q90 -149 109 -131L190 -50Q220 -19 242 -4Q264 11 287 16Q308 21 341 21H384Q419 21 444 -4Q469 -29 469 -64V-128Q469 -146 456.5 -158.5Q444 -171 427 -171ZM299 -294H267Q250 -296 238.5 -308Q227 -320 227.5 -336.5Q228 -353 239 -364Q250 -375 266 -374H267V-405Q237 -405 216 -384Q195 -363 195 -333.5Q195 -304 216 -283Q237 -262 267 -262H299Q316 -263 328.5 -251.5Q341 -240 341 -223V-192H373V-227Q372 -256 350.5 -276Q329 -296 300 -294ZM427 -240V-192H395V-241Q395 -276 370 -301Q345 -326 309 -326V-358Q325 -358 337 -370Q349 -382 349 -398Q349 -402 348 -405H380Q381 -389 376 -374Q371 -359 359 -347Q390 -332 408.5 -303Q427 -274 427 -240Z"/>
</svg>