<svg xmlns="http://www.w3.org/2000/svg" viewBox="0 -512 512 512">
	<path fill="#000000" d="M363 -384H64Q46 -384 33.5 -371.5Q21 -359 21 -341V-43Q21 -25 33.5 -12.5Q46 0 64 0H363Q380 0 392.5 -12.5Q405 -25 405 -43V-341Q405 -359 392.5 -371.5Q380 -384 363 -384ZM363 -43H64V-341H363ZM213 -64Q248 -64 277.5 -81.5Q307 -99 324 -128Q341 -157 341 -192Q341 -227 324 -256Q307 -285 277.5 -302.5Q248 -320 213.5 -320Q179 -320 149.5 -302.5Q120 -285 102.5 -256Q85 -227 85 -192Q85 -157 102.5 -128Q120 -99 149.5 -81.5Q179 -64 213 -64ZM213 -277Q249 -277 274 -252Q299 -227 299 -192Q299 -157 274 -132Q249 -107 213.5 -107Q178 -107 153 -132Q128 -157 128 -192Q128 -227 153 -252Q178 -277 213 -277ZM491 -299H448V-171H491V-277ZM491 -128H448V-85H491Z"/>
</svg>