<svg xmlns="http://www.w3.org/2000/svg" viewBox="0 -512 512 512">
	<path fill="#000000" d="M213 -363Q259 -363 298.5 -340Q338 -317 361 -277.5Q384 -238 384 -192Q384 -146 361 -106.5Q338 -67 298.5 -44Q259 -21 213 -21Q167 -21 128 -44Q89 -67 66 -106.5Q43 -146 43 -192Q43 -238 66 -277.5Q89 -317 128 -340Q167 -363 213 -363ZM213 -405Q156 -405 107 -376.5Q58 -348 29 -299Q0 -250 0 -192Q0 -134 29 -85Q58 -36 107 -7.5Q156 21 213.5 21Q271 21 320 -7.5Q369 -36 398 -85Q427 -134 427 -192Q427 -250 398 -299Q369 -348 320 -376.5Q271 -405 213 -405ZM213 -213Q204 -213 198 -207.5Q192 -202 192 -192Q192 -182 198 -176.5Q204 -171 213.5 -171Q223 -171 229 -176.5Q235 -182 235 -192Q235 -202 229 -207.5Q223 -213 213 -213ZM186 -250Q198 -256 213 -256Q228 -256 241 -250L256 -265Q237 -277 213.5 -277Q190 -277 171 -265ZM277 -192Q277 -177 271 -164L286 -149Q299 -169 299 -192Q299 -215 286 -235L271 -220Q277 -207 277 -192ZM149 -192Q149 -207 156 -220L141 -235Q128 -215 128 -192Q128 -169 141 -149L156 -164Q149 -177 149 -192ZM241 -134Q228 -128 213 -128Q198 -128 186 -134L171 -119Q190 -107 213.5 -107Q237 -107 256 -119ZM318 -267L303 -252Q320 -224 320 -192Q320 -160 303 -132L318 -117Q341 -151 341 -192Q341 -233 318 -267ZM154 -282Q181 -299 213.5 -299Q246 -299 273 -282L288 -297Q254 -320 213 -320Q172 -320 139 -297ZM273 -102Q246 -85 213.5 -85Q181 -85 154 -102L139 -87Q172 -64 213 -64Q254 -64 288 -87ZM124 -132Q107 -160 107 -192Q107 -224 124 -252L109 -267Q85 -233 85 -192Q85 -151 109 -117ZM512 -299H469V-171H512V-277ZM512 -128H469V-85H512Z"/>
</svg>