<svg xmlns="http://www.w3.org/2000/svg" viewBox="0 -512 512 512">
	<path fill="#000000" d="M256 -277Q291 -277 316 -252Q341 -227 341 -192Q341 -185 340 -176L240 -276Q249 -277 256 -277ZM256 -320Q291 -320 320.5 -303Q350 -286 367 -256.5Q384 -227 384 -192Q384 -167 373 -143L448 -68V-341Q448 -359 435.5 -371.5Q423 -384 405 -384H132L207 -309Q231 -320 256 -320ZM472 10L445 37L407 0H107Q89 0 76.5 -12.5Q64 -25 64 -43V-343L24 -384L51 -411ZM324 -84L292 -115Q275 -107 256 -107Q221 -107 196 -132Q171 -157 171 -192Q171 -211 179 -228L148 -260Q128 -229 128 -193Q128 -157 145 -127.5Q162 -98 191.5 -81Q221 -64 257 -64Q293 -64 324 -84Z"/>
</svg>