<svg xmlns="http://www.w3.org/2000/svg" viewBox="0 -512 512 512">
	<path fill="#000000" d="M43 -320L192 -171H43V-107H256L405 43L432 16L69 -347ZM437 -171H469V-107H437ZM384 -171H416V-107H384ZM402 -344Q423 -365 423 -395H391Q391 -379 379.5 -367Q368 -355 352 -355V-323Q388 -323 412.5 -297.5Q437 -272 437 -236V-192H469V-236Q469 -272 450.5 -300.5Q432 -329 402 -344ZM309 -262H342Q360 -262 372 -250.5Q384 -239 384 -219V-192H416V-226Q416 -254 394 -273.5Q372 -293 342 -293H309Q294 -293 282 -306Q270 -319 270 -335.5Q270 -352 281.5 -362.5Q293 -373 309 -373V-405Q280 -405 259 -384Q238 -363 238 -333.5Q238 -304 259 -283Q280 -262 309 -262ZM363 -108V-171H300Z"/>
</svg>