<svg xmlns="http://www.w3.org/2000/svg" viewBox="0 -512 512 512">
	<path fill="#000000" d="M445 37L420 13Q403 21 384 21H341Q308 21 287 16Q264 11 242 -4Q220 -19 190 -50L109 -131Q90 -149 64 -149H43V-192H64Q85 -192 104.5 -184Q124 -176 139 -161L220 -80Q230 -70 246 -67Q258 -64 277 -64H299V-109L24 -384L51 -411L472 10ZM468 -48Q469 -57 469 -64V-128Q469 -146 456.5 -158.5Q444 -171 427 -171H346ZM395 -241V-240V-192H427V-240Q427 -274 408.5 -303Q390 -332 359 -347Q371 -359 376 -374Q381 -389 380 -405H348Q349 -402 349 -398Q349 -382 337 -370Q325 -358 309 -358V-326Q345 -326 370 -301Q395 -276 395 -241ZM252 -264Q259 -262 267 -262H299Q316 -263 328.5 -251.5Q341 -240 341 -223V-192H373V-227Q372 -256 350.5 -276Q329 -296 300 -294H267Q250 -296 238.5 -308Q227 -320 227.5 -336.5Q228 -353 239 -364Q250 -375 266 -374H267V-405Q237 -405 216 -384Q195 -363 195 -334Q195 -326 197 -320Z"/>
</svg>