<svg xmlns="http://www.w3.org/2000/svg" viewBox="0 -512 512 512">
	<path fill="#000000" d="M175 -341L132 -384H405Q423 -384 435.5 -371.5Q448 -359 448 -341V-68L405 -111V-341ZM373 -143Q384 -167 384 -192Q384 -227 367 -256.5Q350 -286 320.5 -303Q291 -320 256 -320Q231 -320 207 -309L240 -276Q249 -277 256 -277Q291 -277 316 -252Q341 -227 341 -192Q341 -185 340 -176ZM472 10L445 37L407 0H107Q89 0 76.5 -12.5Q64 -25 64 -43V-343L24 -384L51 -411ZM171 -192Q171 -157 196 -132Q221 -107 256 -107Q275 -107 292 -115L179 -228Q171 -211 171 -192ZM365 -43L324 -84Q293 -64 257 -64Q221 -64 191.5 -81Q162 -98 145 -127.5Q128 -157 128 -193Q128 -229 148 -260L107 -301V-43Z"/>
</svg>