<svg xmlns="http://www.w3.org/2000/svg" viewBox="0 -512 512 512">
	<path fill="#000000" d="M256 -363Q302 -363 341.5 -340Q381 -317 404 -277.5Q427 -238 427 -192Q427 -146 404 -106.5Q381 -67 341.5 -44Q302 -21 256 -21Q210 -21 170.5 -44Q131 -67 108 -106.5Q85 -146 85 -192Q85 -238 108 -277.5Q131 -317 170.5 -340Q210 -363 256 -363ZM256 -405Q198 -405 149 -376.5Q100 -348 71.5 -299Q43 -250 43 -192Q43 -134 71.5 -85Q100 -36 149 -7.5Q198 21 256 21Q314 21 363 -7.5Q412 -36 440.5 -85Q469 -134 469 -192Q469 -250 440.5 -299Q412 -348 363 -376.5Q314 -405 256 -405ZM256 -213Q247 -213 241 -207Q235 -201 235 -192Q235 -183 241 -177Q247 -171 256 -171Q265 -171 271 -177Q277 -183 277 -192Q277 -201 271 -207Q265 -213 256 -213ZM229 -250Q242 -256 256 -256Q270 -256 284 -250L299 -265Q279 -277 256 -277Q233 -277 213 -265ZM320 -192Q320 -178 314 -164L329 -149Q341 -169 341 -192Q341 -215 329 -235L314 -219Q320 -206 320 -192ZM192 -192Q192 -206 198 -219L183 -235Q171 -215 171 -192Q171 -169 183 -149L198 -164Q192 -178 192 -192ZM284 -134Q270 -128 256 -128Q242 -128 229 -134L213 -119Q233 -107 256 -107Q279 -107 299 -119ZM360 -266L345 -251Q363 -224 363 -192Q363 -160 345 -133L360 -118Q384 -151 384 -192Q384 -233 360 -266ZM197 -281Q224 -299 256 -299Q288 -299 315 -281L330 -296Q297 -320 256 -320Q215 -320 182 -296ZM315 -103Q288 -85 256 -85Q224 -85 197 -103L182 -88Q215 -64 256 -64Q297 -64 330 -88ZM167 -133Q149 -160 149 -192Q149 -224 167 -251L152 -266Q128 -233 128 -192Q128 -151 152 -118Z"/>
</svg>