<svg xmlns="http://www.w3.org/2000/svg" viewBox="0 -512 512 512">
	<path fill="#000000" d="M405 -384H107Q89 -384 76.5 -371.5Q64 -359 64 -341V-43Q64 -25 76.5 -12.5Q89 0 107 0H405Q423 0 435.5 -12.5Q448 -25 448 -43V-341Q448 -359 435.5 -371.5Q423 -384 405 -384ZM405 -43H107V-341H405ZM256 -64Q291 -64 320.5 -81Q350 -98 367 -127.5Q384 -157 384 -192Q384 -227 367 -256.5Q350 -286 320.5 -303Q291 -320 256 -320Q221 -320 191.5 -303Q162 -286 145 -256.5Q128 -227 128 -192Q128 -157 145 -127.5Q162 -98 191.5 -81Q221 -64 256 -64ZM256 -277Q291 -277 316 -252Q341 -227 341 -192Q341 -157 316 -132Q291 -107 256 -107Q221 -107 196 -132Q171 -157 171 -192Q171 -227 196 -252Q221 -277 256 -277Z"/>
</svg>