<svg xmlns="http://www.w3.org/2000/svg" viewBox="0 -512 512 512">
	<path fill="#000000" d="M213 -64Q248 -64 277.5 -81.5Q307 -99 324 -128Q341 -157 341 -192Q341 -227 324 -256Q307 -285 277.5 -302.5Q248 -320 213.5 -320Q179 -320 149.5 -302.5Q120 -285 102.5 -256Q85 -227 85 -192Q85 -157 102.5 -128Q120 -99 149.5 -81.5Q179 -64 213 -64ZM363 -384Q380 -384 392.5 -371.5Q405 -359 405 -341V-43Q405 -25 392.5 -12.5Q380 0 363 0H64Q46 0 33.5 -12.5Q21 -25 21 -43V-341Q21 -359 33.5 -371.5Q46 -384 64 -384ZM128 -192Q128 -227 153 -252Q178 -277 213.5 -277Q249 -277 274 -252Q299 -227 299 -192Q299 -157 274 -132Q249 -107 213.5 -107Q178 -107 153 -132Q128 -157 128 -192ZM491 -299H448V-171H491V-277ZM491 -128H448V-85H491Z"/>
</svg>