<svg xmlns="http://www.w3.org/2000/svg" viewBox="0 -512 512 512">
	<path fill="#000000" d="M43 -107H363V-43H43ZM437 -107H469V-43H437ZM384 -107H416V-43H384ZM402 -283Q423 -304 423 -333.5Q423 -363 402.5 -384Q382 -405 352 -405V-373Q368 -373 379.5 -361.5Q391 -350 391 -334Q391 -318 379.5 -306Q368 -294 352 -294V-262Q388 -262 412.5 -237Q437 -212 437 -176V-128H469V-176Q469 -211 450.5 -240Q432 -269 402 -283ZM342 -230H309Q294 -230 282 -243.5Q270 -257 270 -273Q270 -289 281.5 -299.5Q293 -310 309 -310V-342Q280 -342 259 -321.5Q238 -301 238 -271Q238 -241 259 -220Q280 -199 309 -199H342Q360 -199 372 -187.5Q384 -176 384 -156V-128H416V-163Q416 -192 394 -211Q372 -230 342 -230Z"/>
</svg>