<svg xmlns="http://www.w3.org/2000/svg" viewBox="0 -512 512 512">
	<path fill="#000000" d="M433 -277L453 -342Q460 -344 464.5 -349.5Q469 -355 469 -363Q469 -371 463 -377.5Q457 -384 448 -384Q439 -384 433 -377.5Q427 -371 427 -363Q427 -355 432 -348L416 -293L400 -348Q405 -355 405 -363Q405 -371 399 -377.5Q393 -384 384 -384Q375 -384 369 -377.5Q363 -371 363 -363Q363 -355 367.5 -349.5Q372 -344 379 -342L399 -277Q383 -274 373 -262.5Q363 -251 363 -235V-187Q341 -237 295.5 -268Q250 -299 194 -299Q153 -299 118.5 -278Q84 -257 63.5 -221.5Q43 -186 43 -144Q43 -115 55 -89.5Q67 -64 87 -46L61 -43Q53 -42 48 -35.5Q43 -29 43 -21Q43 -13 49 -6.5Q55 0 64 0H408Q425 0 436.5 -11.5Q448 -23 448 -40V-198Q458 -204 463.5 -213.5Q469 -223 469 -235Q469 -251 459 -262.5Q449 -274 433 -277ZM333 -77L257 -67Q273 -95 273 -122Q273 -160 247 -186Q221 -212 185 -212Q168 -212 152 -205Q144 -201 141.5 -192.5Q139 -184 143 -176Q147 -168 155 -165Q163 -162 170.5 -165.5Q178 -169 185 -169Q204 -169 217 -155.5Q230 -142 230 -122Q230 -96 212 -77Q194 -58 168 -58Q134 -58 109.5 -83Q85 -108 85 -144Q85 -174 100 -200Q115 -226 140 -241Q165 -256 194 -256Q233 -256 265.5 -236.5Q298 -217 317 -183.5Q336 -150 336 -111Q336 -95 333 -77Z"/>
</svg>