<svg xmlns="http://www.w3.org/2000/svg" viewBox="0 -512 512 512">
	<path fill="#000000" d="M171 -67Q171 -48 158.5 -34.5Q146 -21 128 -21Q110 -21 97.5 -34.5Q85 -48 85 -67Q85 -86 107 -120Q117 -136 128 -149L139 -135Q152 -117 160 -102Q171 -81 171 -67ZM351 -192V-223L394 -247L444 -234L455 -275L417 -285L427 -323L385 -334L372 -284L330 -260L277 -291V-339L314 -375L284 -405L256 -378L228 -405L198 -375L235 -339V-291L181 -260L139 -284L126 -334L85 -323L95 -285L58 -275L69 -234L118 -247L161 -223V-192H43V-171H469V-192ZM203 -192V-223L256 -254L309 -223V-192ZM427 -67Q427 -48 414.5 -34.5Q402 -21 384 -21Q366 -21 353.5 -34.5Q341 -48 341 -67Q341 -86 363 -120Q373 -136 384 -149L395 -135Q408 -117 416 -102Q427 -81 427 -67ZM299 -3Q299 16 286.5 29.5Q274 43 256 43Q238 43 225.5 29.5Q213 16 213 -3Q213 -22 235 -56Q245 -72 256 -85L267 -71Q280 -53 288 -38Q299 -17 299 -3Z"/>
</svg>