<svg xmlns="http://www.w3.org/2000/svg" viewBox="0 -512 512 512">
	<path fill="#000000" d="M308 -247L235 -291V-339L271 -375L241 -405L213 -378L186 -405L156 -375L192 -339V-291L139 -260L96 -284L84 -334L43 -323L53 -285L15 -275L26 -234L76 -247L118 -223V-161L76 -137L26 -150L15 -109L53 -99L43 -61L84 -50L97 -100L140 -124L192 -93V-45L156 -9L186 21L213 -6L241 21L271 -9L235 -45V-93L308 -136ZM160 -223L213 -254L267 -223V-161L213 -130L160 -161ZM405 -341Q388 -341 375.5 -328.5Q363 -316 363 -299V-154Q341 -135 341 -107Q341 -80 360 -61.5Q379 -43 405.5 -43Q432 -43 450.5 -61.5Q469 -80 469 -107Q469 -136 448 -154V-299Q448 -316 435.5 -328.5Q423 -341 405 -341ZM405 -320Q414 -320 420.5 -313.5Q427 -307 427 -299V-277H384V-299Q384 -307 390.5 -313.5Q397 -320 405 -320Z"/>
</svg>