<svg xmlns="http://www.w3.org/2000/svg" viewBox="0 -512 512 512">
	<path fill="#000000" d="M467 -13Q463 -19 457 -20Q449 -22 443 -17Q431 -7 417.5 -3Q404 1 387 -2L364 -8L341 -140L272 -196L309 -257Q328 -228 359.5 -210Q391 -192 427 -192V-235Q397 -235 373.5 -251Q350 -267 340 -293L328 -319Q324 -325 315.5 -333Q307 -341 293 -341H172L118 -256L155 -233L195 -299H245L192 -214Q182 -200 186 -181L204 -108L129 -58L119 -60Q104 -63 92 -72.5Q80 -82 75 -95Q71 -103 63.5 -104.5Q56 -106 51 -102Q46 -98 45 -92.5Q44 -87 45 -82Q55 -62 72 -48Q89 -34 112 -29L381 29Q405 34 426 28Q447 22 464 7Q468 4 469 -1Q469 -10 467 -13ZM187 -45L252 -88L242 -159L303 -116L319 -17ZM384 -384Q384 -366 371.5 -353.5Q359 -341 341.5 -341Q324 -341 311.5 -353.5Q299 -366 299 -384Q299 -402 311.5 -414.5Q324 -427 341.5 -427Q359 -427 371.5 -414.5Q384 -402 384 -384Z"/>
</svg>