<svg xmlns="http://www.w3.org/2000/svg" viewBox="0 -512 512 512">
	<path fill="#000000" d="M379 3L320 -61L345 -85L379 -51L455 -128L480 -98ZM256 -64Q256 -88 264.5 -110Q273 -132 289 -149L256 -130L203 -161V-223L256 -254L309 -223V-168Q328 -181 351 -188V-223L394 -247L444 -234L455 -275L417 -285L427 -323L385 -334L372 -284L330 -260L277 -291V-339L314 -375L284 -405L256 -378L228 -405L198 -375L235 -339V-291L181 -260L139 -284L126 -334L85 -323L95 -285L58 -275L69 -234L118 -247L161 -223V-161L118 -137L69 -150L58 -109L95 -99L85 -61L127 -50L140 -100L182 -124L235 -93V-45L198 -9L228 21L256 -6L284 21L286 19Q256 -17 256 -64Z"/>
</svg>