<svg xmlns="http://www.w3.org/2000/svg" viewBox="0 -512 512 512">
	<path fill="#000000" d="M235 -339L198 -375L228 -405L256 -378L284 -405L314 -375L277 -339V-291L330 -260L372 -284L385 -334L427 -323L417 -285L455 -275L444 -234L394 -247L351 -223V-165L309 -207V-223L272 -244L229 -287L235 -291ZM394 -137L360 -156L417 -99L454 -109L444 -150ZM277 -93V-45L314 -9L284 21L256 -6L228 21L198 -9L235 -45V-93L182 -124L140 -100L127 -50L85 -61L95 -99L58 -109L69 -150L118 -137L161 -161V-223L118 -247L69 -234L58 -275L95 -285L85 -322L24 -384L51 -411L472 10L445 37L301 -107ZM256 -130L269 -139L203 -205V-161Z"/>
</svg>