<svg xmlns="http://www.w3.org/2000/svg" viewBox="0 -512 512 512">
	<path fill="#000000" d="M85 -363Q68 -363 55.5 -350.5Q43 -338 43 -320V-64Q43 -46 55.5 -33.5Q68 -21 85 -21H427Q444 -21 456.5 -33.5Q469 -46 469 -64V-320Q469 -338 456.5 -350.5Q444 -363 427 -363ZM85 -320H235V-275Q206 -267 188.5 -244Q171 -221 171 -192Q171 -163 188.5 -140Q206 -117 235 -109V-64H85V-107H149V-277H85ZM277 -320H427V-277H363V-107H427V-64H277V-109Q306 -117 323.5 -140Q341 -163 341 -192Q341 -221 323.5 -244Q306 -267 277 -275ZM85 -235H107V-149H85ZM405 -235H427V-149H405ZM277 -229Q287 -223 293 -213Q299 -203 299 -192Q299 -181 293 -171Q287 -161 277 -155ZM235 -229V-155Q225 -161 219 -171Q213 -181 213 -192Q213 -203 219 -213Q225 -223 235 -229Z"/>
</svg>