<svg xmlns="http://www.w3.org/2000/svg" viewBox="0 -512 512 512">
	<path fill="#000000" d="M128 -320Q146 -320 158.5 -332.5Q171 -345 171 -362.5Q171 -380 158.5 -392.5Q146 -405 128 -405Q110 -405 97.5 -392.5Q85 -380 85 -362.5Q85 -345 97.5 -332.5Q110 -320 128 -320ZM213 -247Q213 -260 206 -270.5Q199 -281 187 -286Q159 -299 128 -299Q97 -299 69 -286Q57 -281 50 -270.5Q43 -260 43 -247V-235H213ZM384 -320Q402 -320 414.5 -332.5Q427 -345 427 -362.5Q427 -380 414.5 -392.5Q402 -405 384 -405Q366 -405 353.5 -392.5Q341 -380 341 -362.5Q341 -345 353.5 -332.5Q366 -320 384 -320ZM469 -247Q469 -260 462 -270.5Q455 -281 443 -286Q415 -299 384 -299Q353 -299 325 -286Q313 -281 306 -270.5Q299 -260 299 -247V-235H469ZM405 -85V-128H107V-85L43 -149L107 -213V-171H405V-213L469 -149ZM192 -11V0H235V21H171V-11Q171 -19 177 -25.5Q183 -32 192 -32H213V-43H171V-64H213Q222 -64 228.5 -57.5Q235 -51 235 -43V-32Q235 -23 228.5 -17Q222 -11 213 -11ZM341 -43V21H320V-43H309V0H288V-43H277V21H256V-43Q256 -51 262.5 -57.5Q269 -64 277 -64H320Q329 -64 335 -57.5Q341 -51 341 -43Z"/>
</svg>