<svg xmlns="http://www.w3.org/2000/svg" viewBox="0 -512 512 512">
	<path fill="#000000" d="M128 -320Q146 -320 158.5 -332.5Q171 -345 171 -362.5Q171 -380 158.5 -392.5Q146 -405 128 -405Q110 -405 97.5 -392.5Q85 -380 85 -362.5Q85 -345 97.5 -332.5Q110 -320 128 -320ZM213 -247Q213 -260 206 -270.5Q199 -281 187 -286Q159 -299 128 -299Q97 -299 69 -286Q57 -281 50 -270.5Q43 -260 43 -247V-235H213ZM384 -320Q402 -320 414.5 -332.5Q427 -345 427 -362.5Q427 -380 414.5 -392.5Q402 -405 384 -405Q366 -405 353.5 -392.5Q341 -380 341 -362.5Q341 -345 353.5 -332.5Q366 -320 384 -320ZM469 -247Q469 -260 462 -270.5Q455 -281 443 -286Q415 -299 384 -299Q353 -299 325 -286Q313 -281 306 -270.5Q299 -260 299 -247V-235H469ZM405 -85V-128H107V-85L43 -149L107 -213V-171H405V-213L469 -149ZM213 -43V-64H160Q156 -64 152.5 -61Q149 -58 149 -53V11Q149 15 152.5 18Q156 21 160 21H203Q207 21 210 18Q213 15 213 11V-21Q213 -26 210 -29Q207 -32 203 -32H171V-43ZM192 -11V0H171V-11ZM373 -43H352V21H331V-43H309V-64H373ZM267 -43V-32H288V-11H267V21H245V-64H299V-43Z"/>
</svg>