<svg xmlns="http://www.w3.org/2000/svg" viewBox="0 -512 512 512">
	<path fill="#000000" d="M405 -256V-299Q405 -325 386.5 -344Q368 -363 341 -363H171Q144 -363 125.5 -344Q107 -325 107 -299V-256Q80 -256 61.5 -237Q43 -218 43 -192V-85Q43 -59 61.5 -40Q80 -21 107 -21V21H149V-21H363V21H405V-21Q432 -21 450.5 -40Q469 -59 469 -85V-192Q469 -218 450.5 -237Q432 -256 405 -256ZM149 -299Q149 -307 155.5 -313.5Q162 -320 171 -320H341Q350 -320 356.5 -313.5Q363 -307 363 -299V-239Q341 -220 341 -192V-149H171V-192Q171 -220 149 -239ZM427 -85Q427 -77 420.5 -70.5Q414 -64 405 -64H107Q98 -64 91.5 -70.5Q85 -77 85 -85V-192Q85 -201 91.5 -207Q98 -213 106.5 -213Q115 -213 121.5 -207Q128 -201 128 -192V-107H384V-192Q384 -201 390.5 -207Q397 -213 405.5 -213Q414 -213 420.5 -207Q427 -201 427 -192Z"/>
</svg>