<svg xmlns="http://www.w3.org/2000/svg" viewBox="0 -512 512 512">
	<path fill="#000000" d="M448 -256V-299Q448 -325 429 -344Q410 -363 384 -363H299Q274 -363 256 -346Q238 -363 213 -363H128Q102 -363 83 -344Q64 -325 64 -299V-256Q38 -256 19 -237Q0 -218 0 -192V-85Q0 -59 19 -40Q38 -21 64 -21V21H107V-21H405V21H448V-21Q474 -21 493 -40Q512 -59 512 -85V-192Q512 -218 493 -237Q474 -256 448 -256ZM299 -320H384Q393 -320 399 -313.5Q405 -307 405 -299V-239Q384 -220 384 -192V-149H277V-299Q277 -307 283.5 -313.5Q290 -320 299 -320ZM107 -299Q107 -307 113 -313.5Q119 -320 128 -320H213Q222 -320 228.5 -313.5Q235 -307 235 -299V-149H128V-192Q128 -220 107 -239ZM469 -85Q469 -77 463 -70.5Q457 -64 448 -64H64Q55 -64 49 -70.5Q43 -77 43 -85V-192Q43 -201 49 -207Q55 -213 64 -213Q73 -213 79 -207Q85 -201 85 -192V-107H427V-192Q427 -201 433 -207Q439 -213 448 -213Q457 -213 463 -207Q469 -201 469 -192Z"/>
</svg>