<svg xmlns="http://www.w3.org/2000/svg" viewBox="0 -512 512 512">
	<path fill="#000000" d="M64 -320H128V-384H64ZM171 -384V-320H235V-384ZM277 -384V-320H341V-384ZM384 -384V-320H448V-384ZM448 -277H384V-213H448ZM448 -171H384V-107H448ZM341 -107V-171H277V-107ZM235 -107V-171H171V-107ZM128 -107V-171H64V-107ZM64 -213H128V-277H64ZM277 -277V-213H341V-277ZM171 -277V-213H235V-277ZM64 -427H448Q466 -427 478.5 -414.5Q491 -402 491 -384V-107Q491 -89 478.5 -76.5Q466 -64 448 -64H320V0H384V43H277V-64H235V43H128V0H192V-64H64Q46 -64 33.5 -76.5Q21 -89 21 -107V-384Q21 -402 33.5 -414.5Q46 -427 64 -427Z"/>
</svg>