<svg xmlns="http://www.w3.org/2000/svg" viewBox="0 -512 512 512">
	<path fill="#000000" d="M427 -192H85L43 21H469ZM392 -149L400 -107H277V-149ZM235 -149V-107H112L120 -149ZM103 -64H235V-21H95ZM277 -21V-64H409L417 -21ZM235 -277H277V-213H235ZM336 -294L367 -324L412 -279L382 -249ZM100 -279L146 -324L176 -294L131 -249ZM64 -405H128V-363H64ZM384 -405H448V-363H384ZM256 -299Q285 -299 309.5 -313Q334 -327 348.5 -351.5Q363 -376 363 -405H320Q320 -379 301 -360Q282 -341 256 -341Q230 -341 211 -360Q192 -379 192 -405H149Q149 -376 163.5 -351.5Q178 -327 202.5 -313Q227 -299 256 -299Z"/>
</svg>