<svg xmlns="http://www.w3.org/2000/svg" viewBox="0 -512 512 512">
	<path fill="#000000" d="M203 -357Q240 -350 299 -331Q343 -315 360 -293Q377 -271 377 -229Q377 -187 355 -172Q333 -157 300 -173V-276Q300 -299 286 -303Q280 -305 276 -300Q272 -295 272 -285V-27L203 -49ZM285 -72L397 -112Q407 -115 408 -119.5Q409 -124 401.5 -126.5Q394 -129 382 -128.5Q370 -128 360 -124L285 -98V-140L304 -146Q323 -150 341 -152Q365 -155 391 -152Q417 -149 439 -141.5Q461 -134 467 -123.5Q473 -113 466 -105Q461 -98 449 -91L437 -86L285 -32ZM75 -76Q51 -83 45 -95.5Q39 -108 51 -117Q65 -128 89 -135L189 -171V-131L117 -105Q108 -101 106.5 -97Q105 -93 113 -90.5Q121 -88 133 -88.5Q145 -89 154 -93L189 -105V-69L182 -68Q126 -59 75 -76Z"/>
</svg>