<svg xmlns="http://www.w3.org/2000/svg" viewBox="0 -512 512 512">
	<path fill="#000000" d="M405 -299H469L384 -384L299 -299H363V0H405ZM107 -299Q107 -281 119.5 -268.5Q132 -256 149.5 -256Q167 -256 179.5 -268.5Q192 -281 192 -298.5Q192 -316 179.5 -328.5Q167 -341 149.5 -341Q132 -341 119.5 -328.5Q107 -316 107 -299ZM149 -384Q185 -384 210 -359Q235 -334 235 -298.5Q235 -263 210 -238Q185 -213 149.5 -213Q114 -213 89 -238Q64 -263 64 -298.5Q64 -334 89 -359Q114 -384 149 -384ZM149 -171Q114 -171 89 -146Q64 -121 64 -85.5Q64 -50 89 -25Q114 0 149.5 0Q185 0 210 -25Q235 -50 235 -85.5Q235 -121 210 -146Q185 -171 149 -171Z"/>
</svg>