<svg xmlns="http://www.w3.org/2000/svg" viewBox="0 -512 512 512">
	<path fill="#000000" d="M405 -85H469L384 0L299 -85H363V-384H405ZM149 -384Q114 -384 89 -359Q64 -334 64 -298.5Q64 -263 89 -238Q114 -213 149.5 -213Q185 -213 210 -238Q235 -263 235 -298.5Q235 -334 210 -359Q185 -384 149 -384ZM149 -256Q132 -256 119.5 -268.5Q107 -281 107 -298.5Q107 -316 119.5 -328.5Q132 -341 149.5 -341Q167 -341 179.5 -328.5Q192 -316 192 -298.5Q192 -281 179.5 -268.5Q167 -256 149 -256ZM149 -171Q114 -171 89 -146Q64 -121 64 -85.5Q64 -50 89 -25Q114 0 149.5 0Q185 0 210 -25Q235 -50 235 -85.5Q235 -121 210 -146Q185 -171 149 -171Z"/>
</svg>