<svg xmlns="http://www.w3.org/2000/svg" viewBox="0 -512 512 512">
	<path fill="#000000" d="M465 -107V-139Q465 -161 446.5 -176.5Q428 -192 405 -192Q382 -192 364 -176.5Q346 -161 346 -139V-107Q336 -107 328 -99Q320 -91 320 -81V-6Q320 5 328 13Q336 21 346 21H463Q474 21 482.5 13.5Q491 6 491 -4V-79Q491 -90 483 -98.5Q475 -107 465 -107ZM437 -107H373V-139Q373 -151 382.5 -158.5Q392 -166 405.5 -166Q419 -166 428 -158.5Q437 -151 437 -139ZM64 -171V-213H320V-171ZM64 -320H448V-277H64ZM64 -64V-107H192V-64Z"/>
</svg>