<svg xmlns="http://www.w3.org/2000/svg" viewBox="0 -512 512 512">
	<path fill="#000000" d="M405 -299H469L384 -384L299 -299H363V0H405ZM192 0H107V-43H192V-64H149Q132 -64 119.5 -76.5Q107 -89 107 -107V-128Q107 -146 119.5 -158.5Q132 -171 149 -171H192Q210 -171 222.5 -158.5Q235 -146 235 -128V-43Q235 -25 222.5 -12.5Q210 0 192 0ZM192 -128H149V-107H192ZM149 -384H192Q210 -384 222.5 -371.5Q235 -359 235 -341V-256Q235 -238 222.5 -225.5Q210 -213 192 -213H149Q132 -213 119.5 -225.5Q107 -238 107 -256V-341Q107 -359 119.5 -371.5Q132 -384 149 -384ZM149 -256H192V-341H149Z"/>
</svg>