<svg xmlns="http://www.w3.org/2000/svg" viewBox="0 -512 512 512">
	<path fill="#000000" d="M427 -85H491L405 0L320 -85H384V-384H427ZM171 -341Q130 -341 96 -321Q62 -301 41.5 -267Q21 -233 21 -192Q21 -151 41 -117Q61 -83 95.5 -63Q130 -43 170.5 -43Q211 -43 245.5 -63Q280 -83 300 -117Q320 -151 320 -192Q320 -233 300 -267Q280 -301 245.5 -321Q211 -341 171 -341ZM171 -295Q199 -295 222.5 -281.5Q246 -268 260 -244Q274 -220 274 -192Q274 -164 260 -140Q246 -116 222.5 -102.5Q199 -89 171 -89Q143 -89 119 -102.5Q95 -116 81 -140Q67 -164 67 -192Q67 -220 81 -244Q95 -268 119 -281.5Q143 -295 171 -295ZM149 -256V-177L217 -138L233 -166L181 -196V-256Z"/>
</svg>