<svg xmlns="http://www.w3.org/2000/svg" viewBox="0 -512 512 512">
	<path fill="#000000" d="M166 -299Q207 -297 225.5 -267Q244 -237 243 -193Q243 -144 223.5 -115Q204 -86 164 -85Q124 -87 105.5 -116.5Q87 -146 87 -192.5Q87 -239 106 -268Q125 -297 166 -299ZM165 -264Q151 -264 143 -246.5Q135 -229 135 -192.5Q135 -156 143 -138Q151 -120 166 -120Q195 -120 195.5 -191.5Q196 -263 165 -264ZM284 -85V-123H294H305L327 -127Q340 -131 347 -137Q358 -144 364.5 -154Q371 -164 374 -175L373 -176Q359 -162 331 -162Q303 -162 285 -177.5Q267 -193 266.5 -224Q266 -255 287.5 -276.5Q309 -298 344 -299Q384 -297 403 -272.5Q422 -248 422 -209Q421 -178 412 -154Q403 -130 387 -114Q372 -101 351.5 -94Q331 -87 306 -85ZM343 -264Q330 -264 321.5 -254Q313 -244 313 -227Q313 -213 320.5 -203.5Q328 -194 344 -193Q354 -193 361 -197.5Q368 -202 371 -207Q374 -210 374 -220Q374 -237 367 -250Q360 -263 343 -264ZM197 -341L267 -411L336 -341Z"/>
</svg>