<svg xmlns="http://www.w3.org/2000/svg" viewBox="0 -512 512 512">
	<path fill="#000000" d="M405 -299H469L384 -384L299 -299H363V0H405ZM107 -171Q89 -171 76.5 -158.5Q64 -146 64 -128V-43Q64 -25 76.5 -12.5Q89 0 107 0H192Q210 0 222.5 -12.5Q235 -25 235 -43V-128Q235 -146 222.5 -158.5Q210 -171 192 -171ZM196 -139L219 -116L134 -32L80 -86L103 -109L134 -77ZM107 -384Q89 -384 76.5 -371.5Q64 -359 64 -341V-256Q64 -238 76.5 -225.5Q89 -213 107 -213H192Q210 -213 222.5 -225.5Q235 -238 235 -256V-341Q235 -359 222.5 -371.5Q210 -384 192 -384ZM107 -341H192V-256H107Z"/>
</svg>