<svg xmlns="http://www.w3.org/2000/svg" viewBox="0 -512 512 512">
	<path fill="#000000" d="M247 -259V-85H433Q462 -87 476.5 -103Q491 -119 491 -142.5Q491 -166 475 -182.5Q459 -199 435 -199Q424 -199 413 -195Q409 -232 380.5 -258Q352 -284 313.5 -284Q275 -284 247 -259ZM228 -237Q217 -243 207 -245V-85H237V-249Q233 -245 228 -237ZM178 -249V-85H197V-248Q192 -249 185 -249ZM139 -235V-85H158V-244Q148 -241 139 -235ZM103 -181Q102 -181 101 -182L99 -183V-85H119V-216Q107 -201 103 -181ZM60 -187V-87Q66 -85 75 -85H79V-189H75Q67 -189 60 -187ZM21 -137Q21 -113 40 -98V-177Q21 -161 21 -137Z"/>
</svg>