<svg xmlns="http://www.w3.org/2000/svg" viewBox="0 -512 512 512">
	<path fill="#000000" d="M85 -277Q68 -277 55.5 -264.5Q43 -252 43 -235V-149Q43 -132 55.5 -119.5Q68 -107 85 -107H427Q444 -107 456.5 -119.5Q469 -132 469 -149V-235Q469 -252 456.5 -264.5Q444 -277 427 -277ZM192 -235Q210 -235 222.5 -222.5Q235 -210 235 -192Q235 -174 222.5 -161.5Q210 -149 192 -149Q174 -149 161.5 -161.5Q149 -174 149 -192Q149 -210 161.5 -222.5Q174 -235 192 -235ZM320 -235Q338 -235 350.5 -222.5Q363 -210 363 -192Q363 -174 350.5 -161.5Q338 -149 320 -149Q302 -149 289.5 -161.5Q277 -174 277 -192Q277 -210 289.5 -222.5Q302 -235 320 -235ZM107 -213Q115 -213 121.5 -207Q128 -201 128 -192Q128 -183 121.5 -177Q115 -171 106.5 -171Q98 -171 91.5 -177Q85 -183 85 -192Q85 -201 91.5 -207Q98 -213 107 -213ZM192 -213Q183 -213 177 -207Q171 -201 171 -192Q171 -183 177 -177Q183 -171 192 -171Q201 -171 207 -177Q213 -183 213 -192Q213 -201 207 -207Q201 -213 192 -213ZM320 -213Q311 -213 305 -207Q299 -201 299 -192Q299 -183 305 -177Q311 -171 320 -171Q329 -171 335 -177Q341 -183 341 -192Q341 -201 335 -207Q329 -213 320 -213ZM405 -213Q414 -213 420.5 -207Q427 -201 427 -192Q427 -183 420.5 -177Q414 -171 405.5 -171Q397 -171 390.5 -177Q384 -183 384 -192Q384 -201 390.5 -207Q397 -213 405 -213Z"/>
</svg>