<svg xmlns="http://www.w3.org/2000/svg" viewBox="0 -512 512 512">
	<path fill="#000000" d="M277 -149Q230 -149 202 -133Q182 -121 175 -102Q192 -94 202.5 -78Q213 -62 213 -43Q213 -16 194.5 2.5Q176 21 149.5 21Q123 21 104 2.5Q85 -16 85 -43Q85 -63 97 -79.5Q109 -96 128 -103V-281Q109 -288 97 -304.5Q85 -321 85 -341Q85 -368 104 -386.5Q123 -405 149.5 -405Q176 -405 194.5 -386.5Q213 -368 213 -341Q213 -321 201.5 -304.5Q190 -288 171 -281V-168Q203 -192 256 -192Q294 -192 316 -209Q332 -221 338 -240Q321 -247 310 -263Q299 -279 299 -299Q299 -325 317.5 -344Q336 -363 362.5 -363Q389 -363 408 -344Q427 -325 427 -299Q427 -277 414.5 -260Q402 -243 382 -238Q376 -204 357 -182Q329 -149 277 -149ZM149 -64Q141 -64 134.5 -57.5Q128 -51 128 -42.5Q128 -34 134.5 -27.5Q141 -21 149.5 -21Q158 -21 164.5 -27.5Q171 -34 171 -42.5Q171 -51 164.5 -57.5Q158 -64 149 -64ZM149 -363Q141 -363 134.5 -356.5Q128 -350 128 -341.5Q128 -333 134.5 -326.5Q141 -320 149.5 -320Q158 -320 164.5 -326.5Q171 -333 171 -341.5Q171 -350 164.5 -356.5Q158 -363 149 -363ZM363 -320Q354 -320 347.5 -313.5Q341 -307 341 -298.5Q341 -290 347.5 -283.5Q354 -277 362.5 -277Q371 -277 377.5 -283.5Q384 -290 384 -298.5Q384 -307 377.5 -313.5Q371 -320 363 -320ZM384 -149Q421 -149 444 -124L469 -149V-64H384L422 -102Q404 -117 384 -117Q362 -117 346.5 -101.5Q331 -86 331 -64Q331 -42 346.5 -26.5Q362 -11 384 -11Q409 -11 427 -32H463Q453 -8 432 6.5Q411 21 384 21Q349 21 324 -4Q299 -29 299 -64Q299 -99 324 -124Q349 -149 384 -149Z"/>
</svg>