<svg xmlns="http://www.w3.org/2000/svg" viewBox="0 -512 512 512">
	<path fill="#000000" d="M149 -384Q176 -384 194.5 -365.5Q213 -347 213 -320Q213 -300 201.5 -283.5Q190 -267 172 -260Q179 -190 235 -156Q272 -134 324 -129Q331 -147 347.5 -159Q364 -171 384 -171Q411 -171 429.5 -152Q448 -133 448 -106.5Q448 -80 429.5 -61.5Q411 -43 384 -43Q363 -43 346.5 -55Q330 -67 323 -85Q281 -87 250 -99Q224 -108 204 -126Q190 -138 171 -162V-124Q190 -118 201.5 -101.5Q213 -85 213 -64Q213 -37 194.5 -18.5Q176 0 149.5 0Q123 0 104 -18.5Q85 -37 85 -64Q85 -85 97 -101.5Q109 -118 128 -124V-260Q109 -266 97 -282.5Q85 -299 85 -320Q85 -347 104 -365.5Q123 -384 149 -384ZM149 -341Q140 -341 134 -335Q128 -329 128 -320Q128 -311 134 -305Q140 -299 149 -299Q158 -299 164.5 -305Q171 -311 171 -320Q171 -329 164.5 -335Q158 -341 149 -341ZM149 -85Q140 -85 134 -79Q128 -73 128 -64Q128 -55 134 -49Q140 -43 149 -43Q158 -43 164.5 -49Q171 -55 171 -64Q171 -73 164.5 -79Q158 -85 149 -85ZM384 -128Q375 -128 369 -122Q363 -116 363 -107Q363 -98 369 -91.5Q375 -85 384 -85Q393 -85 399 -91.5Q405 -98 405 -107Q405 -116 399 -122Q393 -128 384 -128Z"/>
</svg>