<svg xmlns="http://www.w3.org/2000/svg" viewBox="0 -512 512 512">
	<path fill="#000000" d="M128 -405H384Q402 -405 414.5 -392.5Q427 -380 427 -363V-21Q427 -4 414.5 8.5Q402 21 384 21H128Q110 21 97.5 8.5Q85 -4 85 -21V-363Q85 -380 97.5 -392.5Q110 -405 128 -405ZM272 -160Q311 -160 332 -185Q346 -201 351 -226Q365 -231 374.5 -243.5Q384 -256 384 -272Q384 -292 370 -306Q356 -320 336 -320Q316 -320 302 -306Q288 -292 288 -272Q288 -257 296 -245Q304 -233 318 -228Q313 -213 301 -204Q284 -192 256 -192Q216 -192 192 -174V-259Q206 -264 215 -276.5Q224 -289 224 -304Q224 -324 210 -338Q196 -352 176 -352Q156 -352 142 -338Q128 -324 128 -304Q128 -289 137 -276.5Q146 -264 160 -259V-125Q146 -120 137 -107.5Q128 -95 128 -80Q128 -60 142 -46Q156 -32 176 -32Q196 -32 210 -46Q224 -60 224 -80Q224 -95 216 -107Q208 -119 195 -124Q201 -139 215 -148Q236 -160 272 -160ZM176 -96Q183 -96 187.5 -91.5Q192 -87 192 -80Q192 -73 187.5 -68.5Q183 -64 176 -64Q169 -64 164.5 -68.5Q160 -73 160 -80Q160 -87 164.5 -91.5Q169 -96 176 -96ZM176 -320Q183 -320 187.5 -315.5Q192 -311 192 -304Q192 -297 187.5 -292.5Q183 -288 176 -288Q169 -288 164.5 -292.5Q160 -297 160 -304Q160 -311 164.5 -315.5Q169 -320 176 -320ZM336 -288Q343 -288 347.5 -283.5Q352 -279 352 -272Q352 -265 347.5 -260.5Q343 -256 336 -256Q329 -256 324.5 -260.5Q320 -265 320 -272Q320 -279 324.5 -283.5Q329 -288 336 -288Z"/>
</svg>