<svg xmlns="http://www.w3.org/2000/svg" viewBox="0 -512 512 512">
	<path fill="#000000" d="M128 -405Q155 -405 173.5 -386.5Q192 -368 192 -341Q192 -321 180.5 -304.5Q169 -288 151 -281Q154 -265 171 -243Q181 -230 211 -197Q245 -161 256 -146Q267 -161 301 -197Q331 -230 341 -243Q358 -265 361 -281Q343 -288 331.5 -304.5Q320 -321 320 -341Q320 -368 338.5 -386.5Q357 -405 384 -405Q411 -405 429.5 -386.5Q448 -368 448 -341Q448 -320 436 -303.5Q424 -287 404 -281Q401 -261 384 -238Q373 -223 339 -187Q309 -155 299 -141Q282 -120 279 -103Q297 -96 308.5 -79.5Q320 -63 320 -43Q320 -16 301.5 2.5Q283 21 256 21Q229 21 210.5 2.5Q192 -16 192 -43Q192 -63 203.5 -79.5Q215 -96 233 -103Q230 -120 213 -141Q203 -155 173 -187Q139 -223 128 -238Q111 -261 108 -281Q88 -287 76 -303.5Q64 -320 64 -341Q64 -368 82.5 -386.5Q101 -405 128 -405ZM128 -363Q119 -363 113 -356.5Q107 -350 107 -341Q107 -332 113 -326Q119 -320 128 -320Q137 -320 143 -326Q149 -332 149 -341Q149 -350 143 -356.5Q137 -363 128 -363ZM384 -363Q375 -363 369 -356.5Q363 -350 363 -341Q363 -332 369 -326Q375 -320 384 -320Q393 -320 399 -326Q405 -332 405 -341Q405 -350 399 -356.5Q393 -363 384 -363ZM256 -64Q247 -64 241 -58Q235 -52 235 -43Q235 -34 241 -27.5Q247 -21 256 -21Q265 -21 271 -27.5Q277 -34 277 -43Q277 -52 271 -58Q265 -64 256 -64Z"/>
</svg>