<svg xmlns="http://www.w3.org/2000/svg" viewBox="0 -512 512 512">
	<path fill="#000000" d="M171 -448H427Q444 -448 456.5 -435.5Q469 -423 469 -405V-64Q469 -46 456.5 -33.5Q444 -21 427 -21H171Q153 -21 140.5 -33.5Q128 -46 128 -64V-405Q128 -423 140.5 -435.5Q153 -448 171 -448ZM315 -203Q353 -203 374 -227Q389 -244 393 -269Q408 -274 417.5 -286.5Q427 -299 427 -315Q427 -335 413 -349Q399 -363 379 -363Q359 -363 345 -349Q331 -335 331 -315Q331 -300 339 -288Q347 -276 360 -270Q356 -256 344 -247Q327 -235 299 -235Q259 -235 235 -217V-301Q249 -306 258 -318.5Q267 -331 267 -347Q267 -367 253 -381Q239 -395 219 -395Q199 -395 185 -381Q171 -367 171 -347Q171 -331 180 -318.5Q189 -306 203 -301V-168Q189 -163 180 -150.5Q171 -138 171 -123Q171 -103 185 -89Q199 -75 219 -75Q239 -75 253 -89Q267 -103 267 -123Q267 -137 258.5 -149.5Q250 -162 237 -167Q243 -181 258 -190Q279 -203 315 -203ZM219 -139Q225 -139 230 -134Q235 -129 235 -122.5Q235 -116 230 -111.5Q225 -107 218.5 -107Q212 -107 207.5 -111.5Q203 -116 203 -122.5Q203 -129 207.5 -134Q212 -139 219 -139ZM219 -363Q225 -363 230 -358Q235 -353 235 -346.5Q235 -340 230 -335.5Q225 -331 218.5 -331Q212 -331 207.5 -335.5Q203 -340 203 -346.5Q203 -353 207.5 -358Q212 -363 219 -363ZM379 -331Q385 -331 390 -326Q395 -321 395 -314.5Q395 -308 390 -303.5Q385 -299 378.5 -299Q372 -299 367.5 -303.5Q363 -308 363 -314.5Q363 -321 367.5 -326Q372 -331 379 -331ZM341 21V64H85Q68 64 55.5 51.5Q43 39 43 21V-320H85V21Z"/>
</svg>