<svg xmlns="http://www.w3.org/2000/svg" viewBox="0 -512 512 512">
	<path fill="#000000" d="M128 -384Q155 -384 173.5 -365.5Q192 -347 192 -320Q192 -299 180 -282.5Q168 -266 149 -260V-124Q168 -118 180 -101.5Q192 -85 192 -64Q192 -37 173.5 -18.5Q155 0 128 0Q101 0 82.5 -18.5Q64 -37 64 -64Q64 -85 76 -101.5Q88 -118 107 -124V-260Q88 -266 76 -282.5Q64 -299 64 -320Q64 -347 82.5 -365.5Q101 -384 128 -384ZM128 -341Q119 -341 113 -335Q107 -329 107 -320Q107 -311 113 -305Q119 -299 128 -299Q137 -299 143 -305Q149 -311 149 -320Q149 -329 143 -335Q137 -341 128 -341ZM128 -85Q119 -85 113 -79Q107 -73 107 -64Q107 -55 113 -49Q119 -43 128 -43Q137 -43 143 -49Q149 -55 149 -64Q149 -73 143 -79Q137 -85 128 -85ZM448 -64Q448 -37 429.5 -18.5Q411 0 384 0Q357 0 338.5 -18.5Q320 -37 320 -64Q320 -85 332 -101.5Q344 -118 363 -124V-299H320V-229L229 -320L320 -411V-341H363Q380 -341 392.5 -328.5Q405 -316 405 -299V-124Q424 -118 436 -101.5Q448 -85 448 -64ZM384 -85Q375 -85 369 -79Q363 -73 363 -64Q363 -55 369 -49Q375 -43 384 -43Q393 -43 399 -49Q405 -55 405 -64Q405 -73 399 -79Q393 -85 384 -85Z"/>
</svg>