<svg xmlns="http://www.w3.org/2000/svg" viewBox="0 -512 512 512">
	<path fill="#000000" d="M277 -149Q230 -149 202 -133Q182 -121 175 -102Q192 -94 202.5 -78Q213 -62 213 -43Q213 -16 194.5 2.5Q176 21 149.5 21Q123 21 104 2.5Q85 -16 85 -43Q85 -63 97 -79.5Q109 -96 128 -103V-281Q109 -288 97 -304.5Q85 -321 85 -341Q85 -368 104 -386.5Q123 -405 149.5 -405Q176 -405 194.5 -386.5Q213 -368 213 -341Q213 -321 201.5 -304.5Q190 -288 171 -281V-168Q203 -192 256 -192Q294 -192 316 -209Q332 -221 338 -240Q321 -247 310 -263Q299 -279 299 -299Q299 -325 317.5 -344Q336 -363 362.5 -363Q389 -363 408 -344Q427 -325 427 -299Q427 -277 414.5 -260Q402 -243 382 -238Q376 -204 357 -182Q329 -149 277 -149ZM149 -64Q140 -64 134 -58Q128 -52 128 -43Q128 -34 134 -27.5Q140 -21 149 -21Q158 -21 164.5 -27.5Q171 -34 171 -43Q171 -52 164.5 -58Q158 -64 149 -64ZM149 -363Q140 -363 134 -356.5Q128 -350 128 -341Q128 -332 134 -326Q140 -320 149 -320Q158 -320 164.5 -326Q171 -332 171 -341Q171 -350 164.5 -356.5Q158 -363 149 -363ZM363 -320Q354 -320 347.5 -314Q341 -308 341 -299Q341 -290 347.5 -283.5Q354 -277 363 -277Q372 -277 378 -283.5Q384 -290 384 -299Q384 -308 378 -314Q372 -320 363 -320Z"/>
</svg>