<svg xmlns="http://www.w3.org/2000/svg" viewBox="0 -512 512 512">
	<path fill="#000000" d="M331 -43V0H293Q287 10 277.5 15.5Q268 21 256 21Q244 21 234.5 15.5Q225 10 219 0H181V-43H219Q225 -53 235 -58V-85H213Q205 -85 198.5 -91.5Q192 -98 192 -107V-171H128V-85Q128 -77 121.5 -70.5Q115 -64 107 -64H64Q55 -64 49 -70.5Q43 -77 43 -85V-277Q43 -286 49 -292.5Q55 -299 64 -299H107Q115 -299 121.5 -292.5Q128 -286 128 -277V-213H192V-277Q192 -286 198.5 -292.5Q205 -299 213 -299H235V-320H213Q205 -320 198.5 -326.5Q192 -333 192 -341V-363Q192 -371 198.5 -377.5Q205 -384 213 -384H299Q307 -384 313.5 -377.5Q320 -371 320 -363V-341Q320 -333 313.5 -326.5Q307 -320 299 -320H277V-299H299Q307 -299 313.5 -292.5Q320 -286 320 -277V-213H384V-277Q384 -286 390.5 -292.5Q397 -299 405 -299H448Q457 -299 463 -292.5Q469 -286 469 -277V-85Q469 -77 463 -70.5Q457 -64 448 -64H405Q397 -64 390.5 -70.5Q384 -77 384 -85V-171H320V-107Q320 -98 313.5 -91.5Q307 -85 299 -85H277V-58Q287 -53 293 -43ZM64 -107V-85H107V-107ZM64 -149V-128H107V-149ZM64 -192V-171H107V-192ZM64 -235V-213H107V-235ZM64 -277V-256H107V-277ZM405 -107V-85H448V-107ZM405 -149V-128H448V-149ZM405 -192V-171H448V-192ZM405 -235V-213H448V-235ZM405 -277V-256H448V-277Z"/>
</svg>