<svg xmlns="http://www.w3.org/2000/svg" viewBox="0 -512 512 512">
	<path fill="#000000" d="M428 -41L398 -71Q422 -95 435 -126Q448 -157 448 -192Q448 -227 435 -258Q422 -289 398 -313L428 -343Q458 -313 474.5 -274Q491 -235 491 -192Q491 -149 474.5 -110Q458 -71 428 -41ZM368 -102L338 -132Q363 -157 363 -192Q363 -227 338 -252L368 -282Q386 -265 395.5 -241.5Q405 -218 405 -192Q405 -166 395.5 -142.5Q386 -119 368 -102ZM85 -384H256Q274 -384 286.5 -371.5Q299 -359 299 -341V-43Q299 -25 286.5 -12.5Q274 0 256 0H85Q68 0 55.5 -12.5Q43 -25 43 -43V-341Q43 -359 55.5 -371.5Q68 -384 85 -384ZM171 -341Q153 -341 140.5 -328.5Q128 -316 128 -298.5Q128 -281 140.5 -268.5Q153 -256 170.5 -256Q188 -256 200.5 -268.5Q213 -281 213 -298.5Q213 -316 200.5 -328.5Q188 -341 171 -341ZM171 -213Q135 -213 110 -188Q85 -163 85 -128Q85 -93 110 -68Q135 -43 170.5 -43Q206 -43 231 -68Q256 -93 256 -128Q256 -163 231 -188Q206 -213 171 -213ZM171 -171Q188 -171 200.5 -158.5Q213 -146 213 -128Q213 -110 200.5 -97.5Q188 -85 170.5 -85Q153 -85 140.5 -97.5Q128 -110 128 -128Q128 -146 140.5 -158.5Q153 -171 171 -171Z"/>
</svg>