<svg xmlns="http://www.w3.org/2000/svg" viewBox="0 -512 512 512">
	<path fill="#000000" d="M256 -107Q229 -107 210.5 -125.5Q192 -144 192 -171Q192 -188 200.5 -203Q209 -218 224 -226L431 -346L313 -142Q305 -126 289.5 -116.5Q274 -107 256 -107ZM256 -384Q312 -384 362 -356L317 -330Q288 -341 256 -341Q210 -341 170.5 -318Q131 -295 108 -256Q85 -217 85 -171Q85 -136 98.5 -105Q112 -74 135 -50Q142 -44 142 -35Q142 -26 135.5 -20Q129 -14 120 -14Q111 -14 105 -20Q76 -49 59.5 -88Q43 -127 43 -170Q43 -213 59 -252.5Q75 -292 105 -322Q135 -352 174.5 -368Q214 -384 256 -384ZM469 -171Q469 -127 452.5 -88Q436 -49 407 -20Q401 -14 392 -14Q383 -14 377 -20Q371 -26 371 -35Q371 -44 377 -50Q400 -74 413.5 -105Q427 -136 427 -171Q427 -203 415 -233L441 -277Q469 -226 469 -171Z"/>
</svg>