<svg xmlns="http://www.w3.org/2000/svg" viewBox="0 -512 512 512">
	<path fill="#000000" d="M256 -419L195 -191Q189 -174 193 -156.5Q197 -139 210 -125Q229 -107 255.5 -107Q282 -107 301 -125Q313 -138 317.5 -154.5Q322 -171 318 -188ZM311 -377L325 -327Q370 -307 398.5 -264.5Q427 -222 427 -171Q427 -136 413.5 -105Q400 -74 377 -50Q370 -44 370 -35Q370 -26 376.5 -20Q383 -14 392 -14Q401 -14 407 -20Q436 -49 452.5 -88Q469 -127 469 -171Q469 -219 449 -261.5Q429 -304 393 -334Q357 -364 311 -377ZM201 -376Q155 -364 119.5 -334Q84 -304 63.5 -261.5Q43 -219 43 -171Q43 -127 59.5 -88Q76 -49 105 -20Q111 -14 120 -14Q129 -14 135 -20Q141 -26 141 -35Q141 -44 135 -50Q112 -74 98.5 -105Q85 -136 85 -171Q85 -224 113 -266Q141 -308 188 -327Z"/>
</svg>