<svg xmlns="http://www.w3.org/2000/svg" viewBox="0 -512 512 512">
	<path fill="#000000" d="M256 -107Q283 -107 301.5 -125.5Q320 -144 320 -171Q320 -188 311.5 -203Q303 -218 288 -226L81 -346L199 -142Q207 -126 222.5 -116.5Q238 -107 256 -107ZM256 -384Q200 -384 150 -356L195 -330Q224 -341 256 -341Q302 -341 341.5 -318Q381 -295 404 -256Q427 -217 427 -171Q427 -136 413.5 -105Q400 -74 377 -50Q370 -44 370 -35Q370 -26 376.5 -20Q383 -14 392 -14Q401 -14 407 -20Q436 -49 452.5 -88Q469 -127 469 -171Q469 -228 440.5 -277Q412 -326 363 -355Q314 -384 256 -384ZM43 -171Q43 -127 59.5 -88Q76 -49 105 -20Q111 -14 120 -14Q129 -14 135 -20Q141 -26 141 -35Q141 -44 135 -50Q112 -74 98.5 -105Q85 -136 85 -171Q85 -203 97 -233L71 -277Q43 -226 43 -171Z"/>
</svg>