<svg xmlns="http://www.w3.org/2000/svg" viewBox="0 -512 512 512">
	<path fill="#000000" d="M51 -411L24 -384L87 -321Q43 -264 43 -192Q43 -134 71.5 -85Q100 -36 149 -7.5Q198 21 256 21Q328 21 385 -23L445 37L472 10ZM117 -290L140 -267Q114 -262 97 -255Q105 -273 117 -290ZM85 -192Q85 -204 110.5 -214Q136 -224 178 -230L258 -149H256Q210 -149 170.5 -155Q131 -161 108 -170.5Q85 -180 85 -192ZM256 -21Q203 -21 160 -51Q117 -81 97 -129Q152 -107 256 -107Q284 -107 300 -108L355 -53Q311 -21 256 -21ZM175 -341L143 -373Q195 -405 256 -405Q314 -405 363 -376.5Q412 -348 440.5 -299Q469 -250 469 -192Q469 -131 437 -79L405 -111Q410 -118 415 -129Q406 -125 394 -122L358 -158Q390 -164 408.5 -173Q427 -182 427 -192Q427 -208 385.5 -220Q344 -232 282 -234L239 -277H256Q360 -277 415 -255Q395 -303 352 -333Q309 -363 256 -363Q212 -363 175 -341Z"/>
</svg>