<svg xmlns="http://www.w3.org/2000/svg" viewBox="0 -512 512 512">
	<path fill="#000000" d="M256 -405Q198 -405 149 -376.5Q100 -348 71.5 -299Q43 -250 43 -192Q43 -134 71.5 -85Q100 -36 149 -7.5Q198 21 256 21Q314 21 363 -7.5Q412 -36 440.5 -85Q469 -134 469 -192Q469 -250 440.5 -299Q412 -348 363 -376.5Q314 -405 256 -405ZM256 -149Q210 -149 170.5 -155Q131 -161 108 -170.5Q85 -180 85 -192Q85 -204 108 -213.5Q131 -223 170.5 -229Q210 -235 256 -235Q302 -235 341.5 -229Q381 -223 404 -213.5Q427 -204 427 -192Q427 -180 404 -170.5Q381 -161 341.5 -155Q302 -149 256 -149ZM256 -363Q309 -363 352 -333Q395 -303 415 -255Q360 -277 257 -277Q154 -277 97 -255Q117 -303 160 -333Q203 -363 256 -363ZM256 -21Q203 -21 160 -51Q117 -81 97 -129Q152 -107 255 -107Q358 -107 415 -129Q395 -81 352 -51Q309 -21 256 -21Z"/>
</svg>