<svg xmlns="http://www.w3.org/2000/svg" viewBox="0 -512 512 512">
	<path fill="#000000" d="M454 -92L484 -122L416 -190L352 -208L393 -213L482 -282L457 -316L375 -255L318 -245L386 -313L363 -410L320 -400L338 -327L315 -302Q307 -320 291 -330.5Q275 -341 256 -341Q237 -341 221 -330.5Q205 -320 197 -302L173 -327L192 -400L149 -410L126 -313L194 -245L137 -255L55 -316L30 -282L119 -213L159 -207L95 -189L28 -122L58 -92L117 -152L168 -166L85 -95V21H128V-76L161 -104Q167 -69 194 -46.5Q221 -24 256 -24Q291 -24 318 -46.5Q345 -69 351 -104L384 -76V21H427V-95L344 -166L395 -152Z"/>
</svg>