<svg xmlns="http://www.w3.org/2000/svg" viewBox="0 -512 512 512">
	<path fill="#000000" d="M277 -405V-297Q267 -299 256 -299Q245 -299 235 -297V-405ZM361 -128Q359 -122 357 -116L427 -76V21H384V-52L336 -79Q321 -62 300 -52.5Q279 -43 256 -43Q233 -43 212 -52.5Q191 -62 176 -79L128 -52V21H85V-76L155 -116Q153 -122 151 -128H113L54 -89L31 -124L100 -171H151Q153 -180 157 -189L124 -211L48 -192L38 -235L132 -258L181 -225Q202 -245 229 -252Q256 -259 283 -252Q310 -245 331 -225L379 -258L474 -235L464 -192L388 -211L355 -190Q359 -180 361 -171H412L481 -125L458 -89L399 -128ZM235 -149Q235 -158 228.5 -164.5Q222 -171 213 -171Q204 -171 198 -164.5Q192 -158 192 -149Q192 -140 198 -134Q204 -128 213 -128Q222 -128 228.5 -134Q235 -140 235 -149ZM320 -149Q320 -158 314 -164.5Q308 -171 299 -171Q290 -171 283.5 -164.5Q277 -158 277 -149Q277 -140 283.5 -134Q290 -128 299 -128Q308 -128 314 -134Q320 -140 320 -149Z"/>
</svg>