<svg xmlns="http://www.w3.org/2000/svg" viewBox="0 -512 512 512">
	<path fill="#000000" d="M427 21H384V-76L351 -104Q347 -81 333 -63Q327 -54 318 -47Q291 -24 256 -24Q221 -24 194 -47Q185 -54 179 -63Q165 -81 161 -104L128 -76V21H85V-95L168 -166L117 -152L58 -92L28 -122L95 -189L159 -207L119 -213L30 -282L55 -316L137 -255L194 -245L126 -313L149 -410L192 -400L173 -327L197 -302Q201 -311 206.5 -318Q212 -325 218 -328L226 -334Q241 -341 256.5 -341Q272 -341 286 -334L294 -329Q300 -324 305 -318Q310 -312 315 -302L338 -327L320 -400L363 -410L386 -313L318 -245L375 -255L457 -316L482 -282L393 -213L352 -208L416 -190L484 -122L454 -92L395 -152L344 -166L427 -95ZM309 -111L320 -181L256 -192L192 -181L203 -111Q207 -92 221.5 -79Q236 -66 256 -66Q276 -66 290.5 -79Q305 -92 309 -111ZM256 -244L282 -270L276 -286Q273 -292 267.5 -295.5Q262 -299 256 -299Q250 -299 244.5 -295Q239 -291 236 -286L230 -270Z"/>
</svg>