<svg xmlns="http://www.w3.org/2000/svg" viewBox="0 -512 512 512">
	<path fill="#000000" d="M43 -320L151 -266Q128 -234 128 -192Q128 -150 151 -118L43 -64ZM128 -384H384L330 -297Q298 -320 256 -320Q214 -320 182 -297ZM469 -320V-64L361 -118Q384 -150 384 -192Q384 -234 361 -266ZM384 0H128L182 -87Q214 -64 256 -64Q298 -64 330 -87ZM256 -277Q291 -277 316 -252Q341 -227 341 -192Q341 -157 316 -132Q291 -107 256 -107Q221 -107 196 -132Q171 -157 171 -192Q171 -227 196 -252Q221 -277 256 -277ZM256 -235Q238 -235 225.5 -222.5Q213 -210 213 -192Q213 -174 225.5 -161.5Q238 -149 256 -149Q274 -149 286.5 -161.5Q299 -174 299 -192Q299 -210 286.5 -222.5Q274 -235 256 -235Z"/>
</svg>