<svg xmlns="http://www.w3.org/2000/svg" viewBox="0 -512 512 512">
	<path fill="#000000" d="M382 -215Q333 -244 257 -251Q186 -256 134 -240Q127 -238 119.5 -241.5Q112 -245 110 -253Q108 -261 111.5 -268Q115 -275 123 -277Q183 -295 261 -289Q346 -282 402 -249Q409 -245 411.5 -236.5Q414 -228 409.5 -221.5Q405 -215 397 -213.5Q389 -212 382 -215ZM380 -156Q376 -150 369.5 -148.5Q363 -147 357 -150Q314 -177 254.5 -184Q195 -191 145 -175Q138 -173 132 -176Q126 -179 124.5 -185.5Q123 -192 126 -198Q129 -204 135 -206Q194 -223 260 -215.5Q326 -208 375 -177Q380 -175 382 -168Q384 -161 380 -156ZM354 -97Q351 -92 346 -91Q341 -90 336 -93Q261 -139 148 -113Q143 -112 138.5 -115Q134 -118 132.5 -123Q131 -128 134 -132.5Q137 -137 142 -139Q266 -166 349 -115Q354 -113 355.5 -107.5Q357 -102 354 -97ZM256 -405Q214 -405 174.5 -389Q135 -373 105 -343Q75 -313 59 -273.5Q43 -234 43 -192Q43 -150 59 -110.5Q75 -71 105 -41Q135 -11 174.5 5Q214 21 256 21Q298 21 337.5 5Q377 -11 407 -41Q437 -71 453 -110.5Q469 -150 469 -192Q469 -234 453 -273.5Q437 -313 407 -343Q377 -373 337.5 -389Q298 -405 256 -405Z"/>
</svg>