<svg xmlns="http://www.w3.org/2000/svg" viewBox="0 -512 512 512">
	<path fill="#000000" d="M405 -171V-213H448V-171ZM448 -256V-299H405V-256ZM448 -384H405V-341H448ZM363 -128H405V-171H363ZM448 -85V-128H405V-85ZM277 -85V-128H320V-171H277V-213H320V-256H277V-299H320V-341H277V-384H64V0H277V-43H320V-85ZM320 0H363V-43H320ZM363 -384H320V-341H363ZM363 -213H405V-256H363ZM320 -85H363V-128H320ZM363 -43H405V-85H363ZM448 0V-43H405V0ZM320 -256H363V-299H320ZM320 -171H363V-213H320ZM363 -341V-299H405V-341Z"/>
</svg>