<svg xmlns="http://www.w3.org/2000/svg" viewBox="0 -512 512 512">
	<path fill="#000000" d="M96 -256Q87 -256 81 -249.5Q75 -243 75 -235V-197Q75 -189 81 -182.5Q87 -176 96 -176H149V-160H75V-128H160Q169 -128 175 -134.5Q181 -141 181 -149V-187Q181 -195 175 -201.5Q169 -208 160 -208H107V-224H181V-256ZM224 -256Q215 -256 209 -249.5Q203 -243 203 -235V-197Q203 -189 209 -182.5Q215 -176 224 -176H277V-160H203V-128H288Q297 -128 303 -134.5Q309 -141 309 -149V-187Q309 -195 303 -201.5Q297 -208 288 -208H235V-224H309V-256ZM331 -256V-128H363V-181H405V-128H437V-256H405V-213H363V-256Z"/>
</svg>