<svg xmlns="http://www.w3.org/2000/svg" viewBox="0 -512 512 512">
	<path fill="#000000" d="M105 -277Q77 -277 59 -264.5Q41 -252 41 -230.5Q41 -209 56.5 -197.5Q72 -186 102 -177Q117 -172 123 -167Q129 -162 129 -153.5Q129 -145 123.5 -140.5Q118 -136 105 -136Q90 -136 82.5 -142Q75 -148 75 -162H37H36Q36 -135 56.5 -121Q77 -107 104.5 -107Q132 -107 150 -119.5Q168 -132 168 -153.5Q168 -175 153 -187.5Q138 -200 111 -208Q93 -214 86 -218.5Q79 -223 79 -230.5Q79 -238 85.5 -243Q92 -248 104 -248Q116 -248 123 -242Q130 -236 129 -226H166L167 -227Q167 -249 149.5 -263Q132 -277 105 -277ZM192 -276V-108H231V-166H255Q285 -166 302.5 -181Q320 -196 320 -221Q320 -246 302.5 -261Q285 -276 255 -276ZM368 -276L309 -108H346L405 -276ZM437 -276L380 -108H416L476 -276ZM231 -246H255Q268 -246 274.5 -239.5Q281 -233 281 -221.5Q281 -210 274.5 -203Q268 -196 255 -196H231Z"/>
</svg>