<svg xmlns="http://www.w3.org/2000/svg" viewBox="0 -512 512 512">
	<path fill="#000000" d="M107 -384H149L213 -341L149 -299V-270Q199 -277 256 -277Q313 -277 363 -270V-384H405L469 -341L405 -299V-262Q436 -255 452.5 -245Q469 -235 469 -224Q469 -210 440.5 -197.5Q412 -185 363 -178Q314 -171 256 -171Q198 -171 149 -178Q100 -185 71.5 -197.5Q43 -210 43 -224Q43 -235 59.5 -245Q76 -255 107 -262ZM256 -245Q199 -245 176 -241Q149 -237 149 -224Q149 -211 176 -207Q199 -203 256 -203Q313 -203 336 -207Q363 -211 363 -224Q363 -237 336 -241Q313 -245 256 -245ZM256 -133Q316 -133 368.5 -143Q421 -153 457 -170L427 0H320V-43Q320 -60 307.5 -72.5Q295 -85 277 -85H235Q217 -85 204.5 -72.5Q192 -60 192 -43V0H85L55 -170Q91 -153 143.5 -143Q196 -133 256 -133Z"/>
</svg>