<svg xmlns="http://www.w3.org/2000/svg" viewBox="0 -512 512 512">
	<path fill="#000000" d="M149 -341L64 -299V-384ZM384 -384V-299L469 -341ZM235 -405V-320L320 -363ZM277 -64H235V21Q181 20 137 11.5Q93 3 68 -11.5Q43 -26 43 -43V-235Q43 -252 71.5 -267Q100 -282 149 -290.5Q198 -299 256 -299Q314 -299 363 -290.5Q412 -282 440.5 -267Q469 -252 469 -235V-43Q469 -26 443.5 -11.5Q418 3 374 11.5Q330 20 277 21ZM107 -235Q132 -226 167 -220Q209 -213 256 -213Q303 -213 345 -220Q380 -226 405 -235Q405 -237 387 -242Q365 -248 335 -251Q297 -256 256.5 -256Q216 -256 177 -251Q148 -247 125 -241Q107 -236 107 -235ZM427 -196Q397 -185 353 -178Q307 -171 256 -171Q205 -171 159 -178Q115 -185 85 -196V-51Q96 -44 123 -37Q154 -28 192 -23V-107H320V-23Q358 -28 389 -37Q416 -44 427 -51Z"/>
</svg>