<svg xmlns="http://www.w3.org/2000/svg" viewBox="0 -512 512 512">
	<path fill="#000000" d="M149 -341L64 -299V-384ZM384 -384V-299L469 -341ZM235 -405V-320L320 -363ZM107 -235Q132 -226 167 -220Q209 -213 256 -213Q303 -213 345 -220Q380 -226 405 -235Q405 -237 387 -242Q365 -248 335 -251Q297 -256 256.5 -256Q216 -256 177 -251Q148 -247 125 -241Q107 -236 107 -235ZM320 -85H192V19Q125 13 84 -4Q43 -21 43 -43V-235Q43 -252 71.5 -267Q100 -282 149 -290.5Q198 -299 256 -299Q314 -299 363 -290.5Q412 -282 440.5 -267Q469 -252 469 -235V-43Q469 -22 427.5 -4.5Q386 13 320 19Z"/>
</svg>