<svg xmlns="http://www.w3.org/2000/svg" viewBox="0 -512 512 512">
	<path fill="#000000" d="M277 -299H341Q368 -299 386.5 -280Q405 -261 405 -235V-149Q405 -123 386.5 -104Q368 -85 341 -85H277ZM341 -128Q350 -128 356.5 -134Q363 -140 363 -149V-235Q363 -244 356.5 -250Q350 -256 341 -256H320V-128ZM149 -299H235V-256H149V-213H192Q210 -213 222.5 -200.5Q235 -188 235 -171V-128Q235 -110 222.5 -97.5Q210 -85 192 -85H107V-128H192V-171H149Q132 -171 119.5 -183.5Q107 -196 107 -213V-256Q107 -274 119.5 -286.5Q132 -299 149 -299Z"/>
</svg>