<svg xmlns="http://www.w3.org/2000/svg" viewBox="0 -512 512 512">
	<path fill="#000000" d="M256 -85L289 -158L363 -192L289 -225L256 -299L223 -225L149 -192L223 -158ZM174 -389Q214 -405 256 -405Q298 -405 337.5 -389Q377 -373 407 -343Q437 -313 453 -273.5Q469 -234 469 -192Q469 -150 453 -110.5Q437 -71 407 -41Q377 -11 337.5 5Q298 21 256 21Q214 21 174.5 5Q135 -11 105 -41Q75 -71 59 -110.5Q43 -150 43 -192Q43 -234 59 -273.5Q75 -313 105 -343Q135 -373 174 -389ZM135 -71Q159 -47 190.5 -34Q222 -21 256 -21Q290 -21 321.5 -34Q353 -47 377 -71Q401 -95 414 -126.5Q427 -158 427 -192Q427 -226 414 -257.5Q401 -289 377 -313Q353 -337 321.5 -350Q290 -363 256 -363Q222 -363 190.5 -350Q159 -337 135 -313Q111 -289 98 -257.5Q85 -226 85 -192Q85 -158 98 -126.5Q111 -95 135 -71Z"/>
</svg>