<svg xmlns="http://www.w3.org/2000/svg" viewBox="0 -512 512 512">
	<path fill="#000000" d="M491 -288L353 -300L299 -427L245 -300L107 -288L211 -197L180 -62L299 -134L417 -62L386 -197ZM344 -187L353 -151L299 -183L244 -151L259 -212L211 -254L274 -259L299 -317L323 -259L386 -254L338 -212ZM25 -192Q20 -200 22 -208.5Q24 -217 31 -222L89 -260L123 -231L54 -186Q49 -183 43 -183Q32 -183 25 -192ZM31 -18L156 -100L149 -69L142 -40L54 18Q49 21 43 21Q31 21 25 12Q20 4 22 -4.5Q24 -13 31 -18ZM156 -203L176 -185L170 -160L54 -84Q49 -81 43 -81Q31 -81 25 -90Q20 -98 22 -106.5Q24 -115 31 -120Z"/>
</svg>