<svg xmlns="http://www.w3.org/2000/svg" viewBox="0 -512 512 512">
	<path fill="#000000" d="M262 -405Q259 -405 256 -405Q214 -405 174.5 -389Q135 -373 105 -343Q75 -313 59 -273.5Q43 -234 43 -192Q43 -150 59 -110.5Q75 -71 105 -41Q135 -11 174.5 5Q214 21 257.5 21Q301 21 335 7Q362 -5 395 -32Q338 -16 284 -36Q234 -54 202.5 -96.5Q171 -139 171 -192Q171 -245 202.5 -287.5Q234 -330 284 -348Q338 -368 395 -352Q368 -378 334 -392Q300 -406 262 -405ZM358 -316L326 -241L247 -235L309 -181L290 -107L358 -149L427 -107L405 -181L469 -235L390 -241Z"/>
</svg>