<svg xmlns="http://www.w3.org/2000/svg" viewBox="0 -512 512 512">
	<path fill="#000000" d="M256 -395L180 -276L43 -240L132 -131L124 11L256 -41L388 11L380 -131L469 -240L332 -276ZM200 -224Q210 -224 217 -217Q224 -210 224 -200Q224 -190 217 -183Q210 -176 200 -176Q190 -176 183 -183Q176 -190 176 -200Q176 -210 183 -217Q190 -224 200 -224ZM312 -224Q322 -224 329 -217Q336 -210 336 -200Q336 -190 329 -183Q322 -176 312 -176Q302 -176 295 -183Q288 -190 288 -200Q288 -210 295 -217Q302 -224 312 -224ZM192 -128H320Q312 -109 294.5 -97Q277 -85 256 -85Q235 -85 217.5 -97Q200 -109 192 -128Z"/>
</svg>