<svg xmlns="http://www.w3.org/2000/svg" viewBox="0 -512 512 512">
	<path fill="#000000" d="M43 -336L70 -363L427 -6L400 21L368 -11Q318 21 256 21Q169 21 106 -42Q43 -105 43 -192Q43 -254 75 -304ZM277 -23Q309 -27 337 -42L288 -90L277 -87ZM87 -213H149L157 -221L106 -272Q91 -245 87 -213ZM425 -171H361Q357 -153 348 -139L211 -275L213 -277H299L363 -213H425Q417 -276 368.5 -319.5Q320 -363 256 -363Q200 -363 157 -331L126 -361Q183 -405 256 -405Q343 -405 406 -342Q469 -279 469 -192Q469 -119 425 -62L395 -92Q420 -127 425 -171ZM235 -23V-87Q203 -94 180.5 -116.5Q158 -139 151 -171H87Q94 -114 135.5 -72.5Q177 -31 235 -23Z"/>
</svg>