<svg xmlns="http://www.w3.org/2000/svg" viewBox="0 -512 512 512">
	<path fill="#000000" d="M277 -23Q335 -30 376.5 -71.5Q418 -113 425 -171H361Q354 -139 331.5 -116.5Q309 -94 277 -87ZM213 -277H299L363 -213H425Q417 -276 368.5 -319.5Q320 -363 256 -363Q192 -363 143.5 -319.5Q95 -276 87 -213H149ZM235 -23V-87Q203 -94 180.5 -116.5Q158 -139 151 -171H87Q94 -114 135.5 -72.5Q177 -31 235 -23ZM256 -405Q343 -405 406 -342Q469 -279 469 -192Q469 -105 406 -42Q343 21 256 21Q169 21 106 -42Q43 -105 43 -192Q43 -279 106 -342Q169 -405 256 -405Z"/>
</svg>