<svg xmlns="http://www.w3.org/2000/svg" viewBox="0 -512 512 512">
	<path fill="#000000" d="M405 -277Q414 -277 420.5 -271Q427 -265 427 -256Q427 -247 420.5 -241Q414 -235 405 -235Q396 -235 390 -241Q384 -247 384 -256Q384 -265 390 -271Q396 -277 405 -277ZM43 -405V-213Q43 -166 74 -130Q105 -94 152 -87Q162 -39 200 -9Q238 21 288 21Q326 21 357.5 2.5Q389 -16 408 -48Q427 -80 427 -117V-196Q446 -203 457.5 -219.5Q469 -236 469 -256Q469 -283 450.5 -301.5Q432 -320 405.5 -320Q379 -320 360 -301.5Q341 -283 341 -256Q341 -236 353 -219.5Q365 -203 384 -196V-119Q384 -79 356 -51Q328 -23 288 -23Q256 -23 231 -41Q206 -59 197 -87Q241 -97 270 -132.5Q299 -168 299 -213V-405H213V-341H256V-213Q256 -178 231 -153Q206 -128 170.5 -128Q135 -128 110 -153Q85 -178 85 -213V-341H128V-405Z"/>
</svg>