<svg xmlns="http://www.w3.org/2000/svg" viewBox="0 -512 512 512">
	<path fill="#000000" d="M117 -405Q86 -405 64.5 -383.5Q43 -362 43 -331V-53Q43 -22 64.5 -0.5Q86 21 117 21H341L469 -107V-331Q469 -362 447.5 -383.5Q426 -405 395 -405ZM123 -363H389Q405 -363 416 -352Q427 -341 427 -325V-128H395Q364 -128 342 -106Q320 -84 320 -53V-21H123Q107 -21 96 -32Q85 -43 85 -59V-325Q85 -341 96 -352Q107 -363 123 -363ZM308 -304Q303 -304 298 -302Q283 -298 275.5 -284.5Q268 -271 272 -256Q273 -251 276 -247L345 -265Q345 -271 344 -276Q341 -288 331 -296Q321 -304 308 -304ZM174 -267Q167 -267 164 -266Q149 -261 141.5 -248Q134 -235 138 -220Q139 -217 142 -211L143 -210L211 -229Q211 -234 210 -239Q207 -252 197 -259.5Q187 -267 174 -267ZM357 -208L162 -154Q183 -130 214 -120.5Q245 -111 276 -119.5Q307 -128 329 -152Q351 -176 357 -208Z"/>
</svg>