<svg xmlns="http://www.w3.org/2000/svg" viewBox="0 -512 512 512">
	<path fill="#000000" d="M259 -54L390 -186Q333 -173 300 -139.5Q267 -106 259 -54ZM443 -235H449Q455 -235 460.5 -231Q466 -227 468 -221Q470 -215 469 -209Q468 -203 463 -198L250 15Q243 21 235 21L227 20Q221 18 217 12.5Q213 7 213 1Q208 -108 270 -170Q309 -209 370 -225Q407 -235 443 -235ZM256 -405Q303 -405 345 -385.5Q387 -366 417 -331.5Q447 -297 460 -254L427 -256H414Q395 -304 352 -333.5Q309 -363 256 -363Q210 -363 170.5 -340Q131 -317 108 -277.5Q85 -238 85 -192Q85 -139 114.5 -96Q144 -53 192 -34Q191 -10 194 12Q151 -1 116.5 -31Q82 -61 62.5 -103Q43 -145 43 -192Q43 -250 71.5 -299Q100 -348 149 -376.5Q198 -405 256 -405Z"/>
</svg>