<svg xmlns="http://www.w3.org/2000/svg" viewBox="0 -512 512 512">
	<path fill="#000000" d="M363 -320H341V-341Q341 -359 328.5 -371.5Q316 -384 299 -384H213Q196 -384 183.5 -371.5Q171 -359 171 -341V-320H149Q115 -320 85.5 -303Q56 -286 38.5 -256.5Q21 -227 21 -192Q21 -157 38.5 -127.5Q56 -98 85.5 -81Q115 -64 149 -64V0H192V-64H320V0H363V-64Q397 -64 426.5 -81Q456 -98 473.5 -127.5Q491 -157 491 -192Q491 -227 473.5 -256.5Q456 -286 426.5 -303Q397 -320 363 -320ZM213 -341H299V-320H213ZM363 -107H149Q114 -107 89 -132Q64 -157 64 -192Q64 -227 89 -252Q114 -277 149 -277H363Q398 -277 423 -252Q448 -227 448 -192Q448 -157 423 -132Q398 -107 363 -107Z"/>
</svg>