<svg xmlns="http://www.w3.org/2000/svg" viewBox="0 -512 512 512">
	<path fill="#000000" d="M384 -363H43V-405H384ZM373 -171H341V-64L418 -18L434 -44L373 -80ZM512 -85Q512 -45 492 -10.5Q472 24 437.5 44Q403 64 363 64Q326 64 294 47Q262 30 241 1Q220 -28 215 -64H43V-192H21V-235L43 -341H384L405 -235V-228Q452 -214 482 -174.5Q512 -135 512 -85ZM65 -235H362L349 -299H78ZM85 -107H213V-192H85ZM469 -85Q469 -114 455 -138.5Q441 -163 416.5 -177.5Q392 -192 363 -192Q334 -192 309.5 -177.5Q285 -163 270.5 -138.5Q256 -114 256 -85Q256 -56 270.5 -31.5Q285 -7 309.5 7Q334 21 363 21Q392 21 416.5 7Q441 -7 455 -31.5Q469 -56 469 -85Z"/>
</svg>