<svg xmlns="http://www.w3.org/2000/svg" viewBox="0 -512 512 512">
	<path fill="#000000" d="M108 -384Q94 -384 82 -375Q70 -366 67 -352L45 -258Q37 -223 58 -197L64 -191V-43Q64 -25 77.5 -12.5Q91 0 107 0H235V-40L237 -43H107V-171H112Q141 -171 159 -191Q180 -171 209 -171Q236 -171 256 -191Q279 -171 305.5 -171Q332 -171 353 -191Q361 -182 371 -177L407 -212L410 -215Q405 -213 400 -213Q390 -213 383 -220.5Q376 -228 375 -238L362 -341L403 -342L426 -248Q429 -234 421 -224Q432 -230 444.5 -231.5Q457 -233 468 -228Q470 -244 467 -258L445 -352Q441 -366 429.5 -375Q418 -384 404 -384ZM108 -341H150L137 -238Q133 -213 112 -213Q99 -213 92 -223Q83 -234 86 -248ZM193 -341H235V-241Q235 -230 227 -221.5Q219 -213 207.5 -213Q196 -213 188.5 -222Q181 -231 181 -242V-245ZM277 -341H319L331 -245Q333 -232 325 -222.5Q317 -213 303 -213Q293 -213 285 -221.5Q277 -230 277 -241ZM321 21H277V-23L407 -152L450 -108ZM441 -186Q444 -189 449 -189Q454 -189 457 -186L484 -158Q488 -155 488 -150Q488 -145 484 -142L463 -121L419 -164Z"/>
</svg>