<svg xmlns="http://www.w3.org/2000/svg" viewBox="0 -512 512 512">
	<path fill="#000000" d="M82 -375Q94 -384 108 -384H404Q418 -384 429.5 -375Q441 -366 445 -352L467 -258Q475 -223 454 -197L448 -191Q429 -171 401 -171Q373 -171 353 -191Q332 -171 304.5 -171Q277 -171 256 -191Q236 -171 208 -171Q180 -171 159 -191Q138 -171 111 -171H107V-43H258Q261 -20 273 0H107Q90 0 77 -13Q64 -26 64 -43V-191L57 -198Q37 -224 45 -258L67 -352Q70 -366 82 -375ZM426 -248L403 -342L362 -341L375 -238Q376 -228 383 -220.5Q390 -213 401 -213Q412 -213 420.5 -223.5Q429 -234 426 -248ZM150 -341H108L86 -248Q83 -234 92 -223Q99 -213 112 -213Q133 -213 137 -238ZM235 -341H193L181 -245V-242Q181 -231 188.5 -222Q196 -213 207.5 -213Q219 -213 227 -221.5Q235 -230 235 -241ZM319 -341H277V-241Q277 -230 285 -221.5Q293 -213 303 -213Q317 -213 325 -222.5Q333 -232 331 -245ZM460 -109L429 -139L384 -94L339 -139L309 -109L354 -64L309 -19L339 12L384 -34L429 12L460 -19L414 -64Z"/>
</svg>