<svg xmlns="http://www.w3.org/2000/svg" viewBox="0 -512 512 512">
	<path fill="#000000" d="M384 -363H43V-405H384ZM278 -235H65L78 -299H349L358 -256Q382 -255 403 -246L384 -341H43L21 -235V-192H43V-64H224Q213 -90 213 -117V-107H85V-192H213V-117Q213 -144 223.5 -169.5Q234 -195 254 -215Q265 -227 278 -235ZM499 0L469 30L403 -36Q379 -21 352 -21Q312 -21 284 -49Q256 -77 256 -117Q256 -157 284 -185Q312 -213 352 -213Q392 -213 420 -185Q448 -157 448 -117Q448 -89 433 -66ZM405 -117Q405 -139 389.5 -155Q374 -171 352 -171Q330 -171 314.5 -155Q299 -139 299 -117Q299 -95 314.5 -79.5Q330 -64 352 -64Q374 -64 389.5 -79.5Q405 -95 405 -117Z"/>
</svg>