<svg xmlns="http://www.w3.org/2000/svg" viewBox="0 -512 512 512">
	<path fill="#000000" d="M128 -149H171L235 -85H192ZM85 -363H107V-384Q107 -393 113 -399Q119 -405 128 -405H213Q222 -405 228.5 -399Q235 -393 235 -384V-363H277V-384Q277 -393 283.5 -399Q290 -405 299 -405H384Q393 -405 399 -399Q405 -393 405 -384V-363H427Q444 -363 456.5 -350.5Q469 -338 469 -320V-43Q469 -25 456.5 -12.5Q444 0 427 0V21H363V0H149V21H85V0Q68 0 55.5 -12.5Q43 -25 43 -43V-320Q43 -338 55.5 -350.5Q68 -363 85 -363ZM384 -299Q393 -299 399 -292.5Q405 -286 405 -277Q405 -268 399 -262Q393 -256 384 -256Q375 -256 369 -262Q363 -268 363 -277Q363 -286 369 -292.5Q375 -299 384 -299ZM299 -299Q308 -299 314 -292.5Q320 -286 320 -277Q320 -268 314 -262Q308 -256 299 -256Q290 -256 283.5 -262Q277 -268 277 -277Q277 -286 283.5 -292.5Q290 -299 299 -299ZM427 -320H85V-235H427ZM85 -43H427V-192H85ZM128 -299Q137 -299 143 -292.5Q149 -286 149 -277Q149 -268 143 -262Q137 -256 128 -256Q119 -256 113 -262Q107 -268 107 -277Q107 -286 113 -292.5Q119 -299 128 -299ZM277 -149H320L384 -85H341Z"/>
</svg>