<svg xmlns="http://www.w3.org/2000/svg" viewBox="0 -512 512 512">
	<path fill="#000000" d="M147 -331L196 -282L166 -252L117 -301L68 -252L38 -282L87 -331L38 -380L68 -410L117 -361L166 -410L196 -380ZM474 -102L444 -132L395 -83L346 -132L316 -102L365 -53L316 -4L346 26L395 -23L444 26L474 -4L425 -53ZM435 -302L367 -213L333 -240L358 -272Q309 -263 271.5 -231Q234 -199 216 -153Q244 -132 252.5 -97.5Q261 -63 245 -31.5Q229 0 196.5 14Q164 28 130 17Q96 6 77.5 -24.5Q59 -55 64.5 -90Q70 -125 97.5 -148Q125 -171 160 -171Q168 -171 177 -169Q199 -225 245.5 -263.5Q292 -302 351 -314L320 -337L347 -371ZM213 -75Q213 -97 197.5 -112.5Q182 -128 160 -128Q138 -128 122.5 -112.5Q107 -97 107 -75Q107 -53 122.5 -37Q138 -21 160 -21Q182 -21 197.5 -37Q213 -53 213 -75Z"/>
</svg>