<svg xmlns="http://www.w3.org/2000/svg" viewBox="0 -512 512 512">
	<path fill="#000000" d="M171 -370Q134 -344 85 -341H43V-299H85Q129 -299 171 -320Q211 -299 256 -299Q301 -299 341 -320Q379 -301 427 -299H469V-341H427Q382 -341 341 -370Q302 -342 256 -342Q210 -342 171 -370ZM341 -263L320 -235V-192H299L256 -149H192L128 -107L107 -149H85V-107L43 -85L85 -64V-21H110L128 -64L192 -21H427Q444 -21 456.5 -33.5Q469 -46 469 -64V-107Q469 -124 456.5 -136.5Q444 -149 427 -149H384L363 -171V-192H341V-235H363V-263Z"/>
</svg>