<svg xmlns="http://www.w3.org/2000/svg" viewBox="0 -512 512 512">
	<path fill="#000000" d="M181 -128Q190 -128 196.5 -122Q203 -116 203 -107Q203 -98 196.5 -91.5Q190 -85 181 -85Q172 -85 166 -91.5Q160 -98 160 -107Q160 -116 166 -122Q172 -128 181 -128ZM149 -256H363V-149H149ZM331 -128Q340 -128 346 -122Q352 -116 352 -107Q352 -98 346 -91.5Q340 -85 331 -85Q322 -85 315.5 -91.5Q309 -98 309 -107Q309 -116 315.5 -122Q322 -128 331 -128ZM384 -109V-256Q384 -294 347 -309Q318 -320 256 -320Q197 -320 168 -309Q128 -294 128 -256V-109Q128 -86 144.5 -69.5Q161 -53 184 -53L160 -29V-21H196L228 -53H288L320 -21H352V-29L328 -53Q351 -53 367.5 -69.5Q384 -86 384 -109ZM380 -388Q422 -372 445.5 -338Q469 -304 469 -259V21H43V-259Q43 -304 66.5 -338Q90 -372 132 -388Q158 -399 194 -402Q219 -405 256 -405Q293 -405 318 -402Q354 -399 380 -388Z"/>
</svg>