<svg xmlns="http://www.w3.org/2000/svg" viewBox="0 -512 512 512">
	<path fill="#000000" d="M341 -213V-320H235V-213ZM309 -85Q322 -85 331.5 -95Q341 -105 341 -117.5Q341 -130 331.5 -139.5Q322 -149 309.5 -149Q297 -149 287 -139.5Q277 -130 277 -117.5Q277 -105 287 -95Q297 -85 309 -85ZM192 -213V-320H85V-213ZM117 -85Q130 -85 139.5 -95Q149 -105 149 -117.5Q149 -130 139.5 -139.5Q130 -149 117.5 -149Q105 -149 95 -139.5Q85 -130 85 -117.5Q85 -105 95 -95Q105 -85 117 -85ZM213 -405Q296 -405 334 -391Q384 -371 384 -320V-117Q384 -87 362 -65Q340 -43 309 -43L341 -11V0H85V-11L117 -43Q87 -43 65 -65Q43 -87 43 -117V-320Q43 -371 93 -391Q131 -405 213 -405ZM427 -171V-299H469V-171ZM427 -85V-128H469V-85Z"/>
</svg>