<svg xmlns="http://www.w3.org/2000/svg" viewBox="0 -512 512 512">
	<path fill="#000000" d="M386 -249L419 -320L331 -328Q350 -311 364 -288Q373 -272 378 -251Q360 -256 341 -256H332Q320 -285 293.5 -302.5Q267 -320 235 -320Q206 -320 181.5 -305.5Q157 -291 142.5 -266.5Q128 -242 128 -213Q128 -181 145.5 -154.5Q163 -128 192 -116V-107Q192 -66 212 -31.5Q232 3 266.5 23Q301 43 341.5 43Q382 43 416.5 23Q451 3 471 -31.5Q491 -66 491 -107Q491 -156 461.5 -195.5Q432 -235 386 -249ZM171 -213Q171 -240 189.5 -258.5Q208 -277 235 -277Q252 -277 266.5 -269Q281 -261 289 -246Q259 -235 236 -212Q213 -189 202 -159Q187 -167 179 -181.5Q171 -196 171 -213ZM341 0Q312 0 287.5 -14.5Q263 -29 249 -53.5Q235 -78 235 -107Q235 -136 249 -160.5Q263 -185 287.5 -199Q312 -213 341 -213Q370 -213 394.5 -199Q419 -185 433.5 -160.5Q448 -136 448 -107Q448 -78 433.5 -53.5Q419 -29 394.5 -14.5Q370 0 341 0ZM352 -101L413 -65L397 -39L320 -85V-192H352ZM235 -363Q208 -363 184 -354L235 -427L286 -354Q261 -363 235 -363ZM106 -139Q118 -116 139 -99L50 -107L88 -187Q93 -161 106 -139ZM88 -239L50 -320L139 -327Q118 -310 105 -288Q92 -266 88 -239Z"/>
</svg>