<svg xmlns="http://www.w3.org/2000/svg" viewBox="0 -512 512 512">
	<path fill="#000000" d="M276 -414L239 -393L264 -348L252 -302L192 -286L157 -320L158 -371H116V-332H77V-290H128L163 -255L147 -196L100 -183L55 -209L34 -172L68 -153L48 -119L85 -98L111 -142L158 -155L169 -144L199 -174L187 -185L203 -244L263 -261L274 -249L304 -279L293 -291L305 -337L350 -363L329 -400L295 -381ZM442 -363L85 -6L112 21L217 -83Q232 -72 250 -68Q278 -60 305.5 -67.5Q333 -75 353 -95Q373 -115 380 -143Q387 -166 382.5 -189Q378 -212 365 -231L469 -336ZM400 -256Q414 -235 421 -209.5Q428 -184 426 -158L483 -226ZM412 -108Q402 -86 383 -65Q364 -47 340 -35L428 -20ZM192 -49L222 35L290 -22Q261 -21 239 -26Q213 -33 192 -49Z"/>
</svg>