<svg xmlns="http://www.w3.org/2000/svg" viewBox="0 -512 512 512">
	<path fill="#000000" d="M386 -250L418 -320L331 -329Q351 -312 363 -288Q371 -271 378 -252Q356 -256 341 -256H333Q320 -285 294 -302.5Q268 -320 235 -320Q205 -320 180.5 -306Q156 -292 142 -267.5Q128 -243 128 -213Q128 -180 145.5 -154Q163 -128 192 -115V-107Q192 -66 212 -31.5Q232 3 266 23Q300 43 341 43Q382 43 416.5 23Q451 3 471 -31.5Q491 -66 491 -107Q491 -156 461.5 -195.5Q432 -235 386 -250ZM341 0Q312 0 287.5 -14Q263 -28 249 -52.5Q235 -77 235 -106.5Q235 -136 249 -160.5Q263 -185 287.5 -199Q312 -213 341.5 -213Q371 -213 395.5 -199Q420 -185 434 -160.5Q448 -136 448 -106.5Q448 -77 434 -52.5Q420 -28 395.5 -14Q371 0 341 0ZM352 -102L414 -66L397 -41L320 -85V-192H352ZM235 -363Q218 -363 183 -354L235 -427L286 -354Q252 -363 235 -363ZM105 -139Q118 -116 139 -98L51 -107L90 -188Q93 -158 105 -139ZM87 -239L49 -320L139 -326Q122 -313 105 -288Q91 -264 87 -239Z"/>
</svg>