<svg xmlns="http://www.w3.org/2000/svg" viewBox="0 -512 512 512">
	<path fill="#000000" d="M213 -405L162 -333Q196 -341 213 -341Q230 -341 265 -333ZM448 -154V-299Q448 -316 435.5 -328.5Q423 -341 405.5 -341Q388 -341 375.5 -328.5Q363 -316 363 -299V-154Q341 -132 341 -105.5Q341 -79 359.5 -61Q378 -43 405.5 -43Q433 -43 451 -61Q469 -79 469 -107Q469 -121 463.5 -133Q458 -145 448 -154ZM427 -277H384V-299Q384 -308 390 -314Q396 -320 405.5 -320Q415 -320 421 -314Q427 -308 427 -299ZM117 -305L28 -299L66 -218Q69 -242 83 -267Q101 -291 117 -305ZM213 -299Q184 -299 159.5 -284.5Q135 -270 121 -245.5Q107 -221 107 -192Q107 -163 121 -138.5Q135 -114 159.5 -99.5Q184 -85 213.5 -85Q243 -85 267.5 -99.5Q292 -114 306 -138.5Q320 -163 320 -192Q320 -221 306 -245.5Q292 -270 267.5 -284.5Q243 -299 213 -299ZM213 -128Q186 -128 167.5 -146.5Q149 -165 149 -192Q149 -219 167.5 -237.5Q186 -256 213.5 -256Q241 -256 259 -237.5Q277 -219 277 -192Q277 -165 259 -146.5Q241 -128 213 -128ZM68 -166L30 -85L117 -77Q97 -97 85 -117Q72 -136 68 -166ZM162 -51L213 21L265 -51Q230 -43 213 -43Q192 -43 162 -51Z"/>
</svg>