<svg xmlns="http://www.w3.org/2000/svg" viewBox="0 -512 512 512">
	<path fill="#000000" d="M235 -427L286 -354Q261 -363 234.5 -363Q208 -363 184 -354ZM50 -320L139 -327Q118 -310 105 -288Q92 -266 88 -239ZM50 -107L88 -187Q93 -161 105.5 -138.5Q118 -116 139 -99ZM419 -320L381 -239Q377 -265 363.5 -288Q350 -311 331 -328ZM491 -171H448Q448 -137 435.5 -105.5Q423 -74 398 -49.5Q373 -25 342 -12.5Q311 0 277 0V43Q319 43 358 27Q397 11 428 -19.5Q459 -50 475 -89.5Q491 -129 491 -171ZM405 -171H363Q363 -154 356.5 -138Q350 -122 338 -110Q326 -98 310 -91.5Q294 -85 277 -85V-43Q302 -43 326 -52.5Q350 -62 368 -80Q386 -98 395.5 -122Q405 -146 405 -171ZM235 -277Q261 -277 280 -258.5Q299 -240 299 -213.5Q299 -187 280 -168Q261 -149 234.5 -149Q208 -149 189.5 -168Q171 -187 171 -213.5Q171 -240 189.5 -258.5Q208 -277 235 -277ZM235 -320Q206 -320 181.5 -305.5Q157 -291 142.5 -266.5Q128 -242 128 -213Q128 -184 142.5 -159.5Q157 -135 181.5 -121Q206 -107 235 -107Q264 -107 288.5 -121Q313 -135 327 -159.5Q341 -184 341 -213Q341 -242 327 -266.5Q313 -291 288.5 -305.5Q264 -320 235 -320Z"/>
</svg>