<svg xmlns="http://www.w3.org/2000/svg" viewBox="0 -512 512 512">
	<path fill="#000000" d="M427 -363H85Q68 -363 55.5 -350.5Q43 -338 43 -320V-64Q43 -46 55.5 -33.5Q68 -21 85 -21H427Q444 -21 456.5 -33.5Q469 -46 469 -64V-320Q469 -338 456.5 -350.5Q444 -363 427 -363ZM166 -102L135 -71Q111 -96 98 -127.5Q85 -159 85 -192Q85 -225 98 -256.5Q111 -288 135 -313L165 -283Q147 -264 137.5 -240.5Q128 -217 128 -192Q128 -167 137.5 -143.5Q147 -120 166 -102ZM256 -107Q221 -107 196 -132Q171 -157 171 -192Q171 -227 196 -252Q221 -277 256 -277Q291 -277 316 -252Q341 -227 341 -192Q341 -157 316 -132Q291 -107 256 -107ZM377 -71L347 -101Q365 -120 374.5 -143.5Q384 -167 384 -192Q384 -217 374.5 -240.5Q365 -264 346 -282L377 -313Q401 -288 414 -256.5Q427 -225 427 -192Q427 -159 414 -127.5Q401 -96 377 -71ZM256 -235Q238 -235 225.5 -222.5Q213 -210 213 -192Q213 -174 225.5 -161.5Q238 -149 256 -149Q274 -149 286.5 -161.5Q299 -174 299 -192Q299 -210 286.5 -222.5Q274 -235 256 -235Z"/>
</svg>