<svg xmlns="http://www.w3.org/2000/svg" viewBox="0 -512 512 512">
	<path fill="#000000" d="M277 -64H299Q308 -64 314 -58Q320 -52 320 -43H469V0H320Q320 9 314 15Q308 21 299 21H213Q204 21 198 15Q192 9 192 0H43V-43H192Q192 -52 198 -58Q204 -64 213 -64H235V-107H171Q162 -107 155.5 -113Q149 -119 149 -128V-384Q149 -393 155.5 -399Q162 -405 171 -405H341Q350 -405 356.5 -399Q363 -393 363 -384V-128Q363 -119 356.5 -113Q350 -107 341 -107H277ZM277 -320H299V-363H277ZM192 -363V-320H235V-363ZM192 -277V-235H235V-277ZM192 -192V-149H235V-192Z"/>
</svg>