<svg xmlns="http://www.w3.org/2000/svg" viewBox="0 -512 512 512">
	<path fill="#000000" d="M192 -363V-320H128V-277H192V-235Q163 -235 138.5 -220.5Q114 -206 99.5 -181Q85 -156 85 -127Q85 -98 99.5 -73.5Q114 -49 139 -34.5Q164 -20 192 -20Q220 -20 243 -37Q251 -28 259 -19L289 -50Q283 -56 274 -66L296 -88Q327 -119 350 -179Q384 -160 384 -128Q384 -107 376 -87.5Q368 -68 353 -52L383 -22Q404 -43 415.5 -70.5Q427 -98 427 -128.5Q427 -159 410 -184.5Q393 -210 366 -223L373 -250L332 -261L324 -234L319 -235H235V-277H341V-320H235V-363ZM235 -192H309Q289 -141 265 -118L252 -104Q235 -141 235 -192ZM192 -192Q192 -124 220 -73Q208 -63 193 -63Q165 -63 146.5 -81.5Q128 -100 128 -127Q128 -154 146.5 -173Q165 -192 192 -192Z"/>
</svg>