<svg xmlns="http://www.w3.org/2000/svg" viewBox="0 -512 512 512">
	<path fill="#000000" d="M171 -363V-320H85V-277H136Q122 -265 114.5 -248.5Q107 -232 107 -213Q107 -178 132 -153Q157 -128 192 -128Q227 -128 252 -153Q277 -178 277 -213Q277 -232 269.5 -248.5Q262 -265 248 -277H299V-320H213V-363ZM320 -363V-107H363V-213H427V-256H363V-363ZM192 -256Q210 -256 222.5 -243.5Q235 -231 235 -213Q235 -195 222.5 -183Q210 -171 192 -171Q174 -171 161.5 -183Q149 -195 149 -213Q149 -231 161.5 -243.5Q174 -256 192 -256ZM149 -107V-21H363V-64H192V-107Z"/>
</svg>