<svg xmlns="http://www.w3.org/2000/svg" viewBox="0 -512 512 512">
	<path fill="#000000" d="M427 -363Q399 -363 381 -344.5Q363 -326 363 -299V-292L256 -384L149 -292V-299Q149 -326 131 -344.5Q113 -363 85.5 -363Q58 -363 39.5 -344.5Q21 -326 21 -299V0H235V-107Q235 -116 240.5 -122Q246 -128 256 -128Q266 -128 271.5 -122Q277 -116 277 -107V0H491V-299Q491 -326 472.5 -344.5Q454 -363 427 -363ZM427 -320Q435 -320 441.5 -314Q448 -308 448 -299V-277H405V-299Q405 -308 411.5 -314Q418 -320 427 -320ZM85 -320Q95 -320 101 -314Q107 -308 107 -299V-277H64V-299Q64 -308 70.5 -314Q77 -320 85 -320ZM64 -43V-235H107V-43ZM363 -43H320V-107Q320 -132 301 -151.5Q282 -171 256 -171Q230 -171 211 -151.5Q192 -132 192 -107V-43H149V-237L256 -329L363 -237ZM405 -43V-235H448V-43ZM256 -267Q269 -267 278.5 -257Q288 -247 288 -234.5Q288 -222 278.5 -212.5Q269 -203 256 -203Q243 -203 233.5 -212.5Q224 -222 224 -234.5Q224 -247 233.5 -257Q243 -267 256 -267Z"/>
</svg>