<svg xmlns="http://www.w3.org/2000/svg" viewBox="0 -512 512 512">
	<path fill="#000000" d="M128 -277V0H213V-107Q213 -124 225.5 -136.5Q238 -149 256 -149Q274 -149 286.5 -136.5Q299 -124 299 -107V0H384V-277L256 -384ZM288 -235Q288 -222 278.5 -212.5Q269 -203 256 -203Q243 -203 233.5 -212.5Q224 -222 224 -234.5Q224 -247 233.5 -257Q243 -267 256 -267Q269 -267 278.5 -257Q288 -247 288 -235ZM64 -341Q46 -341 33.5 -328.5Q21 -316 21 -299V-277H107V-299Q107 -316 94.5 -328.5Q82 -341 64 -341ZM21 -256H107V0H21ZM448 -341Q430 -341 417.5 -328.5Q405 -316 405 -299V-277H491V-299Q491 -316 478.5 -328.5Q466 -341 448 -341ZM405 -256H491V0H405Z"/>
</svg>