<svg xmlns="http://www.w3.org/2000/svg" viewBox="0 -512 512 512">
	<path fill="#000000" d="M43 -192Q43 -134 71.5 -85Q100 -36 149 -7.5Q198 21 256 21Q314 21 363 -7.5Q412 -36 440.5 -85Q469 -134 469 -192Q469 -250 440.5 -299Q412 -348 363 -376.5Q314 -405 256 -405Q214 -405 174.5 -389Q135 -373 105 -343Q75 -313 59 -273.5Q43 -234 43 -192ZM333 -155Q341 -173 341 -192Q341 -227 316 -252Q291 -277 256 -277V-235L189 -299L256 -363V-320Q291 -320 320.5 -303Q350 -286 367 -256.5Q384 -227 384 -191Q384 -155 364 -124ZM128 -192Q128 -229 148 -260L179 -229Q171 -211 171 -192Q171 -157 196 -132Q221 -107 256 -107V-149L320 -85L256 -21V-64Q221 -64 191.5 -81Q162 -98 145 -127.5Q128 -157 128 -192Z"/>
</svg>