<svg xmlns="http://www.w3.org/2000/svg" viewBox="0 -512 512 512">
	<path fill="#000000" d="M427 -363H299V-235L346 -282Q364 -265 374 -241.5Q384 -218 384 -192Q384 -161 369 -133L401 -102Q427 -143 427 -192Q427 -227 413.5 -258Q400 -289 376 -312ZM61 -333L111 -282Q85 -241 85 -192Q85 -157 98.5 -126Q112 -95 136 -72L85 -21H213V-149L166 -102Q148 -119 138 -142.5Q128 -166 128 -192Q128 -223 143 -251L315 -79Q304 -73 299 -71V-27Q324 -34 346 -47L396 3L423 -24L88 -360ZM213 -313V-357Q188 -351 166 -337L197 -305L202 -308Q209 -311 213 -313Z"/>
</svg>