<svg xmlns="http://www.w3.org/2000/svg" viewBox="0 -512 512 512">
	<path fill="#000000" d="M235 -171H277V-299H235ZM448 -363H320V-235L368 -282Q385 -265 395 -241.5Q405 -218 405 -192Q405 -151 381.5 -118Q358 -85 320 -71V-27Q376 -41 412 -87Q448 -133 448 -192Q448 -227 434.5 -258Q421 -289 398 -312ZM235 -85H277V-128H235ZM64 -192Q64 -157 77.5 -126Q91 -95 114 -72L64 -21H192V-149L144 -102Q127 -119 117 -142.5Q107 -166 107 -192Q107 -233 130.5 -266Q154 -299 192 -313V-357Q136 -343 100 -297Q64 -251 64 -192Z"/>
</svg>