<svg xmlns="http://www.w3.org/2000/svg" viewBox="0 -512 512 512">
	<path fill="#000000" d="M160 -213Q120 -213 92 -185Q64 -157 64 -117Q64 -89 79 -66L13 0L43 30L109 -36Q133 -21 160 -21Q200 -21 228 -49Q256 -77 256 -117Q256 -157 228 -185Q200 -213 160 -213ZM160 -64Q138 -64 122.5 -79.5Q107 -95 107 -117Q107 -139 122.5 -155Q138 -171 160 -171Q182 -171 197.5 -155Q213 -139 213 -117Q213 -95 197.5 -79.5Q182 -64 160 -64ZM491 -341V-43Q491 -25 478.5 -12.5Q466 0 448 0H234Q260 -16 277 -43H448V-256H277V-341H64V-217Q44 -198 32.5 -172Q21 -146 21 -117V-341Q21 -359 33.5 -371.5Q46 -384 64 -384H448Q466 -384 478.5 -371.5Q491 -359 491 -341Z"/>
</svg>