<svg xmlns="http://www.w3.org/2000/svg" viewBox="0 -512 512 512">
	<path fill="#000000" d="M21 -256H64V-299H21ZM21 -171H64V-213H21ZM21 -341H64V-384Q46 -384 33.5 -371.5Q21 -359 21 -341ZM192 0H235V-43H192ZM21 -85H64V-128H21ZM64 0V-43H21Q21 -25 33.5 -12.5Q46 0 64 0ZM448 -384H277V-256H491V-341Q491 -359 478.5 -371.5Q466 -384 448 -384ZM448 -85H491V-128H448ZM192 -341H235V-384H192ZM107 0H149V-43H107ZM107 -341H149V-384H107ZM448 0Q466 0 478.5 -12.5Q491 -25 491 -43H448ZM448 -171H491V-213H448ZM277 0H320V-43H277ZM363 0H405V-43H363Z"/>
</svg>