<svg xmlns="http://www.w3.org/2000/svg" viewBox="0 -512 512 512">
	<path fill="#000000" d="M64 -384H363Q380 -384 392.5 -371.5Q405 -359 405 -341V-190Q381 -194 357 -189Q333 -184 313 -171H235V-85H258Q254 -64 258 -43H64Q46 -43 33.5 -55.5Q21 -68 21 -85V-341Q21 -359 33.5 -371.5Q46 -384 64 -384ZM64 -299V-213H192V-299ZM235 -299V-213H363V-299ZM64 -171V-85H192V-171ZM395 -149Q355 -149 327 -121Q299 -93 299 -53Q299 -13 327 15Q355 43 395 43Q435 43 463 15Q491 -13 491 -53Q491 -93 463 -121Q435 -149 395 -149ZM395 11Q368 11 349.5 -8Q331 -27 331 -53Q331 -71 340 -85L427 2Q413 11 395 11ZM450 -21L363 -108Q377 -117 395 -117Q421 -117 440 -98.5Q459 -80 459 -53Q459 -35 450 -21Z"/>
</svg>