<svg xmlns="http://www.w3.org/2000/svg" viewBox="0 -512 512 512">
	<path fill="#000000" d="M85 -384H384Q402 -384 414.5 -371.5Q427 -359 427 -341V-190Q402 -194 378.5 -189Q355 -184 335 -171H256V-85H279Q276 -64 279 -43H85Q68 -43 55.5 -55.5Q43 -68 43 -85V-341Q43 -359 55.5 -371.5Q68 -384 85 -384ZM85 -299V-213H213V-299ZM256 -299V-213H384V-299ZM85 -171V-85H213V-171ZM405 28L393 17L383 8Q349 -25 337 -39Q320 -61 320 -80.5Q320 -100 334 -114Q348 -128 367 -128Q378 -128 388.5 -123.5Q399 -119 405 -111Q412 -119 422 -123.5Q432 -128 444 -128Q463 -128 477 -115Q491 -102 491 -81.5Q491 -61 473 -39Q462 -25 428 8L418 17Z"/>
</svg>