<svg xmlns="http://www.w3.org/2000/svg" viewBox="0 -512 512 512">
	<path fill="#000000" d="M416 -11V21H384V-11ZM373 -117H341V-128Q341 -155 360 -173.5Q379 -192 405.5 -192Q432 -192 450.5 -173.5Q469 -155 469 -128Q469 -113 462 -99Q455 -85 442 -77L435 -73Q416 -59 416 -36V-32H384V-36Q384 -55 393 -72Q402 -89 418 -99L424 -103Q437 -112 437 -128Q437 -141 428 -150.5Q419 -160 405.5 -160Q392 -160 382.5 -150.5Q373 -141 373 -128ZM384 -384H85Q68 -384 55.5 -371.5Q43 -359 43 -341V-85Q43 -68 55.5 -55.5Q68 -43 85 -43H299V-85H256V-171H308Q319 -197 342 -213H256V-299H384V-233Q395 -235 405 -235Q415 -235 427 -233V-341Q427 -359 414.5 -371.5Q402 -384 384 -384ZM213 -85H85V-171H213ZM213 -213H85V-299H213Z"/>
</svg>