<svg xmlns="http://www.w3.org/2000/svg" viewBox="0 -512 512 512">
	<path fill="#000000" d="M412 -66Q426 -88 426.5 -114Q427 -140 415.5 -162.5Q404 -185 382 -199Q360 -213 334 -213.5Q308 -214 285.5 -202.5Q263 -191 249 -169Q235 -147 234.5 -121Q234 -95 245.5 -72.5Q257 -50 280 -36Q303 -22 330.5 -22Q358 -22 382 -36L448 30L478 0ZM369 -80Q353 -64 331 -64Q309 -64 293.5 -79.5Q278 -95 278 -117Q278 -139 293.5 -155Q309 -171 331 -171Q353 -171 368.5 -155Q384 -139 384 -117Q384 -95 368 -80ZM405 -363H107Q89 -363 76.5 -350.5Q64 -338 64 -320V-64Q64 -46 76.5 -33.5Q89 -21 107 -21H231Q212 -40 203 -64H107V-149H196Q201 -173 213 -192H107V-277H235V-217Q254 -236 277 -245V-277H405V-235Q418 -227 429 -216Q440 -205 448 -192V-320Q448 -338 435.5 -350.5Q423 -363 405 -363Z"/>
</svg>