<svg xmlns="http://www.w3.org/2000/svg" viewBox="0 -512 512 512">
	<path fill="#000000" d="M263 -21H213V-85H258Q262 -108 273 -128H213V-192H299V-159Q317 -176 341 -185V-192H427V-185Q451 -176 469 -159V-341Q469 -359 456.5 -371.5Q444 -384 427 -384H85Q68 -384 55.5 -371.5Q43 -359 43 -341V-21Q43 -4 55.5 8.5Q68 21 85 21H289Q272 3 263 -21ZM341 -299H427V-235H341ZM213 -299H299V-235H213ZM171 -21H85V-85H171ZM171 -128H85V-192H171ZM171 -235H85V-299H171ZM308 -109L339 -140L384 -94L429 -140L460 -109L414 -64L460 -19L429 12L384 -34L339 12L308 -19L354 -64Z"/>
</svg>