<svg xmlns="http://www.w3.org/2000/svg" viewBox="0 -512 512 512">
	<path fill="#000000" d="M448 -43Q448 -34 442 -27.5Q436 -21 427 -21H405V-64H448ZM320 -21V-64H363V-21ZM235 -21V-64H277V-21ZM149 -21V-64H192V-21ZM85 -21Q76 -21 70 -27.5Q64 -34 64 -43V-64H107V-21ZM405 -363H107Q89 -363 76.5 -350.5Q64 -338 64 -320V-277H448V-320Q448 -338 435.5 -350.5Q423 -363 405 -363ZM107 -149H64V-107H107ZM107 -235H64V-192H107ZM448 -235H405V-192H448ZM448 -149H405V-107H448ZM235 -107V-149H277V-107ZM235 -192V-235H277V-192Z"/>
</svg>