<svg xmlns="http://www.w3.org/2000/svg" viewBox="0 -512 512 512">
	<path fill="#000000" d="M352 -111L404 -80L388 -53L320 -92V-171H352ZM427 -229V-341Q427 -359 414.5 -371.5Q402 -384 384 -384H85Q68 -384 55.5 -371.5Q43 -359 43 -341V-85Q43 -68 55.5 -55.5Q68 -43 85 -43H207Q225 -4 261 19.5Q297 43 341 43Q382 43 416.5 23Q451 3 471 -31.5Q491 -66 491 -107Q491 -144 473.5 -176Q456 -208 427 -229ZM384 -299V-250Q362 -256 341 -256Q294 -256 256 -229V-299ZM85 -299H213V-213H85ZM85 -85V-171H207Q192 -140 192 -107Q192 -97 194 -85ZM341 0Q312 0 287.5 -14.5Q263 -29 249 -53.5Q235 -78 235 -107Q235 -136 249 -160.5Q263 -185 287.5 -199Q312 -213 341 -213Q370 -213 394.5 -199Q419 -185 433.5 -160.5Q448 -136 448 -107Q448 -78 433.5 -53.5Q419 -29 394.5 -14.5Q370 0 341 0Z"/>
</svg>