<svg xmlns="http://www.w3.org/2000/svg" viewBox="0 -512 512 512">
	<path fill="#000000" d="M448 -107V-117Q448 -139 432.5 -155Q417 -171 395 -171Q373 -171 357 -155Q341 -139 341 -117V-107Q333 -107 326.5 -100.5Q320 -94 320 -85V0Q320 9 326.5 15Q333 21 341 21H448Q457 21 463 15Q469 9 469 0V-85Q469 -94 463 -100.5Q457 -107 448 -107ZM427 -107H363V-117Q363 -131 372 -140Q381 -149 394.5 -149Q408 -149 417.5 -140Q427 -131 427 -117ZM277 -64H256V-149H304Q314 -176 335 -192H256V-277H384V-212L395 -213Q410 -213 427 -208V-320Q427 -338 414.5 -350.5Q402 -363 384 -363H85Q68 -363 55.5 -350.5Q43 -338 43 -320V-64Q43 -46 55.5 -33.5Q68 -21 85 -21H277ZM213 -64H85V-149H213ZM213 -192H85V-277H213Z"/>
</svg>