<svg xmlns="http://www.w3.org/2000/svg" viewBox="0 -512 512 512">
	<path fill="#000000" d="M51 -411L24 -384L48 -359Q36 -355 28.5 -344Q21 -333 21 -320V-43Q21 -25 33.5 -12.5Q46 0 64 0H192V-213H194L271 -136Q247 -115 235 -85Q251 -46 286 -23Q321 0 363 0Q383 0 402 -6L445 37L472 10L439 -23ZM149 -43H64V-107H149ZM149 -149H64V-213H149ZM149 -256H64V-320H88L149 -258ZM363 -32Q337 -32 321 -52Q305 -72 311 -97L375 -33Q369 -32 363 -32ZM346 -171L381 -136Q404 -128 413 -104L468 -49Q482 -65 491 -85Q475 -124 440 -147.5Q405 -171 363 -171ZM277 -320V-256H260L303 -213H448V-320Q448 -338 435.5 -350.5Q423 -363 405 -363H154L196 -320ZM320 -320H405V-256H320Z"/>
</svg>