<svg xmlns="http://www.w3.org/2000/svg" viewBox="0 -512 512 512">
	<path fill="#000000" d="M256 -260L132 -384H384Q402 -384 414.5 -371.5Q427 -359 427 -341V-179Q396 -192 363 -192Q347 -192 328 -188L303 -213H384V-299H256ZM365 -152L476 -40Q485 -54 491 -67Q476 -104 441.5 -127.5Q407 -151 365 -152ZM472 10L445 37L416 8Q389 19 363 19Q320 19 285 -5Q250 -29 235 -67Q249 -103 282 -126L255 -153Q230 -133 213 -107V-171H85V-85H201Q196 -76 192 -64Q196 -52 201 -43H85Q68 -43 55.5 -55.5Q43 -68 43 -85V-341Q43 -351 47 -360L24 -384L51 -411ZM194 -213L109 -299H85V-213ZM388 -20L316 -92Q309 -80 309 -67Q309 -44 325 -28.5Q341 -13 363 -13Q376 -13 388 -20Z"/>
</svg>