<svg xmlns="http://www.w3.org/2000/svg" viewBox="0 -512 512 512">
	<path fill="#000000" d="M469 -128H427V-64Q427 -46 414.5 -33.5Q402 -21 384 -21H320V21L256 -43L320 -107V-64H384V-128H341L405 -192ZM469 -363V-277Q469 -260 456.5 -247.5Q444 -235 427 -235H213V-21Q213 -4 200.5 8.5Q188 21 171 21H85Q68 21 55.5 8.5Q43 -4 43 -21V-363Q43 -380 55.5 -392.5Q68 -405 85 -405H427Q444 -405 456.5 -392.5Q469 -380 469 -363ZM85 -277H171V-363H85ZM85 -235V-149H171V-235ZM171 -21V-107H85V-21ZM299 -277V-363H213V-277ZM427 -363H341V-277H427Z"/>
</svg>