<svg xmlns="http://www.w3.org/2000/svg" viewBox="0 -512 512 512">
	<path fill="#000000" d="M358 -85Q352 -105 335.5 -116.5Q319 -128 299 -128Q271 -128 253 -109.5Q235 -91 235 -64Q235 -37 253 -18.5Q271 0 299 0Q319 0 335.5 -11.5Q352 -23 358 -43H405V0H448V-43H491V-85ZM299 -43Q289 -43 283 -49.5Q277 -56 277 -64Q277 -72 283 -78.5Q289 -85 298.5 -85Q308 -85 314 -78.5Q320 -72 320 -64Q320 -56 314 -49.5Q308 -43 299 -43ZM192 -64H85V-149H213V-128Q228 -148 250.5 -159.5Q273 -171 299 -171Q331 -171 363 -149H384V-128H427V-320Q427 -338 414.5 -350.5Q402 -363 384 -363H85Q68 -363 55.5 -350.5Q43 -338 43 -320V-64Q43 -46 55.5 -33.5Q68 -21 85 -21H201Q192 -38 192 -64ZM256 -277H384V-192H256ZM85 -277H213V-192H85Z"/>
</svg>