<svg xmlns="http://www.w3.org/2000/svg" viewBox="0 -512 512 512">
	<path fill="#000000" d="M363 -88Q372 -88 378 -82Q384 -76 384 -67Q384 -58 378 -51.5Q372 -45 363 -45Q354 -45 347.5 -51.5Q341 -58 341 -66.5Q341 -75 347.5 -81.5Q354 -88 363 -88ZM363 -152Q406 -152 440.5 -128.5Q475 -105 491 -67Q475 -29 440.5 -5Q406 19 363 19Q320 19 285 -5Q250 -29 235 -67Q250 -105 285 -128.5Q320 -152 363 -152ZM363 -120Q341 -120 325 -104.5Q309 -89 309 -66.5Q309 -44 325 -28.5Q341 -13 363 -13Q385 -13 400.5 -28.5Q416 -44 416 -66.5Q416 -89 400.5 -104.5Q385 -120 363 -120ZM384 -384H85Q68 -384 55.5 -371.5Q43 -359 43 -341V-85Q43 -68 55.5 -55.5Q68 -43 85 -43H201Q196 -52 192 -64Q196 -76 201 -85H85V-171H213V-107Q231 -134 256 -154V-171H281Q319 -192 363 -192Q396 -192 427 -179V-341Q427 -359 414.5 -371.5Q402 -384 384 -384ZM213 -213H85V-299H213ZM384 -213H256V-299H384Z"/>
</svg>