<svg xmlns="http://www.w3.org/2000/svg" viewBox="0 -512 512 512">
	<path fill="#000000" d="M384 -139Q419 -139 444 -114L469 -139V-53H384L422 -91Q406 -107 384 -107Q362 -107 346.5 -91Q331 -75 331 -53Q331 -31 346.5 -15.5Q362 0 384 0Q397 0 408 -5.5Q419 -11 427 -21H463Q454 3 432.5 17.5Q411 32 384 32Q349 32 324 7Q299 -18 299 -53.5Q299 -89 324 -114Q349 -139 384 -139ZM85 -384H384Q402 -384 414.5 -371.5Q427 -359 427 -341V-188Q410 -192 395 -192Q355 -192 321 -171H256V-85H260Q256 -69 256 -53V-43H85Q68 -43 55.5 -55.5Q43 -68 43 -85V-341Q43 -359 55.5 -371.5Q68 -384 85 -384ZM85 -299V-213H213V-299ZM256 -299V-213H384V-299ZM85 -171V-85H213V-171Z"/>
</svg>