<svg xmlns="http://www.w3.org/2000/svg" viewBox="0 -512 512 512">
	<path fill="#000000" d="M64 -384H363Q380 -384 392.5 -371.5Q405 -359 405 -341V-190Q381 -194 357 -189Q333 -184 313 -171H235V-85H258Q254 -64 258 -43H64Q46 -43 33.5 -55.5Q21 -68 21 -85V-341Q21 -359 33.5 -371.5Q46 -384 64 -384ZM64 -299V-213H192V-299ZM235 -299V-213H363V-299ZM64 -171V-85H192V-171ZM486 -36L463 -53L464 -64Q464 -70 463 -75L486 -92Q489 -95 487 -99L466 -136Q464 -139 459 -139L433 -128H432Q421 -136 415 -138L410 -166Q410 -171 405 -171H363Q358 -171 357 -166L353 -138Q344 -134 335 -128L309 -139Q304 -139 302 -136L281 -99Q279 -95 282 -92L305 -75Q304 -69 304 -64Q304 -59 305 -53L282 -36Q279 -33 281 -29L302 8Q303 11 309 11L335 0Q345 7 353 10L357 38Q358 43 363 43H405Q410 43 411 38L415 10Q422 7 433 0L459 11Q464 11 466 8L487 -29Q489 -33 486 -36ZM384 -32Q371 -32 361.5 -41.5Q352 -51 352 -64Q352 -77 361.5 -86.5Q371 -96 384 -96Q397 -96 406.5 -86.5Q416 -77 416 -64Q416 -51 406.5 -41.5Q397 -32 384 -32Z"/>
</svg>