<svg xmlns="http://www.w3.org/2000/svg" viewBox="0 -512 512 512">
	<path fill="#000000" d="M21 -320V-43Q21 -25 33.5 -12.5Q46 0 64 0H192V-213H448V-320Q448 -338 435.5 -350.5Q423 -363 405 -363H64Q46 -363 33.5 -350.5Q21 -338 21 -320ZM64 -320H149V-256H64ZM149 -43H64V-107H149ZM149 -149H64V-213H149ZM192 -256V-320H277V-256ZM405 -256H320V-320H405ZM363 -107Q372 -107 378 -100.5Q384 -94 384 -85Q384 -76 378 -70Q372 -64 363 -64Q354 -64 347.5 -70Q341 -76 341 -85Q341 -94 347.5 -100.5Q354 -107 363 -107ZM363 -171Q405 -171 440 -147.5Q475 -124 491 -85Q475 -47 440 -23.5Q405 0 363 0Q321 0 286 -23.5Q251 -47 235 -85Q251 -124 286 -147.5Q321 -171 363 -171ZM363 -139Q341 -139 325 -123Q309 -107 309 -85Q309 -63 325 -47.5Q341 -32 363 -32Q385 -32 400.5 -47.5Q416 -63 416 -85Q416 -107 400.5 -123Q385 -139 363 -139Z"/>
</svg>