<svg xmlns="http://www.w3.org/2000/svg" viewBox="0 -512 512 512">
	<path fill="#000000" d="M405 -192V-160Q441 -160 466 -135Q491 -110 491 -75Q491 -48 476 -28L453 -51Q459 -62 459 -75Q459 -97 443 -112.5Q427 -128 405 -128V-96L357 -144ZM405 43V11Q370 11 345 -14Q320 -39 320 -75Q320 -100 334 -122L358 -99Q352 -87 352 -75Q352 -53 367.5 -37Q383 -21 405 -21V-53L453 -5ZM85 -384H384Q402 -384 414.5 -371.5Q427 -359 427 -341V-213H416Q387 -213 361 -202Q335 -191 316 -171H256V-85H277V-75Q277 -59 281 -43H85Q68 -43 55.5 -55.5Q43 -68 43 -85V-341Q43 -359 55.5 -371.5Q68 -384 85 -384ZM85 -299V-213H213V-299ZM256 -299V-213H384V-299ZM85 -171V-85H213V-171Z"/>
</svg>