<svg xmlns="http://www.w3.org/2000/svg" viewBox="0 -512 512 512">
	<path fill="#000000" d="M320 -21Q320 -30 313.5 -36.5Q307 -43 299 -43H277V-85H405Q423 -85 435.5 -97.5Q448 -110 448 -128V-384Q448 -402 435.5 -414.5Q423 -427 405 -427H107Q89 -427 76.5 -414.5Q64 -402 64 -384V-128Q64 -110 76.5 -97.5Q89 -85 107 -85H235V-43H213Q205 -43 198.5 -36.5Q192 -30 192 -21H43V21H192Q192 30 198.5 36.5Q205 43 213 43H299Q307 43 313.5 36.5Q320 30 320 21H469V-21ZM277 -341H405V-256H277ZM277 -213H405V-128H277ZM107 -341H235V-256H107ZM107 -128V-213H235V-128Z"/>
</svg>