<svg xmlns="http://www.w3.org/2000/svg" viewBox="0 -512 512 512">
	<path fill="#000000" d="M85 -384H384Q402 -384 414.5 -371.5Q427 -359 427 -341V-190Q402 -194 378.5 -189Q355 -184 335 -171H256V-85H279Q276 -64 279 -43H85Q68 -43 55.5 -55.5Q43 -68 43 -85V-341Q43 -359 55.5 -371.5Q68 -384 85 -384ZM85 -299V-213H213V-299ZM256 -299V-213H384V-299ZM85 -171V-85H213V-171ZM491 21V0Q491 -19 459 -32Q432 -43 405.5 -43Q379 -43 352 -32Q320 -19 320 0V21ZM405 -149Q388 -149 375.5 -136.5Q363 -124 363 -106.5Q363 -89 375.5 -76.5Q388 -64 405.5 -64Q423 -64 435.5 -76.5Q448 -89 448 -106.5Q448 -124 435.5 -136.5Q423 -149 405 -149Z"/>
</svg>