<svg xmlns="http://www.w3.org/2000/svg" viewBox="0 -512 512 512">
	<path fill="#000000" d="M405 -64H107Q71 -64 46 -89Q21 -114 21 -149Q21 -196 44 -235Q67 -274 106.5 -297Q146 -320 192 -320Q225 -320 256 -308Q287 -320 320 -320Q366 -320 405.5 -297Q445 -274 468 -235Q491 -196 491 -149Q491 -114 466 -89Q441 -64 405 -64ZM64 -149Q64 -132 76.5 -119.5Q89 -107 106.5 -107Q124 -107 136.5 -119.5Q149 -132 149 -149Q149 -187 164.5 -220Q180 -253 206 -276L192 -277Q167 -277 143 -267.5Q119 -258 101 -240Q83 -222 73.5 -198.5Q64 -175 64 -149ZM405 -107Q423 -107 435.5 -119.5Q448 -132 448 -149Q448 -175 438.5 -198.5Q429 -222 411 -240Q393 -258 369 -267.5Q345 -277 320 -277Q295 -277 271 -267.5Q247 -258 229 -240Q211 -222 201.5 -198.5Q192 -175 192 -149Q192 -126 180 -107Z"/>
</svg>