<svg xmlns="http://www.w3.org/2000/svg" viewBox="0 -512 512 512">
	<path fill="#000000" d="M139 -235Q151 -235 161 -244.5Q171 -254 171 -266.5Q171 -279 161 -289Q151 -299 138.5 -299Q126 -299 116.5 -289Q107 -279 107 -266.5Q107 -254 116.5 -244.5Q126 -235 139 -235ZM192 -320L341 -171L235 -64L85 -213V-320ZM192 -363H85Q68 -363 55.5 -350.5Q43 -338 43 -320V-213Q43 -193 55 -183L205 -34Q214 -21 234.5 -21Q255 -21 265 -34L371 -141Q384 -154 384 -171Q384 -191 371 -201L222 -350Q212 -363 192 -363ZM288 -326L309 -348L457 -201Q469 -188 469 -171Q469 -162 466 -153.5Q463 -145 457 -141L341 -26L320 -47L442 -171Z"/>
</svg>