<svg xmlns="http://www.w3.org/2000/svg" viewBox="0 -512 512 512">
	<path fill="#000000" d="M457 -201L265 -393Q252 -405 235 -405H85Q68 -405 55.5 -392.5Q43 -380 43 -363V-213Q43 -195 55 -183L247 9Q260 21 277.5 21Q295 21 307 9L316 0Q282 -1 253.5 -18.5Q225 -36 208.5 -65Q192 -94 192 -128.5Q192 -163 209 -192.5Q226 -222 255.5 -239Q285 -256 319.5 -256Q354 -256 383 -239.5Q412 -223 429.5 -194.5Q447 -166 448 -132L457 -141Q469 -153 469 -170.5Q469 -188 457 -201ZM117 -299Q104 -299 94.5 -308Q85 -317 85 -330.5Q85 -344 94.5 -353.5Q104 -363 117.5 -363Q131 -363 140 -353.5Q149 -344 149 -330.5Q149 -317 140 -308Q131 -299 117 -299ZM322 -222Q362 -222 390 -194Q418 -166 418 -126Q418 -97 404 -75L469 -8L440 21L373 -44Q350 -30 322 -30Q282 -30 254 -58Q226 -86 226 -126Q226 -166 254 -194Q282 -222 322 -222ZM322 -179Q300 -179 284.5 -163.5Q269 -148 269 -126Q269 -104 284.5 -88Q300 -72 322 -72Q344 -72 360 -87.5Q376 -103 376 -125.5Q376 -148 360.5 -163.5Q345 -179 322 -179Z"/>
</svg>