<svg xmlns="http://www.w3.org/2000/svg" viewBox="0 -512 512 512">
	<path fill="#000000" d="M457 -201L265 -393Q252 -405 235 -405H85Q68 -405 55.5 -392.5Q43 -380 43 -363V-213Q43 -196 55 -183L247 9Q260 21 277 21Q294 21 307 9L457 -141Q469 -154 469 -171Q469 -188 457 -201ZM277 -21L85 -213V-363H235L427 -171ZM139 -341Q151 -341 161 -331.5Q171 -322 171 -309.5Q171 -297 161 -287Q151 -277 138.5 -277Q126 -277 116.5 -287Q107 -297 107 -309.5Q107 -322 116.5 -331.5Q126 -341 139 -341ZM215 -258L245 -288L363 -171L333 -141ZM162 -205L192 -235L277 -149L247 -119Z"/>
</svg>