<svg xmlns="http://www.w3.org/2000/svg" viewBox="0 -512 512 512">
	<path fill="#000000" d="M139 -341Q125 -341 116 -332Q107 -323 107 -309.5Q107 -296 116 -286.5Q125 -277 138.5 -277Q152 -277 161.5 -286.5Q171 -296 171 -309.5Q171 -323 161.5 -332Q152 -341 139 -341ZM139 -341Q125 -341 116 -332Q107 -323 107 -309.5Q107 -296 116 -286.5Q125 -277 138.5 -277Q152 -277 161.5 -286.5Q171 -296 171 -309.5Q171 -323 161.5 -332Q152 -341 139 -341ZM457 -201L265 -393Q252 -405 235 -405H85Q68 -405 55.5 -392.5Q43 -380 43 -363V-213Q43 -196 55 -183L64 -175Q85 -187 108 -190L85 -213V-363H235L427 -171L277 -21L254 -44Q251 -21 239 0L247 9Q260 21 277.5 21Q295 21 307 9L457 -141Q469 -153 469 -170.5Q469 -188 457 -201ZM139 -341Q125 -341 116 -332Q107 -323 107 -309.5Q107 -296 116 -286.5Q125 -277 138.5 -277Q152 -277 161.5 -286.5Q171 -296 171 -309.5Q171 -323 161.5 -332Q152 -341 139 -341ZM213 -43H43V-85H213Z"/>
</svg>