<svg xmlns="http://www.w3.org/2000/svg" viewBox="0 -512 512 512">
	<path fill="#000000" d="M457 -201L265 -393Q252 -405 235 -405H85Q68 -405 55.5 -392.5Q43 -380 43 -363V-213Q43 -196 55 -183L247 9Q260 21 277.5 21Q295 21 307 9L457 -141Q469 -153 469 -170.5Q469 -188 457 -201ZM139 -277Q125 -277 116 -286.5Q107 -296 107 -309.5Q107 -323 116 -332Q125 -341 138.5 -341Q152 -341 161.5 -332Q171 -323 171 -309.5Q171 -296 161.5 -286.5Q152 -277 139 -277ZM247 -119L162 -205L192 -235L277 -149ZM333 -141L215 -258L245 -288L363 -171Z"/>
</svg>