<svg xmlns="http://www.w3.org/2000/svg" viewBox="0 -512 512 512">
	<path fill="#000000" d="M457 -201L265 -393Q252 -405 235 -405H85Q68 -405 55.5 -392.5Q43 -380 43 -363V-213Q43 -196 55 -183L64 -175Q93 -192 128 -192Q163 -192 192.5 -175Q222 -158 239 -128.5Q256 -99 256 -64Q256 -29 239 0L247 9Q260 21 277.5 21Q295 21 307 9L457 -141Q469 -153 469 -170.5Q469 -188 457 -201ZM117 -299Q104 -299 94.5 -308Q85 -317 85 -330.5Q85 -344 94.5 -353.5Q104 -363 117.5 -363Q131 -363 140 -353.5Q149 -344 149 -330.5Q149 -317 140 -308Q131 -299 117 -299ZM128 -85H43V-43H128V0L192 -64L128 -128Z"/>
</svg>