<svg xmlns="http://www.w3.org/2000/svg" viewBox="0 -512 512 512">
	<path fill="#000000" d="M457 -201L265 -393Q252 -405 235 -405H85Q68 -405 55.5 -392.5Q43 -380 43 -363V-213Q43 -205 46 -197Q49 -189 55 -183L97 -141L128 -171L85 -213V-363H235L427 -171L277 -21L232 -67L228 -63L202 -37L247 9Q260 21 277.5 21Q295 21 307 9L457 -141Q469 -153 469 -171Q469 -178 466 -186.5Q463 -195 457 -201ZM139 -341Q148 -341 156 -336Q164 -331 168 -322Q172 -313 170 -303Q168 -293 161.5 -286.5Q155 -280 145 -278Q135 -276 126 -280Q117 -284 112 -292Q107 -300 107 -309Q107 -323 116 -332Q125 -341 139 -341ZM228 -121L250 -142Q253 -145 253 -150Q253 -155 250 -158L222 -186Q219 -189 214 -189Q209 -189 206 -186L185 -164ZM172 -152L43 -23V21H87L216 -108Z"/>
</svg>