<svg xmlns="http://www.w3.org/2000/svg" viewBox="0 -512 512 512">
	<path fill="#000000" d="M85 -405Q68 -405 55.5 -392.5Q43 -380 43 -363V-213Q43 -196 55 -183L247 9Q260 21 277.5 21Q295 21 307 9L457 -141Q469 -153 469 -170.5Q469 -188 457 -201L265 -393Q252 -405 235 -405ZM235 -363L427 -171L277 -21L85 -213V-363ZM139 -341Q125 -341 116 -332Q107 -323 107 -309.5Q107 -296 116 -286.5Q125 -277 138.5 -277Q152 -277 161.5 -286.5Q171 -296 171 -309.5Q171 -323 161.5 -332Q152 -341 139 -341ZM234 -224Q216 -224 203 -211Q190 -198 190 -180Q190 -162 203 -149L277 -75L352 -149Q365 -162 365 -180Q365 -198 352 -211Q339 -224 321 -224Q303 -224 290 -211L277 -198L265 -211Q252 -224 234 -224Z"/>
</svg>