<svg xmlns="http://www.w3.org/2000/svg" viewBox="0 -512 512 512">
	<path fill="#000000" d="M320 -64Q285 -64 255.5 -81Q226 -98 209 -127.5Q192 -157 192 -192Q192 -227 209 -256.5Q226 -286 255.5 -303Q285 -320 320 -320Q355 -320 384.5 -303Q414 -286 431 -256.5Q448 -227 448 -192Q448 -157 431 -127.5Q414 -98 384.5 -81Q355 -64 320 -64ZM85 -171Q76 -171 70 -177Q64 -183 64 -192Q64 -201 70 -207Q76 -213 85 -213Q94 -213 100.5 -207Q107 -201 107 -192Q107 -183 100.5 -177Q94 -171 85 -171ZM469 -384H163Q141 -384 128 -367L0 -192L128 -17Q141 0 163 0H469Q487 0 499.5 -12.5Q512 -25 512 -43V-341Q512 -359 499.5 -371.5Q487 -384 469 -384ZM277 -213Q286 -213 292.5 -219.5Q299 -226 299 -235Q299 -244 292.5 -250Q286 -256 277 -256Q268 -256 262 -250Q256 -244 256 -235Q256 -226 262 -219.5Q268 -213 277 -213ZM320 -107Q349 -107 371.5 -125Q394 -143 401 -171H239Q246 -143 268.5 -125Q291 -107 320 -107ZM363 -213Q372 -213 378 -219.5Q384 -226 384 -235Q384 -244 378 -250Q372 -256 363 -256Q354 -256 347.5 -250Q341 -244 341 -235Q341 -226 347.5 -219.5Q354 -213 363 -213Z"/>
</svg>