<svg xmlns="http://www.w3.org/2000/svg" viewBox="0 -512 512 512">
	<path fill="#000000" d="M117 -256Q131 -256 140 -265.5Q149 -275 149 -288Q149 -301 140 -310.5Q131 -320 117.5 -320Q104 -320 94.5 -310.5Q85 -301 85 -288Q85 -275 94.5 -265.5Q104 -256 117 -256ZM371 -201Q384 -188 384 -170.5Q384 -153 371 -141L265 -34Q252 -21 234.5 -21Q217 -21 204 -34L55 -183Q43 -196 43 -213V-320Q43 -338 55.5 -350.5Q68 -363 85 -363H192Q210 -363 222 -350ZM289 -326L310 -348L457 -201Q469 -189 469 -171Q469 -153 457 -141L342 -26L321 -47L443 -171Z"/>
</svg>