<svg xmlns="http://www.w3.org/2000/svg" viewBox="0 -512 512 512">
	<path fill="#000000" d="M457 -201L265 -393Q252 -405 235 -405H85Q68 -405 55.5 -392.5Q43 -380 43 -363V-213Q43 -196 55 -183L247 9Q260 21 277.5 21Q295 21 307 9L457 -141Q469 -153 469 -170.5Q469 -188 457 -201ZM117 -299Q104 -299 94.5 -308Q85 -317 85 -330.5Q85 -344 94.5 -353.5Q104 -363 117.5 -363Q131 -363 140 -353.5Q149 -344 149 -330.5Q149 -317 140 -308Q131 -299 117 -299ZM368 -122L277 -31L186 -122Q171 -138 171 -160Q171 -182 186.5 -197.5Q202 -213 224 -213Q246 -213 262 -198L277 -182L293 -198Q308 -213 330.5 -213Q353 -213 368.5 -197.5Q384 -182 384 -160Q384 -138 368 -122Z"/>
</svg>