<svg xmlns="http://www.w3.org/2000/svg" viewBox="0 -512 512 512">
	<path fill="#000000" d="M291 -367L265 -393Q252 -405 235 -405H213V-363H235L261 -336ZM276 -321L306 -352L351 -306L321 -276ZM85 -213L112 -187L81 -157L55 -183Q49 -189 46 -197Q43 -205 43 -213V-235H85ZM96 -142L127 -172L172 -127L142 -97ZM202 -36L157 -81L187 -112L232 -67ZM336 -261L381 -216L412 -246L367 -291ZM397 -201L427 -231L457 -201Q463 -195 466 -186.5Q469 -178 469 -171Q469 -153 457 -141ZM442 -125L412 -156L359 -103L390 -73ZM345 -89L375 -58L323 -6L292 -36ZM307 9L247 -51L217 -21L247 9Q260 21 277.5 21Q295 21 307 9ZM85 -256H43V-320H85ZM43 -341H85V-363H107V-405H85Q68 -405 55.5 -392.5Q43 -380 43 -363ZM128 -363V-405H192V-363ZM139 -277Q152 -277 161.5 -286.5Q171 -296 171 -309.5Q171 -323 161.5 -332Q152 -341 138.5 -341Q125 -341 116 -332Q107 -323 107 -309.5Q107 -296 116 -286.5Q125 -277 139 -277Z"/>
</svg>