<svg xmlns="http://www.w3.org/2000/svg" viewBox="0 -512 512 512">
	<path fill="#000000" d="M265 -393L457 -201Q469 -188 469 -170.5Q469 -153 457 -141L307 9Q295 21 277.5 21Q260 21 247 9L202 -37L228 -63L280 -115Q296 -131 296 -153.5Q296 -176 280 -192L252 -219Q237 -235 214.5 -235Q192 -235 176 -219L97 -141L55 -183Q43 -195 43 -213V-363Q43 -380 55.5 -392.5Q68 -405 85 -405H235Q252 -405 265 -393ZM95 -308Q104 -299 117.5 -299Q131 -299 140 -308Q149 -317 149 -330.5Q149 -344 140 -353.5Q131 -363 117.5 -363Q104 -363 94.5 -353.5Q85 -344 85 -330.5Q85 -317 95 -308ZM228 -121L250 -142Q253 -145 253 -150Q253 -155 250 -158L222 -186Q219 -189 214 -189Q209 -189 206 -186L185 -164ZM172 -152L43 -23V21H87L216 -108Z"/>
</svg>