<svg xmlns="http://www.w3.org/2000/svg" viewBox="0 -512 512 512">
	<path fill="#000000" d="M427 -192H85V-213H128L149 -320H256L277 -213H427ZM282 -299L291 -256H469V-299ZM469 -107Q469 -80 450.5 -61.5Q432 -43 405 -43H107Q80 -43 61.5 -61.5Q43 -80 43 -106.5Q43 -133 61.5 -152Q80 -171 107 -171H405Q432 -171 450.5 -152Q469 -133 469 -107ZM128 -107Q128 -116 122 -122Q116 -128 107 -128Q98 -128 91.5 -122Q85 -116 85 -107Q85 -98 91.5 -91.5Q98 -85 107 -85Q116 -85 122 -91.5Q128 -98 128 -107ZM277 -107Q277 -116 271 -122Q265 -128 256 -128Q247 -128 241 -122Q235 -116 235 -107Q235 -98 241 -91.5Q247 -85 256 -85Q265 -85 271 -91.5Q277 -98 277 -107ZM427 -107Q427 -116 420.5 -122Q414 -128 405 -128Q396 -128 390 -122Q384 -116 384 -107Q384 -98 390 -91.5Q396 -85 405 -85Q414 -85 420.5 -91.5Q427 -98 427 -107Z"/>
</svg>