<svg xmlns="http://www.w3.org/2000/svg" viewBox="0 -512 512 512">
	<path fill="#000000" d="M427 -277H320V-149H43V-85H64Q64 -58 82.5 -39.5Q101 -21 128 -21Q155 -21 173.5 -39.5Q192 -58 192 -85H320Q320 -58 338.5 -39.5Q357 -21 384 -21Q411 -21 429.5 -39.5Q448 -58 448 -85H491V-192ZM128 -53Q115 -53 105.5 -63Q96 -73 96 -85.5Q96 -98 105.5 -107.5Q115 -117 128 -117Q141 -117 150.5 -107.5Q160 -98 160 -85.5Q160 -73 150.5 -63Q141 -53 128 -53ZM384 -53Q371 -53 361.5 -63Q352 -73 352 -85.5Q352 -98 361.5 -107.5Q371 -117 384 -117Q397 -117 406.5 -107.5Q416 -98 416 -85.5Q416 -73 406.5 -63Q397 -53 384 -53ZM363 -192V-245H416L459 -192ZM299 -245Q299 -215 276.5 -193Q254 -171 224 -171H96Q66 -171 43.5 -193Q21 -215 21 -245.5Q21 -276 43.5 -298Q66 -320 96 -320H107V-341H85V-363H171V-341H149V-320H224Q254 -320 276.5 -298Q299 -276 299 -245Z"/>
</svg>