<svg xmlns="http://www.w3.org/2000/svg" viewBox="0 -512 512 512">
	<path fill="#000000" d="M256 -235Q274 -235 286.5 -222.5Q299 -210 299 -192Q299 -174 286.5 -161.5Q274 -149 256 -149Q238 -149 225.5 -161.5Q213 -174 213 -192Q213 -210 225.5 -222.5Q238 -235 256 -235ZM107 -384H405Q423 -384 435.5 -371.5Q448 -359 448 -341V-85H361Q382 -106 393.5 -133.5Q405 -161 405 -192Q405 -233 385 -267Q365 -301 331 -321Q297 -341 256 -341Q215 -341 181 -321Q147 -301 127 -267Q107 -233 107 -192Q107 -151 127 -117Q147 -83 181 -63Q215 -43 256 -43H448Q448 -25 435.5 -12.5Q423 0 405 0H107Q89 0 76.5 -12.5Q64 -25 64 -43V-341Q64 -359 76.5 -371.5Q89 -384 107 -384Z"/>
</svg>