<svg xmlns="http://www.w3.org/2000/svg" viewBox="0 -512 512 512">
	<path fill="#000000" d="M235 -405V-361Q177 -354 135.5 -312.5Q94 -271 87 -213H43V-171H87Q94 -113 135.5 -71.5Q177 -30 235 -23V21H277V-23Q335 -30 376.5 -71.5Q418 -113 425 -171H469V-213H425Q418 -271 376.5 -312.5Q335 -354 277 -361V-405ZM235 -318V-277H277V-318Q317 -312 346.5 -282.5Q376 -253 382 -213H341V-171H382Q376 -131 346.5 -101.5Q317 -72 277 -66V-107H235V-66Q195 -72 165.5 -101.5Q136 -131 130 -171H171V-213H130Q136 -253 165.5 -282.5Q195 -312 235 -318ZM256 -213Q247 -213 241 -207Q235 -201 235 -192Q235 -183 241 -177Q247 -171 256 -171Q265 -171 271 -177Q277 -183 277 -192Q277 -201 271 -207Q265 -213 256 -213Z"/>
</svg>