<svg xmlns="http://www.w3.org/2000/svg" viewBox="0 -512 512 512">
	<path fill="#000000" d="M447 -213H480V-171H447Q442 -127 418.5 -90Q395 -53 358 -29.5Q321 -6 277 -1V32H235V-1Q191 -6 154 -29.5Q117 -53 93.5 -90Q70 -127 65 -171H32V-213H65Q70 -257 93.5 -294Q117 -331 154 -354.5Q191 -378 235 -383V-416H277V-383Q321 -378 358 -354.5Q395 -331 418.5 -294Q442 -257 447 -213ZM108 -213H139V-171H108Q115 -122 150.5 -86.5Q186 -51 235 -44V-75H277V-44Q326 -51 361.5 -86.5Q397 -122 404 -171H373V-213H404Q397 -262 361.5 -297.5Q326 -333 277 -340V-309H235V-340Q186 -333 150.5 -297.5Q115 -262 108 -213ZM341 -107H171V-128Q171 -147 203 -160Q229 -171 256 -171Q283 -171 309 -160Q341 -147 341 -128ZM256 -277Q274 -277 286.5 -264.5Q299 -252 299 -234.5Q299 -217 286.5 -204.5Q274 -192 256 -192Q238 -192 225.5 -204.5Q213 -217 213 -234.5Q213 -252 225.5 -264.5Q238 -277 256 -277Z"/>
</svg>