<svg xmlns="http://www.w3.org/2000/svg" viewBox="0 -512 512 512">
	<path fill="#000000" d="M85 -43H427V0H85ZM457 -371Q444 -384 427 -384H85V-171Q85 -137 111 -111Q137 -85 171 -85H299Q333 -85 358.5 -111Q384 -137 384 -171V-235H427Q444 -235 456.5 -247.5Q469 -260 469 -277V-341Q469 -358 457 -371ZM341 -341V-277V-171Q341 -154 328.5 -141Q316 -128 299 -128H171Q154 -128 141 -141Q128 -154 128 -171V-341H213V-311L175 -282Q171 -279 171 -273V-181Q171 -177 174 -174Q177 -171 181 -171H267Q271 -171 274 -174Q277 -177 277 -181V-273Q277 -277 273 -282L235 -311V-341ZM427 -277H384V-341H427Z"/>
</svg>