<svg xmlns="http://www.w3.org/2000/svg" viewBox="0 -512 512 512">
	<path fill="#000000" d="M214 -252L198 -213H315L299 -252L417 -192L299 -132L315 -171H198L214 -132L96 -192ZM444 21H68Q57 21 50 14Q43 7 43 -4V-380Q43 -391 50 -398Q57 -405 68 -405H444Q455 -405 462 -398Q469 -391 469 -380V-4Q469 7 462 14Q455 21 444 21ZM255 -368Q207 -367 167 -343.5Q127 -320 103.5 -279.5Q80 -239 80 -192Q80 -145 103 -104.5Q126 -64 166 -40.5Q206 -17 253 -16H256Q304 -17 344 -40.5Q384 -64 407.5 -104Q431 -144 432 -191.5Q433 -239 410 -279Q387 -319 348 -343Q309 -367 262 -368Z"/>
</svg>