<svg xmlns="http://www.w3.org/2000/svg" viewBox="0 -512 512 512">
	<path fill="#000000" d="M43 -336L70 -363L448 15L421 43L378 0H85Q68 0 55.5 -12.5Q43 -25 43 -43V-256Q43 -272 53.5 -284Q64 -296 80 -299ZM174 -384L256 -302L338 -384L368 -354L313 -299H427Q444 -299 456.5 -286.5Q469 -274 469 -256V-43Q469 -32 464 -23L363 -124V-256H231L188 -299H199L144 -354ZM85 -256V-43H336L122 -256ZM416 -256Q407 -256 401 -250Q395 -244 395 -235Q395 -226 401 -219.5Q407 -213 416 -213Q425 -213 431 -219.5Q437 -226 437 -235Q437 -244 431 -250Q425 -256 416 -256ZM416 -192Q407 -192 401 -186Q395 -180 395 -171Q395 -162 401 -155.5Q407 -149 416 -149Q425 -149 431 -155.5Q437 -162 437 -171Q437 -180 431 -186Q425 -192 416 -192Z"/>
</svg>