<svg xmlns="http://www.w3.org/2000/svg" viewBox="0 -512 512 512">
	<path fill="#000000" d="M174 -384L144 -354L199 -299H85Q68 -299 55.5 -286.5Q43 -274 43 -256V-43Q43 -25 55.5 -12.5Q68 0 85 0H427Q444 0 456.5 -12.5Q469 -25 469 -43V-256Q469 -274 456.5 -286.5Q444 -299 427 -299H313L368 -354L338 -384L256 -302ZM85 -256H363V-43H85ZM416 -256Q425 -256 431 -250Q437 -244 437 -235Q437 -226 431 -219.5Q425 -213 416 -213Q407 -213 401 -219.5Q395 -226 395 -235Q395 -244 401 -250Q407 -256 416 -256ZM416 -192Q425 -192 431 -186Q437 -180 437 -171Q437 -162 431 -155.5Q425 -149 416 -149Q407 -149 401 -155.5Q395 -162 395 -171Q395 -180 401 -186Q407 -192 416 -192Z"/>
</svg>