<svg xmlns="http://www.w3.org/2000/svg" viewBox="0 -512 512 512">
	<path fill="#000000" d="M64 -213H0V-256H64ZM64 -149H0V-107H64ZM107 -339L61 -384L31 -354L77 -308ZM213 -341V-405H171V-341ZM512 -256H448V-213H512ZM341 -341V-405H299V-341ZM435 -308L481 -354L451 -384L405 -339ZM512 -149H448V-107H512ZM405 -256V-107Q405 -89 392.5 -76.5Q380 -64 363 -64H320V-21H192V-64H149Q132 -64 119.5 -76.5Q107 -89 107 -107V-256Q107 -274 119.5 -286.5Q132 -299 149 -299H363Q380 -299 392.5 -286.5Q405 -274 405 -256ZM363 -256H149V-107H363ZM405 -24L451 21L481 -9L435 -54ZM77 -54L31 -9L61 21L107 -24Z"/>
</svg>