<svg xmlns="http://www.w3.org/2000/svg" viewBox="0 -512 512 512">
	<path fill="#000000" d="M64 -384Q46 -384 33.5 -371.5Q21 -359 21 -341V-85Q21 -68 33.5 -55.5Q46 -43 64 -43H171V0H256V-85H64V-341H448V-299H491V-341Q491 -359 478.5 -371.5Q466 -384 448 -384ZM448 -256H341Q324 -256 311.5 -243.5Q299 -231 299 -213V-21Q299 -4 311.5 8.5Q324 21 341 21H448Q466 21 478.5 8.5Q491 -4 491 -21V-213Q491 -231 478.5 -243.5Q466 -256 448 -256ZM395 -224Q407 -224 417 -214.5Q427 -205 427 -192Q427 -179 417 -169.5Q407 -160 394.5 -160Q382 -160 372.5 -169.5Q363 -179 363 -192Q363 -205 372.5 -214.5Q382 -224 395 -224ZM395 -11Q367 -11 349 -29Q331 -47 331 -73.5Q331 -100 349 -119.5Q367 -139 393 -139H395Q422 -139 440.5 -120.5Q459 -102 459 -74.5Q459 -47 440.5 -29Q422 -11 395 -11ZM395 -107Q382 -107 372.5 -97Q363 -87 363 -74.5Q363 -62 372.5 -52.5Q382 -43 394.5 -43Q407 -43 417 -52.5Q427 -62 427 -74.5Q427 -87 417 -97Q407 -107 395 -107Z"/>
</svg>