<svg xmlns="http://www.w3.org/2000/svg" viewBox="0 -512 512 512">
	<path fill="#000000" d="M352 -341Q401 -341 441 -314L417 -252Q389 -277 352 -277Q312 -277 284 -249Q256 -221 256 -181Q256 -141 284 -113Q312 -85 352 -85Q385 -85 410 -105L435 -44Q397 -21 353 -21Q309 -21 272 -42.5Q235 -64 213.5 -101Q192 -138 192 -181Q192 -213 204 -242.5Q216 -272 238.5 -294.5Q261 -317 290.5 -329Q320 -341 352 -341ZM128 -384Q155 -384 173.5 -365.5Q192 -347 192 -320Q192 -293 173.5 -274.5Q155 -256 128 -256Q101 -256 82.5 -274.5Q64 -293 64 -320Q64 -347 82.5 -365.5Q101 -384 128 -384ZM128 -341Q119 -341 113 -335Q107 -329 107 -320Q107 -311 113 -305Q119 -299 128 -299Q137 -299 143 -305Q149 -311 149 -320Q149 -329 143 -335Q137 -341 128 -341Z"/>
</svg>