<svg xmlns="http://www.w3.org/2000/svg" viewBox="0 -512 512 512">
	<path fill="#000000" d="M384 -128Q419 -128 444 -103Q469 -78 469 -42.5Q469 -7 444 18Q419 43 384 43Q349 43 324 18Q299 -7 299 -42.5Q299 -78 324 -103Q349 -128 384 -128ZM384 -85Q366 -85 353.5 -72.5Q341 -60 341 -42.5Q341 -25 353.5 -12.5Q366 0 384 0Q402 0 414.5 -12.5Q427 -25 427 -42.5Q427 -60 414.5 -72.5Q402 -85 384 -85ZM129 -138Q133 -143 137 -148Q146 -161 151 -178Q159 -202 159 -228Q153 -264 167 -302.5Q181 -341 212 -371.5Q243 -402 281 -416Q319 -430 355 -424.5Q391 -419 415.5 -394.5Q440 -370 445.5 -334Q451 -298 437.5 -259.5Q424 -221 393 -190.5Q362 -160 323.5 -146Q285 -132 250 -138Q223 -138 199 -130Q183 -124 169 -116L159 -108L69 -17L39 -47ZM385 -364Q369 -381 344 -383.5Q319 -386 292 -375Q265 -364 242.5 -341.5Q220 -319 209 -292Q198 -265 200.5 -240Q203 -215 219.5 -198.5Q236 -182 261 -179Q286 -176 313 -187Q340 -198 362.5 -220.5Q385 -243 396 -270.5Q407 -298 404.5 -323Q402 -348 385 -364Z"/>
</svg>