<svg xmlns="http://www.w3.org/2000/svg" viewBox="0 -512 512 512">
	<path fill="#000000" d="M174 -389Q214 -405 256 -405Q298 -405 337.5 -389Q377 -373 407 -343Q437 -313 453 -273.5Q469 -234 469 -192Q469 -150 453 -110.5Q437 -71 407 -41Q377 -11 337.5 5Q298 21 256 21Q214 21 174.5 5Q135 -11 105 -41Q75 -71 59 -110.5Q43 -150 43 -192Q43 -234 59 -273.5Q75 -313 105 -343Q135 -373 174 -389ZM147 -61Q170 -42 198 -31.5Q226 -21 256 -21Q286 -21 314 -31.5Q342 -42 365 -61Q343 -88 331.5 -122Q320 -156 320 -192Q320 -228 331.5 -261.5Q343 -295 365 -323Q342 -342 314 -352.5Q286 -363 256 -363Q226 -363 198 -352.5Q170 -342 147 -323Q169 -295 180.5 -261.5Q192 -228 192 -192Q192 -156 180.5 -122Q169 -88 147 -61ZM117 -92Q149 -137 149 -192Q149 -247 117 -291Q85 -247 85 -192Q85 -137 117 -92ZM395 -291Q363 -247 363 -192Q363 -137 395 -92Q427 -137 427 -192Q427 -247 395 -291Z"/>
</svg>