<svg xmlns="http://www.w3.org/2000/svg" viewBox="0 -512 512 512">
	<path fill="#000000" d="M192 -320V-277H43V-320ZM192 -213V-171H43V-213ZM384 -107V-64H43V-107ZM412 -203Q427 -225 427 -254Q427 -294 399 -322Q371 -350 331 -350Q291 -350 263 -322Q235 -294 235 -254Q235 -214 263 -186Q291 -158 331 -158Q358 -158 381 -172L448 -107L478 -136ZM331 -200Q309 -200 293 -215.5Q277 -231 277 -253.5Q277 -276 293 -291.5Q309 -307 331 -307Q353 -307 368.5 -291.5Q384 -276 384 -254Q384 -232 368.5 -216Q353 -200 331 -200Z"/>
</svg>