<svg xmlns="http://www.w3.org/2000/svg" viewBox="0 -512 512 512">
	<path fill="#000000" d="M213 -40L258 -85H149V-128H299V-125L344 -171H149V-213H363V-189L389 -216Q405 -232 428 -232Q438 -232 448 -228V-341Q448 -359 435.5 -371.5Q423 -384 405 -384H107Q89 -384 76.5 -371.5Q64 -359 64 -341V-43Q64 -25 76.5 -12.5Q89 0 107 0H213ZM149 -299H363V-256H149ZM463 -142L442 -121L398 -164L419 -186Q423 -189 427.5 -189Q432 -189 436 -186L463 -158Q466 -155 466 -150Q466 -145 463 -142ZM256 -23L385 -152L429 -108L300 21H256Z"/>
</svg>