<svg xmlns="http://www.w3.org/2000/svg" viewBox="0 -512 512 512">
	<path fill="#000000" d="M412 -45L478 21L448 51L381 -15Q358 0 331 0Q291 0 263 -28Q235 -56 235 -96Q235 -136 263 -164Q291 -192 331 -192Q371 -192 399 -164Q427 -136 427 -96Q427 -68 412 -45ZM331 -43Q353 -43 368.5 -58.5Q384 -74 384 -96Q384 -118 368.5 -133.5Q353 -149 331 -149Q309 -149 293 -133.5Q277 -118 277 -96Q277 -74 293 -58.5Q309 -43 331 -43ZM448 -363V-320H64V-363ZM64 -107V-149H192V-107ZM64 -213V-256H448V-213H405Q370 -235 330.5 -235Q291 -235 257 -213Z"/>
</svg>