<svg xmlns="http://www.w3.org/2000/svg" viewBox="0 -512 512 512">
	<path fill="#000000" d="M331 -192Q371 -192 399 -164Q427 -136 427 -96Q427 -68 412 -45L478 21L448 51L381 -15Q358 0 331 0Q291 0 263 -28Q235 -56 235 -96Q235 -136 263 -164Q291 -192 331 -192ZM331 -149Q309 -149 293 -133.5Q277 -118 277 -96Q277 -74 293 -58.5Q309 -43 331 -43Q353 -43 368.5 -58.5Q384 -74 384 -96Q384 -118 368.5 -133.5Q353 -149 331 -149ZM107 -384H405Q423 -384 435.5 -371.5Q448 -359 448 -341V-170Q432 -196 405 -213V-341H107V-43H203Q212 -19 231 0H107Q89 0 76.5 -12.5Q64 -25 64 -43V-341Q64 -359 76.5 -371.5Q89 -384 107 -384ZM149 -299H363V-256H149ZM149 -213H257Q231 -197 213 -171H149ZM149 -128H196Q192 -112 192 -96V-85H149Z"/>
</svg>