<svg xmlns="http://www.w3.org/2000/svg" viewBox="0 -512 512 512">
	<path fill="#000000" d="M85 -128H128Q146 -128 158.5 -115.5Q171 -103 171 -85V-43H192V-85Q192 -103 204.5 -115.5Q217 -128 235 -128H277Q295 -128 307.5 -115.5Q320 -103 320 -85V-43H341V-85Q341 -103 353.5 -115.5Q366 -128 384 -128H427Q444 -128 456.5 -115.5Q469 -103 469 -85V-43H491V21H21V-43H43V-85Q43 -103 55.5 -115.5Q68 -128 85 -128ZM235 -299L320 -235L235 -171ZM85 -405H427Q444 -405 456.5 -392.5Q469 -380 469 -363V-159Q450 -171 427 -171V-363H85V-171Q62 -171 43 -159V-363Q43 -380 55.5 -392.5Q68 -405 85 -405Z"/>
</svg>