<svg xmlns="http://www.w3.org/2000/svg" viewBox="0 -512 512 512">
	<path fill="#000000" d="M160 -405Q131 -387 113.5 -355.5Q96 -324 96 -288Q96 -252 113.5 -220.5Q131 -189 161 -171Q128 -171 101 -186.5Q74 -202 58.5 -229Q43 -256 43 -288Q43 -320 58.5 -347Q74 -374 101 -389.5Q128 -405 160 -405ZM407 -373L437 -343L105 -11L75 -41ZM275 -321L243 -341L213 -320L222 -356L192 -379L229 -381L242 -417L256 -382L293 -381L264 -357ZM205 -244L180 -260L156 -243L163 -272L140 -289L169 -291L179 -319L189 -292L218 -291L196 -272ZM405 -160Q405 -128 389.5 -101Q374 -74 347 -58.5Q320 -43 288 -43Q249 -43 218 -65L383 -230Q405 -199 405 -160ZM311 -20L371 -44L365 27ZM404 -77L428 -136L475 -82ZM428 -183L404 -242L475 -237ZM205 -44L265 -20L211 27Z"/>
</svg>