<svg xmlns="http://www.w3.org/2000/svg" viewBox="0 -512 512 512">
	<path fill="#000000" d="M256 -149Q247 -162 235 -171V-341Q235 -369 216.5 -387Q198 -405 170.5 -405Q143 -405 125 -387Q107 -369 107 -341V-171Q83 -153 72 -126.5Q61 -100 64.5 -72Q68 -44 85.5 -21Q103 2 129.5 13Q156 24 184 21Q212 18 235 0Q258 -18 269 -44Q280 -70 277 -98Q274 -126 256 -149ZM192 -277H149V-341Q149 -349 156 -356Q163 -363 171 -363Q179 -363 185.5 -356Q192 -349 192 -341ZM384 -384H341L273 -192H314L329 -235H397L412 -192H452ZM337 -262L363 -341L388 -262Z"/>
</svg>