<svg xmlns="http://www.w3.org/2000/svg" viewBox="0 -512 512 512">
	<path fill="#000000" d="M107 -384Q89 -384 76.5 -371.5Q64 -359 64 -341V-43Q64 -25 76.5 -12.5Q89 0 107 0H405Q423 0 435.5 -12.5Q448 -25 448 -43V-341Q448 -359 435.5 -371.5Q423 -384 405 -384ZM256 -341Q306 -341 345 -311L299 -265Q279 -277 256 -277Q221 -277 196 -252Q171 -227 171 -192Q171 -157 196 -132L150 -86Q130 -107 118.5 -134.5Q107 -162 107 -192Q107 -233 127 -267Q147 -301 181 -321Q215 -341 256 -341ZM375 -281Q405 -242 405 -192Q405 -162 393.5 -134.5Q382 -107 362 -86L316 -132Q341 -157 341 -192Q341 -215 329 -235Z"/>
</svg>