<svg xmlns="http://www.w3.org/2000/svg" viewBox="0 -512 512 512">
	<path fill="#000000" d="M363 -171V-299H405V-171ZM363 -85V-128H405V-85ZM277 -171V-341Q277 -369 259 -387Q241 -405 213.5 -405Q186 -405 167.5 -387Q149 -369 149 -341V-171Q126 -153 115 -126.5Q104 -100 107 -72Q110 -44 128 -21Q146 2 172 13Q198 24 226 21Q254 18 277.5 0Q301 -18 312 -44Q323 -70 319.5 -98Q316 -126 299 -149Q290 -162 277 -171ZM213 -363Q223 -363 229 -357Q235 -351 235 -341V-277H192V-341Q192 -351 198 -357Q204 -363 213 -363Z"/>
</svg>