<svg xmlns="http://www.w3.org/2000/svg" viewBox="0 -512 512 512">
	<path fill="#000000" d="M362 -86L316 -132Q341 -157 341 -192Q341 -215 329 -235L375 -281Q405 -242 405 -192Q405 -162 393.5 -134.5Q382 -107 362 -86ZM256 -341Q306 -341 345 -311L299 -265Q279 -277 256 -277Q221 -277 196 -252Q171 -227 171 -192Q171 -157 196 -132L150 -86Q130 -107 118.5 -134.5Q107 -162 107 -192Q107 -233 127 -267Q147 -301 181 -321Q215 -341 256 -341ZM256 -405Q214 -405 174.5 -389Q135 -373 105 -343Q75 -313 59 -273.5Q43 -234 43 -192Q43 -150 59 -110.5Q75 -71 105 -41Q135 -11 174.5 5Q214 21 256 21Q298 21 337.5 5Q377 -11 407 -41Q437 -71 453 -110.5Q469 -150 469 -192Q469 -250 440.5 -299Q412 -348 363 -376.5Q314 -405 256 -405Z"/>
</svg>