<svg xmlns="http://www.w3.org/2000/svg" viewBox="0 -512 512 512">
	<path fill="#000000" d="M427 -149H384L316 43H356L371 0H439L454 43H495ZM380 -28L405 -107L431 -28ZM329 -119L316 -132Q327 -144 334 -159.5Q341 -175 341 -192Q341 -215 329 -235L375 -282Q405 -242 405 -192H448V-341Q448 -359 435.5 -371.5Q423 -384 405 -384H107Q89 -384 76.5 -371.5Q64 -359 64 -341V-43Q64 -25 76.5 -12.5Q89 0 107 0H286ZM196 -132L149 -85Q107 -128 107 -192Q107 -233 127 -267Q147 -301 181 -321Q215 -341 256 -341Q306 -341 346 -311L299 -265Q279 -277 256 -277Q221 -277 196 -252Q171 -227 171 -192Q171 -175 178 -159.5Q185 -144 196 -132Z"/>
</svg>