<svg xmlns="http://www.w3.org/2000/svg" viewBox="0 -512 512 512">
	<path fill="#000000" d="M363 -384H448V-341H363ZM363 -299H448V-256H363ZM363 -213H448V-171H379L363 -190ZM448 -128V-85H405Q405 -107 399 -128ZM149 -384V-341H64V-384ZM149 -299V-256H64V-299ZM149 -213V-190L133 -171H64V-213ZM64 -128H113Q107 -107 107 -85H64ZM320 -171V-341Q320 -368 301.5 -386.5Q283 -405 256 -405Q229 -405 210.5 -386.5Q192 -368 192 -341V-171Q169 -153 158 -127Q147 -101 150 -73Q153 -45 170.5 -21.5Q188 2 214 13Q240 24 268.5 20.5Q297 17 320 0Q343 -17 354 -43.5Q365 -70 362 -98Q359 -126 341 -149Q332 -162 320 -171ZM256 -363Q265 -363 271 -356.5Q277 -350 277 -341V-277H235V-341Q235 -350 241 -356.5Q247 -363 256 -363Z"/>
</svg>