<svg xmlns="http://www.w3.org/2000/svg" viewBox="0 -512 512 512">
	<path fill="#000000" d="M235 -171V-341Q235 -368 216 -386.5Q197 -405 170.5 -405Q144 -405 125.5 -386.5Q107 -368 107 -341V-171Q83 -153 72 -127Q61 -101 64.5 -73Q68 -45 85.5 -21.5Q103 2 129 13Q155 24 183 20.5Q211 17 234.5 0Q258 -17 269 -43.5Q280 -70 276.5 -98Q273 -126 256 -149Q247 -162 235 -171ZM171 -363Q179 -363 185.5 -356.5Q192 -350 192 -341V-277H149V-341Q149 -350 155.5 -356.5Q162 -363 171 -363ZM384 -277V-196L335 -245L320 -230L380 -171L320 -111L335 -96L384 -145V-64H395L455 -125L410 -171L455 -217L395 -277ZM405 -237L425 -217L405 -196ZM405 -145L425 -125L405 -105Z"/>
</svg>