<svg xmlns="http://www.w3.org/2000/svg" viewBox="0 -512 512 512">
	<path fill="#000000" d="M469 -178Q438 -192 405 -192Q405 -242 375 -281L329 -235Q341 -215 341 -192Q341 -181 340 -177Q302 -159 279 -122.5Q256 -86 256 -43Q256 -10 270 21H256Q214 21 174.5 5Q135 -11 105 -41Q75 -71 59 -110.5Q43 -150 43 -192Q43 -234 59 -273.5Q75 -313 105 -343Q135 -373 174.5 -389Q214 -405 256 -405Q314 -405 363 -376.5Q412 -348 440.5 -299Q469 -250 469 -192ZM256 -341Q226 -341 198.5 -330Q171 -319 150 -298Q129 -277 118 -249.5Q107 -222 107 -192Q107 -162 118.5 -134.5Q130 -107 150 -86L196 -132Q171 -157 171 -192Q171 -227 196 -252Q221 -277 256 -277Q279 -277 299 -265L345 -311Q306 -341 256 -341ZM508 -8Q511 -12 507 -15L485 -32Q485 -37 485 -42.5Q485 -48 485 -53L507 -71Q510 -73 508 -78L487 -114Q485 -118 481 -117L454 -107L450 -109Q441 -114 436 -116L432 -145Q431 -149 427 -149H384Q379 -149 379 -145L375 -116Q370 -115 362 -110L357 -107L331 -117Q326 -118 324 -114L302 -78Q300 -73 304 -71L326 -53L325 -43L326 -32L304 -15Q300 -12 302 -8L324 29Q325 32 331 32L357 21Q367 28 375 31L379 60Q379 64 384 64H427Q431 64 432 60L436 31Q443 28 454 21L481 32Q486 32 487 29ZM405 -80Q421 -80 432 -69Q443 -58 443 -42.5Q443 -27 432 -16Q421 -5 405.5 -5Q390 -5 379 -16Q368 -27 368 -42.5Q368 -58 379 -69Q390 -80 405 -80Z"/>
</svg>