<svg xmlns="http://www.w3.org/2000/svg" viewBox="0 -512 512 512">
	<path fill="#000000" d="M371 -188L304 -256L274 -226L371 -128L469 -226L439 -256ZM213 -171V-341Q213 -368 194.5 -386.5Q176 -405 149.5 -405Q123 -405 104 -386.5Q85 -368 85 -341V-171Q62 -153 51 -127Q40 -101 43.5 -73Q47 -45 64 -21.5Q81 2 107.5 13Q134 24 162 20.5Q190 17 213.5 0Q237 -17 248 -43.5Q259 -70 255.5 -98Q252 -126 235 -149Q226 -162 213 -171ZM149 -363Q158 -363 164.5 -356.5Q171 -350 171 -341V-277H128V-341Q128 -350 134.5 -356.5Q141 -363 149 -363Z"/>
</svg>