<svg xmlns="http://www.w3.org/2000/svg" viewBox="0 -512 512 512">
	<path fill="#000000" d="M405 -213V-277H363V-213H299V-171H363V-107H405V-171H469V-213ZM235 -171V-341Q235 -368 216 -386.5Q197 -405 170.5 -405Q144 -405 125.5 -386.5Q107 -368 107 -341V-171Q83 -153 72 -127Q61 -101 64.5 -73Q68 -45 85.5 -21.5Q103 2 129 13Q155 24 183 20.5Q211 17 234.5 0Q258 -17 269 -43.5Q280 -70 276.5 -98Q273 -126 256 -149Q247 -162 235 -171ZM171 -363Q179 -363 185.5 -356.5Q192 -350 192 -341V-277H149V-341Q149 -350 155.5 -356.5Q162 -363 171 -363Z"/>
</svg>