<svg xmlns="http://www.w3.org/2000/svg" viewBox="0 -512 512 512">
	<path fill="#000000" d="M75 -43Q88 -43 97.5 -33.5Q107 -24 107 -10.5Q107 3 97.5 12Q88 21 74.5 21Q61 21 52 12Q43 3 43 -10.5Q43 -24 52 -33.5Q61 -43 75 -43ZM181 -107Q203 -107 219 -91Q235 -75 235 -53Q235 -31 219 -15.5Q203 0 181 0Q159 0 143.5 -15.5Q128 -31 128 -53Q128 -75 143.5 -91Q159 -107 181 -107ZM309 -128Q290 -128 273.5 -135.5Q257 -143 245 -157Q234 -143 217 -135.5Q200 -128 181 -128Q150 -128 126.5 -148Q103 -168 97 -198Q73 -207 58 -228.5Q43 -250 43 -277Q43 -313 68 -338Q93 -363 128 -363L144 -361Q170 -384 203 -384Q222 -384 238.5 -376.5Q255 -369 267 -355Q278 -369 295 -376.5Q312 -384 331 -384Q362 -384 385.5 -364Q409 -344 415 -314Q439 -305 454 -283.5Q469 -262 469 -235Q469 -199 444 -174Q419 -149 384 -149L368 -151Q342 -128 309 -128ZM128 -320Q110 -320 97.5 -307.5Q85 -295 85 -277.5Q85 -260 97.5 -247.5Q110 -235 128 -235Q138 -235 148 -239Q139 -228 139 -213Q139 -196 151.5 -183.5Q164 -171 182.5 -171Q201 -171 213 -185L245 -221L277 -185Q291 -171 309 -171Q325 -171 337 -181Q349 -191 352 -207Q364 -192 384 -192Q402 -192 414.5 -204.5Q427 -217 427 -234.5Q427 -252 414.5 -264.5Q402 -277 384 -277Q374 -277 364 -273Q373 -284 373 -299Q373 -316 360.5 -328.5Q348 -341 330 -341Q312 -341 299 -327L266 -291L235 -327Q222 -341 203 -341Q187 -341 175 -331Q163 -321 160 -305Q148 -320 128 -320ZM181 -75Q172 -75 166 -68.5Q160 -62 160 -53Q160 -44 166 -38Q172 -32 181 -32Q190 -32 196.5 -38Q203 -44 203 -53Q203 -62 196.5 -68.5Q190 -75 181 -75Z"/>
</svg>