<svg xmlns="http://www.w3.org/2000/svg" viewBox="0 -512 512 512">
	<path fill="#000000" d="M480 -235H336Q326 -235 318 -229.5Q310 -224 307 -215L258 -102Q256 -97 256 -91V-64Q256 -55 262 -49Q268 -43 277 -43H388L373 25V30Q373 40 380 47L397 64L503 -41Q512 -51 512 -64V-203Q512 -216 502.5 -225.5Q493 -235 480 -235ZM256 -320Q256 -329 250 -335Q244 -341 235 -341H124L139 -409V-414Q139 -424 132 -431L115 -448L9 -343Q0 -333 0 -320V-181Q0 -168 9.5 -158.5Q19 -149 32 -149H176Q186 -149 194 -154.5Q202 -160 205 -169L254 -282Q256 -287 256 -293Z"/>
</svg>