<svg xmlns="http://www.w3.org/2000/svg" viewBox="0 -512 512 512">
	<path fill="#000000" d="M85 -363Q68 -363 55.5 -350.5Q43 -338 43 -320V-235Q60 -235 72.5 -222.5Q85 -210 85 -192Q85 -174 72.5 -161.5Q60 -149 43 -149V-64Q43 -46 55.5 -33.5Q68 -21 85 -21H427Q444 -21 456.5 -33.5Q469 -46 469 -64V-149Q452 -149 439.5 -161.5Q427 -174 427 -192Q427 -210 439.5 -222.5Q452 -235 469 -235V-320Q469 -338 456.5 -350.5Q444 -363 427 -363ZM331 -299L363 -267L181 -85L149 -117ZM188 -298Q204 -298 215 -287Q226 -276 226 -260Q226 -244 215 -233Q204 -222 188 -222Q172 -222 161 -233Q150 -244 150 -260Q150 -276 161 -287Q172 -298 188 -298ZM324 -162Q340 -162 351 -151Q362 -140 362 -124Q362 -108 351 -97Q340 -86 324 -86Q308 -86 297 -97Q286 -108 286 -124Q286 -140 297 -151Q308 -162 324 -162Z"/>
</svg>