<svg xmlns="http://www.w3.org/2000/svg" viewBox="0 -512 512 512">
	<path fill="#000000" d="M427 -192Q427 -174 439.5 -161.5Q452 -149 469 -149V-64Q469 -46 456.5 -33.5Q444 -21 427 -21H85Q68 -21 55.5 -33.5Q43 -46 43 -64V-149Q60 -149 72.5 -161.5Q85 -174 85 -192Q85 -210 72.5 -222.5Q60 -235 43 -235V-320Q43 -338 55.5 -350.5Q68 -363 85 -363H427Q444 -363 456.5 -350.5Q469 -338 469 -320V-235Q452 -235 439.5 -222.5Q427 -210 427 -192ZM352 -101Q352 -116 334 -128Q319 -138 295 -144Q274 -149 256 -149Q238 -149 217 -144Q193 -138 178 -128Q160 -116 160 -101V-85H352ZM256 -187Q276 -187 290 -201Q304 -215 304 -235Q304 -255 290 -269Q276 -283 256 -283Q236 -283 222 -269Q208 -255 208 -235Q208 -215 222 -201Q236 -187 256 -187Z"/>
</svg>