<svg xmlns="http://www.w3.org/2000/svg" viewBox="0 -512 512 512">
	<path fill="#000000" d="M316 -277L341 -252L196 -107L171 -132ZM85 -363H427Q444 -363 456.5 -350.5Q469 -338 469 -320V-235Q452 -235 439.5 -222.5Q427 -210 427 -192Q427 -174 439.5 -161.5Q452 -149 469 -149V-64Q469 -46 456.5 -33.5Q444 -21 427 -21H85Q68 -21 55.5 -33.5Q43 -46 43 -64V-149Q60 -149 72.5 -161.5Q85 -174 85 -192Q85 -210 72.5 -222.5Q60 -235 43 -235V-320Q43 -338 55.5 -350.5Q68 -363 85 -363ZM85 -320V-266Q105 -254 116.5 -234.5Q128 -215 128 -192Q128 -169 116.5 -149.5Q105 -130 85 -118V-64H427V-118Q407 -130 395.5 -149.5Q384 -169 384 -192Q384 -215 395.5 -234.5Q407 -254 427 -266V-320ZM203 -277Q216 -277 225.5 -268Q235 -259 235 -245.5Q235 -232 225.5 -222.5Q216 -213 202.5 -213Q189 -213 180 -222.5Q171 -232 171 -245.5Q171 -259 180 -268Q189 -277 203 -277ZM309 -171Q323 -171 332 -161.5Q341 -152 341 -138.5Q341 -125 332 -116Q323 -107 309.5 -107Q296 -107 286.5 -116Q277 -125 277 -138.5Q277 -152 286.5 -161.5Q296 -171 309 -171Z"/>
</svg>