<svg xmlns="http://www.w3.org/2000/svg" viewBox="0 -512 512 512">
	<path fill="#000000" d="M277 -267H235V-309H277ZM277 -171H235V-213H277ZM277 -75H235V-117H277ZM469 -235V-320Q469 -338 456.5 -350.5Q444 -363 427 -363H85Q68 -363 55.5 -350.5Q43 -338 43 -320V-235Q60 -235 72.5 -222.5Q85 -210 85 -192Q85 -174 72.5 -161.5Q60 -149 43 -149V-64Q43 -46 55.5 -33.5Q68 -21 85 -21H427Q444 -21 456.5 -33.5Q469 -46 469 -64V-149Q452 -149 439.5 -161.5Q427 -174 427 -192Q427 -210 439.5 -222.5Q452 -235 469 -235Z"/>
</svg>