<svg xmlns="http://www.w3.org/2000/svg" viewBox="0 -512 512 512">
	<path fill="#000000" d="M320 -384H192V-427H320ZM277 -43Q277 -10 292 18Q274 21 256 21Q204 21 160 -4.5Q116 -30 90 -74.5Q64 -119 64 -171Q64 -223 90 -267Q116 -311 160 -337Q204 -363 256 -363Q289 -363 320 -351.5Q351 -340 376 -320L406 -351Q421 -338 436 -321L406 -290Q426 -265 437 -234.5Q448 -204 448 -171V-163Q426 -171 405 -171Q371 -171 341.5 -153.5Q312 -136 294.5 -106.5Q277 -77 277 -43ZM277 -299H235V-149H277ZM491 -66L429 -72L405 -128L381 -72L320 -66L367 -26L352 34L405 2L458 34L444 -26Z"/>
</svg>