<svg xmlns="http://www.w3.org/2000/svg" viewBox="0 -512 512 512">
	<path fill="#000000" d="M445 -141Q441 -150 431.5 -157Q422 -164 409.5 -168.5Q397 -173 381 -177Q373 -178 363 -181Q355 -185 351 -187.5Q347 -190 345 -193.5Q343 -197 343 -201.5Q343 -206 345 -210.5Q347 -215 351 -218Q355 -221 361 -223Q367 -225 374.5 -225Q382 -225 388 -222.5Q394 -220 398 -216.5Q402 -213 404.5 -206.5Q407 -200 407 -197H449Q449 -209 443.5 -220Q438 -231 428.5 -238.5Q419 -246 405.5 -251Q392 -256 375 -256Q358 -256 344.5 -251.5Q331 -247 322.5 -240Q314 -233 308.5 -222.5Q303 -212 303 -200.5Q303 -189 307.5 -180Q312 -171 320.5 -164.5Q329 -158 342 -153Q352 -149 369 -145Q382 -142 389.5 -139Q397 -136 401 -133Q405 -130 407 -126Q409 -122 409 -117Q409 -107 400.5 -101Q392 -95 376 -95Q368 -95 361.5 -96.5Q355 -98 350 -101.5Q345 -105 341.5 -111Q338 -117 337 -125H297Q297 -113 302.5 -102.5Q308 -92 317.5 -83.5Q327 -75 341.5 -69.5Q356 -64 374.5 -64Q393 -64 406 -68Q419 -72 429 -79Q439 -86 444.5 -96.5Q450 -107 450 -119.5Q450 -132 445 -141ZM248 -171Q242 -180 234 -185.5Q226 -191 215 -195Q225 -200 232 -206.5Q239 -213 244 -220.5Q249 -228 251 -235Q253 -242 253 -250Q253 -268 247.5 -281.5Q242 -295 231 -304Q220 -313 205 -317.5Q190 -322 173 -322Q157 -322 141 -317Q125 -312 114 -302Q103 -292 97.5 -280Q92 -268 92 -253H134Q134 -261 136.5 -267.5Q139 -274 145 -278.5Q151 -283 157.5 -285.5Q164 -288 173 -288Q193 -288 202 -278Q211 -268 211 -250Q211 -241 208.5 -234Q206 -227 200.5 -222Q195 -217 187.5 -214Q180 -211 168 -211H143V-178H169Q179 -178 188 -175.5Q197 -173 203 -168Q209 -163 212 -155Q215 -147 215 -137Q215 -117 204 -106.5Q193 -96 173 -96Q163 -96 155.5 -98.5Q148 -101 143 -106Q138 -111 135 -118Q132 -125 132 -134H89Q89 -117 96 -103Q103 -89 115.5 -80Q128 -71 141 -67Q157 -62 173 -62Q190 -62 206 -67Q222 -72 233.5 -81.5Q245 -91 251 -105Q257 -119 257 -137Q257 -146 254.5 -155.5Q252 -165 248 -171Z"/>
</svg>