<svg xmlns="http://www.w3.org/2000/svg" viewBox="0 -512 512 512">
	<path fill="#000000" d="M320 -384H192V-427H320ZM256 -53Q256 -14 277 20Q270 21 256 21Q204 21 160 -4.5Q116 -30 90 -74.5Q64 -119 64 -171Q64 -223 90 -267Q116 -311 160 -337Q204 -363 256 -363Q289 -363 320 -351.5Q351 -340 376 -320L406 -351Q421 -338 436 -321L406 -290Q444 -243 448 -181Q422 -192 395 -192Q357 -192 325 -173.5Q293 -155 274.5 -123Q256 -91 256 -53ZM277 -299H235V-149H277ZM491 -53Q491 -13 463 15Q435 43 395 43Q355 43 327 15Q299 -13 299 -53Q299 -93 327 -121Q355 -149 395 -149Q435 -149 463 -121Q491 -93 491 -53ZM427 2L340 -85Q331 -71 331 -53Q331 -27 349.5 -8Q368 11 395 11Q413 11 427 2ZM459 -53Q459 -80 440 -98.5Q421 -117 395 -117Q377 -117 363 -108L450 -21Q459 -35 459 -53Z"/>
</svg>