<svg xmlns="http://www.w3.org/2000/svg" viewBox="0 -512 512 512">
	<path fill="#000000" d="M85 -405V-277H43V-405ZM43 21V-107H85V21ZM107 -192Q107 -174 94.5 -161.5Q82 -149 64 -149Q46 -149 33.5 -161.5Q21 -174 21 -192Q21 -210 33.5 -222.5Q46 -235 64 -235Q82 -235 94.5 -222.5Q107 -210 107 -192ZM341 -363Q388 -363 427 -340Q466 -317 489 -277.5Q512 -238 512 -192Q512 -146 489 -106.5Q466 -67 427 -44Q388 -21 341 -21Q284 -21 239.5 -55Q195 -89 178 -142L128 -192L178 -242Q195 -295 239.5 -329Q284 -363 341 -363ZM341 -320Q307 -320 277.5 -303Q248 -286 230.5 -256.5Q213 -227 213 -192Q213 -157 230.5 -127.5Q248 -98 277.5 -81Q307 -64 341.5 -64Q376 -64 405.5 -81Q435 -98 452 -127.5Q469 -157 469 -192Q469 -227 452 -256.5Q435 -286 405.5 -303Q376 -320 341 -320ZM320 -171V-277H352V-188L416 -149L399 -122Z"/>
</svg>