<svg xmlns="http://www.w3.org/2000/svg" viewBox="0 -512 512 512">
	<path fill="#000000" d="M320 -384H192V-427H320ZM235 -149H277V-277H235ZM405 -171Q426 -171 448 -163V-171Q448 -204 437 -234.5Q426 -265 406 -290L436 -321Q421 -338 406 -351L376 -320Q351 -340 320 -351.5Q289 -363 256 -363Q204 -363 160 -337Q116 -311 90 -267Q64 -223 64 -171Q64 -119 90 -74.5Q116 -30 160 -4.5Q204 21 256 21Q274 21 292 18Q282 -2 279 -23Q265 -21 256 -21Q215 -21 181 -41Q147 -61 127 -95.5Q107 -130 107 -170.5Q107 -211 127 -245.5Q147 -280 181 -300Q215 -320 256 -320Q297 -320 331 -300Q365 -280 385 -245.5Q405 -211 405 -171ZM363 -107V21L469 -43Z"/>
</svg>