<svg xmlns="http://www.w3.org/2000/svg" viewBox="0 -512 512 512">
	<path fill="#000000" d="M235 -277H277V-149H235ZM256 -21Q215 -21 181 -41Q147 -61 127 -95.5Q107 -130 107 -170.5Q107 -211 127 -245.5Q147 -280 181 -300Q215 -320 256 -320Q306 -320 346 -289.5Q386 -259 399 -212Q405 -213 416 -213Q429 -213 444 -211Q434 -255 406 -290L436 -321Q421 -338 406 -351L376 -320Q351 -340 320 -351.5Q289 -363 256 -363Q204 -363 160 -337Q116 -311 90 -267Q64 -223 64 -171Q64 -119 90 -74.5Q116 -30 160 -4.5Q204 21 256 21Q282 21 309 14Q295 -3 287 -25Q273 -21 256 -21ZM320 -427H192V-384H320ZM405 -160V-192L357 -144L405 -96V-128Q427 -128 443 -112.5Q459 -97 459 -75Q459 -62 453 -51L476 -28Q491 -49 491 -75Q491 -110 466 -135Q441 -160 405 -160ZM405 -21Q383 -21 367.5 -37Q352 -53 352 -75Q352 -87 358 -99L334 -122Q320 -100 320 -75Q320 -39 345 -14Q370 11 405 11V43L453 -5L405 -53Z"/>
</svg>