<svg xmlns="http://www.w3.org/2000/svg" viewBox="0 -512 512 512">
	<path fill="#000000" d="M279 -23Q282 -2 292 18Q274 21 256 21Q204 21 160 -4.5Q116 -30 90 -74.5Q64 -119 64 -171Q64 -223 90 -267Q116 -311 160 -337Q204 -363 256 -363Q289 -363 320 -351.5Q351 -340 376 -320L406 -351Q421 -338 436 -321L406 -290Q426 -265 437 -234.5Q448 -204 448 -171V-163Q426 -171 405 -171Q405 -211 385 -245.5Q365 -280 331 -300Q297 -320 256 -320Q215 -320 181 -300Q147 -280 127 -245.5Q107 -211 107 -170.5Q107 -130 127 -95.5Q147 -61 181 -41Q215 -21 256 -21Q265 -21 279 -23ZM235 -149H277V-277H235ZM320 -427H192V-384H320ZM481 -88L451 -118L405 -73L360 -118L330 -88L375 -43L330 3L360 33L405 -13L451 33L481 3L435 -43Z"/>
</svg>