<svg xmlns="http://www.w3.org/2000/svg" viewBox="0 -512 512 512">
	<path fill="#000000" d="M107 -192Q107 -174 94.5 -161.5Q82 -149 64 -149Q46 -149 33.5 -161.5Q21 -174 21 -192Q21 -210 33.5 -222.5Q46 -235 64 -235Q82 -235 94.5 -222.5Q107 -210 107 -192ZM85 -405V-277H43V-405ZM43 21V-107H85V21ZM512 -320V-64Q512 -46 499.5 -33.5Q487 -21 469 -21H213Q196 -21 183.5 -33.5Q171 -46 171 -64V-149L128 -192L171 -235V-320Q171 -338 183.5 -350.5Q196 -363 213 -363H469Q487 -363 499.5 -350.5Q512 -338 512 -320ZM469 -320H213V-217L188 -192L213 -167V-64H469ZM352 -117V-85H320V-117ZM309 -224H277V-235Q277 -261 296 -280Q315 -299 341.5 -299Q368 -299 386.5 -280Q405 -261 405 -235Q405 -219 398 -205.5Q391 -192 378 -183L371 -179Q352 -166 352 -143V-139H320V-143Q320 -162 329 -178.5Q338 -195 354 -206L360 -210Q373 -219 373 -235Q373 -248 364 -257.5Q355 -267 341.5 -267Q328 -267 318.5 -257.5Q309 -248 309 -235Z"/>
</svg>