<svg xmlns="http://www.w3.org/2000/svg" viewBox="0 -512 512 512">
	<path fill="#000000" d="M320 -384H192V-427H320ZM414 -219L235 -40V20Q187 15 148 -12Q109 -39 86.5 -80.5Q64 -122 64 -171Q64 -223 90 -267Q116 -311 160 -337Q204 -363 256 -363Q289 -363 320 -351.5Q351 -340 376 -320L406 -351Q421 -338 436 -321L406 -290Q427 -264 437 -233Q424 -229 414 -219ZM277 -299H235V-149H277ZM277 -22V21H321L452 -109L408 -153ZM487 -161L459 -189Q456 -192 451.5 -192Q447 -192 444 -189L423 -168L467 -124L487 -145Q491 -148 491 -152.5Q491 -157 487 -161Z"/>
</svg>