<svg xmlns="http://www.w3.org/2000/svg" viewBox="0 -512 512 512">
	<path fill="#000000" d="M486 -34Q488 -34 488 -32.5Q488 -31 486 -30L465 6Q463 9 459 9L433 0L416 11L412 38Q412 40 410.5 41.5Q409 43 407 43H365Q363 43 358 38L354 11Q345 7 337 0L311 11Q307 11 305 9L284 -28Q282 -30 286 -34L309 -51V-73L286 -90Q284 -92 284 -96L305 -132Q307 -134 311 -134L337 -124L354 -134L358 -162Q358 -166 365 -166H407Q409 -166 410.5 -165Q412 -164 412 -162L416 -134Q422 -132 435 -124L461 -134Q467 -134 467 -132L489 -96Q491 -94 486 -90L463 -73V-51ZM416 -64Q416 -77 406.5 -86.5Q397 -96 384 -96Q371 -96 361.5 -86.5Q352 -77 352 -64Q352 -51 361.5 -41.5Q371 -32 384 -32Q397 -32 406.5 -41.5Q416 -51 416 -64ZM277 -149V-277H235V-149ZM320 -427H192V-384H320ZM241 -21Q204 -26 173.5 -47Q143 -68 125 -100.5Q107 -133 107 -171Q107 -212 127 -246Q147 -280 181 -300Q215 -320 256 -320Q307 -320 346.5 -290Q386 -260 399 -213Q423 -210 446 -201Q436 -253 405 -290L437 -320Q416 -341 405 -350L375 -320Q352 -341 321 -352Q290 -363 256 -363Q204 -363 159.5 -337Q115 -311 89.5 -267Q64 -223 64 -170.5Q64 -118 89.5 -74Q115 -30 159.5 -4.5Q204 21 256 21H262Q248 5 241 -21Z"/>
</svg>