<svg xmlns="http://www.w3.org/2000/svg" viewBox="0 -512 512 512">
	<path fill="#000000" d="M320 -384H192V-427H320ZM277 -117Q277 -65 329 7Q294 21 256 21Q204 21 160 -4.5Q116 -30 90 -74.5Q64 -119 64 -171Q64 -223 90 -267Q116 -311 160 -337Q204 -363 256 -363Q289 -363 320 -351.5Q351 -340 376 -320L406 -351Q421 -338 436 -321L406 -290Q429 -261 440 -225Q418 -235 395 -235Q363 -235 336 -219Q309 -203 293 -176Q277 -149 277 -117ZM277 -149V-299H235V-149ZM469 -117Q469 -83 432 -27Q413 1 395 21L375 -2Q353 -31 339 -57Q320 -93 320 -117Q320 -148 342 -170Q364 -192 394.5 -192Q425 -192 447 -170Q469 -148 469 -117ZM420 -115Q420 -125 412 -133Q404 -141 394.5 -141Q385 -141 377 -133.5Q369 -126 369 -115.5Q369 -105 376.5 -97.5Q384 -90 395 -90Q406 -90 414 -98Q422 -106 420 -115Z"/>
</svg>