<svg xmlns="http://www.w3.org/2000/svg" viewBox="0 -512 512 512">
	<path fill="#000000" d="M320 -384H192V-427H320ZM277 -75Q277 -25 309 14Q282 21 256 21Q204 21 160 -4.5Q116 -30 90 -74.5Q64 -119 64 -171Q64 -223 90 -267Q116 -311 160 -337Q204 -363 256 -363Q289 -363 320 -351.5Q351 -340 376 -320L406 -351Q421 -338 436 -321L406 -290Q434 -255 444 -211Q429 -213 416 -213Q378 -213 346.5 -194.5Q315 -176 296 -144Q277 -112 277 -75ZM277 -299H235V-149H277ZM405 -160V-192L357 -144L405 -96V-128Q427 -128 443 -112.5Q459 -97 459 -75Q459 -62 453 -51L476 -28Q491 -49 491 -75Q491 -110 466 -135Q441 -160 405 -160ZM405 -21Q383 -21 367.5 -37Q352 -53 352 -75Q352 -87 358 -99L334 -122Q320 -100 320 -75Q320 -39 345 -14Q370 11 405 11V43L453 -5L405 -53Z"/>
</svg>