<svg xmlns="http://www.w3.org/2000/svg" viewBox="0 -512 512 512">
	<path fill="#000000" d="M235 -277H277V-149H235ZM320 -427H192V-384H320ZM256 -21Q215 -21 181 -41Q147 -61 127 -95.5Q107 -130 107 -170.5Q107 -211 127 -245.5Q147 -280 181 -300Q215 -320 256 -320Q293 -320 325 -303Q357 -286 378 -256.5Q399 -227 404 -191Q428 -190 448 -181Q444 -243 406 -290L436 -321Q421 -338 406 -351L376 -320Q351 -340 320 -351.5Q289 -363 256 -363Q204 -363 160 -337Q116 -311 90 -267Q64 -223 64 -171Q64 -119 90 -74.5Q116 -30 160 -4.5Q204 21 256 21Q270 21 277 20Q265 1 260 -21ZM491 -53Q491 -13 463 15Q435 43 395 43Q355 43 327 15Q299 -13 299 -53Q299 -93 327 -121Q355 -149 395 -149Q435 -149 463 -121Q491 -93 491 -53ZM427 2L340 -85Q331 -71 331 -53Q331 -27 349.5 -8Q368 11 395 11Q413 11 427 2ZM459 -53Q459 -80 440 -98.5Q421 -117 395 -117Q377 -117 363 -108L450 -21Q459 -35 459 -53Z"/>
</svg>