<svg xmlns="http://www.w3.org/2000/svg" viewBox="0 -512 512 512">
	<path fill="#000000" d="M192 -277H235V-149H192ZM277 -427H149V-384H277ZM363 -290Q383 -265 394 -234.5Q405 -204 405 -171Q405 -118 379.5 -74Q354 -30 310 -4.5Q266 21 213.5 21Q161 21 117 -4.5Q73 -30 47 -74.5Q21 -119 21 -171Q21 -223 47 -267Q73 -311 117 -337Q161 -363 213 -363Q247 -363 277.5 -351.5Q308 -340 333 -320L364 -351Q378 -338 394 -321ZM363 -171Q363 -211 343 -245.5Q323 -280 288.5 -300Q254 -320 213.5 -320Q173 -320 138.5 -300Q104 -280 84 -245.5Q64 -211 64 -170.5Q64 -130 84 -95.5Q104 -61 138.5 -41Q173 -21 213.5 -21Q254 -21 288.5 -41Q323 -61 343 -95.5Q363 -130 363 -171ZM448 -299V-171H491V-299ZM448 -85H491V-128H448Z"/>
</svg>