<svg xmlns="http://www.w3.org/2000/svg" viewBox="0 -512 512 512">
	<path fill="#000000" d="M275 -166Q275 -147 272.5 -133.5Q270 -120 265 -111.5Q260 -103 253 -99.5Q246 -96 235 -96Q224 -96 217 -99.5Q210 -103 204.5 -112Q199 -121 196.5 -133.5Q194 -146 194 -166V-219Q194 -239 196.5 -252Q199 -265 204.5 -273Q210 -281 217 -284.5Q224 -288 234.5 -288Q245 -288 252.5 -284.5Q260 -281 265 -273Q270 -265 272.5 -251.5Q275 -238 275 -220ZM295 -298Q285 -310 269 -316Q253 -322 235 -322Q217 -322 200.5 -316Q184 -310 174 -297.5Q164 -285 158 -263.5Q152 -242 152 -213V-172Q152 -141 158 -120Q164 -99 175 -86Q186 -73 202 -67.5Q218 -62 235 -62Q252 -62 268.5 -68Q285 -74 295.5 -87Q306 -100 311.5 -121Q317 -142 317 -172V-213Q317 -243 311 -264Q305 -285 295 -298ZM507 -141Q503 -151 493.5 -157.5Q484 -164 471.5 -168.5Q459 -173 444 -177Q434 -178 425 -181.5Q416 -185 412.5 -187.5Q409 -190 407 -194Q405 -198 405 -202Q405 -206 407 -210.5Q409 -215 413.5 -218Q418 -221 423.5 -223Q429 -225 437 -225Q445 -225 450.5 -222.5Q456 -220 460.5 -216Q465 -212 467 -206.5Q469 -201 469 -197H511Q511 -209 505.5 -220Q500 -231 491 -238.5Q482 -246 468 -251Q454 -256 437.5 -256Q421 -256 407.5 -251.5Q394 -247 385 -240Q376 -233 370.5 -222.5Q365 -212 365 -200Q365 -188 370 -179Q375 -170 383 -164Q391 -158 404 -153Q415 -149 432 -145Q444 -142 451.5 -139.5Q459 -137 463.5 -133.5Q468 -130 469.5 -126.5Q471 -123 471 -117Q471 -107 462.5 -101Q454 -95 437 -95Q430 -95 424 -96.5Q418 -98 412 -102Q406 -106 403 -111.5Q400 -117 400 -125H359Q359 -114 364.5 -103Q370 -92 379.5 -83Q389 -74 403.5 -69Q418 -64 436.5 -64Q455 -64 468 -68Q481 -72 491 -79Q501 -86 506.5 -96Q512 -106 512 -119.5Q512 -133 507 -141ZM0 -283V-247L64 -269V-64H107V-320H101Z"/>
</svg>