<svg xmlns="http://www.w3.org/2000/svg" viewBox="0 -512 512 512">
	<path fill="#000000" d="M352 -104V-213H443Q433 -256 406 -290L436 -321Q421 -338 406 -351L376 -320Q351 -340 320 -351.5Q289 -363 256 -363Q204 -363 160 -337Q116 -311 90 -267Q64 -223 64 -171Q64 -119 90 -74.5Q116 -30 160 -4.5Q204 21 256 21Q267 21 282 19Q277 4 277 -11Q277 -45 298.5 -71Q320 -97 352 -104ZM277 -149H235V-299H277ZM320 -384H192V-427H320ZM469 -171V-128H427V-11Q427 11 411 27Q395 43 373 43Q351 43 335.5 27Q320 11 320 -11Q320 -33 335.5 -48.5Q351 -64 373 -64Q385 -64 395 -60V-171Z"/>
</svg>