<svg xmlns="http://www.w3.org/2000/svg" viewBox="0 -512 512 512">
	<path fill="#000000" d="M256 -43Q215 -43 181 -63Q147 -83 127 -117Q107 -151 107 -192Q107 -233 127 -267Q147 -301 181 -321Q215 -341 256 -341Q297 -341 331 -321Q365 -301 385 -267Q405 -233 405 -192Q405 -151 385 -117Q365 -83 331 -63Q297 -43 256 -43ZM405 -311L437 -341Q416 -363 405 -371L375 -341Q323 -384 256 -384Q204 -384 159.5 -358.5Q115 -333 89.5 -288.5Q64 -244 64 -192Q64 -140 89.5 -95.5Q115 -51 159.5 -25.5Q204 0 256 0Q308 0 352.5 -25.5Q397 -51 422.5 -95.5Q448 -140 448 -192Q448 -226 437 -257Q426 -288 405 -311ZM235 -171H277V-299H235ZM320 -448H192V-405H320ZM277 21H235V64H277ZM363 21H320V64H363ZM192 21H149V64H192Z"/>
</svg>