<svg xmlns="http://www.w3.org/2000/svg" viewBox="0 -512 512 512">
	<path fill="#000000" d="M320 -384H192V-427H320ZM303 -160V-134Q291 -124 284 -110Q277 -96 277 -81V-6Q277 6 282 19Q267 21 256 21Q204 21 160 -4.5Q116 -30 90 -74.5Q64 -119 64 -171Q64 -223 90 -267Q116 -311 160 -337Q204 -363 256 -363Q289 -363 320 -351.5Q351 -340 376 -320L406 -351Q421 -338 436 -321L406 -290Q420 -273 429 -253Q416 -256 405 -256Q378 -256 354.5 -243Q331 -230 317 -208Q303 -186 303 -160ZM277 -299H235V-149H277ZM465 -107H373V-160Q373 -172 382.5 -180Q392 -188 405.5 -188Q419 -188 428 -180Q437 -172 437 -160V-149H465V-160Q465 -182 446.5 -197.5Q428 -213 405 -213Q382 -213 364 -197.5Q346 -182 346 -160V-107Q336 -107 328 -99Q320 -91 320 -81V-6Q320 5 328 13Q336 21 346 21H463Q474 21 482.5 13.5Q491 6 491 -4V-79Q491 -90 483 -98.5Q475 -107 465 -107Z"/>
</svg>