<svg xmlns="http://www.w3.org/2000/svg" viewBox="0 -512 512 512">
	<path fill="#000000" d="M85 -405V-277H43V-405ZM43 21V-107H85V21ZM107 -192Q107 -174 94.5 -161.5Q82 -149 64 -149Q46 -149 33.5 -161.5Q21 -174 21 -192Q21 -210 33.5 -222.5Q46 -235 64 -235Q82 -235 94.5 -222.5Q107 -210 107 -192ZM512 -320V-64Q512 -46 499.5 -33.5Q487 -21 469 -21H213Q196 -21 183.5 -33.5Q171 -46 171 -64V-149L128 -192L171 -235V-320Q171 -338 183.5 -350.5Q196 -363 213 -363H469Q487 -363 499.5 -350.5Q512 -338 512 -320ZM352 -117H320V-85H352ZM309 -224V-235Q309 -248 318.5 -257.5Q328 -267 341.5 -267Q355 -267 364 -257.5Q373 -248 373 -235Q373 -219 360 -210L354 -206Q338 -195 329 -178.5Q320 -162 320 -143V-139H352V-143Q352 -166 371 -179L378 -183Q391 -192 398 -205.5Q405 -219 405 -235Q405 -261 386.5 -280Q368 -299 341.5 -299Q315 -299 296 -280Q277 -261 277 -235V-224Z"/>
</svg>