<svg xmlns="http://www.w3.org/2000/svg" viewBox="0 -512 512 512">
	<path fill="#000000" d="M320 -384H192V-427H320ZM235 -149H277V-277H235ZM278 -23Q268 -21 256 -21Q215 -21 181 -41Q147 -61 127 -95.5Q107 -130 107 -170.5Q107 -211 127 -245.5Q147 -280 181 -300Q215 -320 256 -320Q306 -320 345.5 -290Q385 -260 399 -213H443Q433 -256 406 -290L436 -321Q421 -338 406 -351L376 -320Q351 -340 320 -351.5Q289 -363 256 -363Q204 -363 160 -337Q116 -311 90 -267Q64 -223 64 -171Q64 -119 90 -74.5Q116 -30 160 -4.5Q204 21 256 21Q267 21 282 19Q277 4 277 -11ZM395 -171V-60Q385 -64 373 -64Q351 -64 335.5 -48.5Q320 -33 320 -11Q320 11 335.5 27Q351 43 373 43Q395 43 411 27Q427 11 427 -11V-128H469V-171Z"/>
</svg>