<svg xmlns="http://www.w3.org/2000/svg" viewBox="0 -512 512 512">
	<path fill="#000000" d="M405 -171Q426 -171 448 -163V-171Q448 -204 437 -234.5Q426 -265 406 -290L436 -321Q421 -338 406 -351L376 -320Q351 -340 320 -351.5Q289 -363 256 -363Q204 -363 160 -337Q116 -311 90 -267Q64 -223 64 -171Q64 -119 90 -74.5Q116 -30 160 -4.5Q204 21 256 21Q274 21 292 18Q277 -10 277 -43Q277 -77 294.5 -106.5Q312 -136 341.5 -153.5Q371 -171 405 -171ZM277 -149H235V-299H277ZM320 -384H192V-427H320ZM491 -64V-21H320V-64Z"/>
</svg>