<svg xmlns="http://www.w3.org/2000/svg" viewBox="0 -512 512 512">
	<path fill="#000000" d="M235 -277H277V-149H235ZM277 -23Q266 -21 256 -21Q215 -21 181 -41Q147 -61 127 -95.5Q107 -130 107 -170.5Q107 -211 127 -245.5Q147 -280 181 -300Q215 -320 256 -320Q300 -320 336.5 -296Q373 -272 391 -233L405 -235Q421 -235 439 -229Q428 -263 406 -290L436 -321Q421 -338 406 -351L376 -320Q351 -340 320 -351.5Q289 -363 256 -363Q204 -363 160 -337Q116 -311 90 -267Q64 -223 64 -171Q64 -119 90 -74.5Q116 -30 160 -4.5Q204 21 256 21Q267 21 282 19Q277 6 277 -6ZM320 -427H192V-384H320ZM491 -79V-4Q491 6 482.5 13.5Q474 21 463 21H346Q336 21 328 13Q320 5 320 -6V-81Q320 -91 328 -99Q336 -107 346 -107V-139Q346 -161 364 -176.5Q382 -192 405 -192Q428 -192 446.5 -176.5Q465 -161 465 -139V-107Q475 -107 483 -98.5Q491 -90 491 -79ZM437 -139Q437 -151 428 -158.5Q419 -166 405.5 -166Q392 -166 382.5 -158.5Q373 -151 373 -139V-107H437Z"/>
</svg>