<svg xmlns="http://www.w3.org/2000/svg" viewBox="0 -512 512 512">
	<path fill="#000000" d="M469 -363H213Q196 -363 183.5 -350.5Q171 -338 171 -320V-235L128 -192L171 -149V-64Q171 -46 183.5 -33.5Q196 -21 213 -21H469Q487 -21 499.5 -33.5Q512 -46 512 -64V-320Q512 -338 499.5 -350.5Q487 -363 469 -363ZM469 -64H213V-320H469ZM85 -277H43V-405H85ZM43 -107H85V21H43ZM107 -192Q107 -174 94.5 -161.5Q82 -149 64 -149Q46 -149 33.5 -161.5Q21 -174 21 -192Q21 -210 33.5 -222.5Q46 -235 64 -235Q82 -235 94.5 -222.5Q107 -210 107 -192ZM320 -126L261 -190L286 -215L320 -181L397 -258L421 -228Z"/>
</svg>