<svg xmlns="http://www.w3.org/2000/svg" viewBox="0 -512 512 512">
	<path fill="#000000" d="M256 -21Q215 -21 181 -41.5Q147 -62 127 -96Q107 -130 107 -171Q107 -212 127 -245L331 -42Q297 -21 256 -21ZM64 -363L37 -336L96 -277Q64 -229 64 -171Q64 -119 90 -74.5Q116 -30 160 -4.5Q204 21 256 21Q314 21 363 -11L416 43L443 16L278 -149ZM235 -247L277 -204V-277H235ZM320 -427H192V-384H320ZM406 -351L376 -321Q351 -341 320 -352Q289 -363 256 -363Q198 -363 150 -331L181 -300Q216 -320 256.5 -320Q297 -320 331 -300Q365 -280 385 -245.5Q405 -211 405 -171Q405 -131 385 -96L416 -65Q448 -113 448 -171Q448 -204 437 -234.5Q426 -265 406 -290L436 -321Z"/>
</svg>