<svg xmlns="http://www.w3.org/2000/svg" viewBox="0 -512 512 512">
	<path fill="#000000" d="M85 -405V-277H43V-405ZM43 21V-107H85V21ZM107 -192Q107 -174 94.5 -161.5Q82 -149 64 -149Q46 -149 33.5 -161.5Q21 -174 21 -192Q21 -210 33.5 -222.5Q46 -235 64 -235Q82 -235 94.5 -222.5Q107 -210 107 -192ZM512 -320V-64Q512 -46 499.5 -33.5Q487 -21 469 -21H213Q196 -21 183.5 -33.5Q171 -46 171 -64V-149L128 -192L171 -235V-320Q171 -338 183.5 -350.5Q196 -363 213 -363H469Q487 -363 499.5 -350.5Q512 -338 512 -320ZM213 -320V-64H469V-320Z"/>
</svg>