<svg xmlns="http://www.w3.org/2000/svg" viewBox="0 -512 512 512">
	<path fill="#000000" d="M235 -277H277V-149H235ZM277 -23Q266 -21 256 -21Q215 -21 181 -41Q147 -61 127 -95.5Q107 -130 107 -170.5Q107 -211 127 -245.5Q147 -280 181 -300Q215 -320 256 -320Q294 -320 327 -302Q360 -284 381 -253Q394 -256 405 -256Q416 -256 429 -253Q420 -273 406 -290L436 -321Q421 -338 406 -351L376 -320Q351 -340 320 -351.5Q289 -363 256 -363Q204 -363 160 -337Q116 -311 90 -267Q64 -223 64 -171Q64 -119 90 -74.5Q116 -30 160 -4.5Q204 21 256 21Q267 21 282 19Q277 6 277 -6ZM320 -427H192V-384H320ZM465 -107H373V-160Q373 -172 382.5 -180Q392 -188 405.5 -188Q419 -188 428 -180Q437 -172 437 -160V-149H465V-160Q465 -182 446.5 -197.5Q428 -213 405 -213Q382 -213 364 -197.5Q346 -182 346 -160V-107Q336 -107 328 -99Q320 -91 320 -81V-6Q320 5 328 13Q336 21 346 21H463Q474 21 482.5 13.5Q491 6 491 -4V-79Q491 -90 483 -98.5Q475 -107 465 -107Z"/>
</svg>