<svg xmlns="http://www.w3.org/2000/svg" viewBox="0 -512 512 512">
	<path fill="#000000" d="M320 -384H192V-427H320ZM256 -53Q256 -14 277 20Q270 21 256 21Q204 21 160 -4.5Q116 -30 90 -74.5Q64 -119 64 -171Q64 -223 90 -267Q116 -311 160 -337Q204 -363 256 -363Q289 -363 320 -351.5Q351 -340 376 -320L406 -351Q421 -338 436 -321L406 -290Q444 -243 448 -181Q422 -192 395 -192Q357 -192 325 -173.5Q293 -155 274.5 -123Q256 -91 256 -53ZM277 -299H235V-149H277ZM469 -53V-139L444 -114Q419 -139 384 -139Q349 -139 324 -114Q299 -89 299 -53.5Q299 -18 324 7Q349 32 384 32Q411 32 432.5 17.5Q454 3 463 -21H427Q419 -11 408 -5.5Q397 0 384 0Q362 0 346.5 -15.5Q331 -31 331 -53Q331 -75 346.5 -91Q362 -107 384 -107Q406 -107 422 -91L384 -53Z"/>
</svg>