<svg xmlns="http://www.w3.org/2000/svg" viewBox="0 -512 512 512">
	<path fill="#000000" d="M299 -192H331V-132L383 -102L367 -74L299 -113ZM85 -405H384Q402 -405 414.5 -392.5Q427 -380 427 -363V-233Q447 -212 458 -185Q469 -158 469 -128Q469 -87 449 -53Q429 -19 395 1Q361 21 320 21Q290 21 263 10Q236 -1 215 -21H85Q68 -21 55.5 -33.5Q43 -46 43 -64V-363Q43 -380 55.5 -392.5Q68 -405 85 -405ZM85 -128V-64H185Q171 -94 171 -128ZM85 -277H213V-341H85ZM384 -277V-341H256V-277ZM85 -171H177Q188 -208 215 -235H85ZM320 -231Q299 -231 280 -223.5Q261 -216 246.5 -201.5Q232 -187 224.5 -168Q217 -149 217 -128Q217 -100 230.5 -76Q244 -52 268 -38.5Q292 -25 320 -25Q341 -25 360 -32.5Q379 -40 393.5 -54.5Q408 -69 415.5 -88Q423 -107 423 -128Q423 -156 409.5 -180Q396 -204 372 -217.5Q348 -231 320 -231Z"/>
</svg>