<svg xmlns="http://www.w3.org/2000/svg" viewBox="0 -512 512 512">
	<path fill="#000000" d="M419 -242L412 -262L451 -277Q437 -311 411.5 -337.5Q386 -364 353 -381L336 -343L316 -352L333 -390Q295 -405 256 -405Q228 -405 191 -395L206 -355L186 -348L171 -387Q137 -373 110.5 -347.5Q84 -322 67 -289L105 -272L96 -252L58 -269Q43 -231 43 -192Q43 -164 53 -127L93 -142L100 -122L61 -107Q75 -73 100.5 -46.5Q126 -20 159 -3L176 -41L196 -32L179 6Q217 21 256 21Q284 21 321 11L306 -29L326 -36L341 3Q375 -11 401.5 -36.5Q428 -62 445 -95L407 -112L416 -132L454 -115Q469 -153 469 -192Q469 -220 459 -257ZM305 -74Q273 -61 239 -65.5Q205 -70 178 -90.5Q151 -111 138 -143Q125 -175 129.5 -209Q134 -243 154.5 -270Q175 -297 207 -310Q239 -323 273 -318.5Q307 -314 334 -293.5Q361 -273 374.5 -241Q388 -209 383 -175Q378 -141 357.5 -114Q337 -87 305 -74Z"/>
</svg>