<svg xmlns="http://www.w3.org/2000/svg" viewBox="0 -512 512 512">
	<path fill="#000000" d="M85 -341Q68 -341 55.5 -328.5Q43 -316 43 -299V-85Q43 -68 55.5 -55.5Q68 -43 85 -43H427Q444 -43 456.5 -55.5Q469 -68 469 -85V-299Q469 -316 456.5 -328.5Q444 -341 427 -341ZM85 -299H341V-85H85ZM405 -299Q414 -299 420.5 -292.5Q427 -286 427 -277Q427 -268 420.5 -262Q414 -256 405 -256Q396 -256 390 -262Q384 -268 384 -277Q384 -286 390 -292.5Q396 -299 405 -299ZM128 -256V-213H299V-256ZM405 -213Q414 -213 420.5 -207Q427 -201 427 -192Q427 -183 420.5 -177Q414 -171 405 -171Q396 -171 390 -177Q384 -183 384 -192Q384 -201 390 -207Q396 -213 405 -213Z"/>
</svg>