<svg xmlns="http://www.w3.org/2000/svg" viewBox="0 -512 512 512">
	<path fill="#000000" d="M448 -213Q448 -231 435.5 -243.5Q423 -256 405 -256H107Q89 -256 76.5 -243.5Q64 -231 64 -213H43V-171H64V-21H448V-171H469V-213ZM363 -128Q350 -128 339 -135Q328 -142 323 -154Q318 -166 320.5 -179Q323 -192 332.5 -201Q342 -210 354.5 -212.5Q367 -215 379 -210Q391 -205 398 -194.5Q405 -184 405 -171Q405 -153 392.5 -140.5Q380 -128 363 -128ZM384 -277H128Q133 -314 169.5 -338.5Q206 -363 255.5 -363Q305 -363 341.5 -338.5Q378 -314 384 -277Z"/>
</svg>