<svg xmlns="http://www.w3.org/2000/svg" viewBox="0 -512 512 512">
	<path fill="#000000" d="M119 -414Q132 -427 149 -427H363Q380 -427 392.5 -414Q405 -401 405 -384V0Q405 17 392.5 30Q380 43 363 43H149Q132 43 119.5 30Q107 17 107 0V-384Q107 -401 119 -414ZM171 -384Q161 -384 155 -378Q149 -372 149 -363V-21Q149 -12 155 -6Q161 0 171 0H341Q351 0 357 -6Q363 -12 363 -21V-363Q363 -372 357 -378Q351 -384 341 -384ZM171 -85Q171 -95 176.5 -101Q182 -107 192 -107H320Q330 -107 335.5 -101Q341 -95 341 -85V-43Q341 -33 335.5 -27Q330 -21 320 -21H192Q182 -21 176.5 -27Q171 -33 171 -43Z"/>
</svg>