<svg xmlns="http://www.w3.org/2000/svg" viewBox="0 -512 512 512">
	<path fill="#000000" d="M363 -299H149Q120 -299 95.5 -284.5Q71 -270 57 -245.5Q43 -221 43 -192Q43 -163 57 -138.5Q71 -114 95.5 -99.5Q120 -85 149 -85H363Q392 -85 416.5 -99.5Q441 -114 455 -138.5Q469 -163 469 -192Q469 -221 455 -245.5Q441 -270 416.5 -284.5Q392 -299 363 -299ZM363 -128Q336 -128 317.5 -146.5Q299 -165 299 -192Q299 -219 317.5 -237.5Q336 -256 362.5 -256Q389 -256 408 -237.5Q427 -219 427 -192Q427 -165 408 -146.5Q389 -128 363 -128Z"/>
</svg>