<svg xmlns="http://www.w3.org/2000/svg" viewBox="0 -512 512 512">
	<path fill="#000000" d="M363 -299H149Q120 -299 95.5 -284.5Q71 -270 57 -245.5Q43 -221 43 -192Q43 -163 57 -138.5Q71 -114 95.5 -99.5Q120 -85 149 -85H363Q392 -85 416.5 -99.5Q441 -114 455 -138.5Q469 -163 469 -192Q469 -221 455 -245.5Q441 -270 416.5 -284.5Q392 -299 363 -299ZM149 -128Q123 -128 104 -146.5Q85 -165 85 -192Q85 -219 104 -237.5Q123 -256 149.5 -256Q176 -256 194.5 -237.5Q213 -219 213 -192Q213 -165 194.5 -146.5Q176 -128 149 -128Z"/>
</svg>