<svg xmlns="http://www.w3.org/2000/svg" viewBox="0 -512 512 512">
	<path fill="#000000" d="M463 -15L433 15Q427 21 418 21Q409 21 403 15L149 -238Q139 -235 128 -235Q107 -235 89 -244.5Q71 -254 59 -270.5Q47 -287 44 -307.5Q41 -328 47 -348L102 -294L154 -346L100 -401Q120 -407 140.5 -404Q161 -401 177.5 -389Q194 -377 203.5 -359Q213 -341 213 -320Q213 -309 210 -299L463 -45Q469 -39 469 -30Q469 -21 463 -15ZM49 -45Q43 -39 43 -30Q43 -21 49 -15L79 15Q85 21 94 21Q103 21 109 15L226 -101L166 -162ZM427 -405L341 -363V-320L295 -274L338 -231L384 -277H427L469 -363Z"/>
</svg>