<svg xmlns="http://www.w3.org/2000/svg" viewBox="0 -512 512 512">
	<path fill="#000000" d="M427 -405H85Q68 -405 55.5 -392.5Q43 -380 43 -363V-107Q43 -89 55.5 -76.5Q68 -64 85 -64H171L256 21L341 -64H427Q444 -64 456.5 -77Q469 -90 469 -107V-363Q469 -380 456.5 -392.5Q444 -405 427 -405ZM85 -107V-363H427V-107H324L256 -39L188 -107ZM214 -319Q232 -331 261 -331Q290 -331 307.5 -317.5Q325 -304 325 -282Q325 -268 315.5 -256.5Q306 -245 291 -238Q283 -233 280 -227.5Q277 -222 277 -213H235Q235 -229 241.5 -237Q248 -245 264 -254Q272 -259 277 -266Q282 -273 282 -282Q282 -291 276.5 -296.5Q271 -302 260 -302Q252 -302 246 -297.5Q240 -293 240 -284H198Q196 -307 214 -319ZM235 -149V-192H277V-149Z"/>
</svg>