<svg xmlns="http://www.w3.org/2000/svg" viewBox="0 -512 512 512">
	<path fill="#000000" d="M427 -405H85Q68 -405 55.5 -392.5Q43 -380 43 -363V-107Q43 -89 55.5 -76.5Q68 -64 85 -64H171L256 21L341 -64H427Q444 -64 456.5 -76.5Q469 -89 469 -107V-363Q469 -380 456.5 -392.5Q444 -405 427 -405ZM256 -356Q280 -356 297 -339.5Q314 -323 314 -299Q314 -275 297 -258Q280 -241 256 -241Q232 -241 215 -258Q198 -275 198 -299Q198 -323 215 -339.5Q232 -356 256 -356ZM384 -128H128V-147Q128 -167 152 -183Q172 -197 204 -206Q233 -213 256 -213Q279 -213 308 -206Q340 -197 360 -183Q384 -167 384 -147Z"/>
</svg>