<svg xmlns="http://www.w3.org/2000/svg" viewBox="0 -512 512 512">
	<path fill="#000000" d="M85 -405H427Q444 -405 456.5 -392.5Q469 -380 469 -363V-107Q469 -89 456.5 -76.5Q444 -64 427 -64H341L256 21L171 -64H85Q68 -64 55.5 -76.5Q43 -89 43 -107V-363Q43 -380 55.5 -392.5Q68 -405 85 -405ZM85 -363V-107H188L256 -39L324 -107H427V-363ZM160 -320Q173 -320 182.5 -310.5Q192 -301 192 -288Q192 -275 182.5 -265.5Q173 -256 160 -256Q147 -256 137.5 -265.5Q128 -275 128 -288Q128 -301 137.5 -310.5Q147 -320 160 -320ZM128 -149L235 -256L277 -213L384 -320V-149Z"/>
</svg>