<svg xmlns="http://www.w3.org/2000/svg" viewBox="0 -512 512 512">
	<path fill="#000000" d="M149 -405Q119 -405 93 -386Q70 -369 56.5 -339.5Q43 -310 43 -277Q43 -244 56 -205Q69 -166 85 -149Q91 -144 97 -126Q101 -115 110 -87Q126 -35 136 -14Q153 21 171 21Q198 21 213 6Q225 -7 230 -31Q233 -46 235 -76Q237 -103 240 -113Q245 -128 256 -128Q267 -128 272 -113Q275 -103 277 -76Q279 -46 282 -31Q287 -7 299 6Q314 21 341 21Q359 21 376 -14Q386 -35 402 -87Q411 -115 415 -126Q421 -144 427 -149Q443 -166 456 -205Q469 -244 469 -277Q469 -310 455.5 -339.5Q442 -369 419 -386Q393 -405 363 -405Q339 -405 322 -401Q312 -399 297 -393Q286 -388 280 -387Q269 -384 256 -384Q243 -384 232 -387Q226 -388 215 -393Q200 -399 190 -401Q173 -405 149 -405ZM149 -363Q164 -363 178 -359Q187 -357 203 -352Q219 -347 227 -345Q242 -341 256 -341Q270 -341 285 -345Q293 -347 309 -352Q325 -357 334 -359Q348 -363 363 -363Q389 -363 408 -336.5Q427 -310 427 -277Q427 -249 415 -217Q403 -185 388 -169Q382 -163 373 -138Q367 -123 356 -88Q346 -54 342 -42Q335 -23 331 -23Q327 -23 323.5 -38Q320 -53 320 -73Q320 -113 307 -138Q291 -171 256 -171Q221 -171 205 -138Q192 -113 192 -73Q192 -53 188.5 -38Q185 -23 181 -23Q177 -23 170 -42Q166 -54 156 -88Q145 -123 139 -138Q130 -163 124 -169Q109 -185 97 -217Q85 -249 85 -277Q85 -310 104 -336.5Q123 -363 149 -363Z"/>
</svg>