<svg xmlns="http://www.w3.org/2000/svg" viewBox="0 -512 512 512">
	<path fill="#000000" d="M427 -235V-299L363 -363H149L85 -299V-235Q68 -235 55.5 -222.5Q43 -210 43 -192Q43 -174 55.5 -161.5Q68 -149 85 -149V-64Q85 -46 97.5 -33.5Q110 -21 128 -21H384Q402 -21 414.5 -33.5Q427 -46 427 -64V-149Q444 -149 456.5 -161.5Q469 -174 469 -192Q469 -210 456.5 -222.5Q444 -235 427 -235ZM256 -107Q221 -107 196 -132Q171 -157 171 -192Q171 -227 196 -252Q221 -277 256 -277Q291 -277 316 -252Q341 -227 341 -192Q341 -157 316 -132Q291 -107 256 -107ZM299 -192Q299 -174 286.5 -161.5Q274 -149 256 -149Q238 -149 225.5 -161.5Q213 -174 213 -192Q213 -210 225.5 -222.5Q238 -235 256 -235Q274 -235 286.5 -222.5Q299 -210 299 -192Z"/>
</svg>