<svg xmlns="http://www.w3.org/2000/svg" viewBox="0 -512 512 512">
	<path fill="#000000" d="M149 -299H363V-256H149ZM271 -111H282V-128H149V-85H221L228 -93Q236 -101 247 -106Q258 -111 271 -111ZM192 -43H107V-341H405V-159L448 -140V-341Q448 -359 435.5 -371.5Q423 -384 405 -384H107Q89 -384 76.5 -371.5Q64 -359 64 -341V-43Q64 -25 76.5 -12.5Q89 0 107 0H242ZM149 -171H282V-198Q282 -204 284 -213H149ZM324 -41L274 -68H271Q264 -68 259 -63L248 -51L324 15Q331 21 340 21H442Q451 21 458 14.5Q465 8 465 -2V-70Q465 -77 461.5 -83Q458 -89 452 -92L374 -126L356 -128V-198Q356 -204 351 -208.5Q346 -213 339.5 -213Q333 -213 328.5 -208.5Q324 -204 324 -198Z"/>
</svg>