<svg xmlns="http://www.w3.org/2000/svg" viewBox="0 -512 512 512">
	<path fill="#000000" d="M320 -235H435L364 -320H320ZM373 -53Q386 -53 395.5 -62.5Q405 -72 405 -85Q405 -98 395.5 -107.5Q386 -117 373 -117Q360 -117 350.5 -107.5Q341 -98 341 -85Q341 -72 350.5 -62.5Q360 -53 373 -53ZM128 -53Q142 -53 151 -62.5Q160 -72 160 -85Q160 -98 151 -107.5Q142 -117 128 -117Q114 -117 105 -107.5Q96 -98 96 -85Q96 -72 105 -62.5Q114 -53 128 -53ZM384 -363L491 -235V-85H437Q437 -59 418 -40Q399 -21 373 -21Q347 -21 328 -40Q309 -59 309 -85H192Q192 -59 173 -40Q154 -21 128 -21Q102 -21 83 -40Q64 -59 64 -85H21V-171H196L64 -275V-213H21V-341H43L277 -212V-363Z"/>
</svg>