<svg xmlns="http://www.w3.org/2000/svg" viewBox="0 -512 512 512">
	<path fill="#000000" d="M448 -235H363V-277L267 -316V-363H320V-405H245V-316L149 -277V-235H64Q55 -235 49 -228.5Q43 -222 43 -213V21H213V-85H299V21H469V-213Q469 -222 463 -228.5Q457 -235 448 -235ZM171 -21H85V-85H171ZM171 -128H85V-192H171ZM256 -277Q265 -277 271 -271Q277 -265 277 -256Q277 -247 271 -241Q265 -235 256 -235Q247 -235 241 -241Q235 -247 235 -256Q235 -265 241 -271Q247 -277 256 -277ZM299 -128H213V-192H299ZM427 -21H341V-85H427ZM427 -128H341V-192H427Z"/>
</svg>