<svg xmlns="http://www.w3.org/2000/svg" viewBox="0 -512 512 512">
	<path fill="#000000" d="M405 -320V-341Q405 -359 392.5 -371.5Q380 -384 363 -384H320Q302 -384 289.5 -371.5Q277 -359 277 -341V-320H235V-341Q235 -359 222.5 -371.5Q210 -384 192 -384H149Q132 -384 119.5 -371.5Q107 -359 107 -341V-320H64V-21H310Q281 -65 277 -117Q278 -149 293.5 -176Q309 -203 336 -218.5Q363 -234 395 -235Q423 -235 448 -221V-320ZM395 -192Q364 -192 342 -170Q320 -148 320 -117Q320 -93 339 -57Q353 -31 375 -2L395 21L414 -2Q436 -31 450 -57Q469 -93 469 -117Q469 -148 447 -170Q425 -192 395 -192ZM395 -90Q384 -90 376.5 -97.5Q369 -105 369 -115.5Q369 -126 376.5 -133.5Q384 -141 394.5 -140.5Q405 -140 412.5 -133Q420 -126 420.5 -115Q421 -104 413 -96.5Q405 -89 395 -90Z"/>
</svg>