<svg xmlns="http://www.w3.org/2000/svg" viewBox="0 -512 512 512">
	<path fill="#000000" d="M405 -320V-341Q405 -359 392.5 -371.5Q380 -384 363 -384H320Q302 -384 289.5 -371.5Q277 -359 277 -341V-320H235V-341Q235 -359 222.5 -371.5Q210 -384 192 -384H149Q132 -384 119.5 -371.5Q107 -359 107 -341V-320H64V-21H279Q277 -32 277 -43Q277 -74 291.5 -101.5Q306 -129 331.5 -147Q357 -165 388 -169.5Q419 -174 448 -163V-320ZM481 -88L435 -43L481 3L451 33L405 -13L360 33L330 3L375 -43L330 -88L360 -118L405 -73L451 -118Z"/>
</svg>