<svg xmlns="http://www.w3.org/2000/svg" viewBox="0 -512 512 512">
	<path fill="#000000" d="M405 -320V-341Q405 -359 392.5 -371.5Q380 -384 363 -384H320Q302 -384 289.5 -371.5Q277 -359 277 -341V-320H235V-341Q235 -359 222.5 -371.5Q210 -384 192 -384H149Q132 -384 119.5 -371.5Q107 -359 107 -341V-320H64V-21H252Q234 -40 224 -64H107V-277H405V-245Q429 -235 448 -217V-320ZM433 -66Q453 -97 447 -133Q441 -169 412.5 -192Q384 -215 347 -213Q310 -211 284 -185.5Q258 -160 256 -123.5Q254 -87 277 -58Q300 -29 336 -23Q372 -17 403 -36L469 30L499 0ZM352 -64Q330 -64 314.5 -79.5Q299 -95 299 -117Q299 -139 314.5 -155Q330 -171 352 -171Q374 -171 389.5 -155Q405 -139 405 -117Q405 -95 389.5 -79.5Q374 -64 352 -64Z"/>
</svg>