<svg xmlns="http://www.w3.org/2000/svg" viewBox="0 -512 512 512">
	<path fill="#000000" d="M107 -363V-208Q78 -198 60.5 -173Q43 -148 43 -117Q43 -77 71 -49Q99 -21 139 -21Q175 -21 202.5 -45.5Q230 -70 234 -107H324Q320 -96 320 -85Q320 -59 338.5 -40Q357 -21 384 -21Q411 -21 429.5 -40Q448 -59 448 -85Q448 -96 444 -107H469V-171Q469 -188 456.5 -200.5Q444 -213 427 -213H321L291 -363ZM149 -320H256L277 -213V-149H229Q220 -175 198.5 -192Q177 -209 149 -213ZM139 -165Q159 -165 173 -151Q187 -137 187 -117Q187 -97 173 -83Q159 -69 139 -69Q119 -69 105 -83Q91 -97 91 -117Q91 -137 105 -151Q119 -165 139 -165ZM384 -117Q397 -117 406.5 -108Q416 -99 416 -85.5Q416 -72 406.5 -62.5Q397 -53 384 -53Q371 -53 361.5 -62.5Q352 -72 352 -85.5Q352 -99 361.5 -108Q371 -117 384 -117Z"/>
</svg>