<svg xmlns="http://www.w3.org/2000/svg" viewBox="0 -512 512 512">
	<path fill="#000000" d="M64 -427Q46 -427 33.5 -414.5Q21 -402 21 -384V-85Q21 -68 33.5 -55.5Q46 -43 64 -43H299V-85H256V-171H356Q383 -192 416 -192Q432 -192 448 -186V-384Q448 -402 435.5 -414.5Q423 -427 405 -427ZM64 -384H405V-213H64ZM64 -171H213V-85H64ZM416 -149Q394 -149 378.5 -133.5Q363 -118 363 -96V-85Q354 -85 347.5 -79Q341 -73 341 -64V21Q341 30 347.5 36.5Q354 43 363 43H469Q478 43 484.5 36.5Q491 30 491 21V-64Q491 -73 484.5 -79Q478 -85 469 -85V-96Q469 -118 453.5 -133.5Q438 -149 416 -149ZM416 -128Q429 -128 438.5 -118.5Q448 -109 448 -96V-85H384V-96Q384 -109 393.5 -118.5Q403 -128 416 -128Z"/>
</svg>