<svg xmlns="http://www.w3.org/2000/svg" viewBox="0 -512 512 512">
	<path fill="#000000" d="M284 -388L209 -314L224 -299L254 -328L277 -305V-256Q277 -238 264.5 -225.5Q252 -213 235 -213H223Q256 -177 256 -128Q256 -117 254 -107H321Q325 -143 352 -167.5Q379 -192 416 -192Q445 -192 469 -176V-277Q469 -295 456.5 -307.5Q444 -320 427 -320H292L269 -343L299 -373ZM85 -299Q77 -299 70.5 -292.5Q64 -286 64 -277.5Q64 -269 70.5 -262.5Q77 -256 85 -256H192Q192 -274 179.5 -286.5Q167 -299 149 -299ZM128 -235Q111 -235 95 -229L102 -209L92 -206L85 -225Q50 -210 33 -176L52 -167L48 -158L29 -166Q21 -148 21 -128Q21 -111 27 -95L47 -102L50 -92L31 -85Q46 -50 80 -33L88 -52L98 -48L90 -29Q108 -21 128 -21Q145 -21 161 -27L154 -47L164 -50L171 -31Q206 -46 223 -80L204 -88L208 -98L227 -90Q235 -108 235 -128Q235 -145 229 -161L209 -154L206 -164L225 -171Q210 -206 176 -223L168 -204L158 -208L166 -227Q148 -235 128 -235ZM128 -192Q155 -192 173.5 -173.5Q192 -155 192 -128Q192 -101 173.5 -82.5Q155 -64 128 -64Q101 -64 82.5 -82.5Q64 -101 64 -128Q64 -155 82.5 -173.5Q101 -192 128 -192ZM416 -171Q385 -171 363 -149Q341 -127 341 -96Q341 -65 363 -43Q385 -21 416 -21Q447 -21 469 -43Q491 -65 491 -96Q491 -127 469 -149Q447 -171 416 -171ZM416 -128Q429 -128 438.5 -118.5Q448 -109 448 -96Q448 -83 438.5 -73.5Q429 -64 416 -64Q403 -64 393.5 -73.5Q384 -83 384 -96Q384 -109 393.5 -118.5Q403 -128 416 -128Z"/>
</svg>