<svg xmlns="http://www.w3.org/2000/svg" viewBox="0 -512 512 512">
	<path fill="#000000" d="M427 -235H363V-259Q391 -266 409 -289Q427 -312 427 -341H363V-363Q363 -371 356.5 -377.5Q350 -384 341 -384H171Q162 -384 155.5 -377.5Q149 -371 149 -363V-341H85Q85 -312 103 -289Q121 -266 149 -259V-235H85Q85 -205 103 -182.5Q121 -160 149 -152V-128H85Q85 -99 103 -76Q121 -53 149 -46V-21Q149 -13 155.5 -6.5Q162 0 171 0H341Q350 0 356.5 -6.5Q363 -13 363 -21V-46Q391 -53 409 -76Q427 -99 427 -128H363V-152Q391 -160 409 -182.5Q427 -205 427 -235ZM320 -43H192V-341H320ZM256 -64Q269 -64 278.5 -73.5Q288 -83 288 -96Q288 -109 278.5 -118.5Q269 -128 256 -128Q243 -128 233.5 -118.5Q224 -109 224 -96Q224 -83 233.5 -73.5Q243 -64 256 -64ZM256 -160Q269 -160 278.5 -169.5Q288 -179 288 -192Q288 -205 278.5 -214.5Q269 -224 256 -224Q243 -224 233.5 -214.5Q224 -205 224 -192Q224 -179 233.5 -169.5Q243 -160 256 -160ZM256 -256Q269 -256 278.5 -265.5Q288 -275 288 -288Q288 -301 278.5 -310.5Q269 -320 256 -320Q243 -320 233.5 -310.5Q224 -301 224 -288Q224 -275 233.5 -265.5Q243 -256 256 -256Z"/>
</svg>