<svg xmlns="http://www.w3.org/2000/svg" viewBox="0 -512 512 512">
	<path fill="#000000" d="M256 -256Q238 -256 225.5 -268.5Q213 -281 213 -298.5Q213 -316 225.5 -328.5Q238 -341 256 -341Q274 -341 286.5 -328.5Q299 -316 299 -298.5Q299 -281 286.5 -268.5Q274 -256 256 -256ZM256 -149Q238 -149 225.5 -161.5Q213 -174 213 -192Q213 -210 225.5 -222.5Q238 -235 256 -235Q274 -235 286.5 -222.5Q299 -210 299 -192Q299 -174 286.5 -161.5Q274 -149 256 -149ZM256 -43Q238 -43 225.5 -55.5Q213 -68 213 -85.5Q213 -103 225.5 -115.5Q238 -128 256 -128Q274 -128 286.5 -115.5Q299 -103 299 -85.5Q299 -68 286.5 -55.5Q274 -43 256 -43ZM427 -235H363V-259Q391 -266 409 -289Q427 -312 427 -341H363V-363Q363 -372 356.5 -378Q350 -384 341 -384H171Q162 -384 155.5 -378Q149 -372 149 -363V-341H85Q85 -312 103 -289Q121 -266 149 -259V-235H85Q85 -205 103 -182.5Q121 -160 149 -152V-128H85Q85 -99 103 -76Q121 -53 149 -46V-21Q149 -12 155.5 -6Q162 0 171 0H341Q350 0 356.5 -6Q363 -12 363 -21V-46Q391 -53 409 -76Q427 -99 427 -128H363V-152Q391 -160 409 -182.5Q427 -205 427 -235Z"/>
</svg>