<svg xmlns="http://www.w3.org/2000/svg" viewBox="0 -512 512 512">
	<path fill="#000000" d="M453 -128Q469 -146 469 -171Q469 -197 450.5 -216Q432 -235 405 -235H107Q80 -235 61.5 -216Q43 -197 43 -171Q43 -146 59 -128H21V-85H43Q43 -68 55.5 -55.5Q68 -43 85.5 -43Q103 -43 115.5 -55.5Q128 -68 128 -85H384Q384 -68 396.5 -55.5Q409 -43 426.5 -43Q444 -43 456.5 -55.5Q469 -68 469 -85H491V-128ZM405 -192Q414 -192 420.5 -185.5Q427 -179 427 -170.5Q427 -162 420.5 -155.5Q414 -149 405.5 -149Q397 -149 390.5 -155.5Q384 -162 384 -170.5Q384 -179 390.5 -185.5Q397 -192 405 -192ZM256 -192Q265 -192 271 -185.5Q277 -179 277 -170.5Q277 -162 271 -155.5Q265 -149 256 -149Q247 -149 241 -155.5Q235 -162 235 -170.5Q235 -179 241 -185.5Q247 -192 256 -192ZM107 -192Q115 -192 121.5 -185.5Q128 -179 128 -170.5Q128 -162 121.5 -155.5Q115 -149 106.5 -149Q98 -149 91.5 -155.5Q85 -162 85 -170.5Q85 -179 91.5 -185.5Q98 -192 107 -192ZM291 -320L282 -363H469V-320ZM427 -256H85V-277H128L149 -384H256L277 -277H427Z"/>
</svg>