<svg xmlns="http://www.w3.org/2000/svg" viewBox="0 -512 512 512">
	<path fill="#000000" d="M256 -405Q178 -405 139 -391Q85 -371 85 -320V-117Q85 -86 107 -64.5Q129 -43 160 -43L128 -11V0H176L218 -43H299L341 0H384V-11L352 -43Q383 -43 405 -64.5Q427 -86 427 -117V-320Q427 -371 377 -391Q339 -405 256 -405ZM160 -85Q147 -85 137.5 -94.5Q128 -104 128 -117.5Q128 -131 137.5 -140Q147 -149 160 -149Q173 -149 182.5 -140Q192 -131 192 -117.5Q192 -104 182.5 -94.5Q173 -85 160 -85ZM235 -235H128V-320H235ZM277 -235V-320H384V-235ZM352 -85Q339 -85 329.5 -94.5Q320 -104 320 -117.5Q320 -131 329.5 -140Q339 -149 352 -149Q365 -149 374.5 -140Q384 -131 384 -117.5Q384 -104 374.5 -94.5Q365 -85 352 -85Z"/>
</svg>