<svg xmlns="http://www.w3.org/2000/svg" viewBox="0 -512 512 512">
	<path fill="#000000" d="M256 -363H107Q80 -363 61.5 -344Q43 -325 43 -299V-128Q43 -101 61.5 -82.5Q80 -64 107 -64L85 -43V-21H107L149 -65L192 -64V-171H85V-320H277V-277H320V-299Q320 -325 301.5 -344Q283 -363 256 -363ZM107 -149Q116 -149 122 -143Q128 -137 128 -128Q128 -119 122 -113Q116 -107 107 -107Q98 -107 91.5 -113Q85 -119 85 -128Q85 -137 91.5 -143Q98 -149 107 -149ZM439 -242Q437 -248 431 -252Q425 -256 418 -256H265Q257 -256 251.5 -252Q246 -248 244 -242L213 -154V-37Q213 -31 217.5 -26Q222 -21 228 -21H241Q247 -21 251.5 -26Q256 -31 256 -38V-64H427V-38Q427 -31 431 -26Q435 -21 441 -21H454Q460 -21 464.5 -26Q469 -31 469 -37V-154ZM265 -235H418L440 -171H243ZM256 -107Q247 -107 241 -113Q235 -119 235 -128Q235 -137 241 -143Q247 -149 256 -149Q265 -149 271 -143Q277 -137 277 -128Q277 -119 271 -113Q265 -107 256 -107ZM427 -107Q418 -107 411.5 -113Q405 -119 405 -128Q405 -137 411.5 -143Q418 -149 427 -149Q436 -149 442 -143Q448 -137 448 -128Q448 -119 442 -113Q436 -107 427 -107Z"/>
</svg>