<svg xmlns="http://www.w3.org/2000/svg" viewBox="0 -512 512 512">
	<path fill="#000000" d="M107 -405H256Q282 -405 301 -386.5Q320 -368 320 -341V-320H277V-363H85V-213H192V-107H171L107 -43H85V-85L107 -107Q80 -107 61.5 -125.5Q43 -144 43 -171V-341Q43 -368 61.5 -386.5Q80 -405 107 -405ZM122 -186Q115 -192 107 -192Q99 -192 92 -185.5Q85 -179 85 -171Q85 -163 91.5 -156Q98 -149 106.5 -149Q115 -149 121.5 -155.5Q128 -162 128 -170.5Q128 -179 122 -186ZM235 -213Q235 -242 253 -259Q275 -277 320 -277H384Q429 -277 451 -259Q469 -242 469 -213V-64Q469 -52 463.5 -42.5Q458 -33 448 -27V0Q448 9 441.5 15Q435 21 426.5 21Q418 21 411.5 15Q405 9 405 0V-21H299V0Q299 9 292.5 15Q286 21 277.5 21Q269 21 262.5 15Q256 9 256 0V-27Q246 -33 240.5 -42.5Q235 -52 235 -64ZM277 -235V-149H427V-235ZM299 -64Q307 -64 313.5 -70.5Q320 -77 320 -85.5Q320 -94 313.5 -100.5Q307 -107 298.5 -107Q290 -107 283.5 -100.5Q277 -94 277 -85.5Q277 -77 283.5 -70.5Q290 -64 299 -64ZM427 -85Q427 -94 420.5 -100.5Q414 -107 405.5 -107Q397 -107 390.5 -100.5Q384 -94 384 -85.5Q384 -77 390.5 -70.5Q397 -64 405.5 -64Q414 -64 420.5 -70.5Q427 -77 427 -85Z"/>
</svg>