<svg xmlns="http://www.w3.org/2000/svg" viewBox="0 -512 512 512">
	<path fill="#000000" d="M448 -320H64Q46 -320 33.5 -307.5Q21 -295 21 -277V-85H43Q43 -68 55.5 -55.5Q68 -43 85.5 -43Q103 -43 115.5 -55.5Q128 -68 128 -85H384Q384 -68 396.5 -55.5Q409 -43 426.5 -43Q444 -43 456.5 -55.5Q469 -68 469 -85H491V-277Q491 -295 478.5 -307.5Q466 -320 448 -320ZM162 -188Q171 -188 178 -181Q185 -174 185 -164.5Q185 -155 178 -148Q171 -141 161.5 -141Q152 -141 145 -148Q138 -155 138 -164.5Q138 -174 145 -181Q152 -188 162 -188ZM150 -212L185 -243H248L311 -212ZM206 -149H306Q311 -136 321 -128H191Q201 -136 206 -149ZM327 -164Q327 -174 334 -181Q341 -188 350.5 -188Q360 -188 367 -181Q374 -174 374 -164.5Q374 -155 367 -148Q360 -141 350.5 -141Q341 -141 334 -148Q327 -155 327 -164ZM380 -128Q390 -136 395 -149H429V-164Q429 -175 421 -182Q417 -186 404 -193L256 -267H177L130 -227H115Q101 -227 92 -218Q83 -209 83 -196V-149H117Q122 -136 132 -128H64V-277H448V-128Z"/>
</svg>