<svg xmlns="http://www.w3.org/2000/svg" viewBox="0 -512 512 512">
	<path fill="#000000" d="M405 -87V-267Q405 -308 368 -326Q339 -340 277 -341L293 -373H363V-405H149V-373H251L235 -341Q176 -339 146 -325Q107 -307 107 -267V-87Q107 -64 123 -46Q139 -28 162 -23L128 11V21H176L218 -21H299L341 21H384V11L352 -21H350Q376 -21 390.5 -39.5Q405 -58 405 -87ZM256 -53Q243 -53 233.5 -62.5Q224 -72 224 -85.5Q224 -99 233.5 -108Q243 -117 256 -117Q269 -117 278.5 -108Q288 -99 288 -85.5Q288 -72 278.5 -62.5Q269 -53 256 -53ZM363 -149H149V-256H363Z"/>
</svg>