<svg xmlns="http://www.w3.org/2000/svg" viewBox="0 -512 512 512">
	<path fill="#000000" d="M352 -117H469V-85H352V-48L299 -101L352 -155ZM416 -27V-64L469 -11L416 43V5H299V-27ZM203 -331Q185 -331 172.5 -343.5Q160 -356 160 -373.5Q160 -391 172.5 -403.5Q185 -416 202.5 -416Q220 -416 232.5 -403.5Q245 -391 245 -373.5Q245 -356 232.5 -343.5Q220 -331 203 -331ZM123 -258L85 -242V-171H43V-271L155 -317Q163 -320 171 -320Q182 -320 191.5 -314.5Q201 -309 207 -300L227 -266Q242 -242 266.5 -227.5Q291 -213 320 -213V-171Q285 -171 255 -185.5Q225 -200 204 -226L191 -162L235 -118V43H192V-85L146 -128L109 43H64Z"/>
</svg>