<svg xmlns="http://www.w3.org/2000/svg" viewBox="0 -512 512 512">
	<path fill="#000000" d="M256 -256Q235 -256 219 -244.5Q203 -233 196 -213H145Q139 -233 122.5 -244.5Q106 -256 85 -256Q58 -256 39.5 -237.5Q21 -219 21 -192Q21 -165 39.5 -146.5Q58 -128 85 -128Q106 -128 122.5 -139.5Q139 -151 145 -171H196Q203 -151 219 -139.5Q235 -128 256 -128Q277 -128 293 -139.5Q309 -151 316 -171H367Q373 -151 389.5 -139.5Q406 -128 427 -128Q454 -128 472.5 -146.5Q491 -165 491 -192Q491 -219 472.5 -237.5Q454 -256 427 -256Q406 -256 389.5 -244.5Q373 -233 367 -213H316Q309 -233 293 -244.5Q277 -256 256 -256ZM64 -192Q64 -202 70 -207.5Q76 -213 85.5 -213Q95 -213 101 -207.5Q107 -202 107 -192Q107 -182 101 -176.5Q95 -171 85.5 -171Q76 -171 70 -176.5Q64 -182 64 -192ZM448 -192Q448 -182 442 -176.5Q436 -171 426.5 -171Q417 -171 411 -176.5Q405 -182 405 -192Q405 -202 411 -207.5Q417 -213 426.5 -213Q436 -213 442 -207.5Q448 -202 448 -192Z"/>
</svg>