<svg xmlns="http://www.w3.org/2000/svg" viewBox="0 -512 512 512">
	<path fill="#000000" d="M320 -192Q320 -212 308 -228.5Q296 -245 277 -252V-303Q296 -309 308 -325.5Q320 -342 320 -363Q320 -389 301.5 -408Q283 -427 256 -427Q229 -427 210.5 -408Q192 -389 192 -363Q192 -342 204 -325.5Q216 -309 235 -303V-252Q216 -245 204 -228.5Q192 -212 192 -192Q192 -172 204 -155.5Q216 -139 235 -132V-81Q216 -75 204 -58.5Q192 -42 192 -21Q192 5 210.5 24Q229 43 256 43Q283 43 301.5 24Q320 5 320 -21Q320 -42 308 -58.5Q296 -75 277 -81V-132Q296 -139 308 -155.5Q320 -172 320 -192ZM256 -384Q265 -384 271 -378Q277 -372 277 -363Q277 -354 271 -347.5Q265 -341 256 -341Q247 -341 241 -347.5Q235 -354 235 -363Q235 -372 241 -378Q247 -384 256 -384ZM256 0Q247 0 241 -6Q235 -12 235 -21Q235 -30 241 -36.5Q247 -43 256 -43Q265 -43 271 -36.5Q277 -30 277 -21Q277 -12 271 -6Q265 0 256 0Z"/>
</svg>