<svg xmlns="http://www.w3.org/2000/svg" viewBox="0 -512 512 512">
	<path fill="#000000" d="M448 -192Q448 -255 412.5 -304.5Q377 -354 320 -373Q315 -396 297.5 -411.5Q280 -427 256 -427Q229 -427 210.5 -408.5Q192 -390 192 -362.5Q192 -335 210.5 -317Q229 -299 256 -299Q273 -299 288 -307.5Q303 -316 311 -331Q354 -314 379.5 -276.5Q405 -239 405 -192.5Q405 -146 379 -107.5Q353 -69 311 -53Q303 -68 288 -76.5Q273 -85 256 -85Q229 -85 210.5 -67Q192 -49 192 -21.5Q192 6 210.5 24.5Q229 43 256 43Q280 43 297.5 27.5Q315 12 320 -11Q377 -30 412.5 -80Q448 -130 448 -192ZM256 -341Q246 -341 240.5 -347Q235 -353 235 -362.5Q235 -372 240.5 -378Q246 -384 256 -384Q266 -384 271.5 -378Q277 -372 277 -362.5Q277 -353 271.5 -347Q266 -341 256 -341ZM256 0Q246 0 240.5 -6Q235 -12 235 -21.5Q235 -31 240.5 -37Q246 -43 256 -43Q266 -43 271.5 -37Q277 -31 277 -21.5Q277 -12 271.5 -6Q266 0 256 0ZM256 -256Q283 -256 301.5 -237.5Q320 -219 320 -192Q320 -165 301.5 -146.5Q283 -128 256 -128Q229 -128 210.5 -146.5Q192 -165 192 -192Q192 -219 210.5 -237.5Q229 -256 256 -256Z"/>
</svg>