<svg xmlns="http://www.w3.org/2000/svg" viewBox="0 -512 512 512">
	<path fill="#000000" d="M235 -427H64Q46 -427 33.5 -414.5Q21 -402 21 -384V-128L85 -192H192V-213Q192 -249 217 -274Q242 -299 277 -299V-384Q277 -402 264.5 -414.5Q252 -427 235 -427ZM235 -363H203Q192 -324 164 -293H163L190 -266L182 -244L149 -277L96 -224L81 -240L135 -293Q115 -315 104 -341H125Q135 -321 149 -305Q172 -331 183 -363H64V-384H139V-405H160V-384H235ZM448 -256H277Q260 -256 247.5 -243.5Q235 -231 235 -213V-64Q235 -46 247.5 -33.5Q260 -21 277 -21H427L491 43V-213Q491 -231 478.5 -243.5Q466 -256 448 -256ZM419 -43L401 -91H325L307 -43H275L347 -235H379L451 -43ZM363 -192L389 -123H337Z"/>
</svg>