<svg xmlns="http://www.w3.org/2000/svg" viewBox="0 -512 512 512">
	<path fill="#000000" d="M405 -384Q390 -384 376.5 -377Q363 -370 354 -358Q324 -364 293 -363L296 -320Q319 -321 341 -317Q342 -291 361.5 -273Q381 -255 407 -256Q433 -257 451.5 -276Q470 -295 469.5 -321Q469 -347 450.5 -365.5Q432 -384 405 -384ZM405 -299Q396 -299 390 -305Q384 -311 384 -320Q384 -329 390 -335Q396 -341 405 -341Q414 -341 420.5 -335Q427 -329 427 -320Q427 -311 420.5 -305Q414 -299 405 -299ZM189 -280L164 -315Q202 -343 247 -355L258 -313Q220 -304 189 -280ZM448 -64Q448 -43 435.5 -26Q423 -9 403 -2.5Q383 4 363 -3Q343 -10 331 -28Q319 -46 320 -67Q321 -88 335 -104Q304 -134 264.5 -148.5Q225 -163 183 -161Q177 -161 169 -159Q165 -135 146 -120Q127 -105 103 -106.5Q79 -108 61.5 -125Q44 -142 42.5 -166Q41 -190 55.5 -209.5Q70 -229 94 -233Q108 -261 129 -284L160 -255Q148 -241 139 -226Q154 -217 163 -201Q166 -202 174 -203L181 -204Q235 -206 285 -186Q335 -166 372 -127Q378 -128 384 -128Q411 -128 429.5 -109.5Q448 -91 448 -64Z"/>
</svg>