<svg xmlns="http://www.w3.org/2000/svg" viewBox="0 -512 512 512">
	<path fill="#000000" d="M224 -384Q184 -384 156 -356Q128 -328 128 -288Q128 -269 136 -250Q122 -237 114.5 -219Q107 -201 107 -181Q107 -141 135 -113Q163 -85 203 -85Q217 -85 235 -91V0H277V-112Q295 -107 309 -107Q333 -107 354.5 -116Q376 -125 392.5 -141.5Q409 -158 418 -179.5Q427 -201 427 -224Q427 -247 418 -268.5Q409 -290 392.5 -306.5Q376 -323 354.5 -332Q333 -341 309 -341H304Q290 -361 269 -372.5Q248 -384 224 -384ZM224 -341Q245 -341 260.5 -326.5Q276 -312 277 -291Q292 -299 309 -299Q340 -299 362 -277Q384 -255 384 -224Q384 -193 362 -171Q340 -149 308.5 -149Q277 -149 255 -173Q252 -153 237 -140.5Q222 -128 203 -128Q181 -128 165 -143.5Q149 -159 149 -180Q149 -201 161 -215Q169 -225 192 -239Q180 -255 175.5 -266Q171 -277 171 -288Q171 -310 186.5 -325.5Q202 -341 224 -341Z"/>
</svg>