<svg xmlns="http://www.w3.org/2000/svg" viewBox="0 -512 512 512">
	<path fill="#000000" d="M64 -363H363V-277H427L491 -192V-85H448Q448 -59 429.5 -40Q411 -21 384 -21Q357 -21 338.5 -40Q320 -59 320 -85H192Q192 -59 173.5 -40Q155 -21 128 -21Q101 -21 82.5 -40Q64 -59 64 -85H21V-320Q21 -338 33.5 -350.5Q46 -363 64 -363ZM363 -245V-192H458L416 -245ZM128 -117Q115 -117 105.5 -108Q96 -99 96 -85.5Q96 -72 105.5 -62.5Q115 -53 128 -53Q141 -53 150.5 -62.5Q160 -72 160 -85.5Q160 -99 150.5 -108Q141 -117 128 -117ZM384 -117Q371 -117 361.5 -108Q352 -99 352 -85.5Q352 -72 361.5 -62.5Q371 -53 384 -53Q397 -53 406.5 -62.5Q416 -72 416 -85.5Q416 -99 406.5 -108Q397 -117 384 -117ZM171 -149L299 -277L269 -308L171 -210L126 -254L96 -224Z"/>
</svg>