<svg xmlns="http://www.w3.org/2000/svg" viewBox="0 -512 512 512">
	<path fill="#000000" d="M363 -363H64Q46 -363 33.5 -350.5Q21 -338 21 -320V-85H64Q64 -58 82.5 -39.5Q101 -21 128 -21Q155 -21 173.5 -39.5Q192 -58 192 -85H320Q320 -58 338.5 -39.5Q357 -21 384 -21Q411 -21 429.5 -39.5Q448 -58 448 -85H491V-192L427 -277H363ZM218 -335H224Q232 -333 236.5 -326.5Q241 -320 239 -311L228 -269L271 -279Q279 -281 286 -276.5Q293 -272 294.5 -264.5Q296 -257 292 -250Q288 -243 282 -241L239 -230L269 -201Q275 -196 275 -187.5Q275 -179 269.5 -172.5Q264 -166 255.5 -166Q247 -166 241 -173L209 -203L198 -160Q197 -152 190 -148Q183 -144 175 -146.5Q167 -149 163 -156Q159 -163 162 -171L173 -213L130 -203Q122 -201 115 -205Q108 -209 106.5 -216Q105 -223 109 -230Q113 -237 119 -239L162 -250L132 -284Q127 -289 127 -297Q127 -305 132 -310.5Q137 -316 145.5 -316Q154 -316 160 -311L190 -282L201 -324Q202 -328 207 -331.5Q212 -335 218 -335ZM363 -245H416L459 -192H363ZM128 -117Q141 -117 150.5 -107.5Q160 -98 160 -85.5Q160 -73 150.5 -63Q141 -53 128 -53Q115 -53 105.5 -63Q96 -73 96 -85.5Q96 -98 105.5 -107.5Q115 -117 128 -117ZM384 -117Q397 -117 406.5 -107.5Q416 -98 416 -85.5Q416 -73 406.5 -63Q397 -53 384 -53Q371 -53 361.5 -63Q352 -73 352 -85.5Q352 -98 361.5 -107.5Q371 -117 384 -117Z"/>
</svg>