<svg xmlns="http://www.w3.org/2000/svg" viewBox="0 -512 512 512">
	<path fill="#000000" d="M16 -288H224L240 -256H32ZM37 -224H245L261 -192H53ZM384 -53Q397 -53 406.5 -62.5Q416 -72 416 -85.5Q416 -99 406.5 -108Q397 -117 384 -117Q371 -117 361.5 -108Q352 -99 352 -85.5Q352 -72 361.5 -62.5Q371 -53 384 -53ZM416 -245H363V-192H458ZM171 -53Q184 -53 193.5 -62.5Q203 -72 203 -85.5Q203 -99 193.5 -108Q184 -117 170.5 -117Q157 -117 148 -108Q139 -99 139 -85.5Q139 -72 148 -62.5Q157 -53 171 -53ZM427 -277L491 -192V-85H448Q448 -59 429.5 -40Q411 -21 384 -21Q357 -21 338.5 -40Q320 -59 320 -85H235Q235 -59 216 -40Q197 -21 170.5 -21Q144 -21 125.5 -40Q107 -59 107 -85H64V-160H107V-128H123Q142 -149 170.5 -149Q199 -149 218 -128H320V-320H64Q64 -338 76.5 -350.5Q89 -363 107 -363H363V-277Z"/>
</svg>