<svg xmlns="http://www.w3.org/2000/svg" viewBox="0 -512 512 512">
	<path fill="#000000" d="M384 -363H277V-171H21V-85H64Q64 -59 83 -40Q102 -21 128 -21Q154 -21 173 -40Q192 -59 192 -85H309Q309 -59 328 -40Q347 -21 373 -21Q399 -21 418 -40Q437 -59 437 -85H491V-235ZM151 -63Q142 -53 128 -53Q114 -53 105 -62.5Q96 -72 96 -85Q96 -98 105 -107.5Q114 -117 128 -117Q142 -117 151 -107.5Q160 -98 160 -85Q160 -72 151 -63ZM396 -63Q386 -53 373 -53Q360 -53 350.5 -62.5Q341 -72 341 -85Q341 -98 350.5 -107.5Q360 -117 373 -117Q386 -117 395.5 -107.5Q405 -98 405 -85Q405 -72 396 -63ZM320 -235V-320H364L435 -235Z"/>
</svg>