<svg xmlns="http://www.w3.org/2000/svg" viewBox="0 -512 512 512">
	<path fill="#000000" d="M316 -375L200 -355L215 -271L16 -236L34 -131L76 -138Q81 -112 102.5 -97Q124 -82 150 -86.5Q176 -91 191.5 -112.5Q207 -134 203 -160L328 -183Q333 -157 354.5 -141.5Q376 -126 402 -130.5Q428 -135 443.5 -156.5Q459 -178 454 -205L496 -212L485 -275Q482 -293 467.5 -303Q453 -313 436 -309L394 -303ZM237 -329L311 -342L361 -297L247 -276ZM134 -181Q147 -183 157.5 -175.5Q168 -168 170.5 -154.5Q173 -141 165.5 -130.5Q158 -120 145 -118Q132 -116 121 -123.5Q110 -131 108 -144.5Q106 -158 113.5 -168Q121 -178 134 -181ZM386 -225Q399 -228 409.5 -220Q420 -212 422.5 -199Q425 -186 417.5 -175Q410 -164 397 -162Q384 -160 373 -167.5Q362 -175 360 -188Q358 -201 365.5 -212Q373 -223 386 -225ZM60 -39L43 -21V21H469V-107H355Q321 -107 287 -96L258 -86Q192 -64 123 -64H121Q85 -64 60 -39Z"/>
</svg>