<svg xmlns="http://www.w3.org/2000/svg" viewBox="0 -512 512 512">
	<path fill="#000000" d="M427 -277H363V-363H21V-85H64Q64 -59 82.5 -40Q101 -21 128 -21Q155 -21 173.5 -40Q192 -59 192 -85H320Q320 -59 338.5 -40Q357 -21 384 -21Q411 -21 429.5 -40Q448 -59 448 -85H491V-192ZM128 -53Q115 -53 105.5 -62.5Q96 -72 96 -85.5Q96 -99 105.5 -108Q115 -117 128 -117Q141 -117 150.5 -108Q160 -99 160 -85.5Q160 -72 150.5 -62.5Q141 -53 128 -53ZM320 -299H277V-149H235V-299H192V-149H149V-299H107V-149H64V-320H320ZM384 -53Q371 -53 361.5 -62.5Q352 -72 352 -85.5Q352 -99 361.5 -108Q371 -117 384 -117Q397 -117 406.5 -108Q416 -99 416 -85.5Q416 -72 406.5 -62.5Q397 -53 384 -53ZM363 -192V-245H416L458 -192Z"/>
</svg>