<svg xmlns="http://www.w3.org/2000/svg" viewBox="0 -512 512 512">
	<path fill="#000000" d="M469 -320Q462 -283 437 -258Q417 -238 387 -227Q365 -218 340 -215L320 -213H85Q72 -213 56 -224Q48 -229 43 -235H21V-149H43L49 -155Q57 -161 65 -165Q76 -171 85 -171H92Q85 -161 85 -149V-107Q85 -89 97.5 -76.5Q110 -64 128 -64H149V-43H192V-64H213V-43H256V-64H277V-43H320V-64H341Q359 -64 371.5 -76.5Q384 -89 384 -107V-149Q384 -156 382 -158Q454 -133 469 -64H491V-320ZM128 -96Q123 -96 120 -99Q117 -102 117 -107V-149Q117 -154 120 -157Q123 -160 128 -160H149V-96ZM192 -96V-160H213V-96ZM256 -96V-160H277V-96ZM352 -107Q352 -102 349 -99Q346 -96 341 -96H320V-160H341Q346 -160 349 -157Q352 -154 352 -149ZM192 -235H149V-256H192ZM256 -235H213V-256H256ZM320 -235H277V-256H320Z"/>
</svg>