<svg xmlns="http://www.w3.org/2000/svg" viewBox="0 -512 512 512">
	<path fill="#000000" d="M341 0H171Q162 0 155.5 -6Q149 -12 149 -21V-191L122 -168Q115 -162 106.5 -162Q98 -162 92 -168L31 -228Q25 -235 25 -243.5Q25 -252 31 -259L157 -384H192Q192 -366 210.5 -353.5Q229 -341 256 -341Q283 -341 301.5 -353.5Q320 -366 320 -384H355L481 -259Q487 -252 487 -243.5Q487 -235 481 -228L420 -168Q414 -162 405.5 -162Q397 -162 390 -168L363 -191V-21Q363 -12 356.5 -6Q350 0 341 0ZM436 -244L344 -335Q334 -324 320 -316Q291 -299 256 -299Q229 -299 206 -308.5Q183 -318 168 -335L76 -244L107 -213L171 -256H192V-43H320V-256H341L405 -213Z"/>
</svg>