<svg xmlns="http://www.w3.org/2000/svg" viewBox="0 -512 512 512">
	<path fill="#000000" d="M341 0H171Q162 0 155.5 -6Q149 -12 149 -21V-191L122 -168Q115 -162 106.5 -162Q98 -162 92 -168L31 -228Q25 -235 25 -243.5Q25 -252 31 -259L157 -384H192Q192 -364 208 -340Q226 -312 256 -293Q286 -312 304 -340Q320 -364 320 -384H355L481 -259Q487 -252 487 -243.5Q487 -235 481 -228L420 -168Q414 -162 405.5 -162Q397 -162 390 -168L363 -191V-21Q363 -12 356.5 -6Q350 0 341 0ZM436 -244L344 -335Q324 -304 307 -287Q286 -265 256 -251Q226 -265 205 -287Q188 -304 168 -335L76 -244L107 -213L171 -256H192V-43H320V-256H341L405 -213Z"/>
</svg>