<svg xmlns="http://www.w3.org/2000/svg" viewBox="0 -512 512 512">
	<path fill="#000000" d="M472 10L51 -411L24 -384L85 -322V-21Q85 -4 97.5 8.5Q110 21 128 21H384Q403 21 415 7L445 37ZM256 -21Q221 -21 191.5 -38.5Q162 -56 145 -85.5Q128 -115 128 -149Q128 -176 138.5 -199.5Q149 -223 167 -241L184 -224H173Q165 -169 201 -134Q211 -124 214 -110Q217 -96 213 -75H254Q262 -129 226 -164Q214 -177 212 -195L299 -108Q302 -94 299 -75H333L348 -60Q330 -42 306.5 -31.5Q283 -21 256 -21ZM240 -276Q245 -277 256 -277Q291 -277 320.5 -260Q350 -243 367 -213.5Q384 -184 384 -149Q384 -139 383 -133L427 -90V-363Q427 -380 414.5 -392.5Q402 -405 384 -405H128Q121 -405 114 -403ZM213 -363Q222 -363 228.5 -356.5Q235 -350 235 -341.5Q235 -333 228.5 -326.5Q222 -320 213.5 -320Q205 -320 198.5 -326.5Q192 -333 192 -341.5Q192 -350 198.5 -356.5Q205 -363 213 -363Z"/>
</svg>