<svg xmlns="http://www.w3.org/2000/svg" viewBox="0 -512 512 512">
	<path fill="#000000" d="M171 -171Q141 -171 118.5 -153Q96 -135 88 -107H43V-64H88Q96 -36 118.5 -18Q141 0 170.5 0Q200 0 223 -18Q246 -36 253 -64H469V-107H253Q246 -135 223 -153Q200 -171 171 -171ZM171 -43Q153 -43 140.5 -55.5Q128 -68 128 -85.5Q128 -103 140.5 -115.5Q153 -128 170.5 -128Q188 -128 200.5 -115.5Q213 -103 213 -85.5Q213 -68 200.5 -55.5Q188 -43 171 -43ZM424 -320Q416 -348 393.5 -366Q371 -384 341.5 -384Q312 -384 289 -366Q266 -348 259 -320H43V-277H259Q266 -249 289 -231Q312 -213 341.5 -213Q371 -213 393.5 -231Q416 -249 424 -277H469V-320ZM341 -256Q324 -256 311.5 -268.5Q299 -281 299 -298.5Q299 -316 311.5 -328.5Q324 -341 341.5 -341Q359 -341 371.5 -328.5Q384 -316 384 -298.5Q384 -281 371.5 -268.5Q359 -256 341 -256Z"/>
</svg>