<svg xmlns="http://www.w3.org/2000/svg" viewBox="0 -512 512 512">
	<path fill="#000000" d="M171 -189V-405H128V-189Q100 -182 82 -159Q64 -136 64 -106.5Q64 -77 82 -54.5Q100 -32 128 -24V21H171V-24Q199 -32 217 -54.5Q235 -77 235 -106.5Q235 -136 217 -159Q199 -182 171 -189ZM149 -149Q167 -149 179.5 -136.5Q192 -124 192 -106.5Q192 -89 179.5 -76.5Q167 -64 149.5 -64Q132 -64 119.5 -76.5Q107 -89 107 -106.5Q107 -124 119.5 -136.5Q132 -149 149 -149ZM384 -405H341V-360Q313 -352 295 -329.5Q277 -307 277 -277.5Q277 -248 295 -225Q313 -202 341 -195V21H384V-195Q412 -202 430 -225Q448 -248 448 -277.5Q448 -307 430 -329.5Q412 -352 384 -360ZM363 -320Q380 -320 392.5 -307.5Q405 -295 405 -277.5Q405 -260 392.5 -247.5Q380 -235 362.5 -235Q345 -235 332.5 -247.5Q320 -260 320 -277.5Q320 -295 332.5 -307.5Q345 -320 363 -320Z"/>
</svg>