<svg xmlns="http://www.w3.org/2000/svg" viewBox="0 -512 512 512">
	<path fill="#000000" d="M256 -405Q198 -405 149 -376.5Q100 -348 71.5 -299Q43 -250 43 -192V21H469V-192Q469 -250 440.5 -299Q412 -348 363 -376.5Q314 -405 256 -405ZM151 -327Q189 -356 235 -361V-318Q206 -313 182 -296ZM330 -296Q306 -313 277 -318V-361Q323 -356 361 -327ZM121 -297L152 -266Q135 -242 130 -213H87Q92 -259 121 -297ZM128 -171V-117H85V-171ZM85 -21V-75H128V-21ZM360 -266L391 -297Q420 -259 425 -213H382Q377 -242 360 -266ZM384 -171H427V-117H384ZM384 -21V-75H427V-21Z"/>
</svg>