<svg xmlns="http://www.w3.org/2000/svg" viewBox="0 -512 512 512">
	<path fill="#000000" d="M43 -192Q43 -134 71.5 -85Q100 -36 149 -7.5Q198 21 256 21Q314 21 363 -7.5Q412 -36 440.5 -85Q469 -134 469 -192Q469 -250 440.5 -299Q412 -348 363 -376.5Q314 -405 256 -405Q198 -405 149 -376.5Q100 -348 71.5 -299Q43 -250 43 -192ZM427 -192Q427 -146 404 -106.5Q381 -67 341.5 -44Q302 -21 256 -21Q210 -21 170.5 -44Q131 -67 108 -106.5Q85 -146 85 -192Q85 -238 108 -277.5Q131 -317 170.5 -340Q210 -363 256 -363Q302 -363 341.5 -340Q381 -317 404 -277.5Q427 -238 427 -192ZM267 -299L260 -271L241 -341Q225 -337 216.5 -322.5Q208 -308 211 -290L218 -262L169 -314Q157 -302 157 -284.5Q157 -267 169 -256L190 -235L119 -254Q115 -238 123.5 -222.5Q132 -207 149 -203L177 -196L107 -177Q111 -161 125.5 -152.5Q140 -144 158 -147L186 -154L134 -102Q147 -91 164 -91Q181 -91 192 -102L211 -122L192 -51Q208 -46 223 -55Q238 -64 243 -81L250 -109L269 -38Q285 -43 293.5 -57.5Q302 -72 299 -90L292 -117L343 -66Q355 -79 355 -96Q355 -113 343 -124L322 -149L393 -130Q397 -146 388.5 -161.5Q380 -177 363 -181L335 -188L405 -207Q401 -223 386.5 -231.5Q372 -240 354 -237L326 -230L378 -282Q365 -293 348 -293Q331 -293 320 -282L301 -260L320 -331Q302 -334 286.5 -325Q271 -316 267 -299ZM288 -192Q288 -179 278.5 -169.5Q269 -160 256 -160Q243 -160 233.5 -169.5Q224 -179 224 -192Q224 -205 233.5 -214.5Q243 -224 256 -224Q269 -224 278.5 -214.5Q288 -205 288 -192Z"/>
</svg>