<svg xmlns="http://www.w3.org/2000/svg" viewBox="0 -512 512 512">
	<path fill="#000000" d="M181 -321Q196 -330 213 -335V-363Q213 -380 225.5 -392.5Q238 -405 256 -405Q274 -405 286.5 -392.5Q299 -380 299 -363V-335Q317 -330 331 -321L297 -276H215ZM405 -192Q405 -177 402 -162L348 -179L323 -257L357 -302Q371 -289 381 -273Q408 -275 429 -265Q445 -256 456 -241Q467 -226 469 -207L405 -200ZM107 -192Q107 -192 107 -192V-199L43 -207Q45 -226 56 -241Q67 -256 83 -265Q106 -276 130 -272Q141 -289 154 -301L189 -257L164 -179L110 -162Q107 -177 107 -192ZM218 -244H294L317 -172L256 -128L195 -172ZM173 -148L240 -100V-44Q222 -45 205 -52L179 7Q162 0 150.5 -15Q139 -30 136 -48Q131 -72 143 -95Q128 -112 119 -132ZM339 -148L393 -132Q384 -112 369 -95Q381 -72 376 -48Q373 -30 361.5 -15Q350 0 333 7L307 -52Q286 -44 272 -43V-100Z"/>
</svg>