<svg xmlns="http://www.w3.org/2000/svg" viewBox="0 -512 512 512">
	<path fill="#000000" d="M427 -171H341Q341 -153 328.5 -140.5Q316 -128 299 -128H213Q196 -128 183.5 -140.5Q171 -153 171 -171H85L43 -64V-21Q43 -4 55.5 8.5Q68 21 85 21H427Q444 21 456.5 8.5Q469 -4 469 -21V-64ZM128 -21Q119 -21 113 -27.5Q107 -34 106.5 -42.5Q106 -51 112.5 -57.5Q119 -64 128 -64Q137 -64 143 -58Q149 -52 149 -43Q149 -34 143 -27.5Q137 -21 128 -21ZM213 -21Q204 -21 198 -27.5Q192 -34 192 -42.5Q192 -51 198.5 -57.5Q205 -64 213.5 -64Q222 -64 228.5 -58Q235 -52 235 -43Q235 -34 228.5 -27.5Q222 -21 213 -21ZM299 -21Q289 -21 283 -27.5Q277 -34 277 -42.5Q277 -51 283.5 -57.5Q290 -64 298.5 -64Q307 -64 313.5 -58Q320 -52 320 -43Q320 -34 313.5 -27.5Q307 -21 299 -21ZM384 -21Q375 -21 369 -27.5Q363 -34 362.5 -42.5Q362 -51 368.5 -57.5Q375 -64 384 -64Q393 -64 399 -58Q405 -52 405 -43Q405 -34 399 -27.5Q393 -21 384 -21ZM384 -235V-384H128V-235H64V-192H448V-235ZM171 -341H341V-320H171ZM171 -299H299V-277H171Z"/>
</svg>