<svg xmlns="http://www.w3.org/2000/svg" viewBox="0 -512 512 512">
	<path fill="#000000" d="M192 -299H235V-213H277V-299H320V-85H277V-171H235V-85H192ZM363 -299H427Q453 -299 472 -280Q491 -261 491 -235V-149Q491 -123 472 -104Q453 -85 427 -85H363ZM427 -128Q436 -128 442 -134Q448 -140 448 -149V-235Q448 -244 442 -250Q436 -256 427 -256H405V-128ZM149 -149Q149 -123 130.5 -104Q112 -85 85.5 -85Q59 -85 40 -104Q21 -123 21 -149V-299H64V-149Q64 -140 70 -134Q76 -128 85 -128Q94 -128 100.5 -134Q107 -140 107 -149V-299H149Z"/>
</svg>