<svg xmlns="http://www.w3.org/2000/svg" viewBox="0 -512 512 512">
	<path fill="#000000" d="M183 -265L153 -269Q142 -213 143 -177Q145 -137 162 -117Q172 -107 195 -101Q212 -96 235 -95L254 -94L273 -95Q296 -96 314 -101Q338 -107 347 -117Q365 -137 366 -177Q368 -213 357 -269L326 -265L332 -235Q337 -200 334 -176Q331 -142 313 -135Q302 -130 276 -128Q264 -127 254 -127Q254 -127 254 -127L232 -128Q208 -130 196 -135Q172 -145 175 -206Q177 -236 183 -265ZM256 -384Q308 -384 352 -358Q396 -332 422 -288Q448 -244 448 -192Q448 -140 422 -96Q396 -52 352 -26Q308 0 256 0Q204 0 160 -26Q116 -52 90 -96Q64 -140 64 -192Q64 -244 90 -288Q116 -332 160 -358Q204 -384 256 -384Z"/>
</svg>