<svg xmlns="http://www.w3.org/2000/svg" viewBox="0 -512 512 512">
	<path fill="#000000" d="M64 -363Q55 -363 49 -356.5Q43 -350 43 -341V-235Q43 -177 71.5 -128Q100 -79 149 -50Q198 -21 256 -21Q314 -21 363 -50Q412 -79 440.5 -128Q469 -177 469 -235V-341Q469 -350 463 -356.5Q457 -363 448 -363ZM427 -320V-277H85V-320ZM85 -235H427Q427 -220 425 -213Q385 -213 351.5 -193Q318 -173 298 -139Q278 -105 277 -65Q270 -64 256 -64Q242 -64 235 -65Q234 -105 214 -139Q194 -173 160.5 -193Q127 -213 87 -213Q85 -220 85 -235ZM321 -77Q325 -113 351 -139Q377 -165 414 -170Q401 -138 376.5 -114Q352 -90 321 -77ZM98 -170Q135 -165 161 -139Q187 -113 191 -77Q160 -90 135.5 -114.5Q111 -139 98 -170Z"/>
</svg>