<svg xmlns="http://www.w3.org/2000/svg" viewBox="0 -512 512 512">
	<path fill="#000000" d="M469 -320Q469 -307 460 -298Q451 -289 438 -289Q425 -289 416 -298Q407 -307 407 -320Q407 -333 416 -342.5Q425 -352 438 -352Q451 -352 460.5 -342.5Q470 -333 469 -320ZM460 -259H417Q413 -259 413 -256V-152L414 -110H413L387 -162L319 -288L294 -332Q293 -333 290 -333H227Q223 -333 223 -330H224L223 -329V-153Q223 -132 218.5 -118Q214 -104 206 -96Q198 -88 186 -84.5Q174 -81 161 -81Q129 -81 113 -100Q97 -119 97 -152V-329Q97 -333 94 -333H46Q43 -333 43 -329V-148Q43 -119 51 -97Q59 -75 74.5 -61Q90 -47 111 -40Q135 -32 159 -32Q183 -32 205.5 -38.5Q228 -45 243.5 -59.5Q259 -74 268.5 -96.5Q278 -119 278 -150V-264L287 -246L308 -205L396 -40Q398 -37 402 -37H460Q464 -37 464 -41V-255Q464 -259 460 -259Z"/>
</svg>