<svg xmlns="http://www.w3.org/2000/svg" viewBox="0 -512 512 512">
	<path fill="#000000" d="M277 -254V-341H299Q307 -341 313.5 -347.5Q320 -354 320 -362.5Q320 -371 313.5 -377.5Q307 -384 299 -384H213Q205 -384 198.5 -377.5Q192 -371 192 -362.5Q192 -354 198.5 -347.5Q205 -341 213 -341H235V-254Q189 -246 158.5 -210.5Q128 -175 128 -128Q128 -93 145 -63.5Q162 -34 191.5 -17Q221 0 256 0Q291 0 320.5 -17Q350 -34 367 -63.5Q384 -93 384 -128Q384 -175 353.5 -210.5Q323 -246 277 -254ZM256 -43Q221 -43 196 -68Q171 -93 171 -128Q171 -157 189 -180Q207 -203 235 -210V-107H277V-210Q305 -203 323 -180Q341 -157 341 -128Q341 -93 316 -68Q291 -43 256 -43Z"/>
</svg>