<svg xmlns="http://www.w3.org/2000/svg" viewBox="0 -512 512 512">
	<path fill="#000000" d="M43 -192Q43 -150 59 -110.5Q75 -71 105 -41Q135 -11 174.5 5Q214 21 256 21Q298 21 337.5 5Q377 -11 407 -41Q437 -71 453 -110.5Q469 -150 469 -192Q469 -234 453 -273.5Q437 -313 407 -343Q377 -373 337.5 -389Q298 -405 256 -405Q214 -405 174.5 -389Q135 -373 105 -343Q75 -313 59 -273.5Q43 -234 43 -192ZM112 -48Q83 -77 67.5 -114Q52 -151 52 -192Q52 -233 67.5 -270Q83 -307 112 -336Q141 -365 178 -380.5Q215 -396 256 -396Q297 -396 334 -380.5Q371 -365 400 -336Q429 -307 444.5 -270Q460 -233 460 -192Q460 -151 444.5 -114Q429 -77 400 -48Q371 -19 334 -3.5Q297 12 256 12Q215 12 178 -3.5Q141 -19 112 -48ZM135 -245Q121 -229 112 -211Q105 -197 102 -182Q100 -172 100 -163L101 -156L105 -164Q111 -175 118 -185Q128 -200 141 -213Q159 -231 172 -231Q177 -231 180 -228Q183 -225 183 -221V-122Q183 -110 171 -110Q166 -110 161 -112Q179 -86 222 -72Q243 -65 260 -64L291 -96H292L320 -72Q343 -85 362 -108Q376 -124 387 -143L396 -158Q368 -128 350 -129Q342 -129 339 -133L338 -197Q338 -258 339 -258Q345 -268 361 -289L376 -308Q353 -303 332 -292Q316 -283 304 -273L295 -263Q289 -267 278 -269H269Q275 -265 280 -257Q285 -249 285 -241V-135L274 -128Q262 -120 253 -120Q244 -120 238 -128L235 -132V-263Q232 -260 227.5 -260.5Q223 -261 220.5 -266Q218 -271 218 -281.5Q218 -292 225 -302Q230 -309 238 -316L245 -321Q217 -313 193 -298Q166 -280 135 -245Z"/>
</svg>