<svg xmlns="http://www.w3.org/2000/svg" viewBox="0 -512 512 512">
	<path fill="#000000" d="M448 -232H303L362 -292Q333 -321 294.5 -331.5Q256 -342 218 -332.5Q180 -323 151 -294.5Q122 -266 112 -228Q102 -190 112 -152Q122 -114 151 -85.5Q180 -57 218 -47Q256 -37 294.5 -47Q333 -57 362 -85Q405 -129 405 -190H448Q448 -156 434 -121Q419 -82 392 -56Q355 -19 305.5 -6.5Q256 6 206.5 -6.5Q157 -19 120.5 -55.5Q84 -92 71 -141Q58 -190 70.5 -239Q83 -288 120 -324Q157 -360 206 -373Q255 -386 304 -373Q353 -360 390 -324L448 -384ZM267 -277V-187L341 -142L326 -116L235 -171V-277Z"/>
</svg>