<svg xmlns="http://www.w3.org/2000/svg" viewBox="0 -512 512 512">
	<path fill="#000000" d="M171 -171Q197 -171 216 -152Q235 -133 235 -106.5Q235 -80 216 -61.5Q197 -43 170.5 -43Q144 -43 125.5 -61.5Q107 -80 107 -106.5Q107 -133 125.5 -152Q144 -171 171 -171ZM171 -128Q162 -128 155.5 -121.5Q149 -115 149 -106.5Q149 -98 155.5 -91.5Q162 -85 170.5 -85Q179 -85 185.5 -91.5Q192 -98 192 -106.5Q192 -115 185.5 -121.5Q179 -128 171 -128ZM208 -356L224 -340L305 -420Q311 -427 320 -427Q329 -427 335 -420L486 -269Q491 -264 491 -255Q491 -246 483 -240L404 -160L420 -144L276 -1Q256 20 228.5 31.5Q201 43 171 43Q130 43 95.5 23Q61 3 41 -31.5Q21 -66 21 -107Q21 -137 32.5 -164.5Q44 -192 65 -212ZM246 -31L359 -144L208 -295L95 -182Q80 -167 72 -147.5Q64 -128 64 -107Q64 -78 78.5 -53.5Q93 -29 117.5 -14.5Q142 0 171 0Q192 0 211.5 -8Q231 -16 246 -31ZM321 -348L352 -318L321 -288L291 -318ZM382 -288L412 -257L382 -227L352 -257ZM439 -256L320 -375L255 -309L373 -190Z"/>
</svg>