<svg xmlns="http://www.w3.org/2000/svg" viewBox="0 -512 512 512">
	<path fill="#000000" d="M128 -192H384Q393 -192 399 -185.5Q405 -179 405 -170.5Q405 -162 399 -155.5Q393 -149 384 -149H128Q119 -149 113 -155.5Q107 -162 107 -170.5Q107 -179 113 -185.5Q119 -192 128 -192ZM128 -235Q101 -235 82.5 -216Q64 -197 64 -170.5Q64 -144 82.5 -125.5Q101 -107 128 -107H384Q411 -107 429.5 -125.5Q448 -144 448 -170.5Q448 -197 429.5 -216Q411 -235 384 -235ZM128 -277H384Q413 -277 437.5 -263Q462 -249 476.5 -224.5Q491 -200 491 -171Q491 -142 476.5 -117.5Q462 -93 437.5 -78.5Q413 -64 384 -64H128Q99 -64 74.5 -78.5Q50 -93 35.5 -117.5Q21 -142 21 -171Q21 -200 35.5 -224.5Q50 -249 74.5 -263Q99 -277 128 -277Z"/>
</svg>