<svg xmlns="http://www.w3.org/2000/svg" viewBox="0 -512 512 512">
	<path fill="#000000" d="M320 -299V-213H341V-171H277V-341H320L256 -427L192 -341H235V-171H171V-215Q182 -221 189 -232Q196 -243 196 -256Q196 -275 182.5 -289Q169 -303 149.5 -303Q130 -303 116 -289.5Q102 -276 102 -256Q102 -243 109 -232Q116 -221 128 -215V-171Q128 -153 140.5 -140.5Q153 -128 171 -128H235V-63Q223 -57 216 -46Q209 -35 209 -21Q209 -2 223 12Q237 26 256 26Q275 26 289 12Q303 -2 303 -21Q303 -35 296 -46Q289 -57 277 -63V-128H341Q359 -128 371.5 -140.5Q384 -153 384 -171V-213H405V-299Z"/>
</svg>