<svg xmlns="http://www.w3.org/2000/svg" viewBox="0 -512 512 512">
	<path fill="#000000" d="M491 -21V21H341V-21H394L256 -350Q250 -365 236 -374.5Q222 -384 205 -384Q182 -384 165.5 -367.5Q149 -351 149 -328V-256H171Q206 -256 231 -231Q256 -206 256 -171V21H171Q192 -8 192 -43Q192 -72 177.5 -96.5Q163 -121 138.5 -135Q114 -149 85 -149Q63 -149 43 -140V-256H107V-328Q107 -354 120 -377Q133 -400 155.5 -413.5Q178 -427 205 -427Q235 -427 259.5 -410.5Q284 -394 296 -367L441 -21ZM149 -43Q149 -16 130.5 2.5Q112 21 85.5 21Q59 21 40 2.5Q21 -16 21 -42.5Q21 -69 40 -88Q59 -107 85.5 -107Q112 -107 130.5 -88Q149 -69 149 -43ZM107 -43Q107 -51 100.5 -57.5Q94 -64 85.5 -64Q77 -64 70.5 -57.5Q64 -51 64 -42.5Q64 -34 70.5 -27.5Q77 -21 85.5 -21Q94 -21 100.5 -27.5Q107 -34 107 -43Z"/>
</svg>