<svg xmlns="http://www.w3.org/2000/svg" viewBox="0 -512 512 512">
	<path fill="#000000" d="M64 -299Q46 -299 33.5 -286.5Q21 -274 21 -256V-85H64Q64 -59 82.5 -40Q101 -21 128 -21Q155 -21 173.5 -40Q192 -59 192 -85H320Q320 -59 338.5 -40Q357 -21 384 -21Q411 -21 429.5 -40Q448 -59 448 -85H491V-171Q491 -188 478.5 -200.5Q466 -213 448 -213L384 -299ZM64 -267H149V-213H64ZM192 -267H277V-213H192ZM320 -267H373L415 -213H320ZM128 -117Q141 -117 150.5 -108Q160 -99 160 -85.5Q160 -72 150.5 -62.5Q141 -53 128 -53Q115 -53 105.5 -62.5Q96 -72 96 -85.5Q96 -99 105.5 -108Q115 -117 128 -117ZM384 -117Q397 -117 406.5 -108Q416 -99 416 -85.5Q416 -72 406.5 -62.5Q397 -53 384 -53Q371 -53 361.5 -62.5Q352 -72 352 -85.5Q352 -99 361.5 -108Q371 -117 384 -117Z"/>
</svg>