<svg xmlns="http://www.w3.org/2000/svg" viewBox="0 -512 512 512">
	<path fill="#000000" d="M405 -384H107Q89 -384 76.5 -371.5Q64 -359 64 -341V-43Q64 -25 76.5 -12.5Q89 0 107 0H405Q423 0 435.5 -12.5Q448 -25 448 -43V-341Q448 -359 435.5 -371.5Q423 -384 405 -384ZM158 -64Q134 -88 120.5 -121.5Q107 -155 107 -192Q107 -229 120.5 -262.5Q134 -296 158 -320L192 -305Q172 -286 160.5 -256Q149 -226 149 -192Q149 -158 160.5 -128Q172 -98 192 -79ZM271 -128L254 -171L224 -128H192L241 -194L213 -256H241L258 -213L288 -256H320L273 -192L301 -128ZM354 -64L320 -79Q341 -100 352 -129Q363 -158 363 -192Q363 -226 351.5 -256Q340 -286 320 -305L354 -320Q378 -296 391.5 -262.5Q405 -229 405 -192Q405 -155 391.5 -121.5Q378 -88 354 -64Z"/>
</svg>