<svg xmlns="http://www.w3.org/2000/svg" viewBox="0 -512 512 512">
	<path fill="#000000" d="M192 -405V-361Q156 -348 128 -320.5Q100 -293 86 -256H43V-128H87Q100 -91 128 -63.5Q156 -36 192 -22V21H320V-23Q357 -36 384.5 -64Q412 -92 426 -128H469V-256H425Q412 -292 384.5 -320Q357 -348 320 -362V-405ZM235 -363H277V-320H235ZM192 -315V-277H320V-315Q359 -295 379 -256H341V-128H379Q359 -89 320 -69V-107H192V-69Q153 -89 133 -128H171V-256H133Q153 -295 192 -315ZM85 -213H128V-171H85ZM384 -213H427V-171H384ZM235 -64H277V-21H235Z"/>
</svg>