<svg xmlns="http://www.w3.org/2000/svg" viewBox="0 -512 512 512">
	<path fill="#000000" d="M491 -256V-128H434Q419 -94 389 -68.5Q359 -43 320 -31V21H192V-31Q135 -49 99.5 -93Q64 -137 64 -192Q64 -238 90 -277.5Q116 -317 160 -340Q204 -363 256 -363Q316 -363 364 -333.5Q412 -304 434 -256ZM363 -128V-256H385Q366 -285 331.5 -302.5Q297 -320 256 -320Q215 -320 181 -303Q147 -286 127 -256.5Q107 -227 107 -192Q107 -154 130.5 -123Q154 -92 192 -76V-107H320V-76Q362 -93 385 -128ZM405 -171H448V-213H405ZM235 -21H277V-64H235Z"/>
</svg>