<svg xmlns="http://www.w3.org/2000/svg" viewBox="0 -512 512 512">
	<path fill="#000000" d="M64 -427H107V-384H64V-341H21V-384Q21 -402 33.5 -414.5Q46 -427 64 -427ZM299 -427Q316 -427 328.5 -414.5Q341 -402 341 -384V-341H299V-384H256V-427ZM427 -299Q444 -299 456.5 -286.5Q469 -274 469 -256V-213H427V-256H384V-299ZM469 -21Q469 -4 456.5 8.5Q444 21 427 21H384V-21H427V-64H469ZM427 -171H469V-107H427ZM277 -256V-299H341V-235H299V-256ZM277 21V-21H341V21ZM192 21Q174 21 161.5 8.5Q149 -4 149 -21V-64H192V-21H235V21ZM149 -107V-171H192V-149H213V-107ZM149 -384V-427H213V-384ZM64 -107Q46 -107 33.5 -119.5Q21 -132 21 -149V-192H64V-149H107V-107ZM21 -299H64V-235H21ZM192 -299H235V-256H192V-213H149V-256Q149 -274 161.5 -286.5Q174 -299 192 -299ZM341 -149Q341 -132 328.5 -119.5Q316 -107 299 -107H256V-149H299V-192H341Z"/>
</svg>