<svg xmlns="http://www.w3.org/2000/svg" viewBox="0 -512 512 512">
	<path fill="#000000" d="M67 -427Q48 -427 34.5 -413.5Q21 -400 21 -381V-341H64V-384H107V-427ZM149 -427V-384H213V-427ZM256 -427V-384H299V-341H341V-381Q341 -400 328 -413.5Q315 -427 296 -427ZM21 -299V-235H64V-299ZM192 -299Q174 -299 161.5 -286.5Q149 -274 149 -256V-107H296Q315 -107 328 -120Q341 -133 341 -152V-299ZM384 -299V-256H427V-213H469V-256Q469 -274 456.5 -286.5Q444 -299 427 -299ZM192 -256H299V-149H192ZM21 -192V-152Q21 -133 34.5 -120Q48 -107 67 -107H107V-149H64V-192ZM427 -171V-107H469V-171ZM149 -64V-21Q149 -4 161.5 8.5Q174 21 192 21H235V-21H192V-64ZM427 -64V-21H384V21H427Q444 21 456.5 8.5Q469 -4 469 -21V-64ZM277 -21V21H341V-21Z"/>
</svg>