<svg xmlns="http://www.w3.org/2000/svg" viewBox="0 -512 512 512">
	<path fill="#000000" d="M64 -427Q46 -427 33.5 -414.5Q21 -402 21 -384V-149Q21 -132 33.5 -119.5Q46 -107 64 -107H107V-149H64V-384H299V-341H341V-384Q341 -402 328.5 -414.5Q316 -427 299 -427ZM192 -299Q174 -299 161.5 -286.5Q149 -274 149 -256V-213H192V-256H235V-299ZM277 -299V-256H299V-235H341V-299ZM384 -299V-256H427V-21H192V-64H149V-21Q149 -4 161.5 8.5Q174 21 192 21H427Q444 21 456.5 8.5Q469 -4 469 -21V-256Q469 -274 456.5 -286.5Q444 -299 427 -299ZM299 -192V-149H256V-107H299Q316 -107 328.5 -119.5Q341 -132 341 -149V-192ZM149 -171V-107H213V-149H192V-171Z"/>
</svg>