<svg xmlns="http://www.w3.org/2000/svg" viewBox="0 -512 512 512">
	<path fill="#000000" d="M427 21Q444 21 456.5 8.5Q469 -4 469 -21V-64H427V-21H384V21ZM341 21V-21H277V21ZM235 21V-21H192V-64H149V-21Q149 -4 161.5 8.5Q174 21 192 21ZM469 -107V-171H427V-107ZM192 -107Q192 -181 192 -256H341V-384Q341 -402 328.5 -414.5Q316 -427 299 -427H64Q46 -427 33.5 -414.5Q21 -402 21 -384V-149Q21 -132 33.5 -119.5Q46 -107 64 -107ZM149 -149H64V-384H299V-299H192Q174 -299 161.5 -286.5Q149 -274 149 -256ZM469 -213V-256Q469 -274 456.5 -286.5Q444 -299 427 -299H384V-256H427V-213Z"/>
</svg>