<svg xmlns="http://www.w3.org/2000/svg" viewBox="0 -512 512 512">
	<path fill="#000000" d="M469 -256H426Q406 -313 356 -348.5Q306 -384 245 -384Q193 -384 149 -358Q105 -332 79 -288Q53 -244 53 -192Q53 -140 79 -95.5Q105 -51 149 -25.5Q193 0 245 0Q306 0 356 -35Q406 -70 427 -128H469ZM427 -213V-171H384V-213ZM380 -128Q362 -89 325.5 -66Q289 -43 245 -43Q205 -43 170.5 -63Q136 -83 116 -117Q96 -151 96 -191.5Q96 -232 116 -266.5Q136 -301 170.5 -321Q205 -341 245 -341Q288 -341 325 -318Q362 -295 380 -256H341V-128Z"/>
</svg>