<svg xmlns="http://www.w3.org/2000/svg" viewBox="0 -512 512 512">
	<path fill="#000000" d="M299 -149V-235Q299 -239 296 -242Q293 -245 288 -245H267V-139H288Q293 -139 296 -142Q299 -145 299 -149ZM363 -299V-224L448 -309V-75L363 -160V-85Q363 -76 357 -70Q351 -64 341 -64H85Q76 -64 70 -70Q64 -76 64 -85V-299Q64 -308 70 -314Q76 -320 85 -320H341Q351 -320 357 -314Q363 -308 363 -299ZM299 -107Q311 -107 321 -116.5Q331 -126 331 -139V-245Q331 -258 321 -267.5Q311 -277 299 -277H235V-107ZM192 -277H117Q104 -277 94.5 -268Q85 -259 85 -245V-213Q85 -200 94.5 -190.5Q104 -181 117 -181H160V-139H85V-107H160Q173 -107 182.5 -116Q192 -125 192 -139V-181Q192 -195 182.5 -204Q173 -213 160 -213H117V-245H192Z"/>
</svg>