<svg xmlns="http://www.w3.org/2000/svg" viewBox="0 -512 512 512">
	<path fill="#000000" d="M117 -90Q106 -90 99 -97.5Q92 -105 92 -115.5Q92 -126 99.5 -133.5Q107 -141 117 -141Q127 -141 135 -133Q143 -125 144 -115.5Q145 -106 137 -98Q129 -90 117 -90ZM117 -192Q87 -192 65 -170Q43 -148 43 -117Q43 -93 62 -57Q76 -31 98 -2L117 21L137 -2Q159 -31 173 -57Q192 -93 192 -117Q192 -148 170 -170Q148 -192 117 -192ZM85 -320Q76 -320 70 -314Q64 -308 64 -299V-222Q83 -231 107 -235V-277H320V-107H235Q230 -77 224 -64H341Q351 -64 357 -70Q363 -76 363 -85V-160L448 -75V-309L363 -224V-299Q363 -308 357 -314Q351 -320 341 -320Z"/>
</svg>