<svg xmlns="http://www.w3.org/2000/svg" viewBox="0 -512 512 512">
	<path fill="#000000" d="M363 -224L448 -309V-75L363 -160V-85Q363 -76 356.5 -70Q350 -64 341 -64H85Q76 -64 70 -70Q64 -76 64 -85V-299Q64 -308 70 -314Q76 -320 85 -320H341Q350 -320 356.5 -314Q363 -308 363 -299ZM299 -107V-128Q299 -147 267 -160Q240 -171 213.5 -171Q187 -171 160 -160Q128 -147 128 -128V-107ZM213 -277Q196 -277 183.5 -264.5Q171 -252 171 -234.5Q171 -217 183.5 -204.5Q196 -192 213.5 -192Q231 -192 243.5 -204.5Q256 -217 256 -234.5Q256 -252 243.5 -264.5Q231 -277 213 -277Z"/>
</svg>