<svg xmlns="http://www.w3.org/2000/svg" viewBox="0 -512 512 512">
	<path fill="#000000" d="M171 -203Q171 -216 161.5 -225.5Q152 -235 138.5 -235Q125 -235 116 -225.5Q107 -216 107 -202.5Q107 -189 116 -180Q125 -171 138.5 -171Q152 -171 161.5 -180Q171 -189 171 -203ZM320 -309Q320 -323 310.5 -332Q301 -341 288 -341H224Q211 -341 201.5 -332Q192 -323 192 -309.5Q192 -296 201.5 -286.5Q211 -277 224 -277H288Q301 -277 310.5 -286.5Q320 -296 320 -309ZM181 -128Q168 -128 158.5 -118.5Q149 -109 149 -96Q149 -83 158.5 -73.5Q168 -64 181.5 -64Q195 -64 204 -73.5Q213 -83 213 -96Q213 -109 204 -118.5Q195 -128 181 -128ZM256 -427Q192 -427 138 -395.5Q84 -364 52.5 -310Q21 -256 21 -192Q21 -128 52.5 -74Q84 -20 138 11.5Q192 43 256 43Q320 43 374 11.5Q428 -20 459.5 -74Q491 -128 491 -192Q491 -256 459.5 -310Q428 -364 374 -395.5Q320 -427 256 -427ZM256 0Q204 0 160 -26Q116 -52 90 -96Q64 -140 64 -192Q64 -244 90 -288Q116 -332 160 -358Q204 -384 256 -384Q308 -384 352 -358Q396 -332 422 -288Q448 -244 448 -192Q448 -140 422 -96Q396 -52 352 -26Q308 0 256 0ZM373 -235Q360 -235 350.5 -225.5Q341 -216 341 -202.5Q341 -189 350.5 -180Q360 -171 373.5 -171Q387 -171 396 -180Q405 -189 405 -202.5Q405 -216 396 -225.5Q387 -235 373 -235ZM331 -128Q317 -128 308 -118.5Q299 -109 299 -96Q299 -83 308 -73.5Q317 -64 330.5 -64Q344 -64 353.5 -73.5Q363 -83 363 -96Q363 -109 353.5 -118.5Q344 -128 331 -128Z"/>
</svg>