<svg xmlns="http://www.w3.org/2000/svg" viewBox="0 -512 512 512">
	<path fill="#000000" d="M299 -235V-149Q299 -145 296 -142Q293 -139 288 -139H267V-245H288Q293 -245 296 -242Q299 -239 299 -235ZM363 -224V-299Q363 -308 357 -314Q351 -320 341 -320H85Q76 -320 70 -314Q64 -308 64 -299V-85Q64 -76 70 -70Q76 -64 85 -64H341Q351 -64 357 -70Q363 -76 363 -85V-160L448 -75V-309ZM203 -107H171V-175H128V-107H96V-277H128V-209H171V-277H203ZM331 -139Q331 -126 321 -116.5Q311 -107 299 -107H235V-277H299Q311 -277 321 -267.5Q331 -258 331 -245Z"/>
</svg>