<svg xmlns="http://www.w3.org/2000/svg" viewBox="0 -512 512 512">
	<path fill="#000000" d="M299 -235V-149Q299 -145 295.5 -142Q292 -139 288 -139H267V-245H288Q292 -245 295.5 -242Q299 -239 299 -235ZM448 -309V-75L363 -160V-85Q363 -76 356.5 -70Q350 -64 341 -64H85Q76 -64 70 -70Q64 -76 64 -85V-299Q64 -308 70 -314Q76 -320 85 -320H341Q350 -320 356.5 -314Q363 -308 363 -299V-224ZM203 -245Q203 -259 193.5 -268Q184 -277 171 -277H96V-245H171V-208H117V-176H171V-139H96V-107H171Q184 -107 193.5 -116Q203 -125 203 -139ZM331 -245Q331 -259 321.5 -268Q312 -277 299 -277H235V-107H299Q312 -107 321.5 -116Q331 -125 331 -139Z"/>
</svg>