<svg xmlns="http://www.w3.org/2000/svg" viewBox="0 -512 512 512">
	<path fill="#000000" d="M363 -139V-213Q363 -222 356.5 -228.5Q350 -235 341 -235H85Q76 -235 70 -228.5Q64 -222 64 -213V0Q64 9 70 15Q76 21 85 21H341Q350 21 356.5 15Q363 9 363 0V-75L448 11V-224ZM64 -366L94 -336Q126 -368 169.5 -379.5Q213 -391 256.5 -379.5Q300 -368 333 -336L363 -366Q322 -406 267.5 -420Q213 -434 159 -420Q105 -406 64 -366ZM124 -307L154 -277Q178 -301 213 -301Q248 -301 273 -277L303 -307Q279 -331 246 -339Q213 -347 180.5 -339Q148 -331 124 -307Z"/>
</svg>