<svg xmlns="http://www.w3.org/2000/svg" viewBox="0 -512 512 512">
	<path fill="#000000" d="M256 -341Q215 -341 181 -321Q147 -301 127 -267Q107 -233 107 -192H149Q149 -221 163.5 -245.5Q178 -270 202.5 -284.5Q227 -299 256 -299Q285 -299 309.5 -284.5Q334 -270 348.5 -245.5Q363 -221 363 -192H405Q405 -233 385 -267Q365 -301 331 -321Q297 -341 256 -341ZM277 -143Q292 -150 300.5 -163Q309 -176 309 -192Q309 -214 293.5 -229.5Q278 -245 256 -245Q234 -245 218.5 -229.5Q203 -214 203 -192Q203 -176 211.5 -162.5Q220 -149 235 -143V-73L162 0L192 30L256 -34L320 30L350 0L277 -73ZM256 -427Q192 -427 138 -395.5Q84 -364 52.5 -310Q21 -256 21 -192H64Q64 -244 90 -288Q116 -332 160 -358Q204 -384 256 -384Q308 -384 352 -358Q396 -332 422 -288Q448 -244 448 -192H491Q491 -256 459.5 -310Q428 -364 374 -395.5Q320 -427 256 -427Z"/>
</svg>