<svg xmlns="http://www.w3.org/2000/svg" viewBox="0 -512 512 512">
	<path fill="#000000" d="M107 -405Q107 -414 100.5 -420.5Q94 -427 85 -427Q76 -427 70 -420.5Q64 -414 64 -405V-320H21V-192H149V-320H107ZM192 -107Q192 -86 204 -69.5Q216 -53 235 -47V43H277V-47Q296 -53 308 -69.5Q320 -86 320 -107V-149H192ZM21 -107Q21 -86 33 -69.5Q45 -53 64 -47V43H107V-47Q126 -53 137.5 -69.5Q149 -86 149 -107V-149H21ZM448 -320V-405Q448 -414 442 -420.5Q436 -427 427 -427Q418 -427 411.5 -420.5Q405 -414 405 -405V-320H363V-192H491V-320ZM277 -405Q277 -414 271 -420.5Q265 -427 256 -427Q247 -427 241 -420.5Q235 -414 235 -405V-320H192V-192H320V-320H277ZM363 -107Q363 -86 374.5 -69.5Q386 -53 405 -47V43H448V-47Q467 -53 479 -69.5Q491 -86 491 -107V-149H363Z"/>
</svg>