<svg xmlns="http://www.w3.org/2000/svg" viewBox="0 -512 512 512">
	<path fill="#000000" d="M43 -341H85V-299H43ZM107 -341H149V-299H107ZM171 -341H213V-299H171ZM235 -341H277V-299H235ZM299 -341H341V-299H299ZM363 -341H405V-299H363ZM427 -341H469V-299H427ZM43 -277H85V-235H43ZM107 -277H149V-235H107ZM171 -277H213V-235H171ZM235 -277H277V-235H235ZM299 -277H341V-235H299ZM363 -277H405V-235H363ZM427 -277H469V-235H427ZM43 -213H85V-171H43ZM107 -213H149V-171H107ZM171 -213H213V-171H171ZM235 -213H277V-171H235ZM299 -213H341V-171H299ZM363 -213H405V-171H363ZM427 -213H469V-171H427ZM43 -149H85V-107H43ZM107 -149H149V-107H107ZM171 -149H213V-107H171ZM235 -149H277V-107H235ZM299 -149H341V-107H299ZM363 -149H405V-107H363ZM427 -149H469V-107H427ZM43 -85H85V-43H43ZM107 -85H149V-43H107ZM171 -85H213V-43H171ZM235 -85H277V-43H235ZM299 -85H341V-43H299ZM363 -85H405V-43H363ZM427 -85H469V-43H427Z"/>
</svg>