<svg xmlns="http://www.w3.org/2000/svg" viewBox="0 -512 512 512">
	<path fill="#000000" d="M277 -341H213Q204 -341 198 -335Q192 -329 192 -320V-64Q192 -55 198 -49Q204 -43 213 -43H277Q286 -43 292.5 -49Q299 -55 299 -64V-320Q299 -329 292.5 -335Q286 -341 277 -341ZM427 -341H363Q354 -341 347.5 -335Q341 -329 341 -320V-64Q341 -55 347.5 -49Q354 -43 363 -43H427Q436 -43 442 -49Q448 -55 448 -64V-320Q448 -329 442 -335Q436 -341 427 -341ZM128 -341H64Q55 -341 49 -335Q43 -329 43 -320V-64Q43 -55 49 -49Q55 -43 64 -43H128Q137 -43 143 -49Q149 -55 149 -64V-320Q149 -329 143 -335Q137 -341 128 -341Z"/>
</svg>