<svg xmlns="http://www.w3.org/2000/svg" viewBox="0 -512 512 512">
	<path fill="#000000" d="M235 -405Q226 -405 219.5 -399Q213 -393 213 -384V-256Q213 -252 216.5 -248.5Q220 -245 224 -245H256Q260 -245 263.5 -242Q267 -239 267 -234.5Q267 -230 263.5 -227Q260 -224 256 -224H224Q212 -224 202 -234Q192 -244 192 -256V-338Q164 -331 146 -308.5Q128 -286 128 -256V-224Q150 -224 165.5 -208.5Q181 -193 181 -171Q181 -149 165.5 -133Q150 -117 128 -117V-85Q128 -56 142.5 -31.5Q157 -7 181.5 7Q206 21 235 21H277Q306 21 330.5 7Q355 -7 369.5 -31.5Q384 -56 384 -85V-117Q362 -117 346.5 -133Q331 -149 331 -171Q331 -193 346.5 -208.5Q362 -224 384 -224V-256Q384 -292 359 -316.5Q334 -341 299 -341V-384Q299 -393 292.5 -399Q286 -405 277 -405ZM229 -96H283L272 -21H240Z"/>
</svg>