<svg xmlns="http://www.w3.org/2000/svg" viewBox="0 -512 512 512">
	<path fill="#000000" d="M491 -171Q491 -155 480 -144Q469 -133 453 -133Q444 -133 436 -137.5Q428 -142 423 -149H399Q396 -139 390 -126L357 -159Q363 -177 363 -192Q363 -221 348.5 -245.5Q334 -270 309.5 -284.5Q285 -299 256 -299Q241 -299 223 -293L190 -326Q212 -336 235 -340V-369Q227 -375 223 -383Q219 -391 219 -400Q219 -416 229.5 -426.5Q240 -437 256 -437Q272 -437 282.5 -426.5Q293 -416 293 -400Q293 -391 289 -383Q285 -375 277 -369V-340Q315 -334 345 -311L374 -340Q371 -359 384 -373Q395 -384 410.5 -384Q426 -384 437 -373Q448 -362 448 -346.5Q448 -331 437 -320Q426 -309 411 -309Q406 -309 404 -310L375 -281Q405 -242 405 -192H423Q428 -199 436 -203.5Q444 -208 453 -208Q469 -208 480 -197Q491 -186 491 -171ZM472 10L445 37L429 21Q415 20 405.5 10.5Q396 1 395 -13L339 -68L337 -67Q324 -59 317 -56Q329 -46 330.5 -30Q332 -14 322 -2.5Q312 9 296 11H293Q279 11 268 1Q257 -9 256 -24Q256 -35 260 -43H256Q227 -43 200 -53L177 -11Q186 6 177 23Q172 32 163 37.5Q154 43 144.5 43Q135 43 126 38Q113 31 108.5 16Q104 1 111 -12Q120 -29 140 -32L163 -75Q140 -94 126 -119L94 -110Q87 -92 68 -87Q65 -85 59 -85Q46 -85 36 -92.5Q26 -100 23 -113Q19 -128 26.5 -141.5Q34 -155 49 -159Q52 -160 59 -160Q72 -160 83 -151L111 -159Q107 -176 107 -192Q94 -195 85 -203Q75 -214 75 -229.5Q75 -245 86 -256Q97 -267 112 -267Q119 -267 125 -264L132 -275L24 -384L51 -411ZM308 -99L163 -244Q149 -219 149 -191Q149 -163 163.5 -138.5Q178 -114 202.5 -99.5Q227 -85 255.5 -85Q284 -85 308 -99ZM153 -389Q142 -405 123 -405Q118 -405 112 -404L158 -358Q163 -375 153 -389Z"/>
</svg>