<svg xmlns="http://www.w3.org/2000/svg" viewBox="0 -512 512 512">
	<path fill="#000000" d="M256 -427Q241 -427 235 -411L211 -344Q223 -331 256 -331Q289 -331 301 -344L277 -411Q275 -418 269 -422.5Q263 -427 256 -427ZM180 -258L149 -173Q176 -139 256 -139Q336 -139 363 -173L332 -258Q312 -235 256 -235Q200 -235 180 -258ZM116 -128Q103 -128 91 -119Q79 -110 75 -97L44 12Q40 25 47 34Q54 43 67 43H445Q458 43 465 34Q472 25 468 12L437 -97Q433 -110 421 -119Q409 -128 396 -128H379L386 -107Q391 -93 386 -86Q355 -43 256 -43Q157 -43 126 -86Q121 -93 126 -107L133 -128Z"/>
</svg>