<svg xmlns="http://www.w3.org/2000/svg" viewBox="0 -512 512 512">
	<path fill="#000000" d="M395 -128Q364 -128 342 -150Q320 -172 320 -203Q320 -234 342 -255.5Q364 -277 395 -277Q426 -277 447.5 -255.5Q469 -234 469 -203Q469 -172 447.5 -150Q426 -128 395 -128ZM117 -128Q86 -128 64.5 -150Q43 -172 43 -203Q43 -234 64.5 -255.5Q86 -277 117 -277Q148 -277 170 -255.5Q192 -234 192 -203Q192 -172 170 -150Q148 -128 117 -128ZM395 -320Q371 -320 349.5 -311Q328 -302 311.5 -285.5Q295 -269 286 -247.5Q277 -226 277 -203Q277 -160 304 -128H208Q235 -160 235 -203Q235 -226 226 -247.5Q217 -269 200.5 -285.5Q184 -302 162.5 -311Q141 -320 117 -320Q85 -320 58.5 -304Q32 -288 16 -261.5Q0 -235 0 -203Q0 -171 16 -144Q32 -117 58.5 -101Q85 -85 117 -85H395Q418 -85 439.5 -94Q461 -103 477.5 -119.5Q494 -136 503 -157.5Q512 -179 512 -203Q512 -235 496 -261.5Q480 -288 453.5 -304Q427 -320 395 -320Z"/>
</svg>