<svg xmlns="http://www.w3.org/2000/svg" viewBox="0 -512 512 512">
	<path fill="#000000" d="M384 -171L448 -107V-21Q448 -4 435.5 8.5Q423 21 405 21H107Q89 21 76.5 8.5Q64 -4 64 -21V-107L128 -171H146L188 -128H145L107 -85H405L368 -128H327L369 -171ZM405 -21V-43H107V-21ZM242 -128L136 -233Q130 -239 130 -248Q130 -257 136 -263L272 -399Q278 -405 287 -405Q296 -405 302 -399L408 -293Q414 -287 414 -278Q414 -269 408 -263L272 -128Q266 -121 257 -121Q248 -121 242 -128ZM287 -354L181 -248L257 -173L363 -278Z"/>
</svg>