<svg xmlns="http://www.w3.org/2000/svg" viewBox="0 -512 512 512">
	<path fill="#000000" d="M192 -341H320L256 -277ZM224 -135Q213 -123 213 -106Q213 -89 225.5 -76.5Q238 -64 256 -64Q274 -64 286.5 -76.5Q299 -89 299 -107Q299 -125 286 -137L316 -167Q341 -142 341 -106.5Q341 -71 316 -46Q291 -21 256 -21Q221 -21 196 -46Q171 -71 171 -106Q171 -141 194 -165V-166L345 -316Q370 -341 405.5 -341Q441 -341 466 -316Q491 -291 491 -256Q491 -221 466 -196Q441 -171 405.5 -171Q370 -171 345 -196L375 -226Q387 -213 405 -213Q423 -213 435.5 -225.5Q448 -238 448 -256Q448 -274 435.5 -286.5Q423 -299 405 -299Q387 -299 375 -286ZM137 -286Q125 -299 107 -299Q89 -299 76.5 -286.5Q64 -274 64 -256Q64 -238 76.5 -225.5Q89 -213 107 -213Q125 -213 137 -226L167 -196Q142 -171 106.5 -171Q71 -171 46 -196Q21 -221 21 -256Q21 -291 46 -316Q71 -341 106.5 -341Q142 -341 167 -316L226 -257L196 -227Z"/>
</svg>