<svg xmlns="http://www.w3.org/2000/svg" viewBox="0 -512 512 512">
	<path fill="#000000" d="M448 -64V-43Q448 -25 435.5 -12.5Q423 0 405 0H107Q89 0 76.5 -12.5Q64 -25 64 -43V-341Q64 -359 76.5 -371.5Q89 -384 107 -384H405Q423 -384 435.5 -371.5Q448 -359 448 -341V-320H256Q238 -320 225.5 -307.5Q213 -295 213 -277V-107Q213 -89 225.5 -76.5Q238 -64 256 -64ZM256 -107H469V-277H256ZM341 -160Q328 -160 318.5 -169.5Q309 -179 309 -192Q309 -205 318.5 -214.5Q328 -224 341.5 -224Q355 -224 364 -214.5Q373 -205 373 -192Q373 -179 364 -169.5Q355 -160 341 -160Z"/>
</svg>