<svg xmlns="http://www.w3.org/2000/svg" viewBox="0 -512 512 512">
	<path fill="#000000" d="M331 -117Q344 -117 353.5 -126.5Q363 -136 363 -149.5Q363 -163 353.5 -172Q344 -181 330.5 -181Q317 -181 308 -172Q299 -163 299 -149.5Q299 -136 308 -126.5Q317 -117 331 -117ZM149 -384H363Q380 -384 392.5 -371.5Q405 -359 405 -341V-299Q423 -299 435.5 -286.5Q448 -274 448 -256V-43Q448 -25 435.5 -12.5Q423 0 405 0H149Q114 0 89 -25Q64 -50 64 -85V-299Q64 -334 89 -359Q114 -384 149 -384ZM363 -299V-341H149Q132 -341 119.5 -328.5Q107 -316 107 -299V-287Q127 -299 149 -299ZM107 -85Q107 -68 119.5 -55.5Q132 -43 149 -43H405V-256H149Q132 -256 119.5 -243.5Q107 -231 107 -213Z"/>
</svg>