<svg xmlns="http://www.w3.org/2000/svg" viewBox="0 -512 512 512">
	<path fill="#000000" d="M85 -363H235V-405H85Q68 -405 55.5 -392.5Q43 -380 43 -363V-213H85ZM213 -171L128 -64H384L320 -149L277 -92ZM363 -267Q363 -280 353.5 -289.5Q344 -299 330.5 -299Q317 -299 308 -289.5Q299 -280 299 -266.5Q299 -253 308 -244Q317 -235 330.5 -235Q344 -235 353.5 -244Q363 -253 363 -267ZM427 -405H277V-363H427V-213H469V-363Q469 -380 456.5 -392.5Q444 -405 427 -405ZM427 -21H277V21H427Q444 21 456.5 8.5Q469 -4 469 -21V-171H427ZM85 -171H43V-21Q43 -4 55.5 8.5Q68 21 85 21H235V-21H85Z"/>
</svg>