<svg xmlns="http://www.w3.org/2000/svg" viewBox="0 -512 512 512">
	<path fill="#000000" d="M363 -384H149Q114 -384 89 -359Q64 -334 64 -299V-85Q64 -50 89 -25Q114 0 149 0H405Q423 0 435.5 -12.5Q448 -25 448 -43V-256Q448 -274 435.5 -286.5Q423 -299 405 -299V-341Q405 -359 392.5 -371.5Q380 -384 363 -384ZM363 -341V-299H149Q127 -299 107 -287V-299Q107 -316 119.5 -328.5Q132 -341 149 -341ZM331 -117Q317 -117 308 -126.5Q299 -136 299 -149.5Q299 -163 308 -172Q317 -181 330.5 -181Q344 -181 353.5 -172Q363 -163 363 -149.5Q363 -136 353.5 -126.5Q344 -117 331 -117Z"/>
</svg>