<svg xmlns="http://www.w3.org/2000/svg" viewBox="0 -512 512 512">
	<path fill="#000000" d="M64 -448V-384H0V-341H64V-277H107V-341H171V-384H107V-448ZM192 -384V-320H128V-256H64V-43Q64 -25 76.5 -12.5Q89 0 107 0H405Q423 0 435.5 -12.5Q448 -25 448 -43V-64H256Q238 -64 225.5 -76.5Q213 -89 213 -107V-277Q213 -295 225.5 -307.5Q238 -320 256 -320H448V-341Q448 -359 435.5 -371.5Q423 -384 405 -384ZM256 -277V-107H469V-277ZM341 -224Q355 -224 364 -214.5Q373 -205 373 -192Q373 -179 364 -169.5Q355 -160 341.5 -160Q328 -160 318.5 -169.5Q309 -179 309 -192Q309 -205 318.5 -214.5Q328 -224 341 -224Z"/>
</svg>