<svg xmlns="http://www.w3.org/2000/svg" viewBox="0 -512 512 512">
	<path fill="#000000" d="M107 -384Q89 -384 76.5 -371.5Q64 -359 64 -341V-43Q64 -25 76.5 -12.5Q89 0 107 0H405Q423 0 435.5 -12.5Q448 -25 448 -43V-91Q458 -97 463.5 -106.5Q469 -116 469 -128V-256Q469 -268 463.5 -277.5Q458 -287 448 -293V-341Q448 -359 435.5 -371.5Q423 -384 405 -384ZM107 -341H405V-299H277Q260 -299 247.5 -286.5Q235 -274 235 -256V-128Q235 -110 247.5 -97.5Q260 -85 277 -85H405V-43H107ZM277 -256H427V-128H277ZM341 -224Q328 -224 318.5 -214.5Q309 -205 309 -192Q309 -179 318.5 -169.5Q328 -160 341.5 -160Q355 -160 364 -169.5Q373 -179 373 -192Q373 -205 364 -214.5Q355 -224 341 -224Z"/>
</svg>