<svg xmlns="http://www.w3.org/2000/svg" viewBox="0 -512 512 512">
	<path fill="#000000" d="M427 -149H85V-277H194L149 -217L184 -192L256 -290L328 -192L363 -217L318 -277H427ZM427 -43H85V-85H427ZM192 -363Q201 -363 207 -356.5Q213 -350 213 -341Q213 -332 207 -326Q201 -320 192 -320Q183 -320 177 -326Q171 -332 171 -341Q171 -350 177 -356.5Q183 -363 192 -363ZM320 -363Q329 -363 335 -356.5Q341 -350 341 -341Q341 -332 335 -326Q329 -320 320 -320Q311 -320 305 -326Q299 -332 299 -341Q299 -350 305 -356.5Q311 -363 320 -363ZM427 -320H380Q384 -331 384 -341Q384 -368 365.5 -386.5Q347 -405 320 -405Q304 -405 290 -397.5Q276 -390 267 -377L256 -363L245 -377Q236 -390 222 -397.5Q208 -405 192 -405Q165 -405 146.5 -386.5Q128 -368 128 -341Q128 -331 132 -320H85Q68 -320 55.5 -307.5Q43 -295 43 -277V-43Q43 -25 55.5 -12.5Q68 0 85 0H427Q444 0 456.5 -12.5Q469 -25 469 -43V-277Q469 -295 456.5 -307.5Q444 -320 427 -320Z"/>
</svg>