<svg xmlns="http://www.w3.org/2000/svg" viewBox="0 -512 512 512">
	<path fill="#000000" d="M256 -405Q210 -405 170.5 -382Q131 -359 108 -320Q85 -281 85 -235Q85 -192 104.5 -155.5Q124 -119 158.5 -95Q193 -71 235 -65V-43H213Q204 -43 198 -36.5Q192 -30 192 -21H43V21H192Q192 30 198 36.5Q204 43 213 43H299Q308 43 314 36.5Q320 30 320 21H469V-21H320Q320 -30 314 -36.5Q308 -43 299 -43H277V-65Q319 -71 353.5 -95Q388 -119 407.5 -155.5Q427 -192 427 -235Q427 -281 404 -320Q381 -359 341.5 -382Q302 -405 256 -405ZM256 -363Q261 -354 265 -344Q276 -322 283 -299H229Q236 -322 247 -344ZM208 -353Q196 -331 186 -299H145Q169 -338 208 -353ZM304 -353Q344 -338 367 -299H326Q316 -331 304 -353ZM130 -256H177Q176 -244 176 -235Q176 -226 177 -213H130Q128 -224 128 -234.5Q128 -245 130 -256ZM220 -256H292Q293 -244 293 -235Q293 -226 292 -213H220Q219 -226 219 -235Q219 -244 220 -256ZM335 -256H382Q384 -245 384 -234.5Q384 -224 382 -213H335Q336 -226 336 -235Q336 -244 335 -256ZM145 -171H186Q196 -138 208 -116Q168 -132 145 -171ZM229 -171H283Q276 -148 265 -125L256 -107L247 -125Q236 -148 229 -171ZM326 -171H367Q343 -132 304 -116Q316 -139 326 -171Z"/>
</svg>