<svg xmlns="http://www.w3.org/2000/svg" viewBox="0 -512 512 512">
	<path fill="#000000" d="M316 -210Q341 -185 341 -149.5Q341 -114 316 -89Q291 -64 256 -64Q221 -64 196 -89ZM128 -405H384Q402 -405 414.5 -392.5Q427 -380 427 -363V-21Q427 -4 414.5 8.5Q402 21 384 21H128Q110 21 97.5 8.5Q85 -4 85 -21V-363Q85 -380 97.5 -392.5Q110 -405 128 -405ZM149 -363Q140 -363 134 -356.5Q128 -350 128 -341Q128 -332 134 -326Q140 -320 149 -320Q158 -320 164.5 -326Q171 -332 171 -341Q171 -350 164.5 -356.5Q158 -363 149 -363ZM213 -363Q204 -363 198 -356.5Q192 -350 192 -341Q192 -332 198 -326Q204 -320 213 -320Q222 -320 228.5 -326Q235 -332 235 -341Q235 -350 228.5 -356.5Q222 -363 213 -363ZM256 -277Q231 -277 207 -267.5Q183 -258 165 -240Q147 -222 137.5 -198.5Q128 -175 128 -149Q128 -115 145 -85.5Q162 -56 191.5 -38.5Q221 -21 256 -21Q291 -21 320.5 -38.5Q350 -56 367 -85.5Q384 -115 384 -149Q384 -175 374.5 -198.5Q365 -222 347 -240Q329 -258 305 -267.5Q281 -277 256 -277Z"/>
</svg>