<svg xmlns="http://www.w3.org/2000/svg" viewBox="0 -512 512 512">
	<path fill="#000000" d="M128 -192Q128 -227 145 -256.5Q162 -286 191.5 -303Q221 -320 256 -320Q291 -320 320.5 -303Q350 -286 367 -256.5Q384 -227 384 -192Q384 -157 367 -127.5Q350 -98 320.5 -81Q291 -64 256 -64Q221 -64 191.5 -81Q162 -98 145 -127.5Q128 -157 128 -192ZM427 -192Q427 -232 409.5 -267Q392 -302 362 -326L341 -448H171L150 -326Q120 -302 102.5 -267Q85 -232 85 -192Q85 -152 102.5 -117Q120 -82 150 -58L171 64H341L362 -58Q392 -82 409.5 -117Q427 -152 427 -192Z"/>
</svg>