<svg xmlns="http://www.w3.org/2000/svg" viewBox="0 -512 512 512">
	<path fill="#000000" d="M64 -85V-299H107V-85ZM405 -85V-299H448V-85ZM469 -256H512V-128H469ZM0 -128V-256H43V-128ZM383 -193Q383 -163 370 -136.5Q357 -110 335 -92L319 -1H192L176 -92Q154 -110 141 -136.5Q128 -163 128 -193Q128 -223 141 -249Q154 -275 176 -293L192 -384H319L335 -293Q357 -275 370 -249Q383 -223 383 -193ZM160 -193Q160 -153 188 -125Q216 -97 255.5 -97Q295 -97 323 -125Q351 -153 351 -192.5Q351 -232 323 -260Q295 -288 255.5 -288Q216 -288 188 -260Q160 -232 160 -193Z"/>
</svg>