<svg xmlns="http://www.w3.org/2000/svg" viewBox="0 -512 512 512">
	<path fill="#000000" d="M0 -256H43V-128H0ZM256 -288Q282 -288 304 -275Q326 -262 338.5 -240Q351 -218 351 -192Q351 -179 348 -168L373 -143Q384 -168 384 -192Q384 -221 371 -247.5Q358 -274 335 -292L320 -384H192L183 -333L232 -285Q243 -288 256 -288ZM448 -85V-299H405V-111L431 -85ZM352 -110L472 10L445 37L332 -76L320 0H192L176 -91Q151 -111 138.5 -140.5Q126 -170 128 -201.5Q130 -233 147 -260L24 -384L51 -411ZM300 -108L172 -236Q160 -215 160 -192Q160 -166 173 -144Q186 -122 208 -109.5Q230 -97 256 -97Q279 -97 300 -108ZM469 -256V-128H512V-256ZM64 -85H107V-299H64Z"/>
</svg>