<svg xmlns="http://www.w3.org/2000/svg" viewBox="0 -512 512 512">
	<path fill="#000000" d="M427 -299V-171H384V-299ZM384 -85H427V-128H384ZM213 -379Q203 -367 193 -355Q169 -325 149 -296Q121 -255 105 -221Q85 -179 85 -149Q85 -115 102.5 -85.5Q120 -56 149.5 -38.5Q179 -21 213.5 -21Q248 -21 277.5 -38.5Q307 -56 324 -85.5Q341 -115 341 -149Q341 -203 277 -296Q245 -343 213 -379ZM165 -235Q176 -235 184 -227Q192 -219 192 -208Q192 -197 184 -189Q176 -181 165 -181Q154 -181 146.5 -189Q139 -197 139 -208Q139 -219 146.5 -227Q154 -235 165 -235ZM261 -85Q250 -85 242.5 -93Q235 -101 235 -112Q235 -123 242.5 -131Q250 -139 261 -139Q272 -139 280 -131Q288 -123 288 -112Q288 -101 280 -93Q272 -85 261 -85ZM161 -85L138 -107L266 -235L289 -213Z"/>
</svg>