<svg xmlns="http://www.w3.org/2000/svg" viewBox="0 -512 512 512">
	<path fill="#000000" d="M171 -405Q153 -405 140.5 -392.5Q128 -380 128 -363V-107Q128 -89 140.5 -76.5Q153 -64 171 -64H192V-21H128V21H192Q210 21 222.5 8.5Q235 -4 235 -21V-64H277V-21Q277 -4 289.5 8.5Q302 21 320 21H384V-21H320V-64H341Q359 -64 371.5 -76.5Q384 -89 384 -107V-363Q384 -380 371.5 -392.5Q359 -405 341 -405ZM256 -342Q274 -342 286.5 -329.5Q299 -317 299 -299.5Q299 -282 286.5 -269.5Q274 -257 256 -257Q238 -257 225.5 -269.5Q213 -282 213 -299.5Q213 -317 225.5 -329.5Q238 -342 256 -342ZM213 -139H299V-107H213Z"/>
</svg>