<svg xmlns="http://www.w3.org/2000/svg" viewBox="0 -512 512 512">
	<path fill="#000000" d="M85 -405Q68 -405 55.5 -392.5Q43 -380 43 -363V-107Q43 -89 55.5 -76.5Q68 -64 85 -64H107V-21H43V21H107Q124 21 136.5 8.5Q149 -4 149 -21V-64H192V-21Q192 -4 204.5 8.5Q217 21 235 21H277L293 -21H235V-64H256Q274 -64 286.5 -76.5Q299 -89 299 -107V-363Q299 -380 286.5 -392.5Q274 -405 256 -405ZM171 -342Q188 -342 200.5 -329.5Q213 -317 213 -299.5Q213 -282 200.5 -269.5Q188 -257 170.5 -257Q153 -257 140.5 -269.5Q128 -282 128 -299.5Q128 -317 140.5 -329.5Q153 -342 171 -342ZM128 -139H213V-107H128ZM422 -171H380L311 21H352L367 -21H435L450 21H491ZM375 -49L401 -128L427 -49Z"/>
</svg>