<svg xmlns="http://www.w3.org/2000/svg" viewBox="0 -512 512 512">
	<path fill="#000000" d="M469 -107H43V-64H85V21H427V-64H469ZM223 -128Q219 -128 216 -130.5Q213 -133 212 -137L204 -203Q204 -207 207 -210Q210 -213 215 -213H299Q303 -213 305.5 -209.5Q308 -206 308 -201L300 -137Q299 -133 296 -130.5Q293 -128 289 -128ZM405 -405L460 -305Q461 -303 461 -299Q461 -290 455 -283.5Q449 -277 440 -277H405V-128H363V-277H277V-235H235V-277H149V-128H107V-277H77Q72 -277 67 -280Q60 -284 57 -292Q54 -300 58 -308L107 -405Z"/>
</svg>