<svg xmlns="http://www.w3.org/2000/svg" viewBox="0 -512 512 512">
	<path fill="#000000" d="M122 -395Q133 -405 149 -405H192Q210 -405 222.5 -392.5Q235 -380 235 -363V-341H405Q423 -341 435.5 -328.5Q448 -316 448 -299V-213Q457 -213 463 -207Q469 -201 469 -192Q469 -183 463 -177Q457 -171 448 -171H363Q354 -171 347.5 -177Q341 -183 341 -192Q341 -201 347.5 -207Q354 -213 363 -213V-256H260ZM445 37L472 10L51 -411L24 -384L78 -330Q68 -321 65.5 -308Q63 -295 67.5 -283Q72 -271 83 -263.5Q94 -256 107 -256V-64H85Q68 -64 55.5 -51.5Q43 -39 43 -21V21H299V-21Q299 -39 286.5 -51.5Q274 -64 256 -64H235V-173Z"/>
</svg>