<svg xmlns="http://www.w3.org/2000/svg" viewBox="0 -512 512 512">
	<path fill="#000000" d="M256 -379Q246 -367 236 -355Q212 -325 192 -296Q164 -255 148 -221Q128 -179 128 -149Q128 -115 145 -85.5Q162 -56 191.5 -38.5Q221 -21 256 -21Q291 -21 320.5 -38.5Q350 -56 367 -85.5Q384 -115 384 -149Q384 -203 320 -296Q288 -343 256 -379ZM309 -235L331 -213L203 -85L181 -107ZM208 -235Q219 -235 227 -227Q235 -219 235 -208Q235 -197 227 -189Q219 -181 208 -181Q197 -181 189 -189Q181 -197 181 -208Q181 -219 189 -227Q197 -235 208 -235ZM304 -139Q315 -139 323 -131Q331 -123 331 -112Q331 -101 323 -93Q315 -85 304 -85Q293 -85 285 -93Q277 -101 277 -112Q277 -123 285 -131Q293 -139 304 -139Z"/>
</svg>