<svg xmlns="http://www.w3.org/2000/svg" viewBox="0 -512 512 512">
	<path fill="#000000" d="M395 -289Q383 -277 380 -261.5Q377 -246 382 -231L320 -169V-213Q320 -222 313.5 -228.5Q307 -235 299 -235H277Q277 -238 277 -245Q277 -277 261.5 -304Q246 -331 219 -347Q192 -363 160 -363Q128 -363 101 -347Q74 -331 58.5 -304Q43 -277 43 -245Q43 -218 54 -194.5Q65 -171 85 -155V-21Q85 -13 91.5 -6.5Q98 0 107 0H299Q307 0 313.5 -6.5Q320 -13 320 -21V-109L412 -201Q427 -196 442.5 -199Q458 -202 469 -213ZM86 -235Q86 -236 86 -238L85 -245Q85 -276 107 -298Q129 -320 160 -320Q191 -320 213 -298Q235 -276 235 -245L234 -235ZM277 -43H128V-192H277Z"/>
</svg>