<svg xmlns="http://www.w3.org/2000/svg" viewBox="0 -512 512 512">
	<path fill="#000000" d="M77 -277H107V-128H149V-277H235V-235H277V-277H363V-128H405V-277H440Q449 -277 455 -283.5Q461 -290 461 -299Q461 -303 460 -305L405 -405H107L58 -308Q54 -300 57 -292Q60 -284 67 -280Q72 -277 77 -277ZM133 -363H379L400 -320H112ZM43 -107V-64H85V21H427V-64H469V-107ZM384 -21H128V-64H384ZM297 -213Q302 -213 305 -210Q308 -207 308 -203L300 -137Q299 -133 296 -130.5Q293 -128 289 -128H223Q219 -128 216 -130.5Q213 -133 212 -137L204 -201Q204 -206 206.5 -209.5Q209 -213 213 -213Z"/>
</svg>