<svg xmlns="http://www.w3.org/2000/svg" viewBox="0 -512 512 512">
	<path fill="#000000" d="M256 -380Q246 -368 236 -356Q212 -326 192 -297Q164 -255 148 -221Q128 -179 128 -149Q128 -115 145.5 -85.5Q163 -56 192 -38.5Q221 -21 256 -21Q291 -21 320 -38.5Q349 -56 366.5 -85.5Q384 -115 384 -149Q384 -179 364 -221Q348 -255 320 -297Q300 -326 276 -356ZM256 -267V-235Q291 -235 316 -210Q341 -185 341 -149Q341 -120 326 -102L303 -126Q309 -135 309 -149Q309 -172 293.5 -187.5Q278 -203 256 -203V-171L209 -218ZM186 -196L209 -173Q203 -163 203 -149Q203 -127 218.5 -111.5Q234 -96 256 -96V-128L303 -81L256 -32V-64Q221 -64 196 -89Q171 -114 171 -149Q171 -178 186 -196Z"/>
</svg>