<svg xmlns="http://www.w3.org/2000/svg" viewBox="0 -512 512 512">
	<path fill="#000000" d="M256 -405Q198 -405 149 -376.5Q100 -348 71.5 -299Q43 -250 43 -192Q43 -134 71.5 -85Q100 -36 149 -7.5Q198 21 256 21Q314 21 363 -7.5Q412 -36 440.5 -85Q469 -134 469 -192Q469 -250 440.5 -299Q412 -348 363 -376.5Q314 -405 256 -405ZM256 -43Q227 -43 202.5 -57Q178 -71 163.5 -95.5Q149 -120 149 -149Q149 -174 166 -209Q179 -238 203 -272Q219 -296 239 -321L256 -340L273 -321Q293 -296 309 -272Q333 -238 346 -209Q363 -174 363 -149Q363 -120 348.5 -95.5Q334 -71 309.5 -57Q285 -43 256 -43Z"/>
</svg>