<svg xmlns="http://www.w3.org/2000/svg" viewBox="0 -512 512 512">
	<path fill="#000000" d="M405 -139Q411 -132 416 -126Q429 -110 437 -96Q448 -77 448 -64Q448 -46 435.5 -33.5Q423 -21 405.5 -21Q388 -21 375.5 -33.5Q363 -46 363 -64Q363 -82 384 -112Q395 -127 405 -139ZM107 -64V-256Q89 -256 76.5 -268.5Q64 -281 64 -298.5Q64 -316 76.5 -328.5Q89 -341 107 -341V-363Q107 -380 119.5 -392.5Q132 -405 149 -405H192Q210 -405 222.5 -392.5Q235 -380 235 -363V-341H405Q423 -341 435.5 -328.5Q448 -316 448 -299V-213Q457 -213 463 -207Q469 -201 469 -192Q469 -183 463 -177Q457 -171 448 -171H363Q354 -171 347.5 -177Q341 -183 341 -192Q341 -201 347.5 -207Q354 -213 363 -213V-256H235V-64H256Q274 -64 286.5 -51.5Q299 -39 299 -21V21H43V-21Q43 -39 55.5 -51.5Q68 -64 85 -64Z"/>
</svg>