<svg xmlns="http://www.w3.org/2000/svg" viewBox="0 -512 512 512">
	<path fill="#000000" d="M128 -405Q110 -405 97.5 -392.5Q85 -380 85 -363V-107Q85 -89 97.5 -76.5Q110 -64 128 -64H149V-21H85V21H149Q167 21 179.5 8.5Q192 -4 192 -21V-64H235V-21Q235 -4 247.5 8.5Q260 21 277 21H341V-21H277V-64H299Q316 -64 328.5 -76.5Q341 -89 341 -107V-363Q341 -380 328.5 -392.5Q316 -405 299 -405ZM213 -342Q231 -342 243.5 -329.5Q256 -317 256 -299.5Q256 -282 243.5 -269.5Q231 -257 213.5 -257Q196 -257 183.5 -269.5Q171 -282 171 -299.5Q171 -317 183.5 -329.5Q196 -342 213 -342ZM171 -139H256V-107H171ZM384 -128H427V-85H384ZM384 -299H427V-171H384Z"/>
</svg>