<svg xmlns="http://www.w3.org/2000/svg" viewBox="0 -512 512 512">
	<path fill="#000000" d="M341 -149V-192H376Q384 -167 384 -149ZM332 -277Q318 -300 303 -320H299V-277ZM341 -192V-235H299V-192ZM341 -263V-235H357ZM256 -107V-149H299V-192H256V-235H299V-277H256V-320H299V-326Q275 -357 256 -379L236 -355Q212 -325 192 -296Q164 -255 148 -221Q128 -179 128 -149Q128 -115 145 -85.5Q162 -56 191.5 -38.5Q221 -21 256 -21V-64H299V-107ZM299 -29Q323 -37 341 -54V-64H299ZM299 -107H341V-149H299ZM341 -64H351Q368 -82 377 -107H341Z"/>
</svg>