<svg xmlns="http://www.w3.org/2000/svg" viewBox="0 -512 512 512">
	<path fill="#000000" d="M213 -303L133 -383Q139 -393 149 -399Q159 -405 171 -405H341Q359 -405 371.5 -392.5Q384 -380 384 -363V-132L259 -257Q276 -258 287.5 -270.5Q299 -283 299 -300Q299 -317 286.5 -329.5Q274 -342 256.5 -342Q239 -342 227 -330.5Q215 -319 213 -303ZM320 -64V-21H384V21H320Q302 21 289.5 8.5Q277 -4 277 -21V-64H235V-21Q235 -4 222.5 8.5Q210 21 192 21H128V-21H192V-64H171Q153 -64 140.5 -76.5Q128 -89 128 -107V-280L24 -384L51 -411L472 10L445 37L343 -64ZM299 -107V-109L269 -139H213V-107Z"/>
</svg>