<svg xmlns="http://www.w3.org/2000/svg" viewBox="0 -512 512 512">
	<path fill="#000000" d="M427 -192H469V-149H427Q383 -149 341 -171Q301 -150 256 -150Q211 -150 171 -171Q129 -149 85 -149H43V-192H85Q130 -192 171 -220Q210 -193 256 -193Q302 -193 341 -220Q382 -192 427 -192ZM427 -320H469V-277H427Q383 -277 341 -299Q301 -278 256 -278Q211 -278 171 -299Q129 -277 85 -277H43V-320H85Q130 -320 171 -348Q210 -321 256 -321Q302 -321 341 -348Q382 -320 427 -320ZM427 -64H469V-21H427Q383 -21 341 -43Q301 -22 256 -22Q211 -22 171 -43Q129 -21 85 -21H43V-64H85Q130 -64 171 -92Q210 -65 256 -65Q302 -65 341 -92Q382 -64 427 -64Z"/>
</svg>