<svg xmlns="http://www.w3.org/2000/svg" viewBox="0 -512 512 512">
	<path fill="#000000" d="M427 -149H469V-107H427Q383 -107 341 -128Q301 -107 256 -107Q211 -107 171 -128Q129 -107 85 -107H43V-149H85Q130 -149 171 -178Q210 -150 256 -150Q302 -150 341 -178Q382 -149 427 -149ZM427 -21H469V21H427Q383 21 341 0Q301 21 256 21Q211 21 171 0Q129 21 85 21H43V-21H85Q130 -21 171 -50Q210 -22 256 -22Q302 -22 341 -50Q382 -21 427 -21ZM149 -405L64 -320H128V-213H171V-320H235ZM363 -405L277 -320H341V-213H384V-320H448Z"/>
</svg>