<svg xmlns="http://www.w3.org/2000/svg" viewBox="0 -512 512 512">
	<path fill="#000000" d="M64 -192H149Q149 -213 157.5 -232.5Q166 -252 181 -267Q196 -282 215.5 -290.5Q235 -299 256 -299Q277 -299 296.5 -290.5Q316 -282 331 -267Q346 -252 354.5 -232.5Q363 -213 363 -192H448Q456 -192 462.5 -185.5Q469 -179 469 -170.5Q469 -162 462.5 -155.5Q456 -149 448 -149H64Q56 -149 49.5 -156Q43 -163 43 -171Q43 -179 49.5 -185.5Q56 -192 64 -192ZM271 -100L337 -34Q344 -28 344 -19Q344 -10 337.5 -4Q331 2 322.5 2Q314 2 307 -4L256 -55L205 -4Q198 2 189.5 2Q181 2 174.5 -4Q168 -10 168 -19Q168 -28 175 -34L241 -100Q248 -107 256 -107Q264 -107 271 -100Z"/>
</svg>