<svg xmlns="http://www.w3.org/2000/svg" viewBox="0 -512 512 512">
	<path fill="#000000" d="M256 -149Q274 -149 286.5 -161.5Q299 -174 299 -192Q299 -210 286.5 -222.5Q274 -235 256 -235Q238 -235 225.5 -222.5Q213 -210 213 -192Q213 -174 225.5 -161.5Q238 -149 256 -149ZM384 -405Q355 -384 331 -356Q323 -348 313 -335L311 -332Q307 -324 309.5 -315.5Q312 -307 320 -303Q350 -286 367 -256Q384 -226 384 -192Q384 -100 322 -46Q277 -6 204 12Q177 18 150 20L128 21Q157 0 181 -28Q189 -36 199 -49L201 -52Q205 -60 202.5 -68.5Q200 -77 192 -81Q162 -98 145 -128Q128 -158 128 -192Q128 -284 190 -338Q235 -378 309 -396Q335 -402 362 -404ZM201 -289Q171 -251 171 -192Q171 -169 182 -149.5Q193 -130 212.5 -119Q232 -108 241 -88Q250 -68 245 -47Q287 -66 311 -95Q341 -133 341 -192Q341 -215 330 -234.5Q319 -254 299.5 -265Q280 -276 271 -296Q262 -316 268 -337Q225 -319 201 -289Z"/>
</svg>