<svg xmlns="http://www.w3.org/2000/svg" viewBox="0 -512 512 512">
	<path fill="#000000" d="M96 -158Q104 -154 106 -145Q108 -136 103.5 -128.5Q99 -121 91 -119Q83 -117 75 -121Q50 -135 35.5 -159.5Q21 -184 21 -213Q21 -242 35.5 -266.5Q50 -291 74.5 -305.5Q99 -320 128 -320Q144 -358 178.5 -381.5Q213 -405 256 -405Q292 -405 323 -388Q354 -371 373 -341.5Q392 -312 395 -277H405Q441 -277 466 -252Q491 -227 491 -192Q491 -157 466 -132Q441 -107 405 -107Q396 -107 390 -113Q384 -119 384 -128Q384 -137 390 -143Q396 -149 405 -149Q423 -149 435.5 -161.5Q448 -174 448 -192Q448 -210 435.5 -222.5Q423 -235 405 -235H363V-256Q363 -285 348.5 -309.5Q334 -334 309.5 -348.5Q285 -363 256 -363Q216 -363 186.5 -337.5Q157 -312 151 -273Q139 -277 128 -277Q101 -277 82.5 -258.5Q64 -240 64 -213Q64 -196 72.5 -181Q81 -166 96 -158ZM203 -213H267L224 -128H267L187 21L203 -85H149ZM373 -50Q373 -29 359 -14.5Q345 0 325 0Q305 0 291 -14.5Q277 -29 277 -49.5Q277 -70 301 -107Q313 -125 325 -139L338 -123Q352 -104 361 -87Q373 -64 373 -50Z"/>
</svg>