<svg xmlns="http://www.w3.org/2000/svg" viewBox="0 -512 512 512">
	<path fill="#000000" d="M256 -299Q285 -299 309.5 -284.5Q334 -270 348.5 -245.5Q363 -221 363 -192Q363 -163 348.5 -138.5Q334 -114 309.5 -99.5Q285 -85 256 -85Q227 -85 202.5 -99.5Q178 -114 163.5 -138.5Q149 -163 149 -192Q149 -221 163.5 -245.5Q178 -270 202.5 -284.5Q227 -299 256 -299ZM256 -256Q229 -256 210.5 -237.5Q192 -219 192 -192Q192 -165 210.5 -146.5Q229 -128 256 -128Q283 -128 301.5 -146.5Q320 -165 320 -192Q320 -219 301.5 -237.5Q283 -256 256 -256ZM256 -405L307 -332Q282 -341 256 -341Q230 -341 205 -332ZM71 -299L160 -306Q140 -289 127 -267Q114 -245 109 -218ZM72 -85L109 -166Q114 -140 127 -117.5Q140 -95 160 -77ZM441 -299L403 -218Q398 -244 385 -267Q372 -290 352 -306ZM440 -85L352 -78Q372 -95 385 -117.5Q398 -140 403 -166ZM256 21L205 -52Q230 -43 255.5 -43Q281 -43 307 -52Z"/>
</svg>