<svg xmlns="http://www.w3.org/2000/svg" viewBox="0 -512 512 512">
	<path fill="#000000" d="M289 -391Q273 -398 253 -402L307 -430L326 -368Q309 -382 289 -391ZM130 -374Q114 -363 102 -349L105 -409L168 -394Q148 -388 130 -374ZM384 -262Q381 -282 375 -298L426 -266L382 -218Q386 -239 384 -262ZM65 -228Q67 -210 73 -191L23 -223L66 -271Q63 -249 65 -228ZM356 26Q356 42 345 53Q334 64 319 64Q304 64 293 53Q282 42 282 26Q282 10 301 -18Q310 -31 319 -42L329 -30Q339 -16 346 -3Q356 15 356 26ZM129 10Q127 3 130 -2Q133 -7 140 -9L173 -18L148 -43Q144 -47 144 -53.5Q144 -60 148.5 -64.5Q153 -69 159.5 -69Q166 -69 171 -64L195 -40L204 -73Q205 -80 210.5 -83Q216 -86 222.5 -84.5Q229 -83 232 -77.5Q235 -72 233 -65L224 -32L258 -41Q265 -42 270 -39Q275 -36 277 -30Q279 -24 275.5 -18.5Q272 -13 266 -11L232 -2L257 22Q262 27 262 33.5Q262 40 257.5 44.5Q253 49 246.5 49Q240 49 235 44L211 19L202 53Q200 59 194.5 62.5Q189 66 183 64Q177 62 173.5 56.5Q170 51 172 45L181 12L147 20Q141 22 135.5 19Q130 16 129 10ZM405 -127Q394 -127 384 -124V-127Q384 -156 372 -181Q360 -206 340 -224Q347 -264 328 -300Q309 -336 272 -352Q243 -365 212 -361.5Q181 -358 155.5 -340Q130 -322 117 -293Q103 -262 108 -229Q113 -196 134 -170H128Q93 -170 68 -145Q43 -120 43 -85Q43 -67 50 -51Q57 -35 70 -23L74 -19Q80 -16 85 -16Q93 -16 100 -23Q109 -32 106 -44Q104 -49 100 -53Q85 -66 85 -84Q85 -102 97.5 -114.5Q110 -127 128 -127H171Q171 -163 196 -188Q221 -213 256 -213Q291 -213 316 -188Q341 -163 341 -127V-85H405Q414 -85 420.5 -78.5Q427 -72 427 -63.5Q427 -55 420.5 -48.5Q414 -42 405 -42H384L378 -41Q372 -40 368 -36Q363 -30 363 -21Q363 -7 373 -2Q379 1 384 1H405Q432 1 450.5 -18Q469 -37 469 -63.5Q469 -90 450.5 -108.5Q432 -127 405 -127ZM256 -255Q227 -255 201.5 -243Q176 -231 158 -210Q150 -225 149.5 -242Q149 -259 156 -275Q168 -304 197 -315Q226 -326 255 -313Q274 -304 286 -286.5Q298 -269 299 -248Q278 -255 256 -255Z"/>
</svg>