<svg xmlns="http://www.w3.org/2000/svg" viewBox="0 -512 512 512">
	<path fill="#000000" d="M128 -299L143 -297Q153 -335 184.5 -359.5Q216 -384 256 -384Q279 -384 300.5 -375Q322 -366 338.5 -349.5Q355 -333 364 -311.5Q373 -290 373 -267L372 -246Q387 -256 405 -256Q432 -256 450.5 -237.5Q469 -219 469 -192Q469 -165 450.5 -146.5Q432 -128 405 -128H128Q93 -128 68 -153Q43 -178 43 -213.5Q43 -249 68 -274Q93 -299 128 -299ZM128 -256Q110 -256 97.5 -243.5Q85 -231 85 -213.5Q85 -196 97.5 -183.5Q110 -171 128 -171H405Q414 -171 420.5 -177Q427 -183 427 -192Q427 -201 420.5 -207Q414 -213 405 -213H331V-267Q331 -298 309 -319.5Q287 -341 256 -341Q225 -341 203 -319.5Q181 -298 181 -267V-256ZM469 -43L405 21V-21H43V-64H405V-107Z"/>
</svg>