<svg xmlns="http://www.w3.org/2000/svg" viewBox="0 -512 512 512">
	<path fill="#000000" d="M64 -192H149Q149 -213 157.5 -232.5Q166 -252 181 -267Q196 -282 215.5 -290.5Q235 -299 256 -299Q277 -299 296.5 -290.5Q316 -282 331 -267Q346 -252 354.5 -232.5Q363 -213 363 -192H448Q456 -192 462.5 -185.5Q469 -179 469 -170.5Q469 -162 462.5 -155.5Q456 -149 448 -149H64Q56 -149 49.5 -156Q43 -163 43 -171Q43 -179 49.5 -185.5Q56 -192 64 -192ZM107 -107H405Q413 -107 420 -100.5Q427 -94 427 -85.5Q427 -77 420.5 -70.5Q414 -64 405 -64H107Q98 -64 91.5 -70.5Q85 -77 85 -85Q85 -93 92 -100Q99 -107 107 -107ZM363 -21Q371 -21 377.5 -14.5Q384 -8 384 0Q384 8 377.5 14.5Q371 21 363 21H149Q141 21 134.5 14.5Q128 8 128 0Q128 -8 134.5 -14.5Q141 -21 149 -21Z"/>
</svg>