<svg xmlns="http://www.w3.org/2000/svg" viewBox="0 -512 512 512">
	<path fill="#000000" d="M85 -235Q76 -235 70 -241Q64 -247 64 -256Q64 -265 70 -271Q76 -277 85 -277H256Q274 -277 286.5 -289.5Q299 -302 299 -320Q299 -338 286.5 -350.5Q274 -363 256 -363Q238 -363 226 -350Q220 -344 211 -344Q202 -344 195.5 -350Q189 -356 189 -365Q189 -374 196 -380Q221 -405 256 -405Q291 -405 316 -380Q341 -355 341 -320Q341 -285 316 -260Q291 -235 256 -235ZM405 -192Q414 -192 420.5 -198Q427 -204 427 -213Q427 -222 420.5 -228.5Q414 -235 405 -235Q396 -235 390 -228.5Q384 -222 375 -222Q366 -222 360 -228.5Q354 -235 354 -243.5Q354 -252 360 -259Q379 -277 405.5 -277Q432 -277 450.5 -258.5Q469 -240 469 -213.5Q469 -187 450.5 -168Q432 -149 405 -149H107Q98 -149 91.5 -155.5Q85 -162 85 -171Q85 -180 91.5 -186Q98 -192 107 -192ZM384 -64H85Q76 -64 70 -70Q64 -76 64 -85Q64 -94 70 -100.5Q76 -107 85 -107H384Q411 -107 429.5 -88Q448 -69 448 -42.5Q448 -16 429.5 2.5Q411 21 384.5 21Q358 21 339 3Q333 -4 333 -12.5Q333 -21 339 -27.5Q345 -34 354 -34Q363 -34 369 -27.5Q375 -21 384 -21Q393 -21 399 -27.5Q405 -34 405 -43Q405 -52 399 -58Q393 -64 384 -64Z"/>
</svg>