<svg xmlns="http://www.w3.org/2000/svg" viewBox="0 -512 512 512">
	<path fill="#000000" d="M256 -405L307 -332Q282 -341 256 -341Q230 -341 205 -332ZM71 -299L160 -306Q140 -289 127 -267Q114 -245 109 -218ZM441 -299L403 -218Q398 -244 385 -267Q372 -290 352 -306ZM299 -128Q299 -137 292.5 -143Q286 -149 277 -149H64Q55 -149 49 -143Q43 -137 43 -128Q43 -119 49 -113Q55 -107 64 -107H277Q286 -107 292.5 -113Q299 -119 299 -128ZM469 -128Q469 -137 463 -143Q457 -149 448 -149H363Q354 -149 347.5 -143Q341 -137 341 -128Q341 -119 347.5 -113Q354 -107 363 -107H448Q457 -107 463 -113Q469 -119 469 -128ZM213 -43Q213 -34 219.5 -27.5Q226 -21 235 -21H427Q436 -21 442 -27.5Q448 -34 448 -43Q448 -52 442 -58Q436 -64 427 -64H235Q226 -64 219.5 -58Q213 -52 213 -43ZM64 -43Q64 -34 70 -27.5Q76 -21 85 -21H149Q158 -21 164.5 -27.5Q171 -34 171 -43Q171 -52 164.5 -58Q158 -64 149 -64H85Q76 -64 70 -58Q64 -52 64 -43ZM256 -256Q283 -256 301.5 -237.5Q320 -219 320 -192H363Q363 -221 348.5 -245.5Q334 -270 309.5 -284.5Q285 -299 256 -299Q227 -299 202.5 -284.5Q178 -270 163.5 -245.5Q149 -221 149 -192H192Q192 -219 210.5 -237.5Q229 -256 256 -256Z"/>
</svg>