<svg xmlns="http://www.w3.org/2000/svg" viewBox="0 -512 512 512">
	<path fill="#000000" d="M128 -149Q137 -149 143 -142.5Q149 -136 149 -127.5Q149 -119 143 -112.5Q137 -106 128 -106Q99 -106 74.5 -120.5Q50 -135 35.5 -159.5Q21 -184 21 -213Q21 -242 35.5 -266.5Q50 -291 74.5 -305Q99 -319 128 -319Q144 -358 178.5 -381.5Q213 -405 256 -405Q292 -405 323 -387.5Q354 -370 373 -341Q392 -312 395 -276L405 -277Q441 -277 466 -252Q491 -227 491 -191.5Q491 -156 466 -131Q441 -106 405 -106H384Q375 -106 369 -112.5Q363 -119 363 -127.5Q363 -136 369 -142.5Q375 -149 384 -149H405Q423 -149 435.5 -161.5Q448 -174 448 -191.5Q448 -209 435.5 -221.5Q423 -234 405 -234H363V-255Q363 -284 348.5 -308.5Q334 -333 309.5 -347.5Q285 -362 256 -362Q216 -362 186.5 -336.5Q157 -311 151 -273Q140 -277 128 -277Q101 -277 82.5 -258Q64 -239 64 -212.5Q64 -186 82.5 -167.5Q101 -149 128 -149ZM256 -146Q261 -139 268 -129Q299 -86 299 -64Q299 -46 286.5 -33.5Q274 -21 256 -21Q238 -21 225.5 -33.5Q213 -46 213 -64Q213 -86 244 -129ZM256 -213L245 -201L234 -187Q220 -170 209 -153Q191 -128 183 -110Q171 -85 171 -64Q171 -29 196 -4Q221 21 256 21Q291 21 316 -4Q341 -29 341 -64Q341 -85 329 -110Q321 -128 303 -154Q285 -180 267 -201Z"/>
</svg>