<svg xmlns="http://www.w3.org/2000/svg" viewBox="0 -512 512 512">
	<path fill="#000000" d="M405 -128Q394 -128 384 -124V-128Q384 -156 372 -181.5Q360 -207 340 -225Q347 -264 328 -300Q309 -336 272 -353Q243 -366 212 -362.5Q181 -359 155.5 -340.5Q130 -322 117 -293Q103 -262 108 -229Q113 -196 134 -171H128Q93 -171 68 -146Q43 -121 43 -85.5Q43 -50 68 -25Q93 0 128 0H149L155 -1Q161 -2 165 -6Q171 -12 171 -21.5Q171 -31 165 -36Q161 -40 155 -42L149 -43H128Q110 -43 97.5 -55.5Q85 -68 85 -85.5Q85 -103 97.5 -115.5Q110 -128 128 -128H171Q171 -163 196 -188Q221 -213 256 -213Q291 -213 316 -188Q341 -163 341 -128V-85H405Q414 -85 420.5 -79Q427 -73 427 -64Q427 -55 420.5 -49Q414 -43 405 -43H363L357 -42Q351 -40 347 -36Q341 -31 341 -21.5Q341 -12 347 -6Q351 -2 357 -1L363 0H405Q432 0 450.5 -18.5Q469 -37 469 -64Q469 -91 450.5 -109.5Q432 -128 405 -128ZM256 -256Q227 -256 201.5 -244Q176 -232 158 -211Q150 -225 149.5 -242.5Q149 -260 156 -276Q168 -304 197 -315Q226 -326 255 -314Q274 -305 286 -287.5Q298 -270 299 -249Q278 -256 256 -256ZM289 -392Q271 -399 253 -403L307 -431L326 -369Q309 -382 289 -392ZM130 -375Q114 -364 102 -349L105 -409L168 -395Q148 -388 130 -375ZM384 -262Q381 -282 375 -299L426 -267L382 -219Q386 -239 384 -262ZM65 -228Q67 -210 73 -192L23 -224L66 -271Q63 -249 65 -228ZM252 -128H304L269 -58H304L239 64L252 -23H208Z"/>
</svg>