<svg xmlns="http://www.w3.org/2000/svg" viewBox="0 -512 512 512">
	<path fill="#000000" d="M128 -320L143 -319Q153 -357 184.5 -381Q216 -405 256 -405Q279 -405 300.5 -396Q322 -387 338.5 -370.5Q355 -354 364 -332.5Q373 -311 373 -288L372 -268Q387 -277 405 -277Q432 -277 450.5 -258.5Q469 -240 469 -213.5Q469 -187 450.5 -168Q432 -149 405 -149H128Q93 -149 68 -174Q43 -199 43 -234.5Q43 -270 68 -295Q93 -320 128 -320ZM128 -277Q110 -277 97.5 -264.5Q85 -252 85 -234.5Q85 -217 97.5 -204.5Q110 -192 128 -192H405Q414 -192 420.5 -198Q427 -204 427 -213Q427 -222 420.5 -228.5Q414 -235 405 -235H331V-288Q331 -319 309 -341Q287 -363 256 -363Q225 -363 203 -341Q181 -319 181 -288V-277ZM384 -64H85Q76 -64 70 -70Q64 -76 64 -85Q64 -94 70 -100.5Q76 -107 85 -107H384Q411 -107 429.5 -88Q448 -69 448 -42.5Q448 -16 429.5 2.5Q411 21 384.5 21Q358 21 339 3Q333 -4 333 -12.5Q333 -21 339 -27.5Q345 -34 354 -34Q363 -34 369 -27.5Q375 -21 384 -21Q393 -21 399 -27.5Q405 -34 405 -43Q405 -52 399 -58Q393 -64 384 -64Z"/>
</svg>