<svg xmlns="http://www.w3.org/2000/svg" viewBox="0 -512 512 512">
	<path fill="#000000" d="M395 -50Q395 -29 381 -14.5Q367 0 347 0Q327 0 313 -14.5Q299 -29 299 -49.5Q299 -70 323 -107Q335 -125 347 -139L359 -123Q373 -104 382 -87Q395 -64 395 -50ZM85 -78Q83 -86 87.5 -94Q92 -102 101 -104L149 -117L114 -152Q107 -159 107 -168Q107 -177 113.5 -183.5Q120 -190 129.5 -190Q139 -190 145 -183L180 -148L193 -196Q195 -205 203 -209.5Q211 -214 219.5 -212Q228 -210 232.5 -202Q237 -194 235 -185L222 -137L270 -149Q279 -152 287 -147.5Q295 -143 297.5 -134Q300 -125 295.5 -117.5Q291 -110 282 -108L234 -95L269 -60Q275 -53 275 -44Q275 -35 268.5 -28.5Q262 -22 253 -22Q244 -22 238 -28L203 -64L190 -16Q187 -7 179.5 -2.5Q172 2 163 0Q154 -2 149.5 -10Q145 -18 147 -27L160 -75L112 -62Q103 -60 95.5 -64.5Q88 -69 85 -78ZM21 -213Q21 -242 35.5 -266.5Q50 -291 74.5 -305.5Q99 -320 128 -320Q144 -358 178.5 -381.5Q213 -405 256 -405Q292 -405 323 -388Q354 -371 373 -341.5Q392 -312 395 -277H405Q441 -277 466 -252Q491 -227 491 -192Q491 -157 466 -132Q441 -107 405 -107Q396 -107 390 -113Q384 -119 384 -128Q384 -137 390 -143Q396 -149 405 -149Q423 -149 435.5 -161.5Q448 -174 448 -192Q448 -210 435.5 -222.5Q423 -235 405 -235H363V-256Q363 -285 348.5 -309.5Q334 -334 309.5 -348.5Q285 -363 256 -363Q216 -363 186.5 -337.5Q157 -312 151 -273Q139 -277 128 -277Q101 -277 82.5 -258.5Q64 -240 64 -213Q64 -186 83 -167Q89 -161 89 -152.5Q89 -144 83 -138Q77 -132 68 -132Q59 -132 53 -138Q38 -153 29.5 -172.5Q21 -192 21 -213Z"/>
</svg>