<svg xmlns="http://www.w3.org/2000/svg" viewBox="0 -512 512 512">
	<path fill="#000000" d="M256 -299Q227 -299 202.5 -284.5Q178 -270 163.5 -245.5Q149 -221 149 -192Q149 -163 163.5 -138.5Q178 -114 202.5 -99.5Q227 -85 256 -85Q285 -85 309.5 -99.5Q334 -114 348.5 -138.5Q363 -163 363 -192Q363 -221 348.5 -245.5Q334 -270 309.5 -284.5Q285 -299 256 -299ZM256 -128Q229 -128 210.5 -146.5Q192 -165 192 -192Q192 -219 210.5 -237.5Q229 -256 256 -256Q283 -256 301.5 -237.5Q320 -219 320 -192Q320 -165 301.5 -146.5Q283 -128 256 -128ZM256 -405L307 -332Q282 -341 256 -341Q230 -341 205 -332ZM71 -299L160 -306Q140 -289 127 -267Q114 -245 109 -218ZM72 -85L109 -166Q114 -140 127 -117.5Q140 -95 160 -77ZM256 21L205 -52Q230 -43 255.5 -43Q281 -43 307 -52ZM405 -171V-299H448V-171ZM405 -85V-128H448V-85Z"/>
</svg>