<svg xmlns="http://www.w3.org/2000/svg" viewBox="0 -512 512 512">
	<path fill="#000000" d="M64 -192H149Q149 -221 163.5 -245.5Q178 -270 202.5 -284.5Q227 -299 256 -299Q285 -299 309.5 -284.5Q334 -270 348.5 -245.5Q363 -221 363 -192H448Q457 -192 463 -186Q469 -180 469 -171Q469 -162 463 -155.5Q457 -149 448 -149H64Q55 -149 49 -155.5Q43 -162 43 -171Q43 -180 49 -186Q55 -192 64 -192ZM320 -192Q320 -219 301.5 -237.5Q283 -256 256 -256Q229 -256 210.5 -237.5Q192 -219 192 -192ZM256 -405L307 -332Q282 -341 256 -341Q230 -341 205 -332ZM71 -299L160 -306Q140 -289 127 -267Q114 -245 109 -218ZM441 -299L403 -218Q398 -244 385 -267Q372 -290 352 -306ZM271 -100L337 -34Q344 -28 344 -19Q344 -10 337.5 -4Q331 2 322.5 2Q314 2 307 -4L256 -55L205 -4Q198 2 189.5 2Q181 2 174.5 -4Q168 -10 168 -19Q168 -28 175 -34L241 -100Q248 -107 256 -107Q264 -107 271 -100Z"/>
</svg>