<svg xmlns="http://www.w3.org/2000/svg" viewBox="0 -512 512 512">
	<path fill="#000000" d="M128 -149Q137 -149 143 -143Q149 -137 149 -128Q149 -119 143 -113Q137 -107 128 -107Q99 -107 74.5 -121Q50 -135 35.5 -159.5Q21 -184 21 -213Q21 -242 35.5 -266.5Q50 -291 74.5 -305.5Q99 -320 128 -320Q144 -358 178.5 -381.5Q213 -405 256 -405Q292 -405 323 -388Q354 -371 373 -341.5Q392 -312 395 -277H405Q441 -277 466 -252Q491 -227 491 -192Q491 -157 466 -132Q441 -107 405 -107H384Q375 -107 369 -113Q363 -119 363 -128Q363 -137 369 -143Q375 -149 384 -149H405Q423 -149 435.5 -161.5Q448 -174 448 -192Q448 -210 435.5 -222.5Q423 -235 405 -235H363V-256Q363 -285 348.5 -309.5Q334 -334 309.5 -348.5Q285 -363 256 -363Q216 -363 186.5 -337.5Q157 -312 151 -273Q139 -277 128 -277Q101 -277 82.5 -258.5Q64 -240 64 -213.5Q64 -187 82.5 -168Q101 -149 128 -149ZM168 -63L215 -75L180 -109Q174 -115 174 -124Q174 -133 180.5 -139.5Q187 -146 196 -146Q205 -146 211 -140L245 -105L257 -152Q260 -160 267.5 -164.5Q275 -169 283.5 -167Q292 -165 296.5 -157Q301 -149 299 -141L286 -94L333 -107Q341 -109 349 -104.5Q357 -100 359 -91.5Q361 -83 356.5 -75.5Q352 -68 344 -65L297 -53L332 -19Q338 -13 338 -4Q338 5 331.5 11.5Q325 18 316 18Q307 18 301 12L267 -23L255 24Q252 32 244.5 36.5Q237 41 228.5 39Q220 37 215.5 29Q211 21 213 13L226 -34L179 -21Q171 -19 163 -23.5Q155 -28 153 -36.5Q151 -45 155.5 -52.5Q160 -60 168 -63Z"/>
</svg>