<svg xmlns="http://www.w3.org/2000/svg" viewBox="0 -512 512 512">
	<path fill="#000000" d="M379 -361L325 -319L344 -254L288 -293L232 -254L251 -319L197 -361L265 -363L288 -427L311 -363ZM453 -213L418 -187L431 -144L395 -169L358 -144L371 -187L336 -213L380 -214L395 -256L409 -214ZM405 -108Q413 -109 421.5 -102Q430 -95 432.5 -85.5Q435 -76 430 -68Q419 -52 407 -41Q366 0 311 14.5Q256 29 201 14.5Q146 0 105 -41Q64 -82 50 -137Q36 -192 50 -247Q64 -302 105 -343Q118 -356 132 -366Q140 -371 150 -368Q160 -365 166.5 -357Q173 -349 172 -340Q168 -294 183.5 -249Q199 -204 233.5 -169.5Q268 -135 313 -119Q358 -103 405 -108ZM370 -65Q324 -67 280.5 -86Q237 -105 203 -139Q169 -173 150 -216Q131 -259 129 -305Q99 -272 89.5 -229.5Q80 -187 92 -145Q104 -103 135.5 -71.5Q167 -40 209 -28Q251 -16 294 -25.5Q337 -35 370 -65Z"/>
</svg>