<svg xmlns="http://www.w3.org/2000/svg" viewBox="0 -512 512 512">
	<path fill="#000000" d="M448 -341H64Q55 -341 49 -347.5Q43 -354 43 -363Q43 -372 49 -378Q55 -384 64 -384H448Q457 -384 463 -378Q469 -372 469 -363Q469 -354 463 -347.5Q457 -341 448 -341ZM427 -277Q427 -286 420.5 -292.5Q414 -299 405 -299H107Q98 -299 91.5 -292.5Q85 -286 85 -277Q85 -268 91.5 -262Q98 -256 107 -256H405Q414 -256 420.5 -262Q427 -268 427 -277ZM448 -192Q448 -201 442 -207Q436 -213 427 -213H213Q204 -213 198 -207Q192 -201 192 -192Q192 -183 198 -177Q204 -171 213 -171H427Q436 -171 442 -177Q448 -183 448 -192ZM341 -107Q341 -116 335 -122Q329 -128 320 -128H192Q183 -128 177 -122Q171 -116 171 -107Q171 -98 177 -91.5Q183 -85 192 -85H320Q329 -85 335 -91.5Q341 -98 341 -107ZM277 -21Q277 -30 271 -36.5Q265 -43 256 -43H213Q204 -43 198 -36.5Q192 -30 192 -21Q192 -12 198 -6Q204 0 213 0H256Q265 0 271 -6Q277 -12 277 -21Z"/>
</svg>