<svg xmlns="http://www.w3.org/2000/svg" viewBox="0 -512 512 512">
	<path fill="#000000" d="M128 -107Q99 -107 74.5 -121Q50 -135 35.5 -159.5Q21 -184 21 -213Q21 -242 35.5 -266.5Q50 -291 74.5 -305.5Q99 -320 128 -320Q144 -358 178.5 -381.5Q213 -405 256 -405Q292 -405 323 -388Q354 -371 373 -341.5Q392 -312 395 -277H405Q441 -277 466 -252Q491 -227 491 -192Q491 -157 466 -132Q441 -107 405 -107H384Q375 -107 369 -113Q363 -119 363 -128Q363 -137 369 -143Q375 -149 384 -149H405Q423 -149 435.5 -161.5Q448 -174 448 -192Q448 -210 435.5 -222.5Q423 -235 405 -235H363V-256Q363 -285 348.5 -309.5Q334 -334 309.5 -348.5Q285 -363 256 -363Q216 -363 186.5 -337.5Q157 -312 151 -273Q139 -277 128 -277Q101 -277 82.5 -258.5Q64 -240 64 -213.5Q64 -187 82.5 -168Q101 -149 128 -149H149Q158 -149 164.5 -143Q171 -137 171 -128Q171 -119 164.5 -113Q158 -107 149 -107ZM256 -213H320L277 -128H320L240 21L256 -85H203Z"/>
</svg>