<svg xmlns="http://www.w3.org/2000/svg" viewBox="0 -512 512 512">
	<path fill="#000000" d="M64 -192H149Q149 -213 157.5 -232.5Q166 -252 181 -267Q196 -282 215.5 -290.5Q235 -299 256 -299Q277 -299 296.5 -290.5Q316 -282 331 -267Q346 -252 354.5 -232.5Q363 -213 363 -192H448Q456 -192 462.5 -185.5Q469 -179 469 -170.5Q469 -162 462.5 -155.5Q456 -149 448 -149H64Q56 -149 49.5 -156Q43 -163 43 -171Q43 -179 49.5 -185.5Q56 -192 64 -192ZM271 -6L337 -73Q344 -79 344 -88Q344 -97 337.5 -103Q331 -109 322.5 -109Q314 -109 307 -103L256 -51L205 -103Q198 -109 189.5 -109Q181 -109 174.5 -103Q168 -97 168 -88Q168 -79 175 -73L241 -6Q248 0 256 0Q264 0 271 -6Z"/>
</svg>