<svg xmlns="http://www.w3.org/2000/svg" viewBox="0 -512 512 512">
	<path fill="#000000" d="M64 -192H149Q149 -221 163.5 -245.5Q178 -270 202.5 -284.5Q227 -299 256 -299Q285 -299 309.5 -284.5Q334 -270 348.5 -245.5Q363 -221 363 -192H448Q457 -192 463 -186Q469 -180 469 -171Q469 -162 463 -155.5Q457 -149 448 -149H64Q55 -149 49 -155.5Q43 -162 43 -171Q43 -180 49 -186Q55 -192 64 -192ZM320 -192Q320 -219 301.5 -237.5Q283 -256 256 -256Q229 -256 210.5 -237.5Q192 -219 192 -192ZM256 -405L307 -332Q282 -341 256 -341Q230 -341 205 -332ZM71 -299L160 -306Q140 -289 127 -267Q114 -245 109 -218ZM441 -299L403 -218Q398 -244 385 -267Q372 -290 352 -306ZM271 -6L337 -73Q344 -79 344 -88Q344 -97 337.5 -103Q331 -109 322.5 -109Q314 -109 307 -103L256 -51L205 -103Q198 -109 189.5 -109Q181 -109 174.5 -103Q168 -97 168 -88Q168 -79 175 -73L241 -6Q248 0 256 0Q264 0 271 -6Z"/>
</svg>