<svg xmlns="http://www.w3.org/2000/svg" viewBox="0 -512 512 512">
	<path fill="#000000" d="M128 -42Q110 -42 97.5 -54.5Q85 -67 85 -84.5Q85 -102 97.5 -114.5Q110 -127 128 -127H171Q171 -163 196 -188Q221 -213 256 -213Q291 -213 316 -188Q341 -163 341 -127V-85H405Q414 -85 420.5 -78.5Q427 -72 427 -63.5Q427 -55 420.5 -48.5Q414 -42 405 -42H363L357 -41Q351 -40 347 -36Q341 -30 341 -21Q341 -7 352 -2Q357 1 363 1H405Q432 1 450.5 -18Q469 -37 469 -63.5Q469 -90 450.5 -108.5Q432 -127 405 -127Q394 -127 384 -124V-127Q384 -156 372 -181Q360 -206 340 -224Q347 -264 328 -300Q309 -336 272 -352Q243 -365 212 -361.5Q181 -358 155.5 -340Q130 -322 117 -293Q103 -262 108 -229Q113 -196 134 -170H128Q93 -170 68 -145Q43 -120 43 -84.5Q43 -49 68 -24Q93 1 128 1L134 0Q140 -2 144 -6Q149 -11 149 -20.5Q149 -30 144 -36Q140 -40 134 -41ZM256 -255Q227 -255 201.5 -243Q176 -231 158 -210Q150 -225 149.5 -242Q149 -259 156 -275Q168 -304 197 -315Q226 -326 255 -313Q274 -304 286 -286.5Q298 -269 299 -248Q278 -255 256 -255ZM289 -391Q273 -398 253 -402L307 -430L326 -368Q309 -382 289 -391ZM130 -374Q114 -363 102 -349L105 -409L168 -394Q148 -388 130 -374ZM384 -262Q381 -282 375 -298L426 -266L382 -218Q386 -239 384 -262ZM65 -228Q67 -210 73 -191L23 -223L66 -271Q63 -249 65 -228ZM171 10Q173 16 178.5 19Q184 22 190 20L224 12L215 45Q213 51 216 56.5Q219 62 225.5 64Q232 66 237.5 62.5Q243 59 244 53L253 19L278 44Q282 49 288.5 49Q295 49 299.5 44.5Q304 40 304 33.5Q304 27 300 22L275 -3L309 -11Q315 -13 318 -18.5Q321 -24 319.5 -30Q318 -36 312.5 -39Q307 -42 301 -41L267 -32L276 -65Q278 -72 274.5 -77.5Q271 -83 265 -84.5Q259 -86 253.5 -83Q248 -80 246 -73L238 -40L213 -65Q209 -69 202 -69Q195 -69 191 -64.5Q187 -60 187 -53.5Q187 -47 191 -43L216 -18L182 -9Q176 -7 173 -2Q170 3 171 10Z"/>
</svg>