<svg xmlns="http://www.w3.org/2000/svg" viewBox="0 -512 512 512">
	<path fill="#000000" d="M64 -192H149Q149 -221 163.5 -245.5Q178 -270 202.5 -284.5Q227 -299 256 -299Q285 -299 309.5 -284.5Q334 -270 348.5 -245.5Q363 -221 363 -192H448Q457 -192 463 -186Q469 -180 469 -171Q469 -162 463 -155.5Q457 -149 448 -149H64Q55 -149 49 -155.5Q43 -162 43 -171Q43 -180 49 -186Q55 -192 64 -192ZM107 -107H405Q414 -107 420.5 -100.5Q427 -94 427 -85Q427 -76 420.5 -70Q414 -64 405 -64H107Q98 -64 91.5 -70Q85 -76 85 -85Q85 -94 91.5 -100.5Q98 -107 107 -107ZM363 -21Q372 -21 378 -15Q384 -9 384 0Q384 9 378 15Q372 21 363 21H149Q140 21 134 15Q128 9 128 0Q128 -9 134 -15Q140 -21 149 -21ZM320 -192Q320 -219 301.5 -237.5Q283 -256 256 -256Q229 -256 210.5 -237.5Q192 -219 192 -192ZM256 -405L307 -332Q282 -341 256 -341Q230 -341 205 -332ZM71 -299L160 -306Q140 -289 127 -267Q114 -245 109 -218ZM441 -299L403 -218Q398 -244 385 -267Q372 -290 352 -306Z"/>
</svg>