<svg xmlns="http://www.w3.org/2000/svg" viewBox="0 -512 512 512">
	<path fill="#000000" d="M320 -171H352V-111L404 -80L388 -53L320 -92ZM387 -249Q372 -290 336.5 -315.5Q301 -341 257 -341Q213 -341 178.5 -317.5Q144 -294 128 -256Q99 -256 74.5 -241.5Q50 -227 35.5 -202.5Q21 -178 21 -149Q21 -120 35.5 -95.5Q50 -71 74.5 -57Q99 -43 128 -43H207Q225 -4 261 19.5Q297 43 341 43Q382 43 416.5 23Q451 3 471 -31.5Q491 -66 491 -107Q491 -156 462 -195Q433 -234 387 -249ZM128 -85Q101 -85 82.5 -104Q64 -123 64 -149.5Q64 -176 82.5 -194.5Q101 -213 128 -213Q139 -213 151 -209Q157 -248 186.5 -273.5Q216 -299 256 -299Q282 -299 304 -287.5Q326 -276 341 -256Q301 -256 266.5 -236Q232 -216 212 -181.5Q192 -147 192 -107Q192 -97 194 -85ZM341 0Q312 0 287.5 -14.5Q263 -29 249 -53.5Q235 -78 235 -107Q235 -136 249 -160.5Q263 -185 287.5 -199Q312 -213 341 -213Q370 -213 394.5 -199Q419 -185 433.5 -160.5Q448 -136 448 -107Q448 -78 433.5 -53.5Q419 -29 394.5 -14.5Q370 0 341 0Z"/>
</svg>