<svg xmlns="http://www.w3.org/2000/svg" viewBox="0 -512 512 512">
	<path fill="#000000" d="M128 -43Q99 -43 74.5 -57Q50 -71 35.5 -95.5Q21 -120 21 -149Q21 -178 35.5 -202.5Q50 -227 74.5 -241.5Q99 -256 128 -256Q144 -294 178.5 -317.5Q213 -341 256 -341Q292 -341 323 -324Q354 -307 373 -277.5Q392 -248 395 -213H405Q441 -213 466 -188Q491 -163 491 -128Q491 -93 466 -68Q441 -43 405 -43ZM405 -171H363V-192Q363 -221 348.5 -245.5Q334 -270 309.5 -284.5Q285 -299 256 -299Q216 -299 186.5 -273.5Q157 -248 151 -209Q139 -213 128 -213Q101 -213 82.5 -194.5Q64 -176 64 -149.5Q64 -123 82.5 -104Q101 -85 128 -85H405Q423 -85 435.5 -97.5Q448 -110 448 -128Q448 -146 435.5 -158.5Q423 -171 405 -171Z"/>
</svg>