<svg xmlns="http://www.w3.org/2000/svg" viewBox="0 -512 512 512">
	<path fill="#000000" d="M352 -198Q352 -210 349 -234V-235H421Q424 -223 425 -213Q449 -211 469 -203Q466 -258 437 -304.5Q408 -351 360 -378Q312 -405 255 -405Q198 -405 149 -376.5Q100 -348 71.5 -299Q43 -250 43 -192Q43 -134 71.5 -85Q100 -36 149 -7.5Q198 21 256 21Q283 21 309 14Q283 -18 278 -60Q267 -39 256 -22Q228 -63 215 -107H281Q287 -129 299 -149H206Q203 -172 203 -192Q203 -212 206 -235H306Q309 -210 309 -192Q309 -178 307 -160Q325 -184 352 -198ZM91 -149Q85 -172 85 -192Q85 -212 91 -235H163Q160 -210 160 -192Q160 -174 163 -149ZM108 -107H171Q183 -64 201 -31Q171 -41 147.5 -60.5Q124 -80 108 -107ZM171 -277H108Q124 -304 147.5 -323.5Q171 -343 201 -353Q183 -320 171 -277ZM215 -277Q228 -321 256 -362Q284 -321 297 -277ZM404 -277H341Q330 -318 311 -353Q341 -343 364.5 -323.5Q388 -304 404 -277ZM491 -75Q491 -49 476 -28L453 -51Q459 -62 459 -75Q459 -97 443 -112.5Q427 -128 405 -128V-96L357 -144L405 -192V-160Q441 -160 466 -135Q491 -110 491 -75ZM405 -53L453 -5L405 43V11Q370 11 345 -14Q320 -39 320 -75Q320 -100 334 -122L358 -99Q352 -87 352 -75Q352 -53 367.5 -37Q383 -21 405 -21Z"/>
</svg>