<svg xmlns="http://www.w3.org/2000/svg" viewBox="0 -512 512 512">
	<path fill="#000000" d="M320 -181V-96L384 -53L400 -80L352 -112V-181ZM469 -184Q469 -184 469 -184V-192Q469 -250 440.5 -299Q412 -348 363 -376.5Q314 -405 256 -405Q198 -405 149 -376.5Q100 -348 71.5 -299Q43 -250 43 -192Q43 -134 71.5 -85Q100 -36 149 -7.5Q198 21 256 21Q261 21 264 21Q300 43 341 43Q382 43 416 22.5Q450 2 470.5 -32Q491 -66 491 -107Q491 -148 469 -184ZM422 -232Q421 -233 420 -233L418 -235H421ZM404 -277H341Q330 -318 311 -353Q341 -343 364.5 -323.5Q388 -304 404 -277ZM256 -362Q284 -321 297 -277H215Q228 -321 256 -362ZM206 -235H265Q223 -210 204 -166Q203 -181 203 -192Q203 -212 206 -235ZM201 -353Q183 -320 171 -277H108Q124 -304 147.5 -323.5Q171 -343 201 -353ZM91 -149Q85 -172 85 -192Q85 -212 91 -235H163Q160 -210 160 -192Q160 -174 163 -149ZM108 -107H171Q183 -64 201 -31Q171 -41 147.5 -60.5Q124 -80 108 -107ZM341 0Q312 0 287.5 -14.5Q263 -29 249 -53.5Q235 -78 235 -107Q235 -136 249 -160.5Q263 -185 287.5 -199Q312 -213 341 -213Q370 -213 394.5 -199Q419 -185 433.5 -160.5Q448 -136 448 -107Q448 -78 433.5 -53.5Q419 -29 394.5 -14.5Q370 0 341 0Z"/>
</svg>