<svg xmlns="http://www.w3.org/2000/svg" viewBox="0 -512 512 512">
	<path fill="#000000" d="M201 -353Q193 -340 189 -328L221 -295Q234 -330 256 -362Q284 -321 297 -277H239L282 -235H306Q308 -223 309 -208L351 -166Q352 -183 352 -192Q352 -210 349 -235H421Q427 -212 427 -192Q427 -172 421 -149H367L437 -79Q469 -131 469 -192Q469 -250 440.5 -299Q412 -348 363 -376.5Q314 -405 256 -405Q195 -405 143 -373L175 -341Q186 -348 201 -353ZM404 -277H341Q330 -318 311 -353Q341 -343 364.5 -323.5Q388 -304 404 -277ZM51 -411L24 -384L87 -321Q66 -294 54.5 -261Q43 -228 43 -192Q43 -134 71.5 -85Q100 -36 149 -7.5Q198 21 256 21Q328 21 385 -22L445 37L472 10ZM117 -291L130 -277H108Q112 -283 117 -291ZM91 -149Q85 -172 85 -192Q85 -212 91 -235H163Q160 -210 160 -192Q160 -174 163 -149ZM108 -107H171Q183 -64 201 -31Q171 -41 147.5 -60.5Q124 -80 108 -107ZM203 -192Q203 -200 203 -204L258 -149H206Q203 -172 203 -192ZM256 -22Q228 -63 215 -107H297Q284 -63 256 -22ZM311 -31Q322 -51 331 -77L355 -53Q334 -39 311 -31Z"/>
</svg>