<svg xmlns="http://www.w3.org/2000/svg" viewBox="0 -512 512 512">
	<path fill="#000000" d="M352 -192Q352 -210 349 -235H421Q427 -212 427 -192Q427 -181 425 -169Q447 -166 466 -155Q469 -174 469 -192Q469 -250 440.5 -299Q412 -348 363 -376.5Q314 -405 256 -405Q198 -405 149 -376.5Q100 -348 71.5 -299Q43 -250 43 -192Q43 -134 71.5 -85Q100 -36 149 -7.5Q198 21 256 21Q274 21 293 18Q277 -10 277 -43Q277 -50 279 -61Q268 -39 256 -22Q228 -63 215 -107H295Q314 -141 350 -158Q352 -177 352 -192ZM256 -362Q284 -321 297 -277H215Q228 -321 256 -362ZM91 -149Q85 -172 85 -192Q85 -212 91 -235H163Q160 -210 160 -192Q160 -174 163 -149ZM108 -107H171Q183 -64 201 -31Q171 -41 147.5 -60.5Q124 -80 108 -107ZM171 -277H108Q124 -304 147.5 -323.5Q171 -343 201 -353Q183 -320 171 -277ZM306 -149H206Q203 -172 203 -192Q203 -212 206 -235H306Q309 -210 309 -192Q309 -174 306 -149ZM311 -353Q341 -343 364.5 -323.5Q388 -304 404 -277H341Q330 -318 311 -353ZM491 -64V-21H427V43H384V-21H320V-64H384V-128H427V-64Z"/>
</svg>