<svg xmlns="http://www.w3.org/2000/svg" viewBox="0 -512 512 512">
	<path fill="#000000" d="M295 -149H206Q203 -172 203 -192Q203 -212 206 -235H306Q309 -210 309 -192Q309 -177 307 -161Q327 -177 352 -185V-192Q352 -210 349 -235H421Q427 -212 427 -192V-188Q448 -183 468 -171Q469 -177 469 -192Q469 -250 440.5 -299Q412 -348 363 -376.5Q314 -405 256 -405Q198 -405 149 -376.5Q100 -348 71.5 -299Q43 -250 43 -192Q43 -134 71.5 -85Q100 -36 149 -7.5Q198 21 256 21Q271 21 277 20Q264 -2 259 -27L256 -22Q228 -63 215 -107H267Q276 -130 295 -149ZM404 -277H341Q330 -318 311 -353Q341 -343 364.5 -323.5Q388 -304 404 -277ZM256 -362Q284 -321 297 -277H215Q228 -321 256 -362ZM91 -149Q85 -172 85 -192Q85 -212 91 -235H163Q160 -210 160 -192Q160 -174 163 -149ZM108 -107H171Q183 -64 201 -31Q171 -41 147.5 -60.5Q124 -80 108 -107ZM171 -277H108Q124 -304 147.5 -323.5Q171 -343 201 -353Q183 -320 171 -277ZM395 -149Q355 -149 327 -121Q299 -93 299 -53Q299 -13 327 15Q355 43 395 43Q435 43 463 15Q491 -13 491 -53Q491 -93 463 -121Q435 -149 395 -149ZM395 11Q368 11 349.5 -8Q331 -27 331 -53Q331 -71 340 -85L427 2Q413 11 395 11ZM450 -21L363 -108Q377 -117 395 -117Q421 -117 440 -98.5Q459 -80 459 -53Q459 -35 450 -21Z"/>
</svg>