<svg xmlns="http://www.w3.org/2000/svg" viewBox="0 -512 512 512">
	<path fill="#000000" d="M349 -149Q352 -174 352 -192Q352 -210 349 -235H421Q427 -212 427 -192Q427 -172 421 -149ZM311 -31Q330 -66 341 -107H404Q388 -80 364.5 -60.5Q341 -41 311 -31ZM306 -149H206Q203 -172 203 -192Q203 -212 206 -235H306Q309 -210 309 -192Q309 -174 306 -149ZM256 -22Q228 -63 215 -107H297Q284 -63 256 -22ZM171 -277H108Q124 -304 147.5 -323.5Q171 -343 201 -353Q183 -320 171 -277ZM108 -107H171Q183 -64 201 -31Q171 -41 147.5 -60.5Q124 -80 108 -107ZM91 -149Q85 -172 85 -192Q85 -212 91 -235H163Q160 -210 160 -192Q160 -174 163 -149ZM256 -362Q284 -321 297 -277H215Q228 -321 256 -362ZM404 -277H341Q330 -318 311 -353Q341 -343 364.5 -323.5Q388 -304 404 -277ZM256 -405Q198 -405 149 -376.5Q100 -348 71.5 -299Q43 -250 43 -192Q43 -150 59 -110.5Q75 -71 105 -41Q135 -11 174.5 5Q214 21 256 21Q298 21 337.5 5Q377 -11 407 -41Q437 -71 453 -110.5Q469 -150 469 -192Q469 -234 453 -273.5Q437 -313 407 -343Q377 -373 337.5 -389Q298 -405 256 -405Z"/>
</svg>