<svg xmlns="http://www.w3.org/2000/svg" viewBox="0 -512 512 512">
	<path fill="#000000" d="M256 -405Q297 -405 331 -385Q365 -365 385 -331Q405 -297 405 -256Q405 -215 385 -181Q365 -147 331 -127Q297 -107 256 -107Q215 -107 181 -127Q147 -147 127 -181Q107 -215 107 -256Q107 -297 127 -331Q147 -365 181 -385Q215 -405 256 -405ZM256 -363Q227 -363 202.5 -348.5Q178 -334 163.5 -309.5Q149 -285 149 -256Q149 -227 163.5 -202.5Q178 -178 202.5 -163.5Q227 -149 256 -149Q285 -149 309.5 -163.5Q334 -178 348.5 -202.5Q363 -227 363 -256Q363 -285 348.5 -309.5Q334 -334 309.5 -348.5Q285 -363 256 -363ZM256 -320Q283 -320 301.5 -301.5Q320 -283 320 -256Q320 -229 301.5 -210.5Q283 -192 256 -192Q229 -192 210.5 -210.5Q192 -229 192 -256Q192 -283 210.5 -301.5Q229 -320 256 -320ZM128 21Q110 21 97.5 8.5Q85 -4 85 -21Q85 -34 92 -43L130 -111Q156 -89 188.5 -76.5Q221 -64 256 -64Q291 -64 323.5 -76.5Q356 -89 382 -111L420 -43Q427 -34 427 -21Q427 -4 414.5 8.5Q402 21 384 21Z"/>
</svg>