<svg xmlns="http://www.w3.org/2000/svg" viewBox="0 -512 512 512">
	<path fill="#000000" d="M256 -320Q283 -320 301.5 -301.5Q320 -283 320 -257Q320 -231 303 -213L213 -303Q231 -320 256 -320ZM256 -363Q285 -363 309.5 -348.5Q334 -334 348.5 -309.5Q363 -285 363 -256Q363 -214 333 -183L364 -153Q383 -173 394 -199.5Q405 -226 405 -256Q405 -297 385 -331Q365 -365 331 -385Q297 -405 256 -405Q226 -405 199.5 -394Q173 -383 153 -364L183 -333Q214 -363 256 -363ZM472 10L445 37L415 7Q403 21 384 21H128Q110 21 97.5 8.5Q85 -4 85 -21Q85 -34 92 -43L130 -111Q156 -89 188.5 -76.5Q221 -64 257 -64Q293 -64 329 -79L295 -112Q276 -107 256 -107Q215 -107 181 -127Q147 -147 127 -181Q107 -215 107 -256Q107 -276 112 -295L24 -384L51 -411ZM258 -149L149 -258V-256Q149 -227 163.5 -202.5Q178 -178 202.5 -163.5Q227 -149 256 -149Z"/>
</svg>