<svg xmlns="http://www.w3.org/2000/svg" viewBox="0 -512 512 512">
	<path fill="#000000" d="M223 -43Q208 -21 184.5 -10Q161 1 135 -1Q109 -3 87.5 -18Q66 -33 55 -57Q44 -81 46.5 -107Q49 -133 64 -155Q78 -174 98 -185Q118 -196 140 -197L141 -166Q127 -165 113.5 -157.5Q100 -150 91 -137Q75 -114 79.5 -87Q84 -60 106 -44.5Q128 -29 155 -34.5Q182 -40 198 -63Q207 -76 209 -93V-115L329 -116L330 -118Q339 -133 355 -137.5Q371 -142 385 -133.5Q399 -125 403.5 -109Q408 -93 399.5 -78Q391 -63 375 -58.5Q359 -54 345 -62Q331 -70 327 -84H240Q236 -62 223 -43ZM378 -195Q405 -192 426 -176Q447 -160 457 -136.5Q467 -113 464 -87Q461 -61 445 -40.5Q429 -20 405 -9.5Q381 1 355 -2Q331 -5 312 -17.5Q293 -30 281 -49L308 -65Q316 -52 329 -44Q342 -36 357 -34Q385 -31 407 -47.5Q429 -64 432.5 -90.5Q436 -117 418.5 -138.5Q401 -160 373 -163Q356 -165 341 -159L323 -150L268 -252H263Q246 -252 234.5 -264.5Q223 -277 223.5 -293.5Q224 -310 236.5 -321.5Q249 -333 265.5 -332Q282 -331 294 -319Q306 -307 305 -290Q304 -276 295 -266L336 -191Q356 -198 378 -195ZM176 -253Q166 -278 169 -303.5Q172 -329 187 -350Q202 -371 226.5 -381.5Q251 -392 276.5 -388.5Q302 -385 323 -369Q344 -353 355 -329Q364 -307 362.5 -284Q361 -261 350 -242L324 -257Q331 -270 331.5 -285.5Q332 -301 326 -315Q315 -341 289.5 -351.5Q264 -362 239.5 -351.5Q215 -341 205 -315.5Q195 -290 206 -265Q215 -244 234 -232L242 -228L177 -121L179 -117Q187 -103 182 -87Q177 -71 162.5 -63Q148 -55 132 -60Q116 -65 108 -80Q100 -95 105 -111Q110 -127 124 -135Q137 -142 151 -139L200 -219Q184 -234 176 -253Z"/>
</svg>