<svg xmlns="http://www.w3.org/2000/svg" viewBox="0 -512 512 512">
	<path fill="#000000" d="M256 -405Q295 -405 324.5 -380.5Q354 -356 361 -319L379 -320Q408 -320 432.5 -305.5Q457 -291 471 -266.5Q485 -242 485 -213Q485 -184 470 -159Q455 -134 430 -120Q443 -96 443 -68Q443 -40 428.5 -15.5Q414 9 389.5 23Q365 37 336 37Q313 37 292 27.5Q271 18 256 1Q241 18 220 27.5Q199 37 176 37Q147 37 122.5 23Q98 9 83.5 -15.5Q69 -40 69 -69Q69 -96 82 -120Q57 -134 42 -159Q27 -184 27 -213Q27 -242 41 -266.5Q55 -291 79.5 -305.5Q104 -320 133 -320L151 -319Q158 -356 187.5 -380.5Q217 -405 256 -405ZM144 -16L291 -85H363Q371 -85 377.5 -91.5Q384 -98 384 -107V-256Q384 -265 377.5 -271Q371 -277 363 -277H149Q141 -277 134.5 -271Q128 -265 128 -256V-107Q128 -98 134.5 -91.5Q141 -85 149 -85H166Z"/>
</svg>