<svg xmlns="http://www.w3.org/2000/svg" viewBox="0 -512 512 512">
	<path fill="#000000" d="M203 -363Q159 -363 122.5 -345.5Q86 -328 64.5 -298.5Q43 -269 43 -235Q43 -205 58.5 -179Q74 -153 102 -135L85 -85L139 -117Q169 -107 201 -107Q192 -128 192 -149Q192 -184 212 -213.5Q232 -243 266.5 -260Q301 -277 341 -277Q349 -277 353 -277Q337 -315 295.5 -339Q254 -363 203 -363ZM139 -309Q148 -309 154 -303Q160 -297 160 -288Q160 -279 154 -273Q148 -267 139 -267Q130 -267 123.5 -273Q117 -279 117 -288Q117 -297 123.5 -303Q130 -309 139 -309ZM245 -309Q254 -309 260.5 -303Q267 -297 267 -288Q267 -279 260.5 -273Q254 -267 245 -267Q236 -267 230 -273Q224 -279 224 -288Q224 -297 230 -303Q236 -309 245 -309ZM341 -256Q307 -256 277.5 -241.5Q248 -227 230.5 -202.5Q213 -178 213 -149Q213 -120 230.5 -95.5Q248 -71 277.5 -57Q307 -43 341 -43Q363 -43 382 -48L427 -21L413 -61Q439 -76 454 -99.5Q469 -123 469 -150.5Q469 -178 452 -202.5Q435 -227 405.5 -241.5Q376 -256 341 -256ZM299 -203Q308 -203 314 -196.5Q320 -190 320 -181Q320 -172 314 -166Q308 -160 299 -160Q290 -160 283.5 -166Q277 -172 277 -181Q277 -190 283.5 -196.5Q290 -203 299 -203ZM384 -203Q393 -203 399 -196.5Q405 -190 405 -181Q405 -172 399 -166Q393 -160 384 -160Q375 -160 369 -166Q363 -172 363 -181Q363 -190 369 -196.5Q375 -203 384 -203Z"/>
</svg>