<svg xmlns="http://www.w3.org/2000/svg" viewBox="0 -512 512 512">
	<path fill="#000000" d="M426 -223Q422 -237 410.5 -246.5Q399 -256 384 -256H330Q341 -275 341 -299Q341 -334 316 -359Q291 -384 256 -384Q221 -384 196 -359Q171 -334 171 -299Q171 -275 182 -256H128Q113 -256 101.5 -246.5Q90 -237 86 -223L48 -70Q43 -46 43 -43Q43 -25 55.5 -12.5Q68 0 85 0H427Q444 0 456.5 -12.5Q469 -25 469 -43Q469 -46 464 -70ZM256 -341Q274 -341 286.5 -328.5Q299 -316 299 -298.5Q299 -281 286.5 -268.5Q274 -256 256 -256Q238 -256 225.5 -268.5Q213 -281 213 -298.5Q213 -316 225.5 -328.5Q238 -341 256 -341ZM320 -171H235V-85H277V-149H320V-43H235Q217 -43 204.5 -55.5Q192 -68 192 -85V-171Q192 -188 204.5 -200.5Q217 -213 235 -213H320Z"/>
</svg>