<svg xmlns="http://www.w3.org/2000/svg" viewBox="0 -512 512 512">
	<path fill="#000000" d="M256 -341Q238 -341 225.5 -328.5Q213 -316 213 -298.5Q213 -281 225.5 -268.5Q238 -256 256 -256Q274 -256 286.5 -268.5Q299 -281 299 -298.5Q299 -316 286.5 -328.5Q274 -341 256 -341ZM469 -427V-320H427V-363H85V-320H43V-427H85V-384H427V-427ZM320 -208V43H277V-64H235V43H192V-208Q158 -226 137.5 -258.5Q117 -291 117 -331V-341H160V-331Q160 -291 188 -263Q216 -235 256 -235Q296 -235 324 -263Q352 -291 352 -331V-341H395V-331Q395 -291 374.5 -258.5Q354 -226 320 -208Z"/>
</svg>