<svg xmlns="http://www.w3.org/2000/svg" viewBox="0 -512 512 512">
	<path fill="#000000" d="M256 -384Q291 -384 316 -359Q341 -334 341 -299Q341 -275 330 -256H384Q399 -256 410.5 -246.5Q422 -237 426 -223L464 -70Q469 -46 469 -43Q469 -25 456.5 -12.5Q444 0 427 0H85Q68 0 55.5 -12.5Q43 -25 43 -43Q43 -46 48 -70L86 -223Q90 -237 101.5 -246.5Q113 -256 128 -256H182Q171 -275 171 -299Q171 -334 196 -359Q221 -384 256 -384ZM256 -341Q238 -341 225.5 -328.5Q213 -316 213 -298.5Q213 -281 225.5 -268.5Q238 -256 256 -256Q274 -256 286.5 -268.5Q299 -281 299 -298.5Q299 -316 286.5 -328.5Q274 -341 256 -341ZM128 -213V-43H171V-96L192 -75V-43H235V-85L192 -128L235 -171V-213H192V-181L171 -160V-213ZM320 -213Q302 -213 289.5 -200.5Q277 -188 277 -171V-85Q277 -68 289.5 -55.5Q302 -43 320 -43H384V-149H341V-85H320V-171H384V-213Z"/>
</svg>