<svg xmlns="http://www.w3.org/2000/svg" viewBox="0 -512 512 512">
	<path fill="#000000" d="M257 -405Q200 -405 151 -376.5Q102 -348 73.5 -299.5Q45 -251 45 -194Q45 -137 74 -88L44 21L156 -8Q203 18 257 18Q314 18 362.5 -10.5Q411 -39 439.5 -87.5Q468 -136 468 -194Q468 -236 452 -274.5Q436 -313 406.5 -343Q377 -373 338 -389Q299 -405 257 -405ZM257 -370Q292 -370 324 -356.5Q356 -343 381 -318Q406 -293 419.5 -261Q433 -229 433 -194Q433 -146 409 -105.5Q385 -65 344.5 -41.5Q304 -18 256 -18Q208 -18 167 -43L161 -46L95 -29L112 -94L108 -100Q81 -143 81 -194Q81 -242 105 -282Q129 -322 169 -346Q209 -370 257 -370ZM182 -292Q174 -292 168 -285L167 -284Q149 -265 149 -241Q149 -217 170 -188L172 -184Q213 -127 261 -107Q275 -100 290.5 -95.5Q306 -91 325 -93Q333 -95 345 -102.5Q357 -110 360 -118.5Q363 -127 364 -134Q365 -141 363.5 -143Q362 -145 355 -149L335 -159Q321 -166 317 -167Q313 -168 310.5 -168Q308 -168 305 -164Q301 -158 289 -144Q284 -139 277 -142L274 -144Q251 -153 235 -168Q219 -183 205 -205Q202 -211 207 -216Q212 -221 215 -224.5Q218 -228 220 -232L221 -234Q223 -238 220 -243L204 -282Q201 -288 199 -289.5Q197 -291 193 -291Z"/>
</svg>