<svg xmlns="http://www.w3.org/2000/svg" viewBox="0 -512 512 512">
	<path fill="#000000" d="M393 -209L305 -205L354 -260Q362 -272 358 -288Q354 -301 348 -305L233 -373Q226 -378 217.5 -377Q209 -376 203 -371L145 -318Q137 -310 136 -299.5Q135 -289 142 -281.5Q149 -274 160 -273.5Q171 -273 179 -279L222 -318L262 -294L173 -203L171 -200Q170 -198 169 -198Q147 -190 139 -183L171 -151Q192 -160 203 -160Q233 -160 255 -138Q277 -116 277 -85Q277 -65 269 -53L301 -21Q320 -50 320 -85Q320 -126 297 -156L367 -162L363 -60Q361 -49 368 -41.5Q375 -34 386 -32H388Q398 -32 405 -39Q412 -46 414 -55L418 -181Q418 -194 412 -201Q403 -209 393 -209ZM384 -331Q402 -331 414.5 -343.5Q427 -356 427 -373.5Q427 -391 414.5 -403.5Q402 -416 384 -416Q366 -416 353.5 -403.5Q341 -391 341 -373.5Q341 -356 353.5 -343.5Q366 -331 384 -331ZM267 13Q238 32 203 32Q171 32 144 16Q117 0 101 -27Q85 -54 85 -85Q85 -121 105 -149L137 -117Q128 -96 128 -85Q128 -55 150 -33Q172 -11 203 -11Q223 -11 235 -19Z"/>
</svg>