<svg xmlns="http://www.w3.org/2000/svg" viewBox="0 -512 512 512">
	<path fill="#000000" d="M384 -117Q397 -117 406.5 -108Q416 -99 416 -85.5Q416 -72 406.5 -62.5Q397 -53 384 -53Q371 -53 361.5 -62.5Q352 -72 352 -85.5Q352 -99 361.5 -108Q371 -117 384 -117ZM384 -149Q357 -149 338.5 -130.5Q320 -112 320 -85.5Q320 -59 338.5 -40Q357 -21 384 -21Q411 -21 429.5 -40Q448 -59 448 -85.5Q448 -112 429.5 -130.5Q411 -149 384 -149ZM149 -277L107 -341H43V-299H109L171 -207V-21H213L268 -128H310Q322 -148 341.5 -159.5Q361 -171 384 -171Q412 -171 434 -154L469 -277ZM200 -43H192V-175L211 -147Q223 -129 244 -128Z"/>
</svg>