<svg xmlns="http://www.w3.org/2000/svg" viewBox="0 -512 512 512">
	<path fill="#000000" d="M80 -369L46 -344L95 -277Q114 -288 135 -293ZM235 -256V-213H384V-207L277 -177V-117Q277 -78 249 -49.5Q221 -21 181.5 -21Q142 -21 113.5 -49.5Q85 -78 85 -117.5Q85 -157 113.5 -185Q142 -213 181 -213H192V-256H181Q144 -256 112 -237.5Q80 -219 61.5 -187Q43 -155 43 -117.5Q43 -80 61.5 -48Q80 -16 112 2.5Q144 21 181.5 21Q219 21 251 2.5Q283 -16 301.5 -48Q320 -80 320 -117V-151L469 -192V-256ZM346 -369L295 -299H348L381 -344ZM192 -405V-299H235V-405Z"/>
</svg>