<svg xmlns="http://www.w3.org/2000/svg" viewBox="0 -512 512 512">
	<path fill="#000000" d="M76 -41L106 -11L144 -49L114 -79ZM256 -320Q221 -320 191.5 -303Q162 -286 145 -256.5Q128 -227 128 -192Q128 -157 145 -127.5Q162 -98 191.5 -81Q221 -64 256 -64Q291 -64 320.5 -81Q350 -98 367 -127.5Q384 -157 384 -192Q384 -227 367 -256.5Q350 -286 320.5 -303Q291 -320 256 -320ZM427 -171H491V-213H427ZM368 -49L406 -11L436 -41L398 -79ZM436 -341L406 -371L368 -333L398 -303ZM277 -427H235V-363H277ZM144 -333L106 -371L76 -341L114 -303ZM21 -171H85V-213H21ZM277 -21H235V43H277Z"/>
</svg>