<svg xmlns="http://www.w3.org/2000/svg" viewBox="0 -512 512 512">
	<path fill="#000000" d="M256 -320Q202 -320 153.5 -303.5Q105 -287 64 -256L26 -307Q74 -344 133 -364Q192 -384 256 -384Q320 -384 379 -364Q438 -344 486 -307L448 -256Q407 -287 358.5 -303.5Q310 -320 256 -320ZM277 -43Q277 -87 303 -119Q273 -128 256 -128Q236 -128 216 -121Q196 -114 179 -102L256 0L277 -30ZM358 -162Q365 -164 382 -169L410 -205Q377 -229 337.5 -242.5Q298 -256 256 -256Q214 -256 174.5 -242.5Q135 -229 102 -205L141 -154Q165 -172 195 -182Q225 -192 256 -192Q312 -192 358 -162ZM352 34L367 -26L320 -66L382 -70L405 -128L429 -73L491 -68L444 -28L459 32L405 2Z"/>
</svg>