<svg xmlns="http://www.w3.org/2000/svg" viewBox="0 -512 512 512">
	<path fill="#000000" d="M256 -21L179 -124Q213 -149 256 -149Q299 -149 333 -124ZM102 -226L141 -175Q192 -213 256 -213Q320 -213 371 -175L410 -226Q377 -251 337.5 -264Q298 -277 256 -277Q214 -277 174.5 -264Q135 -251 102 -226ZM256 -405Q192 -405 133.5 -385Q75 -365 26 -329L64 -277Q105 -308 154 -324.5Q203 -341 256 -341Q309 -341 358 -324.5Q407 -308 448 -277L486 -329Q437 -365 378.5 -385Q320 -405 256 -405ZM149 64H192V21H149ZM320 64H363V21H320ZM235 64H277V21H235Z"/>
</svg>