<svg xmlns="http://www.w3.org/2000/svg" viewBox="0 -512 512 512">
	<path fill="#000000" d="M256 -320Q203 -320 154 -303.5Q105 -287 64 -256L26 -307Q75 -344 133.5 -364Q192 -384 256 -384Q320 -384 378.5 -364Q437 -344 486 -307L448 -256Q407 -287 358 -303.5Q309 -320 256 -320ZM371 -228Q316 -256 256 -256Q214 -256 174.5 -242.5Q135 -229 102 -205L141 -154Q192 -192 256 -192Q286 -192 315 -183Q334 -216 371 -228ZM179 -102L256 0L277 -28V-81Q277 -103 292 -122Q274 -128 256 -128Q213 -128 179 -102ZM491 -79V-4Q491 6 482.5 13.5Q474 21 463 21H346Q336 21 328 13Q320 5 320 -6V-81Q320 -91 328 -99Q336 -107 346 -107V-139Q346 -161 364 -176.5Q382 -192 405 -192Q428 -192 446.5 -176.5Q465 -161 465 -139V-107Q475 -107 483 -98.5Q491 -90 491 -79ZM437 -139Q437 -151 428 -158.5Q419 -166 405.5 -166Q392 -166 382.5 -158.5Q373 -151 373 -139V-107H437Z"/>
</svg>