<svg xmlns="http://www.w3.org/2000/svg" viewBox="0 -512 512 512">
	<path fill="#000000" d="M303 -160V-134Q291 -124 284 -110Q277 -96 277 -81V-16L256 11L179 -85Q68 -224 8 -299Q61 -340 125 -362Q189 -384 256 -384Q323 -384 387 -362Q451 -340 504 -299L459 -241Q438 -253 414 -255L442 -289Q355 -341 255.5 -341Q156 -341 70 -289L111 -238Q180 -277 256 -277Q316 -277 374 -251Q343 -241 323 -216Q303 -191 303 -160ZM465 -107H373V-160Q373 -172 382.5 -180Q392 -188 405.5 -188Q419 -188 428 -180Q437 -172 437 -160V-149H465V-160Q465 -182 446.5 -197.5Q428 -213 405 -213Q382 -213 364 -197.5Q346 -182 346 -160V-107Q336 -107 328 -99Q320 -91 320 -81V-6Q320 5 328 13Q336 21 346 21H463Q474 21 482.5 13.5Q491 6 491 -4V-79Q491 -90 483 -98.5Q475 -107 465 -107Z"/>
</svg>