<svg xmlns="http://www.w3.org/2000/svg" viewBox="0 -512 512 512">
	<path fill="#000000" d="M256 -320Q203 -320 154 -303.5Q105 -287 64 -256L26 -307Q75 -344 133.5 -364Q192 -384 256 -384Q320 -384 378.5 -364Q437 -344 486 -307L448 -256Q407 -287 358 -303.5Q309 -320 256 -320ZM256 -128Q213 -128 179 -102L256 0L278 -30Q277 -34 277 -43Q277 -85 303 -119Q279 -128 256 -128ZM359 -162Q369 -166 382 -169L410 -205Q377 -229 337.5 -242.5Q298 -256 256 -256Q214 -256 174.5 -242.5Q135 -229 102 -205L141 -154Q192 -192 256 -192Q313 -192 359 -162ZM427 -107H384V-21H341L405 43L469 -21H427Z"/>
</svg>