<svg xmlns="http://www.w3.org/2000/svg" viewBox="0 -512 512 512">
	<path fill="#000000" d="M256 -192Q192 -192 141 -154L102 -205Q135 -229 174.5 -242.5Q214 -256 256 -256Q298 -256 337.5 -242.5Q377 -229 410 -205L400 -192H395Q361 -192 331 -177Q295 -192 256 -192ZM448 -256L486 -307Q437 -344 378.5 -364Q320 -384 256 -384Q192 -384 133.5 -364Q75 -344 26 -307L64 -256Q105 -287 154 -303.5Q203 -320 256 -320Q309 -320 358 -303.5Q407 -287 448 -256ZM256 -128Q213 -128 179 -102L256 0L263 -10Q256 -32 256 -53Q256 -93 277 -126Q266 -128 256 -128ZM384 -139Q349 -139 324 -114Q299 -89 299 -53.5Q299 -18 324 7Q349 32 384 32Q411 32 432.5 17.5Q454 3 463 -21H427Q419 -11 408 -5.5Q397 0 384 0Q362 0 346.5 -15.5Q331 -31 331 -53Q331 -75 346.5 -91Q362 -107 384 -107Q406 -107 422 -91L384 -53H469V-139L444 -114Q419 -139 384 -139Z"/>
</svg>