<svg xmlns="http://www.w3.org/2000/svg" viewBox="0 -512 512 512">
	<path fill="#000000" d="M256 -320Q203 -320 154 -303.5Q105 -287 64 -256L26 -307Q75 -344 133.5 -364Q192 -384 256 -384Q320 -384 378.5 -364Q437 -344 486 -307L448 -256Q407 -287 358 -303.5Q309 -320 256 -320ZM348 -239Q303 -256 256 -256Q214 -256 174.5 -242.5Q135 -229 102 -205L141 -154Q192 -192 256 -192Q282 -192 307 -185Q317 -219 348 -239ZM179 -102L256 0L277 -28V-81Q277 -103 292 -122Q274 -128 256 -128Q213 -128 179 -102ZM465 -107H373V-160Q373 -172 382.5 -180Q392 -188 405.5 -188Q419 -188 428 -180Q437 -172 437 -160V-149H465V-160Q465 -182 446.5 -197.5Q428 -213 405 -213Q382 -213 364 -197.5Q346 -182 346 -160V-107Q336 -107 328 -99Q320 -91 320 -81V-6Q320 5 328 13Q336 21 346 21H463Q474 21 482.5 13.5Q491 6 491 -4V-79Q491 -90 483 -98.5Q475 -107 465 -107Z"/>
</svg>