<svg xmlns="http://www.w3.org/2000/svg" viewBox="0 -512 512 512">
	<path fill="#000000" d="M405 -235Q426 -235 446 -226L504 -299Q451 -340 387 -362Q323 -384 256 -384Q189 -384 125 -362Q61 -340 8 -299Q68 -224 179 -85L256 11L277 -16V-81Q277 -96 284 -110Q291 -124 303 -134V-139Q303 -164 317 -186Q331 -208 354.5 -221.5Q378 -235 405 -235ZM256 -277Q180 -277 111 -238L70 -289Q156 -341 255.5 -341Q355 -341 442 -289L400 -237Q371 -254 339 -264Q298 -277 256 -277ZM465 -107V-139Q465 -161 446.5 -176.5Q428 -192 405 -192Q382 -192 364 -176.5Q346 -161 346 -139V-107Q336 -107 328 -99Q320 -91 320 -81V-6Q320 5 328 13Q336 21 346 21H463Q474 21 482.5 13.5Q491 6 491 -4V-79Q491 -90 483 -98.5Q475 -107 465 -107ZM437 -107H373V-139Q373 -151 382.5 -158.5Q392 -166 405.5 -166Q419 -166 428 -158.5Q437 -151 437 -139Z"/>
</svg>