<svg xmlns="http://www.w3.org/2000/svg" viewBox="0 -512 512 512">
	<path fill="#000000" d="M319 -44L265 -172L241 -127Q212 -71 199 -44H189Q170 -88 132 -174L93 -263Q87 -278 71 -293.5Q55 -309 43 -309V-319H151V-309Q139 -309 128.5 -302.5Q118 -296 122 -287Q130 -269 170 -177L205 -94Q220 -122 256 -190Q251 -199 231.5 -243.5Q212 -288 207 -296Q199 -309 170 -309V-319H265V-310Q254 -309 248 -305Q242 -301 245 -292Q252 -279 263 -255L277 -223Q296 -260 309 -290Q313 -300 307 -304.5Q301 -309 284 -309V-319H366V-310Q354 -309 343.5 -303.5Q333 -298 327 -289L288 -207Q291 -199 325 -123L334 -102L416 -291Q412 -301 400 -306Q392 -309 384 -309V-319L469 -318V-309Q443 -309 432 -283Q418 -251 348 -89L329 -44Z"/>
</svg>