<svg xmlns="http://www.w3.org/2000/svg" viewBox="0 -512 512 512">
	<path fill="#000000" d="M242 -199L303 -137Q317 -150 317 -166Q317 -177 310 -188L303 -197L271 -230Q277 -242 277 -256Q277 -273 269.5 -287Q262 -301 248 -309L277 -403Q259 -408 245 -401Q236 -396 229 -385L224 -375L207 -319Q187 -317 172 -304.5Q157 -292 152 -273L57 -243Q65 -217 89 -214Q101 -212 111 -215L155 -230Q166 -205 192 -196V-43L181 -41Q168 -38 160 -30Q149 -19 149 0V21H277V0L276 -11Q273 -24 265 -32Q254 -43 235 -43V-196ZM181 -256Q181 -269 190.5 -278.5Q200 -288 213.5 -288Q227 -288 236 -278.5Q245 -269 245 -256Q245 -243 236 -233.5Q227 -224 213.5 -224Q200 -224 190.5 -233.5Q181 -243 181 -256ZM357 3L299 -61L323 -85L357 -51L434 -128L459 -98Z"/>
</svg>