<svg xmlns="http://www.w3.org/2000/svg" viewBox="0 -512 512 512">
	<path fill="#000000" d="M85 -384H213V-341H85ZM21 -299H128V-256H21ZM64 -43H171V0H64ZM293 -222Q317 -214 326 -191L417 -342Q428 -359 423 -378.5Q418 -398 401 -409Q387 -417 370.5 -415.5Q354 -414 343 -403L269 -334Q256 -322 256 -303V-220Q275 -227 293 -222ZM226 -186Q231 -203 245 -213H70Q49 -213 35 -199Q21 -185 21 -165Q21 -148 31 -135Q41 -122 57 -118L153 -90Q171 -85 186 -95L244 -129Q231 -139 226 -154.5Q221 -170 226 -186ZM474 -51L425 -139Q416 -154 398 -159L331 -176Q331 -162 328 -155Q323 -138 309 -127.5Q295 -117 277 -117Q269 -117 262 -120L256 -122V0Q238 0 225.5 12.5Q213 25 213 43H341Q341 25 328.5 12.5Q316 0 299 0V-91L397 7Q411 21 431 21Q451 21 466 7Q477 -5 479.5 -21Q482 -37 474 -51ZM268 -140Q281 -136 292.5 -142.5Q304 -149 308 -161.5Q312 -174 305.5 -186Q299 -198 286.5 -201.5Q274 -205 262 -199Q250 -193 246.5 -180Q243 -167 249 -155.5Q255 -144 268 -140Z"/>
</svg>