<svg xmlns="http://www.w3.org/2000/svg" viewBox="0 -512 512 512">
	<path fill="#000000" d="M284 -199L346 -137Q359 -150 359 -166Q359 -177 352 -188L346 -197L314 -230Q320 -242 320 -256Q320 -273 312 -287Q304 -301 291 -309L320 -403Q302 -408 288 -401Q278 -396 271 -385L267 -375L249 -319Q230 -317 215 -304.5Q200 -292 195 -273L100 -243Q108 -217 132 -214Q144 -212 154 -215L198 -230Q209 -205 235 -196V-43L224 -41Q211 -38 203 -30Q192 -19 192 0V21H320V0L318 -11Q315 -24 307 -32Q296 -43 277 -43V-196ZM224 -256Q224 -269 233.5 -278.5Q243 -288 256 -288Q269 -288 278.5 -278.5Q288 -269 288 -256Q288 -243 278.5 -233.5Q269 -224 256 -224Q243 -224 233.5 -233.5Q224 -243 224 -256Z"/>
</svg>