<svg xmlns="http://www.w3.org/2000/svg" viewBox="0 -512 512 512">
	<path fill="#000000" d="M256 -363Q214 -363 176 -352Q145 -342 116 -325Q94 -311 75 -294Q61 -281 51 -267L43 -256L192 -107L200 -118Q210 -131 222 -139L228 -96Q222 -91 217.5 -82Q213 -73 213 -64Q213 -46 225.5 -33.5Q238 -21 256 -21Q274 -21 286.5 -33.5Q299 -46 299 -64Q299 -78 291.5 -89Q284 -100 271 -105L262 -149Q286 -147 306 -126Q315 -116 320 -107L469 -256L461 -267Q451 -281 437 -294Q418 -311 396 -325Q367 -342 336 -352Q298 -363 256 -363ZM322 -169Q291 -192 256 -192L235 -318Q241 -320 256 -320Q309 -320 354 -299Q387 -283 412 -258ZM190 -169L100 -258Q114 -274 137 -287Q162 -302 192 -311L213 -183Q196 -175 190 -169Z"/>
</svg>