<svg xmlns="http://www.w3.org/2000/svg" viewBox="0 -512 512 512">
	<path fill="#000000" d="M235 -320Q235 -329 238 -339Q242 -356 252 -367L213 -397L175 -365Q185 -355 189 -339Q192 -329 192 -320Q146 -317 105 -300Q73 -286 46 -263Q26 -247 11 -229L0 -213L149 -64L154 -72Q161 -81 169 -88Q180 -98 192 -102V-58Q182 -53 176.5 -43Q171 -33 171 -21Q171 -4 183.5 8.5Q196 21 213.5 21Q231 21 243.5 8.5Q256 -4 256 -21Q256 -33 250 -43Q244 -53 235 -58V-102Q247 -98 258 -88Q266 -81 272 -72L277 -64L427 -213L416 -229Q401 -247 381 -263Q354 -285 321 -299Q281 -316 235 -320ZM192 -147Q165 -140 147 -126L58 -215Q112 -270 192 -275ZM279 -126Q255 -142 235 -147V-275Q281 -271 319 -252Q347 -237 369 -215ZM341 -420L326 -380Q315 -385 299.5 -385Q284 -385 271 -380L256 -420Q275 -427 298.5 -427Q322 -427 341 -420ZM405 -320H363L362 -328Q361 -337 358 -346Q353 -357 346 -365L378 -393Q395 -374 402 -346Q405 -332 405 -320ZM47 -393L79 -365Q72 -357 68 -346Q66 -337 65 -328L64 -320H21Q21 -332 25 -346Q31 -374 47 -393ZM171 -420L156 -380Q145 -385 129 -385Q113 -385 100 -380L85 -420Q105 -427 128 -427Q151 -427 171 -420ZM469 -192V-299H512V-171H469ZM469 -85H512V-128H469Z"/>
</svg>