<svg xmlns="http://www.w3.org/2000/svg" viewBox="0 -512 512 512">
	<path fill="#000000" d="M73 -192Q73 -230 89 -267L176 -27Q130 -50 101.5 -94Q73 -138 73 -192ZM380 -201Q380 -192 376 -179Q374 -170 368 -151L347 -81L281 -277L302 -279Q307 -280 308.5 -284Q310 -288 308 -291.5Q306 -295 301 -295L284 -293Q264 -292 252 -292L204 -295Q199 -295 197 -291.5Q195 -288 196.5 -284Q198 -280 203 -279L222 -277L251 -200L211 -80L144 -277L165 -279Q170 -280 171.5 -284Q173 -288 170.5 -291.5Q168 -295 164 -295L146 -293Q127 -292 115 -292H103Q128 -331 168.5 -353Q209 -375 256 -375Q291 -375 323 -362.5Q355 -350 380 -327H377Q364 -327 355 -317.5Q346 -308 346 -295Q346 -285 351 -275Q354 -268 362 -255L364 -252Q380 -226 380 -201ZM259 -176L316 -22L317 -19Q288 -9 256 -9Q229 -9 204 -16ZM417 -280Q439 -239 439 -192Q439 -142 414 -100Q389 -58 348 -34L404 -195Q418 -230 418 -261ZM256 -405Q298 -405 337.5 -389Q377 -373 407 -343Q437 -313 453 -273.5Q469 -234 469 -192Q469 -150 453 -110.5Q437 -71 407 -41Q377 -11 337.5 5Q298 21 256 21Q214 21 174.5 5Q135 -11 105 -41Q75 -71 59 -110.5Q43 -150 43 -192Q43 -234 59 -273.5Q75 -313 105 -343Q135 -373 174.5 -389Q214 -405 256 -405ZM256 12Q311 12 358 -15.5Q405 -43 432.5 -90Q460 -137 460 -192Q460 -247 432.5 -294Q405 -341 358 -368.5Q311 -396 256 -396Q201 -396 154 -368.5Q107 -341 79.5 -294Q52 -247 52 -192Q52 -137 79.5 -90Q107 -43 154 -15.5Q201 12 256 12Z"/>
</svg>