<svg xmlns="http://www.w3.org/2000/svg" viewBox="0 -512 512 512">
	<path fill="#000000" d="M425 -65Q426 -70 426 -74.5Q426 -79 425 -84L446 -100Q449 -102 447 -106L428 -139Q427 -141 425 -141.5Q423 -142 422 -141L397 -132Q389 -138 380 -141L377 -167Q376 -171 372 -171H332Q328 -171 327 -167L324 -141Q315 -138 307 -132L282 -141Q281 -142 279 -141.5Q277 -141 276 -139L257 -106Q255 -102 258 -100L279 -84L278 -75L279 -65L258 -49Q255 -47 257 -43L276 -10Q278 -7 282 -8L307 -18Q315 -12 324 -8L327 17Q328 21 332 21H372Q376 21 377 17L380 -8Q389 -12 397 -18L422 -8Q426 -7 428 -10L447 -43Q449 -47 446 -49ZM352 -43Q339 -43 329.5 -52Q320 -61 320 -74.5Q320 -88 329.5 -97.5Q339 -107 352 -107Q365 -107 374.5 -97.5Q384 -88 384 -74.5Q384 -61 374.5 -52Q365 -43 352 -43ZM192 -405Q221 -396 238.5 -371Q256 -346 256 -315Q256 -284 238.5 -259Q221 -234 192 -224V11Q192 15 189 18Q186 21 181 21H139Q128 21 128 9V-226Q99 -236 81.5 -260.5Q64 -285 64 -315.5Q64 -346 81.5 -371Q99 -396 128 -405V-326H192Z"/>
</svg>