<svg xmlns="http://www.w3.org/2000/svg" viewBox="0 -512 512 512">
	<path fill="#000000" d="M192 -425V-320H149V-425Q104 -417 73.5 -381.5Q43 -346 43 -299Q43 -264 60 -234.5Q77 -205 107 -188V0Q107 9 113 15Q119 21 128 21H213Q222 21 228.5 15Q235 9 235 0V-188Q264 -205 281.5 -234.5Q299 -264 299 -299Q299 -346 268.5 -381.5Q238 -417 192 -425ZM213 -225L192 -212V-21H149V-212L128 -225Q108 -236 96.5 -256Q85 -276 85 -299Q85 -331 107 -355V-277H235V-355Q256 -331 256 -299Q256 -276 244.5 -256Q233 -236 213 -225ZM461 -171L491 -141L351 0L277 -75L307 -105L351 -60Z"/>
</svg>