<svg xmlns="http://www.w3.org/2000/svg" viewBox="0 -512 512 512">
	<path fill="#000000" d="M341 -277Q304 -276 271 -258Q277 -279 277 -299Q277 -346 246.5 -381.5Q216 -417 171 -425V-320H128V-425Q82 -417 51.5 -381.5Q21 -346 21 -299Q21 -264 38.5 -234.5Q56 -205 85 -188V0Q85 9 91.5 15Q98 21 107 21H192Q201 21 207 15Q213 9 213 0V-51Q233 -18 267 1.5Q301 21 341.5 21Q382 21 416.5 1Q451 -19 471 -53Q491 -87 491 -128Q491 -169 471 -203Q451 -237 416.5 -257Q382 -277 341 -277ZM171 -212V-21H128V-212L107 -225Q87 -236 75.5 -256Q64 -276 64 -299Q64 -331 85 -355V-277H213V-355Q235 -331 235 -299Q235 -276 223.5 -256Q212 -236 192 -225ZM341 -21Q312 -21 287.5 -35.5Q263 -50 249 -74.5Q235 -99 235 -128Q235 -157 249 -181.5Q263 -206 287.5 -220.5Q312 -235 341.5 -235Q371 -235 395.5 -220.5Q420 -206 434 -181.5Q448 -157 448 -128Q448 -99 434 -74.5Q420 -50 395.5 -35.5Q371 -21 341 -21ZM352 -122L414 -85L397 -60L320 -107V-213H352Z"/>
</svg>