<svg xmlns="http://www.w3.org/2000/svg" viewBox="0 -512 512 512">
	<path fill="#000000" d="M213 -316Q213 -346 195.5 -371Q178 -396 149 -405V-326H85V-405Q57 -396 39 -371Q21 -346 21 -315.5Q21 -285 39 -260.5Q57 -236 85 -226V9Q85 21 96 21H139Q143 21 146 18Q149 15 149 11V-224Q178 -234 195.5 -259Q213 -284 213 -316ZM341 -277Q341 -277 341 -277Q300 -276 266 -256Q232 -236 212 -202Q192 -168 192 -127.5Q192 -87 212 -53Q232 -19 266 1Q300 21 341 21Q382 21 416.5 1Q451 -19 471 -53Q491 -87 491 -128Q491 -169 471 -203Q451 -237 416.5 -257Q382 -277 341 -277ZM341 -21Q312 -21 287.5 -35.5Q263 -50 249 -74.5Q235 -99 235 -128Q235 -157 249 -181.5Q263 -206 287.5 -220.5Q312 -235 341.5 -235Q371 -235 395.5 -220.5Q420 -206 434 -181.5Q448 -157 448 -128Q448 -99 434 -74.5Q420 -50 395.5 -35.5Q371 -21 341 -21ZM320 -213V-107L397 -60L414 -85L352 -122V-213Z"/>
</svg>