<svg xmlns="http://www.w3.org/2000/svg" viewBox="0 -512 512 512">
	<path fill="#000000" d="M482 -43L289 -237Q304 -275 296 -315.5Q288 -356 258 -386Q221 -422 170 -426Q119 -430 78 -400L160 -318L130 -288L48 -369Q18 -328 21.5 -277Q25 -226 62 -190Q91 -160 131 -152Q171 -144 209 -158L403 36Q409 43 418 43Q427 43 433 36L482 -13Q489 -19 489 -27.5Q489 -36 482 -43ZM418 -9L217 -211Q197 -196 174.5 -193Q152 -190 130 -196.5Q108 -203 92.5 -219Q77 -235 70 -254Q63 -273 64 -293L130 -227L220 -318L154 -384Q197 -386 228 -356Q245 -339 251.5 -316.5Q258 -294 254 -271.5Q250 -249 236 -229L437 -28Z"/>
</svg>