<svg xmlns="http://www.w3.org/2000/svg" viewBox="0 -512 512 512">
	<path fill="#000000" d="M485 -212Q491 -203 491 -192Q491 -181 485 -172L386 0Q380 10 370 15.5Q360 21 349 21H163Q152 21 142 15.5Q132 10 126 0L27 -172Q21 -181 21 -192Q21 -203 27 -212L126 -384Q132 -394 142 -399.5Q152 -405 163 -405H349Q360 -405 370 -399.5Q380 -394 386 -384ZM256 -192V-194L201 -297L197 -299H163L160 -297V-292L213 -192L160 -92V-87L163 -85H197L201 -87L256 -190V-192L257 -190L311 -87L315 -85H349L352 -87V-92L299 -192L352 -292V-297L349 -299H315L311 -297L257 -194Z"/>
</svg>