<svg xmlns="http://www.w3.org/2000/svg" viewBox="0 -512 512 512">
	<path fill="#000000" d="M384 -149Q419 -149 444 -124Q469 -99 469 -64Q469 -29 444 -4Q419 21 384 21Q349 21 324 -4Q299 -29 299 -64L301 -82Q299 -108 289 -117Q283 -123 272 -125Q240 -107 202.5 -107Q165 -107 133 -125.5Q101 -144 82.5 -176Q64 -208 64 -245.5Q64 -283 82.5 -315Q101 -347 133 -365.5Q165 -384 202.5 -384Q240 -384 272 -365.5Q304 -347 322.5 -315Q341 -283 341 -245.5Q341 -208 323 -176Q325 -165 331 -159Q340 -149 366 -147ZM160 -235Q173 -235 182.5 -225.5Q192 -216 192 -202.5Q192 -189 182.5 -180Q173 -171 160 -171Q147 -171 137.5 -180Q128 -189 128 -202.5Q128 -216 137.5 -225.5Q147 -235 160 -235ZM203 -341Q163 -341 135 -313Q107 -285 107 -245Q107 -205 135 -177Q163 -149 203 -149Q243 -149 271 -177Q299 -205 299 -245Q299 -285 271 -313Q243 -341 203 -341Z"/>
</svg>