<svg xmlns="http://www.w3.org/2000/svg" viewBox="0 -512 512 512">
	<path fill="#000000" d="M256 -405Q298 -405 337.5 -389Q377 -373 407 -343Q437 -313 453 -273.5Q469 -234 469 -192Q469 -150 453 -110.5Q437 -71 407 -41Q377 -11 337.5 5Q298 21 256 21Q214 21 174.5 5Q135 -11 105 -41Q75 -71 59 -110.5Q43 -150 43 -192Q43 -234 59 -273.5Q75 -313 105 -343Q135 -373 174.5 -389Q214 -405 256 -405ZM256 -363Q210 -363 170.5 -340Q131 -317 108 -277.5Q85 -238 85 -192Q85 -146 108 -106.5Q131 -67 170.5 -44Q210 -21 256 -21Q221 -21 196 -46Q171 -71 171 -106.5Q171 -142 196 -167Q221 -192 256 -192Q291 -192 316 -217Q341 -242 341 -277.5Q341 -313 316 -338Q291 -363 256 -363ZM256 -309Q269 -309 278.5 -300Q288 -291 288 -277.5Q288 -264 278.5 -254.5Q269 -245 256 -245Q243 -245 233.5 -254.5Q224 -264 224 -277.5Q224 -291 233.5 -300Q243 -309 256 -309ZM256 -139Q243 -139 233.5 -129.5Q224 -120 224 -106.5Q224 -93 233.5 -84Q243 -75 256 -75Q269 -75 278.5 -84Q288 -93 288 -106.5Q288 -120 278.5 -129.5Q269 -139 256 -139Z"/>
</svg>