<svg xmlns="http://www.w3.org/2000/svg" viewBox="0 -512 512 512">
	<path fill="#000000" d="M469 -171V-277L363 -341L256 -277L149 -341L43 -277V-171L256 -43ZM192 -213H149V-171H128V-213H85V-235H128V-277H149V-235H192ZM320 -171Q311 -171 305 -177Q299 -183 299 -192Q299 -201 305 -207Q311 -213 320 -213Q329 -213 335 -207Q341 -201 341 -192Q341 -183 335 -177Q329 -171 320 -171ZM384 -213Q375 -213 369 -219.5Q363 -226 363 -234.5Q363 -243 369 -249.5Q375 -256 384 -256Q393 -256 399 -249.5Q405 -243 405 -234.5Q405 -226 399 -219.5Q393 -213 384 -213Z"/>
</svg>