<svg xmlns="http://www.w3.org/2000/svg" viewBox="0 -512 512 512">
	<path fill="#000000" d="M469 -131V21H299V-107H213V21H43V-131Q43 -139 47 -146.5Q51 -154 59 -159L185 -230Q192 -235 201 -235H267V-256H299V-235H311Q320 -235 327 -230L453 -159Q461 -154 465 -146.5Q469 -139 469 -131ZM168 -315H201Q222 -315 239.5 -304.5Q257 -294 267 -277H299Q292 -306 269 -325.5Q246 -345 215 -345V-377Q231 -377 243 -388.5Q255 -400 255 -416V-427H168V-395Q151 -395 139.5 -384Q128 -373 128 -357Q128 -341 140 -328Q152 -315 168 -315Z"/>
</svg>