<svg xmlns="http://www.w3.org/2000/svg" viewBox="0 -512 512 512">
	<path fill="#000000" d="M348 -222Q315 -222 287 -206Q259 -190 242.5 -162Q226 -134 226 -101Q226 -68 242.5 -40Q259 -12 287 4.5Q315 21 348 21Q381 21 409 4.5Q437 -12 453 -40Q469 -68 469 -101Q469 -134 453 -162Q437 -190 409 -206Q381 -222 348 -222ZM384 -41H281L337 -128H284L307 -166H409L355 -79H409ZM348 -364V-405Q265 -405 194 -364Q125 -323 84 -254Q43 -183 43 -100H84Q84 -172 119.5 -232.5Q155 -293 215.5 -328.5Q276 -364 348 -364ZM348 -283V-324Q287 -324 235.5 -294Q184 -264 154 -212.5Q124 -161 124 -100H165Q165 -150 189.5 -192Q214 -234 256 -258.5Q298 -283 348 -283Z"/>
</svg>