<svg xmlns="http://www.w3.org/2000/svg" viewBox="0 -512 512 512">
	<path fill="#000000" d="M87 -317Q84 -316 81 -314Q43 -259 43 -192Q43 -150 59 -110.5Q75 -71 105 -41Q135 -11 174.5 5Q214 21 256 21Q303 21 344.5 2Q386 -17 416 -51L363 -46Q274 -36 185 -44Q162 -44 141 -54Q127 -61 118 -73Q109 -85 108 -100Q108 -105 112 -109L321 -326V-329H231Q158 -327 87 -317ZM430 -75Q434 -76 436 -77Q469 -130 469 -192Q469 -234 453 -273.5Q437 -313 407 -343Q377 -373 337.5 -389Q298 -405 255 -405Q212 -405 173 -388.5Q134 -372 104 -342H110Q209 -355 311 -349Q341 -349 370 -338Q384 -332 394 -319.5Q404 -307 405 -291Q405 -285 401 -281L207 -81L192 -65V-63H280Q355 -65 430 -75Z"/>
</svg>