<svg xmlns="http://www.w3.org/2000/svg" viewBox="0 -512 512 512">
	<path fill="#000000" d="M378 -122L348 -92L375 -64H341Q324 -64 311.5 -76.5Q299 -89 299 -107V-320Q299 -347 280 -365.5Q261 -384 235 -384Q211 -384 192 -367Q174 -384 149.5 -384Q125 -384 107 -367Q88 -384 64 -384V-341Q73 -341 79 -335Q85 -329 85 -320V-107H128V-320Q128 -329 134 -335Q140 -341 149 -341Q158 -341 164.5 -335Q171 -329 171 -320V-107H213V-320Q213 -329 219.5 -335Q226 -341 235 -341Q244 -341 250 -335Q256 -329 256 -320V-107Q256 -71 281 -46Q306 -21 341 -21H375L348 6L378 36L457 -43Z"/>
</svg>