<svg xmlns="http://www.w3.org/2000/svg" viewBox="0 -512 512 512">
	<path fill="#000000" d="M256 -363Q198 -363 149 -340Q100 -317 71.5 -277.5Q43 -238 43 -192Q43 -158 66 -133.5Q89 -109 123 -107H128Q163 -107 188 -132Q213 -157 213 -192Q213 -227 188 -252Q163 -277 128 -277H123Q150 -303 184.5 -316Q219 -329 256 -329Q313 -329 363 -299L389 -325Q328 -364 256 -363ZM128 -235Q146 -235 158.5 -222.5Q171 -210 171 -192Q171 -174 158 -161.5Q145 -149 128 -149Q111 -149 99 -160Q87 -171 85 -188V-196Q87 -213 99 -224Q111 -235 128 -235ZM389 -277H384Q349 -277 324 -252Q299 -227 299 -192Q299 -157 324 -132Q349 -107 384 -107H389Q362 -81 327.5 -68Q293 -55 256 -55Q199 -55 149 -85L123 -59Q183 -21 256 -21Q314 -21 363 -44Q412 -67 440.5 -106.5Q469 -146 469 -192Q469 -226 446 -250.5Q423 -275 389 -277ZM384 -149Q366 -149 353.5 -161.5Q341 -174 341 -192Q341 -210 354 -222.5Q367 -235 384 -235Q401 -235 413 -224Q425 -213 427 -196V-188Q425 -171 413 -160Q401 -149 384 -149Z"/>
</svg>