<svg xmlns="http://www.w3.org/2000/svg" viewBox="0 -512 512 512">
	<path fill="#000000" d="M427 -85Q427 -59 408 -40Q389 -21 363 -22Q337 -23 318.5 -41Q300 -59 299 -85Q304 -136 320 -186Q337 -241 341 -299Q341 -327 326.5 -351.5Q312 -376 287.5 -390.5Q263 -405 234.5 -405Q206 -405 182 -390.5Q158 -376 143.5 -351.5Q129 -327 128 -299Q133 -252 149 -203L154 -188Q120 -198 88.5 -182Q57 -166 46.5 -132.5Q36 -99 52 -67.5Q68 -36 102 -25Q136 -14 167.5 -30.5Q199 -47 209 -81Q213 -93 213 -107Q208 -166 190 -215Q176 -257 171 -299Q172 -325 190.5 -343Q209 -361 235 -363Q261 -361 279 -343Q297 -325 299 -299Q294 -248 277 -198Q260 -143 256 -85Q257 -57 271.5 -32.5Q286 -8 310 6.5Q334 21 363 21Q392 21 416.5 7Q441 -7 455 -31.5Q469 -56 469 -85ZM128 -64Q110 -64 97.5 -76.5Q85 -89 85 -106.5Q85 -124 97.5 -136.5Q110 -149 128 -149Q146 -149 158.5 -136.5Q171 -124 171 -106.5Q171 -89 158.5 -76.5Q146 -64 128 -64Z"/>
</svg>