<svg xmlns="http://www.w3.org/2000/svg" viewBox="0 -512 512 512">
	<path fill="#000000" d="M395 -40Q415 -59 423 -96Q427 -117 427 -149Q427 -185 402 -210Q377 -235 341 -235Q319 -235 299 -223V-320Q299 -347 280 -365.5Q261 -384 235 -384Q211 -384 192 -367Q174 -384 149.5 -384Q125 -384 107 -367Q88 -384 64 -384V-341Q73 -341 79 -335Q85 -329 85 -320V-107H128V-320Q128 -329 134 -335Q140 -341 149 -341Q158 -341 164.5 -335Q171 -329 171 -320V-107H213V-320Q213 -329 219.5 -335Q226 -341 235 -341Q244 -341 250 -335Q256 -329 256 -320V-149Q256 -117 260 -96Q267 -59 288 -40Q262 -26 235 -21V21Q265 21 341 -19Q417 21 448 21V-21Q420 -26 395 -40ZM341 -192Q359 -192 371.5 -179.5Q384 -167 384 -149Q384 -103 374.5 -83.5Q365 -64 341.5 -64Q318 -64 308.5 -83.5Q299 -103 299 -149Q299 -167 311.5 -179.5Q324 -192 341 -192Z"/>
</svg>