<svg xmlns="http://www.w3.org/2000/svg" viewBox="0 -512 512 512">
	<path fill="#000000" d="M320 -171Q297 -171 277 -159V-320Q277 -347 258.5 -365.5Q240 -384 213 -384Q189 -384 171 -367Q152 -384 128 -384V-341Q137 -341 143 -335Q149 -329 149 -320V-107H192V-320Q192 -329 198 -335Q204 -341 213 -341Q222 -341 228.5 -335Q235 -329 235 -320V-85Q235 -68 222.5 -55.5Q210 -43 192 -43V0Q210 0 227 -7.5Q244 -15 256 -29Q279 -3 314.5 -0.5Q350 2 376.5 -21Q403 -44 405.5 -79.5Q408 -115 385 -141Q373 -155 356 -163Q339 -171 320 -171ZM320 -43Q302 -43 289.5 -55.5Q277 -68 277 -85.5Q277 -103 289.5 -115.5Q302 -128 320 -128Q338 -128 350.5 -115.5Q363 -103 363 -85.5Q363 -68 350.5 -55.5Q338 -43 320 -43Z"/>
</svg>