<svg xmlns="http://www.w3.org/2000/svg" width="512" height="512"><rect id="backgroundrect" width="100%" height="100%" x="0" y="0" fill="none" stroke="none"/><title>ionicons-v5-h</title><g class="currentLayer" style=""><title>Layer 1</title><rect x="64" y="64" width="80" height="80" rx="40" ry="40" style="fill:none;stroke:#000;stroke-miterlimit:10;stroke-width:32px" id="svg_1"/><rect x="216" y="64" width="80" height="80" rx="40" ry="40" style="fill:none;stroke:#000;stroke-miterlimit:10;stroke-width:32px" id="svg_2"/><rect x="368" y="64" width="80" height="80" rx="40" ry="40" style="fill:none;stroke:#000;stroke-miterlimit:10;stroke-width:32px" id="svg_3"/><rect x="64" y="216" width="80" height="80" rx="40" ry="40" style="fill:none;stroke:#000;stroke-miterlimit:10;stroke-width:32px" id="svg_4"/><rect x="216" y="216" width="80" height="80" rx="40" ry="40" style="fill:none;stroke:#000;stroke-miterlimit:10;stroke-width:32px" id="svg_5" class=""/><rect x="368" y="216" width="80" height="80" rx="40" ry="40" style="fill:none;stroke:#000;stroke-miterlimit:10;stroke-width:32px" id="svg_6"/><rect x="64" y="368" width="80" height="80" rx="40" ry="40" style="fill:none;stroke:#000;stroke-miterlimit:10;stroke-width:32px" id="svg_7"/><rect x="216" y="368" width="80" height="80" rx="40" ry="40" style="fill:none;stroke:#000;stroke-miterlimit:10;stroke-width:32px" id="svg_8"/><rect x="368" y="368" width="80" height="80" rx="40" ry="40" style="fill:none;stroke:#000;stroke-miterlimit:10;stroke-width:32px" id="svg_9"/><path fill="" fill-opacity="1" stroke="none" stroke-opacity="1" stroke-width="1" stroke-dasharray="none" stroke-linejoin="miter" stroke-linecap="butt" stroke-dashoffset="" fill-rule="nonzero" opacity="1" marker-start="" marker-mid="" marker-end="" d="M220,255.5 C220,238.64917127071823 234.99171270718233,225 253.5,225 C272.00828729281767,225 287,238.64917127071823 287,255.5 C287,272.3508287292818 272.00828729281767,286 253.5,286 C234.99171270718233,286 220,272.3508287292818 220,255.5 Z" id="svg_10"/><path fill="" fill-opacity="1" stroke="none" stroke-opacity="1" stroke-width="1" stroke-dasharray="none" stroke-linejoin="miter" stroke-linecap="butt" stroke-dashoffset="" fill-rule="nonzero" opacity="1" marker-start="" marker-mid="" marker-end="" d="M219,103.5 C219,87.75414364640883 234.66298342541435,75 254,75 C273.3370165745856,75 289,87.75414364640883 289,103.5 C289,119.24585635359117 273.3370165745856,132 254,132 C234.66298342541435,132 219,119.24585635359117 219,103.5 Z" id="svg_11"/><path fill="" fill-opacity="1" stroke="none" stroke-opacity="1" stroke-width="1" stroke-dasharray="none" stroke-linejoin="miter" stroke-linecap="butt" stroke-dashoffset="" fill-rule="nonzero" opacity="1" marker-start="" marker-mid="" marker-end="" d="M220,406.5 C220,390.20165745856355 234.99171270718233,377 253.5,377 C272.00828729281767,377 287,390.20165745856355 287,406.5 C287,422.79834254143645 272.00828729281767,436 253.5,436 C234.99171270718233,436 220,422.79834254143645 220,406.5 Z" id="svg_13"/></g></svg>