<svg xmlns="http://www.w3.org/2000/svg" viewBox="0 0 21 10">
    <g id="sober_black">
        <polygon points="19 5 19 6 20 5" fill="#000000" />
        <rect x="17" y="8" width="1" height="1" fill="#000000" />
        <rect x="17" y="7" width="1" height="1" fill="#000000" />
        <rect x="17" y="6" width="1" height="1" fill="#000000" />
        <polygon points="17 6 18 6 18 5" fill="#000000" />
        <polygon points="15 8 15 9 16 8" fill="#000000" />
        <rect x="15" y="6" width="1" height="1" fill="#000000" />
        <rect x="15" y="5" width="1" height="1" fill="#000000" />
        <rect x="13" y="8" width="1" height="1" fill="#000000" />
        <rect x="13" y="7" width="1" height="1" fill="#000000" />
        <rect x="13" y="6" width="1" height="1" fill="#000000" />
        <polygon points="13 6 14 6 14 5" fill="#000000" />
        <polygon points="11 8 11 9 12 8" fill="#000000" />
        <rect x="11" y="7" width="1" height="1" fill="#000000" />
        <rect x="11" y="6" width="1" height="1" fill="#000000" />
        <rect x="11" y="5" width="1" height="1" fill="#000000" />
        <rect x="9" y="8" width="1" height="1" fill="#000000" />
        <rect x="9" y="7" width="1" height="1" fill="#000000" />
        <rect x="9" y="6" width="1" height="1" fill="#000000" />
        <rect x="9" y="5" width="1" height="1" fill="#000000" />
        <rect x="9" y="4" width="1" height="1" fill="#000000" />
        <rect x="9" y="3" width="1" height="1" fill="#000000" />
        <rect x="9" y="2" width="1" height="1" fill="#000000" />
        <polygon points="9 2 10 2 10 1" fill="#000000" />
        <polygon points="7 8 7 9 8 8" fill="#000000" />
        <rect x="7" y="7" width="1" height="1" fill="#000000" />
        <rect x="7" y="6" width="1" height="1" fill="#000000" />
        <rect x="7" y="5" width="1" height="1" fill="#000000" />
        <rect x="5" y="8" width="1" height="1" fill="#000000" />
        <rect x="5" y="7" width="1" height="1" fill="#000000" />
        <rect x="5" y="6" width="1" height="1" fill="#000000" />
        <polygon points="5 6 6 6 6 5" fill="#000000" />
        <polygon points="3 8 3 9 4 8" fill="#000000" />
        <rect x="3" y="7" width="1" height="1" fill="#000000" />
        <rect x="3" y="5" width="1" height="1" fill="#000000" />
        <rect x="1" y="8" width="1" height="1" fill="#000000" />
        <rect x="1" y="6" width="1" height="1" fill="#000000" />
        <polygon points="1 6 2 6 2 5" fill="#000000" />
    </g>
</svg>