<svg width="500" height="500" viewBox="0 0 500 500" fill="none" xmlns="http://www.w3.org/2000/svg">
<path d="M338.129 451.5C337.669 451.67 334.759 452.64 334.759 452.64C334.371 452.864 333.94 452.997 333.499 453.03C327.649 453.48 321.519 454.02 321.519 446.87C321.499 430.797 321.479 394.09 321.459 336.75C321.459 333.33 321.356 329.99 321.149 326.73C320.443 315.477 315.153 307.24 305.279 302.02C299.373 298.9 293.063 297.363 286.349 297.41C244.603 297.69 209.823 297.71 182.009 297.47C161.649 297.29 142.099 291.657 123.359 280.57C118.739 277.837 113.923 274.123 108.909 269.43C102.289 263.23 97.9026 258.863 95.7492 256.33C85.6626 244.457 79.1759 230.537 76.2892 214.57C75.4226 209.763 74.9426 205.143 74.8492 200.71C74.7092 194.54 74.0392 188.79 74.0192 182.09C73.9859 170.417 73.9959 159.39 74.0492 149.01C74.0692 145.343 74.1959 142.503 74.4292 140.49C74.9092 136.41 74.9192 132.77 75.4992 129.16C77.8726 114.387 83.1026 101.17 91.1892 89.5099C107.979 65.2999 135.439 50.3799 164.989 46.6299C168.236 46.2166 171.379 46.0966 174.419 46.2699C178.459 46.5099 178.899 49.9499 178.919 53.4399C179.169 88.1899 179.109 122.5 178.899 164.58C178.859 172.027 179.439 177.573 180.639 181.22C184.589 193.31 196.629 201.53 209.659 201.98C213.169 202.1 217.149 202.52 221.299 202.53C260.493 202.55 290.519 202.607 311.379 202.7C315.713 202.72 321.049 203.143 327.389 203.97C340.129 205.65 351.509 209.36 362.799 215.3C363.426 215.633 366.826 217.417 372.999 220.65C380.153 224.397 386.816 229.237 392.989 235.17C406.619 248.24 416.659 263.09 420.779 281.08C422.689 289.43 423.599 297.92 423.479 307.04C423.299 320.213 423.263 335.95 423.369 354.25C423.396 358.697 422.746 364.87 421.419 372.77C416.129 404.35 392.969 429.18 364.769 443.6C355.543 448.32 341.693 453.117 333.499 453.03C333.499 453.03 338.589 451.33 338.129 451.5Z" fill="#0B57D0"/>
<rect x="195.129" y="46" width="111" height="111" rx="12" fill="#0B57D0"/>
<rect x="195.129" y="342" width="111" height="111" rx="12" fill="#0B57D0"/>
<rect x="323.129" y="46" width="102" height="111" rx="12" fill="#4285F4"/>
<rect x="77.1292" y="342" width="102" height="111" rx="12" fill="#4285F4"/>
</svg>
