<svg width="400" height="200" viewBox="0 0 400 200" fill="none" xmlns="http://www.w3.org/2000/svg">
<rect width="400" height="200" fill="white"/>
<path d="M122.811 144.296C120.571 144.296 118.459 144.04 116.475 143.528C114.427 143.08 112.699 142.344 111.291 141.32L114.747 132.392C116.603 133.736 118.939 134.408 121.755 134.408C123.931 134.408 125.627 133.704 126.843 132.296C128.059 130.952 128.667 128.936 128.667 126.248V73.736H140.667V125.96C140.667 131.592 139.099 136.04 135.963 139.304C132.891 142.632 128.507 144.296 122.811 144.296ZM134.619 65.288C132.379 65.288 130.523 64.584 129.051 63.176C127.643 61.768 126.939 60.072 126.939 58.088C126.939 56.04 127.643 54.344 129.051 53C130.523 51.592 132.379 50.888 134.619 50.888C136.859 50.888 138.683 51.56 140.091 52.904C141.563 54.184 142.299 55.816 142.299 57.8C142.299 59.912 141.595 61.704 140.187 63.176C138.779 64.584 136.923 65.288 134.619 65.288ZM187.987 125V114.632L187.315 112.424V94.28C187.315 90.76 186.259 88.04 184.147 86.12C182.035 84.136 178.835 83.144 174.547 83.144C171.667 83.144 168.819 83.592 166.003 84.488C163.251 85.384 160.915 86.632 158.995 88.232L154.291 79.496C157.043 77.384 160.307 75.816 164.083 74.792C167.923 73.704 171.891 73.16 175.987 73.16C183.411 73.16 189.139 74.952 193.171 78.536C197.267 82.056 199.315 87.528 199.315 94.952V125H187.987ZM171.859 125.672C168.019 125.672 164.659 125.032 161.779 123.752C158.899 122.408 156.659 120.584 155.059 118.28C153.523 115.912 152.755 113.256 152.755 110.312C152.755 107.432 153.427 104.84 154.771 102.536C156.179 100.232 158.451 98.408 161.587 97.064C164.723 95.72 168.883 95.048 174.067 95.048H188.947V103.016H174.931C170.835 103.016 168.083 103.688 166.675 105.032C165.267 106.312 164.563 107.912 164.563 109.832C164.563 112.008 165.427 113.736 167.155 115.016C168.883 116.296 171.283 116.936 174.355 116.936C177.299 116.936 179.923 116.264 182.227 114.92C184.595 113.576 186.291 111.592 187.315 108.968L189.331 116.168C188.179 119.176 186.099 121.512 183.091 123.176C180.147 124.84 176.403 125.672 171.859 125.672ZM207.708 125L230.268 95.624L230.076 102.056L208.572 73.736H221.916L236.988 93.896H231.9L247.068 73.736H260.028L238.332 102.056L238.428 95.624L260.892 125H247.356L231.516 103.592L236.508 104.264L220.956 125H207.708ZM298.163 125.672C294.003 125.672 290.195 124.712 286.739 122.792C283.347 120.872 280.627 117.992 278.579 114.152C276.595 110.248 275.603 105.32 275.603 99.368C275.603 93.352 276.563 88.424 278.483 84.584C280.467 80.744 283.155 77.896 286.547 76.04C289.939 74.12 293.811 73.16 298.163 73.16C303.219 73.16 307.667 74.248 311.507 76.424C315.411 78.6 318.483 81.64 320.723 85.544C323.027 89.448 324.179 94.056 324.179 99.368C324.179 104.68 323.027 109.32 320.723 113.288C318.483 117.192 315.411 120.232 311.507 122.408C307.667 124.584 303.219 125.672 298.163 125.672ZM269.747 143.624V73.736H281.171V85.832L280.787 99.464L281.747 113.096V143.624H269.747ZM296.819 115.4C299.699 115.4 302.259 114.76 304.499 113.48C306.803 112.2 308.627 110.344 309.971 107.912C311.315 105.48 311.987 102.632 311.987 99.368C311.987 96.04 311.315 93.192 309.971 90.824C308.627 88.392 306.803 86.536 304.499 85.256C302.259 83.976 299.699 83.336 296.819 83.336C293.939 83.336 291.347 83.976 289.043 85.256C286.739 86.536 284.915 88.392 283.571 90.824C282.227 93.192 281.555 96.04 281.555 99.368C281.555 102.632 282.227 105.48 283.571 107.912C284.915 110.344 286.739 112.2 289.043 113.48C291.347 114.76 293.939 115.4 296.819 115.4ZM338.377 144.296C335.881 144.296 333.385 143.88 330.889 143.048C328.393 142.216 326.313 141.064 324.649 139.592L329.449 130.76C330.665 131.848 332.041 132.712 333.577 133.352C335.113 133.992 336.681 134.312 338.281 134.312C340.457 134.312 342.217 133.768 343.561 132.68C344.905 131.592 346.153 129.768 347.305 127.208L350.281 120.488L351.241 119.048L370.633 73.736H382.153L358.153 129.128C356.553 132.968 354.761 136.008 352.777 138.248C350.857 140.488 348.681 142.056 346.249 142.952C343.881 143.848 341.257 144.296 338.377 144.296ZM348.937 126.824L325.801 73.736H338.281L357.097 117.992L348.937 126.824Z" fill="black"/>
<circle cx="66" cy="88" r="24" fill="#EA80FC"/>
<circle cx="66" cy="112" r="24" fill="#26A69A"/>
<circle cx="42" cy="96.64" r="24" fill="#5E97F6"/>
</svg>
